G75*
%MOIN*%
%OFA0B0*%
%FSLAX25Y25*%
%IPPOS*%
%LPD*%
%AMOC8*
5,1,8,0,0,1.08239X$1,22.5*
%
%ADD10C,0.00400*%
%ADD11C,0.00500*%
%ADD12C,0.00800*%
%ADD13C,0.02000*%
%ADD14C,0.00200*%
%ADD15C,0.00394*%
%ADD16R,0.01575X0.01969*%
%ADD17C,0.00600*%
%ADD18C,0.00300*%
D10*
X0091421Y0099335D02*
X0090654Y0100102D01*
X0091421Y0099335D02*
X0092956Y0099335D01*
X0093723Y0100102D01*
X0093723Y0100869D01*
X0092956Y0101637D01*
X0091421Y0101637D01*
X0090654Y0102404D01*
X0090654Y0103171D01*
X0091421Y0103939D01*
X0092956Y0103939D01*
X0093723Y0103171D01*
X0095258Y0103939D02*
X0098327Y0103939D01*
X0099862Y0103939D02*
X0101396Y0102404D01*
X0102931Y0103939D01*
X0102931Y0099335D01*
X0104465Y0099335D02*
X0107535Y0099335D01*
X0106000Y0099335D02*
X0106000Y0103939D01*
X0104465Y0102404D01*
X0109069Y0103171D02*
X0109069Y0100102D01*
X0112139Y0103171D01*
X0112139Y0100102D01*
X0111371Y0099335D01*
X0109837Y0099335D01*
X0109069Y0100102D01*
X0109069Y0103171D02*
X0109837Y0103939D01*
X0111371Y0103939D01*
X0112139Y0103171D01*
X0110604Y0106028D02*
X0107535Y0106028D01*
X0107535Y0110631D01*
X0106000Y0109864D02*
X0105233Y0110631D01*
X0103698Y0110631D01*
X0102931Y0109864D01*
X0102931Y0106795D01*
X0103698Y0106028D01*
X0105233Y0106028D01*
X0106000Y0106795D01*
X0106000Y0109864D01*
X0101396Y0109864D02*
X0100629Y0110631D01*
X0099094Y0110631D01*
X0098327Y0109864D01*
X0098327Y0109097D01*
X0099094Y0108330D01*
X0100629Y0108330D01*
X0101396Y0107562D01*
X0101396Y0106795D01*
X0100629Y0106028D01*
X0099094Y0106028D01*
X0098327Y0106795D01*
X0096792Y0106028D02*
X0095258Y0106028D01*
X0096025Y0106028D02*
X0096025Y0109097D01*
X0095258Y0109097D01*
X0096025Y0110631D02*
X0096025Y0111399D01*
X0093723Y0110631D02*
X0093723Y0106028D01*
X0092188Y0107562D01*
X0090654Y0106028D01*
X0090654Y0110631D01*
X0095258Y0103939D02*
X0095258Y0099335D01*
X0095258Y0101637D02*
X0096792Y0101637D01*
X0099862Y0099335D02*
X0099862Y0103939D01*
X0104182Y0128509D02*
X0105717Y0130043D01*
X0104949Y0130043D01*
X0104949Y0130811D01*
X0105717Y0130811D01*
X0105717Y0130043D01*
X0102647Y0130811D02*
X0102647Y0132345D01*
X0101880Y0133113D01*
X0100345Y0133113D01*
X0099578Y0132345D01*
X0099578Y0130811D01*
X0100345Y0130043D01*
X0101880Y0130043D01*
X0102647Y0130811D01*
X0098043Y0130043D02*
X0098043Y0132345D01*
X0097276Y0133113D01*
X0094974Y0133113D01*
X0094974Y0130043D01*
X0093439Y0130043D02*
X0091905Y0130043D01*
X0092672Y0130043D02*
X0092672Y0133113D01*
X0091905Y0133113D01*
X0090370Y0133113D02*
X0090370Y0130043D01*
X0088068Y0130043D01*
X0087301Y0130811D01*
X0087301Y0133113D01*
X0085766Y0133113D02*
X0083464Y0133113D01*
X0082697Y0132345D01*
X0082697Y0130811D01*
X0083464Y0130043D01*
X0085766Y0130043D01*
X0085766Y0129276D02*
X0085766Y0133113D01*
X0080395Y0133113D02*
X0080395Y0130043D01*
X0079628Y0130043D02*
X0081162Y0130043D01*
X0078093Y0130811D02*
X0077326Y0130043D01*
X0075791Y0130043D01*
X0075024Y0130811D01*
X0075791Y0132345D02*
X0077326Y0132345D01*
X0078093Y0131578D01*
X0078093Y0130811D01*
X0079628Y0133113D02*
X0080395Y0133113D01*
X0080395Y0134647D02*
X0080395Y0135415D01*
X0078093Y0133880D02*
X0077326Y0134647D01*
X0075791Y0134647D01*
X0075024Y0133880D01*
X0075024Y0133113D01*
X0075791Y0132345D01*
X0084232Y0128509D02*
X0084999Y0128509D01*
X0085766Y0129276D01*
X0092672Y0134647D02*
X0092672Y0135415D01*
X0111855Y0134647D02*
X0111855Y0130043D01*
X0111855Y0131578D02*
X0114157Y0131578D01*
X0114924Y0132345D01*
X0114924Y0133880D01*
X0114157Y0134647D01*
X0111855Y0134647D01*
X0113390Y0131578D02*
X0114924Y0130043D01*
X0116459Y0130811D02*
X0116459Y0132345D01*
X0117226Y0133113D01*
X0118761Y0133113D01*
X0119528Y0132345D01*
X0119528Y0131578D01*
X0116459Y0131578D01*
X0116459Y0130811D02*
X0117226Y0130043D01*
X0118761Y0130043D01*
X0121063Y0133113D02*
X0122598Y0130043D01*
X0124132Y0133113D01*
X0125667Y0133113D02*
X0125667Y0132345D01*
X0126434Y0132345D01*
X0126434Y0133113D01*
X0125667Y0133113D01*
X0125667Y0130811D02*
X0125667Y0130043D01*
X0126434Y0130043D01*
X0126434Y0130811D01*
X0125667Y0130811D01*
X0132573Y0130811D02*
X0133340Y0130043D01*
X0134875Y0130043D01*
X0135642Y0130811D01*
X0135642Y0133880D01*
X0132573Y0130811D01*
X0132573Y0133880D01*
X0133340Y0134647D01*
X0134875Y0134647D01*
X0135642Y0133880D01*
X0137177Y0130811D02*
X0137944Y0130811D01*
X0137944Y0130043D01*
X0137177Y0130043D01*
X0137177Y0130811D01*
X0139479Y0130043D02*
X0142548Y0130043D01*
X0141013Y0130043D02*
X0141013Y0134647D01*
X0139479Y0133113D01*
D11*
X0144115Y0136143D02*
X0190572Y0136143D01*
X0190572Y0002284D01*
X0144115Y0002284D01*
X0144115Y0136143D01*
X0120769Y0143623D02*
X0120769Y0123938D01*
X0120769Y0064489D01*
X0069588Y0064489D01*
X0069588Y0123938D01*
X0069588Y0143623D01*
X0120769Y0143623D01*
X0120769Y0123938D02*
X0069588Y0123938D01*
X0077763Y0118032D02*
X0077765Y0118091D01*
X0077771Y0118149D01*
X0077781Y0118207D01*
X0077794Y0118264D01*
X0077812Y0118321D01*
X0077833Y0118376D01*
X0077858Y0118429D01*
X0077886Y0118480D01*
X0077917Y0118530D01*
X0077952Y0118577D01*
X0077990Y0118622D01*
X0078031Y0118665D01*
X0078075Y0118704D01*
X0078121Y0118740D01*
X0078169Y0118774D01*
X0078220Y0118804D01*
X0078273Y0118830D01*
X0078327Y0118853D01*
X0078382Y0118872D01*
X0078439Y0118888D01*
X0078497Y0118900D01*
X0078555Y0118908D01*
X0078614Y0118912D01*
X0078672Y0118912D01*
X0078731Y0118908D01*
X0078789Y0118900D01*
X0078847Y0118888D01*
X0078904Y0118872D01*
X0078959Y0118853D01*
X0079013Y0118830D01*
X0079066Y0118804D01*
X0079117Y0118774D01*
X0079165Y0118740D01*
X0079211Y0118704D01*
X0079255Y0118665D01*
X0079296Y0118622D01*
X0079334Y0118577D01*
X0079369Y0118530D01*
X0079400Y0118480D01*
X0079428Y0118429D01*
X0079453Y0118376D01*
X0079474Y0118321D01*
X0079492Y0118264D01*
X0079505Y0118207D01*
X0079515Y0118149D01*
X0079521Y0118091D01*
X0079523Y0118032D01*
X0079521Y0117973D01*
X0079515Y0117915D01*
X0079505Y0117857D01*
X0079492Y0117800D01*
X0079474Y0117743D01*
X0079453Y0117688D01*
X0079428Y0117635D01*
X0079400Y0117584D01*
X0079369Y0117534D01*
X0079334Y0117487D01*
X0079296Y0117442D01*
X0079255Y0117399D01*
X0079211Y0117360D01*
X0079165Y0117324D01*
X0079117Y0117290D01*
X0079066Y0117260D01*
X0079013Y0117234D01*
X0078959Y0117211D01*
X0078904Y0117192D01*
X0078847Y0117176D01*
X0078789Y0117164D01*
X0078731Y0117156D01*
X0078672Y0117152D01*
X0078614Y0117152D01*
X0078555Y0117156D01*
X0078497Y0117164D01*
X0078439Y0117176D01*
X0078382Y0117192D01*
X0078327Y0117211D01*
X0078273Y0117234D01*
X0078220Y0117260D01*
X0078169Y0117290D01*
X0078121Y0117324D01*
X0078075Y0117360D01*
X0078031Y0117399D01*
X0077990Y0117442D01*
X0077952Y0117487D01*
X0077917Y0117534D01*
X0077886Y0117584D01*
X0077858Y0117635D01*
X0077833Y0117688D01*
X0077812Y0117743D01*
X0077794Y0117800D01*
X0077781Y0117857D01*
X0077771Y0117915D01*
X0077765Y0117973D01*
X0077763Y0118032D01*
X0087495Y0106548D02*
X0087344Y0106301D01*
X0087188Y0106058D01*
X0087026Y0105818D01*
X0086859Y0105582D01*
X0086687Y0105349D01*
X0086509Y0105121D01*
X0086327Y0104897D01*
X0086139Y0104677D01*
X0085946Y0104461D01*
X0085749Y0104249D01*
X0085546Y0104043D01*
X0083741Y0106269D02*
X0083184Y0106826D01*
X0082973Y0107009D02*
X0082973Y0101891D01*
X0079421Y0101814D02*
X0079407Y0101754D01*
X0079397Y0101692D01*
X0079390Y0101630D01*
X0079386Y0101567D01*
X0079386Y0101505D01*
X0079390Y0101442D01*
X0079397Y0101380D01*
X0079407Y0101318D01*
X0079421Y0101258D01*
X0079423Y0101258D02*
X0079438Y0101205D01*
X0079458Y0101154D01*
X0079481Y0101104D01*
X0079507Y0101056D01*
X0079537Y0101009D01*
X0079570Y0100965D01*
X0079606Y0100924D01*
X0079645Y0100885D01*
X0079686Y0100849D01*
X0079730Y0100816D01*
X0079777Y0100786D01*
X0079825Y0100760D01*
X0079875Y0100737D01*
X0079926Y0100717D01*
X0079979Y0100702D01*
X0086246Y0102650D02*
X0086300Y0102514D01*
X0086352Y0102376D01*
X0086400Y0102237D01*
X0086444Y0102097D01*
X0086486Y0101957D01*
X0086524Y0101815D01*
X0086524Y0101258D02*
X0086509Y0101205D01*
X0086489Y0101154D01*
X0086466Y0101104D01*
X0086440Y0101056D01*
X0086410Y0101009D01*
X0086377Y0100965D01*
X0086341Y0100924D01*
X0086302Y0100885D01*
X0086261Y0100849D01*
X0086217Y0100816D01*
X0086170Y0100786D01*
X0086122Y0100760D01*
X0086072Y0100737D01*
X0086021Y0100717D01*
X0085968Y0100702D01*
X0079700Y0102650D02*
X0079646Y0102514D01*
X0079594Y0102376D01*
X0079546Y0102237D01*
X0079502Y0102097D01*
X0079460Y0101957D01*
X0079422Y0101815D01*
X0079979Y0100700D02*
X0080039Y0100686D01*
X0080101Y0100676D01*
X0080163Y0100669D01*
X0080226Y0100665D01*
X0080288Y0100665D01*
X0080351Y0100669D01*
X0080413Y0100676D01*
X0080475Y0100686D01*
X0080535Y0100700D01*
X0085690Y0103763D02*
X0085794Y0103584D01*
X0085893Y0103401D01*
X0085988Y0103217D01*
X0086079Y0103030D01*
X0086165Y0102841D01*
X0086247Y0102650D01*
X0085968Y0100700D02*
X0085908Y0100686D01*
X0085846Y0100676D01*
X0085784Y0100669D01*
X0085721Y0100665D01*
X0085659Y0100665D01*
X0085596Y0100669D01*
X0085534Y0100676D01*
X0085472Y0100686D01*
X0085412Y0100700D01*
X0086526Y0101258D02*
X0086540Y0101318D01*
X0086550Y0101380D01*
X0086557Y0101442D01*
X0086561Y0101505D01*
X0086561Y0101567D01*
X0086557Y0101630D01*
X0086550Y0101692D01*
X0086540Y0101754D01*
X0086526Y0101814D01*
X0086382Y0109331D02*
X0086518Y0109385D01*
X0086656Y0109437D01*
X0086795Y0109485D01*
X0086935Y0109529D01*
X0087075Y0109571D01*
X0087217Y0109609D01*
X0087773Y0109609D02*
X0087826Y0109594D01*
X0087877Y0109574D01*
X0087927Y0109551D01*
X0087975Y0109525D01*
X0088022Y0109495D01*
X0088066Y0109462D01*
X0088107Y0109426D01*
X0088146Y0109387D01*
X0088182Y0109346D01*
X0088215Y0109302D01*
X0088245Y0109255D01*
X0088271Y0109207D01*
X0088294Y0109157D01*
X0088314Y0109106D01*
X0088329Y0109053D01*
X0087773Y0109610D02*
X0087713Y0109624D01*
X0087651Y0109634D01*
X0087589Y0109641D01*
X0087526Y0109645D01*
X0087464Y0109645D01*
X0087401Y0109641D01*
X0087339Y0109634D01*
X0087277Y0109624D01*
X0087217Y0109610D01*
X0088331Y0109053D02*
X0088345Y0108993D01*
X0088355Y0108931D01*
X0088362Y0108869D01*
X0088366Y0108806D01*
X0088366Y0108744D01*
X0088362Y0108681D01*
X0088355Y0108619D01*
X0088345Y0108557D01*
X0088331Y0108497D01*
X0085411Y0100701D02*
X0085269Y0100739D01*
X0085129Y0100781D01*
X0084989Y0100825D01*
X0084850Y0100873D01*
X0084712Y0100925D01*
X0084576Y0100979D01*
X0080257Y0103763D02*
X0080153Y0103584D01*
X0080054Y0103401D01*
X0079959Y0103217D01*
X0079868Y0103030D01*
X0079782Y0102841D01*
X0079700Y0102650D01*
X0079565Y0109332D02*
X0079429Y0109386D01*
X0079291Y0109438D01*
X0079152Y0109486D01*
X0079012Y0109530D01*
X0078872Y0109572D01*
X0078730Y0109610D01*
X0078173Y0109609D02*
X0078120Y0109594D01*
X0078069Y0109574D01*
X0078019Y0109551D01*
X0077971Y0109525D01*
X0077924Y0109495D01*
X0077880Y0109462D01*
X0077839Y0109426D01*
X0077800Y0109387D01*
X0077764Y0109346D01*
X0077731Y0109302D01*
X0077701Y0109255D01*
X0077675Y0109207D01*
X0077652Y0109157D01*
X0077632Y0109106D01*
X0077617Y0109053D01*
X0078174Y0109610D02*
X0078234Y0109624D01*
X0078296Y0109634D01*
X0078358Y0109641D01*
X0078421Y0109645D01*
X0078483Y0109645D01*
X0078546Y0109641D01*
X0078608Y0109634D01*
X0078670Y0109624D01*
X0078730Y0109610D01*
X0077616Y0109053D02*
X0077602Y0108993D01*
X0077592Y0108931D01*
X0077585Y0108869D01*
X0077581Y0108806D01*
X0077581Y0108744D01*
X0077585Y0108681D01*
X0077592Y0108619D01*
X0077602Y0108557D01*
X0077616Y0108497D01*
X0080536Y0100702D02*
X0080678Y0100740D01*
X0080818Y0100782D01*
X0080958Y0100826D01*
X0081097Y0100874D01*
X0081235Y0100926D01*
X0081371Y0100980D01*
X0080678Y0108775D02*
X0080499Y0108879D01*
X0080316Y0108978D01*
X0080132Y0109073D01*
X0079945Y0109164D01*
X0079756Y0109250D01*
X0079565Y0109332D01*
X0087495Y0106548D02*
X0087599Y0106727D01*
X0087698Y0106910D01*
X0087793Y0107094D01*
X0087884Y0107281D01*
X0087970Y0107470D01*
X0088052Y0107661D01*
X0078451Y0106548D02*
X0078347Y0106727D01*
X0078248Y0106910D01*
X0078153Y0107094D01*
X0078062Y0107281D01*
X0077976Y0107470D01*
X0077894Y0107661D01*
X0082206Y0106269D02*
X0082763Y0106826D01*
X0088052Y0107661D02*
X0088106Y0107797D01*
X0088158Y0107935D01*
X0088206Y0108074D01*
X0088250Y0108214D01*
X0088292Y0108354D01*
X0088330Y0108496D01*
X0084576Y0100979D02*
X0084315Y0101122D01*
X0084058Y0101271D01*
X0083805Y0101427D01*
X0083555Y0101588D01*
X0083310Y0101756D01*
X0083068Y0101930D01*
X0085268Y0108775D02*
X0085447Y0108879D01*
X0085630Y0108978D01*
X0085814Y0109073D01*
X0086001Y0109164D01*
X0086190Y0109250D01*
X0086381Y0109332D01*
X0077895Y0107661D02*
X0077841Y0107797D01*
X0077789Y0107935D01*
X0077741Y0108074D01*
X0077697Y0108214D01*
X0077655Y0108354D01*
X0077617Y0108496D01*
X0081371Y0100980D02*
X0081631Y0101123D01*
X0081888Y0101272D01*
X0082142Y0101428D01*
X0082391Y0101589D01*
X0082637Y0101757D01*
X0082878Y0101930D01*
X0085690Y0103764D02*
X0085539Y0104010D01*
X0085383Y0104254D01*
X0085221Y0104494D01*
X0085054Y0104730D01*
X0084882Y0104962D01*
X0084704Y0105191D01*
X0084521Y0105415D01*
X0084334Y0105635D01*
X0084141Y0105851D01*
X0083943Y0106062D01*
X0083741Y0106269D01*
X0080400Y0104042D02*
X0080198Y0104249D01*
X0080000Y0104460D01*
X0079807Y0104676D01*
X0079620Y0104896D01*
X0079437Y0105120D01*
X0079259Y0105349D01*
X0079087Y0105581D01*
X0078920Y0105817D01*
X0078758Y0106057D01*
X0078602Y0106301D01*
X0078451Y0106547D01*
X0080679Y0108774D02*
X0080926Y0108623D01*
X0081169Y0108467D01*
X0081409Y0108305D01*
X0081645Y0108138D01*
X0081878Y0107966D01*
X0082106Y0107788D01*
X0082330Y0107606D01*
X0082550Y0107418D01*
X0082766Y0107225D01*
X0082978Y0107028D01*
X0083184Y0106825D01*
X0082762Y0106826D02*
X0082969Y0107028D01*
X0083180Y0107226D01*
X0083396Y0107419D01*
X0083616Y0107606D01*
X0083840Y0107789D01*
X0084069Y0107967D01*
X0084301Y0108139D01*
X0084537Y0108306D01*
X0084777Y0108468D01*
X0085021Y0108624D01*
X0085267Y0108775D01*
X0082206Y0106268D02*
X0082003Y0106062D01*
X0081806Y0105850D01*
X0081613Y0105634D01*
X0081425Y0105414D01*
X0081243Y0105190D01*
X0081065Y0104962D01*
X0080893Y0104729D01*
X0080726Y0104493D01*
X0080564Y0104253D01*
X0080408Y0104010D01*
X0080257Y0103763D01*
X0055759Y0108008D02*
X0055759Y0111758D01*
D12*
X0005060Y0008800D02*
X0007560Y0006300D01*
X0012560Y0006300D01*
X0015060Y0008800D01*
X0015060Y0013800D01*
X0012560Y0016300D01*
X0015060Y0018800D01*
X0015060Y0023800D01*
X0012560Y0026300D01*
X0015060Y0028800D01*
X0015060Y0033800D01*
X0012560Y0036300D01*
X0015060Y0038800D01*
X0015060Y0043800D01*
X0012560Y0046300D01*
X0015060Y0048800D01*
X0015060Y0053800D01*
X0012560Y0056300D01*
X0015060Y0058800D01*
X0015060Y0063800D01*
X0012560Y0066300D01*
X0015060Y0068800D01*
X0015060Y0073800D01*
X0012560Y0076300D01*
X0015060Y0078800D01*
X0015060Y0083800D01*
X0012560Y0086300D01*
X0015060Y0088800D01*
X0015060Y0093800D01*
X0012560Y0096300D01*
X0015060Y0098800D01*
X0015060Y0103800D01*
X0012560Y0106300D01*
X0015060Y0108800D01*
X0015060Y0113800D01*
X0012560Y0116300D01*
X0015060Y0118800D01*
X0015060Y0123800D01*
X0012560Y0126300D01*
X0007560Y0126300D01*
X0005060Y0123800D01*
X0005060Y0118800D01*
X0007560Y0116300D01*
X0005060Y0113800D01*
X0005060Y0108800D01*
X0007560Y0106300D01*
X0005060Y0103800D01*
X0005060Y0098800D01*
X0007560Y0096300D01*
X0005060Y0093800D01*
X0005060Y0088800D01*
X0007560Y0086300D01*
X0005060Y0083800D01*
X0005060Y0078800D01*
X0007560Y0076300D01*
X0005060Y0073800D01*
X0005060Y0068800D01*
X0007560Y0066300D01*
X0005060Y0063800D01*
X0005060Y0058800D01*
X0007560Y0056300D01*
X0005060Y0053800D01*
X0005060Y0048800D01*
X0007560Y0046300D01*
X0005060Y0043800D01*
X0005060Y0038800D01*
X0007560Y0036300D01*
X0005060Y0033800D01*
X0005060Y0028800D01*
X0007560Y0026300D01*
X0005060Y0023800D01*
X0005060Y0018800D01*
X0007560Y0016300D01*
X0005060Y0013800D01*
X0005060Y0008800D01*
X0038721Y0007658D02*
X0041221Y0005158D01*
X0046221Y0005158D01*
X0048721Y0007658D01*
X0051221Y0005158D01*
X0056221Y0005158D01*
X0058721Y0007658D01*
X0061221Y0005158D01*
X0066221Y0005158D01*
X0068721Y0007658D01*
X0068721Y0012658D01*
X0066221Y0015158D01*
X0061221Y0015158D01*
X0058721Y0012658D01*
X0056221Y0015158D01*
X0051221Y0015158D01*
X0048721Y0012658D01*
X0046221Y0015158D01*
X0041221Y0015158D01*
X0038721Y0012658D01*
X0038721Y0007658D01*
X0071280Y0037717D02*
X0079154Y0037717D01*
X0079303Y0037730D01*
X0079452Y0037746D01*
X0079600Y0037766D01*
X0079747Y0037790D01*
X0079894Y0037818D01*
X0080040Y0037849D01*
X0080185Y0037885D01*
X0080330Y0037924D01*
X0080473Y0037968D01*
X0080615Y0038015D01*
X0080755Y0038065D01*
X0080894Y0038120D01*
X0081032Y0038178D01*
X0081168Y0038239D01*
X0081303Y0038305D01*
X0081436Y0038373D01*
X0081566Y0038445D01*
X0081695Y0038521D01*
X0081822Y0038600D01*
X0081947Y0038683D01*
X0082070Y0038768D01*
X0082190Y0038857D01*
X0082308Y0038949D01*
X0082423Y0039044D01*
X0082536Y0039142D01*
X0082646Y0039243D01*
X0082753Y0039347D01*
X0082858Y0039454D01*
X0082960Y0039563D01*
X0083059Y0039675D01*
X0083155Y0039790D01*
X0083248Y0039907D01*
X0083338Y0040026D01*
X0083424Y0040148D01*
X0083507Y0040272D01*
X0083588Y0040398D01*
X0083664Y0040527D01*
X0083737Y0040657D01*
X0083807Y0040789D01*
X0083874Y0040923D01*
X0083936Y0041059D01*
X0083995Y0041196D01*
X0084051Y0041335D01*
X0084103Y0041475D01*
X0084151Y0041617D01*
X0084195Y0041759D01*
X0084236Y0041903D01*
X0084272Y0042048D01*
X0084273Y0049135D02*
X0084237Y0049280D01*
X0084196Y0049423D01*
X0084152Y0049566D01*
X0084104Y0049708D01*
X0084052Y0049848D01*
X0083996Y0049987D01*
X0083937Y0050124D01*
X0083875Y0050260D01*
X0083808Y0050394D01*
X0083739Y0050526D01*
X0083665Y0050656D01*
X0083589Y0050785D01*
X0083509Y0050911D01*
X0083425Y0051035D01*
X0083339Y0051157D01*
X0083249Y0051276D01*
X0083156Y0051393D01*
X0083060Y0051508D01*
X0082961Y0051620D01*
X0082859Y0051729D01*
X0082755Y0051836D01*
X0082647Y0051940D01*
X0082537Y0052041D01*
X0082424Y0052139D01*
X0082309Y0052234D01*
X0082191Y0052326D01*
X0082071Y0052415D01*
X0081948Y0052501D01*
X0081823Y0052583D01*
X0081696Y0052662D01*
X0081567Y0052738D01*
X0081437Y0052810D01*
X0081304Y0052879D01*
X0081169Y0052944D01*
X0081033Y0053005D01*
X0080895Y0053063D01*
X0080756Y0053118D01*
X0080615Y0053168D01*
X0080474Y0053215D01*
X0080330Y0053259D01*
X0080186Y0053298D01*
X0080041Y0053334D01*
X0079895Y0053365D01*
X0079748Y0053393D01*
X0079601Y0053417D01*
X0079452Y0053437D01*
X0079304Y0053453D01*
X0079155Y0053466D01*
X0079154Y0053465D02*
X0071280Y0053465D01*
X0071281Y0053466D02*
X0071132Y0053453D01*
X0070983Y0053437D01*
X0070835Y0053417D01*
X0070688Y0053393D01*
X0070541Y0053365D01*
X0070395Y0053334D01*
X0070250Y0053298D01*
X0070105Y0053259D01*
X0069962Y0053215D01*
X0069820Y0053168D01*
X0069680Y0053118D01*
X0069541Y0053063D01*
X0069403Y0053005D01*
X0069267Y0052944D01*
X0069132Y0052878D01*
X0068999Y0052810D01*
X0068869Y0052738D01*
X0068740Y0052662D01*
X0068613Y0052583D01*
X0068488Y0052500D01*
X0068365Y0052415D01*
X0068245Y0052326D01*
X0068127Y0052234D01*
X0068012Y0052139D01*
X0067899Y0052041D01*
X0067789Y0051940D01*
X0067682Y0051836D01*
X0067577Y0051729D01*
X0067475Y0051620D01*
X0067376Y0051508D01*
X0067280Y0051393D01*
X0067187Y0051276D01*
X0067097Y0051157D01*
X0067011Y0051035D01*
X0066928Y0050911D01*
X0066847Y0050785D01*
X0066771Y0050656D01*
X0066698Y0050526D01*
X0066628Y0050394D01*
X0066561Y0050260D01*
X0066499Y0050124D01*
X0066440Y0049987D01*
X0066384Y0049848D01*
X0066332Y0049708D01*
X0066284Y0049566D01*
X0066240Y0049424D01*
X0066199Y0049280D01*
X0066163Y0049135D01*
X0061454Y0051691D02*
X0061454Y0052794D01*
X0059454Y0052794D01*
X0049658Y0053091D02*
X0048258Y0051691D01*
X0048654Y0040898D02*
X0048654Y0039794D01*
X0050654Y0039794D01*
X0059454Y0039794D02*
X0061454Y0039794D01*
X0061454Y0040898D01*
X0066162Y0042048D02*
X0066198Y0041903D01*
X0066239Y0041760D01*
X0066283Y0041617D01*
X0066331Y0041475D01*
X0066383Y0041335D01*
X0066439Y0041196D01*
X0066498Y0041059D01*
X0066560Y0040923D01*
X0066627Y0040789D01*
X0066696Y0040657D01*
X0066770Y0040527D01*
X0066846Y0040398D01*
X0066926Y0040272D01*
X0067010Y0040148D01*
X0067096Y0040026D01*
X0067186Y0039907D01*
X0067279Y0039790D01*
X0067375Y0039675D01*
X0067474Y0039563D01*
X0067576Y0039454D01*
X0067680Y0039347D01*
X0067788Y0039243D01*
X0067898Y0039142D01*
X0068011Y0039044D01*
X0068126Y0038949D01*
X0068244Y0038857D01*
X0068364Y0038768D01*
X0068487Y0038682D01*
X0068612Y0038600D01*
X0068739Y0038521D01*
X0068868Y0038445D01*
X0068998Y0038373D01*
X0069131Y0038304D01*
X0069266Y0038239D01*
X0069402Y0038178D01*
X0069540Y0038120D01*
X0069679Y0038065D01*
X0069820Y0038015D01*
X0069961Y0037968D01*
X0070105Y0037924D01*
X0070249Y0037885D01*
X0070394Y0037849D01*
X0070540Y0037818D01*
X0070687Y0037790D01*
X0070834Y0037766D01*
X0070983Y0037746D01*
X0071131Y0037730D01*
X0071280Y0037717D01*
X0040060Y0061785D02*
X0020545Y0081300D01*
X0039072Y0099827D01*
X0041048Y0099827D01*
X0059575Y0081300D01*
X0040060Y0061785D01*
X0024351Y0095990D02*
X0019233Y0095990D01*
X0019233Y0110753D02*
X0024351Y0110753D01*
X0039531Y0101735D02*
X0039533Y0101784D01*
X0039539Y0101832D01*
X0039549Y0101880D01*
X0039563Y0101927D01*
X0039580Y0101973D01*
X0039601Y0102017D01*
X0039626Y0102059D01*
X0039654Y0102099D01*
X0039686Y0102137D01*
X0039720Y0102172D01*
X0039757Y0102204D01*
X0039796Y0102233D01*
X0039838Y0102259D01*
X0039882Y0102281D01*
X0039927Y0102299D01*
X0039974Y0102314D01*
X0040021Y0102325D01*
X0040070Y0102332D01*
X0040119Y0102335D01*
X0040168Y0102334D01*
X0040216Y0102329D01*
X0040265Y0102320D01*
X0040312Y0102307D01*
X0040358Y0102290D01*
X0040402Y0102270D01*
X0040445Y0102246D01*
X0040486Y0102219D01*
X0040524Y0102188D01*
X0040560Y0102155D01*
X0040592Y0102119D01*
X0040622Y0102080D01*
X0040649Y0102039D01*
X0040672Y0101995D01*
X0040691Y0101950D01*
X0040707Y0101904D01*
X0040719Y0101857D01*
X0040727Y0101808D01*
X0040731Y0101759D01*
X0040731Y0101711D01*
X0040727Y0101662D01*
X0040719Y0101613D01*
X0040707Y0101566D01*
X0040691Y0101520D01*
X0040672Y0101475D01*
X0040649Y0101431D01*
X0040622Y0101390D01*
X0040592Y0101351D01*
X0040560Y0101315D01*
X0040524Y0101282D01*
X0040486Y0101251D01*
X0040445Y0101224D01*
X0040402Y0101200D01*
X0040358Y0101180D01*
X0040312Y0101163D01*
X0040265Y0101150D01*
X0040216Y0101141D01*
X0040168Y0101136D01*
X0040119Y0101135D01*
X0040070Y0101138D01*
X0040021Y0101145D01*
X0039974Y0101156D01*
X0039927Y0101171D01*
X0039882Y0101189D01*
X0039838Y0101211D01*
X0039796Y0101237D01*
X0039757Y0101266D01*
X0039720Y0101298D01*
X0039686Y0101333D01*
X0039654Y0101371D01*
X0039626Y0101411D01*
X0039601Y0101453D01*
X0039580Y0101497D01*
X0039563Y0101543D01*
X0039549Y0101590D01*
X0039539Y0101638D01*
X0039533Y0101686D01*
X0039531Y0101735D01*
X0042095Y0117394D02*
X0042095Y0123394D01*
X0042560Y0126300D02*
X0047560Y0126300D01*
X0050060Y0128800D01*
X0052560Y0126300D01*
X0057560Y0126300D01*
X0060060Y0128800D01*
X0062560Y0126300D01*
X0067560Y0126300D01*
X0070060Y0128800D01*
X0070060Y0133800D01*
X0067560Y0136300D01*
X0062560Y0136300D01*
X0060060Y0133800D01*
X0057560Y0136300D01*
X0052560Y0136300D01*
X0050060Y0133800D01*
X0047560Y0136300D01*
X0042560Y0136300D01*
X0040060Y0133800D01*
X0037560Y0136300D01*
X0032560Y0136300D01*
X0030060Y0133800D01*
X0027560Y0136300D01*
X0022560Y0136300D01*
X0020060Y0133800D01*
X0017560Y0136300D01*
X0012560Y0136300D01*
X0010060Y0133800D01*
X0010060Y0128800D01*
X0012560Y0126300D01*
X0017560Y0126300D01*
X0020060Y0128800D01*
X0022560Y0126300D01*
X0027560Y0126300D01*
X0030060Y0128800D01*
X0032560Y0126300D01*
X0037560Y0126300D01*
X0040060Y0128800D01*
X0042560Y0126300D01*
D13*
X0048060Y0053300D03*
D14*
X0102705Y0120888D02*
X0103439Y0122356D01*
X0104181Y0121989D02*
X0104181Y0121255D01*
X0104548Y0120888D01*
X0105282Y0120888D01*
X0105649Y0121622D02*
X0104181Y0121622D01*
X0104181Y0121989D02*
X0104548Y0122356D01*
X0105282Y0122356D01*
X0105649Y0121989D01*
X0105649Y0121622D01*
X0106391Y0121622D02*
X0107125Y0122356D01*
X0107492Y0122356D01*
X0106391Y0122356D02*
X0106391Y0120888D01*
X0102705Y0120888D02*
X0101971Y0122356D01*
X0110442Y0121622D02*
X0111543Y0121622D01*
X0111910Y0121989D01*
X0111910Y0122723D01*
X0111543Y0123090D01*
X0110442Y0123090D01*
X0110442Y0120888D01*
X0111176Y0121622D02*
X0111910Y0120888D01*
X0112652Y0120888D02*
X0114120Y0120888D01*
X0113386Y0120888D02*
X0113386Y0123090D01*
X0112652Y0122356D01*
X0117072Y0122356D02*
X0118540Y0120888D01*
X0118540Y0121622D02*
X0117806Y0120888D01*
X0117439Y0120888D01*
X0117072Y0121255D01*
X0117072Y0121622D01*
X0117806Y0122356D01*
X0117806Y0122723D01*
X0117439Y0123090D01*
X0117072Y0122723D01*
X0117072Y0122356D01*
X0121492Y0121622D02*
X0122593Y0121622D01*
X0122960Y0121989D01*
X0122960Y0122723D01*
X0122593Y0123090D01*
X0121492Y0123090D01*
X0121492Y0120888D01*
X0122226Y0121622D02*
X0122960Y0120888D01*
X0123702Y0121255D02*
X0124068Y0120888D01*
X0124802Y0120888D01*
X0125169Y0121255D01*
X0125169Y0121622D01*
X0124802Y0121989D01*
X0124435Y0121989D01*
X0124802Y0121989D02*
X0125169Y0122356D01*
X0125169Y0122723D01*
X0124802Y0123090D01*
X0124068Y0123090D01*
X0123702Y0122723D01*
X0122960Y0140573D02*
X0122226Y0141307D01*
X0122593Y0141307D02*
X0121492Y0141307D01*
X0121492Y0140573D02*
X0121492Y0142775D01*
X0122593Y0142775D01*
X0122960Y0142408D01*
X0122960Y0141674D01*
X0122593Y0141307D01*
X0123702Y0141674D02*
X0125169Y0141674D01*
X0124802Y0140573D02*
X0124802Y0142775D01*
X0123702Y0141674D01*
X0118540Y0141307D02*
X0117806Y0140573D01*
X0117439Y0140573D01*
X0117072Y0140940D01*
X0117072Y0141307D01*
X0117806Y0142041D01*
X0117806Y0142408D01*
X0117439Y0142775D01*
X0117072Y0142408D01*
X0117072Y0142041D01*
X0118540Y0140573D01*
X0114120Y0140573D02*
X0112652Y0140573D01*
X0114120Y0142041D01*
X0114120Y0142408D01*
X0113753Y0142775D01*
X0113019Y0142775D01*
X0112652Y0142408D01*
X0111910Y0142408D02*
X0111543Y0142775D01*
X0110442Y0142775D01*
X0110442Y0140573D01*
X0110442Y0141307D02*
X0111543Y0141307D01*
X0111910Y0141674D01*
X0111910Y0142408D01*
X0111176Y0141307D02*
X0111910Y0140573D01*
X0107492Y0142041D02*
X0107125Y0142041D01*
X0106391Y0141307D01*
X0106391Y0140573D02*
X0106391Y0142041D01*
X0105649Y0141674D02*
X0105649Y0141307D01*
X0104181Y0141307D01*
X0104181Y0140940D02*
X0104181Y0141674D01*
X0104548Y0142041D01*
X0105282Y0142041D01*
X0105649Y0141674D01*
X0105282Y0140573D02*
X0104548Y0140573D01*
X0104181Y0140940D01*
X0103439Y0142041D02*
X0102705Y0140573D01*
X0101971Y0142041D01*
D15*
X0096674Y0017048D02*
X0085257Y0017048D01*
X0085257Y0011143D01*
X0096674Y0011143D01*
X0096674Y0017048D01*
D16*
X0090966Y0018032D03*
X0094706Y0010158D03*
X0087225Y0010158D03*
D17*
X0032211Y0039779D02*
X0031511Y0039779D01*
X0032211Y0039779D02*
X0032211Y0052979D01*
X0031511Y0052979D01*
X0019711Y0052979D02*
X0019011Y0052979D01*
X0019011Y0039779D01*
X0019711Y0039779D01*
D18*
X0019777Y0037765D02*
X0016641Y0034629D01*
X0016641Y0036197D02*
X0019777Y0036197D01*
X0019777Y0034629D02*
X0016641Y0037765D01*
X0018209Y0037765D02*
X0018209Y0034629D01*
M02*
