%
M48
M72
T01C0.01378
T02C0.03150
T03C0.04000
%
T01
X21674Y16064
X16950Y20788
X19706Y33780
X16950Y37717
X26792Y45985
X34273Y40867
X34273Y36930
X32304Y33780
X40178Y36930
X42934Y41261
X46084Y37717
X50808Y33780
X55139Y36536
X53170Y44017
X56714Y47954
X46871Y53465
X38603Y55828
X34273Y54646
X39784Y65670
X39784Y71182
X44115Y70001
X46084Y75906
X41359Y75906
X36515Y80098
X35847Y84568
X33091Y86930
X40572Y90867
X42934Y93229
X38997Y94017
X45296Y88111
X50021Y85749
X54745Y82599
X53170Y77875
X46084Y81024
X59076Y69213
X50808Y60552
X57107Y57402
X79942Y73544
X90966Y88505
X86635Y91654
X79942Y101891
X79942Y108190
X61438Y111339
X53958Y101891
X54351Y97954
X45690Y105828
X38603Y105040
X32698Y105040
X28367Y105040
X26792Y112914
X29154Y116851
X20887Y113308
X16556Y110552
X16950Y120788
X38603Y124331
X20887Y93623
X29154Y78269
X20099Y65670
X17343Y60946
X55532Y20394
X36241Y16064
X73643Y10158
X83091Y20394
X98446Y35749
X120493Y47954
X118131Y57402
X124036Y58190
X159469Y96772
X114588Y112520
T02
X83091Y45591
X67343Y45591
T03
X10060Y11300
X10060Y21300
X10060Y31300
X10060Y41300
X10060Y51300
X10060Y61300
X10060Y71300
X10060Y81300
X10060Y91300
X10060Y101300
X10060Y111300
X10060Y121300
X15060Y131300
X25060Y131300
X35060Y131300
X45060Y131300
X55060Y131300
X65060Y131300
X63721Y10158
X53721Y10158
X43721Y10158
M30
