M48
;GenerationSoftware,Autodesk,EAGLE,9.2.2*%
;CreationDate,2019-03-15T14:50:09Z*%
FMAT,2
ICI,OFF
METRIC,TZ,000.000
T7C0.200
T6C0.500
T5C0.800
T4C1.016
T3C1.200
T2C2.250
T1C3.000
%
G90
M71
T1
X16580Y10570
X16580Y27890
X51780Y8130
X6000Y19250
T2
X23690Y35295
T3
X16580Y3165
X16580Y35295
T4
X2020Y16770
X33180Y2000
X2020Y11690
X2020Y14230
X28100Y2000
X30640Y2000
X35720Y2000
X38260Y2000
X40800Y2000
X2020Y9150
X2020Y19310
X2020Y21850
X2020Y24390
X2020Y26930
X2020Y29470
X2020Y32010
X2020Y34550
X2020Y37090
X2000Y1500
X2000Y4040
X2000Y6580
T5
X30380Y31630
X26380Y31630
T6
X45280Y1480
X51880Y1480
X51880Y1480
X45280Y1480
T7
X40200Y21800
X37900Y15100
X34700Y13500
X47800Y21600
X46100Y8400
X55500Y8200
X21600Y3300
X9600Y4100
X9700Y10600
X9800Y16300
X9800Y19400
X9800Y24400
X10100Y30900
X13000Y30900
X22500Y31200
X28300Y31500
X24000Y27400
X52000Y25000
X49800Y35200
X58100Y1400
X43100Y1000
X24000Y3500
X32500Y9700
X37900Y8300
X43300Y17500
X48800Y16400
X48600Y8700
X38100Y6000
X43600Y3900
X39700Y32100
X10000Y35100
X8500Y28600
X39800Y30100
X36600Y16695
X36600Y14000
X25700Y24600
X24400Y24600
X38000Y25300
X47800Y23500
X50800Y20900
X52800Y21400
X44700Y11174
X34100Y23900
X32400Y24000
X28800Y24900
X29600Y37400
X38300Y33500
X28700Y10100
X36200Y26300
X33200Y7700
X35800Y28200
X34300Y6900
X27100Y25600
X21500Y24800
X18900Y24300
X19400Y19000
X16400Y18800
X12600Y14100
X12800Y12936
X11900Y3700
X31100Y28800
X33400Y27000
X47000Y27100
X13600Y21700
X23200Y23300
X59300Y29930
X47800Y15700
X46300Y15000
X29100Y16700
X28700Y12100
X31800Y31100
X40400Y31400
X40900Y32600
X21400Y22600
X34000Y22600
X36600Y21900
X36800Y20766
X35000Y30700
X46300Y30700
X46300Y22800
X39700Y18100
X39800Y14200
X33500Y17300
X20900Y13400
X22500Y13500
X28200Y17000
X31100Y15100
X33400Y13500
X33400Y15800
X35850Y14550
X35900Y15408
X34100Y19000
X30600Y13000
X20000Y16900
X36300Y20200
X34700Y21000
X32400Y21000
X21200Y21000
X21600Y10000
X21600Y8400
X35900Y22200
X26900Y10000
X35700Y23100
X24900Y9180
X38700Y36900
X41900Y36800
X25700Y33700
X28100Y21400
X28100Y11500
X35300Y37900
X13400Y36500
X41100Y11600
X36500Y13200
X35000Y9000
X42700Y9474
X35600Y10000
X38800Y28700
X41400Y3900
X40600Y6300
X24400Y14100
X23500Y15600
X22500Y20300
X17600Y21700
X28300Y30600
X41100Y13700
X38900Y13900
X45800Y21400
X45800Y32500
X38000Y36500
X36400Y6200
X33700Y6400
X41100Y28700
X19100Y37800
X50900Y16300
X54500Y11300
X66400Y26230
X65500Y26230
X64600Y26230
X63700Y26230
X62800Y26230
X33400Y25300
X61900Y26230
X60900Y26230
X60000Y26230
X59000Y26530
X58400Y27130
X57700Y28130
X66400Y28030
X65500Y28030
X64600Y28030
X63500Y28030
X62400Y28030
X61300Y28030
X60400Y28030
X59400Y29030
X59000Y30730
X58200Y31430
X57400Y31830
X57300Y29430
X29700Y7300
X25500Y8000
X37800Y17700
X31600Y14000
X57100Y4700
X44400Y9900
M30