G75*
%MOIN*%
%OFA0B0*%
%FSLAX25Y25*%
%IPPOS*%
%LPD*%
%AMOC8*
5,1,8,0,0,1.08239X$1,22.5*
%
%ADD10R,0.04731X0.04337*%
%ADD11C,0.01301*%
%ADD12C,0.07800*%
%ADD13R,0.04337X0.04731*%
%ADD14R,0.05400X0.02600*%
%ADD15R,0.02600X0.05400*%
%ADD16R,0.03156X0.01502*%
%ADD17R,0.01502X0.03156*%
%ADD18C,0.02172*%
%ADD19R,0.06040X0.13760*%
%ADD20R,0.08274X0.03156*%
%ADD21R,0.03156X0.08274*%
%ADD22R,0.03746X0.03943*%
%ADD23R,0.03943X0.03746*%
%ADD24C,0.07000*%
%ADD25R,0.03550X0.04337*%
%ADD26R,0.08077X0.04337*%
%ADD27R,0.10243X0.06699*%
%ADD28R,0.02000X0.05800*%
D10*
X0024627Y0010158D03*
X0031320Y0010158D03*
X0028406Y0026300D03*
X0021714Y0026300D03*
X0036714Y0026300D03*
X0043406Y0026300D03*
X0051714Y0026300D03*
X0058406Y0026300D03*
X0067934Y0025906D03*
X0074627Y0025906D03*
X0107304Y0029843D03*
X0113997Y0029843D03*
X0113997Y0041654D03*
X0107304Y0041654D03*
X0107304Y0053465D03*
X0113997Y0053465D03*
X0043406Y0046300D03*
X0036714Y0046300D03*
X0037895Y0111300D03*
X0031202Y0111300D03*
X0028406Y0121300D03*
X0021714Y0121300D03*
X0052186Y0120001D03*
X0058879Y0120001D03*
D11*
X0051444Y0111401D02*
X0051444Y0108365D01*
X0051444Y0111401D02*
X0054480Y0111401D01*
X0054480Y0108365D01*
X0051444Y0108365D01*
X0051444Y0109665D02*
X0054480Y0109665D01*
X0054480Y0110965D02*
X0051444Y0110965D01*
X0044538Y0111401D02*
X0044538Y0108365D01*
X0044538Y0111401D02*
X0047574Y0111401D01*
X0047574Y0108365D01*
X0044538Y0108365D01*
X0044538Y0109665D02*
X0047574Y0109665D01*
X0047574Y0110965D02*
X0044538Y0110965D01*
D12*
X0010060Y0011300D03*
X0010060Y0021300D03*
X0010060Y0031300D03*
X0010060Y0041300D03*
X0010060Y0051300D03*
X0010060Y0061300D03*
X0010060Y0071300D03*
X0010060Y0081300D03*
X0010060Y0091300D03*
X0010060Y0101300D03*
X0010060Y0111300D03*
X0010060Y0121300D03*
X0015060Y0131300D03*
X0025060Y0131300D03*
X0035060Y0131300D03*
X0045060Y0131300D03*
X0055060Y0131300D03*
X0065060Y0131300D03*
X0063721Y0010158D03*
X0053721Y0010158D03*
X0043721Y0010158D03*
D13*
X0098446Y0045788D03*
X0098446Y0052481D03*
X0060690Y0096891D03*
X0060690Y0103583D03*
D14*
G36*
X0036894Y0098217D02*
X0033077Y0102034D01*
X0034916Y0103873D01*
X0038733Y0100056D01*
X0036894Y0098217D01*
G37*
G36*
X0034667Y0095990D02*
X0030850Y0099807D01*
X0032689Y0101646D01*
X0036506Y0097829D01*
X0034667Y0095990D01*
G37*
G36*
X0032440Y0093763D02*
X0028623Y0097580D01*
X0030462Y0099419D01*
X0034279Y0095602D01*
X0032440Y0093763D01*
G37*
G36*
X0030212Y0091536D02*
X0026395Y0095353D01*
X0028234Y0097192D01*
X0032051Y0093375D01*
X0030212Y0091536D01*
G37*
G36*
X0027985Y0089309D02*
X0024168Y0093126D01*
X0026007Y0094965D01*
X0029824Y0091148D01*
X0027985Y0089309D01*
G37*
G36*
X0025758Y0087081D02*
X0021941Y0090898D01*
X0023780Y0092737D01*
X0027597Y0088920D01*
X0025758Y0087081D01*
G37*
G36*
X0023531Y0084854D02*
X0019714Y0088671D01*
X0021553Y0090510D01*
X0025370Y0086693D01*
X0023531Y0084854D01*
G37*
G36*
X0021304Y0082627D02*
X0017487Y0086444D01*
X0019326Y0088283D01*
X0023143Y0084466D01*
X0021304Y0082627D01*
G37*
G36*
X0047431Y0060954D02*
X0043614Y0064771D01*
X0045453Y0066610D01*
X0049270Y0062793D01*
X0047431Y0060954D01*
G37*
G36*
X0045204Y0058727D02*
X0041387Y0062544D01*
X0043226Y0064383D01*
X0047043Y0060566D01*
X0045204Y0058727D01*
G37*
G36*
X0049658Y0063181D02*
X0045841Y0066998D01*
X0047680Y0068837D01*
X0051497Y0065020D01*
X0049658Y0063181D01*
G37*
G36*
X0051886Y0065408D02*
X0048069Y0069225D01*
X0049908Y0071064D01*
X0053725Y0067247D01*
X0051886Y0065408D01*
G37*
G36*
X0054113Y0067635D02*
X0050296Y0071452D01*
X0052135Y0073291D01*
X0055952Y0069474D01*
X0054113Y0067635D01*
G37*
G36*
X0056340Y0069863D02*
X0052523Y0073680D01*
X0054362Y0075519D01*
X0058179Y0071702D01*
X0056340Y0069863D01*
G37*
G36*
X0058567Y0072090D02*
X0054750Y0075907D01*
X0056589Y0077746D01*
X0060406Y0073929D01*
X0058567Y0072090D01*
G37*
G36*
X0060794Y0074317D02*
X0056977Y0078134D01*
X0058816Y0079973D01*
X0062633Y0076156D01*
X0060794Y0074317D01*
G37*
D15*
G36*
X0058816Y0082627D02*
X0056977Y0084466D01*
X0060794Y0088283D01*
X0062633Y0086444D01*
X0058816Y0082627D01*
G37*
G36*
X0056589Y0084854D02*
X0054750Y0086693D01*
X0058567Y0090510D01*
X0060406Y0088671D01*
X0056589Y0084854D01*
G37*
G36*
X0054362Y0087081D02*
X0052523Y0088920D01*
X0056340Y0092737D01*
X0058179Y0090898D01*
X0054362Y0087081D01*
G37*
G36*
X0052135Y0089309D02*
X0050296Y0091148D01*
X0054113Y0094965D01*
X0055952Y0093126D01*
X0052135Y0089309D01*
G37*
G36*
X0049908Y0091536D02*
X0048069Y0093375D01*
X0051886Y0097192D01*
X0053725Y0095353D01*
X0049908Y0091536D01*
G37*
G36*
X0047680Y0093763D02*
X0045841Y0095602D01*
X0049658Y0099419D01*
X0051497Y0097580D01*
X0047680Y0093763D01*
G37*
G36*
X0045453Y0095990D02*
X0043614Y0097829D01*
X0047431Y0101646D01*
X0049270Y0099807D01*
X0045453Y0095990D01*
G37*
G36*
X0043226Y0098217D02*
X0041387Y0100056D01*
X0045204Y0103873D01*
X0047043Y0102034D01*
X0043226Y0098217D01*
G37*
G36*
X0019326Y0074317D02*
X0017487Y0076156D01*
X0021304Y0079973D01*
X0023143Y0078134D01*
X0019326Y0074317D01*
G37*
G36*
X0021553Y0072090D02*
X0019714Y0073929D01*
X0023531Y0077746D01*
X0025370Y0075907D01*
X0021553Y0072090D01*
G37*
G36*
X0023780Y0069863D02*
X0021941Y0071702D01*
X0025758Y0075519D01*
X0027597Y0073680D01*
X0023780Y0069863D01*
G37*
G36*
X0026007Y0067635D02*
X0024168Y0069474D01*
X0027985Y0073291D01*
X0029824Y0071452D01*
X0026007Y0067635D01*
G37*
G36*
X0028234Y0065408D02*
X0026395Y0067247D01*
X0030212Y0071064D01*
X0032051Y0069225D01*
X0028234Y0065408D01*
G37*
G36*
X0030462Y0063181D02*
X0028623Y0065020D01*
X0032440Y0068837D01*
X0034279Y0066998D01*
X0030462Y0063181D01*
G37*
G36*
X0032689Y0060954D02*
X0030850Y0062793D01*
X0034667Y0066610D01*
X0036506Y0064771D01*
X0032689Y0060954D01*
G37*
G36*
X0034916Y0058727D02*
X0033077Y0060566D01*
X0036894Y0064383D01*
X0038733Y0062544D01*
X0034916Y0058727D01*
G37*
D16*
X0049548Y0050237D03*
X0049548Y0048269D03*
X0049548Y0046300D03*
X0049548Y0044331D03*
X0049548Y0042363D03*
X0060572Y0042363D03*
X0060572Y0044331D03*
X0060572Y0046300D03*
X0060572Y0048269D03*
X0060572Y0050237D03*
D17*
X0057028Y0051812D03*
X0055060Y0051812D03*
X0053091Y0051812D03*
X0053091Y0040788D03*
X0055060Y0040788D03*
X0057028Y0040788D03*
D18*
X0024696Y0098662D02*
X0018968Y0098662D01*
X0018968Y0103387D02*
X0024696Y0103387D01*
X0024696Y0108111D02*
X0018968Y0108111D01*
D19*
X0021842Y0103377D03*
D20*
X0069588Y0105040D03*
X0069588Y0100709D03*
X0069588Y0096379D03*
X0069588Y0092048D03*
X0069588Y0087717D03*
X0069588Y0083387D03*
X0069588Y0079056D03*
X0069588Y0074725D03*
X0069588Y0070394D03*
X0069588Y0109371D03*
X0069588Y0113702D03*
X0069588Y0118032D03*
X0120769Y0118032D03*
X0120769Y0113702D03*
X0120769Y0109371D03*
X0120769Y0105040D03*
X0120769Y0100709D03*
X0120769Y0096379D03*
X0120769Y0092048D03*
X0120769Y0087717D03*
X0120769Y0083387D03*
X0120769Y0079056D03*
X0120769Y0074725D03*
X0120769Y0070394D03*
D21*
X0108170Y0064489D03*
X0103840Y0064489D03*
X0099509Y0064489D03*
X0095178Y0064489D03*
X0090847Y0064489D03*
X0086517Y0064489D03*
X0082186Y0064489D03*
D22*
X0172540Y0106221D03*
X0177107Y0106221D03*
D23*
X0177186Y0113387D03*
X0177186Y0117954D03*
X0166950Y0117954D03*
X0166950Y0113387D03*
X0166950Y0100631D03*
X0166950Y0096064D03*
D24*
X0083091Y0045591D03*
X0067343Y0045591D03*
D25*
X0090966Y0018820D03*
X0094706Y0009371D03*
X0087225Y0009371D03*
D26*
X0148052Y0020394D03*
X0186635Y0020394D03*
X0186635Y0086536D03*
X0148052Y0112914D03*
D27*
X0186635Y0112914D03*
X0186635Y0132993D03*
D28*
X0029450Y0054979D03*
X0026891Y0054979D03*
X0024332Y0054979D03*
X0021773Y0054979D03*
X0021773Y0037779D03*
X0024332Y0037779D03*
X0026891Y0037779D03*
X0029450Y0037779D03*
M02*
