G75*
%MOIN*%
%OFA0B0*%
%FSLAX25Y25*%
%IPPOS*%
%LPD*%
%AMOC8*
5,1,8,0,0,1.08239X$1,22.5*
%
%ADD10C,0.00400*%
%ADD11C,0.00300*%
%ADD12C,0.00100*%
%ADD13C,0.00200*%
%ADD14C,0.00500*%
%ADD15C,0.00800*%
%ADD16C,0.02000*%
%ADD17C,0.00394*%
%ADD18C,0.00000*%
%ADD19R,0.01575X0.01969*%
%ADD20C,0.00600*%
%ADD21C,0.01000*%
%ADD22C,0.00984*%
D10*
X0169298Y0107117D02*
X0170066Y0106350D01*
X0171600Y0106350D01*
X0172368Y0107117D01*
X0172368Y0107884D01*
X0171600Y0108652D01*
X0170066Y0108652D01*
X0169298Y0109419D01*
X0169298Y0110186D01*
X0170066Y0110954D01*
X0171600Y0110954D01*
X0172368Y0110186D01*
X0173902Y0110954D02*
X0176972Y0110954D01*
X0178506Y0110954D02*
X0180041Y0109419D01*
X0181576Y0110954D01*
X0181576Y0106350D01*
X0183110Y0106350D02*
X0186179Y0106350D01*
X0184645Y0106350D02*
X0184645Y0110954D01*
X0183110Y0109419D01*
X0187714Y0110186D02*
X0187714Y0107117D01*
X0190783Y0110186D01*
X0190783Y0107117D01*
X0190016Y0106350D01*
X0188481Y0106350D01*
X0187714Y0107117D01*
X0187714Y0110186D02*
X0188481Y0110954D01*
X0190016Y0110954D01*
X0190783Y0110186D01*
X0189249Y0113043D02*
X0186179Y0113043D01*
X0186179Y0117646D01*
X0184645Y0116879D02*
X0183878Y0117646D01*
X0182343Y0117646D01*
X0181576Y0116879D01*
X0181576Y0113810D01*
X0182343Y0113043D01*
X0183878Y0113043D01*
X0184645Y0113810D01*
X0184645Y0116879D01*
X0180041Y0116879D02*
X0179274Y0117646D01*
X0177739Y0117646D01*
X0176972Y0116879D01*
X0176972Y0116112D01*
X0177739Y0115344D01*
X0179274Y0115344D01*
X0180041Y0114577D01*
X0180041Y0113810D01*
X0179274Y0113043D01*
X0177739Y0113043D01*
X0176972Y0113810D01*
X0175437Y0113043D02*
X0173902Y0113043D01*
X0174670Y0113043D02*
X0174670Y0116112D01*
X0173902Y0116112D01*
X0174670Y0117646D02*
X0174670Y0118414D01*
X0172368Y0117646D02*
X0172368Y0113043D01*
X0170833Y0114577D01*
X0169298Y0113043D01*
X0169298Y0117646D01*
X0173902Y0110954D02*
X0173902Y0106350D01*
X0173902Y0108652D02*
X0175437Y0108652D01*
X0178506Y0106350D02*
X0178506Y0110954D01*
X0182827Y0135524D02*
X0184361Y0137058D01*
X0183594Y0137058D01*
X0183594Y0137826D01*
X0184361Y0137826D01*
X0184361Y0137058D01*
X0181292Y0137826D02*
X0181292Y0139360D01*
X0180525Y0140128D01*
X0178990Y0140128D01*
X0178223Y0139360D01*
X0178223Y0137826D01*
X0178990Y0137058D01*
X0180525Y0137058D01*
X0181292Y0137826D01*
X0176688Y0137058D02*
X0176688Y0139360D01*
X0175921Y0140128D01*
X0173619Y0140128D01*
X0173619Y0137058D01*
X0172084Y0137058D02*
X0170550Y0137058D01*
X0171317Y0137058D02*
X0171317Y0140128D01*
X0170550Y0140128D01*
X0169015Y0140128D02*
X0169015Y0137058D01*
X0166713Y0137058D01*
X0165946Y0137826D01*
X0165946Y0140128D01*
X0164411Y0140128D02*
X0162109Y0140128D01*
X0161342Y0139360D01*
X0161342Y0137826D01*
X0162109Y0137058D01*
X0164411Y0137058D01*
X0164411Y0136291D02*
X0164411Y0140128D01*
X0159040Y0140128D02*
X0159040Y0137058D01*
X0159807Y0137058D02*
X0158272Y0137058D01*
X0156738Y0137826D02*
X0156738Y0138593D01*
X0155970Y0139360D01*
X0154436Y0139360D01*
X0153669Y0140128D01*
X0153669Y0140895D01*
X0154436Y0141662D01*
X0155970Y0141662D01*
X0156738Y0140895D01*
X0158272Y0140128D02*
X0159040Y0140128D01*
X0159040Y0141662D02*
X0159040Y0142430D01*
X0156738Y0137826D02*
X0155970Y0137058D01*
X0154436Y0137058D01*
X0153669Y0137826D01*
X0162876Y0135524D02*
X0163644Y0135524D01*
X0164411Y0136291D01*
X0171317Y0141662D02*
X0171317Y0142430D01*
X0190500Y0141662D02*
X0190500Y0137058D01*
X0190500Y0138593D02*
X0192802Y0138593D01*
X0193569Y0139360D01*
X0193569Y0140895D01*
X0192802Y0141662D01*
X0190500Y0141662D01*
X0192035Y0138593D02*
X0193569Y0137058D01*
X0195104Y0137826D02*
X0195104Y0139360D01*
X0195871Y0140128D01*
X0197406Y0140128D01*
X0198173Y0139360D01*
X0198173Y0138593D01*
X0195104Y0138593D01*
X0195104Y0137826D02*
X0195871Y0137058D01*
X0197406Y0137058D01*
X0201242Y0137058D02*
X0202777Y0140128D01*
X0204312Y0140128D02*
X0204312Y0139360D01*
X0205079Y0139360D01*
X0205079Y0140128D01*
X0204312Y0140128D01*
X0201242Y0137058D02*
X0199708Y0140128D01*
X0204312Y0137826D02*
X0204312Y0137058D01*
X0205079Y0137058D01*
X0205079Y0137826D01*
X0204312Y0137826D01*
X0211218Y0137826D02*
X0214287Y0140895D01*
X0214287Y0137826D01*
X0213520Y0137058D01*
X0211985Y0137058D01*
X0211218Y0137826D01*
X0211218Y0140895D01*
X0211985Y0141662D01*
X0213520Y0141662D01*
X0214287Y0140895D01*
X0218123Y0141662D02*
X0218123Y0139360D01*
X0219658Y0140128D01*
X0220425Y0140128D01*
X0221193Y0139360D01*
X0221193Y0137826D01*
X0220425Y0137058D01*
X0218891Y0137058D01*
X0218123Y0137826D01*
X0216589Y0137826D02*
X0216589Y0137058D01*
X0215821Y0137058D01*
X0215821Y0137826D01*
X0216589Y0137826D01*
X0218123Y0141662D02*
X0221193Y0141662D01*
X0234377Y0077883D02*
X0236679Y0077883D01*
X0237446Y0077115D01*
X0237446Y0075581D01*
X0236679Y0074813D01*
X0234377Y0074813D01*
X0234377Y0073279D02*
X0234377Y0077883D01*
X0238981Y0077883D02*
X0241283Y0077883D01*
X0242050Y0077115D01*
X0242050Y0075581D01*
X0241283Y0074813D01*
X0238981Y0074813D01*
X0238981Y0073279D02*
X0238981Y0077883D01*
X0243585Y0077115D02*
X0243585Y0074046D01*
X0244352Y0073279D01*
X0245887Y0073279D01*
X0246654Y0074046D01*
X0246654Y0077115D01*
X0245887Y0077883D01*
X0244352Y0077883D01*
X0243585Y0077115D01*
X0240516Y0074813D02*
X0242050Y0073279D01*
X0248189Y0074046D02*
X0248189Y0077115D01*
X0248956Y0077883D01*
X0250491Y0077883D01*
X0251258Y0077115D01*
X0251258Y0074046D01*
X0250491Y0073279D01*
X0248956Y0073279D01*
X0248189Y0074046D01*
X0252793Y0073279D02*
X0255095Y0073279D01*
X0255862Y0074046D01*
X0255862Y0074813D01*
X0255095Y0075581D01*
X0252793Y0075581D01*
X0252793Y0073279D02*
X0252793Y0077883D01*
X0255095Y0077883D01*
X0255862Y0077115D01*
X0255862Y0076348D01*
X0255095Y0075581D01*
X0257397Y0075581D02*
X0258931Y0076348D01*
X0259699Y0076348D01*
X0260466Y0075581D01*
X0260466Y0074046D01*
X0259699Y0073279D01*
X0258164Y0073279D01*
X0257397Y0074046D01*
X0257397Y0075581D02*
X0257397Y0077883D01*
X0260466Y0077883D01*
X0262001Y0076348D02*
X0263535Y0077883D01*
X0263535Y0073279D01*
X0262001Y0073279D02*
X0265070Y0073279D01*
X0266605Y0073279D02*
X0269674Y0076348D01*
X0269674Y0077115D01*
X0268907Y0077883D01*
X0267372Y0077883D01*
X0266605Y0077115D01*
X0266605Y0073279D02*
X0269674Y0073279D01*
D11*
X0143870Y0011372D02*
X0143870Y0009437D01*
X0140967Y0009437D01*
X0141451Y0008425D02*
X0140967Y0007941D01*
X0140967Y0006974D01*
X0141451Y0006490D01*
X0143386Y0006490D01*
X0143870Y0006974D01*
X0143870Y0007941D01*
X0143386Y0008425D01*
X0143386Y0005479D02*
X0142902Y0005479D01*
X0142418Y0004995D01*
X0142418Y0004027D01*
X0141935Y0003544D01*
X0141451Y0003544D01*
X0140967Y0004027D01*
X0140967Y0004995D01*
X0141451Y0005479D01*
X0143386Y0005479D02*
X0143870Y0004995D01*
X0143870Y0004027D01*
X0143386Y0003544D01*
X0134027Y0003634D02*
X0133543Y0003150D01*
X0134027Y0003634D02*
X0134027Y0004601D01*
X0133543Y0005085D01*
X0133060Y0005085D01*
X0132576Y0004601D01*
X0132576Y0003634D01*
X0132092Y0003150D01*
X0131608Y0003150D01*
X0131125Y0003634D01*
X0131125Y0004601D01*
X0131608Y0005085D01*
X0131125Y0006097D02*
X0131125Y0007548D01*
X0131608Y0008031D01*
X0133543Y0008031D01*
X0134027Y0007548D01*
X0134027Y0006097D01*
X0131125Y0006097D01*
X0132092Y0009043D02*
X0131125Y0010011D01*
X0132092Y0010978D01*
X0134027Y0010978D01*
X0132576Y0010978D02*
X0132576Y0009043D01*
X0132092Y0009043D02*
X0134027Y0009043D01*
X0124578Y0007941D02*
X0124578Y0006974D01*
X0124095Y0006490D01*
X0123127Y0006974D02*
X0123127Y0007941D01*
X0123611Y0008425D01*
X0124095Y0008425D01*
X0124578Y0007941D01*
X0123127Y0006974D02*
X0122643Y0006490D01*
X0122160Y0006490D01*
X0121676Y0006974D01*
X0121676Y0007941D01*
X0122160Y0008425D01*
X0121676Y0009437D02*
X0121676Y0011372D01*
X0121676Y0010404D02*
X0124578Y0010404D01*
X0124578Y0005479D02*
X0123611Y0004511D01*
X0123611Y0004995D02*
X0123611Y0003544D01*
X0124578Y0003544D02*
X0121676Y0003544D01*
X0121676Y0004995D01*
X0122160Y0005479D01*
X0123127Y0005479D01*
X0123611Y0004995D01*
X0081521Y0025681D02*
X0081521Y0027616D01*
X0081037Y0028100D01*
X0080070Y0028100D01*
X0079586Y0027616D01*
X0079586Y0025681D01*
X0080070Y0025197D01*
X0081037Y0025197D01*
X0081521Y0025681D01*
X0078575Y0025681D02*
X0078575Y0026165D01*
X0078091Y0026648D01*
X0077123Y0026648D01*
X0076640Y0027132D01*
X0076640Y0027616D01*
X0077123Y0028100D01*
X0078091Y0028100D01*
X0078575Y0027616D01*
X0078575Y0025681D02*
X0078091Y0025197D01*
X0077123Y0025197D01*
X0076640Y0025681D01*
X0075643Y0025197D02*
X0074675Y0025197D01*
X0075159Y0025197D02*
X0075159Y0028100D01*
X0074675Y0028100D02*
X0075643Y0028100D01*
X0073664Y0028100D02*
X0073664Y0025197D01*
X0071729Y0025197D02*
X0071729Y0028100D01*
X0072696Y0027132D01*
X0073664Y0028100D01*
X0073270Y0035040D02*
X0073270Y0037942D01*
X0072303Y0036975D01*
X0071335Y0037942D01*
X0071335Y0035040D01*
X0074282Y0035523D02*
X0074282Y0037458D01*
X0074765Y0037942D01*
X0075733Y0037942D01*
X0076217Y0037458D01*
X0076217Y0035523D01*
X0075733Y0035040D01*
X0074765Y0035040D01*
X0074282Y0035523D01*
X0077228Y0035523D02*
X0077712Y0035040D01*
X0078679Y0035040D01*
X0079163Y0035523D01*
X0079163Y0036007D01*
X0078679Y0036491D01*
X0077712Y0036491D01*
X0077228Y0036975D01*
X0077228Y0037458D01*
X0077712Y0037942D01*
X0078679Y0037942D01*
X0079163Y0037458D01*
X0080175Y0037942D02*
X0081142Y0037942D01*
X0080658Y0037942D02*
X0080658Y0035040D01*
X0080175Y0035040D02*
X0081142Y0035040D01*
X0080738Y0046851D02*
X0079287Y0048302D01*
X0078803Y0047818D02*
X0080738Y0049753D01*
X0078803Y0049753D02*
X0078803Y0046851D01*
X0077791Y0047335D02*
X0077308Y0046851D01*
X0076340Y0046851D01*
X0075856Y0047335D01*
X0075856Y0049270D01*
X0076340Y0049753D01*
X0077308Y0049753D01*
X0077791Y0049270D01*
X0074845Y0049270D02*
X0074361Y0049753D01*
X0073394Y0049753D01*
X0072910Y0049270D01*
X0072910Y0048786D01*
X0073394Y0048302D01*
X0074361Y0048302D01*
X0074845Y0047818D01*
X0074845Y0047335D01*
X0074361Y0046851D01*
X0073394Y0046851D01*
X0072910Y0047335D01*
X0075666Y0056693D02*
X0077117Y0056693D01*
X0077601Y0057177D01*
X0077601Y0059112D01*
X0077117Y0059596D01*
X0075666Y0059596D01*
X0075666Y0056693D01*
X0078612Y0057177D02*
X0079096Y0056693D01*
X0080063Y0056693D01*
X0080547Y0057177D01*
X0080547Y0057661D01*
X0080063Y0058145D01*
X0078612Y0058145D01*
X0078612Y0057177D01*
X0078612Y0058145D02*
X0079580Y0059112D01*
X0080547Y0059596D01*
X0079670Y0066536D02*
X0078702Y0066536D01*
X0078219Y0067020D01*
X0077207Y0067020D02*
X0077207Y0068955D01*
X0076723Y0069438D01*
X0075272Y0069438D01*
X0075272Y0066536D01*
X0076723Y0066536D01*
X0077207Y0067020D01*
X0078219Y0068955D02*
X0078702Y0069438D01*
X0079670Y0069438D01*
X0080154Y0068955D01*
X0080154Y0068471D01*
X0079670Y0067987D01*
X0080154Y0067503D01*
X0080154Y0067020D01*
X0079670Y0066536D01*
X0079670Y0067987D02*
X0079186Y0067987D01*
X0078612Y0076378D02*
X0078612Y0076862D01*
X0080547Y0078797D01*
X0080547Y0079281D01*
X0078612Y0079281D01*
X0077601Y0078313D02*
X0077601Y0076378D01*
X0077601Y0077830D02*
X0075666Y0077830D01*
X0075666Y0078313D02*
X0076633Y0079281D01*
X0077601Y0078313D01*
X0075666Y0078313D02*
X0075666Y0076378D01*
X0075272Y0086615D02*
X0075272Y0088550D01*
X0076240Y0089517D01*
X0077207Y0088550D01*
X0077207Y0086615D01*
X0078219Y0087098D02*
X0078702Y0086615D01*
X0079670Y0086615D01*
X0080154Y0087098D01*
X0080154Y0087582D01*
X0079670Y0088066D01*
X0078219Y0088066D01*
X0078219Y0087098D01*
X0078219Y0088066D02*
X0079186Y0089033D01*
X0080154Y0089517D01*
X0077207Y0088066D02*
X0075272Y0088066D01*
X0075272Y0097244D02*
X0075272Y0099179D01*
X0076240Y0100147D01*
X0077207Y0099179D01*
X0077207Y0097244D01*
X0078219Y0097244D02*
X0080154Y0099179D01*
X0080154Y0099663D01*
X0079670Y0100147D01*
X0078702Y0100147D01*
X0078219Y0099663D01*
X0077207Y0098696D02*
X0075272Y0098696D01*
X0078219Y0097244D02*
X0080154Y0097244D01*
X0080547Y0107087D02*
X0078612Y0107087D01*
X0079580Y0107087D02*
X0079580Y0109989D01*
X0078612Y0109022D01*
X0077601Y0109022D02*
X0077601Y0107087D01*
X0077601Y0108538D02*
X0075666Y0108538D01*
X0075666Y0109022D02*
X0075666Y0107087D01*
X0075666Y0109022D02*
X0076633Y0109989D01*
X0077601Y0109022D01*
X0078185Y0116536D02*
X0078185Y0119438D01*
X0079197Y0119438D02*
X0080648Y0119438D01*
X0081132Y0118955D01*
X0081132Y0117020D01*
X0080648Y0116536D01*
X0079197Y0116536D01*
X0079197Y0119438D01*
X0076250Y0119438D02*
X0078185Y0116536D01*
X0076250Y0116536D02*
X0076250Y0119438D01*
X0075239Y0118955D02*
X0074755Y0119438D01*
X0073787Y0119438D01*
X0073304Y0118955D01*
X0073304Y0117020D01*
X0073787Y0116536D01*
X0074755Y0116536D01*
X0075239Y0117020D01*
X0075239Y0117987D01*
X0074271Y0117987D01*
X0074271Y0127166D02*
X0075239Y0128133D01*
X0075239Y0130068D01*
X0076250Y0129584D02*
X0076250Y0127649D01*
X0076734Y0127166D01*
X0077701Y0127166D01*
X0078185Y0127649D01*
X0079197Y0127649D02*
X0079680Y0127166D01*
X0080648Y0127166D01*
X0081132Y0127649D01*
X0079197Y0127649D02*
X0079197Y0129584D01*
X0079680Y0130068D01*
X0080648Y0130068D01*
X0081132Y0129584D01*
X0078185Y0129584D02*
X0077701Y0130068D01*
X0076734Y0130068D01*
X0076250Y0129584D01*
X0073304Y0130068D02*
X0073304Y0128133D01*
X0074271Y0127166D01*
X0092542Y0144489D02*
X0092542Y0145940D01*
X0093026Y0146424D01*
X0094961Y0146424D01*
X0095444Y0145940D01*
X0095444Y0144489D01*
X0092542Y0144489D01*
X0092542Y0147435D02*
X0092542Y0149370D01*
X0092542Y0148403D02*
X0095444Y0148403D01*
X0095444Y0150382D02*
X0092542Y0150382D01*
X0092542Y0151833D01*
X0093026Y0152317D01*
X0093993Y0152317D01*
X0094477Y0151833D01*
X0094477Y0150382D01*
X0094477Y0151349D02*
X0095444Y0152317D01*
X0101991Y0151833D02*
X0102475Y0152317D01*
X0104410Y0152317D01*
X0104893Y0151833D01*
X0104893Y0150865D01*
X0104410Y0150382D01*
X0102475Y0150382D01*
X0101991Y0150865D01*
X0101991Y0151833D01*
X0101991Y0149370D02*
X0104893Y0147435D01*
X0104893Y0149370D02*
X0101991Y0147435D01*
X0101991Y0146424D02*
X0101991Y0144489D01*
X0101991Y0145456D02*
X0104893Y0145456D01*
X0112621Y0145276D02*
X0112621Y0146727D01*
X0113105Y0147211D01*
X0114072Y0147211D01*
X0114556Y0146727D01*
X0114556Y0145276D01*
X0115523Y0145276D02*
X0112621Y0145276D01*
X0114556Y0146243D02*
X0115523Y0147211D01*
X0115523Y0148223D02*
X0112621Y0150157D01*
X0112621Y0151169D02*
X0112621Y0152137D01*
X0112621Y0151653D02*
X0115523Y0151653D01*
X0115523Y0151169D02*
X0115523Y0152137D01*
X0115523Y0150157D02*
X0112621Y0148223D01*
X0122463Y0147919D02*
X0122947Y0147435D01*
X0124882Y0147435D01*
X0125366Y0147919D01*
X0125366Y0148886D01*
X0124882Y0149370D01*
X0124882Y0150382D02*
X0122947Y0150382D01*
X0122463Y0150865D01*
X0122463Y0151833D01*
X0122947Y0152317D01*
X0124882Y0152317D02*
X0125366Y0151833D01*
X0125366Y0150865D01*
X0124882Y0150382D01*
X0122947Y0149370D02*
X0122463Y0148886D01*
X0122463Y0147919D01*
X0122463Y0146424D02*
X0124398Y0146424D01*
X0125366Y0145456D01*
X0124398Y0144489D01*
X0122463Y0144489D01*
X0132306Y0145366D02*
X0132790Y0144882D01*
X0134725Y0144882D01*
X0135208Y0145366D01*
X0135208Y0146334D01*
X0134725Y0146817D01*
X0133757Y0146817D01*
X0133757Y0145850D01*
X0132790Y0146817D02*
X0132306Y0146334D01*
X0132306Y0145366D01*
X0132306Y0147829D02*
X0135208Y0149764D01*
X0132306Y0149764D01*
X0132306Y0150775D02*
X0132306Y0152227D01*
X0132790Y0152710D01*
X0134725Y0152710D01*
X0135208Y0152227D01*
X0135208Y0150775D01*
X0132306Y0150775D01*
X0132306Y0147829D02*
X0135208Y0147829D01*
X0142148Y0147829D02*
X0145051Y0149764D01*
X0142148Y0149764D01*
X0142148Y0150775D02*
X0142148Y0152227D01*
X0142632Y0152710D01*
X0144567Y0152710D01*
X0145051Y0152227D01*
X0145051Y0150775D01*
X0142148Y0150775D01*
X0142148Y0147829D02*
X0145051Y0147829D01*
X0144567Y0146817D02*
X0143600Y0146817D01*
X0143600Y0145850D01*
X0144567Y0146817D02*
X0145051Y0146334D01*
X0145051Y0145366D01*
X0144567Y0144882D01*
X0142632Y0144882D01*
X0142148Y0145366D01*
X0142148Y0146334D01*
X0142632Y0146817D01*
X0116910Y0063105D02*
X0114975Y0063105D01*
X0116910Y0061170D01*
X0117393Y0061654D01*
X0117393Y0062621D01*
X0116910Y0063105D01*
X0116910Y0061170D02*
X0114975Y0061170D01*
X0114491Y0061654D01*
X0114491Y0062621D01*
X0114975Y0063105D01*
X0114975Y0060158D02*
X0115458Y0060158D01*
X0115942Y0059675D01*
X0115942Y0058707D01*
X0115458Y0058223D01*
X0114975Y0058223D01*
X0114491Y0058707D01*
X0114491Y0059675D01*
X0114975Y0060158D01*
X0115942Y0059675D02*
X0116426Y0060158D01*
X0116910Y0060158D01*
X0117393Y0059675D01*
X0117393Y0058707D01*
X0116910Y0058223D01*
X0116426Y0058223D01*
X0115942Y0058707D01*
X0115458Y0057212D02*
X0114975Y0057212D01*
X0114491Y0056728D01*
X0114491Y0055761D01*
X0114975Y0055277D01*
X0114491Y0054265D02*
X0114491Y0052330D01*
X0117393Y0052330D01*
X0117393Y0054265D01*
X0117393Y0055277D02*
X0115458Y0057212D01*
X0117393Y0057212D02*
X0117393Y0055277D01*
X0115942Y0053298D02*
X0115942Y0052330D01*
X0114491Y0051319D02*
X0117393Y0051319D01*
X0117393Y0049384D02*
X0114491Y0049384D01*
X0115458Y0050351D01*
X0114491Y0051319D01*
X0114975Y0048372D02*
X0115458Y0048372D01*
X0115942Y0047889D01*
X0115942Y0046437D01*
X0117393Y0046437D02*
X0114491Y0046437D01*
X0114491Y0047889D01*
X0114975Y0048372D01*
X0115942Y0047889D02*
X0116426Y0048372D01*
X0116910Y0048372D01*
X0117393Y0047889D01*
X0117393Y0046437D01*
X0079760Y0018955D02*
X0079276Y0019438D01*
X0078309Y0019438D01*
X0077825Y0018955D01*
X0077825Y0018471D01*
X0078309Y0017987D01*
X0079276Y0017987D01*
X0079760Y0017503D01*
X0079760Y0017020D01*
X0079276Y0016536D01*
X0078309Y0016536D01*
X0077825Y0017020D01*
X0076813Y0017020D02*
X0076330Y0016536D01*
X0075362Y0016536D01*
X0074878Y0017020D01*
X0075362Y0017987D02*
X0076330Y0017987D01*
X0076813Y0017503D01*
X0076813Y0017020D01*
X0075362Y0017987D02*
X0074878Y0018471D01*
X0074878Y0018955D01*
X0075362Y0019438D01*
X0076330Y0019438D01*
X0076813Y0018955D01*
D12*
X0099764Y0028817D02*
X0100500Y0028817D01*
X0100872Y0028817D02*
X0101240Y0028817D01*
X0101056Y0028817D02*
X0101056Y0029921D01*
X0100872Y0029921D02*
X0101240Y0029921D01*
X0101611Y0029737D02*
X0101611Y0029553D01*
X0101795Y0029369D01*
X0102163Y0029369D01*
X0102347Y0029185D01*
X0102347Y0029001D01*
X0102163Y0028817D01*
X0101795Y0028817D01*
X0101611Y0029001D01*
X0101611Y0029737D02*
X0101795Y0029921D01*
X0102163Y0029921D01*
X0102347Y0029737D01*
X0102719Y0029737D02*
X0102903Y0029921D01*
X0103271Y0029921D01*
X0103455Y0029737D01*
X0103455Y0029553D01*
X0103271Y0029369D01*
X0103455Y0029185D01*
X0103455Y0029001D01*
X0103271Y0028817D01*
X0102903Y0028817D01*
X0102719Y0029001D01*
X0103087Y0029369D02*
X0103271Y0029369D01*
X0103827Y0028817D02*
X0103827Y0029921D01*
X0104195Y0029553D01*
X0104564Y0029921D01*
X0104564Y0028817D01*
X0104935Y0028817D02*
X0105488Y0028817D01*
X0105672Y0029001D01*
X0105672Y0029737D01*
X0105488Y0029921D01*
X0104935Y0029921D01*
X0104935Y0028817D01*
X0106044Y0028817D02*
X0106780Y0028817D01*
X0106044Y0028817D02*
X0106044Y0029921D01*
X0107152Y0029921D02*
X0107888Y0029921D01*
X0107520Y0029921D02*
X0107520Y0028817D01*
X0108260Y0028817D02*
X0108260Y0029921D01*
X0108812Y0029921D01*
X0108996Y0029737D01*
X0108996Y0029369D01*
X0108812Y0029185D01*
X0108260Y0029185D01*
X0108628Y0029185D02*
X0108996Y0028817D01*
X0104993Y0033365D02*
X0104993Y0033965D01*
X0104993Y0034286D02*
X0104993Y0034586D01*
X0104993Y0034436D02*
X0104093Y0034436D01*
X0104093Y0034286D02*
X0104093Y0034586D01*
X0104243Y0034900D02*
X0104393Y0034900D01*
X0104543Y0035050D01*
X0104543Y0035350D01*
X0104693Y0035500D01*
X0104843Y0035500D01*
X0104993Y0035350D01*
X0104993Y0035050D01*
X0104843Y0034900D01*
X0104243Y0034900D02*
X0104093Y0035050D01*
X0104093Y0035350D01*
X0104243Y0035500D01*
X0104243Y0035820D02*
X0104093Y0035970D01*
X0104093Y0036271D01*
X0104243Y0036421D01*
X0104393Y0036421D01*
X0104543Y0036271D01*
X0104693Y0036421D01*
X0104843Y0036421D01*
X0104993Y0036271D01*
X0104993Y0035970D01*
X0104843Y0035820D01*
X0104543Y0036121D02*
X0104543Y0036271D01*
X0104993Y0036741D02*
X0104093Y0036741D01*
X0104393Y0037041D01*
X0104093Y0037342D01*
X0104993Y0037342D01*
X0104993Y0037662D02*
X0104993Y0038112D01*
X0104843Y0038262D01*
X0104243Y0038262D01*
X0104093Y0038112D01*
X0104093Y0037662D01*
X0104993Y0037662D01*
X0104993Y0038583D02*
X0104993Y0039183D01*
X0104993Y0038583D02*
X0104093Y0038583D01*
X0104093Y0033365D02*
X0104993Y0033365D01*
X0099764Y0029921D02*
X0099764Y0028817D01*
X0101156Y0053837D02*
X0101907Y0053837D01*
X0102157Y0054088D01*
X0102157Y0054338D01*
X0101907Y0054588D01*
X0101156Y0054588D01*
X0101156Y0053837D02*
X0101156Y0055339D01*
X0101907Y0055339D01*
X0102157Y0055088D01*
X0102157Y0054838D01*
X0101907Y0054588D01*
X0102630Y0053837D02*
X0102630Y0055339D01*
X0103130Y0054838D01*
X0103630Y0055339D01*
X0103630Y0053837D01*
X0104103Y0053837D02*
X0104103Y0055339D01*
X0105104Y0055339D01*
X0105576Y0055088D02*
X0105826Y0055339D01*
X0106327Y0055339D01*
X0106577Y0055088D01*
X0106577Y0054838D01*
X0105576Y0053837D01*
X0106577Y0053837D01*
X0107049Y0054088D02*
X0107049Y0054338D01*
X0107300Y0054588D01*
X0107800Y0054588D01*
X0108050Y0054338D01*
X0108050Y0054088D01*
X0107800Y0053837D01*
X0107300Y0053837D01*
X0107049Y0054088D01*
X0107300Y0054588D02*
X0107049Y0054838D01*
X0107049Y0055088D01*
X0107300Y0055339D01*
X0107800Y0055339D01*
X0108050Y0055088D01*
X0108050Y0054838D01*
X0107800Y0054588D01*
X0108523Y0054088D02*
X0109523Y0055088D01*
X0109523Y0054088D01*
X0109273Y0053837D01*
X0108773Y0053837D01*
X0108523Y0054088D01*
X0108523Y0055088D01*
X0108773Y0055339D01*
X0109273Y0055339D01*
X0109523Y0055088D01*
X0105104Y0053837D02*
X0104103Y0053837D01*
X0104103Y0054588D02*
X0104603Y0054588D01*
X0130290Y0055019D02*
X0131291Y0055019D01*
X0131763Y0055019D02*
X0132264Y0055019D01*
X0132014Y0055019D02*
X0132014Y0056520D01*
X0132264Y0056520D02*
X0131763Y0056520D01*
X0132746Y0056270D02*
X0132746Y0056019D01*
X0132996Y0055769D01*
X0133496Y0055769D01*
X0133746Y0055519D01*
X0133746Y0055269D01*
X0133496Y0055019D01*
X0132996Y0055019D01*
X0132746Y0055269D01*
X0132746Y0056270D02*
X0132996Y0056520D01*
X0133496Y0056520D01*
X0133746Y0056270D01*
X0134219Y0056270D02*
X0134469Y0056520D01*
X0134969Y0056520D01*
X0135220Y0056270D01*
X0135220Y0056019D01*
X0134969Y0055769D01*
X0135220Y0055519D01*
X0135220Y0055269D01*
X0134969Y0055019D01*
X0134469Y0055019D01*
X0134219Y0055269D01*
X0134719Y0055769D02*
X0134969Y0055769D01*
X0135692Y0055019D02*
X0135692Y0056520D01*
X0136443Y0056520D01*
X0136693Y0056270D01*
X0136693Y0055269D01*
X0136443Y0055019D01*
X0135692Y0055019D01*
X0137165Y0055019D02*
X0137165Y0056520D01*
X0137165Y0055769D02*
X0138166Y0055769D01*
X0138166Y0055019D02*
X0138166Y0056520D01*
X0130290Y0056520D02*
X0130290Y0055019D01*
X0164046Y0021088D02*
X0164413Y0021455D01*
X0164780Y0021088D01*
X0164780Y0020354D01*
X0165151Y0020354D02*
X0165151Y0021455D01*
X0165151Y0020904D02*
X0165885Y0020904D01*
X0166256Y0021088D02*
X0166440Y0020904D01*
X0166990Y0020904D01*
X0166990Y0020537D02*
X0166990Y0021271D01*
X0166807Y0021455D01*
X0166440Y0021455D01*
X0166256Y0021271D01*
X0166256Y0021088D01*
X0165885Y0021455D02*
X0165885Y0020354D01*
X0166256Y0020537D02*
X0166440Y0020354D01*
X0166807Y0020354D01*
X0166990Y0020537D01*
X0167361Y0020354D02*
X0168095Y0021088D01*
X0168095Y0021271D01*
X0167912Y0021455D01*
X0167545Y0021455D01*
X0167361Y0021271D01*
X0167361Y0020354D02*
X0168095Y0020354D01*
X0168466Y0020904D02*
X0169200Y0020904D01*
X0169571Y0020904D02*
X0170122Y0020904D01*
X0170305Y0020721D01*
X0170305Y0020537D01*
X0170122Y0020354D01*
X0169755Y0020354D01*
X0169571Y0020537D01*
X0169571Y0020904D01*
X0169938Y0021271D01*
X0170305Y0021455D01*
X0170676Y0020904D02*
X0171410Y0020904D01*
X0171781Y0020354D02*
X0172148Y0020721D01*
X0172515Y0020354D01*
X0172515Y0021455D01*
X0172886Y0021455D02*
X0173620Y0021455D01*
X0173620Y0021271D01*
X0172886Y0020537D01*
X0172886Y0020354D01*
X0171781Y0020354D02*
X0171781Y0021455D01*
X0169017Y0021455D02*
X0169017Y0020354D01*
X0168466Y0020904D02*
X0169017Y0021455D01*
X0164780Y0020904D02*
X0164046Y0020904D01*
X0164046Y0021088D02*
X0164046Y0020354D01*
X0124092Y0088458D02*
X0124092Y0089959D01*
X0124843Y0089959D01*
X0125093Y0089709D01*
X0125093Y0089209D01*
X0124843Y0088958D01*
X0124092Y0088958D01*
X0123620Y0088958D02*
X0123620Y0088708D01*
X0123370Y0088458D01*
X0122869Y0088458D01*
X0122619Y0088708D01*
X0122619Y0088958D01*
X0122869Y0089209D01*
X0123370Y0089209D01*
X0123620Y0088958D01*
X0123370Y0089209D02*
X0123620Y0089459D01*
X0123620Y0089709D01*
X0123370Y0089959D01*
X0122869Y0089959D01*
X0122619Y0089709D01*
X0122619Y0089459D01*
X0122869Y0089209D01*
X0122147Y0089459D02*
X0122147Y0089709D01*
X0121897Y0089959D01*
X0121396Y0089959D01*
X0121146Y0089709D01*
X0120674Y0089709D02*
X0120674Y0089459D01*
X0120423Y0089209D01*
X0120674Y0088958D01*
X0120674Y0088708D01*
X0120423Y0088458D01*
X0119923Y0088458D01*
X0119673Y0088708D01*
X0119200Y0088458D02*
X0119200Y0089459D01*
X0118700Y0089959D01*
X0118199Y0089459D01*
X0118199Y0088458D01*
X0117727Y0088708D02*
X0117727Y0089209D01*
X0117227Y0089209D01*
X0117727Y0089709D02*
X0117477Y0089959D01*
X0116976Y0089959D01*
X0116726Y0089709D01*
X0116726Y0088708D01*
X0116976Y0088458D01*
X0117477Y0088458D01*
X0117727Y0088708D01*
X0118199Y0089209D02*
X0119200Y0089209D01*
X0119673Y0089709D02*
X0119923Y0089959D01*
X0120423Y0089959D01*
X0120674Y0089709D01*
X0120423Y0089209D02*
X0120173Y0089209D01*
X0121146Y0088458D02*
X0122147Y0089459D01*
X0122147Y0088458D02*
X0121146Y0088458D01*
X0116254Y0088458D02*
X0115253Y0088458D01*
X0115253Y0089959D01*
X0116254Y0089959D01*
X0115753Y0089209D02*
X0115253Y0089209D01*
X0114781Y0089959D02*
X0114781Y0088458D01*
X0113780Y0088458D02*
X0113780Y0089959D01*
X0114280Y0089459D01*
X0114781Y0089959D01*
X0113307Y0089959D02*
X0112306Y0089959D01*
X0112807Y0089959D02*
X0112807Y0088458D01*
X0111834Y0088458D02*
X0111834Y0089459D01*
X0111334Y0089959D01*
X0110833Y0089459D01*
X0110833Y0088458D01*
X0110833Y0089209D02*
X0111834Y0089209D01*
D13*
X0181350Y0127903D02*
X0182084Y0129371D01*
X0182826Y0129004D02*
X0183193Y0129371D01*
X0183927Y0129371D01*
X0184294Y0129004D01*
X0184294Y0128637D01*
X0182826Y0128637D01*
X0182826Y0128270D02*
X0182826Y0129004D01*
X0182826Y0128270D02*
X0183193Y0127903D01*
X0183927Y0127903D01*
X0185036Y0127903D02*
X0185036Y0129371D01*
X0185769Y0129371D02*
X0185036Y0128637D01*
X0185769Y0129371D02*
X0186136Y0129371D01*
X0189087Y0128637D02*
X0190188Y0128637D01*
X0190555Y0129004D01*
X0190555Y0129738D01*
X0190188Y0130105D01*
X0189087Y0130105D01*
X0189087Y0127903D01*
X0189821Y0128637D02*
X0190555Y0127903D01*
X0191297Y0127903D02*
X0192765Y0127903D01*
X0192031Y0127903D02*
X0192031Y0130105D01*
X0191297Y0129371D01*
X0195717Y0129371D02*
X0195717Y0129738D01*
X0196084Y0130105D01*
X0196451Y0129738D01*
X0196451Y0129371D01*
X0195717Y0128637D01*
X0195717Y0128270D01*
X0196084Y0127903D01*
X0196451Y0127903D01*
X0197185Y0128637D01*
X0197185Y0127903D02*
X0195717Y0129371D01*
X0200136Y0128637D02*
X0201237Y0128637D01*
X0201604Y0129004D01*
X0201604Y0129738D01*
X0201237Y0130105D01*
X0200136Y0130105D01*
X0200136Y0127903D01*
X0200870Y0128637D02*
X0201604Y0127903D01*
X0202346Y0128270D02*
X0202713Y0127903D01*
X0203447Y0127903D01*
X0203814Y0128270D01*
X0203814Y0128637D01*
X0203447Y0129004D01*
X0203080Y0129004D01*
X0203447Y0129004D02*
X0203814Y0129371D01*
X0203814Y0129738D01*
X0203447Y0130105D01*
X0202713Y0130105D01*
X0202346Y0129738D01*
X0181350Y0127903D02*
X0180616Y0129371D01*
X0181350Y0147588D02*
X0182084Y0149056D01*
X0182826Y0148689D02*
X0182826Y0147955D01*
X0183193Y0147588D01*
X0183927Y0147588D01*
X0184294Y0148322D02*
X0182826Y0148322D01*
X0182826Y0148689D02*
X0183193Y0149056D01*
X0183927Y0149056D01*
X0184294Y0148689D01*
X0184294Y0148322D01*
X0185036Y0148322D02*
X0185769Y0149056D01*
X0186136Y0149056D01*
X0185036Y0149056D02*
X0185036Y0147588D01*
X0181350Y0147588D02*
X0180616Y0149056D01*
X0189087Y0148322D02*
X0190188Y0148322D01*
X0190555Y0148689D01*
X0190555Y0149423D01*
X0190188Y0149790D01*
X0189087Y0149790D01*
X0189087Y0147588D01*
X0189821Y0148322D02*
X0190555Y0147588D01*
X0191297Y0147588D02*
X0192765Y0149056D01*
X0192765Y0149423D01*
X0192398Y0149790D01*
X0191664Y0149790D01*
X0191297Y0149423D01*
X0191297Y0147588D02*
X0192765Y0147588D01*
X0195717Y0147955D02*
X0195717Y0148322D01*
X0196451Y0149056D01*
X0196451Y0149423D01*
X0196084Y0149790D01*
X0195717Y0149423D01*
X0195717Y0149056D01*
X0197185Y0147588D01*
X0197185Y0148322D02*
X0196451Y0147588D01*
X0196084Y0147588D01*
X0195717Y0147955D01*
X0200136Y0147588D02*
X0200136Y0149790D01*
X0201237Y0149790D01*
X0201604Y0149423D01*
X0201604Y0148689D01*
X0201237Y0148322D01*
X0200136Y0148322D01*
X0200870Y0148322D02*
X0201604Y0147588D01*
X0202346Y0148689D02*
X0203814Y0148689D01*
X0203447Y0147588D02*
X0203447Y0149790D01*
X0202346Y0148689D01*
X0224814Y0083611D02*
X0225915Y0083611D01*
X0226282Y0083244D01*
X0226282Y0082510D01*
X0225915Y0082143D01*
X0224814Y0082143D01*
X0224814Y0081409D02*
X0224814Y0083611D01*
X0227024Y0083611D02*
X0228125Y0083611D01*
X0228492Y0083244D01*
X0228492Y0082510D01*
X0228125Y0082143D01*
X0227024Y0082143D01*
X0227758Y0082143D02*
X0228492Y0081409D01*
X0229234Y0081776D02*
X0229601Y0081409D01*
X0230335Y0081409D01*
X0230702Y0081776D01*
X0230702Y0083244D01*
X0230335Y0083611D01*
X0229601Y0083611D01*
X0229234Y0083244D01*
X0229234Y0081776D01*
X0231444Y0081409D02*
X0231444Y0082877D01*
X0232178Y0083611D01*
X0232912Y0082877D01*
X0232912Y0081409D01*
X0233654Y0081409D02*
X0233654Y0083611D01*
X0235122Y0081409D01*
X0235122Y0083611D01*
X0235864Y0083611D02*
X0237331Y0083611D01*
X0236597Y0083611D02*
X0236597Y0081409D01*
X0240283Y0081776D02*
X0240283Y0083244D01*
X0240650Y0083611D01*
X0241384Y0083611D01*
X0241751Y0083244D01*
X0241751Y0081776D01*
X0241384Y0081409D01*
X0240650Y0081409D01*
X0240283Y0081776D01*
X0242493Y0081409D02*
X0242493Y0083611D01*
X0243961Y0081409D01*
X0243961Y0083611D01*
X0244703Y0083611D02*
X0244703Y0081409D01*
X0245804Y0081409D01*
X0246171Y0081776D01*
X0246171Y0082143D01*
X0245804Y0082510D01*
X0244703Y0082510D01*
X0244703Y0083611D02*
X0245804Y0083611D01*
X0246171Y0083244D01*
X0246171Y0082877D01*
X0245804Y0082510D01*
X0246913Y0083244D02*
X0246913Y0081776D01*
X0247280Y0081409D01*
X0248014Y0081409D01*
X0248381Y0081776D01*
X0248381Y0083244D01*
X0248014Y0083611D01*
X0247280Y0083611D01*
X0246913Y0083244D01*
X0249123Y0082877D02*
X0249857Y0083611D01*
X0250591Y0082877D01*
X0250591Y0081409D01*
X0251333Y0081409D02*
X0251333Y0083611D01*
X0252434Y0083611D01*
X0252801Y0083244D01*
X0252801Y0082510D01*
X0252434Y0082143D01*
X0251333Y0082143D01*
X0252067Y0082143D02*
X0252801Y0081409D01*
X0253543Y0081409D02*
X0254644Y0081409D01*
X0255010Y0081776D01*
X0255010Y0083244D01*
X0254644Y0083611D01*
X0253543Y0083611D01*
X0253543Y0081409D01*
X0250591Y0082510D02*
X0249123Y0082510D01*
X0249123Y0082877D02*
X0249123Y0081409D01*
X0257962Y0081776D02*
X0257962Y0082143D01*
X0258329Y0082510D01*
X0259063Y0082510D01*
X0259430Y0082143D01*
X0259430Y0081776D01*
X0259063Y0081409D01*
X0258329Y0081409D01*
X0257962Y0081776D01*
X0258329Y0082510D02*
X0257962Y0082877D01*
X0257962Y0083244D01*
X0258329Y0083611D01*
X0259063Y0083611D01*
X0259430Y0083244D01*
X0259430Y0082877D01*
X0259063Y0082510D01*
X0260172Y0082510D02*
X0261273Y0082510D01*
X0261640Y0082143D01*
X0261640Y0081776D01*
X0261273Y0081409D01*
X0260539Y0081409D01*
X0260172Y0081776D01*
X0260172Y0082510D01*
X0260906Y0083244D01*
X0261640Y0083611D01*
X0262382Y0083244D02*
X0262382Y0082877D01*
X0262749Y0082510D01*
X0263483Y0082510D01*
X0263850Y0082143D01*
X0263850Y0081776D01*
X0263483Y0081409D01*
X0262749Y0081409D01*
X0262382Y0081776D01*
X0262382Y0082143D01*
X0262749Y0082510D01*
X0263483Y0082510D02*
X0263850Y0082877D01*
X0263850Y0083244D01*
X0263483Y0083611D01*
X0262749Y0083611D01*
X0262382Y0083244D01*
X0232912Y0082510D02*
X0231444Y0082510D01*
X0227024Y0081409D02*
X0227024Y0083611D01*
X0179802Y0009633D02*
X0178334Y0009633D01*
X0178334Y0007431D01*
X0179802Y0007431D01*
X0179068Y0008532D02*
X0178334Y0008532D01*
X0177592Y0008165D02*
X0177592Y0007798D01*
X0177225Y0007431D01*
X0176491Y0007431D01*
X0176124Y0007798D01*
X0176491Y0008532D02*
X0177225Y0008532D01*
X0177592Y0008165D01*
X0177592Y0009266D02*
X0177225Y0009633D01*
X0176491Y0009633D01*
X0176124Y0009266D01*
X0176124Y0008899D01*
X0176491Y0008532D01*
X0175382Y0007431D02*
X0175382Y0009633D01*
X0173914Y0009633D02*
X0173914Y0007431D01*
X0173172Y0007431D02*
X0171705Y0007431D01*
X0171705Y0009633D01*
X0173172Y0009633D01*
X0173914Y0009633D02*
X0175382Y0007431D01*
X0172438Y0008532D02*
X0171705Y0008532D01*
X0170963Y0008165D02*
X0170963Y0007798D01*
X0170596Y0007431D01*
X0169862Y0007431D01*
X0169495Y0007798D01*
X0169862Y0008532D02*
X0170596Y0008532D01*
X0170963Y0008165D01*
X0170963Y0009266D02*
X0170596Y0009633D01*
X0169862Y0009633D01*
X0169495Y0009266D01*
X0169495Y0008899D01*
X0169862Y0008532D01*
X0166543Y0008532D02*
X0165809Y0008532D01*
X0166543Y0008532D02*
X0166543Y0007798D01*
X0166176Y0007431D01*
X0165442Y0007431D01*
X0165075Y0007798D01*
X0165075Y0009266D01*
X0165442Y0009633D01*
X0166176Y0009633D01*
X0166543Y0009266D01*
X0164333Y0008899D02*
X0164333Y0007431D01*
X0164333Y0008532D02*
X0162865Y0008532D01*
X0162865Y0008899D02*
X0162865Y0007431D01*
X0162123Y0007431D02*
X0162123Y0009633D01*
X0161389Y0008899D01*
X0160655Y0009633D01*
X0160655Y0007431D01*
X0162865Y0008899D02*
X0163599Y0009633D01*
X0164333Y0008899D01*
D14*
X0191756Y0018863D02*
X0193658Y0018863D01*
X0193658Y0018230D02*
X0193658Y0019497D01*
X0193341Y0020439D02*
X0192073Y0021707D01*
X0193341Y0021707D01*
X0193658Y0021390D01*
X0193658Y0020756D01*
X0193341Y0020439D01*
X0192073Y0020439D01*
X0191756Y0020756D01*
X0191756Y0021390D01*
X0192073Y0021707D01*
X0191756Y0022649D02*
X0193658Y0022649D01*
X0193024Y0022649D02*
X0193658Y0023600D01*
X0193024Y0022649D02*
X0192390Y0023600D01*
X0191756Y0018863D02*
X0192390Y0018230D01*
X0200811Y0018863D02*
X0202713Y0018863D01*
X0202713Y0018230D02*
X0202713Y0019497D01*
X0202396Y0020439D02*
X0201128Y0021707D01*
X0202396Y0021707D01*
X0202713Y0021390D01*
X0202713Y0020756D01*
X0202396Y0020439D01*
X0201128Y0020439D01*
X0200811Y0020756D01*
X0200811Y0021390D01*
X0201128Y0021707D01*
X0200811Y0022649D02*
X0202713Y0022649D01*
X0202079Y0022649D02*
X0201445Y0023600D01*
X0202079Y0022649D02*
X0202713Y0023600D01*
X0200811Y0018863D02*
X0201445Y0018230D01*
X0190650Y0031074D02*
X0190650Y0032976D01*
X0191601Y0032976D01*
X0191918Y0032659D01*
X0191918Y0032025D01*
X0191601Y0031708D01*
X0190650Y0031708D01*
X0189708Y0032025D02*
X0189391Y0031708D01*
X0188757Y0031708D01*
X0188440Y0032025D01*
X0189708Y0033293D01*
X0189708Y0032025D01*
X0188440Y0032025D02*
X0188440Y0033293D01*
X0188757Y0033610D01*
X0189391Y0033610D01*
X0189708Y0033293D01*
X0187498Y0033293D02*
X0186230Y0032025D01*
X0186547Y0031708D01*
X0187181Y0031708D01*
X0187498Y0032025D01*
X0187498Y0033293D01*
X0187181Y0033610D01*
X0186547Y0033610D01*
X0186230Y0033293D01*
X0186230Y0032025D01*
X0185288Y0031708D02*
X0184021Y0031708D01*
X0184654Y0031708D02*
X0184654Y0033610D01*
X0184021Y0032976D01*
X0192860Y0032659D02*
X0193494Y0032659D01*
X0192860Y0031708D02*
X0192860Y0033610D01*
X0194128Y0033610D01*
X0192308Y0043519D02*
X0192308Y0045421D01*
X0193575Y0045421D01*
X0192941Y0044470D02*
X0192308Y0044470D01*
X0191365Y0044787D02*
X0191365Y0043519D01*
X0190415Y0043519D01*
X0190098Y0043836D01*
X0190098Y0044787D01*
X0189156Y0043519D02*
X0187888Y0043519D01*
X0188522Y0043519D02*
X0188522Y0045421D01*
X0187888Y0044787D01*
X0187100Y0043836D02*
X0187100Y0043519D01*
X0186783Y0043519D01*
X0186783Y0043836D01*
X0187100Y0043836D01*
X0185841Y0043836D02*
X0185524Y0043519D01*
X0184890Y0043519D01*
X0184573Y0043836D01*
X0185841Y0045104D01*
X0185841Y0043836D01*
X0184573Y0043836D02*
X0184573Y0045104D01*
X0184890Y0045421D01*
X0185524Y0045421D01*
X0185841Y0045104D01*
X0173841Y0053269D02*
X0173841Y0054537D01*
X0173841Y0053903D02*
X0171939Y0053903D01*
X0172573Y0053269D01*
X0172256Y0055479D02*
X0171939Y0055796D01*
X0171939Y0056430D01*
X0172256Y0056747D01*
X0173524Y0055479D01*
X0173841Y0055796D01*
X0173841Y0056430D01*
X0173524Y0056747D01*
X0172256Y0056747D01*
X0171939Y0057689D02*
X0173841Y0057689D01*
X0173207Y0057689D02*
X0172573Y0058640D01*
X0173207Y0057689D02*
X0173841Y0058640D01*
X0173524Y0055479D02*
X0172256Y0055479D01*
X0166429Y0061356D02*
X0166429Y0063258D01*
X0166429Y0062307D02*
X0165162Y0062307D01*
X0165162Y0061356D02*
X0165162Y0063258D01*
X0164219Y0063258D02*
X0162952Y0063258D01*
X0163586Y0063258D02*
X0163586Y0061356D01*
X0162010Y0062307D02*
X0161693Y0061990D01*
X0160742Y0061990D01*
X0160742Y0061356D02*
X0160742Y0063258D01*
X0161693Y0063258D01*
X0162010Y0062941D01*
X0162010Y0062307D01*
X0159800Y0061356D02*
X0158532Y0061356D01*
X0158532Y0063258D01*
X0157590Y0061356D02*
X0156322Y0061356D01*
X0156322Y0063258D01*
X0155380Y0063258D02*
X0154112Y0063258D01*
X0154112Y0061356D01*
X0155380Y0061356D01*
X0154746Y0062307D02*
X0154112Y0062307D01*
X0153170Y0061673D02*
X0152853Y0061356D01*
X0152219Y0061356D01*
X0151902Y0061673D01*
X0151902Y0062941D01*
X0152219Y0063258D01*
X0152853Y0063258D01*
X0153170Y0062941D01*
X0150960Y0062941D02*
X0150960Y0061673D01*
X0150643Y0061356D01*
X0150009Y0061356D01*
X0149692Y0061673D01*
X0149692Y0062941D01*
X0150009Y0063258D01*
X0150643Y0063258D01*
X0150960Y0062941D01*
X0148750Y0063258D02*
X0147483Y0063258D01*
X0148116Y0063258D02*
X0148116Y0061356D01*
X0146540Y0061673D02*
X0146540Y0062941D01*
X0146223Y0063258D01*
X0145590Y0063258D01*
X0145273Y0062941D01*
X0145273Y0061673D01*
X0145590Y0061356D01*
X0146223Y0061356D01*
X0146540Y0061673D01*
X0144330Y0061356D02*
X0144330Y0063258D01*
X0144330Y0062307D02*
X0143063Y0062307D01*
X0142121Y0062307D02*
X0141804Y0061990D01*
X0140853Y0061990D01*
X0140853Y0061356D02*
X0140853Y0063258D01*
X0141804Y0063258D01*
X0142121Y0062941D01*
X0142121Y0062307D01*
X0143063Y0061356D02*
X0143063Y0063258D01*
X0148232Y0071504D02*
X0148232Y0130953D01*
X0148232Y0150638D01*
X0199413Y0150638D01*
X0199413Y0130953D01*
X0199413Y0071504D01*
X0148232Y0071504D01*
X0113554Y0061153D02*
X0113554Y0060704D01*
X0113106Y0060256D01*
X0112658Y0060256D01*
X0111986Y0060928D01*
X0111537Y0060480D02*
X0112882Y0061825D01*
X0113554Y0061153D01*
X0112216Y0062491D02*
X0111319Y0063388D01*
X0109975Y0062043D01*
X0109309Y0062709D02*
X0109309Y0063605D01*
X0109533Y0062933D02*
X0109085Y0062933D01*
X0108636Y0063381D01*
X0108636Y0063830D01*
X0109533Y0064726D01*
X0109981Y0064726D01*
X0110429Y0064278D01*
X0110429Y0063830D01*
X0109533Y0062933D01*
X0110647Y0062715D02*
X0111095Y0062267D01*
X0107298Y0064720D02*
X0108642Y0066065D01*
X0108194Y0066513D02*
X0109091Y0065616D01*
X0105959Y0065610D02*
X0105063Y0066507D01*
X0104845Y0068069D02*
X0104173Y0068742D01*
X0103724Y0068293D02*
X0105069Y0069638D01*
X0105741Y0068966D01*
X0105741Y0068517D01*
X0105293Y0068069D01*
X0104845Y0068069D01*
X0103506Y0069408D02*
X0103282Y0069184D01*
X0102834Y0069184D01*
X0102386Y0069632D01*
X0102386Y0070080D01*
X0102610Y0070304D01*
X0103058Y0070304D01*
X0103506Y0069856D01*
X0103506Y0069408D01*
X0103506Y0069856D02*
X0103955Y0069856D01*
X0104179Y0070080D01*
X0104179Y0070528D01*
X0103731Y0070977D01*
X0103282Y0070977D01*
X0103058Y0070752D01*
X0103058Y0070304D01*
X0102392Y0071419D02*
X0100599Y0071419D01*
X0101496Y0070522D01*
X0102392Y0071419D02*
X0102616Y0071643D01*
X0102616Y0072091D01*
X0102168Y0072539D01*
X0101720Y0072539D01*
X0101054Y0073205D02*
X0100829Y0072981D01*
X0100381Y0072981D01*
X0100381Y0072533D01*
X0100157Y0072309D01*
X0099709Y0072309D01*
X0099261Y0072757D01*
X0099261Y0073205D01*
X0100157Y0073205D02*
X0100381Y0072981D01*
X0101054Y0073205D02*
X0101054Y0073654D01*
X0100605Y0074102D01*
X0100157Y0074102D01*
X0099267Y0074544D02*
X0098370Y0073647D01*
X0099043Y0074320D02*
X0098146Y0075216D01*
X0098370Y0075440D02*
X0097474Y0074544D01*
X0097032Y0075434D02*
X0097480Y0075882D01*
X0097032Y0076331D01*
X0097032Y0077227D02*
X0096135Y0076331D01*
X0096135Y0075882D01*
X0096584Y0075434D01*
X0097032Y0075434D01*
X0097928Y0076331D02*
X0097928Y0076779D01*
X0097480Y0077227D01*
X0097032Y0077227D01*
X0096590Y0078117D02*
X0095693Y0079014D01*
X0094349Y0077669D01*
X0095245Y0076773D01*
X0095469Y0077893D02*
X0095021Y0078341D01*
X0093683Y0078335D02*
X0095027Y0079680D01*
X0094131Y0079680D01*
X0094131Y0080576D01*
X0092786Y0079232D01*
X0091672Y0080346D02*
X0093016Y0081691D01*
X0092568Y0082139D02*
X0093465Y0081243D01*
X0091454Y0082357D02*
X0091454Y0083253D01*
X0090557Y0083253D01*
X0089661Y0082357D01*
X0090333Y0083029D02*
X0091230Y0082133D01*
X0091454Y0082357D02*
X0090557Y0081461D01*
X0098370Y0075440D02*
X0099267Y0075440D01*
X0099267Y0074544D01*
X0098018Y0060662D02*
X0098020Y0060686D01*
X0098026Y0060710D01*
X0098035Y0060732D01*
X0098048Y0060752D01*
X0098064Y0060770D01*
X0098083Y0060785D01*
X0098104Y0060798D01*
X0098126Y0060806D01*
X0098150Y0060811D01*
X0098174Y0060812D01*
X0098198Y0060809D01*
X0098221Y0060802D01*
X0098243Y0060792D01*
X0098263Y0060778D01*
X0098280Y0060761D01*
X0098295Y0060742D01*
X0098306Y0060721D01*
X0098314Y0060698D01*
X0098318Y0060674D01*
X0098318Y0060650D01*
X0098314Y0060626D01*
X0098306Y0060603D01*
X0098295Y0060582D01*
X0098280Y0060563D01*
X0098263Y0060546D01*
X0098243Y0060532D01*
X0098221Y0060522D01*
X0098198Y0060515D01*
X0098174Y0060512D01*
X0098150Y0060513D01*
X0098126Y0060518D01*
X0098104Y0060526D01*
X0098083Y0060539D01*
X0098064Y0060554D01*
X0098048Y0060572D01*
X0098035Y0060592D01*
X0098026Y0060614D01*
X0098020Y0060638D01*
X0098018Y0060662D01*
X0097855Y0060662D02*
X0097857Y0060697D01*
X0097863Y0060732D01*
X0097873Y0060765D01*
X0097886Y0060798D01*
X0097903Y0060829D01*
X0097923Y0060857D01*
X0097947Y0060883D01*
X0097973Y0060907D01*
X0098001Y0060927D01*
X0098032Y0060944D01*
X0098065Y0060957D01*
X0098098Y0060967D01*
X0098133Y0060973D01*
X0098168Y0060975D01*
X0098203Y0060973D01*
X0098238Y0060967D01*
X0098271Y0060957D01*
X0098304Y0060944D01*
X0098335Y0060927D01*
X0098363Y0060907D01*
X0098389Y0060883D01*
X0098413Y0060857D01*
X0098433Y0060829D01*
X0098450Y0060798D01*
X0098463Y0060765D01*
X0098473Y0060732D01*
X0098479Y0060697D01*
X0098481Y0060662D01*
X0098479Y0060627D01*
X0098473Y0060592D01*
X0098463Y0060559D01*
X0098450Y0060526D01*
X0098433Y0060495D01*
X0098413Y0060467D01*
X0098389Y0060441D01*
X0098363Y0060417D01*
X0098335Y0060397D01*
X0098304Y0060380D01*
X0098271Y0060367D01*
X0098238Y0060357D01*
X0098203Y0060351D01*
X0098168Y0060349D01*
X0098133Y0060351D01*
X0098098Y0060357D01*
X0098065Y0060367D01*
X0098032Y0060380D01*
X0098001Y0060397D01*
X0097973Y0060417D01*
X0097947Y0060441D01*
X0097923Y0060467D01*
X0097903Y0060495D01*
X0097886Y0060526D01*
X0097873Y0060559D01*
X0097863Y0060592D01*
X0097857Y0060627D01*
X0097855Y0060662D01*
X0097543Y0060662D02*
X0097545Y0060712D01*
X0097551Y0060761D01*
X0097561Y0060810D01*
X0097574Y0060857D01*
X0097592Y0060904D01*
X0097613Y0060949D01*
X0097637Y0060992D01*
X0097665Y0061033D01*
X0097696Y0061072D01*
X0097730Y0061108D01*
X0097767Y0061142D01*
X0097807Y0061172D01*
X0097848Y0061199D01*
X0097892Y0061223D01*
X0097937Y0061243D01*
X0097984Y0061259D01*
X0098032Y0061272D01*
X0098081Y0061281D01*
X0098131Y0061286D01*
X0098180Y0061287D01*
X0098230Y0061284D01*
X0098279Y0061277D01*
X0098328Y0061266D01*
X0098375Y0061252D01*
X0098421Y0061233D01*
X0098466Y0061211D01*
X0098509Y0061186D01*
X0098549Y0061157D01*
X0098587Y0061125D01*
X0098623Y0061091D01*
X0098656Y0061053D01*
X0098685Y0061013D01*
X0098711Y0060971D01*
X0098734Y0060927D01*
X0098753Y0060881D01*
X0098769Y0060834D01*
X0098781Y0060785D01*
X0098789Y0060736D01*
X0098793Y0060687D01*
X0098793Y0060637D01*
X0098789Y0060588D01*
X0098781Y0060539D01*
X0098769Y0060490D01*
X0098753Y0060443D01*
X0098734Y0060397D01*
X0098711Y0060353D01*
X0098685Y0060311D01*
X0098656Y0060271D01*
X0098623Y0060233D01*
X0098587Y0060199D01*
X0098549Y0060167D01*
X0098509Y0060138D01*
X0098466Y0060113D01*
X0098421Y0060091D01*
X0098375Y0060072D01*
X0098328Y0060058D01*
X0098279Y0060047D01*
X0098230Y0060040D01*
X0098180Y0060037D01*
X0098131Y0060038D01*
X0098081Y0060043D01*
X0098032Y0060052D01*
X0097984Y0060065D01*
X0097937Y0060081D01*
X0097892Y0060101D01*
X0097848Y0060125D01*
X0097807Y0060152D01*
X0097767Y0060182D01*
X0097730Y0060216D01*
X0097696Y0060252D01*
X0097665Y0060291D01*
X0097637Y0060332D01*
X0097613Y0060375D01*
X0097592Y0060420D01*
X0097574Y0060467D01*
X0097561Y0060514D01*
X0097551Y0060563D01*
X0097545Y0060612D01*
X0097543Y0060662D01*
X0113982Y0049750D02*
X0114299Y0050067D01*
X0114933Y0050067D01*
X0115250Y0049750D01*
X0113982Y0048482D01*
X0114299Y0048165D01*
X0114933Y0048165D01*
X0115250Y0048482D01*
X0115250Y0049750D01*
X0113982Y0049750D02*
X0113982Y0048482D01*
X0116192Y0048482D02*
X0116192Y0048165D01*
X0116509Y0048165D01*
X0116509Y0048482D01*
X0116192Y0048482D01*
X0117297Y0048165D02*
X0118565Y0048165D01*
X0117931Y0048165D02*
X0117931Y0050067D01*
X0117297Y0049433D01*
X0119507Y0049433D02*
X0119507Y0048482D01*
X0119824Y0048165D01*
X0120775Y0048165D01*
X0120775Y0049433D01*
X0121717Y0049116D02*
X0122351Y0049116D01*
X0121717Y0050067D02*
X0122985Y0050067D01*
X0121717Y0050067D02*
X0121717Y0048165D01*
X0127693Y0045567D02*
X0127693Y0043665D01*
X0128961Y0043665D01*
X0129903Y0043665D02*
X0130537Y0043665D01*
X0130220Y0043665D02*
X0130220Y0045567D01*
X0129903Y0045567D02*
X0130537Y0045567D01*
X0131377Y0045250D02*
X0131377Y0044933D01*
X0131693Y0044616D01*
X0132327Y0044616D01*
X0132644Y0044299D01*
X0132644Y0043982D01*
X0132327Y0043665D01*
X0131693Y0043665D01*
X0131377Y0043982D01*
X0131377Y0045250D02*
X0131693Y0045567D01*
X0132327Y0045567D01*
X0132644Y0045250D01*
X0133586Y0045250D02*
X0133903Y0045567D01*
X0134537Y0045567D01*
X0134854Y0045250D01*
X0134854Y0044933D01*
X0134537Y0044616D01*
X0134854Y0044299D01*
X0134854Y0043982D01*
X0134537Y0043665D01*
X0133903Y0043665D01*
X0133586Y0043982D01*
X0134220Y0044616D02*
X0134537Y0044616D01*
X0135796Y0045567D02*
X0136747Y0045567D01*
X0137064Y0045250D01*
X0137064Y0043982D01*
X0136747Y0043665D01*
X0135796Y0043665D01*
X0135796Y0045567D01*
X0138006Y0045567D02*
X0138006Y0043665D01*
X0138006Y0044616D02*
X0139274Y0044616D01*
X0139274Y0045567D02*
X0139274Y0043665D01*
X0137985Y0030067D02*
X0136717Y0030067D01*
X0136717Y0028165D01*
X0135775Y0028165D02*
X0135775Y0029433D01*
X0136717Y0029116D02*
X0137351Y0029116D01*
X0135775Y0028165D02*
X0134824Y0028165D01*
X0134507Y0028482D01*
X0134507Y0029433D01*
X0133565Y0028165D02*
X0132297Y0028165D01*
X0132931Y0028165D02*
X0132931Y0030067D01*
X0132297Y0029433D01*
X0131509Y0028482D02*
X0131509Y0028165D01*
X0131192Y0028165D01*
X0131192Y0028482D01*
X0131509Y0028482D01*
X0130250Y0028482D02*
X0129933Y0028165D01*
X0129299Y0028165D01*
X0128982Y0028482D01*
X0130250Y0029750D01*
X0130250Y0028482D01*
X0128982Y0028482D02*
X0128982Y0029750D01*
X0129299Y0030067D01*
X0129933Y0030067D01*
X0130250Y0029750D01*
X0122985Y0030067D02*
X0121717Y0030067D01*
X0121717Y0028165D01*
X0120775Y0028165D02*
X0120775Y0029433D01*
X0121717Y0029116D02*
X0122351Y0029116D01*
X0120775Y0028165D02*
X0119824Y0028165D01*
X0119507Y0028482D01*
X0119507Y0029433D01*
X0118565Y0028165D02*
X0117297Y0028165D01*
X0117931Y0028165D02*
X0117931Y0030067D01*
X0117297Y0029433D01*
X0116509Y0028482D02*
X0116509Y0028165D01*
X0116192Y0028165D01*
X0116192Y0028482D01*
X0116509Y0028482D01*
X0115250Y0028482D02*
X0114933Y0028165D01*
X0114299Y0028165D01*
X0113982Y0028482D01*
X0115250Y0029750D01*
X0115250Y0028482D01*
X0113982Y0028482D02*
X0113982Y0029750D01*
X0114299Y0030067D01*
X0114933Y0030067D01*
X0115250Y0029750D01*
X0110898Y0013925D02*
X0109630Y0013925D01*
X0109630Y0012023D01*
X0108688Y0012023D02*
X0108688Y0013291D01*
X0109630Y0012974D02*
X0110264Y0012974D01*
X0108688Y0012023D02*
X0107737Y0012023D01*
X0107421Y0012340D01*
X0107421Y0013291D01*
X0106478Y0012023D02*
X0105211Y0012023D01*
X0105845Y0012023D02*
X0105845Y0013925D01*
X0105211Y0013291D01*
X0104423Y0012340D02*
X0104423Y0012023D01*
X0104106Y0012023D01*
X0104106Y0012340D01*
X0104423Y0012340D01*
X0103164Y0012340D02*
X0102847Y0012023D01*
X0102213Y0012023D01*
X0101896Y0012340D01*
X0103164Y0013608D01*
X0103164Y0012340D01*
X0103164Y0013608D02*
X0102847Y0013925D01*
X0102213Y0013925D01*
X0101896Y0013608D01*
X0101896Y0012340D01*
X0083028Y0025366D02*
X0082711Y0025049D01*
X0081443Y0026317D01*
X0082711Y0026317D01*
X0083028Y0026000D01*
X0083028Y0025366D01*
X0082711Y0025049D02*
X0081443Y0025049D01*
X0081126Y0025366D01*
X0081126Y0026000D01*
X0081443Y0026317D01*
X0082711Y0027259D02*
X0082711Y0027576D01*
X0083028Y0027576D01*
X0083028Y0027259D01*
X0082711Y0027259D01*
X0083028Y0028364D02*
X0083028Y0029632D01*
X0083028Y0028998D02*
X0081126Y0028998D01*
X0081760Y0028364D01*
X0081760Y0030574D02*
X0082711Y0030574D01*
X0083028Y0030891D01*
X0083028Y0031842D01*
X0081760Y0031842D01*
X0082077Y0032784D02*
X0082077Y0033418D01*
X0081126Y0032784D02*
X0081126Y0034052D01*
X0081126Y0032784D02*
X0083028Y0032784D01*
X0044807Y0053394D02*
X0029059Y0053394D01*
X0029059Y0100638D01*
X0032996Y0100638D01*
X0032996Y0104575D01*
X0040870Y0104575D01*
X0040870Y0100638D01*
X0044807Y0100638D01*
X0044807Y0053394D01*
X0040870Y0100638D02*
X0032996Y0100638D01*
X0086201Y0112552D02*
X0086835Y0113186D01*
X0086201Y0113819D01*
X0088103Y0113819D01*
X0087786Y0114762D02*
X0086518Y0114762D01*
X0086201Y0115078D01*
X0086201Y0115712D01*
X0086518Y0116029D01*
X0087786Y0116029D01*
X0088103Y0115712D01*
X0088103Y0115078D01*
X0087786Y0114762D01*
X0087786Y0116971D02*
X0088103Y0117288D01*
X0088103Y0117922D01*
X0087786Y0118239D01*
X0087469Y0118239D01*
X0087152Y0117922D01*
X0087152Y0117288D01*
X0086835Y0116971D01*
X0086518Y0116971D01*
X0086201Y0117288D01*
X0086201Y0117922D01*
X0086518Y0118239D01*
X0086201Y0119181D02*
X0086201Y0120449D01*
X0086201Y0121391D02*
X0088103Y0121391D01*
X0088103Y0122659D01*
X0087152Y0122025D02*
X0087152Y0121391D01*
X0086201Y0121391D02*
X0086201Y0122659D01*
X0086201Y0123601D02*
X0086201Y0124869D01*
X0086201Y0124235D02*
X0088103Y0124235D01*
X0087152Y0119815D02*
X0087152Y0119181D01*
X0088103Y0119181D02*
X0086201Y0119181D01*
X0086201Y0112552D02*
X0088103Y0112552D01*
X0105725Y0111919D02*
X0107626Y0111919D01*
X0107626Y0112861D02*
X0107626Y0114129D01*
X0108471Y0114750D02*
X0108788Y0115067D01*
X0109421Y0115067D01*
X0109738Y0114750D01*
X0108471Y0113482D01*
X0108788Y0113165D01*
X0109421Y0113165D01*
X0109738Y0113482D01*
X0109738Y0114750D01*
X0108471Y0114750D02*
X0108471Y0113482D01*
X0107626Y0112861D02*
X0106359Y0114129D01*
X0106359Y0112861D01*
X0106676Y0111919D02*
X0106676Y0110652D01*
X0107626Y0110652D02*
X0105725Y0110652D01*
X0105725Y0109709D02*
X0107626Y0109709D01*
X0107626Y0108442D02*
X0105725Y0108442D01*
X0106359Y0109076D01*
X0105725Y0109709D01*
X0106042Y0107500D02*
X0106359Y0107500D01*
X0106676Y0107183D01*
X0106676Y0106549D01*
X0106359Y0106232D01*
X0106042Y0106232D01*
X0105725Y0106549D01*
X0105725Y0107183D01*
X0106042Y0107500D01*
X0106676Y0107183D02*
X0106993Y0107500D01*
X0107309Y0107500D01*
X0107626Y0107183D01*
X0107626Y0106549D01*
X0107309Y0106232D01*
X0106993Y0106232D01*
X0106676Y0106549D01*
X0110681Y0113165D02*
X0110997Y0113165D01*
X0110997Y0113482D01*
X0110681Y0113482D01*
X0110681Y0113165D01*
X0111785Y0113165D02*
X0113053Y0113165D01*
X0112419Y0113165D02*
X0112419Y0115067D01*
X0111785Y0114433D01*
X0113995Y0114433D02*
X0113995Y0113482D01*
X0114312Y0113165D01*
X0115263Y0113165D01*
X0115263Y0114433D01*
X0116205Y0114116D02*
X0116839Y0114116D01*
X0116205Y0115067D02*
X0117473Y0115067D01*
X0116205Y0115067D02*
X0116205Y0113165D01*
X0125089Y0112882D02*
X0126040Y0112882D01*
X0126356Y0113198D01*
X0126356Y0113832D01*
X0126040Y0114149D01*
X0125089Y0114149D01*
X0125089Y0112248D01*
X0125723Y0112882D02*
X0126356Y0112248D01*
X0127299Y0112248D02*
X0128566Y0112248D01*
X0129508Y0112248D02*
X0129508Y0114149D01*
X0130459Y0114149D01*
X0130776Y0113832D01*
X0130776Y0112565D01*
X0130459Y0112248D01*
X0129508Y0112248D01*
X0127932Y0113198D02*
X0127299Y0113198D01*
X0127299Y0112248D02*
X0127299Y0114149D01*
X0128566Y0114149D01*
X0134404Y0115023D02*
X0134404Y0118773D01*
X0143217Y0108637D02*
X0143851Y0107686D01*
X0144485Y0108637D01*
X0144485Y0107686D02*
X0142583Y0107686D01*
X0142583Y0106110D02*
X0144485Y0106110D01*
X0144485Y0105476D02*
X0144485Y0106744D01*
X0143217Y0105476D02*
X0142583Y0106110D01*
X0159323Y0115789D02*
X0159570Y0115638D01*
X0159813Y0115482D01*
X0160053Y0115320D01*
X0160289Y0115153D01*
X0160522Y0114981D01*
X0160750Y0114803D01*
X0160974Y0114621D01*
X0161194Y0114433D01*
X0161410Y0114240D01*
X0161622Y0114043D01*
X0161828Y0113840D01*
X0161829Y0113841D02*
X0162386Y0113284D01*
X0161618Y0114024D02*
X0161618Y0108906D01*
X0158066Y0108829D02*
X0158052Y0108769D01*
X0158042Y0108707D01*
X0158035Y0108645D01*
X0158031Y0108582D01*
X0158031Y0108520D01*
X0158035Y0108457D01*
X0158042Y0108395D01*
X0158052Y0108333D01*
X0158066Y0108273D01*
X0158067Y0108273D02*
X0158082Y0108220D01*
X0158102Y0108169D01*
X0158125Y0108119D01*
X0158151Y0108071D01*
X0158181Y0108024D01*
X0158214Y0107980D01*
X0158250Y0107939D01*
X0158289Y0107900D01*
X0158330Y0107864D01*
X0158374Y0107831D01*
X0158421Y0107801D01*
X0158469Y0107775D01*
X0158519Y0107752D01*
X0158570Y0107732D01*
X0158623Y0107717D01*
X0164891Y0109665D02*
X0164945Y0109529D01*
X0164997Y0109391D01*
X0165045Y0109252D01*
X0165089Y0109112D01*
X0165131Y0108972D01*
X0165169Y0108830D01*
X0165169Y0108273D02*
X0165154Y0108220D01*
X0165134Y0108169D01*
X0165111Y0108119D01*
X0165085Y0108071D01*
X0165055Y0108024D01*
X0165022Y0107980D01*
X0164986Y0107939D01*
X0164947Y0107900D01*
X0164906Y0107864D01*
X0164862Y0107831D01*
X0164815Y0107801D01*
X0164767Y0107775D01*
X0164717Y0107752D01*
X0164666Y0107732D01*
X0164613Y0107717D01*
X0158345Y0109665D02*
X0158291Y0109529D01*
X0158239Y0109391D01*
X0158191Y0109252D01*
X0158147Y0109112D01*
X0158105Y0108972D01*
X0158067Y0108830D01*
X0158624Y0107715D02*
X0158684Y0107701D01*
X0158746Y0107691D01*
X0158808Y0107684D01*
X0158871Y0107680D01*
X0158933Y0107680D01*
X0158996Y0107684D01*
X0159058Y0107691D01*
X0159120Y0107701D01*
X0159180Y0107715D01*
X0164335Y0110778D02*
X0164439Y0110599D01*
X0164538Y0110416D01*
X0164633Y0110232D01*
X0164724Y0110045D01*
X0164810Y0109856D01*
X0164892Y0109665D01*
X0164612Y0107715D02*
X0164552Y0107701D01*
X0164490Y0107691D01*
X0164428Y0107684D01*
X0164365Y0107680D01*
X0164303Y0107680D01*
X0164240Y0107684D01*
X0164178Y0107691D01*
X0164116Y0107701D01*
X0164056Y0107715D01*
X0165170Y0108273D02*
X0165184Y0108333D01*
X0165194Y0108395D01*
X0165201Y0108457D01*
X0165205Y0108520D01*
X0165205Y0108582D01*
X0165201Y0108645D01*
X0165194Y0108707D01*
X0165184Y0108769D01*
X0165170Y0108829D01*
X0165026Y0116346D02*
X0165162Y0116400D01*
X0165300Y0116452D01*
X0165439Y0116500D01*
X0165579Y0116544D01*
X0165719Y0116586D01*
X0165861Y0116624D01*
X0166418Y0116624D02*
X0166471Y0116609D01*
X0166522Y0116589D01*
X0166572Y0116566D01*
X0166620Y0116540D01*
X0166667Y0116510D01*
X0166711Y0116477D01*
X0166752Y0116441D01*
X0166791Y0116402D01*
X0166827Y0116361D01*
X0166860Y0116317D01*
X0166890Y0116270D01*
X0166916Y0116222D01*
X0166939Y0116172D01*
X0166959Y0116121D01*
X0166974Y0116068D01*
X0166418Y0116625D02*
X0166358Y0116639D01*
X0166296Y0116649D01*
X0166234Y0116656D01*
X0166171Y0116660D01*
X0166109Y0116660D01*
X0166046Y0116656D01*
X0165984Y0116649D01*
X0165922Y0116639D01*
X0165862Y0116625D01*
X0166976Y0116067D02*
X0166990Y0116007D01*
X0167000Y0115945D01*
X0167007Y0115883D01*
X0167011Y0115820D01*
X0167011Y0115758D01*
X0167007Y0115695D01*
X0167000Y0115633D01*
X0166990Y0115571D01*
X0166976Y0115511D01*
X0164056Y0107716D02*
X0163914Y0107754D01*
X0163774Y0107796D01*
X0163634Y0107840D01*
X0163495Y0107888D01*
X0163357Y0107940D01*
X0163221Y0107994D01*
X0158902Y0110778D02*
X0158798Y0110599D01*
X0158699Y0110416D01*
X0158604Y0110232D01*
X0158513Y0110045D01*
X0158427Y0109856D01*
X0158345Y0109665D01*
X0158210Y0116347D02*
X0158074Y0116401D01*
X0157936Y0116453D01*
X0157797Y0116501D01*
X0157657Y0116545D01*
X0157517Y0116587D01*
X0157375Y0116625D01*
X0156818Y0116624D02*
X0156765Y0116609D01*
X0156714Y0116589D01*
X0156664Y0116566D01*
X0156616Y0116540D01*
X0156569Y0116510D01*
X0156525Y0116477D01*
X0156484Y0116441D01*
X0156445Y0116402D01*
X0156409Y0116361D01*
X0156376Y0116317D01*
X0156346Y0116270D01*
X0156320Y0116222D01*
X0156297Y0116172D01*
X0156277Y0116121D01*
X0156262Y0116068D01*
X0156818Y0116625D02*
X0156878Y0116639D01*
X0156940Y0116649D01*
X0157002Y0116656D01*
X0157065Y0116660D01*
X0157127Y0116660D01*
X0157190Y0116656D01*
X0157252Y0116649D01*
X0157314Y0116639D01*
X0157374Y0116625D01*
X0156260Y0116067D02*
X0156246Y0116007D01*
X0156236Y0115945D01*
X0156229Y0115883D01*
X0156225Y0115820D01*
X0156225Y0115758D01*
X0156229Y0115695D01*
X0156236Y0115633D01*
X0156246Y0115571D01*
X0156260Y0115511D01*
X0159180Y0107717D02*
X0159322Y0107755D01*
X0159462Y0107797D01*
X0159602Y0107841D01*
X0159741Y0107889D01*
X0159879Y0107941D01*
X0160015Y0107995D01*
X0159323Y0115790D02*
X0159144Y0115894D01*
X0158961Y0115993D01*
X0158777Y0116088D01*
X0158590Y0116179D01*
X0158401Y0116265D01*
X0158210Y0116347D01*
X0166140Y0113563D02*
X0166244Y0113742D01*
X0166343Y0113925D01*
X0166438Y0114109D01*
X0166529Y0114296D01*
X0166615Y0114485D01*
X0166697Y0114676D01*
X0157096Y0113563D02*
X0156992Y0113742D01*
X0156893Y0113925D01*
X0156798Y0114109D01*
X0156707Y0114296D01*
X0156621Y0114485D01*
X0156539Y0114676D01*
X0160850Y0113284D02*
X0161407Y0113841D01*
X0166697Y0114676D02*
X0166751Y0114812D01*
X0166803Y0114950D01*
X0166851Y0115089D01*
X0166895Y0115229D01*
X0166937Y0115369D01*
X0166975Y0115511D01*
X0163221Y0107994D02*
X0162960Y0108137D01*
X0162703Y0108286D01*
X0162450Y0108442D01*
X0162200Y0108603D01*
X0161955Y0108771D01*
X0161713Y0108945D01*
X0163913Y0115790D02*
X0164092Y0115894D01*
X0164275Y0115993D01*
X0164459Y0116088D01*
X0164646Y0116179D01*
X0164835Y0116265D01*
X0165026Y0116347D01*
X0156540Y0114676D02*
X0156486Y0114812D01*
X0156434Y0114950D01*
X0156386Y0115089D01*
X0156342Y0115229D01*
X0156300Y0115369D01*
X0156262Y0115511D01*
X0160015Y0107995D02*
X0160275Y0108138D01*
X0160532Y0108287D01*
X0160786Y0108443D01*
X0161035Y0108604D01*
X0161281Y0108772D01*
X0161522Y0108945D01*
X0164335Y0110779D02*
X0164184Y0111025D01*
X0164028Y0111269D01*
X0163866Y0111509D01*
X0163699Y0111745D01*
X0163527Y0111977D01*
X0163349Y0112206D01*
X0163166Y0112430D01*
X0162979Y0112650D01*
X0162786Y0112866D01*
X0162588Y0113077D01*
X0162386Y0113284D01*
X0159045Y0111057D02*
X0158843Y0111264D01*
X0158645Y0111475D01*
X0158452Y0111691D01*
X0158265Y0111911D01*
X0158082Y0112135D01*
X0157904Y0112364D01*
X0157732Y0112596D01*
X0157565Y0112832D01*
X0157403Y0113072D01*
X0157247Y0113316D01*
X0157096Y0113562D01*
X0164191Y0111058D02*
X0164394Y0111264D01*
X0164591Y0111476D01*
X0164784Y0111692D01*
X0164972Y0111912D01*
X0165154Y0112136D01*
X0165332Y0112364D01*
X0165504Y0112597D01*
X0165671Y0112833D01*
X0165833Y0113073D01*
X0165989Y0113316D01*
X0166140Y0113563D01*
X0163912Y0115790D02*
X0163666Y0115639D01*
X0163422Y0115483D01*
X0163182Y0115321D01*
X0162946Y0115154D01*
X0162714Y0114982D01*
X0162485Y0114804D01*
X0162261Y0114621D01*
X0162041Y0114434D01*
X0161825Y0114241D01*
X0161614Y0114043D01*
X0161407Y0113841D01*
X0160851Y0113283D02*
X0160648Y0113077D01*
X0160451Y0112865D01*
X0160258Y0112649D01*
X0160070Y0112429D01*
X0159888Y0112205D01*
X0159710Y0111977D01*
X0159538Y0111744D01*
X0159371Y0111508D01*
X0159209Y0111268D01*
X0159053Y0111025D01*
X0158902Y0110778D01*
X0156407Y0125047D02*
X0156409Y0125106D01*
X0156415Y0125164D01*
X0156425Y0125222D01*
X0156438Y0125279D01*
X0156456Y0125336D01*
X0156477Y0125391D01*
X0156502Y0125444D01*
X0156530Y0125495D01*
X0156561Y0125545D01*
X0156596Y0125592D01*
X0156634Y0125637D01*
X0156675Y0125680D01*
X0156719Y0125719D01*
X0156765Y0125755D01*
X0156813Y0125789D01*
X0156864Y0125819D01*
X0156917Y0125845D01*
X0156971Y0125868D01*
X0157026Y0125887D01*
X0157083Y0125903D01*
X0157141Y0125915D01*
X0157199Y0125923D01*
X0157258Y0125927D01*
X0157316Y0125927D01*
X0157375Y0125923D01*
X0157433Y0125915D01*
X0157491Y0125903D01*
X0157548Y0125887D01*
X0157603Y0125868D01*
X0157657Y0125845D01*
X0157710Y0125819D01*
X0157761Y0125789D01*
X0157809Y0125755D01*
X0157855Y0125719D01*
X0157899Y0125680D01*
X0157940Y0125637D01*
X0157978Y0125592D01*
X0158013Y0125545D01*
X0158044Y0125495D01*
X0158072Y0125444D01*
X0158097Y0125391D01*
X0158118Y0125336D01*
X0158136Y0125279D01*
X0158149Y0125222D01*
X0158159Y0125164D01*
X0158165Y0125106D01*
X0158167Y0125047D01*
X0158165Y0124988D01*
X0158159Y0124930D01*
X0158149Y0124872D01*
X0158136Y0124815D01*
X0158118Y0124758D01*
X0158097Y0124703D01*
X0158072Y0124650D01*
X0158044Y0124599D01*
X0158013Y0124549D01*
X0157978Y0124502D01*
X0157940Y0124457D01*
X0157899Y0124414D01*
X0157855Y0124375D01*
X0157809Y0124339D01*
X0157761Y0124305D01*
X0157710Y0124275D01*
X0157657Y0124249D01*
X0157603Y0124226D01*
X0157548Y0124207D01*
X0157491Y0124191D01*
X0157433Y0124179D01*
X0157375Y0124171D01*
X0157316Y0124167D01*
X0157258Y0124167D01*
X0157199Y0124171D01*
X0157141Y0124179D01*
X0157083Y0124191D01*
X0157026Y0124207D01*
X0156971Y0124226D01*
X0156917Y0124249D01*
X0156864Y0124275D01*
X0156813Y0124305D01*
X0156765Y0124339D01*
X0156719Y0124375D01*
X0156675Y0124414D01*
X0156634Y0124457D01*
X0156596Y0124502D01*
X0156561Y0124549D01*
X0156530Y0124599D01*
X0156502Y0124650D01*
X0156477Y0124703D01*
X0156456Y0124758D01*
X0156438Y0124815D01*
X0156425Y0124872D01*
X0156415Y0124930D01*
X0156409Y0124988D01*
X0156407Y0125047D01*
X0148232Y0130953D02*
X0199413Y0130953D01*
X0222366Y0148669D02*
X0268823Y0148669D01*
X0268823Y0014811D01*
X0222366Y0014811D01*
X0222366Y0148669D01*
X0248843Y0126965D02*
X0248843Y0125697D01*
X0250744Y0125697D01*
X0249794Y0125697D02*
X0249794Y0126331D01*
X0249794Y0124755D02*
X0249477Y0124438D01*
X0249477Y0123487D01*
X0251378Y0123487D01*
X0250744Y0123487D02*
X0250744Y0124438D01*
X0250428Y0124755D01*
X0249794Y0124755D01*
X0249160Y0122545D02*
X0250428Y0121278D01*
X0250744Y0121278D01*
X0250744Y0120490D02*
X0250744Y0120173D01*
X0250428Y0120173D01*
X0250428Y0120490D01*
X0250744Y0120490D01*
X0250428Y0119231D02*
X0250744Y0118914D01*
X0250744Y0118280D01*
X0250428Y0117963D01*
X0249160Y0119231D01*
X0250428Y0119231D01*
X0249697Y0118388D02*
X0249063Y0118388D01*
X0248746Y0118071D01*
X0248843Y0118280D02*
X0248843Y0118914D01*
X0249160Y0119231D01*
X0249697Y0118388D02*
X0250014Y0118071D01*
X0250014Y0117754D01*
X0248746Y0116486D01*
X0250014Y0116486D01*
X0250956Y0116486D02*
X0251273Y0116486D01*
X0251273Y0116803D01*
X0250956Y0116803D01*
X0250956Y0116486D01*
X0252061Y0116486D02*
X0253329Y0117754D01*
X0253329Y0118071D01*
X0253012Y0118388D01*
X0252378Y0118388D01*
X0252061Y0118071D01*
X0252061Y0116486D02*
X0253329Y0116486D01*
X0254271Y0116486D02*
X0255222Y0116486D01*
X0255539Y0116803D01*
X0255539Y0117437D01*
X0255222Y0117754D01*
X0254271Y0117754D01*
X0254271Y0115852D01*
X0256481Y0116486D02*
X0256481Y0118388D01*
X0257749Y0118388D01*
X0257115Y0117437D02*
X0256481Y0117437D01*
X0259079Y0118280D02*
X0259079Y0118914D01*
X0259396Y0119231D01*
X0260664Y0117963D01*
X0260981Y0118280D01*
X0260981Y0118914D01*
X0260664Y0119231D01*
X0259396Y0119231D01*
X0259079Y0118280D02*
X0259396Y0117963D01*
X0260664Y0117963D01*
X0260664Y0120173D02*
X0260664Y0120490D01*
X0260981Y0120490D01*
X0260981Y0120173D01*
X0260664Y0120173D01*
X0260664Y0121278D02*
X0260981Y0121595D01*
X0260981Y0122228D01*
X0260664Y0122545D01*
X0260347Y0122545D01*
X0260030Y0122228D01*
X0260030Y0121278D01*
X0260664Y0121278D01*
X0260030Y0121278D02*
X0259396Y0121911D01*
X0259079Y0122545D01*
X0259713Y0123487D02*
X0259713Y0124438D01*
X0260030Y0124755D01*
X0260664Y0124755D01*
X0260981Y0124438D01*
X0260981Y0123487D01*
X0261615Y0123487D02*
X0259713Y0123487D01*
X0260030Y0125697D02*
X0260030Y0126331D01*
X0260981Y0125697D02*
X0259079Y0125697D01*
X0259079Y0126965D01*
X0249160Y0122545D02*
X0248843Y0122545D01*
X0248843Y0121278D01*
X0248843Y0118280D02*
X0249160Y0117963D01*
X0250428Y0117963D01*
X0250744Y0111300D02*
X0248843Y0111300D01*
X0249477Y0110666D01*
X0248843Y0110032D01*
X0250744Y0110032D01*
X0250744Y0109090D02*
X0248843Y0109090D01*
X0249794Y0109090D02*
X0249794Y0107822D01*
X0250744Y0107822D02*
X0248843Y0107822D01*
X0249160Y0106880D02*
X0248843Y0106563D01*
X0248843Y0105929D01*
X0249160Y0105612D01*
X0250428Y0105612D01*
X0250744Y0105929D01*
X0250744Y0106563D01*
X0250428Y0106880D01*
X0249160Y0106880D01*
X0249160Y0102460D02*
X0250428Y0101192D01*
X0250744Y0101509D01*
X0250744Y0102143D01*
X0250428Y0102460D01*
X0249160Y0102460D01*
X0248843Y0102143D01*
X0248843Y0101509D01*
X0249160Y0101192D01*
X0250428Y0101192D01*
X0191939Y0057232D02*
X0191939Y0055330D01*
X0191939Y0055964D02*
X0192890Y0056598D01*
X0191939Y0055964D02*
X0192890Y0055330D01*
X0190997Y0055647D02*
X0190680Y0055330D01*
X0190046Y0055330D01*
X0189729Y0055647D01*
X0190997Y0056915D01*
X0190997Y0055647D01*
X0189729Y0055647D02*
X0189729Y0056915D01*
X0190046Y0057232D01*
X0190680Y0057232D01*
X0190997Y0056915D01*
X0188787Y0056915D02*
X0188470Y0057232D01*
X0187836Y0057232D01*
X0187520Y0056915D01*
X0187520Y0055647D01*
X0188787Y0056915D01*
X0188787Y0055647D01*
X0188470Y0055330D01*
X0187836Y0055330D01*
X0187520Y0055647D01*
X0186577Y0055330D02*
X0185310Y0055330D01*
X0185944Y0055330D02*
X0185944Y0057232D01*
X0185310Y0056598D01*
X0153653Y0029673D02*
X0152385Y0029673D01*
X0152385Y0027771D01*
X0151443Y0027771D02*
X0151443Y0028722D01*
X0151126Y0029039D01*
X0150175Y0029039D01*
X0150175Y0027771D01*
X0149233Y0028088D02*
X0148916Y0027771D01*
X0148282Y0027771D01*
X0147965Y0028088D01*
X0149233Y0029356D01*
X0149233Y0028088D01*
X0147965Y0028088D02*
X0147965Y0029356D01*
X0148282Y0029673D01*
X0148916Y0029673D01*
X0149233Y0029356D01*
X0147023Y0027771D02*
X0145755Y0027771D01*
X0146389Y0027771D02*
X0146389Y0029673D01*
X0145755Y0029039D01*
X0152385Y0028722D02*
X0153019Y0028722D01*
X0088103Y0128021D02*
X0086201Y0128021D01*
X0086201Y0128972D01*
X0086518Y0129289D01*
X0087152Y0129289D01*
X0087469Y0128972D01*
X0087469Y0128021D01*
X0087152Y0130231D02*
X0087152Y0131498D01*
X0087786Y0132441D02*
X0088103Y0132758D01*
X0088103Y0133391D01*
X0087786Y0133708D01*
X0088103Y0134650D02*
X0086201Y0134650D01*
X0087152Y0134650D02*
X0087152Y0135918D01*
X0086201Y0135918D02*
X0088103Y0135918D01*
X0086518Y0133708D02*
X0086201Y0133391D01*
X0086201Y0132758D01*
X0086518Y0132441D01*
X0087786Y0132441D01*
X0088955Y0132467D02*
X0090222Y0132467D01*
X0091165Y0132467D02*
X0092432Y0132467D01*
X0091798Y0132467D02*
X0091798Y0130565D01*
X0093374Y0130565D02*
X0093374Y0132467D01*
X0094325Y0132467D01*
X0094642Y0132150D01*
X0094642Y0130882D01*
X0094325Y0130565D01*
X0093374Y0130565D01*
X0095584Y0130565D02*
X0096218Y0130565D01*
X0095901Y0130565D02*
X0095901Y0132467D01*
X0095584Y0132467D02*
X0096218Y0132467D01*
X0099267Y0132467D02*
X0099267Y0130565D01*
X0100218Y0130565D01*
X0100535Y0130882D01*
X0100535Y0131199D01*
X0100218Y0131516D01*
X0099267Y0131516D01*
X0099267Y0132467D02*
X0100218Y0132467D01*
X0100535Y0132150D01*
X0100535Y0131833D01*
X0100218Y0131516D01*
X0100640Y0131882D02*
X0100957Y0131565D01*
X0101591Y0131565D01*
X0101908Y0131882D01*
X0101908Y0132199D01*
X0101591Y0132516D01*
X0101274Y0132516D01*
X0101591Y0132516D02*
X0101908Y0132833D01*
X0101908Y0133150D01*
X0101591Y0133467D01*
X0100957Y0133467D01*
X0100640Y0133150D01*
X0101794Y0131833D02*
X0102428Y0131833D01*
X0102745Y0131516D01*
X0102745Y0130565D01*
X0101794Y0130565D01*
X0101477Y0130882D01*
X0101794Y0131199D01*
X0102745Y0131199D01*
X0103167Y0131565D02*
X0102850Y0131882D01*
X0103167Y0131565D02*
X0103801Y0131565D01*
X0104118Y0131882D01*
X0104118Y0132199D01*
X0103801Y0132516D01*
X0103484Y0132516D01*
X0103801Y0132516D02*
X0104118Y0132833D01*
X0104118Y0133150D01*
X0103801Y0133467D01*
X0103167Y0133467D01*
X0102850Y0133150D01*
X0104004Y0131833D02*
X0103687Y0131516D01*
X0104004Y0131199D01*
X0104638Y0131199D01*
X0104955Y0130882D01*
X0104638Y0130565D01*
X0103687Y0130565D01*
X0104004Y0131833D02*
X0104955Y0131833D01*
X0105060Y0131882D02*
X0106327Y0133150D01*
X0106327Y0131882D01*
X0106010Y0131565D01*
X0105377Y0131565D01*
X0105060Y0131882D01*
X0105060Y0133150D01*
X0105377Y0133467D01*
X0106010Y0133467D01*
X0106327Y0133150D01*
X0106214Y0132784D02*
X0106214Y0132467D01*
X0106214Y0131833D02*
X0106214Y0130565D01*
X0105897Y0130565D02*
X0106531Y0130565D01*
X0107370Y0130882D02*
X0107370Y0131516D01*
X0107687Y0131833D01*
X0108638Y0131833D01*
X0108638Y0130565D02*
X0107687Y0130565D01*
X0107370Y0130882D01*
X0106214Y0131833D02*
X0105897Y0131833D01*
X0089589Y0131516D02*
X0088955Y0131516D01*
X0088955Y0130565D02*
X0088955Y0132467D01*
X0088103Y0139070D02*
X0086835Y0140338D01*
X0086518Y0140338D01*
X0086201Y0140021D01*
X0086201Y0139387D01*
X0086518Y0139070D01*
X0088103Y0139070D02*
X0088103Y0140338D01*
X0087786Y0141280D02*
X0086518Y0142548D01*
X0087786Y0142548D01*
X0088103Y0142231D01*
X0088103Y0141597D01*
X0087786Y0141280D01*
X0086518Y0141280D01*
X0086201Y0141597D01*
X0086201Y0142231D01*
X0086518Y0142548D01*
X0086201Y0143490D02*
X0087469Y0143490D01*
X0088103Y0144124D01*
X0087469Y0144758D01*
X0086201Y0144758D01*
X0086201Y0147910D02*
X0087152Y0147910D01*
X0086835Y0148544D01*
X0086835Y0148861D01*
X0087152Y0149177D01*
X0087786Y0149177D01*
X0088103Y0148861D01*
X0088103Y0148227D01*
X0087786Y0147910D01*
X0086201Y0147910D02*
X0086201Y0149177D01*
X0087786Y0150120D02*
X0087786Y0150437D01*
X0088103Y0150437D01*
X0088103Y0150120D01*
X0087786Y0150120D01*
X0087786Y0151225D02*
X0088103Y0151541D01*
X0088103Y0152175D01*
X0087786Y0152492D01*
X0087469Y0152492D01*
X0087152Y0152175D01*
X0087152Y0151858D01*
X0087152Y0152175D02*
X0086835Y0152492D01*
X0086518Y0152492D01*
X0086201Y0152175D01*
X0086201Y0151541D01*
X0086518Y0151225D01*
X0086835Y0153434D02*
X0086201Y0154068D01*
X0086835Y0154702D01*
X0088103Y0154702D01*
X0087152Y0154702D02*
X0087152Y0153434D01*
X0086835Y0153434D02*
X0088103Y0153434D01*
X0087786Y0157854D02*
X0088103Y0158171D01*
X0088103Y0158805D01*
X0087786Y0159122D01*
X0087469Y0159122D01*
X0087152Y0158805D01*
X0087152Y0158171D01*
X0086835Y0157854D01*
X0086518Y0157854D01*
X0086201Y0158171D01*
X0086201Y0158805D01*
X0086518Y0159122D01*
X0086518Y0160064D02*
X0087786Y0160064D01*
X0088103Y0160381D01*
X0088103Y0161015D01*
X0087786Y0161332D01*
X0086518Y0161332D01*
X0086201Y0161015D01*
X0086201Y0160381D01*
X0086518Y0160064D01*
X0086201Y0162274D02*
X0086201Y0163542D01*
X0086201Y0162908D02*
X0088103Y0162908D01*
X0087152Y0164484D02*
X0087152Y0165752D01*
X0086518Y0166694D02*
X0086201Y0167011D01*
X0086201Y0167645D01*
X0086518Y0167961D01*
X0086835Y0167961D01*
X0088103Y0166694D01*
X0088103Y0167961D01*
X0087786Y0168904D02*
X0088103Y0169221D01*
X0088103Y0169854D01*
X0087786Y0170171D01*
X0087469Y0170171D01*
X0087152Y0169854D01*
X0087152Y0169537D01*
X0087152Y0169854D02*
X0086835Y0170171D01*
X0086518Y0170171D01*
X0086201Y0169854D01*
X0086201Y0169221D01*
X0086518Y0168904D01*
X0130007Y0131533D02*
X0130641Y0132167D01*
X0130641Y0130266D01*
X0130007Y0130266D02*
X0131275Y0130266D01*
X0132217Y0130583D02*
X0133485Y0131850D01*
X0133485Y0130583D01*
X0133168Y0130266D01*
X0132534Y0130266D01*
X0132217Y0130583D01*
X0132217Y0131850D01*
X0132534Y0132167D01*
X0133168Y0132167D01*
X0133485Y0131850D01*
X0134427Y0131533D02*
X0134427Y0130583D01*
X0134744Y0130266D01*
X0135695Y0130266D01*
X0135695Y0131533D01*
X0136637Y0131217D02*
X0137271Y0131217D01*
X0136637Y0132167D02*
X0137905Y0132167D01*
X0136637Y0132167D02*
X0136637Y0130266D01*
D15*
X0136205Y0133315D02*
X0131205Y0133315D01*
X0128705Y0135815D01*
X0126205Y0133315D01*
X0121205Y0133315D01*
X0118705Y0135815D01*
X0116205Y0133315D01*
X0111205Y0133315D01*
X0108705Y0135815D01*
X0106205Y0133315D01*
X0101205Y0133315D01*
X0098705Y0135815D01*
X0096205Y0133315D01*
X0091205Y0133315D01*
X0093705Y0130815D01*
X0093705Y0125815D01*
X0091205Y0123315D01*
X0093705Y0120815D01*
X0093705Y0115815D01*
X0091205Y0113315D01*
X0093705Y0110815D01*
X0093705Y0105815D01*
X0091205Y0103315D01*
X0093705Y0100815D01*
X0093705Y0095815D01*
X0091205Y0093315D01*
X0093705Y0090815D01*
X0093705Y0085815D01*
X0091205Y0083315D01*
X0093705Y0080815D01*
X0093705Y0075815D01*
X0091205Y0073315D01*
X0093705Y0070815D01*
X0093705Y0065815D01*
X0091205Y0063315D01*
X0093705Y0060815D01*
X0093705Y0055815D01*
X0091205Y0053315D01*
X0093705Y0050815D01*
X0093705Y0045815D01*
X0091205Y0043315D01*
X0093705Y0040815D01*
X0093705Y0035815D01*
X0091205Y0033315D01*
X0093705Y0030815D01*
X0093705Y0025815D01*
X0091205Y0023315D01*
X0093705Y0020815D01*
X0093705Y0015815D01*
X0091205Y0013315D01*
X0086205Y0013315D01*
X0083705Y0015815D01*
X0083705Y0020815D01*
X0086205Y0023315D01*
X0083705Y0025815D01*
X0083705Y0030815D01*
X0086205Y0033315D01*
X0083705Y0035815D01*
X0083705Y0040815D01*
X0086205Y0043315D01*
X0083705Y0045815D01*
X0083705Y0050815D01*
X0086205Y0053315D01*
X0083705Y0055815D01*
X0083705Y0060815D01*
X0086205Y0063315D01*
X0083705Y0065815D01*
X0083705Y0070815D01*
X0086205Y0073315D01*
X0083705Y0075815D01*
X0083705Y0080815D01*
X0086205Y0083315D01*
X0083705Y0085815D01*
X0083705Y0090815D01*
X0086205Y0093315D01*
X0083705Y0095815D01*
X0083705Y0100815D01*
X0086205Y0103315D01*
X0083705Y0105815D01*
X0083705Y0110815D01*
X0086205Y0113315D01*
X0083705Y0115815D01*
X0083705Y0120815D01*
X0086205Y0123315D01*
X0083705Y0125815D01*
X0083705Y0130815D01*
X0086205Y0133315D01*
X0091205Y0133315D01*
X0088705Y0135815D01*
X0088705Y0140815D01*
X0091205Y0143315D01*
X0096205Y0143315D01*
X0098705Y0140815D01*
X0101205Y0143315D01*
X0106205Y0143315D01*
X0108705Y0140815D01*
X0111205Y0143315D01*
X0116205Y0143315D01*
X0118705Y0140815D01*
X0121205Y0143315D01*
X0126205Y0143315D01*
X0128705Y0140815D01*
X0131205Y0143315D01*
X0136205Y0143315D01*
X0138705Y0140815D01*
X0141205Y0143315D01*
X0146205Y0143315D01*
X0148705Y0140815D01*
X0148705Y0135815D01*
X0146205Y0133315D01*
X0141205Y0133315D01*
X0138705Y0135815D01*
X0136205Y0133315D01*
X0102995Y0117768D02*
X0097877Y0117768D01*
X0117716Y0106842D02*
X0119693Y0106842D01*
X0138220Y0088315D01*
X0118705Y0068800D01*
X0099190Y0088315D01*
X0117716Y0106842D01*
X0118175Y0108750D02*
X0118177Y0108799D01*
X0118183Y0108847D01*
X0118193Y0108895D01*
X0118207Y0108942D01*
X0118224Y0108988D01*
X0118245Y0109032D01*
X0118270Y0109074D01*
X0118298Y0109114D01*
X0118330Y0109152D01*
X0118364Y0109187D01*
X0118401Y0109219D01*
X0118440Y0109248D01*
X0118482Y0109274D01*
X0118526Y0109296D01*
X0118571Y0109314D01*
X0118618Y0109329D01*
X0118665Y0109340D01*
X0118714Y0109347D01*
X0118763Y0109350D01*
X0118812Y0109349D01*
X0118860Y0109344D01*
X0118909Y0109335D01*
X0118956Y0109322D01*
X0119002Y0109305D01*
X0119046Y0109285D01*
X0119089Y0109261D01*
X0119130Y0109234D01*
X0119168Y0109203D01*
X0119204Y0109170D01*
X0119236Y0109134D01*
X0119266Y0109095D01*
X0119293Y0109054D01*
X0119316Y0109010D01*
X0119335Y0108965D01*
X0119351Y0108919D01*
X0119363Y0108872D01*
X0119371Y0108823D01*
X0119375Y0108774D01*
X0119375Y0108726D01*
X0119371Y0108677D01*
X0119363Y0108628D01*
X0119351Y0108581D01*
X0119335Y0108535D01*
X0119316Y0108490D01*
X0119293Y0108446D01*
X0119266Y0108405D01*
X0119236Y0108366D01*
X0119204Y0108330D01*
X0119168Y0108297D01*
X0119130Y0108266D01*
X0119089Y0108239D01*
X0119046Y0108215D01*
X0119002Y0108195D01*
X0118956Y0108178D01*
X0118909Y0108165D01*
X0118860Y0108156D01*
X0118812Y0108151D01*
X0118763Y0108150D01*
X0118714Y0108153D01*
X0118665Y0108160D01*
X0118618Y0108171D01*
X0118571Y0108186D01*
X0118526Y0108204D01*
X0118482Y0108226D01*
X0118440Y0108252D01*
X0118401Y0108281D01*
X0118364Y0108313D01*
X0118330Y0108348D01*
X0118298Y0108386D01*
X0118270Y0108426D01*
X0118245Y0108468D01*
X0118224Y0108512D01*
X0118207Y0108558D01*
X0118193Y0108605D01*
X0118183Y0108653D01*
X0118177Y0108701D01*
X0118175Y0108750D01*
X0102995Y0103005D02*
X0097877Y0103005D01*
X0038935Y0134463D02*
X0032797Y0134463D01*
X0035866Y0131394D02*
X0035866Y0137532D01*
X0073941Y0141189D02*
X0073941Y0144339D01*
X0076303Y0144339D01*
X0082602Y0144339D02*
X0084965Y0144339D01*
X0084965Y0141189D01*
X0035866Y0063869D02*
X0035866Y0057731D01*
X0117366Y0019673D02*
X0117366Y0014673D01*
X0119866Y0012173D01*
X0124866Y0012173D01*
X0127366Y0014673D01*
X0129866Y0012173D01*
X0134866Y0012173D01*
X0137366Y0014673D01*
X0139866Y0012173D01*
X0144866Y0012173D01*
X0147366Y0014673D01*
X0147366Y0019673D01*
X0144866Y0022173D01*
X0139866Y0022173D01*
X0137366Y0019673D01*
X0134866Y0022173D01*
X0129866Y0022173D01*
X0127366Y0019673D01*
X0124866Y0022173D01*
X0119866Y0022173D01*
X0117366Y0019673D01*
X0149925Y0044732D02*
X0157799Y0044732D01*
X0157948Y0044745D01*
X0158097Y0044761D01*
X0158245Y0044781D01*
X0158392Y0044805D01*
X0158539Y0044833D01*
X0158685Y0044864D01*
X0158830Y0044900D01*
X0158975Y0044939D01*
X0159118Y0044983D01*
X0159260Y0045030D01*
X0159400Y0045080D01*
X0159539Y0045135D01*
X0159677Y0045193D01*
X0159813Y0045254D01*
X0159948Y0045320D01*
X0160081Y0045388D01*
X0160211Y0045460D01*
X0160340Y0045536D01*
X0160467Y0045615D01*
X0160592Y0045698D01*
X0160715Y0045783D01*
X0160835Y0045872D01*
X0160953Y0045964D01*
X0161068Y0046059D01*
X0161181Y0046157D01*
X0161291Y0046258D01*
X0161398Y0046362D01*
X0161503Y0046469D01*
X0161605Y0046578D01*
X0161704Y0046690D01*
X0161800Y0046805D01*
X0161893Y0046922D01*
X0161983Y0047041D01*
X0162069Y0047163D01*
X0162152Y0047287D01*
X0162233Y0047413D01*
X0162309Y0047542D01*
X0162382Y0047672D01*
X0162452Y0047804D01*
X0162519Y0047938D01*
X0162581Y0048074D01*
X0162640Y0048211D01*
X0162696Y0048350D01*
X0162748Y0048490D01*
X0162796Y0048632D01*
X0162840Y0048774D01*
X0162881Y0048918D01*
X0162917Y0049063D01*
X0162917Y0056150D02*
X0162881Y0056295D01*
X0162840Y0056438D01*
X0162796Y0056581D01*
X0162748Y0056723D01*
X0162696Y0056863D01*
X0162640Y0057002D01*
X0162581Y0057139D01*
X0162519Y0057275D01*
X0162452Y0057409D01*
X0162383Y0057541D01*
X0162309Y0057671D01*
X0162233Y0057800D01*
X0162153Y0057926D01*
X0162069Y0058050D01*
X0161983Y0058172D01*
X0161893Y0058291D01*
X0161800Y0058408D01*
X0161704Y0058523D01*
X0161605Y0058635D01*
X0161503Y0058744D01*
X0161399Y0058851D01*
X0161291Y0058955D01*
X0161181Y0059056D01*
X0161068Y0059154D01*
X0160953Y0059249D01*
X0160835Y0059341D01*
X0160715Y0059430D01*
X0160592Y0059516D01*
X0160467Y0059598D01*
X0160340Y0059677D01*
X0160211Y0059753D01*
X0160081Y0059825D01*
X0159948Y0059894D01*
X0159813Y0059959D01*
X0159677Y0060020D01*
X0159539Y0060078D01*
X0159400Y0060133D01*
X0159259Y0060183D01*
X0159118Y0060230D01*
X0158974Y0060274D01*
X0158830Y0060313D01*
X0158685Y0060349D01*
X0158539Y0060380D01*
X0158392Y0060408D01*
X0158245Y0060432D01*
X0158096Y0060452D01*
X0157948Y0060468D01*
X0157799Y0060481D01*
X0157799Y0060480D02*
X0149925Y0060480D01*
X0149925Y0060481D02*
X0149776Y0060468D01*
X0149627Y0060452D01*
X0149479Y0060432D01*
X0149332Y0060408D01*
X0149185Y0060380D01*
X0149039Y0060349D01*
X0148894Y0060313D01*
X0148749Y0060274D01*
X0148606Y0060230D01*
X0148464Y0060183D01*
X0148324Y0060133D01*
X0148185Y0060078D01*
X0148047Y0060020D01*
X0147911Y0059959D01*
X0147776Y0059893D01*
X0147643Y0059825D01*
X0147513Y0059753D01*
X0147384Y0059677D01*
X0147257Y0059598D01*
X0147132Y0059515D01*
X0147009Y0059430D01*
X0146889Y0059341D01*
X0146771Y0059249D01*
X0146656Y0059154D01*
X0146543Y0059056D01*
X0146433Y0058955D01*
X0146326Y0058851D01*
X0146221Y0058744D01*
X0146119Y0058635D01*
X0146020Y0058523D01*
X0145924Y0058408D01*
X0145831Y0058291D01*
X0145741Y0058172D01*
X0145655Y0058050D01*
X0145572Y0057926D01*
X0145491Y0057800D01*
X0145415Y0057671D01*
X0145342Y0057541D01*
X0145272Y0057409D01*
X0145205Y0057275D01*
X0145143Y0057139D01*
X0145084Y0057002D01*
X0145028Y0056863D01*
X0144976Y0056723D01*
X0144928Y0056581D01*
X0144884Y0056439D01*
X0144843Y0056295D01*
X0144807Y0056150D01*
X0140099Y0058706D02*
X0140099Y0059809D01*
X0138099Y0059809D01*
X0128302Y0060106D02*
X0126902Y0058706D01*
X0127299Y0047913D02*
X0127299Y0046809D01*
X0129299Y0046809D01*
X0138099Y0046809D02*
X0140099Y0046809D01*
X0140099Y0047913D01*
X0144807Y0049062D02*
X0144843Y0048917D01*
X0144884Y0048774D01*
X0144928Y0048631D01*
X0144976Y0048489D01*
X0145028Y0048349D01*
X0145084Y0048210D01*
X0145143Y0048073D01*
X0145205Y0047937D01*
X0145272Y0047803D01*
X0145341Y0047671D01*
X0145415Y0047541D01*
X0145491Y0047412D01*
X0145571Y0047286D01*
X0145655Y0047162D01*
X0145741Y0047040D01*
X0145831Y0046921D01*
X0145924Y0046804D01*
X0146020Y0046689D01*
X0146119Y0046577D01*
X0146221Y0046468D01*
X0146325Y0046361D01*
X0146433Y0046257D01*
X0146543Y0046156D01*
X0146656Y0046058D01*
X0146771Y0045963D01*
X0146889Y0045871D01*
X0147009Y0045782D01*
X0147132Y0045696D01*
X0147257Y0045614D01*
X0147384Y0045535D01*
X0147513Y0045459D01*
X0147643Y0045387D01*
X0147776Y0045318D01*
X0147911Y0045253D01*
X0148047Y0045192D01*
X0148185Y0045134D01*
X0148324Y0045079D01*
X0148465Y0045029D01*
X0148606Y0044982D01*
X0148750Y0044938D01*
X0148894Y0044899D01*
X0149039Y0044863D01*
X0149185Y0044832D01*
X0149332Y0044804D01*
X0149479Y0044780D01*
X0149628Y0044760D01*
X0149776Y0044744D01*
X0149925Y0044731D01*
D16*
X0126705Y0060315D03*
D17*
X0163902Y0024063D02*
X0175319Y0024063D01*
X0175319Y0018157D01*
X0163902Y0018157D01*
X0163902Y0024063D01*
D18*
X0162917Y0023638D02*
X0162261Y0024295D01*
X0159634Y0024295D01*
X0158977Y0023638D01*
X0158977Y0022324D01*
X0159634Y0021668D01*
X0160290Y0021668D01*
X0160947Y0022324D01*
X0160947Y0024295D01*
X0159634Y0025293D02*
X0158977Y0025949D01*
X0158977Y0027263D01*
X0159634Y0027920D01*
X0160290Y0027920D01*
X0162917Y0025293D01*
X0162917Y0027920D01*
X0160947Y0028918D02*
X0160947Y0031545D01*
X0160947Y0032543D02*
X0160947Y0034513D01*
X0161604Y0035170D01*
X0162261Y0035170D01*
X0162917Y0034513D01*
X0162917Y0033200D01*
X0162261Y0032543D01*
X0160947Y0032543D01*
X0159634Y0033856D01*
X0158977Y0035170D01*
X0160947Y0036168D02*
X0160947Y0038795D01*
X0158977Y0039793D02*
X0162917Y0039793D01*
X0161604Y0041107D01*
X0162917Y0042420D01*
X0158977Y0042420D01*
X0158977Y0043418D02*
X0158977Y0046045D01*
X0159634Y0046045D01*
X0162261Y0043418D01*
X0162917Y0043418D01*
X0162917Y0030888D02*
X0158977Y0030888D01*
X0160947Y0028918D01*
X0162917Y0023638D02*
X0162917Y0022324D01*
X0162261Y0021668D01*
X0162917Y0020669D02*
X0158977Y0020669D01*
X0160947Y0020669D02*
X0160947Y0018042D01*
X0160947Y0017044D02*
X0160947Y0014417D01*
X0160290Y0014417D02*
X0158977Y0015731D01*
X0160290Y0017044D01*
X0162917Y0017044D01*
X0162917Y0018042D02*
X0158977Y0018042D01*
X0160290Y0014417D02*
X0162917Y0014417D01*
D19*
X0165870Y0017173D03*
X0173350Y0017173D03*
X0169610Y0025047D03*
D20*
X0011943Y0026135D02*
X0007673Y0026135D01*
X0006606Y0027202D01*
X0006606Y0029337D01*
X0007673Y0030405D01*
X0006606Y0032580D02*
X0006606Y0035783D01*
X0007673Y0036850D01*
X0009808Y0036850D01*
X0010876Y0035783D01*
X0010876Y0032580D01*
X0013011Y0032580D02*
X0006606Y0032580D01*
X0010876Y0034715D02*
X0013011Y0036850D01*
X0013011Y0039026D02*
X0008741Y0043296D01*
X0007673Y0043296D01*
X0006606Y0042228D01*
X0006606Y0040093D01*
X0007673Y0039026D01*
X0013011Y0039026D02*
X0013011Y0043296D01*
X0009808Y0045471D02*
X0009808Y0049741D01*
X0009808Y0051917D02*
X0009808Y0055119D01*
X0010876Y0056187D01*
X0011943Y0056187D01*
X0013011Y0055119D01*
X0013011Y0051917D01*
X0006606Y0051917D01*
X0006606Y0055119D01*
X0007673Y0056187D01*
X0008741Y0056187D01*
X0009808Y0055119D01*
X0009808Y0058362D02*
X0009808Y0062632D01*
X0008741Y0062632D02*
X0013011Y0062632D01*
X0008741Y0062632D02*
X0006606Y0060497D01*
X0008741Y0058362D01*
X0013011Y0058362D01*
X0006606Y0064808D02*
X0006606Y0069078D01*
X0006606Y0071253D02*
X0006606Y0075523D01*
X0006606Y0073388D02*
X0013011Y0073388D01*
X0013011Y0077699D02*
X0006606Y0077699D01*
X0006606Y0081969D01*
X0006606Y0084144D02*
X0006606Y0087347D01*
X0007673Y0088414D01*
X0009808Y0088414D01*
X0010876Y0087347D01*
X0010876Y0084144D01*
X0013011Y0084144D02*
X0006606Y0084144D01*
X0010876Y0086279D02*
X0013011Y0088414D01*
X0013011Y0092725D02*
X0009808Y0092725D01*
X0007673Y0094860D01*
X0006606Y0094860D01*
X0009808Y0092725D02*
X0007673Y0090590D01*
X0006606Y0090590D01*
X0009808Y0097035D02*
X0009808Y0101305D01*
X0009808Y0103481D02*
X0009808Y0107751D01*
X0007673Y0109926D02*
X0011943Y0109926D01*
X0013011Y0110994D01*
X0013011Y0113129D01*
X0011943Y0114196D01*
X0007673Y0114196D01*
X0006606Y0113129D01*
X0006606Y0110994D01*
X0007673Y0109926D01*
X0006606Y0107751D02*
X0013011Y0107751D01*
X0013011Y0103481D02*
X0006606Y0103481D01*
X0006606Y0116372D02*
X0013011Y0116372D01*
X0013011Y0120642D01*
X0013011Y0122817D02*
X0006606Y0122817D01*
X0006606Y0126020D01*
X0007673Y0127087D01*
X0011943Y0127087D01*
X0013011Y0126020D01*
X0013011Y0122817D01*
X0013011Y0129263D02*
X0006606Y0129263D01*
X0006606Y0133533D01*
X0006606Y0135708D02*
X0006606Y0138911D01*
X0007673Y0139978D01*
X0009808Y0139978D01*
X0010876Y0138911D01*
X0010876Y0135708D01*
X0013011Y0135708D02*
X0006606Y0135708D01*
X0010876Y0137843D02*
X0013011Y0139978D01*
X0013011Y0142154D02*
X0006606Y0142154D01*
X0006606Y0145356D01*
X0007673Y0146424D01*
X0009808Y0146424D01*
X0010876Y0145356D01*
X0010876Y0142154D01*
X0006606Y0148599D02*
X0006606Y0152869D01*
X0006606Y0150734D02*
X0013011Y0150734D01*
X0013011Y0155045D02*
X0006606Y0155045D01*
X0009808Y0155045D02*
X0009808Y0159315D01*
X0006606Y0159315D02*
X0013011Y0159315D01*
X0013011Y0133533D02*
X0013011Y0129263D01*
X0009808Y0129263D02*
X0009808Y0131398D01*
X0013011Y0081969D02*
X0013011Y0077699D01*
X0009808Y0077699D02*
X0009808Y0079834D01*
X0013011Y0066943D02*
X0006606Y0066943D01*
X0011943Y0030405D02*
X0013011Y0029337D01*
X0013011Y0027202D01*
X0011943Y0026135D01*
D21*
X0099418Y0048162D02*
X0110668Y0048162D01*
X0110668Y0059412D01*
X0099418Y0059412D01*
X0099418Y0048162D01*
D22*
X0099728Y0038630D03*
M02*
