G75*
%MOIN*%
%OFA0B0*%
%FSLAX25Y25*%
%IPPOS*%
%LPD*%
%AMOC8*
5,1,8,0,0,1.08239X$1,22.5*
%
%ADD10R,0.04331X0.03937*%
%ADD11C,0.01181*%
%ADD12R,0.03937X0.04331*%
%ADD13R,0.05000X0.02200*%
%ADD14R,0.02200X0.05000*%
%ADD15R,0.02756X0.01102*%
%ADD16R,0.01102X0.02756*%
%ADD17C,0.01772*%
%ADD18R,0.07874X0.02756*%
%ADD19R,0.02756X0.07874*%
%ADD20R,0.03346X0.03543*%
%ADD21R,0.03543X0.03346*%
%ADD22R,0.03150X0.03937*%
%ADD23R,0.07677X0.03937*%
%ADD24R,0.09843X0.06299*%
%ADD25R,0.03150X0.03543*%
%ADD26R,0.01378X0.01969*%
%ADD27R,0.01772X0.01378*%
%ADD28R,0.01378X0.01772*%
D10*
X0103272Y0017173D03*
X0109965Y0017173D03*
X0115358Y0033315D03*
X0122051Y0033315D03*
X0130358Y0033315D03*
X0137051Y0033315D03*
X0146579Y0032921D03*
X0153272Y0032921D03*
X0122051Y0053315D03*
X0115358Y0053315D03*
X0185949Y0048669D03*
X0192642Y0048669D03*
X0192642Y0036858D03*
X0185949Y0036858D03*
X0185949Y0060480D03*
X0192642Y0060480D03*
X0116539Y0118315D03*
X0109846Y0118315D03*
X0107051Y0128315D03*
X0100358Y0128315D03*
X0130831Y0127016D03*
X0137524Y0127016D03*
D11*
X0130228Y0118276D02*
X0130228Y0115520D01*
X0130228Y0118276D02*
X0132984Y0118276D01*
X0132984Y0115520D01*
X0130228Y0115520D01*
X0130228Y0116700D02*
X0132984Y0116700D01*
X0132984Y0117880D02*
X0130228Y0117880D01*
X0123323Y0118276D02*
X0123323Y0115520D01*
X0123323Y0118276D02*
X0126079Y0118276D01*
X0126079Y0115520D01*
X0123323Y0115520D01*
X0123323Y0116700D02*
X0126079Y0116700D01*
X0126079Y0117880D02*
X0123323Y0117880D01*
D12*
X0077878Y0026425D03*
X0077878Y0033118D03*
X0177091Y0052803D03*
X0177091Y0059496D03*
X0188508Y0024457D03*
X0197563Y0024457D03*
X0197563Y0017764D03*
X0188508Y0017764D03*
X0139335Y0103906D03*
X0139335Y0110598D03*
D13*
G36*
X0115538Y0105515D02*
X0112004Y0109049D01*
X0113560Y0110605D01*
X0117094Y0107071D01*
X0115538Y0105515D01*
G37*
G36*
X0113311Y0103288D02*
X0109777Y0106822D01*
X0111333Y0108378D01*
X0114867Y0104844D01*
X0113311Y0103288D01*
G37*
G36*
X0111084Y0101061D02*
X0107550Y0104595D01*
X0109106Y0106151D01*
X0112640Y0102617D01*
X0111084Y0101061D01*
G37*
G36*
X0108857Y0098834D02*
X0105323Y0102368D01*
X0106879Y0103924D01*
X0110413Y0100390D01*
X0108857Y0098834D01*
G37*
G36*
X0106630Y0096607D02*
X0103096Y0100141D01*
X0104652Y0101697D01*
X0108186Y0098163D01*
X0106630Y0096607D01*
G37*
G36*
X0104403Y0094379D02*
X0100869Y0097913D01*
X0102425Y0099469D01*
X0105959Y0095935D01*
X0104403Y0094379D01*
G37*
G36*
X0102176Y0092152D02*
X0098642Y0095686D01*
X0100198Y0097242D01*
X0103732Y0093708D01*
X0102176Y0092152D01*
G37*
G36*
X0099949Y0089925D02*
X0096415Y0093459D01*
X0097971Y0095015D01*
X0101505Y0091481D01*
X0099949Y0089925D01*
G37*
G36*
X0128303Y0070479D02*
X0124769Y0074013D01*
X0126325Y0075569D01*
X0129859Y0072035D01*
X0128303Y0070479D01*
G37*
G36*
X0126076Y0068252D02*
X0122542Y0071786D01*
X0124098Y0073342D01*
X0127632Y0069808D01*
X0126076Y0068252D01*
G37*
G36*
X0123849Y0066025D02*
X0120315Y0069559D01*
X0121871Y0071115D01*
X0125405Y0067581D01*
X0123849Y0066025D01*
G37*
G36*
X0130530Y0072706D02*
X0126996Y0076240D01*
X0128552Y0077796D01*
X0132086Y0074262D01*
X0130530Y0072706D01*
G37*
G36*
X0132757Y0074933D02*
X0129223Y0078467D01*
X0130779Y0080023D01*
X0134313Y0076489D01*
X0132757Y0074933D01*
G37*
G36*
X0134984Y0077161D02*
X0131450Y0080695D01*
X0133006Y0082251D01*
X0136540Y0078717D01*
X0134984Y0077161D01*
G37*
G36*
X0137212Y0079388D02*
X0133678Y0082922D01*
X0135234Y0084478D01*
X0138768Y0080944D01*
X0137212Y0079388D01*
G37*
G36*
X0139439Y0081615D02*
X0135905Y0085149D01*
X0137461Y0086705D01*
X0140995Y0083171D01*
X0139439Y0081615D01*
G37*
D14*
G36*
X0137461Y0089925D02*
X0135905Y0091481D01*
X0139439Y0095015D01*
X0140995Y0093459D01*
X0137461Y0089925D01*
G37*
G36*
X0135234Y0092152D02*
X0133678Y0093708D01*
X0137212Y0097242D01*
X0138768Y0095686D01*
X0135234Y0092152D01*
G37*
G36*
X0133006Y0094379D02*
X0131450Y0095935D01*
X0134984Y0099469D01*
X0136540Y0097913D01*
X0133006Y0094379D01*
G37*
G36*
X0130779Y0096607D02*
X0129223Y0098163D01*
X0132757Y0101697D01*
X0134313Y0100141D01*
X0130779Y0096607D01*
G37*
G36*
X0128552Y0098834D02*
X0126996Y0100390D01*
X0130530Y0103924D01*
X0132086Y0102368D01*
X0128552Y0098834D01*
G37*
G36*
X0126325Y0101061D02*
X0124769Y0102617D01*
X0128303Y0106151D01*
X0129859Y0104595D01*
X0126325Y0101061D01*
G37*
G36*
X0124098Y0103288D02*
X0122542Y0104844D01*
X0126076Y0108378D01*
X0127632Y0106822D01*
X0124098Y0103288D01*
G37*
G36*
X0121871Y0105515D02*
X0120315Y0107071D01*
X0123849Y0110605D01*
X0125405Y0109049D01*
X0121871Y0105515D01*
G37*
G36*
X0097971Y0081615D02*
X0096415Y0083171D01*
X0099949Y0086705D01*
X0101505Y0085149D01*
X0097971Y0081615D01*
G37*
G36*
X0100198Y0079388D02*
X0098642Y0080944D01*
X0102176Y0084478D01*
X0103732Y0082922D01*
X0100198Y0079388D01*
G37*
G36*
X0102425Y0077161D02*
X0100869Y0078717D01*
X0104403Y0082251D01*
X0105959Y0080695D01*
X0102425Y0077161D01*
G37*
G36*
X0104652Y0074933D02*
X0103096Y0076489D01*
X0106630Y0080023D01*
X0108186Y0078467D01*
X0104652Y0074933D01*
G37*
G36*
X0106879Y0072706D02*
X0105323Y0074262D01*
X0108857Y0077796D01*
X0110413Y0076240D01*
X0106879Y0072706D01*
G37*
G36*
X0109106Y0070479D02*
X0107550Y0072035D01*
X0111084Y0075569D01*
X0112640Y0074013D01*
X0109106Y0070479D01*
G37*
G36*
X0111333Y0068252D02*
X0109777Y0069808D01*
X0113311Y0073342D01*
X0114867Y0071786D01*
X0111333Y0068252D01*
G37*
G36*
X0113560Y0066025D02*
X0112004Y0067581D01*
X0115538Y0071115D01*
X0117094Y0069559D01*
X0113560Y0066025D01*
G37*
D15*
X0128193Y0057252D03*
X0128193Y0055283D03*
X0128193Y0053315D03*
X0128193Y0051346D03*
X0128193Y0049378D03*
X0139217Y0049378D03*
X0139217Y0051346D03*
X0139217Y0053315D03*
X0139217Y0055283D03*
X0139217Y0057252D03*
D16*
X0135673Y0058827D03*
X0133705Y0058827D03*
X0131736Y0058827D03*
X0131736Y0047803D03*
X0133705Y0047803D03*
X0135673Y0047803D03*
D17*
X0103340Y0105677D02*
X0097612Y0105677D01*
X0097612Y0110402D02*
X0103340Y0110402D01*
X0103340Y0115126D02*
X0097612Y0115126D01*
D18*
X0148232Y0116386D03*
X0148232Y0120717D03*
X0148232Y0125047D03*
X0148232Y0112055D03*
X0148232Y0107724D03*
X0148232Y0103394D03*
X0148232Y0099063D03*
X0148232Y0094732D03*
X0148232Y0090402D03*
X0148232Y0086071D03*
X0148232Y0081740D03*
X0148232Y0077409D03*
X0199413Y0077409D03*
X0199413Y0081740D03*
X0199413Y0086071D03*
X0199413Y0090402D03*
X0199413Y0094732D03*
X0199413Y0099063D03*
X0199413Y0103394D03*
X0199413Y0107724D03*
X0199413Y0112055D03*
X0199413Y0116386D03*
X0199413Y0120717D03*
X0199413Y0125047D03*
D19*
X0186815Y0071504D03*
X0182484Y0071504D03*
X0178154Y0071504D03*
X0173823Y0071504D03*
X0169492Y0071504D03*
X0165161Y0071504D03*
X0160831Y0071504D03*
D20*
X0251185Y0113236D03*
X0255752Y0113236D03*
D21*
X0255831Y0120402D03*
X0255831Y0124969D03*
X0245594Y0124969D03*
X0245594Y0120402D03*
X0245594Y0107646D03*
X0245594Y0103079D03*
D22*
X0169610Y0025835D03*
X0165870Y0016386D03*
X0173350Y0016386D03*
D23*
X0226697Y0027409D03*
X0265280Y0027409D03*
X0265280Y0093551D03*
X0226697Y0119929D03*
D24*
X0265280Y0119929D03*
X0265280Y0140008D03*
D25*
X0083193Y0137646D03*
X0075713Y0137646D03*
X0079453Y0145913D03*
D26*
X0101205Y0057823D03*
X0103764Y0057823D03*
X0106323Y0057823D03*
X0108882Y0057823D03*
X0108882Y0049752D03*
X0106323Y0049752D03*
X0103764Y0049752D03*
X0101205Y0049752D03*
D27*
X0101657Y0038630D03*
X0101657Y0036661D03*
X0101657Y0034693D03*
X0101657Y0032724D03*
X0107642Y0032724D03*
X0107642Y0034693D03*
X0107642Y0036661D03*
X0107642Y0038630D03*
D28*
X0105634Y0038669D03*
X0103665Y0038669D03*
X0103665Y0032685D03*
X0105634Y0032685D03*
M02*
