G75*
%MOIN*%
%OFA0B0*%
%FSLAX25Y25*%
%IPPOS*%
%LPD*%
%AMOC8*
5,1,8,0,0,1.08239X$1,22.5*
%
%ADD10C,0.07400*%
%ADD11C,0.06600*%
%ADD12C,0.08600*%
%ADD13C,0.02362*%
%ADD14C,0.00600*%
%ADD15C,0.01000*%
%ADD16C,0.01772*%
D10*
X0088705Y0018315D03*
X0088705Y0028315D03*
X0088705Y0038315D03*
X0088705Y0048315D03*
X0088705Y0058315D03*
X0088705Y0068315D03*
X0088705Y0078315D03*
X0088705Y0088315D03*
X0088705Y0098315D03*
X0088705Y0108315D03*
X0088705Y0118315D03*
X0088705Y0128315D03*
X0093705Y0138315D03*
X0103705Y0138315D03*
X0113705Y0138315D03*
X0123705Y0138315D03*
X0133705Y0138315D03*
X0143705Y0138315D03*
X0142366Y0017173D03*
X0132366Y0017173D03*
X0122366Y0017173D03*
D11*
X0145988Y0052606D03*
X0161736Y0052606D03*
D12*
X0036933Y0013768D03*
X0036933Y0140264D03*
D13*
X0095201Y0117567D03*
X0099531Y0120323D03*
X0105437Y0119929D03*
X0107799Y0123866D03*
X0095594Y0127803D03*
X0117248Y0131346D03*
X0140083Y0118354D03*
X0132602Y0108906D03*
X0132996Y0104969D03*
X0121579Y0100244D03*
X0119217Y0097882D03*
X0117642Y0101031D03*
X0123941Y0095126D03*
X0127878Y0090795D03*
X0124728Y0088039D03*
X0124728Y0082921D03*
X0120004Y0082921D03*
X0115160Y0087113D03*
X0114492Y0091583D03*
X0111736Y0093945D03*
X0099531Y0100638D03*
X0107012Y0112055D03*
X0111343Y0112055D03*
X0117248Y0112055D03*
X0124335Y0112843D03*
X0158587Y0115205D03*
X0158587Y0108906D03*
X0165280Y0098669D03*
X0169610Y0084890D03*
X0158587Y0080559D03*
X0137720Y0076228D03*
X0131815Y0084890D03*
X0133390Y0089614D03*
X0118429Y0078197D03*
X0122760Y0077016D03*
X0118035Y0073472D03*
X0129453Y0067567D03*
X0135752Y0064417D03*
X0127091Y0062055D03*
X0119217Y0062055D03*
X0112917Y0060480D03*
X0108980Y0062420D03*
X0104256Y0070323D03*
X0095599Y0080953D03*
X0107799Y0085283D03*
X0082209Y0082921D03*
X0081815Y0093157D03*
X0119217Y0047882D03*
X0118823Y0043945D03*
X0123547Y0044339D03*
X0125516Y0041189D03*
X0129453Y0040795D03*
X0137720Y0038039D03*
X0146382Y0042370D03*
X0146382Y0026622D03*
X0157012Y0026622D03*
X0161736Y0027409D03*
X0159374Y0016386D03*
X0154650Y0012843D03*
X0152287Y0017173D03*
X0134177Y0027409D03*
X0120004Y0038433D03*
X0112917Y0037252D03*
X0110555Y0039614D03*
X0112917Y0043945D03*
X0108193Y0045126D03*
X0102287Y0045520D03*
X0098801Y0035620D03*
X0096062Y0032882D03*
X0107799Y0025047D03*
X0102287Y0023472D03*
X0097563Y0019535D03*
X0097169Y0015598D03*
X0097169Y0008906D03*
X0113311Y0022291D03*
X0110555Y0034102D03*
X0078272Y0039614D03*
X0177091Y0042764D03*
X0180240Y0046307D03*
X0199138Y0054969D03*
X0196776Y0064417D03*
X0202681Y0065205D03*
X0202681Y0040402D03*
D14*
X0202681Y0043157D01*
X0195004Y0050835D01*
X0199138Y0054969D01*
X0195004Y0050835D02*
X0186933Y0042764D01*
X0177091Y0042764D01*
X0176273Y0044737D02*
X0178670Y0044737D01*
X0180240Y0046307D01*
X0176273Y0044737D02*
X0175117Y0043581D01*
X0175117Y0035625D01*
X0170932Y0031440D01*
X0169704Y0031440D01*
X0150945Y0012681D01*
X0130505Y0012681D01*
X0126013Y0017173D01*
X0122366Y0017173D01*
X0113311Y0022291D02*
X0103469Y0022291D01*
X0102287Y0023472D01*
X0099925Y0027409D02*
X0134177Y0027409D01*
X0132961Y0028984D02*
X0102287Y0028984D01*
X0098801Y0032471D01*
X0098801Y0035620D01*
X0096062Y0032882D02*
X0095629Y0033315D01*
X0083783Y0033315D01*
X0082209Y0034890D01*
X0082209Y0040008D01*
X0078665Y0040008D01*
X0078272Y0039614D01*
X0088705Y0038315D02*
X0092361Y0041972D01*
X0119640Y0041972D01*
X0120796Y0043128D01*
X0120796Y0043556D01*
X0121579Y0044339D01*
X0121220Y0044339D01*
X0121579Y0044339D02*
X0123547Y0044339D01*
X0125516Y0042729D02*
X0126702Y0043915D01*
X0126702Y0045550D01*
X0125516Y0046735D01*
X0125516Y0059693D01*
X0122760Y0062449D01*
X0122760Y0064024D01*
X0121968Y0064816D01*
X0116431Y0064816D01*
X0116032Y0064417D01*
X0111736Y0064417D01*
X0105831Y0070323D01*
X0104256Y0070323D01*
X0105039Y0072296D02*
X0101106Y0076228D01*
X0096618Y0076228D01*
X0088705Y0068315D01*
X0102287Y0062449D02*
X0102287Y0045520D01*
X0106807Y0043064D02*
X0094998Y0043064D01*
X0089138Y0047882D01*
X0088705Y0048315D01*
X0106807Y0043064D02*
X0110555Y0043157D01*
X0110944Y0043370D01*
X0110944Y0044762D01*
X0112100Y0045918D01*
X0113735Y0045918D01*
X0114399Y0045254D01*
X0119217Y0047882D01*
X0119217Y0059693D01*
X0119217Y0057724D01*
X0119217Y0059693D02*
X0119217Y0062055D01*
X0112917Y0060480D02*
X0108193Y0045126D01*
X0112917Y0043945D02*
X0118823Y0043945D01*
X0125516Y0042729D02*
X0125516Y0041189D01*
X0128803Y0037902D01*
X0130895Y0037902D01*
X0131032Y0038039D01*
X0137720Y0038039D01*
X0129453Y0040795D02*
X0129453Y0067567D01*
X0135752Y0064417D02*
X0196776Y0064417D01*
X0202681Y0065205D02*
X0176697Y0091189D01*
X0176697Y0118354D01*
X0140083Y0118354D01*
X0136111Y0115205D02*
X0130629Y0109723D01*
X0130629Y0108088D01*
X0132996Y0105721D01*
X0132996Y0104969D01*
X0132209Y0104969D01*
X0124335Y0112843D01*
X0117248Y0112055D02*
X0117248Y0131346D01*
X0113705Y0138315D02*
X0113705Y0108512D01*
X0121579Y0100244D01*
X0119217Y0097882D02*
X0165280Y0098669D01*
X0154650Y0095126D02*
X0124728Y0095126D01*
X0124335Y0095520D01*
X0123941Y0095126D01*
X0127878Y0090795D02*
X0126702Y0083031D01*
X0126702Y0082104D01*
X0126536Y0081938D01*
X0125909Y0077803D01*
X0124733Y0077150D01*
X0124733Y0076198D01*
X0123577Y0075043D01*
X0121942Y0075043D01*
X0121585Y0075400D01*
X0118035Y0073472D01*
X0116032Y0072296D02*
X0105039Y0072296D01*
X0116032Y0072296D02*
X0125879Y0062449D01*
X0127091Y0062055D01*
X0108980Y0062420D02*
X0102316Y0062420D01*
X0102287Y0062449D01*
X0116873Y0082902D02*
X0122760Y0077016D01*
X0118429Y0078197D02*
X0088705Y0078315D01*
X0092420Y0080953D02*
X0095599Y0080953D01*
X0097612Y0082902D02*
X0092199Y0088315D01*
X0088705Y0088315D01*
X0081815Y0093157D02*
X0072760Y0084102D01*
X0072760Y0021110D01*
X0080047Y0013823D01*
X0090565Y0013823D01*
X0096278Y0019535D01*
X0097563Y0019535D01*
X0097169Y0015598D02*
X0097169Y0008906D01*
X0088705Y0018315D02*
X0099925Y0027409D01*
X0107799Y0025047D02*
X0131815Y0025047D01*
X0132366Y0017173D01*
X0142366Y0017173D02*
X0139689Y0028984D01*
X0135393Y0028984D01*
X0134995Y0029383D01*
X0133360Y0029383D01*
X0132961Y0028984D01*
X0146382Y0026622D02*
X0157012Y0026622D01*
X0161736Y0027409D02*
X0152287Y0017961D01*
X0152287Y0017173D01*
X0154650Y0012843D02*
X0155831Y0012843D01*
X0159374Y0016386D01*
X0146382Y0026622D02*
X0146382Y0042370D01*
X0120004Y0038433D02*
X0114098Y0038433D01*
X0112917Y0037252D01*
X0110555Y0039614D02*
X0110555Y0034102D01*
X0137720Y0076228D02*
X0142051Y0080559D01*
X0158587Y0080559D01*
X0164886Y0084890D02*
X0154650Y0095126D01*
X0164886Y0084890D02*
X0169610Y0084890D01*
X0133390Y0089614D02*
X0131815Y0084890D01*
X0124728Y0082921D02*
X0114492Y0091583D01*
X0111736Y0093945D02*
X0101966Y0103715D01*
X0086799Y0103715D01*
X0084105Y0106410D01*
X0084105Y0110220D01*
X0086799Y0112915D01*
X0090549Y0112915D01*
X0095201Y0117567D01*
X0099531Y0120323D02*
X0099531Y0123866D01*
X0095594Y0127803D01*
X0105437Y0121504D02*
X0107799Y0123866D01*
X0105437Y0121504D02*
X0105437Y0119929D01*
X0105437Y0113271D01*
X0105039Y0112872D01*
X0105039Y0111238D01*
X0106194Y0110082D01*
X0108985Y0110082D01*
X0114376Y0104446D01*
X0117642Y0101031D01*
X0114886Y0095913D02*
X0124728Y0088039D01*
X0120004Y0082921D02*
X0115160Y0087113D01*
X0099531Y0100638D01*
X0088744Y0098276D02*
X0088705Y0098315D01*
X0107799Y0085283D01*
X0116873Y0082902D02*
X0097612Y0082902D01*
X0092420Y0080953D02*
X0090565Y0082807D01*
X0082323Y0082807D01*
X0082209Y0082921D01*
X0114886Y0095913D02*
X0108193Y0107724D01*
X0088705Y0108315D01*
X0107012Y0112055D02*
X0111343Y0112055D01*
X0132602Y0108906D02*
X0158587Y0108906D01*
X0158587Y0115205D02*
X0136111Y0115205D01*
D15*
X0003300Y0153169D02*
X0003300Y0004406D01*
X0277259Y0004406D01*
X0277259Y0153169D01*
X0003300Y0153169D01*
X0003300Y0152805D02*
X0277259Y0152805D01*
X0277259Y0151807D02*
X0003300Y0151807D01*
X0003300Y0150808D02*
X0277259Y0150808D01*
X0277259Y0149810D02*
X0003300Y0149810D01*
X0003300Y0148811D02*
X0277259Y0148811D01*
X0277259Y0147813D02*
X0003300Y0147813D01*
X0003300Y0146814D02*
X0277259Y0146814D01*
X0277259Y0145816D02*
X0067015Y0145816D01*
X0066105Y0146193D02*
X0063746Y0146193D01*
X0061567Y0145290D01*
X0059899Y0143622D01*
X0058996Y0141443D01*
X0058996Y0139084D01*
X0059899Y0136905D01*
X0061567Y0135237D01*
X0063746Y0134335D01*
X0066105Y0134335D01*
X0068284Y0135237D01*
X0069952Y0136905D01*
X0070854Y0139084D01*
X0070854Y0141443D01*
X0069952Y0143622D01*
X0068284Y0145290D01*
X0066105Y0146193D01*
X0068757Y0144817D02*
X0277259Y0144817D01*
X0277259Y0143819D02*
X0069755Y0143819D01*
X0070284Y0142820D02*
X0090993Y0142820D01*
X0090759Y0142723D02*
X0089296Y0141261D01*
X0088505Y0139349D01*
X0088505Y0137281D01*
X0089296Y0135369D01*
X0090759Y0133907D01*
X0092670Y0133115D01*
X0094739Y0133115D01*
X0096650Y0133907D01*
X0098113Y0135369D01*
X0098705Y0136798D01*
X0099296Y0135369D01*
X0100759Y0133907D01*
X0102670Y0133115D01*
X0104739Y0133115D01*
X0106650Y0133907D01*
X0108113Y0135369D01*
X0108705Y0136798D01*
X0109296Y0135369D01*
X0110759Y0133907D01*
X0111905Y0133432D01*
X0111905Y0109634D01*
X0110785Y0110804D01*
X0110785Y0110827D01*
X0110272Y0111341D01*
X0109770Y0111865D01*
X0109747Y0111865D01*
X0109731Y0111882D01*
X0109005Y0111882D01*
X0108280Y0111898D01*
X0108263Y0111882D01*
X0106940Y0111882D01*
X0106839Y0111983D01*
X0106839Y0112127D01*
X0107237Y0112525D01*
X0107237Y0117937D01*
X0107710Y0118410D01*
X0108118Y0119396D01*
X0108118Y0120462D01*
X0107819Y0121185D01*
X0108333Y0121185D01*
X0109318Y0121593D01*
X0110072Y0122347D01*
X0110480Y0123333D01*
X0110480Y0124399D01*
X0110072Y0125385D01*
X0109318Y0126139D01*
X0108333Y0126547D01*
X0107266Y0126547D01*
X0106280Y0126139D01*
X0105526Y0125385D01*
X0105118Y0124399D01*
X0105118Y0123731D01*
X0103637Y0122250D01*
X0103637Y0121921D01*
X0103164Y0121448D01*
X0102756Y0120462D01*
X0102756Y0119396D01*
X0103164Y0118410D01*
X0103637Y0117937D01*
X0103637Y0114016D01*
X0103239Y0113618D01*
X0103239Y0110492D01*
X0104081Y0109650D01*
X0093649Y0109966D01*
X0093113Y0111261D01*
X0092277Y0112097D01*
X0095065Y0114886D01*
X0095734Y0114886D01*
X0096720Y0115294D01*
X0097474Y0116048D01*
X0097882Y0117034D01*
X0097882Y0118100D01*
X0097825Y0118238D01*
X0098013Y0118050D01*
X0098998Y0117642D01*
X0100065Y0117642D01*
X0101050Y0118050D01*
X0101804Y0118804D01*
X0102213Y0119790D01*
X0102213Y0120856D01*
X0101804Y0121842D01*
X0101331Y0122314D01*
X0101331Y0124612D01*
X0098276Y0127668D01*
X0098276Y0128336D01*
X0097867Y0129322D01*
X0097113Y0130076D01*
X0096128Y0130484D01*
X0095061Y0130484D01*
X0094076Y0130076D01*
X0093742Y0129742D01*
X0093113Y0131261D01*
X0091650Y0132723D01*
X0089739Y0133515D01*
X0087670Y0133515D01*
X0085759Y0132723D01*
X0084296Y0131261D01*
X0083505Y0129349D01*
X0083505Y0127281D01*
X0084296Y0125369D01*
X0085759Y0123907D01*
X0087524Y0123175D01*
X0086790Y0122937D01*
X0086091Y0122581D01*
X0085456Y0122119D01*
X0084901Y0121564D01*
X0084439Y0120929D01*
X0084083Y0120229D01*
X0083840Y0119483D01*
X0083734Y0118815D01*
X0088205Y0118815D01*
X0088205Y0117815D01*
X0083734Y0117815D01*
X0083840Y0117147D01*
X0084083Y0116400D01*
X0084439Y0115701D01*
X0084901Y0115066D01*
X0085456Y0114511D01*
X0085684Y0114345D01*
X0084999Y0113661D01*
X0082305Y0110966D01*
X0082305Y0105664D01*
X0083359Y0104610D01*
X0084999Y0102969D01*
X0085502Y0102466D01*
X0084296Y0101261D01*
X0083505Y0099349D01*
X0083505Y0097281D01*
X0084296Y0095369D01*
X0085759Y0093907D01*
X0087188Y0093315D01*
X0085759Y0092723D01*
X0084296Y0091261D01*
X0083505Y0089349D01*
X0083505Y0087281D01*
X0084296Y0085369D01*
X0085059Y0084607D01*
X0084314Y0084607D01*
X0083727Y0085194D01*
X0082742Y0085602D01*
X0081675Y0085602D01*
X0080690Y0085194D01*
X0079936Y0084440D01*
X0079528Y0083455D01*
X0079528Y0082388D01*
X0079936Y0081403D01*
X0080690Y0080648D01*
X0081675Y0080240D01*
X0082742Y0080240D01*
X0083727Y0080648D01*
X0084086Y0081007D01*
X0084191Y0081007D01*
X0083505Y0079349D01*
X0083505Y0077281D01*
X0084296Y0075369D01*
X0085759Y0073907D01*
X0087188Y0073315D01*
X0085759Y0072723D01*
X0084296Y0071261D01*
X0083505Y0069349D01*
X0083505Y0067281D01*
X0084296Y0065369D01*
X0085759Y0063907D01*
X0087188Y0063315D01*
X0085759Y0062723D01*
X0084296Y0061261D01*
X0083505Y0059349D01*
X0083505Y0057281D01*
X0084296Y0055369D01*
X0085759Y0053907D01*
X0087188Y0053315D01*
X0085759Y0052723D01*
X0084296Y0051261D01*
X0083505Y0049349D01*
X0083505Y0047281D01*
X0084296Y0045369D01*
X0085759Y0043907D01*
X0087188Y0043315D01*
X0085759Y0042723D01*
X0084296Y0041261D01*
X0084009Y0040566D01*
X0084009Y0040753D01*
X0082954Y0041808D01*
X0079870Y0041808D01*
X0079790Y0041887D01*
X0078805Y0042295D01*
X0077738Y0042295D01*
X0076753Y0041887D01*
X0075999Y0041133D01*
X0075591Y0040147D01*
X0075591Y0039081D01*
X0075999Y0038095D01*
X0076753Y0037341D01*
X0077738Y0036933D01*
X0078805Y0036933D01*
X0079790Y0037341D01*
X0080409Y0037960D01*
X0080409Y0034144D01*
X0081463Y0033090D01*
X0083038Y0031515D01*
X0084551Y0031515D01*
X0084296Y0031261D01*
X0083505Y0029349D01*
X0083505Y0027281D01*
X0084296Y0025369D01*
X0085759Y0023907D01*
X0087188Y0023315D01*
X0085759Y0022723D01*
X0084296Y0021261D01*
X0083505Y0019349D01*
X0083505Y0017281D01*
X0084191Y0015623D01*
X0080793Y0015623D01*
X0074560Y0021856D01*
X0074560Y0083357D01*
X0081679Y0090476D01*
X0082348Y0090476D01*
X0083334Y0090885D01*
X0084088Y0091639D01*
X0084496Y0092624D01*
X0084496Y0093691D01*
X0084088Y0094676D01*
X0083334Y0095430D01*
X0082348Y0095839D01*
X0081282Y0095839D01*
X0080296Y0095430D01*
X0079542Y0094676D01*
X0079134Y0093691D01*
X0079134Y0093022D01*
X0070960Y0084848D01*
X0070960Y0020365D01*
X0072014Y0019310D01*
X0079302Y0012023D01*
X0091311Y0012023D01*
X0092365Y0013077D01*
X0096402Y0017114D01*
X0097030Y0016854D01*
X0098096Y0016854D01*
X0099082Y0017263D01*
X0099836Y0018017D01*
X0100244Y0019002D01*
X0100244Y0020069D01*
X0099836Y0021054D01*
X0099082Y0021808D01*
X0098096Y0022217D01*
X0097030Y0022217D01*
X0096044Y0021808D01*
X0095571Y0021335D01*
X0095532Y0021335D01*
X0093800Y0019603D01*
X0093637Y0019996D01*
X0100563Y0025609D01*
X0100633Y0025609D01*
X0100014Y0024991D01*
X0099606Y0024006D01*
X0099606Y0022939D01*
X0100014Y0021954D01*
X0100769Y0021200D01*
X0101754Y0020791D01*
X0102423Y0020791D01*
X0102723Y0020491D01*
X0111319Y0020491D01*
X0111792Y0020018D01*
X0112778Y0019610D01*
X0113844Y0019610D01*
X0114830Y0020018D01*
X0115584Y0020773D01*
X0115992Y0021758D01*
X0115992Y0022825D01*
X0115817Y0023247D01*
X0130137Y0023247D01*
X0130230Y0021917D01*
X0129421Y0021582D01*
X0127958Y0020119D01*
X0127366Y0018690D01*
X0126774Y0020119D01*
X0125312Y0021582D01*
X0123400Y0022373D01*
X0121332Y0022373D01*
X0119421Y0021582D01*
X0117958Y0020119D01*
X0117166Y0018208D01*
X0117166Y0016139D01*
X0117958Y0014228D01*
X0119421Y0012765D01*
X0121332Y0011973D01*
X0123400Y0011973D01*
X0125312Y0012765D01*
X0126594Y0014047D01*
X0128705Y0011936D01*
X0129760Y0010881D01*
X0151690Y0010881D01*
X0152305Y0011496D01*
X0152377Y0011324D01*
X0153131Y0010570D01*
X0154116Y0010161D01*
X0155183Y0010161D01*
X0156168Y0010570D01*
X0156923Y0011324D01*
X0156968Y0011435D01*
X0159238Y0013705D01*
X0159907Y0013705D01*
X0160893Y0014113D01*
X0161647Y0014867D01*
X0162055Y0015853D01*
X0162055Y0016919D01*
X0161647Y0017905D01*
X0160893Y0018659D01*
X0159907Y0019067D01*
X0159876Y0019067D01*
X0170450Y0029640D01*
X0171678Y0029640D01*
X0175863Y0033825D01*
X0176917Y0034880D01*
X0176917Y0040083D01*
X0177624Y0040083D01*
X0178609Y0040491D01*
X0179082Y0040964D01*
X0187679Y0040964D01*
X0195004Y0048289D01*
X0200881Y0042412D01*
X0200881Y0042393D01*
X0200408Y0041920D01*
X0200000Y0040935D01*
X0200000Y0039868D01*
X0200408Y0038883D01*
X0201162Y0038129D01*
X0202148Y0037720D01*
X0203214Y0037720D01*
X0204200Y0038129D01*
X0204954Y0038883D01*
X0205362Y0039868D01*
X0205362Y0040935D01*
X0204954Y0041920D01*
X0204481Y0042393D01*
X0204481Y0043903D01*
X0197550Y0050835D01*
X0199002Y0052287D01*
X0199671Y0052287D01*
X0200657Y0052696D01*
X0201411Y0053450D01*
X0201819Y0054435D01*
X0201819Y0055502D01*
X0201411Y0056487D01*
X0200657Y0057241D01*
X0199671Y0057650D01*
X0198604Y0057650D01*
X0197619Y0057241D01*
X0196865Y0056487D01*
X0196457Y0055502D01*
X0196457Y0054833D01*
X0194258Y0052635D01*
X0193204Y0051580D01*
X0186187Y0044564D01*
X0182288Y0044564D01*
X0182513Y0044788D01*
X0182921Y0045774D01*
X0182921Y0046840D01*
X0182513Y0047826D01*
X0181759Y0048580D01*
X0180773Y0048988D01*
X0179707Y0048988D01*
X0178721Y0048580D01*
X0177967Y0047826D01*
X0177559Y0046840D01*
X0177559Y0046537D01*
X0175528Y0046537D01*
X0174473Y0045483D01*
X0174372Y0045381D01*
X0173317Y0044327D01*
X0173317Y0043624D01*
X0172230Y0044711D01*
X0169508Y0045839D01*
X0166562Y0045839D01*
X0163841Y0044711D01*
X0161757Y0042628D01*
X0160630Y0039906D01*
X0160630Y0036960D01*
X0161757Y0034238D01*
X0163841Y0032155D01*
X0166562Y0031028D01*
X0166746Y0031028D01*
X0164196Y0028478D01*
X0164009Y0028928D01*
X0163255Y0029682D01*
X0162270Y0030091D01*
X0161203Y0030091D01*
X0160217Y0029682D01*
X0159463Y0028928D01*
X0159055Y0027943D01*
X0159055Y0027274D01*
X0151552Y0019770D01*
X0150769Y0019446D01*
X0150014Y0018692D01*
X0149606Y0017707D01*
X0149606Y0016640D01*
X0150014Y0015655D01*
X0150694Y0014975D01*
X0150199Y0014481D01*
X0146879Y0014481D01*
X0147566Y0016139D01*
X0147566Y0018208D01*
X0146774Y0020119D01*
X0145312Y0021582D01*
X0143400Y0022373D01*
X0143033Y0022373D01*
X0141489Y0029186D01*
X0141489Y0029730D01*
X0141329Y0029889D01*
X0141280Y0030109D01*
X0140819Y0030399D01*
X0140435Y0030784D01*
X0140209Y0030784D01*
X0140018Y0030905D01*
X0139488Y0030784D01*
X0136139Y0030784D01*
X0135740Y0031183D01*
X0132614Y0031183D01*
X0132216Y0030784D01*
X0103033Y0030784D01*
X0100601Y0033216D01*
X0100601Y0033629D01*
X0101074Y0034102D01*
X0101482Y0035087D01*
X0101482Y0036154D01*
X0101074Y0037139D01*
X0100320Y0037893D01*
X0099334Y0038302D01*
X0098267Y0038302D01*
X0097282Y0037893D01*
X0096528Y0037139D01*
X0096120Y0036154D01*
X0096120Y0035563D01*
X0095529Y0035563D01*
X0094544Y0035155D01*
X0094504Y0035115D01*
X0092859Y0035115D01*
X0093113Y0035369D01*
X0093905Y0037281D01*
X0093905Y0039349D01*
X0093564Y0040172D01*
X0107884Y0040172D01*
X0107874Y0040147D01*
X0107874Y0039081D01*
X0108282Y0038095D01*
X0108755Y0037623D01*
X0108755Y0036094D01*
X0108282Y0035621D01*
X0107874Y0034636D01*
X0107874Y0033569D01*
X0108282Y0032584D01*
X0109036Y0031829D01*
X0110022Y0031421D01*
X0111088Y0031421D01*
X0112074Y0031829D01*
X0112828Y0032584D01*
X0113236Y0033569D01*
X0113236Y0034571D01*
X0113451Y0034571D01*
X0114436Y0034979D01*
X0115190Y0035733D01*
X0115563Y0036633D01*
X0118012Y0036633D01*
X0118485Y0036160D01*
X0119471Y0035752D01*
X0120537Y0035752D01*
X0121523Y0036160D01*
X0122277Y0036914D01*
X0122685Y0037900D01*
X0122685Y0038966D01*
X0122277Y0039952D01*
X0121523Y0040706D01*
X0121097Y0040882D01*
X0122206Y0041992D01*
X0122838Y0041730D01*
X0122835Y0041722D01*
X0122835Y0040656D01*
X0123243Y0039670D01*
X0123997Y0038916D01*
X0124982Y0038508D01*
X0125651Y0038508D01*
X0128057Y0036102D01*
X0131640Y0036102D01*
X0131778Y0036239D01*
X0135729Y0036239D01*
X0136202Y0035766D01*
X0137187Y0035358D01*
X0138254Y0035358D01*
X0139239Y0035766D01*
X0139993Y0036521D01*
X0140402Y0037506D01*
X0140402Y0038573D01*
X0139993Y0039558D01*
X0139239Y0040312D01*
X0138254Y0040720D01*
X0137187Y0040720D01*
X0136202Y0040312D01*
X0135729Y0039839D01*
X0131959Y0039839D01*
X0132134Y0040262D01*
X0132134Y0041329D01*
X0131726Y0042314D01*
X0131253Y0042787D01*
X0131253Y0065575D01*
X0131726Y0066048D01*
X0132134Y0067034D01*
X0132134Y0068100D01*
X0131726Y0069086D01*
X0130971Y0069840D01*
X0129986Y0070248D01*
X0128919Y0070248D01*
X0127934Y0069840D01*
X0127180Y0069086D01*
X0126772Y0068100D01*
X0126772Y0067034D01*
X0127180Y0066048D01*
X0127653Y0065575D01*
X0127653Y0064724D01*
X0127624Y0064736D01*
X0126557Y0064736D01*
X0126260Y0064613D01*
X0119614Y0071259D01*
X0120308Y0071954D01*
X0120685Y0072863D01*
X0121383Y0073243D01*
X0124323Y0073243D01*
X0125377Y0074297D01*
X0126533Y0075453D01*
X0126533Y0076027D01*
X0126884Y0076286D01*
X0127435Y0076592D01*
X0127472Y0076718D01*
X0127577Y0076796D01*
X0127672Y0077420D01*
X0127845Y0078026D01*
X0127781Y0078141D01*
X0128227Y0081084D01*
X0128502Y0081358D01*
X0128502Y0082896D01*
X0129351Y0088504D01*
X0129397Y0088522D01*
X0130151Y0089277D01*
X0130559Y0090262D01*
X0130559Y0091329D01*
X0130151Y0092314D01*
X0129397Y0093068D01*
X0128774Y0093326D01*
X0153904Y0093326D01*
X0164140Y0083090D01*
X0167619Y0083090D01*
X0168092Y0082617D01*
X0169077Y0082209D01*
X0170144Y0082209D01*
X0171129Y0082617D01*
X0171883Y0083371D01*
X0172291Y0084356D01*
X0172291Y0085423D01*
X0171883Y0086408D01*
X0171129Y0087163D01*
X0170144Y0087571D01*
X0169077Y0087571D01*
X0168092Y0087163D01*
X0167619Y0086690D01*
X0165631Y0086690D01*
X0156450Y0095872D01*
X0155617Y0096704D01*
X0163322Y0096836D01*
X0163761Y0096396D01*
X0164746Y0095988D01*
X0165813Y0095988D01*
X0166798Y0096396D01*
X0167552Y0097151D01*
X0167961Y0098136D01*
X0167961Y0099203D01*
X0167552Y0100188D01*
X0166798Y0100942D01*
X0165813Y0101350D01*
X0164746Y0101350D01*
X0163761Y0100942D01*
X0163254Y0100435D01*
X0124260Y0099768D01*
X0124260Y0100777D01*
X0123852Y0101763D01*
X0123097Y0102517D01*
X0122112Y0102925D01*
X0121511Y0102925D01*
X0115505Y0109232D01*
X0115505Y0110007D01*
X0115729Y0109782D01*
X0116715Y0109374D01*
X0117781Y0109374D01*
X0118767Y0109782D01*
X0119521Y0110536D01*
X0119929Y0111522D01*
X0119929Y0112588D01*
X0119521Y0113574D01*
X0119048Y0114047D01*
X0119048Y0129355D01*
X0119521Y0129828D01*
X0119929Y0130813D01*
X0119929Y0131880D01*
X0119521Y0132865D01*
X0118767Y0133619D01*
X0117781Y0134028D01*
X0116771Y0134028D01*
X0118113Y0135369D01*
X0118705Y0136798D01*
X0119296Y0135369D01*
X0120759Y0133907D01*
X0122670Y0133115D01*
X0124739Y0133115D01*
X0126650Y0133907D01*
X0128113Y0135369D01*
X0128844Y0137135D01*
X0129083Y0136400D01*
X0129439Y0135701D01*
X0129901Y0135066D01*
X0130456Y0134511D01*
X0131091Y0134049D01*
X0131790Y0133693D01*
X0132537Y0133450D01*
X0133205Y0133345D01*
X0133205Y0137815D01*
X0134205Y0137815D01*
X0134205Y0138815D01*
X0138675Y0138815D01*
X0138569Y0139483D01*
X0138327Y0140229D01*
X0137970Y0140929D01*
X0137509Y0141564D01*
X0136954Y0142119D01*
X0136319Y0142581D01*
X0135619Y0142937D01*
X0134873Y0143180D01*
X0134205Y0143285D01*
X0134205Y0138815D01*
X0133205Y0138815D01*
X0133205Y0143285D01*
X0132537Y0143180D01*
X0131790Y0142937D01*
X0131091Y0142581D01*
X0130456Y0142119D01*
X0129901Y0141564D01*
X0129439Y0140929D01*
X0129083Y0140229D01*
X0128844Y0139495D01*
X0128113Y0141261D01*
X0126650Y0142723D01*
X0124739Y0143515D01*
X0122670Y0143515D01*
X0120759Y0142723D01*
X0119296Y0141261D01*
X0118705Y0139832D01*
X0118113Y0141261D01*
X0116650Y0142723D01*
X0114739Y0143515D01*
X0112670Y0143515D01*
X0110759Y0142723D01*
X0109296Y0141261D01*
X0108705Y0139832D01*
X0108113Y0141261D01*
X0106650Y0142723D01*
X0104739Y0143515D01*
X0102670Y0143515D01*
X0100759Y0142723D01*
X0099296Y0141261D01*
X0098705Y0139832D01*
X0098113Y0141261D01*
X0096650Y0142723D01*
X0094739Y0143515D01*
X0092670Y0143515D01*
X0090759Y0142723D01*
X0089857Y0141822D02*
X0070698Y0141822D01*
X0070854Y0140823D02*
X0089115Y0140823D01*
X0088702Y0139825D02*
X0070854Y0139825D01*
X0070747Y0138826D02*
X0088505Y0138826D01*
X0088505Y0137828D02*
X0070334Y0137828D01*
X0069876Y0136829D02*
X0088692Y0136829D01*
X0089105Y0135831D02*
X0068877Y0135831D01*
X0067305Y0134832D02*
X0089834Y0134832D01*
X0090936Y0133834D02*
X0003300Y0133834D01*
X0003300Y0134832D02*
X0034890Y0134832D01*
X0035779Y0134464D02*
X0038087Y0134464D01*
X0040219Y0135347D01*
X0041850Y0136978D01*
X0042733Y0139110D01*
X0042733Y0141417D01*
X0041850Y0143549D01*
X0040219Y0145181D01*
X0038087Y0146064D01*
X0035779Y0146064D01*
X0033648Y0145181D01*
X0032016Y0143549D01*
X0031133Y0141417D01*
X0031133Y0139110D01*
X0032016Y0136978D01*
X0033648Y0135347D01*
X0035779Y0134464D01*
X0033164Y0135831D02*
X0003300Y0135831D01*
X0003300Y0136829D02*
X0032165Y0136829D01*
X0031664Y0137828D02*
X0003300Y0137828D01*
X0003300Y0138826D02*
X0031251Y0138826D01*
X0031133Y0139825D02*
X0003300Y0139825D01*
X0003300Y0140823D02*
X0031133Y0140823D01*
X0031300Y0141822D02*
X0003300Y0141822D01*
X0003300Y0142820D02*
X0031714Y0142820D01*
X0032285Y0143819D02*
X0003300Y0143819D01*
X0003300Y0144817D02*
X0033284Y0144817D01*
X0035180Y0145816D02*
X0003300Y0145816D01*
X0003300Y0132835D02*
X0086029Y0132835D01*
X0084872Y0131836D02*
X0003300Y0131836D01*
X0003300Y0130838D02*
X0084121Y0130838D01*
X0083708Y0129839D02*
X0003300Y0129839D01*
X0003300Y0128841D02*
X0083505Y0128841D01*
X0083505Y0127842D02*
X0003300Y0127842D01*
X0003300Y0126844D02*
X0083686Y0126844D01*
X0084099Y0125845D02*
X0003300Y0125845D01*
X0003300Y0124847D02*
X0084819Y0124847D01*
X0085900Y0123848D02*
X0003300Y0123848D01*
X0003300Y0122850D02*
X0086619Y0122850D01*
X0085188Y0121851D02*
X0003300Y0121851D01*
X0003300Y0120853D02*
X0084400Y0120853D01*
X0083961Y0119854D02*
X0003300Y0119854D01*
X0003300Y0118856D02*
X0083741Y0118856D01*
X0083934Y0116859D02*
X0041657Y0116859D01*
X0041128Y0117388D02*
X0038406Y0118516D01*
X0035460Y0118516D01*
X0032738Y0117388D01*
X0030655Y0115305D01*
X0029528Y0112583D01*
X0029528Y0109637D01*
X0030655Y0106915D01*
X0032738Y0104832D01*
X0035460Y0103705D01*
X0038406Y0103705D01*
X0041128Y0104832D01*
X0043211Y0106915D01*
X0044339Y0109637D01*
X0044339Y0112583D01*
X0043211Y0115305D01*
X0041128Y0117388D01*
X0039996Y0117857D02*
X0088205Y0117857D01*
X0084358Y0115860D02*
X0042656Y0115860D01*
X0043395Y0114862D02*
X0085105Y0114862D01*
X0085202Y0113863D02*
X0043808Y0113863D01*
X0044222Y0112865D02*
X0084204Y0112865D01*
X0083205Y0111866D02*
X0044339Y0111866D01*
X0044339Y0110868D02*
X0082305Y0110868D01*
X0082305Y0109869D02*
X0044339Y0109869D01*
X0044021Y0108871D02*
X0082305Y0108871D01*
X0082305Y0107872D02*
X0043607Y0107872D01*
X0043170Y0106874D02*
X0082305Y0106874D01*
X0082305Y0105875D02*
X0042171Y0105875D01*
X0041172Y0104877D02*
X0083092Y0104877D01*
X0084091Y0103878D02*
X0038825Y0103878D01*
X0035041Y0103878D02*
X0003300Y0103878D01*
X0003300Y0102880D02*
X0085089Y0102880D01*
X0084917Y0101881D02*
X0003300Y0101881D01*
X0003300Y0100883D02*
X0084140Y0100883D01*
X0083726Y0099884D02*
X0003300Y0099884D01*
X0003300Y0098886D02*
X0083505Y0098886D01*
X0083505Y0097887D02*
X0003300Y0097887D01*
X0003300Y0096889D02*
X0083667Y0096889D01*
X0084081Y0095890D02*
X0003300Y0095890D01*
X0003300Y0094892D02*
X0079757Y0094892D01*
X0079218Y0093893D02*
X0003300Y0093893D01*
X0003300Y0092895D02*
X0079006Y0092895D01*
X0078008Y0091896D02*
X0003300Y0091896D01*
X0003300Y0090898D02*
X0077009Y0090898D01*
X0076011Y0089899D02*
X0003300Y0089899D01*
X0003300Y0088900D02*
X0075012Y0088900D01*
X0074014Y0087902D02*
X0003300Y0087902D01*
X0003300Y0086903D02*
X0073015Y0086903D01*
X0072017Y0085905D02*
X0003300Y0085905D01*
X0003300Y0084906D02*
X0071018Y0084906D01*
X0070960Y0083908D02*
X0003300Y0083908D01*
X0003300Y0082909D02*
X0070960Y0082909D01*
X0070960Y0081911D02*
X0003300Y0081911D01*
X0003300Y0080912D02*
X0070960Y0080912D01*
X0070960Y0079914D02*
X0003300Y0079914D01*
X0003300Y0078915D02*
X0070960Y0078915D01*
X0070960Y0077917D02*
X0003300Y0077917D01*
X0003300Y0076918D02*
X0070960Y0076918D01*
X0070960Y0075920D02*
X0003300Y0075920D01*
X0003300Y0074921D02*
X0070960Y0074921D01*
X0070960Y0073923D02*
X0003300Y0073923D01*
X0003300Y0072924D02*
X0070960Y0072924D01*
X0070960Y0071926D02*
X0003300Y0071926D01*
X0003300Y0070927D02*
X0070960Y0070927D01*
X0070960Y0069929D02*
X0003300Y0069929D01*
X0003300Y0068930D02*
X0070960Y0068930D01*
X0070960Y0067932D02*
X0003300Y0067932D01*
X0003300Y0066933D02*
X0070960Y0066933D01*
X0070960Y0065935D02*
X0003300Y0065935D01*
X0003300Y0064936D02*
X0070960Y0064936D01*
X0070960Y0063938D02*
X0003300Y0063938D01*
X0003300Y0062939D02*
X0070960Y0062939D01*
X0070960Y0061941D02*
X0003300Y0061941D01*
X0003300Y0060942D02*
X0070960Y0060942D01*
X0070960Y0059944D02*
X0003300Y0059944D01*
X0003300Y0058945D02*
X0070960Y0058945D01*
X0070960Y0057947D02*
X0003300Y0057947D01*
X0003300Y0056948D02*
X0070960Y0056948D01*
X0070960Y0055950D02*
X0003300Y0055950D01*
X0003300Y0054951D02*
X0070960Y0054951D01*
X0070960Y0053953D02*
X0003300Y0053953D01*
X0003300Y0052954D02*
X0070960Y0052954D01*
X0070960Y0051956D02*
X0003300Y0051956D01*
X0003300Y0050957D02*
X0070960Y0050957D01*
X0070960Y0049959D02*
X0039295Y0049959D01*
X0038406Y0050327D02*
X0041128Y0049199D01*
X0043211Y0047116D01*
X0044339Y0044394D01*
X0044339Y0041448D01*
X0043211Y0038726D01*
X0041128Y0036643D01*
X0038406Y0035516D01*
X0035460Y0035516D01*
X0032738Y0036643D01*
X0030655Y0038726D01*
X0029528Y0041448D01*
X0029528Y0044394D01*
X0030655Y0047116D01*
X0032738Y0049199D01*
X0035460Y0050327D01*
X0038406Y0050327D01*
X0041367Y0048960D02*
X0070960Y0048960D01*
X0070960Y0047962D02*
X0042366Y0047962D01*
X0043275Y0046963D02*
X0070960Y0046963D01*
X0070960Y0045965D02*
X0043688Y0045965D01*
X0044102Y0044966D02*
X0070960Y0044966D01*
X0070960Y0043967D02*
X0044339Y0043967D01*
X0044339Y0042969D02*
X0070960Y0042969D01*
X0070960Y0041970D02*
X0044339Y0041970D01*
X0044141Y0040972D02*
X0070960Y0040972D01*
X0070960Y0039973D02*
X0043728Y0039973D01*
X0043314Y0038975D02*
X0070960Y0038975D01*
X0070960Y0037976D02*
X0042461Y0037976D01*
X0041463Y0036978D02*
X0070960Y0036978D01*
X0070960Y0035979D02*
X0039525Y0035979D01*
X0034341Y0035979D02*
X0003300Y0035979D01*
X0003300Y0034981D02*
X0070960Y0034981D01*
X0070960Y0033982D02*
X0003300Y0033982D01*
X0003300Y0032984D02*
X0070960Y0032984D01*
X0070960Y0031985D02*
X0003300Y0031985D01*
X0003300Y0030987D02*
X0070960Y0030987D01*
X0070960Y0029988D02*
X0003300Y0029988D01*
X0003300Y0028990D02*
X0070960Y0028990D01*
X0070960Y0027991D02*
X0003300Y0027991D01*
X0003300Y0026993D02*
X0070960Y0026993D01*
X0070960Y0025994D02*
X0003300Y0025994D01*
X0003300Y0024996D02*
X0070960Y0024996D01*
X0070960Y0023997D02*
X0003300Y0023997D01*
X0003300Y0022999D02*
X0070960Y0022999D01*
X0070960Y0022000D02*
X0003300Y0022000D01*
X0003300Y0021002D02*
X0070960Y0021002D01*
X0071321Y0020003D02*
X0003300Y0020003D01*
X0003300Y0019005D02*
X0034970Y0019005D01*
X0034788Y0018946D02*
X0035625Y0019218D01*
X0036433Y0019346D01*
X0036433Y0014268D01*
X0037433Y0014268D01*
X0037433Y0019346D01*
X0038241Y0019218D01*
X0039078Y0018946D01*
X0039862Y0018546D01*
X0040573Y0018030D01*
X0041195Y0017408D01*
X0041712Y0016696D01*
X0042111Y0015913D01*
X0042383Y0015076D01*
X0042511Y0014268D01*
X0037433Y0014268D01*
X0037433Y0013268D01*
X0042511Y0013268D01*
X0042383Y0012459D01*
X0042111Y0011623D01*
X0041712Y0010839D01*
X0041195Y0010128D01*
X0040573Y0009506D01*
X0039862Y0008989D01*
X0039078Y0008590D01*
X0038241Y0008318D01*
X0037433Y0008190D01*
X0037433Y0013268D01*
X0036433Y0013268D01*
X0031355Y0013268D01*
X0031483Y0012459D01*
X0031755Y0011623D01*
X0032154Y0010839D01*
X0032671Y0010128D01*
X0033293Y0009506D01*
X0034005Y0008989D01*
X0034788Y0008590D01*
X0035625Y0008318D01*
X0036433Y0008190D01*
X0036433Y0013268D01*
X0036433Y0014268D01*
X0031355Y0014268D01*
X0031483Y0015076D01*
X0031755Y0015913D01*
X0032154Y0016696D01*
X0032671Y0017408D01*
X0033293Y0018030D01*
X0034005Y0018546D01*
X0034788Y0018946D01*
X0036433Y0019005D02*
X0037433Y0019005D01*
X0037433Y0018006D02*
X0036433Y0018006D01*
X0036433Y0017008D02*
X0037433Y0017008D01*
X0037433Y0016009D02*
X0036433Y0016009D01*
X0036433Y0015011D02*
X0037433Y0015011D01*
X0037433Y0014012D02*
X0077312Y0014012D01*
X0076314Y0015011D02*
X0042393Y0015011D01*
X0042062Y0016009D02*
X0075315Y0016009D01*
X0074317Y0017008D02*
X0041486Y0017008D01*
X0040596Y0018006D02*
X0073318Y0018006D01*
X0072320Y0019005D02*
X0038896Y0019005D01*
X0033270Y0018006D02*
X0003300Y0018006D01*
X0003300Y0017008D02*
X0032381Y0017008D01*
X0031804Y0016009D02*
X0003300Y0016009D01*
X0003300Y0015011D02*
X0031473Y0015011D01*
X0031395Y0013014D02*
X0003300Y0013014D01*
X0003300Y0014012D02*
X0036433Y0014012D01*
X0036433Y0013014D02*
X0037433Y0013014D01*
X0037433Y0012015D02*
X0036433Y0012015D01*
X0036433Y0011017D02*
X0037433Y0011017D01*
X0037433Y0010018D02*
X0036433Y0010018D01*
X0036433Y0009020D02*
X0037433Y0009020D01*
X0039904Y0009020D02*
X0277259Y0009020D01*
X0277259Y0010018D02*
X0041085Y0010018D01*
X0041802Y0011017D02*
X0129624Y0011017D01*
X0128626Y0012015D02*
X0123502Y0012015D01*
X0121231Y0012015D02*
X0042239Y0012015D01*
X0042471Y0013014D02*
X0078311Y0013014D01*
X0080406Y0016009D02*
X0084031Y0016009D01*
X0083618Y0017008D02*
X0079408Y0017008D01*
X0078409Y0018006D02*
X0083505Y0018006D01*
X0083505Y0019005D02*
X0077411Y0019005D01*
X0076412Y0020003D02*
X0083776Y0020003D01*
X0084189Y0021002D02*
X0075414Y0021002D01*
X0074560Y0022000D02*
X0085036Y0022000D01*
X0086424Y0022999D02*
X0074560Y0022999D01*
X0074560Y0023997D02*
X0085669Y0023997D01*
X0084670Y0024996D02*
X0074560Y0024996D01*
X0074560Y0025994D02*
X0084038Y0025994D01*
X0083624Y0026993D02*
X0074560Y0026993D01*
X0074560Y0027991D02*
X0083505Y0027991D01*
X0083505Y0028990D02*
X0074560Y0028990D01*
X0074560Y0029988D02*
X0083769Y0029988D01*
X0084183Y0030987D02*
X0074560Y0030987D01*
X0074560Y0031985D02*
X0082567Y0031985D01*
X0081569Y0032984D02*
X0074560Y0032984D01*
X0074560Y0033982D02*
X0080570Y0033982D01*
X0080409Y0034981D02*
X0074560Y0034981D01*
X0074560Y0035979D02*
X0080409Y0035979D01*
X0080409Y0036978D02*
X0078913Y0036978D01*
X0077630Y0036978D02*
X0074560Y0036978D01*
X0074560Y0037976D02*
X0076118Y0037976D01*
X0075634Y0038975D02*
X0074560Y0038975D01*
X0074560Y0039973D02*
X0075591Y0039973D01*
X0075932Y0040972D02*
X0074560Y0040972D01*
X0074560Y0041970D02*
X0076954Y0041970D01*
X0074560Y0042969D02*
X0086352Y0042969D01*
X0085698Y0043967D02*
X0074560Y0043967D01*
X0074560Y0044966D02*
X0084700Y0044966D01*
X0084050Y0045965D02*
X0074560Y0045965D01*
X0074560Y0046963D02*
X0083636Y0046963D01*
X0083505Y0047962D02*
X0074560Y0047962D01*
X0074560Y0048960D02*
X0083505Y0048960D01*
X0083757Y0049959D02*
X0074560Y0049959D01*
X0074560Y0050957D02*
X0084171Y0050957D01*
X0084991Y0051956D02*
X0074560Y0051956D01*
X0074560Y0052954D02*
X0086316Y0052954D01*
X0085713Y0053953D02*
X0074560Y0053953D01*
X0074560Y0054951D02*
X0084715Y0054951D01*
X0084056Y0055950D02*
X0074560Y0055950D01*
X0074560Y0056948D02*
X0083642Y0056948D01*
X0083505Y0057947D02*
X0074560Y0057947D01*
X0074560Y0058945D02*
X0083505Y0058945D01*
X0083751Y0059944D02*
X0074560Y0059944D01*
X0074560Y0060942D02*
X0084165Y0060942D01*
X0084977Y0061941D02*
X0074560Y0061941D01*
X0074560Y0062939D02*
X0086280Y0062939D01*
X0085728Y0063938D02*
X0074560Y0063938D01*
X0074560Y0064936D02*
X0084730Y0064936D01*
X0084062Y0065935D02*
X0074560Y0065935D01*
X0074560Y0066933D02*
X0083649Y0066933D01*
X0083505Y0067932D02*
X0074560Y0067932D01*
X0074560Y0068930D02*
X0083505Y0068930D01*
X0083745Y0069929D02*
X0074560Y0069929D01*
X0074560Y0070927D02*
X0084158Y0070927D01*
X0084962Y0071926D02*
X0074560Y0071926D01*
X0074560Y0072924D02*
X0086244Y0072924D01*
X0085743Y0073923D02*
X0074560Y0073923D01*
X0074560Y0074921D02*
X0084744Y0074921D01*
X0084068Y0075920D02*
X0074560Y0075920D01*
X0074560Y0076918D02*
X0083655Y0076918D01*
X0083505Y0077917D02*
X0074560Y0077917D01*
X0074560Y0078915D02*
X0083505Y0078915D01*
X0083739Y0079914D02*
X0074560Y0079914D01*
X0074560Y0080912D02*
X0080426Y0080912D01*
X0079725Y0081911D02*
X0074560Y0081911D01*
X0074560Y0082909D02*
X0079528Y0082909D01*
X0079715Y0083908D02*
X0075111Y0083908D01*
X0076110Y0084906D02*
X0080402Y0084906D01*
X0078107Y0086903D02*
X0083661Y0086903D01*
X0083505Y0087902D02*
X0079105Y0087902D01*
X0080104Y0088900D02*
X0083505Y0088900D01*
X0083732Y0089899D02*
X0081102Y0089899D01*
X0083347Y0090898D02*
X0084146Y0090898D01*
X0084194Y0091896D02*
X0084932Y0091896D01*
X0084496Y0092895D02*
X0086173Y0092895D01*
X0085792Y0093893D02*
X0084412Y0093893D01*
X0084774Y0094892D02*
X0083873Y0094892D01*
X0084075Y0085905D02*
X0077108Y0085905D01*
X0084015Y0084906D02*
X0084759Y0084906D01*
X0084152Y0080912D02*
X0083991Y0080912D01*
X0119946Y0070927D02*
X0194413Y0070927D01*
X0195411Y0069929D02*
X0130757Y0069929D01*
X0131790Y0068930D02*
X0196410Y0068930D01*
X0197408Y0067932D02*
X0132134Y0067932D01*
X0132092Y0066933D02*
X0134820Y0066933D01*
X0135219Y0067098D02*
X0134233Y0066690D01*
X0133479Y0065936D01*
X0133071Y0064951D01*
X0133071Y0063884D01*
X0133479Y0062899D01*
X0134233Y0062144D01*
X0135219Y0061736D01*
X0136285Y0061736D01*
X0137271Y0062144D01*
X0137744Y0062617D01*
X0194784Y0062617D01*
X0195257Y0062144D01*
X0196242Y0061736D01*
X0197309Y0061736D01*
X0198294Y0062144D01*
X0199049Y0062899D01*
X0199457Y0063884D01*
X0199457Y0064951D01*
X0199049Y0065936D01*
X0198294Y0066690D01*
X0197309Y0067098D01*
X0196242Y0067098D01*
X0195257Y0066690D01*
X0194784Y0066217D01*
X0137744Y0066217D01*
X0137271Y0066690D01*
X0136285Y0067098D01*
X0135219Y0067098D01*
X0136684Y0066933D02*
X0195844Y0066933D01*
X0197708Y0066933D02*
X0198407Y0066933D01*
X0199049Y0065935D02*
X0199406Y0065935D01*
X0200000Y0065340D02*
X0200000Y0064671D01*
X0200408Y0063686D01*
X0201162Y0062932D01*
X0202148Y0062524D01*
X0203214Y0062524D01*
X0204200Y0062932D01*
X0204954Y0063686D01*
X0205362Y0064671D01*
X0205362Y0065738D01*
X0204954Y0066723D01*
X0204200Y0067478D01*
X0203214Y0067886D01*
X0202546Y0067886D01*
X0178497Y0091935D01*
X0178497Y0119100D01*
X0177442Y0120154D01*
X0142074Y0120154D01*
X0141601Y0120627D01*
X0140616Y0121035D01*
X0139549Y0121035D01*
X0138564Y0120627D01*
X0137810Y0119873D01*
X0137402Y0118888D01*
X0137402Y0117821D01*
X0137740Y0117005D01*
X0135365Y0117005D01*
X0129042Y0110681D01*
X0127016Y0112707D01*
X0127016Y0113376D01*
X0126608Y0114361D01*
X0125853Y0115115D01*
X0124868Y0115524D01*
X0123801Y0115524D01*
X0122816Y0115115D01*
X0122062Y0114361D01*
X0121654Y0113376D01*
X0121654Y0112309D01*
X0122062Y0111324D01*
X0122816Y0110570D01*
X0123801Y0110161D01*
X0124470Y0110161D01*
X0130399Y0104233D01*
X0130723Y0103450D01*
X0131477Y0102696D01*
X0132463Y0102287D01*
X0133529Y0102287D01*
X0134515Y0102696D01*
X0135269Y0103450D01*
X0135677Y0104435D01*
X0135677Y0105502D01*
X0135269Y0106487D01*
X0134651Y0107106D01*
X0156595Y0107106D01*
X0157068Y0106633D01*
X0158053Y0106224D01*
X0159120Y0106224D01*
X0160105Y0106633D01*
X0160860Y0107387D01*
X0161268Y0108372D01*
X0161268Y0109439D01*
X0160860Y0110424D01*
X0160105Y0111178D01*
X0159120Y0111587D01*
X0158053Y0111587D01*
X0157068Y0111178D01*
X0156595Y0110705D01*
X0134594Y0110705D01*
X0134376Y0110924D01*
X0136857Y0113405D01*
X0156595Y0113405D01*
X0157068Y0112932D01*
X0158053Y0112524D01*
X0159120Y0112524D01*
X0160105Y0112932D01*
X0160860Y0113686D01*
X0161268Y0114671D01*
X0161268Y0115738D01*
X0160930Y0116554D01*
X0174897Y0116554D01*
X0174897Y0090443D01*
X0175951Y0089389D01*
X0175951Y0089389D01*
X0200000Y0065340D01*
X0200000Y0064936D02*
X0199457Y0064936D01*
X0199457Y0063938D02*
X0200304Y0063938D01*
X0201155Y0062939D02*
X0199065Y0062939D01*
X0197803Y0061941D02*
X0277259Y0061941D01*
X0277259Y0062939D02*
X0204207Y0062939D01*
X0205058Y0063938D02*
X0277259Y0063938D01*
X0277259Y0064936D02*
X0205362Y0064936D01*
X0205281Y0065935D02*
X0277259Y0065935D01*
X0277259Y0066933D02*
X0204744Y0066933D01*
X0202500Y0067932D02*
X0277259Y0067932D01*
X0277259Y0068930D02*
X0201501Y0068930D01*
X0200503Y0069929D02*
X0277259Y0069929D01*
X0277259Y0070927D02*
X0199504Y0070927D01*
X0198506Y0071926D02*
X0277259Y0071926D01*
X0277259Y0072924D02*
X0197507Y0072924D01*
X0196509Y0073923D02*
X0277259Y0073923D01*
X0277259Y0074921D02*
X0195510Y0074921D01*
X0194512Y0075920D02*
X0277259Y0075920D01*
X0277259Y0076918D02*
X0193513Y0076918D01*
X0192515Y0077917D02*
X0277259Y0077917D01*
X0277259Y0078915D02*
X0191516Y0078915D01*
X0190517Y0079914D02*
X0277259Y0079914D01*
X0277259Y0080912D02*
X0189519Y0080912D01*
X0188520Y0081911D02*
X0277259Y0081911D01*
X0277259Y0082909D02*
X0187522Y0082909D01*
X0186523Y0083908D02*
X0277259Y0083908D01*
X0277259Y0084906D02*
X0185525Y0084906D01*
X0184526Y0085905D02*
X0255081Y0085905D01*
X0255081Y0085760D02*
X0255081Y0085366D01*
X0255520Y0084927D01*
X0275039Y0084927D01*
X0275478Y0085366D01*
X0275478Y0101342D01*
X0275039Y0101781D01*
X0255520Y0101781D01*
X0255081Y0101342D01*
X0255081Y0085760D01*
X0255081Y0086903D02*
X0183528Y0086903D01*
X0182529Y0087902D02*
X0255081Y0087902D01*
X0255081Y0088900D02*
X0181531Y0088900D01*
X0180532Y0089899D02*
X0255081Y0089899D01*
X0255081Y0090898D02*
X0179534Y0090898D01*
X0178535Y0091896D02*
X0255081Y0091896D01*
X0255081Y0092895D02*
X0178497Y0092895D01*
X0178497Y0093893D02*
X0255081Y0093893D01*
X0255081Y0094892D02*
X0178497Y0094892D01*
X0178497Y0095890D02*
X0255081Y0095890D01*
X0255081Y0096889D02*
X0178497Y0096889D01*
X0178497Y0097887D02*
X0255081Y0097887D01*
X0255081Y0098886D02*
X0178497Y0098886D01*
X0178497Y0099884D02*
X0255081Y0099884D01*
X0255081Y0100883D02*
X0178497Y0100883D01*
X0178497Y0101881D02*
X0277259Y0101881D01*
X0277259Y0100883D02*
X0275478Y0100883D01*
X0275478Y0099884D02*
X0277259Y0099884D01*
X0277259Y0098886D02*
X0275478Y0098886D01*
X0275478Y0097887D02*
X0277259Y0097887D01*
X0277259Y0096889D02*
X0275478Y0096889D01*
X0275478Y0095890D02*
X0277259Y0095890D01*
X0277259Y0094892D02*
X0275478Y0094892D01*
X0275478Y0093893D02*
X0277259Y0093893D01*
X0277259Y0092895D02*
X0275478Y0092895D01*
X0275478Y0091896D02*
X0277259Y0091896D01*
X0277259Y0090898D02*
X0275478Y0090898D01*
X0275478Y0089899D02*
X0277259Y0089899D01*
X0277259Y0088900D02*
X0275478Y0088900D01*
X0275478Y0087902D02*
X0277259Y0087902D01*
X0277259Y0086903D02*
X0275478Y0086903D01*
X0275478Y0085905D02*
X0277259Y0085905D01*
X0277259Y0102880D02*
X0178497Y0102880D01*
X0178497Y0103878D02*
X0277259Y0103878D01*
X0277259Y0104877D02*
X0178497Y0104877D01*
X0178497Y0105875D02*
X0277259Y0105875D01*
X0277259Y0106874D02*
X0178497Y0106874D01*
X0178497Y0107872D02*
X0277259Y0107872D01*
X0277259Y0108871D02*
X0178497Y0108871D01*
X0178497Y0109869D02*
X0277259Y0109869D01*
X0277259Y0110868D02*
X0178497Y0110868D01*
X0178497Y0111866D02*
X0216770Y0111866D01*
X0216937Y0111699D02*
X0217559Y0111699D01*
X0236456Y0111699D01*
X0236896Y0112138D01*
X0236896Y0127720D01*
X0236456Y0128159D01*
X0216937Y0128159D01*
X0216498Y0127720D01*
X0216498Y0112138D01*
X0216937Y0111699D01*
X0216498Y0112865D02*
X0178497Y0112865D01*
X0178497Y0113863D02*
X0216498Y0113863D01*
X0216498Y0114862D02*
X0178497Y0114862D01*
X0178497Y0115860D02*
X0216498Y0115860D01*
X0216498Y0116859D02*
X0178497Y0116859D01*
X0178497Y0117857D02*
X0216498Y0117857D01*
X0216498Y0118856D02*
X0178497Y0118856D01*
X0177742Y0119854D02*
X0216498Y0119854D01*
X0216498Y0120853D02*
X0141057Y0120853D01*
X0139109Y0120853D02*
X0119048Y0120853D01*
X0119048Y0121851D02*
X0216498Y0121851D01*
X0216498Y0122850D02*
X0119048Y0122850D01*
X0119048Y0123848D02*
X0216498Y0123848D01*
X0216498Y0124847D02*
X0119048Y0124847D01*
X0119048Y0125845D02*
X0216498Y0125845D01*
X0216498Y0126844D02*
X0119048Y0126844D01*
X0119048Y0127842D02*
X0216620Y0127842D01*
X0236773Y0127842D02*
X0277259Y0127842D01*
X0277259Y0126844D02*
X0236896Y0126844D01*
X0236896Y0125845D02*
X0277259Y0125845D01*
X0277259Y0124847D02*
X0236896Y0124847D01*
X0236896Y0123848D02*
X0277259Y0123848D01*
X0277259Y0122850D02*
X0236896Y0122850D01*
X0236896Y0121851D02*
X0277259Y0121851D01*
X0277259Y0120853D02*
X0236896Y0120853D01*
X0236896Y0119854D02*
X0277259Y0119854D01*
X0277259Y0118856D02*
X0236896Y0118856D01*
X0236896Y0117857D02*
X0277259Y0117857D01*
X0277259Y0116859D02*
X0236896Y0116859D01*
X0236896Y0115860D02*
X0277259Y0115860D01*
X0277259Y0114862D02*
X0236896Y0114862D01*
X0236896Y0113863D02*
X0277259Y0113863D01*
X0277259Y0112865D02*
X0236896Y0112865D01*
X0236624Y0111866D02*
X0277259Y0111866D01*
X0277259Y0128841D02*
X0119048Y0128841D01*
X0119526Y0129839D02*
X0277259Y0129839D01*
X0277259Y0130838D02*
X0119929Y0130838D01*
X0119929Y0131836D02*
X0277259Y0131836D01*
X0277259Y0132835D02*
X0119533Y0132835D01*
X0118250Y0133834D02*
X0120936Y0133834D01*
X0119834Y0134832D02*
X0117576Y0134832D01*
X0118304Y0135831D02*
X0119105Y0135831D01*
X0119115Y0140823D02*
X0118294Y0140823D01*
X0117552Y0141822D02*
X0119857Y0141822D01*
X0120993Y0142820D02*
X0116417Y0142820D01*
X0110993Y0142820D02*
X0106417Y0142820D01*
X0107552Y0141822D02*
X0109857Y0141822D01*
X0109115Y0140823D02*
X0108294Y0140823D01*
X0108304Y0135831D02*
X0109105Y0135831D01*
X0109834Y0134832D02*
X0107576Y0134832D01*
X0106474Y0133834D02*
X0110936Y0133834D01*
X0111905Y0132835D02*
X0091381Y0132835D01*
X0092537Y0131836D02*
X0111905Y0131836D01*
X0111905Y0130838D02*
X0093288Y0130838D01*
X0093702Y0129839D02*
X0093839Y0129839D01*
X0097350Y0129839D02*
X0111905Y0129839D01*
X0111905Y0128841D02*
X0098067Y0128841D01*
X0098276Y0127842D02*
X0111905Y0127842D01*
X0111905Y0126844D02*
X0099099Y0126844D01*
X0100098Y0125845D02*
X0105987Y0125845D01*
X0105303Y0124847D02*
X0101096Y0124847D01*
X0101331Y0123848D02*
X0105118Y0123848D01*
X0104237Y0122850D02*
X0101331Y0122850D01*
X0101795Y0121851D02*
X0103568Y0121851D01*
X0102918Y0120853D02*
X0102213Y0120853D01*
X0102213Y0119854D02*
X0102756Y0119854D01*
X0102980Y0118856D02*
X0101826Y0118856D01*
X0100585Y0117857D02*
X0103637Y0117857D01*
X0103637Y0116859D02*
X0097809Y0116859D01*
X0097882Y0117857D02*
X0098478Y0117857D01*
X0097286Y0115860D02*
X0103637Y0115860D01*
X0103637Y0114862D02*
X0095041Y0114862D01*
X0094043Y0113863D02*
X0103484Y0113863D01*
X0103239Y0112865D02*
X0093044Y0112865D01*
X0092507Y0111866D02*
X0103239Y0111866D01*
X0103239Y0110868D02*
X0093276Y0110868D01*
X0096840Y0109869D02*
X0103862Y0109869D01*
X0107237Y0112865D02*
X0111905Y0112865D01*
X0111905Y0113863D02*
X0107237Y0113863D01*
X0107237Y0114862D02*
X0111905Y0114862D01*
X0111905Y0115860D02*
X0107237Y0115860D01*
X0107237Y0116859D02*
X0111905Y0116859D01*
X0111905Y0117857D02*
X0107237Y0117857D01*
X0107894Y0118856D02*
X0111905Y0118856D01*
X0111905Y0119854D02*
X0108118Y0119854D01*
X0107956Y0120853D02*
X0111905Y0120853D01*
X0111905Y0121851D02*
X0109576Y0121851D01*
X0110280Y0122850D02*
X0111905Y0122850D01*
X0111905Y0123848D02*
X0110480Y0123848D01*
X0110295Y0124847D02*
X0111905Y0124847D01*
X0111905Y0125845D02*
X0109612Y0125845D01*
X0119048Y0119854D02*
X0137802Y0119854D01*
X0137402Y0118856D02*
X0119048Y0118856D01*
X0119048Y0117857D02*
X0137402Y0117857D01*
X0135220Y0116859D02*
X0119048Y0116859D01*
X0119048Y0115860D02*
X0134221Y0115860D01*
X0133222Y0114862D02*
X0126107Y0114862D01*
X0126814Y0113863D02*
X0132224Y0113863D01*
X0131225Y0112865D02*
X0127016Y0112865D01*
X0127856Y0111866D02*
X0130227Y0111866D01*
X0129228Y0110868D02*
X0128855Y0110868D01*
X0125761Y0108871D02*
X0115849Y0108871D01*
X0115642Y0109869D02*
X0115505Y0109869D01*
X0116800Y0107872D02*
X0126759Y0107872D01*
X0127758Y0106874D02*
X0117751Y0106874D01*
X0118702Y0105875D02*
X0128756Y0105875D01*
X0129755Y0104877D02*
X0119652Y0104877D01*
X0120603Y0103878D02*
X0130546Y0103878D01*
X0131293Y0102880D02*
X0122222Y0102880D01*
X0123733Y0101881D02*
X0174897Y0101881D01*
X0174897Y0100883D02*
X0166858Y0100883D01*
X0167678Y0099884D02*
X0174897Y0099884D01*
X0174897Y0098886D02*
X0167961Y0098886D01*
X0167858Y0097887D02*
X0174897Y0097887D01*
X0174897Y0096889D02*
X0167290Y0096889D01*
X0163701Y0100883D02*
X0124216Y0100883D01*
X0124260Y0099884D02*
X0131033Y0099884D01*
X0134699Y0102880D02*
X0174897Y0102880D01*
X0174897Y0103878D02*
X0135446Y0103878D01*
X0135677Y0104877D02*
X0174897Y0104877D01*
X0174897Y0105875D02*
X0135523Y0105875D01*
X0134883Y0106874D02*
X0156827Y0106874D01*
X0160346Y0106874D02*
X0174897Y0106874D01*
X0174897Y0107872D02*
X0161061Y0107872D01*
X0161268Y0108871D02*
X0174897Y0108871D01*
X0174897Y0109869D02*
X0161089Y0109869D01*
X0160416Y0110868D02*
X0174897Y0110868D01*
X0174897Y0111866D02*
X0135318Y0111866D01*
X0134432Y0110868D02*
X0156757Y0110868D01*
X0157230Y0112865D02*
X0136317Y0112865D01*
X0124762Y0109869D02*
X0118854Y0109869D01*
X0119658Y0110868D02*
X0122518Y0110868D01*
X0121837Y0111866D02*
X0119929Y0111866D01*
X0119815Y0112865D02*
X0121654Y0112865D01*
X0121855Y0113863D02*
X0119232Y0113863D01*
X0119048Y0114862D02*
X0122562Y0114862D01*
X0111905Y0111866D02*
X0109746Y0111866D01*
X0110745Y0110868D02*
X0111905Y0110868D01*
X0111905Y0109869D02*
X0111679Y0109869D01*
X0129570Y0092895D02*
X0154335Y0092895D01*
X0155334Y0091896D02*
X0134887Y0091896D01*
X0134908Y0091887D02*
X0133923Y0092295D01*
X0132856Y0092295D01*
X0131871Y0091887D01*
X0131117Y0091133D01*
X0130709Y0090147D01*
X0130709Y0089081D01*
X0131044Y0088270D01*
X0130736Y0087345D01*
X0130296Y0087163D01*
X0129542Y0086408D01*
X0129134Y0085423D01*
X0129134Y0084356D01*
X0129542Y0083371D01*
X0130296Y0082617D01*
X0131282Y0082209D01*
X0132348Y0082209D01*
X0133334Y0082617D01*
X0134088Y0083371D01*
X0134496Y0084356D01*
X0134496Y0085423D01*
X0134160Y0086234D01*
X0134469Y0087159D01*
X0134908Y0087341D01*
X0135663Y0088095D01*
X0136071Y0089081D01*
X0136071Y0090147D01*
X0135663Y0091133D01*
X0134908Y0091887D01*
X0135760Y0090898D02*
X0156332Y0090898D01*
X0157331Y0089899D02*
X0136071Y0089899D01*
X0135996Y0088900D02*
X0158330Y0088900D01*
X0159328Y0087902D02*
X0135469Y0087902D01*
X0134384Y0086903D02*
X0160327Y0086903D01*
X0161325Y0085905D02*
X0134296Y0085905D01*
X0134496Y0084906D02*
X0162324Y0084906D01*
X0163322Y0083908D02*
X0134310Y0083908D01*
X0133626Y0082909D02*
X0157255Y0082909D01*
X0157068Y0082832D02*
X0158053Y0083240D01*
X0159120Y0083240D01*
X0160105Y0082832D01*
X0160860Y0082078D01*
X0161268Y0081092D01*
X0161268Y0080026D01*
X0160860Y0079040D01*
X0160105Y0078286D01*
X0159120Y0077878D01*
X0158053Y0077878D01*
X0157068Y0078286D01*
X0156595Y0078759D01*
X0142797Y0078759D01*
X0140402Y0076364D01*
X0140402Y0075695D01*
X0139993Y0074710D01*
X0139239Y0073955D01*
X0138254Y0073547D01*
X0137187Y0073547D01*
X0136202Y0073955D01*
X0135448Y0074710D01*
X0135039Y0075695D01*
X0135039Y0076762D01*
X0135448Y0077747D01*
X0136202Y0078501D01*
X0137187Y0078909D01*
X0137856Y0078909D01*
X0141306Y0082359D01*
X0156595Y0082359D01*
X0157068Y0082832D01*
X0159918Y0082909D02*
X0167799Y0082909D01*
X0171422Y0082909D02*
X0182431Y0082909D01*
X0183429Y0081911D02*
X0160929Y0081911D01*
X0161268Y0080912D02*
X0184428Y0080912D01*
X0185426Y0079914D02*
X0161221Y0079914D01*
X0160735Y0078915D02*
X0186425Y0078915D01*
X0187423Y0077917D02*
X0159214Y0077917D01*
X0157959Y0077917D02*
X0141955Y0077917D01*
X0140956Y0076918D02*
X0188422Y0076918D01*
X0189420Y0075920D02*
X0140402Y0075920D01*
X0140081Y0074921D02*
X0190419Y0074921D01*
X0191417Y0073923D02*
X0139160Y0073923D01*
X0136280Y0073923D02*
X0125003Y0073923D01*
X0126002Y0074921D02*
X0135360Y0074921D01*
X0135039Y0075920D02*
X0126533Y0075920D01*
X0127596Y0076918D02*
X0135104Y0076918D01*
X0135617Y0077917D02*
X0127814Y0077917D01*
X0127898Y0078915D02*
X0137862Y0078915D01*
X0138860Y0079914D02*
X0128050Y0079914D01*
X0128201Y0080912D02*
X0139859Y0080912D01*
X0140857Y0081911D02*
X0128502Y0081911D01*
X0128504Y0082909D02*
X0130004Y0082909D01*
X0129320Y0083908D02*
X0128655Y0083908D01*
X0128806Y0084906D02*
X0129134Y0084906D01*
X0128958Y0085905D02*
X0129333Y0085905D01*
X0129109Y0086903D02*
X0130037Y0086903D01*
X0129260Y0087902D02*
X0130922Y0087902D01*
X0130783Y0088900D02*
X0129775Y0088900D01*
X0130409Y0089899D02*
X0130709Y0089899D01*
X0130559Y0090898D02*
X0131019Y0090898D01*
X0130324Y0091896D02*
X0131893Y0091896D01*
X0156431Y0095890D02*
X0174897Y0095890D01*
X0174897Y0094892D02*
X0157430Y0094892D01*
X0158428Y0093893D02*
X0174897Y0093893D01*
X0174897Y0092895D02*
X0159427Y0092895D01*
X0160425Y0091896D02*
X0174897Y0091896D01*
X0174897Y0090898D02*
X0161424Y0090898D01*
X0162422Y0089899D02*
X0175441Y0089899D01*
X0176440Y0088900D02*
X0163421Y0088900D01*
X0164419Y0087902D02*
X0177438Y0087902D01*
X0178437Y0086903D02*
X0171388Y0086903D01*
X0172092Y0085905D02*
X0179435Y0085905D01*
X0180434Y0084906D02*
X0172291Y0084906D01*
X0172106Y0083908D02*
X0181432Y0083908D01*
X0167832Y0086903D02*
X0165418Y0086903D01*
X0192416Y0072924D02*
X0120797Y0072924D01*
X0120280Y0071926D02*
X0193414Y0071926D01*
X0195749Y0061941D02*
X0136779Y0061941D01*
X0134725Y0061941D02*
X0131253Y0061941D01*
X0131253Y0062939D02*
X0133462Y0062939D01*
X0133071Y0063938D02*
X0131253Y0063938D01*
X0131253Y0064936D02*
X0133071Y0064936D01*
X0133479Y0065935D02*
X0131612Y0065935D01*
X0127653Y0064936D02*
X0125937Y0064936D01*
X0124939Y0065935D02*
X0127293Y0065935D01*
X0126813Y0066933D02*
X0123940Y0066933D01*
X0122942Y0067932D02*
X0126772Y0067932D01*
X0127115Y0068930D02*
X0121943Y0068930D01*
X0120945Y0069929D02*
X0128149Y0069929D01*
X0131253Y0060942D02*
X0277259Y0060942D01*
X0277259Y0059944D02*
X0131253Y0059944D01*
X0131253Y0058945D02*
X0277259Y0058945D01*
X0277259Y0057947D02*
X0131253Y0057947D01*
X0131253Y0056948D02*
X0143927Y0056948D01*
X0143269Y0056676D02*
X0141919Y0055325D01*
X0141188Y0053561D01*
X0141188Y0051652D01*
X0141919Y0049887D01*
X0143269Y0048537D01*
X0145033Y0047806D01*
X0146943Y0047806D01*
X0148707Y0048537D01*
X0150057Y0049887D01*
X0150788Y0051652D01*
X0150788Y0053561D01*
X0150057Y0055325D01*
X0148707Y0056676D01*
X0146943Y0057406D01*
X0145033Y0057406D01*
X0143269Y0056676D01*
X0142543Y0055950D02*
X0131253Y0055950D01*
X0131253Y0054951D02*
X0141764Y0054951D01*
X0141350Y0053953D02*
X0131253Y0053953D01*
X0131253Y0052954D02*
X0141188Y0052954D01*
X0141188Y0051956D02*
X0131253Y0051956D01*
X0131253Y0050957D02*
X0141476Y0050957D01*
X0141889Y0049959D02*
X0131253Y0049959D01*
X0131253Y0048960D02*
X0142846Y0048960D01*
X0144659Y0047962D02*
X0131253Y0047962D01*
X0131253Y0046963D02*
X0177610Y0046963D01*
X0178103Y0047962D02*
X0163066Y0047962D01*
X0162691Y0047806D02*
X0164455Y0048537D01*
X0165805Y0049887D01*
X0166536Y0051652D01*
X0166536Y0053561D01*
X0165805Y0055325D01*
X0164455Y0056676D01*
X0162691Y0057406D01*
X0160781Y0057406D01*
X0159017Y0056676D01*
X0157667Y0055325D01*
X0156936Y0053561D01*
X0156936Y0051652D01*
X0157667Y0049887D01*
X0159017Y0048537D01*
X0160781Y0047806D01*
X0162691Y0047806D01*
X0160407Y0047962D02*
X0147318Y0047962D01*
X0149130Y0048960D02*
X0158594Y0048960D01*
X0157637Y0049959D02*
X0150087Y0049959D01*
X0150501Y0050957D02*
X0157224Y0050957D01*
X0156936Y0051956D02*
X0150788Y0051956D01*
X0150788Y0052954D02*
X0156936Y0052954D01*
X0157098Y0053953D02*
X0150626Y0053953D01*
X0150212Y0054951D02*
X0157512Y0054951D01*
X0158291Y0055950D02*
X0149433Y0055950D01*
X0148049Y0056948D02*
X0159675Y0056948D01*
X0163797Y0056948D02*
X0197326Y0056948D01*
X0196642Y0055950D02*
X0165181Y0055950D01*
X0165960Y0054951D02*
X0196457Y0054951D01*
X0195576Y0053953D02*
X0166374Y0053953D01*
X0166536Y0052954D02*
X0194578Y0052954D01*
X0193579Y0051956D02*
X0166536Y0051956D01*
X0166249Y0050957D02*
X0192581Y0050957D01*
X0191582Y0049959D02*
X0165835Y0049959D01*
X0164878Y0048960D02*
X0179639Y0048960D01*
X0180841Y0048960D02*
X0190584Y0048960D01*
X0189585Y0047962D02*
X0182377Y0047962D01*
X0182870Y0046963D02*
X0188587Y0046963D01*
X0187588Y0045965D02*
X0182921Y0045965D01*
X0182587Y0044966D02*
X0186590Y0044966D01*
X0190682Y0043967D02*
X0199326Y0043967D01*
X0200324Y0042969D02*
X0189684Y0042969D01*
X0188685Y0041970D02*
X0200458Y0041970D01*
X0200015Y0040972D02*
X0187687Y0040972D01*
X0191681Y0044966D02*
X0198327Y0044966D01*
X0197328Y0045965D02*
X0192679Y0045965D01*
X0193678Y0046963D02*
X0196330Y0046963D01*
X0195331Y0047962D02*
X0194676Y0047962D01*
X0198426Y0049959D02*
X0277259Y0049959D01*
X0277259Y0050957D02*
X0197672Y0050957D01*
X0198670Y0051956D02*
X0277259Y0051956D01*
X0277259Y0052954D02*
X0200915Y0052954D01*
X0201619Y0053953D02*
X0277259Y0053953D01*
X0277259Y0054951D02*
X0201819Y0054951D01*
X0201633Y0055950D02*
X0277259Y0055950D01*
X0277259Y0056948D02*
X0200950Y0056948D01*
X0199424Y0048960D02*
X0277259Y0048960D01*
X0277259Y0047962D02*
X0200423Y0047962D01*
X0201421Y0046963D02*
X0277259Y0046963D01*
X0277259Y0045965D02*
X0202420Y0045965D01*
X0203418Y0044966D02*
X0277259Y0044966D01*
X0277259Y0043967D02*
X0204417Y0043967D01*
X0204481Y0042969D02*
X0277259Y0042969D01*
X0277259Y0041970D02*
X0204904Y0041970D01*
X0205347Y0040972D02*
X0277259Y0040972D01*
X0277259Y0039973D02*
X0205362Y0039973D01*
X0204992Y0038975D02*
X0277259Y0038975D01*
X0277259Y0037976D02*
X0203832Y0037976D01*
X0201530Y0037976D02*
X0176917Y0037976D01*
X0176917Y0036978D02*
X0277259Y0036978D01*
X0277259Y0035979D02*
X0275093Y0035979D01*
X0275039Y0036033D02*
X0255520Y0036033D01*
X0255081Y0035594D01*
X0255081Y0019618D01*
X0255520Y0019179D01*
X0256141Y0019179D01*
X0275039Y0019179D01*
X0275478Y0019618D01*
X0275478Y0035594D01*
X0275039Y0036033D01*
X0275478Y0034981D02*
X0277259Y0034981D01*
X0277259Y0033982D02*
X0275478Y0033982D01*
X0275478Y0032984D02*
X0277259Y0032984D01*
X0277259Y0031985D02*
X0275478Y0031985D01*
X0275478Y0030987D02*
X0277259Y0030987D01*
X0277259Y0029988D02*
X0275478Y0029988D01*
X0275478Y0028990D02*
X0277259Y0028990D01*
X0277259Y0027991D02*
X0275478Y0027991D01*
X0275478Y0026993D02*
X0277259Y0026993D01*
X0277259Y0025994D02*
X0275478Y0025994D01*
X0275478Y0024996D02*
X0277259Y0024996D01*
X0277259Y0023997D02*
X0275478Y0023997D01*
X0275478Y0022999D02*
X0277259Y0022999D01*
X0277259Y0022000D02*
X0275478Y0022000D01*
X0275478Y0021002D02*
X0277259Y0021002D01*
X0277259Y0020003D02*
X0275478Y0020003D01*
X0277259Y0019005D02*
X0160058Y0019005D01*
X0160813Y0020003D02*
X0217285Y0020003D01*
X0217285Y0020012D02*
X0217285Y0019618D01*
X0217725Y0019179D01*
X0237244Y0019179D01*
X0237683Y0019618D01*
X0237683Y0035594D01*
X0237244Y0036033D01*
X0217725Y0036033D01*
X0217285Y0035594D01*
X0217285Y0020012D01*
X0217285Y0021002D02*
X0161811Y0021002D01*
X0162810Y0022000D02*
X0217285Y0022000D01*
X0217285Y0022999D02*
X0163808Y0022999D01*
X0164807Y0023997D02*
X0217285Y0023997D01*
X0217285Y0024996D02*
X0165805Y0024996D01*
X0166804Y0025994D02*
X0217285Y0025994D01*
X0217285Y0026993D02*
X0167802Y0026993D01*
X0168801Y0027991D02*
X0217285Y0027991D01*
X0217285Y0028990D02*
X0169799Y0028990D01*
X0172026Y0029988D02*
X0217285Y0029988D01*
X0217285Y0030987D02*
X0173024Y0030987D01*
X0174023Y0031985D02*
X0217285Y0031985D01*
X0217285Y0032984D02*
X0175021Y0032984D01*
X0176020Y0033982D02*
X0217285Y0033982D01*
X0217285Y0034981D02*
X0176917Y0034981D01*
X0176917Y0035979D02*
X0217671Y0035979D01*
X0200370Y0038975D02*
X0176917Y0038975D01*
X0176917Y0039973D02*
X0200000Y0039973D01*
X0174955Y0045965D02*
X0131253Y0045965D01*
X0131253Y0044966D02*
X0164456Y0044966D01*
X0163097Y0043967D02*
X0131253Y0043967D01*
X0131253Y0042969D02*
X0162098Y0042969D01*
X0161485Y0041970D02*
X0131868Y0041970D01*
X0132134Y0040972D02*
X0161071Y0040972D01*
X0160658Y0039973D02*
X0139578Y0039973D01*
X0140235Y0038975D02*
X0160630Y0038975D01*
X0160630Y0037976D02*
X0140402Y0037976D01*
X0140183Y0036978D02*
X0160630Y0036978D01*
X0161036Y0035979D02*
X0139452Y0035979D01*
X0135989Y0035979D02*
X0121086Y0035979D01*
X0122303Y0036978D02*
X0127181Y0036978D01*
X0126183Y0037976D02*
X0122685Y0037976D01*
X0122681Y0038975D02*
X0123938Y0038975D01*
X0123117Y0039973D02*
X0122255Y0039973D01*
X0122835Y0040972D02*
X0121186Y0040972D01*
X0122185Y0041970D02*
X0122258Y0041970D01*
X0118996Y0043873D02*
X0118895Y0043772D01*
X0115462Y0043772D01*
X0115488Y0043798D01*
X0118329Y0045347D01*
X0118683Y0045201D01*
X0119536Y0045201D01*
X0119420Y0045084D01*
X0119420Y0044725D01*
X0118996Y0044301D01*
X0118996Y0043873D01*
X0118996Y0043967D02*
X0115799Y0043967D01*
X0117630Y0044966D02*
X0119420Y0044966D01*
X0113157Y0043772D02*
X0112775Y0043772D01*
X0112744Y0043829D01*
X0112744Y0044017D01*
X0112846Y0044118D01*
X0112968Y0044118D01*
X0113157Y0043772D01*
X0113050Y0043967D02*
X0112744Y0043967D01*
X0107874Y0039973D02*
X0093646Y0039973D01*
X0093905Y0038975D02*
X0107918Y0038975D01*
X0108401Y0037976D02*
X0100119Y0037976D01*
X0101141Y0036978D02*
X0108755Y0036978D01*
X0108641Y0035979D02*
X0101482Y0035979D01*
X0101438Y0034981D02*
X0108017Y0034981D01*
X0107874Y0033982D02*
X0100954Y0033982D01*
X0100833Y0032984D02*
X0108116Y0032984D01*
X0108880Y0031985D02*
X0101832Y0031985D01*
X0102830Y0030987D02*
X0132418Y0030987D01*
X0135936Y0030987D02*
X0166705Y0030987D01*
X0165707Y0029988D02*
X0162516Y0029988D01*
X0160956Y0029988D02*
X0141307Y0029988D01*
X0141533Y0028990D02*
X0159525Y0028990D01*
X0159075Y0027991D02*
X0141760Y0027991D01*
X0141986Y0026993D02*
X0158774Y0026993D01*
X0157775Y0025994D02*
X0142212Y0025994D01*
X0142439Y0024996D02*
X0156777Y0024996D01*
X0155778Y0023997D02*
X0142665Y0023997D01*
X0142891Y0022999D02*
X0154780Y0022999D01*
X0153781Y0022000D02*
X0144301Y0022000D01*
X0145892Y0021002D02*
X0152783Y0021002D01*
X0151784Y0020003D02*
X0146822Y0020003D01*
X0147236Y0019005D02*
X0150327Y0019005D01*
X0149730Y0018006D02*
X0147566Y0018006D01*
X0147566Y0017008D02*
X0149606Y0017008D01*
X0149868Y0016009D02*
X0147512Y0016009D01*
X0147099Y0015011D02*
X0150658Y0015011D01*
X0151826Y0011017D02*
X0152684Y0011017D01*
X0156615Y0011017D02*
X0277259Y0011017D01*
X0277259Y0012015D02*
X0157549Y0012015D01*
X0158547Y0013014D02*
X0277259Y0013014D01*
X0277259Y0014012D02*
X0160649Y0014012D01*
X0161706Y0015011D02*
X0277259Y0015011D01*
X0277259Y0016009D02*
X0162055Y0016009D01*
X0162018Y0017008D02*
X0277259Y0017008D01*
X0277259Y0018006D02*
X0161545Y0018006D01*
X0163947Y0028990D02*
X0164708Y0028990D01*
X0164250Y0031985D02*
X0112230Y0031985D01*
X0112994Y0032984D02*
X0163012Y0032984D01*
X0162013Y0033982D02*
X0113236Y0033982D01*
X0114438Y0034981D02*
X0161450Y0034981D01*
X0172974Y0043967D02*
X0173317Y0043967D01*
X0173957Y0044966D02*
X0171615Y0044966D01*
X0135863Y0039973D02*
X0132014Y0039973D01*
X0118922Y0035979D02*
X0115292Y0035979D01*
X0100019Y0024996D02*
X0099806Y0024996D01*
X0099606Y0023997D02*
X0098574Y0023997D01*
X0099606Y0022999D02*
X0097342Y0022999D01*
X0096508Y0022000D02*
X0096110Y0022000D01*
X0095199Y0021002D02*
X0094878Y0021002D01*
X0094200Y0020003D02*
X0093646Y0020003D01*
X0096296Y0017008D02*
X0096659Y0017008D01*
X0095297Y0016009D02*
X0117220Y0016009D01*
X0117166Y0017008D02*
X0098466Y0017008D01*
X0099825Y0018006D02*
X0117166Y0018006D01*
X0117496Y0019005D02*
X0100244Y0019005D01*
X0100244Y0020003D02*
X0111829Y0020003D01*
X0114793Y0020003D02*
X0117910Y0020003D01*
X0118841Y0021002D02*
X0115679Y0021002D01*
X0115992Y0022000D02*
X0120431Y0022000D01*
X0115920Y0022999D02*
X0130154Y0022999D01*
X0130224Y0022000D02*
X0124301Y0022000D01*
X0125892Y0021002D02*
X0128841Y0021002D01*
X0127910Y0020003D02*
X0126822Y0020003D01*
X0127236Y0019005D02*
X0127496Y0019005D01*
X0126629Y0014012D02*
X0126559Y0014012D01*
X0125560Y0013014D02*
X0127627Y0013014D01*
X0119172Y0013014D02*
X0092302Y0013014D01*
X0093300Y0014012D02*
X0118173Y0014012D01*
X0117633Y0015011D02*
X0094299Y0015011D01*
X0099858Y0021002D02*
X0101246Y0021002D01*
X0099995Y0022000D02*
X0098618Y0022000D01*
X0096120Y0035979D02*
X0093366Y0035979D01*
X0093779Y0036978D02*
X0096461Y0036978D01*
X0097483Y0037976D02*
X0093905Y0037976D01*
X0085006Y0041970D02*
X0079589Y0041970D01*
X0083790Y0040972D02*
X0084177Y0040972D01*
X0034571Y0049959D02*
X0003300Y0049959D01*
X0003300Y0048960D02*
X0032499Y0048960D01*
X0031500Y0047962D02*
X0003300Y0047962D01*
X0003300Y0046963D02*
X0030592Y0046963D01*
X0030178Y0045965D02*
X0003300Y0045965D01*
X0003300Y0044966D02*
X0029764Y0044966D01*
X0029528Y0043967D02*
X0003300Y0043967D01*
X0003300Y0042969D02*
X0029528Y0042969D01*
X0029528Y0041970D02*
X0003300Y0041970D01*
X0003300Y0040972D02*
X0029725Y0040972D01*
X0030138Y0039973D02*
X0003300Y0039973D01*
X0003300Y0038975D02*
X0030552Y0038975D01*
X0031405Y0037976D02*
X0003300Y0037976D01*
X0003300Y0036978D02*
X0032403Y0036978D01*
X0031628Y0012015D02*
X0003300Y0012015D01*
X0003300Y0011017D02*
X0032064Y0011017D01*
X0032781Y0010018D02*
X0003300Y0010018D01*
X0003300Y0009020D02*
X0033962Y0009020D01*
X0003300Y0008021D02*
X0277259Y0008021D01*
X0277259Y0007023D02*
X0003300Y0007023D01*
X0003300Y0006024D02*
X0277259Y0006024D01*
X0277259Y0005026D02*
X0003300Y0005026D01*
X0003300Y0104877D02*
X0032694Y0104877D01*
X0031695Y0105875D02*
X0003300Y0105875D01*
X0003300Y0106874D02*
X0030697Y0106874D01*
X0030259Y0107872D02*
X0003300Y0107872D01*
X0003300Y0108871D02*
X0029845Y0108871D01*
X0029528Y0109869D02*
X0003300Y0109869D01*
X0003300Y0110868D02*
X0029528Y0110868D01*
X0029528Y0111866D02*
X0003300Y0111866D01*
X0003300Y0112865D02*
X0029644Y0112865D01*
X0030058Y0113863D02*
X0003300Y0113863D01*
X0003300Y0114862D02*
X0030471Y0114862D01*
X0031210Y0115860D02*
X0003300Y0115860D01*
X0003300Y0116859D02*
X0032209Y0116859D01*
X0033870Y0117857D02*
X0003300Y0117857D01*
X0038976Y0134832D02*
X0062545Y0134832D01*
X0060973Y0135831D02*
X0040702Y0135831D01*
X0041701Y0136829D02*
X0059975Y0136829D01*
X0059517Y0137828D02*
X0042202Y0137828D01*
X0042615Y0138826D02*
X0059103Y0138826D01*
X0058996Y0139825D02*
X0042733Y0139825D01*
X0042733Y0140823D02*
X0058996Y0140823D01*
X0059153Y0141822D02*
X0042566Y0141822D01*
X0042152Y0142820D02*
X0059566Y0142820D01*
X0060095Y0143819D02*
X0041581Y0143819D01*
X0040582Y0144817D02*
X0061093Y0144817D01*
X0062835Y0145816D02*
X0038686Y0145816D01*
X0096417Y0142820D02*
X0100993Y0142820D01*
X0099857Y0141822D02*
X0097552Y0141822D01*
X0098294Y0140823D02*
X0099115Y0140823D01*
X0099105Y0135831D02*
X0098304Y0135831D01*
X0097576Y0134832D02*
X0099834Y0134832D01*
X0100936Y0133834D02*
X0096474Y0133834D01*
X0126474Y0133834D02*
X0131514Y0133834D01*
X0133205Y0133834D02*
X0134205Y0133834D01*
X0134205Y0133345D02*
X0134873Y0133450D01*
X0135619Y0133693D01*
X0136319Y0134049D01*
X0136954Y0134511D01*
X0137509Y0135066D01*
X0137970Y0135701D01*
X0138327Y0136400D01*
X0138569Y0137147D01*
X0138675Y0137815D01*
X0134205Y0137815D01*
X0134205Y0133345D01*
X0134205Y0134832D02*
X0133205Y0134832D01*
X0133205Y0135831D02*
X0134205Y0135831D01*
X0134205Y0136829D02*
X0133205Y0136829D01*
X0134205Y0137828D02*
X0143205Y0137828D01*
X0143205Y0137815D02*
X0138734Y0137815D01*
X0138840Y0137147D01*
X0139083Y0136400D01*
X0139439Y0135701D01*
X0139901Y0135066D01*
X0140456Y0134511D01*
X0141091Y0134049D01*
X0141790Y0133693D01*
X0142537Y0133450D01*
X0143205Y0133345D01*
X0143205Y0137815D01*
X0144205Y0137815D01*
X0144205Y0138815D01*
X0148675Y0138815D01*
X0148569Y0139483D01*
X0148327Y0140229D01*
X0147970Y0140929D01*
X0147509Y0141564D01*
X0146954Y0142119D01*
X0146319Y0142581D01*
X0145619Y0142937D01*
X0144873Y0143180D01*
X0144205Y0143285D01*
X0144205Y0138815D01*
X0143205Y0138815D01*
X0143205Y0143285D01*
X0142537Y0143180D01*
X0141790Y0142937D01*
X0141091Y0142581D01*
X0140456Y0142119D01*
X0139901Y0141564D01*
X0139439Y0140929D01*
X0139083Y0140229D01*
X0138840Y0139483D01*
X0138734Y0138815D01*
X0143205Y0138815D01*
X0143205Y0137815D01*
X0143205Y0136829D02*
X0144205Y0136829D01*
X0144205Y0137815D02*
X0144205Y0133345D01*
X0144873Y0133450D01*
X0145619Y0133693D01*
X0146319Y0134049D01*
X0146954Y0134511D01*
X0147509Y0135066D01*
X0147970Y0135701D01*
X0148327Y0136400D01*
X0148569Y0137147D01*
X0148675Y0137815D01*
X0144205Y0137815D01*
X0144205Y0137828D02*
X0277259Y0137828D01*
X0277259Y0138826D02*
X0148673Y0138826D01*
X0148458Y0139825D02*
X0277259Y0139825D01*
X0277259Y0140823D02*
X0148024Y0140823D01*
X0147251Y0141822D02*
X0277259Y0141822D01*
X0277259Y0142820D02*
X0145849Y0142820D01*
X0144205Y0142820D02*
X0143205Y0142820D01*
X0143205Y0141822D02*
X0144205Y0141822D01*
X0144205Y0140823D02*
X0143205Y0140823D01*
X0143205Y0139825D02*
X0144205Y0139825D01*
X0144205Y0138826D02*
X0143205Y0138826D01*
X0148466Y0136829D02*
X0277259Y0136829D01*
X0277259Y0135831D02*
X0148036Y0135831D01*
X0147275Y0134832D02*
X0277259Y0134832D01*
X0277259Y0133834D02*
X0145895Y0133834D01*
X0144205Y0133834D02*
X0143205Y0133834D01*
X0143205Y0134832D02*
X0144205Y0134832D01*
X0144205Y0135831D02*
X0143205Y0135831D01*
X0141514Y0133834D02*
X0135895Y0133834D01*
X0137275Y0134832D02*
X0140134Y0134832D01*
X0139373Y0135831D02*
X0138036Y0135831D01*
X0138466Y0136829D02*
X0138943Y0136829D01*
X0138736Y0138826D02*
X0138673Y0138826D01*
X0138458Y0139825D02*
X0138951Y0139825D01*
X0139385Y0140823D02*
X0138024Y0140823D01*
X0137251Y0141822D02*
X0140158Y0141822D01*
X0141561Y0142820D02*
X0135849Y0142820D01*
X0134205Y0142820D02*
X0133205Y0142820D01*
X0133205Y0141822D02*
X0134205Y0141822D01*
X0134205Y0140823D02*
X0133205Y0140823D01*
X0133205Y0139825D02*
X0134205Y0139825D01*
X0134205Y0138826D02*
X0133205Y0138826D01*
X0129385Y0140823D02*
X0128294Y0140823D01*
X0128708Y0139825D02*
X0128951Y0139825D01*
X0128943Y0136829D02*
X0128718Y0136829D01*
X0128304Y0135831D02*
X0129373Y0135831D01*
X0130134Y0134832D02*
X0127576Y0134832D01*
X0127552Y0141822D02*
X0130158Y0141822D01*
X0131561Y0142820D02*
X0126417Y0142820D01*
X0161217Y0115860D02*
X0174897Y0115860D01*
X0174897Y0114862D02*
X0161268Y0114862D01*
X0160933Y0113863D02*
X0174897Y0113863D01*
X0174897Y0112865D02*
X0159944Y0112865D01*
X0237298Y0035979D02*
X0255466Y0035979D01*
X0255081Y0034981D02*
X0237683Y0034981D01*
X0237683Y0033982D02*
X0255081Y0033982D01*
X0255081Y0032984D02*
X0237683Y0032984D01*
X0237683Y0031985D02*
X0255081Y0031985D01*
X0255081Y0030987D02*
X0237683Y0030987D01*
X0237683Y0029988D02*
X0255081Y0029988D01*
X0255081Y0028990D02*
X0237683Y0028990D01*
X0237683Y0027991D02*
X0255081Y0027991D01*
X0255081Y0026993D02*
X0237683Y0026993D01*
X0237683Y0025994D02*
X0255081Y0025994D01*
X0255081Y0024996D02*
X0237683Y0024996D01*
X0237683Y0023997D02*
X0255081Y0023997D01*
X0255081Y0022999D02*
X0237683Y0022999D01*
X0237683Y0022000D02*
X0255081Y0022000D01*
X0255081Y0021002D02*
X0237683Y0021002D01*
X0237683Y0020003D02*
X0255081Y0020003D01*
D16*
X0240870Y0104575D03*
X0237327Y0104575D03*
X0233783Y0104575D03*
X0230240Y0104575D03*
X0226697Y0104575D03*
X0223154Y0104575D03*
X0219217Y0104575D03*
X0215673Y0104575D03*
X0212917Y0106937D03*
X0210555Y0109299D03*
X0208193Y0111661D03*
X0205831Y0114417D03*
X0210555Y0118748D03*
X0212917Y0116386D03*
X0215280Y0114024D03*
X0219217Y0110480D03*
X0223154Y0110480D03*
X0226697Y0110480D03*
X0230240Y0110480D03*
X0233783Y0110480D03*
X0237327Y0110480D03*
X0240870Y0110480D03*
X0208193Y0121110D03*
X0205831Y0123472D03*
M02*
