G75*
%MOIN*%
%OFA0B0*%
%FSLAX25Y25*%
%IPPOS*%
%LPD*%
%AMOC8*
5,1,8,0,0,1.08239X$1,22.5*
%
%ADD10C,0.12211*%
%ADD11R,0.04731X0.04337*%
%ADD12C,0.01301*%
%ADD13C,0.07800*%
%ADD14R,0.04337X0.04731*%
%ADD15R,0.05400X0.02600*%
%ADD16R,0.02600X0.05400*%
%ADD17R,0.03156X0.01502*%
%ADD18R,0.01502X0.03156*%
%ADD19C,0.02172*%
%ADD20R,0.06040X0.13760*%
%ADD21R,0.08274X0.03156*%
%ADD22R,0.03156X0.08274*%
%ADD23R,0.03746X0.03943*%
%ADD24R,0.03943X0.03746*%
%ADD25C,0.07000*%
%ADD26R,0.03550X0.04337*%
%ADD27R,0.08077X0.04337*%
%ADD28R,0.10243X0.06699*%
%ADD29C,0.09000*%
%ADD30C,0.09258*%
%ADD31R,0.03550X0.03943*%
%ADD32R,0.01778X0.02369*%
%ADD33R,0.01982X0.01568*%
%ADD34R,0.01977X0.01574*%
%ADD35R,0.01984X0.01582*%
%ADD36R,0.01962X0.01581*%
%ADD37R,0.01967X0.01575*%
%ADD38R,0.01967X0.01573*%
%ADD39R,0.01965X0.01582*%
%ADD40R,0.01973X0.01579*%
%ADD41R,0.01570X0.01969*%
%ADD42R,0.01568X0.01974*%
%ADD43R,0.01577X0.01970*%
%ADD44R,0.01582X0.01969*%
D10*
X0036933Y0042921D03*
X0036933Y0111110D03*
X0168035Y0038433D03*
D11*
X0153272Y0032921D03*
X0146579Y0032921D03*
X0137051Y0033315D03*
X0130358Y0033315D03*
X0122051Y0033315D03*
X0115358Y0033315D03*
X0109965Y0017173D03*
X0103272Y0017173D03*
X0115358Y0053315D03*
X0122051Y0053315D03*
X0185949Y0048669D03*
X0192642Y0048669D03*
X0192642Y0036858D03*
X0185949Y0036858D03*
X0185949Y0060480D03*
X0192642Y0060480D03*
X0116539Y0118315D03*
X0109846Y0118315D03*
X0107051Y0128315D03*
X0100358Y0128315D03*
X0130831Y0127016D03*
X0137524Y0127016D03*
D12*
X0130088Y0118416D02*
X0130088Y0115380D01*
X0130088Y0118416D02*
X0133124Y0118416D01*
X0133124Y0115380D01*
X0130088Y0115380D01*
X0130088Y0116680D02*
X0133124Y0116680D01*
X0133124Y0117980D02*
X0130088Y0117980D01*
X0123183Y0118416D02*
X0123183Y0115380D01*
X0123183Y0118416D02*
X0126219Y0118416D01*
X0126219Y0115380D01*
X0123183Y0115380D01*
X0123183Y0116680D02*
X0126219Y0116680D01*
X0126219Y0117980D02*
X0123183Y0117980D01*
D13*
X0123705Y0138315D03*
X0133705Y0138315D03*
X0143705Y0138315D03*
X0113705Y0138315D03*
X0103705Y0138315D03*
X0093705Y0138315D03*
X0088705Y0128315D03*
X0088705Y0118315D03*
X0088705Y0108315D03*
X0088705Y0098315D03*
X0088705Y0088315D03*
X0088705Y0078315D03*
X0088705Y0068315D03*
X0088705Y0058315D03*
X0088705Y0048315D03*
X0088705Y0038315D03*
X0088705Y0028315D03*
X0088705Y0018315D03*
X0122366Y0017173D03*
X0132366Y0017173D03*
X0142366Y0017173D03*
D14*
X0188508Y0017764D03*
X0197563Y0017764D03*
X0197563Y0024457D03*
X0188508Y0024457D03*
X0177091Y0052803D03*
X0177091Y0059496D03*
X0139335Y0103906D03*
X0139335Y0110598D03*
X0077878Y0033118D03*
X0077878Y0026425D03*
D15*
G36*
X0123849Y0065742D02*
X0120032Y0069559D01*
X0121871Y0071398D01*
X0125688Y0067581D01*
X0123849Y0065742D01*
G37*
G36*
X0126076Y0067969D02*
X0122259Y0071786D01*
X0124098Y0073625D01*
X0127915Y0069808D01*
X0126076Y0067969D01*
G37*
G36*
X0128303Y0070196D02*
X0124486Y0074013D01*
X0126325Y0075852D01*
X0130142Y0072035D01*
X0128303Y0070196D01*
G37*
G36*
X0130530Y0072423D02*
X0126713Y0076240D01*
X0128552Y0078079D01*
X0132369Y0074262D01*
X0130530Y0072423D01*
G37*
G36*
X0132757Y0074650D02*
X0128940Y0078467D01*
X0130779Y0080306D01*
X0134596Y0076489D01*
X0132757Y0074650D01*
G37*
G36*
X0134984Y0076878D02*
X0131167Y0080695D01*
X0133006Y0082534D01*
X0136823Y0078717D01*
X0134984Y0076878D01*
G37*
G36*
X0137212Y0079105D02*
X0133395Y0082922D01*
X0135234Y0084761D01*
X0139051Y0080944D01*
X0137212Y0079105D01*
G37*
G36*
X0139439Y0081332D02*
X0135622Y0085149D01*
X0137461Y0086988D01*
X0141278Y0083171D01*
X0139439Y0081332D01*
G37*
G36*
X0108857Y0098551D02*
X0105040Y0102368D01*
X0106879Y0104207D01*
X0110696Y0100390D01*
X0108857Y0098551D01*
G37*
G36*
X0106630Y0096324D02*
X0102813Y0100141D01*
X0104652Y0101980D01*
X0108469Y0098163D01*
X0106630Y0096324D01*
G37*
G36*
X0104403Y0094096D02*
X0100586Y0097913D01*
X0102425Y0099752D01*
X0106242Y0095935D01*
X0104403Y0094096D01*
G37*
G36*
X0102176Y0091869D02*
X0098359Y0095686D01*
X0100198Y0097525D01*
X0104015Y0093708D01*
X0102176Y0091869D01*
G37*
G36*
X0099949Y0089642D02*
X0096132Y0093459D01*
X0097971Y0095298D01*
X0101788Y0091481D01*
X0099949Y0089642D01*
G37*
G36*
X0111084Y0100778D02*
X0107267Y0104595D01*
X0109106Y0106434D01*
X0112923Y0102617D01*
X0111084Y0100778D01*
G37*
G36*
X0113311Y0103005D02*
X0109494Y0106822D01*
X0111333Y0108661D01*
X0115150Y0104844D01*
X0113311Y0103005D01*
G37*
G36*
X0115538Y0105232D02*
X0111721Y0109049D01*
X0113560Y0110888D01*
X0117377Y0107071D01*
X0115538Y0105232D01*
G37*
D16*
G36*
X0121871Y0105232D02*
X0120032Y0107071D01*
X0123849Y0110888D01*
X0125688Y0109049D01*
X0121871Y0105232D01*
G37*
G36*
X0124098Y0103005D02*
X0122259Y0104844D01*
X0126076Y0108661D01*
X0127915Y0106822D01*
X0124098Y0103005D01*
G37*
G36*
X0126325Y0100778D02*
X0124486Y0102617D01*
X0128303Y0106434D01*
X0130142Y0104595D01*
X0126325Y0100778D01*
G37*
G36*
X0128552Y0098551D02*
X0126713Y0100390D01*
X0130530Y0104207D01*
X0132369Y0102368D01*
X0128552Y0098551D01*
G37*
G36*
X0130779Y0096324D02*
X0128940Y0098163D01*
X0132757Y0101980D01*
X0134596Y0100141D01*
X0130779Y0096324D01*
G37*
G36*
X0133006Y0094096D02*
X0131167Y0095935D01*
X0134984Y0099752D01*
X0136823Y0097913D01*
X0133006Y0094096D01*
G37*
G36*
X0135234Y0091869D02*
X0133395Y0093708D01*
X0137212Y0097525D01*
X0139051Y0095686D01*
X0135234Y0091869D01*
G37*
G36*
X0137461Y0089642D02*
X0135622Y0091481D01*
X0139439Y0095298D01*
X0141278Y0093459D01*
X0137461Y0089642D01*
G37*
G36*
X0109106Y0070196D02*
X0107267Y0072035D01*
X0111084Y0075852D01*
X0112923Y0074013D01*
X0109106Y0070196D01*
G37*
G36*
X0111333Y0067969D02*
X0109494Y0069808D01*
X0113311Y0073625D01*
X0115150Y0071786D01*
X0111333Y0067969D01*
G37*
G36*
X0113560Y0065742D02*
X0111721Y0067581D01*
X0115538Y0071398D01*
X0117377Y0069559D01*
X0113560Y0065742D01*
G37*
G36*
X0106879Y0072423D02*
X0105040Y0074262D01*
X0108857Y0078079D01*
X0110696Y0076240D01*
X0106879Y0072423D01*
G37*
G36*
X0104652Y0074650D02*
X0102813Y0076489D01*
X0106630Y0080306D01*
X0108469Y0078467D01*
X0104652Y0074650D01*
G37*
G36*
X0102425Y0076878D02*
X0100586Y0078717D01*
X0104403Y0082534D01*
X0106242Y0080695D01*
X0102425Y0076878D01*
G37*
G36*
X0100198Y0079105D02*
X0098359Y0080944D01*
X0102176Y0084761D01*
X0104015Y0082922D01*
X0100198Y0079105D01*
G37*
G36*
X0097971Y0081332D02*
X0096132Y0083171D01*
X0099949Y0086988D01*
X0101788Y0085149D01*
X0097971Y0081332D01*
G37*
D17*
X0128193Y0057252D03*
X0128193Y0055283D03*
X0128193Y0053315D03*
X0128193Y0051346D03*
X0128193Y0049378D03*
X0139217Y0049378D03*
X0139217Y0051346D03*
X0139217Y0053315D03*
X0139217Y0055283D03*
X0139217Y0057252D03*
D18*
X0135673Y0058827D03*
X0133705Y0058827D03*
X0131736Y0058827D03*
X0131736Y0047803D03*
X0133705Y0047803D03*
X0135673Y0047803D03*
D19*
X0103340Y0105677D02*
X0097612Y0105677D01*
X0097612Y0110402D02*
X0103340Y0110402D01*
X0103340Y0115126D02*
X0097612Y0115126D01*
D20*
X0100486Y0110392D03*
D21*
X0148232Y0112055D03*
X0148232Y0107724D03*
X0148232Y0103394D03*
X0148232Y0099063D03*
X0148232Y0094732D03*
X0148232Y0090402D03*
X0148232Y0086071D03*
X0148232Y0081740D03*
X0148232Y0077409D03*
X0199413Y0077409D03*
X0199413Y0081740D03*
X0199413Y0086071D03*
X0199413Y0090402D03*
X0199413Y0094732D03*
X0199413Y0099063D03*
X0199413Y0103394D03*
X0199413Y0107724D03*
X0199413Y0112055D03*
X0199413Y0116386D03*
X0199413Y0120717D03*
X0199413Y0125047D03*
X0148232Y0125047D03*
X0148232Y0120717D03*
X0148232Y0116386D03*
D22*
X0160831Y0071504D03*
X0165161Y0071504D03*
X0169492Y0071504D03*
X0173823Y0071504D03*
X0178154Y0071504D03*
X0182484Y0071504D03*
X0186815Y0071504D03*
D23*
X0251185Y0113236D03*
X0255752Y0113236D03*
D24*
X0255831Y0120402D03*
X0255831Y0124969D03*
X0245594Y0124969D03*
X0245594Y0120402D03*
X0245594Y0107646D03*
X0245594Y0103079D03*
D25*
X0161736Y0052606D03*
X0145988Y0052606D03*
D26*
X0169610Y0025835D03*
X0165870Y0016386D03*
X0173350Y0016386D03*
D27*
X0226697Y0027409D03*
X0265280Y0027409D03*
X0265280Y0093551D03*
X0226697Y0119929D03*
D28*
X0265280Y0119929D03*
X0265280Y0140008D03*
D29*
X0036933Y0013768D03*
X0036933Y0140264D03*
D30*
X0064925Y0140264D03*
D31*
X0075713Y0137646D03*
X0083193Y0137646D03*
X0079453Y0145913D03*
D32*
X0101205Y0057823D03*
X0103764Y0057823D03*
X0106323Y0057823D03*
X0108882Y0057823D03*
X0108882Y0049752D03*
X0106323Y0049752D03*
X0103764Y0049752D03*
X0101205Y0049752D03*
D33*
X0101651Y0038634D03*
D34*
X0101653Y0036662D03*
D35*
X0101650Y0034689D03*
D36*
X0107645Y0034690D03*
D37*
X0107643Y0036662D03*
D38*
X0107642Y0038631D03*
D39*
X0107644Y0032721D03*
D40*
X0101655Y0032722D03*
D41*
X0105634Y0038672D03*
D42*
X0103663Y0038672D03*
D43*
X0103665Y0032684D03*
D44*
X0105634Y0032681D03*
M02*
