G75*
%MOIN*%
%OFA0B0*%
%FSLAX25Y25*%
%IPPOS*%
%LPD*%
%AMOC8*
5,1,8,0,0,1.08239X$1,22.5*
%
%ADD10C,0.00600*%
%ADD11C,0.00000*%
%ADD12R,0.04331X0.03937*%
%ADD13C,0.01181*%
%ADD14C,0.07400*%
%ADD15R,0.03937X0.04331*%
%ADD16R,0.05000X0.02200*%
%ADD17R,0.02200X0.05000*%
%ADD18R,0.02756X0.01102*%
%ADD19R,0.01102X0.02756*%
%ADD20C,0.01772*%
%ADD21C,0.01000*%
%ADD22R,0.07874X0.02756*%
%ADD23R,0.02756X0.07874*%
%ADD24R,0.03346X0.03543*%
%ADD25R,0.03543X0.03346*%
%ADD26C,0.06600*%
%ADD27R,0.03150X0.03937*%
%ADD28R,0.07677X0.03937*%
%ADD29R,0.09843X0.06299*%
%ADD30C,0.08600*%
%ADD31R,0.03150X0.03543*%
%ADD32R,0.01378X0.01969*%
%ADD33R,0.01772X0.01378*%
%ADD34R,0.01378X0.01772*%
%ADD35C,0.02362*%
%ADD36C,0.01772*%
%ADD37C,0.00787*%
D10*
X0001500Y0002606D02*
X0001500Y0154969D01*
X0279059Y0154969D01*
X0279059Y0003000D01*
X0278665Y0002606D01*
X0001894Y0002606D01*
X0077878Y0026425D02*
X0081117Y0023187D01*
X0081117Y0011996D01*
X0081756Y0011357D01*
X0094718Y0011357D01*
X0097169Y0008906D01*
X0097169Y0015598D02*
X0101697Y0015598D01*
X0103272Y0017173D01*
X0099527Y0021499D02*
X0097563Y0019535D01*
X0099527Y0021499D02*
X0103105Y0021499D01*
X0104261Y0022655D01*
X0104261Y0026233D01*
X0107642Y0029614D01*
X0107642Y0032724D01*
X0105964Y0033015D02*
X0105964Y0035710D01*
X0106428Y0036174D01*
X0107154Y0036174D01*
X0107642Y0036661D01*
X0107642Y0038630D01*
X0105964Y0038999D02*
X0105964Y0039647D01*
X0106718Y0040402D01*
X0108193Y0040402D01*
X0108193Y0045126D01*
X0107340Y0047976D02*
X0105831Y0047976D01*
X0105831Y0041561D01*
X0104153Y0039883D01*
X0104153Y0039157D01*
X0103665Y0038669D01*
X0103335Y0038339D01*
X0103335Y0037613D01*
X0102871Y0037149D01*
X0102145Y0037149D01*
X0101657Y0036661D01*
X0101657Y0034693D01*
X0098801Y0035620D02*
X0098801Y0036500D01*
X0100444Y0038143D01*
X0101170Y0038143D01*
X0101657Y0038630D01*
X0101657Y0044890D01*
X0102287Y0045520D01*
X0102222Y0047976D02*
X0100188Y0047976D01*
X0099724Y0048440D01*
X0099724Y0052768D01*
X0102221Y0055266D01*
X0101205Y0057823D01*
X0103469Y0057528D02*
X0103764Y0057823D01*
X0103469Y0057528D02*
X0103469Y0054969D01*
X0106224Y0053394D01*
X0115280Y0053394D01*
X0115358Y0053315D01*
X0115358Y0057409D01*
X0115673Y0057724D01*
X0119399Y0057724D01*
X0121473Y0059798D01*
X0124020Y0057252D01*
X0128193Y0057252D01*
X0130393Y0057121D02*
X0130393Y0058753D01*
X0127091Y0062055D01*
X0126303Y0064417D02*
X0126198Y0064523D01*
X0121473Y0059798D01*
X0119217Y0062055D02*
X0122860Y0065699D01*
X0122860Y0068570D01*
X0125087Y0069019D02*
X0126198Y0067908D01*
X0126198Y0064523D01*
X0126303Y0064417D02*
X0135752Y0064417D01*
X0135752Y0058906D01*
X0135673Y0058827D01*
X0139217Y0055283D02*
X0139842Y0055909D01*
X0139842Y0055739D01*
X0141387Y0054194D01*
X0141387Y0052436D01*
X0140923Y0051972D01*
X0139842Y0051972D01*
X0139217Y0051346D01*
X0131242Y0051346D01*
X0129899Y0050003D01*
X0128818Y0050003D01*
X0128193Y0049378D01*
X0125472Y0049378D01*
X0122396Y0046302D01*
X0122086Y0046302D01*
X0119728Y0043945D01*
X0130358Y0033315D01*
X0136933Y0033315D02*
X0129453Y0040795D01*
X0123547Y0044339D02*
X0127012Y0047803D01*
X0131736Y0047803D01*
X0133705Y0047803D02*
X0134330Y0047803D01*
X0134330Y0049509D01*
X0134794Y0049973D01*
X0136553Y0049973D01*
X0137017Y0049509D01*
X0137017Y0048092D01*
X0141716Y0043856D01*
X0142016Y0043556D01*
X0142331Y0043272D01*
X0142333Y0043239D01*
X0142356Y0043216D01*
X0142356Y0042792D01*
X0142378Y0042369D01*
X0142356Y0042344D01*
X0142356Y0026957D01*
X0140835Y0025436D01*
X0133360Y0025436D01*
X0132568Y0026228D01*
X0121972Y0026228D01*
X0116854Y0021110D01*
X0114492Y0021110D01*
X0113311Y0022291D01*
X0109965Y0024260D02*
X0116259Y0030554D01*
X0117852Y0030554D01*
X0120612Y0033315D01*
X0122051Y0033315D01*
X0118272Y0037094D01*
X0119610Y0038433D01*
X0120004Y0038433D01*
X0118272Y0037094D02*
X0115358Y0040008D01*
X0115358Y0053315D01*
X0118399Y0049855D02*
X0117243Y0048699D01*
X0117243Y0047065D01*
X0118823Y0045485D01*
X0118823Y0043945D01*
X0119606Y0044728D01*
X0119728Y0043945D02*
X0118823Y0043945D01*
X0119217Y0047882D02*
X0121781Y0050446D01*
X0124437Y0050446D01*
X0125337Y0051346D01*
X0128193Y0051346D01*
X0122051Y0051539D02*
X0122051Y0053315D01*
X0118591Y0049855D01*
X0118399Y0049855D01*
X0112917Y0043945D02*
X0114266Y0042596D01*
X0114266Y0039555D01*
X0115358Y0038463D01*
X0115358Y0033315D01*
X0112327Y0036661D02*
X0107642Y0036661D01*
X0105634Y0038669D02*
X0105964Y0038999D01*
X0108193Y0040402D02*
X0110555Y0040402D01*
X0110555Y0039614D01*
X0112917Y0037252D02*
X0112327Y0036661D01*
X0110555Y0034102D02*
X0110555Y0027803D01*
X0107799Y0025047D01*
X0109965Y0024260D02*
X0109965Y0017173D01*
X0102287Y0023472D02*
X0102287Y0023866D01*
X0093272Y0032882D01*
X0088705Y0028315D01*
X0093272Y0032882D02*
X0098127Y0037737D01*
X0098127Y0063930D01*
X0099683Y0065486D01*
X0111465Y0065486D01*
X0114549Y0068570D01*
X0112322Y0070797D02*
X0108103Y0066578D01*
X0099231Y0066578D01*
X0097035Y0064382D01*
X0097035Y0046645D01*
X0088705Y0038315D01*
X0096062Y0032882D02*
X0096220Y0032724D01*
X0101657Y0032724D01*
X0103665Y0032685D02*
X0105634Y0032685D01*
X0105964Y0033015D01*
X0105831Y0047976D02*
X0105306Y0047976D01*
X0104842Y0048440D01*
X0104842Y0048674D01*
X0104295Y0050049D01*
X0102222Y0047976D01*
X0101205Y0049752D02*
X0101205Y0052705D01*
X0103469Y0054969D01*
X0106224Y0053394D02*
X0106323Y0053295D01*
X0106323Y0049752D01*
X0106224Y0049654D01*
X0104842Y0048674D02*
X0103764Y0049752D01*
X0107340Y0047976D02*
X0107804Y0048440D01*
X0107804Y0048674D01*
X0108882Y0049752D01*
X0108882Y0057823D02*
X0108882Y0062322D01*
X0108980Y0062420D01*
X0106225Y0064394D02*
X0113049Y0064394D01*
X0112917Y0060480D01*
X0113049Y0064394D02*
X0117887Y0069232D01*
X0117887Y0069888D01*
X0116671Y0071104D01*
X0118035Y0073472D01*
X0117612Y0076224D02*
X0118532Y0076224D01*
X0125087Y0070797D01*
X0125087Y0069019D01*
X0129453Y0068354D02*
X0132996Y0071898D01*
X0132895Y0071898D01*
X0129541Y0075251D01*
X0131768Y0075700D02*
X0134088Y0073380D01*
X0134088Y0069231D01*
X0144020Y0059299D01*
X0141387Y0056666D01*
X0141387Y0056373D01*
X0140923Y0055909D01*
X0139842Y0055909D01*
X0139217Y0053315D02*
X0134199Y0053315D01*
X0130393Y0057121D01*
X0139217Y0051346D02*
X0139842Y0050721D01*
X0140923Y0050721D01*
X0141387Y0050257D01*
X0141387Y0047365D01*
X0146382Y0042370D01*
X0141264Y0042764D02*
X0141264Y0038039D01*
X0137720Y0038039D01*
X0141264Y0038039D02*
X0141264Y0027409D01*
X0134177Y0027409D01*
X0136858Y0021665D02*
X0132366Y0017173D01*
X0129193Y0012449D02*
X0082209Y0012449D01*
X0082209Y0082921D01*
X0093626Y0082921D02*
X0093626Y0073079D01*
X0088705Y0068315D01*
X0093305Y0066410D02*
X0093305Y0070624D01*
X0097426Y0070624D01*
X0097755Y0070296D01*
X0099734Y0070296D01*
X0101133Y0071695D01*
X0101133Y0073675D01*
X0099734Y0075074D01*
X0099734Y0080479D01*
X0101187Y0081933D01*
X0103414Y0081331D02*
X0104632Y0082550D01*
X0104632Y0086841D01*
X0111736Y0093945D01*
X0110091Y0095857D02*
X0109317Y0095857D01*
X0101066Y0087605D01*
X0099577Y0087605D01*
X0096776Y0086465D01*
X0093626Y0082921D01*
X0095599Y0080953D02*
X0098806Y0084160D01*
X0098960Y0084160D01*
X0103414Y0081331D02*
X0103414Y0079706D01*
X0105641Y0077478D02*
X0113303Y0085140D01*
X0115977Y0085140D01*
X0118035Y0087199D01*
X0119217Y0097882D01*
X0116943Y0096971D02*
X0116943Y0088897D01*
X0115160Y0087113D01*
X0120004Y0082921D02*
X0115673Y0078591D01*
X0116456Y0077943D01*
X0116456Y0077380D01*
X0117612Y0076224D01*
X0118429Y0078197D02*
X0121442Y0078489D01*
X0123053Y0080099D01*
X0130450Y0080816D01*
X0131107Y0080816D01*
X0132374Y0079548D01*
X0133995Y0079706D01*
X0136223Y0081933D02*
X0137720Y0080435D01*
X0137720Y0076228D01*
X0137720Y0069142D01*
X0145988Y0060874D01*
X0145988Y0052606D01*
X0141264Y0042764D02*
X0135673Y0047803D01*
X0156337Y0041267D02*
X0165936Y0050867D01*
X0165936Y0054346D01*
X0147888Y0072395D01*
X0143251Y0072395D01*
X0143251Y0096804D01*
X0139685Y0100370D01*
X0134613Y0100370D01*
X0133394Y0099152D01*
X0131768Y0099152D01*
X0129541Y0101379D02*
X0129541Y0101514D01*
X0132996Y0104969D01*
X0132602Y0108906D02*
X0137602Y0103906D01*
X0139335Y0103906D01*
X0133995Y0096924D02*
X0127878Y0090795D01*
X0123941Y0091324D02*
X0107868Y0075251D01*
X0108317Y0073024D02*
X0107206Y0071914D01*
X0105847Y0071914D01*
X0104256Y0070323D01*
X0108317Y0073024D02*
X0110095Y0073024D01*
X0122760Y0077016D02*
X0123323Y0077016D01*
X0127314Y0073024D01*
X0131768Y0075700D02*
X0131768Y0077478D01*
X0131815Y0084890D02*
X0124728Y0082921D01*
X0124728Y0088039D02*
X0134965Y0086858D01*
X0138450Y0084160D01*
X0133390Y0089614D02*
X0138450Y0092470D01*
X0136223Y0094697D02*
X0137832Y0096307D01*
X0142051Y0096307D01*
X0142051Y0071898D01*
X0161343Y0052606D01*
X0161736Y0052606D01*
X0177091Y0052803D02*
X0177091Y0042764D01*
X0180240Y0046307D02*
X0182926Y0046307D01*
X0182991Y0046373D01*
X0182991Y0053595D01*
X0177091Y0059496D01*
X0185949Y0060480D02*
X0185949Y0048669D01*
X0183455Y0045909D02*
X0188442Y0045909D01*
X0188985Y0046451D01*
X0188985Y0084806D01*
X0158587Y0115205D01*
X0158587Y0108906D02*
X0158587Y0080559D01*
X0169492Y0084772D02*
X0169610Y0084890D01*
X0169492Y0084772D02*
X0169492Y0071504D01*
X0165161Y0071504D02*
X0165161Y0098551D01*
X0165280Y0098669D01*
X0192642Y0081543D02*
X0192839Y0081740D01*
X0199413Y0081740D01*
X0192642Y0081543D02*
X0192642Y0060480D01*
X0198154Y0054969D01*
X0199138Y0054969D01*
X0192642Y0060480D02*
X0196776Y0064417D01*
X0202681Y0065205D02*
X0202681Y0046898D01*
X0192642Y0036858D01*
X0192642Y0035677D01*
X0173350Y0016386D01*
X0175253Y0013625D02*
X0158626Y0013625D01*
X0150586Y0021665D01*
X0136858Y0021665D01*
X0142366Y0017173D02*
X0152287Y0017173D01*
X0153533Y0017173D01*
X0158174Y0012533D01*
X0188508Y0012533D01*
X0188508Y0017764D01*
X0190804Y0020721D02*
X0182349Y0020721D01*
X0175253Y0013625D01*
X0165870Y0016386D02*
X0162524Y0016386D01*
X0160752Y0018157D01*
X0159374Y0016780D01*
X0159374Y0016386D01*
X0160752Y0018157D02*
X0153862Y0025047D01*
X0153862Y0032331D01*
X0153272Y0032921D01*
X0156337Y0032809D02*
X0156337Y0041267D01*
X0156337Y0032809D02*
X0161736Y0027409D01*
X0157406Y0026622D02*
X0162130Y0021898D01*
X0165673Y0021898D01*
X0169610Y0025835D01*
X0157406Y0026622D02*
X0157012Y0026622D01*
X0146382Y0026622D02*
X0146382Y0032724D01*
X0146579Y0032921D01*
X0137051Y0033315D02*
X0136933Y0033315D01*
X0129193Y0012449D02*
X0130053Y0011589D01*
X0153396Y0011589D01*
X0154650Y0012843D01*
X0188508Y0024457D02*
X0188508Y0026228D01*
X0202681Y0040402D01*
X0183455Y0045909D02*
X0182991Y0046373D01*
X0185949Y0060480D02*
X0185949Y0070638D01*
X0186815Y0071504D01*
X0129453Y0068354D02*
X0129453Y0067567D01*
X0106225Y0064394D02*
X0106323Y0057823D01*
X0093305Y0066410D02*
X0088705Y0061810D01*
X0088705Y0058315D01*
X0078272Y0039614D02*
X0077878Y0039220D01*
X0077878Y0033118D01*
X0107799Y0085283D02*
X0114492Y0091583D01*
X0110091Y0095857D02*
X0113390Y0099156D01*
X0113390Y0099930D01*
X0118035Y0104575D01*
X0114549Y0108060D01*
X0112322Y0105833D02*
X0112322Y0104054D01*
X0113433Y0102944D01*
X0113433Y0102288D01*
X0112298Y0101153D01*
X0112298Y0099608D01*
X0109639Y0096949D01*
X0108094Y0096949D01*
X0100278Y0089132D01*
X0096882Y0089132D01*
X0094314Y0091700D01*
X0094225Y0091700D01*
X0092768Y0093157D01*
X0081815Y0093157D01*
X0094020Y0093551D02*
X0098960Y0092470D01*
X0101187Y0094697D02*
X0095988Y0099896D01*
X0095988Y0104575D01*
X0097091Y0105677D01*
X0100476Y0105677D01*
X0100476Y0110402D02*
X0105358Y0110402D01*
X0107012Y0112055D01*
X0108985Y0111238D02*
X0106758Y0109010D01*
X0106758Y0104268D01*
X0107868Y0103157D01*
X0107868Y0101379D01*
X0110095Y0101827D02*
X0110095Y0103606D01*
X0110095Y0105384D01*
X0108985Y0106495D01*
X0108985Y0107151D01*
X0111343Y0109509D01*
X0111343Y0112055D01*
X0108985Y0111238D02*
X0108985Y0114028D01*
X0109768Y0114811D01*
X0109024Y0115554D01*
X0107353Y0115554D01*
X0106889Y0116018D01*
X0106889Y0118477D01*
X0105437Y0119929D01*
X0104446Y0123715D02*
X0086799Y0123715D01*
X0084105Y0126410D01*
X0084105Y0130220D01*
X0086799Y0132915D01*
X0088305Y0132915D01*
X0093705Y0138315D01*
X0095565Y0142807D02*
X0098197Y0140176D01*
X0098197Y0136454D01*
X0095565Y0133823D01*
X0094213Y0133823D01*
X0088705Y0128315D01*
X0091573Y0125446D01*
X0102896Y0125446D01*
X0103424Y0125974D01*
X0104590Y0124807D01*
X0104899Y0124807D01*
X0105840Y0123866D01*
X0107799Y0123866D01*
X0104446Y0123715D02*
X0109846Y0118315D01*
X0116539Y0118315D02*
X0122012Y0112843D01*
X0124335Y0112843D01*
X0127720Y0111294D02*
X0133023Y0111294D01*
X0140083Y0118354D01*
X0127720Y0111294D02*
X0124486Y0108060D01*
X0122860Y0108060D01*
X0123461Y0105833D02*
X0125087Y0105833D01*
X0123461Y0105833D02*
X0122243Y0104614D01*
X0121497Y0104614D01*
X0119414Y0106697D01*
X0119414Y0109889D01*
X0117248Y0112055D01*
X0124701Y0116898D02*
X0113283Y0128315D01*
X0107051Y0128315D01*
X0104513Y0131183D02*
X0103424Y0130094D01*
X0103424Y0125974D01*
X0100358Y0128315D02*
X0099846Y0127803D01*
X0095594Y0127803D01*
X0104513Y0131183D02*
X0112112Y0131183D01*
X0115886Y0127409D01*
X0122681Y0127409D01*
X0123705Y0128433D01*
X0129413Y0128433D01*
X0130831Y0127016D01*
X0123705Y0128433D02*
X0123705Y0138315D01*
X0117248Y0131346D02*
X0113646Y0131346D01*
X0112609Y0132383D01*
X0109636Y0132383D01*
X0103705Y0138315D01*
X0095565Y0142807D02*
X0091844Y0142807D01*
X0086683Y0137646D01*
X0083193Y0137646D01*
X0079453Y0145913D02*
X0050713Y0145913D01*
X0045063Y0140264D01*
X0036933Y0140264D01*
X0095201Y0117567D02*
X0096776Y0117567D01*
X0099531Y0120323D01*
X0100476Y0115126D02*
X0094413Y0114811D01*
X0094020Y0093551D01*
X0099531Y0100638D02*
X0103414Y0096924D01*
X0105641Y0099152D02*
X0107419Y0099152D01*
X0108530Y0098041D01*
X0109186Y0098041D01*
X0111206Y0100061D01*
X0111206Y0100717D01*
X0110095Y0101827D01*
X0116062Y0099487D02*
X0116062Y0097852D01*
X0116943Y0096971D01*
X0116062Y0099487D02*
X0117642Y0100672D01*
X0117642Y0101031D01*
X0118035Y0104575D02*
X0118035Y0104575D01*
X0121579Y0100244D02*
X0124740Y0101031D01*
X0127314Y0103606D01*
X0123941Y0095126D02*
X0123941Y0091324D01*
X0199413Y0120717D02*
X0203862Y0120717D01*
X0245594Y0120402D02*
X0245594Y0118827D01*
X0251185Y0113236D01*
X0251185Y0108669D01*
X0245594Y0103079D01*
X0245594Y0107646D02*
X0245516Y0107724D01*
X0255752Y0113236D02*
X0255831Y0113315D01*
X0255831Y0120402D01*
X0262602Y0120402D01*
X0264177Y0118827D01*
X0265280Y0119929D01*
X0264571Y0119220D01*
X0197563Y0024457D02*
X0188508Y0024457D01*
X0190804Y0020721D02*
X0193762Y0017764D01*
X0197563Y0017764D01*
D11*
X0162129Y0038433D02*
X0162131Y0038586D01*
X0162137Y0038740D01*
X0162147Y0038893D01*
X0162161Y0039045D01*
X0162179Y0039198D01*
X0162201Y0039349D01*
X0162226Y0039500D01*
X0162256Y0039651D01*
X0162290Y0039801D01*
X0162327Y0039949D01*
X0162368Y0040097D01*
X0162413Y0040243D01*
X0162462Y0040389D01*
X0162515Y0040533D01*
X0162571Y0040675D01*
X0162631Y0040816D01*
X0162695Y0040956D01*
X0162762Y0041094D01*
X0162833Y0041230D01*
X0162908Y0041364D01*
X0162985Y0041496D01*
X0163067Y0041626D01*
X0163151Y0041754D01*
X0163239Y0041880D01*
X0163330Y0042003D01*
X0163424Y0042124D01*
X0163522Y0042242D01*
X0163622Y0042358D01*
X0163726Y0042471D01*
X0163832Y0042582D01*
X0163941Y0042690D01*
X0164053Y0042795D01*
X0164167Y0042896D01*
X0164285Y0042995D01*
X0164404Y0043091D01*
X0164526Y0043184D01*
X0164651Y0043273D01*
X0164778Y0043360D01*
X0164907Y0043442D01*
X0165038Y0043522D01*
X0165171Y0043598D01*
X0165306Y0043671D01*
X0165443Y0043740D01*
X0165582Y0043805D01*
X0165722Y0043867D01*
X0165864Y0043925D01*
X0166007Y0043980D01*
X0166152Y0044031D01*
X0166298Y0044078D01*
X0166445Y0044121D01*
X0166593Y0044160D01*
X0166742Y0044196D01*
X0166892Y0044227D01*
X0167043Y0044255D01*
X0167194Y0044279D01*
X0167347Y0044299D01*
X0167499Y0044315D01*
X0167652Y0044327D01*
X0167805Y0044335D01*
X0167958Y0044339D01*
X0168112Y0044339D01*
X0168265Y0044335D01*
X0168418Y0044327D01*
X0168571Y0044315D01*
X0168723Y0044299D01*
X0168876Y0044279D01*
X0169027Y0044255D01*
X0169178Y0044227D01*
X0169328Y0044196D01*
X0169477Y0044160D01*
X0169625Y0044121D01*
X0169772Y0044078D01*
X0169918Y0044031D01*
X0170063Y0043980D01*
X0170206Y0043925D01*
X0170348Y0043867D01*
X0170488Y0043805D01*
X0170627Y0043740D01*
X0170764Y0043671D01*
X0170899Y0043598D01*
X0171032Y0043522D01*
X0171163Y0043442D01*
X0171292Y0043360D01*
X0171419Y0043273D01*
X0171544Y0043184D01*
X0171666Y0043091D01*
X0171785Y0042995D01*
X0171903Y0042896D01*
X0172017Y0042795D01*
X0172129Y0042690D01*
X0172238Y0042582D01*
X0172344Y0042471D01*
X0172448Y0042358D01*
X0172548Y0042242D01*
X0172646Y0042124D01*
X0172740Y0042003D01*
X0172831Y0041880D01*
X0172919Y0041754D01*
X0173003Y0041626D01*
X0173085Y0041496D01*
X0173162Y0041364D01*
X0173237Y0041230D01*
X0173308Y0041094D01*
X0173375Y0040956D01*
X0173439Y0040816D01*
X0173499Y0040675D01*
X0173555Y0040533D01*
X0173608Y0040389D01*
X0173657Y0040243D01*
X0173702Y0040097D01*
X0173743Y0039949D01*
X0173780Y0039801D01*
X0173814Y0039651D01*
X0173844Y0039500D01*
X0173869Y0039349D01*
X0173891Y0039198D01*
X0173909Y0039045D01*
X0173923Y0038893D01*
X0173933Y0038740D01*
X0173939Y0038586D01*
X0173941Y0038433D01*
X0173939Y0038280D01*
X0173933Y0038126D01*
X0173923Y0037973D01*
X0173909Y0037821D01*
X0173891Y0037668D01*
X0173869Y0037517D01*
X0173844Y0037366D01*
X0173814Y0037215D01*
X0173780Y0037065D01*
X0173743Y0036917D01*
X0173702Y0036769D01*
X0173657Y0036623D01*
X0173608Y0036477D01*
X0173555Y0036333D01*
X0173499Y0036191D01*
X0173439Y0036050D01*
X0173375Y0035910D01*
X0173308Y0035772D01*
X0173237Y0035636D01*
X0173162Y0035502D01*
X0173085Y0035370D01*
X0173003Y0035240D01*
X0172919Y0035112D01*
X0172831Y0034986D01*
X0172740Y0034863D01*
X0172646Y0034742D01*
X0172548Y0034624D01*
X0172448Y0034508D01*
X0172344Y0034395D01*
X0172238Y0034284D01*
X0172129Y0034176D01*
X0172017Y0034071D01*
X0171903Y0033970D01*
X0171785Y0033871D01*
X0171666Y0033775D01*
X0171544Y0033682D01*
X0171419Y0033593D01*
X0171292Y0033506D01*
X0171163Y0033424D01*
X0171032Y0033344D01*
X0170899Y0033268D01*
X0170764Y0033195D01*
X0170627Y0033126D01*
X0170488Y0033061D01*
X0170348Y0032999D01*
X0170206Y0032941D01*
X0170063Y0032886D01*
X0169918Y0032835D01*
X0169772Y0032788D01*
X0169625Y0032745D01*
X0169477Y0032706D01*
X0169328Y0032670D01*
X0169178Y0032639D01*
X0169027Y0032611D01*
X0168876Y0032587D01*
X0168723Y0032567D01*
X0168571Y0032551D01*
X0168418Y0032539D01*
X0168265Y0032531D01*
X0168112Y0032527D01*
X0167958Y0032527D01*
X0167805Y0032531D01*
X0167652Y0032539D01*
X0167499Y0032551D01*
X0167347Y0032567D01*
X0167194Y0032587D01*
X0167043Y0032611D01*
X0166892Y0032639D01*
X0166742Y0032670D01*
X0166593Y0032706D01*
X0166445Y0032745D01*
X0166298Y0032788D01*
X0166152Y0032835D01*
X0166007Y0032886D01*
X0165864Y0032941D01*
X0165722Y0032999D01*
X0165582Y0033061D01*
X0165443Y0033126D01*
X0165306Y0033195D01*
X0165171Y0033268D01*
X0165038Y0033344D01*
X0164907Y0033424D01*
X0164778Y0033506D01*
X0164651Y0033593D01*
X0164526Y0033682D01*
X0164404Y0033775D01*
X0164285Y0033871D01*
X0164167Y0033970D01*
X0164053Y0034071D01*
X0163941Y0034176D01*
X0163832Y0034284D01*
X0163726Y0034395D01*
X0163622Y0034508D01*
X0163522Y0034624D01*
X0163424Y0034742D01*
X0163330Y0034863D01*
X0163239Y0034986D01*
X0163151Y0035112D01*
X0163067Y0035240D01*
X0162985Y0035370D01*
X0162908Y0035502D01*
X0162833Y0035636D01*
X0162762Y0035772D01*
X0162695Y0035910D01*
X0162631Y0036050D01*
X0162571Y0036191D01*
X0162515Y0036333D01*
X0162462Y0036477D01*
X0162413Y0036623D01*
X0162368Y0036769D01*
X0162327Y0036917D01*
X0162290Y0037065D01*
X0162256Y0037215D01*
X0162226Y0037366D01*
X0162201Y0037517D01*
X0162179Y0037668D01*
X0162161Y0037821D01*
X0162147Y0037973D01*
X0162137Y0038126D01*
X0162131Y0038280D01*
X0162129Y0038433D01*
X0031027Y0042921D02*
X0031029Y0043074D01*
X0031035Y0043228D01*
X0031045Y0043381D01*
X0031059Y0043533D01*
X0031077Y0043686D01*
X0031099Y0043837D01*
X0031124Y0043988D01*
X0031154Y0044139D01*
X0031188Y0044289D01*
X0031225Y0044437D01*
X0031266Y0044585D01*
X0031311Y0044731D01*
X0031360Y0044877D01*
X0031413Y0045021D01*
X0031469Y0045163D01*
X0031529Y0045304D01*
X0031593Y0045444D01*
X0031660Y0045582D01*
X0031731Y0045718D01*
X0031806Y0045852D01*
X0031883Y0045984D01*
X0031965Y0046114D01*
X0032049Y0046242D01*
X0032137Y0046368D01*
X0032228Y0046491D01*
X0032322Y0046612D01*
X0032420Y0046730D01*
X0032520Y0046846D01*
X0032624Y0046959D01*
X0032730Y0047070D01*
X0032839Y0047178D01*
X0032951Y0047283D01*
X0033065Y0047384D01*
X0033183Y0047483D01*
X0033302Y0047579D01*
X0033424Y0047672D01*
X0033549Y0047761D01*
X0033676Y0047848D01*
X0033805Y0047930D01*
X0033936Y0048010D01*
X0034069Y0048086D01*
X0034204Y0048159D01*
X0034341Y0048228D01*
X0034480Y0048293D01*
X0034620Y0048355D01*
X0034762Y0048413D01*
X0034905Y0048468D01*
X0035050Y0048519D01*
X0035196Y0048566D01*
X0035343Y0048609D01*
X0035491Y0048648D01*
X0035640Y0048684D01*
X0035790Y0048715D01*
X0035941Y0048743D01*
X0036092Y0048767D01*
X0036245Y0048787D01*
X0036397Y0048803D01*
X0036550Y0048815D01*
X0036703Y0048823D01*
X0036856Y0048827D01*
X0037010Y0048827D01*
X0037163Y0048823D01*
X0037316Y0048815D01*
X0037469Y0048803D01*
X0037621Y0048787D01*
X0037774Y0048767D01*
X0037925Y0048743D01*
X0038076Y0048715D01*
X0038226Y0048684D01*
X0038375Y0048648D01*
X0038523Y0048609D01*
X0038670Y0048566D01*
X0038816Y0048519D01*
X0038961Y0048468D01*
X0039104Y0048413D01*
X0039246Y0048355D01*
X0039386Y0048293D01*
X0039525Y0048228D01*
X0039662Y0048159D01*
X0039797Y0048086D01*
X0039930Y0048010D01*
X0040061Y0047930D01*
X0040190Y0047848D01*
X0040317Y0047761D01*
X0040442Y0047672D01*
X0040564Y0047579D01*
X0040683Y0047483D01*
X0040801Y0047384D01*
X0040915Y0047283D01*
X0041027Y0047178D01*
X0041136Y0047070D01*
X0041242Y0046959D01*
X0041346Y0046846D01*
X0041446Y0046730D01*
X0041544Y0046612D01*
X0041638Y0046491D01*
X0041729Y0046368D01*
X0041817Y0046242D01*
X0041901Y0046114D01*
X0041983Y0045984D01*
X0042060Y0045852D01*
X0042135Y0045718D01*
X0042206Y0045582D01*
X0042273Y0045444D01*
X0042337Y0045304D01*
X0042397Y0045163D01*
X0042453Y0045021D01*
X0042506Y0044877D01*
X0042555Y0044731D01*
X0042600Y0044585D01*
X0042641Y0044437D01*
X0042678Y0044289D01*
X0042712Y0044139D01*
X0042742Y0043988D01*
X0042767Y0043837D01*
X0042789Y0043686D01*
X0042807Y0043533D01*
X0042821Y0043381D01*
X0042831Y0043228D01*
X0042837Y0043074D01*
X0042839Y0042921D01*
X0042837Y0042768D01*
X0042831Y0042614D01*
X0042821Y0042461D01*
X0042807Y0042309D01*
X0042789Y0042156D01*
X0042767Y0042005D01*
X0042742Y0041854D01*
X0042712Y0041703D01*
X0042678Y0041553D01*
X0042641Y0041405D01*
X0042600Y0041257D01*
X0042555Y0041111D01*
X0042506Y0040965D01*
X0042453Y0040821D01*
X0042397Y0040679D01*
X0042337Y0040538D01*
X0042273Y0040398D01*
X0042206Y0040260D01*
X0042135Y0040124D01*
X0042060Y0039990D01*
X0041983Y0039858D01*
X0041901Y0039728D01*
X0041817Y0039600D01*
X0041729Y0039474D01*
X0041638Y0039351D01*
X0041544Y0039230D01*
X0041446Y0039112D01*
X0041346Y0038996D01*
X0041242Y0038883D01*
X0041136Y0038772D01*
X0041027Y0038664D01*
X0040915Y0038559D01*
X0040801Y0038458D01*
X0040683Y0038359D01*
X0040564Y0038263D01*
X0040442Y0038170D01*
X0040317Y0038081D01*
X0040190Y0037994D01*
X0040061Y0037912D01*
X0039930Y0037832D01*
X0039797Y0037756D01*
X0039662Y0037683D01*
X0039525Y0037614D01*
X0039386Y0037549D01*
X0039246Y0037487D01*
X0039104Y0037429D01*
X0038961Y0037374D01*
X0038816Y0037323D01*
X0038670Y0037276D01*
X0038523Y0037233D01*
X0038375Y0037194D01*
X0038226Y0037158D01*
X0038076Y0037127D01*
X0037925Y0037099D01*
X0037774Y0037075D01*
X0037621Y0037055D01*
X0037469Y0037039D01*
X0037316Y0037027D01*
X0037163Y0037019D01*
X0037010Y0037015D01*
X0036856Y0037015D01*
X0036703Y0037019D01*
X0036550Y0037027D01*
X0036397Y0037039D01*
X0036245Y0037055D01*
X0036092Y0037075D01*
X0035941Y0037099D01*
X0035790Y0037127D01*
X0035640Y0037158D01*
X0035491Y0037194D01*
X0035343Y0037233D01*
X0035196Y0037276D01*
X0035050Y0037323D01*
X0034905Y0037374D01*
X0034762Y0037429D01*
X0034620Y0037487D01*
X0034480Y0037549D01*
X0034341Y0037614D01*
X0034204Y0037683D01*
X0034069Y0037756D01*
X0033936Y0037832D01*
X0033805Y0037912D01*
X0033676Y0037994D01*
X0033549Y0038081D01*
X0033424Y0038170D01*
X0033302Y0038263D01*
X0033183Y0038359D01*
X0033065Y0038458D01*
X0032951Y0038559D01*
X0032839Y0038664D01*
X0032730Y0038772D01*
X0032624Y0038883D01*
X0032520Y0038996D01*
X0032420Y0039112D01*
X0032322Y0039230D01*
X0032228Y0039351D01*
X0032137Y0039474D01*
X0032049Y0039600D01*
X0031965Y0039728D01*
X0031883Y0039858D01*
X0031806Y0039990D01*
X0031731Y0040124D01*
X0031660Y0040260D01*
X0031593Y0040398D01*
X0031529Y0040538D01*
X0031469Y0040679D01*
X0031413Y0040821D01*
X0031360Y0040965D01*
X0031311Y0041111D01*
X0031266Y0041257D01*
X0031225Y0041405D01*
X0031188Y0041553D01*
X0031154Y0041703D01*
X0031124Y0041854D01*
X0031099Y0042005D01*
X0031077Y0042156D01*
X0031059Y0042309D01*
X0031045Y0042461D01*
X0031035Y0042614D01*
X0031029Y0042768D01*
X0031027Y0042921D01*
X0031027Y0111110D02*
X0031029Y0111263D01*
X0031035Y0111417D01*
X0031045Y0111570D01*
X0031059Y0111722D01*
X0031077Y0111875D01*
X0031099Y0112026D01*
X0031124Y0112177D01*
X0031154Y0112328D01*
X0031188Y0112478D01*
X0031225Y0112626D01*
X0031266Y0112774D01*
X0031311Y0112920D01*
X0031360Y0113066D01*
X0031413Y0113210D01*
X0031469Y0113352D01*
X0031529Y0113493D01*
X0031593Y0113633D01*
X0031660Y0113771D01*
X0031731Y0113907D01*
X0031806Y0114041D01*
X0031883Y0114173D01*
X0031965Y0114303D01*
X0032049Y0114431D01*
X0032137Y0114557D01*
X0032228Y0114680D01*
X0032322Y0114801D01*
X0032420Y0114919D01*
X0032520Y0115035D01*
X0032624Y0115148D01*
X0032730Y0115259D01*
X0032839Y0115367D01*
X0032951Y0115472D01*
X0033065Y0115573D01*
X0033183Y0115672D01*
X0033302Y0115768D01*
X0033424Y0115861D01*
X0033549Y0115950D01*
X0033676Y0116037D01*
X0033805Y0116119D01*
X0033936Y0116199D01*
X0034069Y0116275D01*
X0034204Y0116348D01*
X0034341Y0116417D01*
X0034480Y0116482D01*
X0034620Y0116544D01*
X0034762Y0116602D01*
X0034905Y0116657D01*
X0035050Y0116708D01*
X0035196Y0116755D01*
X0035343Y0116798D01*
X0035491Y0116837D01*
X0035640Y0116873D01*
X0035790Y0116904D01*
X0035941Y0116932D01*
X0036092Y0116956D01*
X0036245Y0116976D01*
X0036397Y0116992D01*
X0036550Y0117004D01*
X0036703Y0117012D01*
X0036856Y0117016D01*
X0037010Y0117016D01*
X0037163Y0117012D01*
X0037316Y0117004D01*
X0037469Y0116992D01*
X0037621Y0116976D01*
X0037774Y0116956D01*
X0037925Y0116932D01*
X0038076Y0116904D01*
X0038226Y0116873D01*
X0038375Y0116837D01*
X0038523Y0116798D01*
X0038670Y0116755D01*
X0038816Y0116708D01*
X0038961Y0116657D01*
X0039104Y0116602D01*
X0039246Y0116544D01*
X0039386Y0116482D01*
X0039525Y0116417D01*
X0039662Y0116348D01*
X0039797Y0116275D01*
X0039930Y0116199D01*
X0040061Y0116119D01*
X0040190Y0116037D01*
X0040317Y0115950D01*
X0040442Y0115861D01*
X0040564Y0115768D01*
X0040683Y0115672D01*
X0040801Y0115573D01*
X0040915Y0115472D01*
X0041027Y0115367D01*
X0041136Y0115259D01*
X0041242Y0115148D01*
X0041346Y0115035D01*
X0041446Y0114919D01*
X0041544Y0114801D01*
X0041638Y0114680D01*
X0041729Y0114557D01*
X0041817Y0114431D01*
X0041901Y0114303D01*
X0041983Y0114173D01*
X0042060Y0114041D01*
X0042135Y0113907D01*
X0042206Y0113771D01*
X0042273Y0113633D01*
X0042337Y0113493D01*
X0042397Y0113352D01*
X0042453Y0113210D01*
X0042506Y0113066D01*
X0042555Y0112920D01*
X0042600Y0112774D01*
X0042641Y0112626D01*
X0042678Y0112478D01*
X0042712Y0112328D01*
X0042742Y0112177D01*
X0042767Y0112026D01*
X0042789Y0111875D01*
X0042807Y0111722D01*
X0042821Y0111570D01*
X0042831Y0111417D01*
X0042837Y0111263D01*
X0042839Y0111110D01*
X0042837Y0110957D01*
X0042831Y0110803D01*
X0042821Y0110650D01*
X0042807Y0110498D01*
X0042789Y0110345D01*
X0042767Y0110194D01*
X0042742Y0110043D01*
X0042712Y0109892D01*
X0042678Y0109742D01*
X0042641Y0109594D01*
X0042600Y0109446D01*
X0042555Y0109300D01*
X0042506Y0109154D01*
X0042453Y0109010D01*
X0042397Y0108868D01*
X0042337Y0108727D01*
X0042273Y0108587D01*
X0042206Y0108449D01*
X0042135Y0108313D01*
X0042060Y0108179D01*
X0041983Y0108047D01*
X0041901Y0107917D01*
X0041817Y0107789D01*
X0041729Y0107663D01*
X0041638Y0107540D01*
X0041544Y0107419D01*
X0041446Y0107301D01*
X0041346Y0107185D01*
X0041242Y0107072D01*
X0041136Y0106961D01*
X0041027Y0106853D01*
X0040915Y0106748D01*
X0040801Y0106647D01*
X0040683Y0106548D01*
X0040564Y0106452D01*
X0040442Y0106359D01*
X0040317Y0106270D01*
X0040190Y0106183D01*
X0040061Y0106101D01*
X0039930Y0106021D01*
X0039797Y0105945D01*
X0039662Y0105872D01*
X0039525Y0105803D01*
X0039386Y0105738D01*
X0039246Y0105676D01*
X0039104Y0105618D01*
X0038961Y0105563D01*
X0038816Y0105512D01*
X0038670Y0105465D01*
X0038523Y0105422D01*
X0038375Y0105383D01*
X0038226Y0105347D01*
X0038076Y0105316D01*
X0037925Y0105288D01*
X0037774Y0105264D01*
X0037621Y0105244D01*
X0037469Y0105228D01*
X0037316Y0105216D01*
X0037163Y0105208D01*
X0037010Y0105204D01*
X0036856Y0105204D01*
X0036703Y0105208D01*
X0036550Y0105216D01*
X0036397Y0105228D01*
X0036245Y0105244D01*
X0036092Y0105264D01*
X0035941Y0105288D01*
X0035790Y0105316D01*
X0035640Y0105347D01*
X0035491Y0105383D01*
X0035343Y0105422D01*
X0035196Y0105465D01*
X0035050Y0105512D01*
X0034905Y0105563D01*
X0034762Y0105618D01*
X0034620Y0105676D01*
X0034480Y0105738D01*
X0034341Y0105803D01*
X0034204Y0105872D01*
X0034069Y0105945D01*
X0033936Y0106021D01*
X0033805Y0106101D01*
X0033676Y0106183D01*
X0033549Y0106270D01*
X0033424Y0106359D01*
X0033302Y0106452D01*
X0033183Y0106548D01*
X0033065Y0106647D01*
X0032951Y0106748D01*
X0032839Y0106853D01*
X0032730Y0106961D01*
X0032624Y0107072D01*
X0032520Y0107185D01*
X0032420Y0107301D01*
X0032322Y0107419D01*
X0032228Y0107540D01*
X0032137Y0107663D01*
X0032049Y0107789D01*
X0031965Y0107917D01*
X0031883Y0108047D01*
X0031806Y0108179D01*
X0031731Y0108313D01*
X0031660Y0108449D01*
X0031593Y0108587D01*
X0031529Y0108727D01*
X0031469Y0108868D01*
X0031413Y0109010D01*
X0031360Y0109154D01*
X0031311Y0109300D01*
X0031266Y0109446D01*
X0031225Y0109594D01*
X0031188Y0109742D01*
X0031154Y0109892D01*
X0031124Y0110043D01*
X0031099Y0110194D01*
X0031077Y0110345D01*
X0031059Y0110498D01*
X0031045Y0110650D01*
X0031035Y0110803D01*
X0031029Y0110957D01*
X0031027Y0111110D01*
X0060496Y0140264D02*
X0060498Y0140396D01*
X0060504Y0140529D01*
X0060514Y0140661D01*
X0060528Y0140793D01*
X0060545Y0140924D01*
X0060567Y0141055D01*
X0060593Y0141185D01*
X0060622Y0141314D01*
X0060656Y0141442D01*
X0060693Y0141569D01*
X0060734Y0141695D01*
X0060778Y0141820D01*
X0060827Y0141944D01*
X0060879Y0142065D01*
X0060935Y0142186D01*
X0060994Y0142304D01*
X0061057Y0142421D01*
X0061123Y0142536D01*
X0061193Y0142648D01*
X0061266Y0142759D01*
X0061342Y0142867D01*
X0061421Y0142973D01*
X0061504Y0143077D01*
X0061590Y0143178D01*
X0061678Y0143276D01*
X0061770Y0143372D01*
X0061864Y0143465D01*
X0061961Y0143555D01*
X0062061Y0143643D01*
X0062164Y0143727D01*
X0062268Y0143808D01*
X0062376Y0143886D01*
X0062485Y0143960D01*
X0062597Y0144032D01*
X0062711Y0144100D01*
X0062826Y0144164D01*
X0062944Y0144225D01*
X0063063Y0144283D01*
X0063184Y0144337D01*
X0063307Y0144387D01*
X0063431Y0144433D01*
X0063556Y0144476D01*
X0063683Y0144515D01*
X0063811Y0144551D01*
X0063939Y0144582D01*
X0064069Y0144610D01*
X0064199Y0144633D01*
X0064330Y0144653D01*
X0064462Y0144669D01*
X0064594Y0144681D01*
X0064726Y0144689D01*
X0064859Y0144693D01*
X0064991Y0144693D01*
X0065124Y0144689D01*
X0065256Y0144681D01*
X0065388Y0144669D01*
X0065520Y0144653D01*
X0065651Y0144633D01*
X0065781Y0144610D01*
X0065911Y0144582D01*
X0066039Y0144551D01*
X0066167Y0144515D01*
X0066294Y0144476D01*
X0066419Y0144433D01*
X0066543Y0144387D01*
X0066666Y0144337D01*
X0066787Y0144283D01*
X0066906Y0144225D01*
X0067024Y0144164D01*
X0067140Y0144100D01*
X0067253Y0144032D01*
X0067365Y0143960D01*
X0067474Y0143886D01*
X0067582Y0143808D01*
X0067686Y0143727D01*
X0067789Y0143643D01*
X0067889Y0143555D01*
X0067986Y0143465D01*
X0068080Y0143372D01*
X0068172Y0143276D01*
X0068260Y0143178D01*
X0068346Y0143077D01*
X0068429Y0142973D01*
X0068508Y0142867D01*
X0068584Y0142759D01*
X0068657Y0142648D01*
X0068727Y0142536D01*
X0068793Y0142421D01*
X0068856Y0142304D01*
X0068915Y0142186D01*
X0068971Y0142065D01*
X0069023Y0141944D01*
X0069072Y0141820D01*
X0069116Y0141695D01*
X0069157Y0141569D01*
X0069194Y0141442D01*
X0069228Y0141314D01*
X0069257Y0141185D01*
X0069283Y0141055D01*
X0069305Y0140924D01*
X0069322Y0140793D01*
X0069336Y0140661D01*
X0069346Y0140529D01*
X0069352Y0140396D01*
X0069354Y0140264D01*
X0069352Y0140132D01*
X0069346Y0139999D01*
X0069336Y0139867D01*
X0069322Y0139735D01*
X0069305Y0139604D01*
X0069283Y0139473D01*
X0069257Y0139343D01*
X0069228Y0139214D01*
X0069194Y0139086D01*
X0069157Y0138959D01*
X0069116Y0138833D01*
X0069072Y0138708D01*
X0069023Y0138584D01*
X0068971Y0138463D01*
X0068915Y0138342D01*
X0068856Y0138224D01*
X0068793Y0138107D01*
X0068727Y0137992D01*
X0068657Y0137880D01*
X0068584Y0137769D01*
X0068508Y0137661D01*
X0068429Y0137555D01*
X0068346Y0137451D01*
X0068260Y0137350D01*
X0068172Y0137252D01*
X0068080Y0137156D01*
X0067986Y0137063D01*
X0067889Y0136973D01*
X0067789Y0136885D01*
X0067686Y0136801D01*
X0067582Y0136720D01*
X0067474Y0136642D01*
X0067365Y0136568D01*
X0067253Y0136496D01*
X0067139Y0136428D01*
X0067024Y0136364D01*
X0066906Y0136303D01*
X0066787Y0136245D01*
X0066666Y0136191D01*
X0066543Y0136141D01*
X0066419Y0136095D01*
X0066294Y0136052D01*
X0066167Y0136013D01*
X0066039Y0135977D01*
X0065911Y0135946D01*
X0065781Y0135918D01*
X0065651Y0135895D01*
X0065520Y0135875D01*
X0065388Y0135859D01*
X0065256Y0135847D01*
X0065124Y0135839D01*
X0064991Y0135835D01*
X0064859Y0135835D01*
X0064726Y0135839D01*
X0064594Y0135847D01*
X0064462Y0135859D01*
X0064330Y0135875D01*
X0064199Y0135895D01*
X0064069Y0135918D01*
X0063939Y0135946D01*
X0063811Y0135977D01*
X0063683Y0136013D01*
X0063556Y0136052D01*
X0063431Y0136095D01*
X0063307Y0136141D01*
X0063184Y0136191D01*
X0063063Y0136245D01*
X0062944Y0136303D01*
X0062826Y0136364D01*
X0062710Y0136428D01*
X0062597Y0136496D01*
X0062485Y0136568D01*
X0062376Y0136642D01*
X0062268Y0136720D01*
X0062164Y0136801D01*
X0062061Y0136885D01*
X0061961Y0136973D01*
X0061864Y0137063D01*
X0061770Y0137156D01*
X0061678Y0137252D01*
X0061590Y0137350D01*
X0061504Y0137451D01*
X0061421Y0137555D01*
X0061342Y0137661D01*
X0061266Y0137769D01*
X0061193Y0137880D01*
X0061123Y0137992D01*
X0061057Y0138107D01*
X0060994Y0138224D01*
X0060935Y0138342D01*
X0060879Y0138463D01*
X0060827Y0138584D01*
X0060778Y0138708D01*
X0060734Y0138833D01*
X0060693Y0138959D01*
X0060656Y0139086D01*
X0060622Y0139214D01*
X0060593Y0139343D01*
X0060567Y0139473D01*
X0060545Y0139604D01*
X0060528Y0139735D01*
X0060514Y0139867D01*
X0060504Y0139999D01*
X0060498Y0140132D01*
X0060496Y0140264D01*
D12*
X0100358Y0128315D03*
X0107051Y0128315D03*
X0109846Y0118315D03*
X0116539Y0118315D03*
X0130831Y0127016D03*
X0137524Y0127016D03*
X0185949Y0060480D03*
X0192642Y0060480D03*
X0192642Y0048669D03*
X0185949Y0048669D03*
X0185949Y0036858D03*
X0192642Y0036858D03*
X0153272Y0032921D03*
X0146579Y0032921D03*
X0137051Y0033315D03*
X0130358Y0033315D03*
X0122051Y0033315D03*
X0115358Y0033315D03*
X0109965Y0017173D03*
X0103272Y0017173D03*
X0115358Y0053315D03*
X0122051Y0053315D03*
D13*
X0123323Y0115520D02*
X0123323Y0118276D01*
X0126079Y0118276D01*
X0126079Y0115520D01*
X0123323Y0115520D01*
X0123323Y0116700D02*
X0126079Y0116700D01*
X0126079Y0117880D02*
X0123323Y0117880D01*
X0130228Y0118276D02*
X0130228Y0115520D01*
X0130228Y0118276D02*
X0132984Y0118276D01*
X0132984Y0115520D01*
X0130228Y0115520D01*
X0130228Y0116700D02*
X0132984Y0116700D01*
X0132984Y0117880D02*
X0130228Y0117880D01*
D14*
X0133705Y0138315D03*
X0123705Y0138315D03*
X0113705Y0138315D03*
X0103705Y0138315D03*
X0093705Y0138315D03*
X0088705Y0128315D03*
X0088705Y0118315D03*
X0088705Y0108315D03*
X0088705Y0098315D03*
X0088705Y0088315D03*
X0088705Y0078315D03*
X0088705Y0068315D03*
X0088705Y0058315D03*
X0088705Y0048315D03*
X0088705Y0038315D03*
X0088705Y0028315D03*
X0088705Y0018315D03*
X0122366Y0017173D03*
X0132366Y0017173D03*
X0142366Y0017173D03*
X0143705Y0138315D03*
D15*
X0139335Y0110598D03*
X0139335Y0103906D03*
X0177091Y0059496D03*
X0177091Y0052803D03*
X0188508Y0024457D03*
X0197563Y0024457D03*
X0197563Y0017764D03*
X0188508Y0017764D03*
X0077878Y0026425D03*
X0077878Y0033118D03*
D16*
G36*
X0123849Y0066025D02*
X0120315Y0069559D01*
X0121871Y0071115D01*
X0125405Y0067581D01*
X0123849Y0066025D01*
G37*
G36*
X0126076Y0068252D02*
X0122542Y0071786D01*
X0124098Y0073342D01*
X0127632Y0069808D01*
X0126076Y0068252D01*
G37*
G36*
X0128303Y0070479D02*
X0124769Y0074013D01*
X0126325Y0075569D01*
X0129859Y0072035D01*
X0128303Y0070479D01*
G37*
G36*
X0130530Y0072706D02*
X0126996Y0076240D01*
X0128552Y0077796D01*
X0132086Y0074262D01*
X0130530Y0072706D01*
G37*
G36*
X0132757Y0074933D02*
X0129223Y0078467D01*
X0130779Y0080023D01*
X0134313Y0076489D01*
X0132757Y0074933D01*
G37*
G36*
X0134984Y0077161D02*
X0131450Y0080695D01*
X0133006Y0082251D01*
X0136540Y0078717D01*
X0134984Y0077161D01*
G37*
G36*
X0137212Y0079388D02*
X0133678Y0082922D01*
X0135234Y0084478D01*
X0138768Y0080944D01*
X0137212Y0079388D01*
G37*
G36*
X0139439Y0081615D02*
X0135905Y0085149D01*
X0137461Y0086705D01*
X0140995Y0083171D01*
X0139439Y0081615D01*
G37*
G36*
X0108857Y0098834D02*
X0105323Y0102368D01*
X0106879Y0103924D01*
X0110413Y0100390D01*
X0108857Y0098834D01*
G37*
G36*
X0106630Y0096607D02*
X0103096Y0100141D01*
X0104652Y0101697D01*
X0108186Y0098163D01*
X0106630Y0096607D01*
G37*
G36*
X0104403Y0094379D02*
X0100869Y0097913D01*
X0102425Y0099469D01*
X0105959Y0095935D01*
X0104403Y0094379D01*
G37*
G36*
X0102176Y0092152D02*
X0098642Y0095686D01*
X0100198Y0097242D01*
X0103732Y0093708D01*
X0102176Y0092152D01*
G37*
G36*
X0099949Y0089925D02*
X0096415Y0093459D01*
X0097971Y0095015D01*
X0101505Y0091481D01*
X0099949Y0089925D01*
G37*
G36*
X0111084Y0101061D02*
X0107550Y0104595D01*
X0109106Y0106151D01*
X0112640Y0102617D01*
X0111084Y0101061D01*
G37*
G36*
X0113311Y0103288D02*
X0109777Y0106822D01*
X0111333Y0108378D01*
X0114867Y0104844D01*
X0113311Y0103288D01*
G37*
G36*
X0115538Y0105515D02*
X0112004Y0109049D01*
X0113560Y0110605D01*
X0117094Y0107071D01*
X0115538Y0105515D01*
G37*
D17*
G36*
X0121871Y0105515D02*
X0120315Y0107071D01*
X0123849Y0110605D01*
X0125405Y0109049D01*
X0121871Y0105515D01*
G37*
G36*
X0124098Y0103288D02*
X0122542Y0104844D01*
X0126076Y0108378D01*
X0127632Y0106822D01*
X0124098Y0103288D01*
G37*
G36*
X0126325Y0101061D02*
X0124769Y0102617D01*
X0128303Y0106151D01*
X0129859Y0104595D01*
X0126325Y0101061D01*
G37*
G36*
X0128552Y0098834D02*
X0126996Y0100390D01*
X0130530Y0103924D01*
X0132086Y0102368D01*
X0128552Y0098834D01*
G37*
G36*
X0130779Y0096607D02*
X0129223Y0098163D01*
X0132757Y0101697D01*
X0134313Y0100141D01*
X0130779Y0096607D01*
G37*
G36*
X0133006Y0094379D02*
X0131450Y0095935D01*
X0134984Y0099469D01*
X0136540Y0097913D01*
X0133006Y0094379D01*
G37*
G36*
X0135234Y0092152D02*
X0133678Y0093708D01*
X0137212Y0097242D01*
X0138768Y0095686D01*
X0135234Y0092152D01*
G37*
G36*
X0137461Y0089925D02*
X0135905Y0091481D01*
X0139439Y0095015D01*
X0140995Y0093459D01*
X0137461Y0089925D01*
G37*
G36*
X0109106Y0070479D02*
X0107550Y0072035D01*
X0111084Y0075569D01*
X0112640Y0074013D01*
X0109106Y0070479D01*
G37*
G36*
X0111333Y0068252D02*
X0109777Y0069808D01*
X0113311Y0073342D01*
X0114867Y0071786D01*
X0111333Y0068252D01*
G37*
G36*
X0113560Y0066025D02*
X0112004Y0067581D01*
X0115538Y0071115D01*
X0117094Y0069559D01*
X0113560Y0066025D01*
G37*
G36*
X0106879Y0072706D02*
X0105323Y0074262D01*
X0108857Y0077796D01*
X0110413Y0076240D01*
X0106879Y0072706D01*
G37*
G36*
X0104652Y0074933D02*
X0103096Y0076489D01*
X0106630Y0080023D01*
X0108186Y0078467D01*
X0104652Y0074933D01*
G37*
G36*
X0102425Y0077161D02*
X0100869Y0078717D01*
X0104403Y0082251D01*
X0105959Y0080695D01*
X0102425Y0077161D01*
G37*
G36*
X0100198Y0079388D02*
X0098642Y0080944D01*
X0102176Y0084478D01*
X0103732Y0082922D01*
X0100198Y0079388D01*
G37*
G36*
X0097971Y0081615D02*
X0096415Y0083171D01*
X0099949Y0086705D01*
X0101505Y0085149D01*
X0097971Y0081615D01*
G37*
D18*
X0128193Y0057252D03*
X0128193Y0055283D03*
X0128193Y0053315D03*
X0128193Y0051346D03*
X0128193Y0049378D03*
X0139217Y0049378D03*
X0139217Y0051346D03*
X0139217Y0053315D03*
X0139217Y0055283D03*
X0139217Y0057252D03*
D19*
X0135673Y0058827D03*
X0133705Y0058827D03*
X0131736Y0058827D03*
X0131736Y0047803D03*
X0133705Y0047803D03*
X0135673Y0047803D03*
D20*
X0103340Y0105677D02*
X0097612Y0105677D01*
X0097612Y0110402D02*
X0103340Y0110402D01*
X0103340Y0115126D02*
X0097612Y0115126D01*
D21*
X0096476Y0115126D02*
X0100476Y0115126D01*
X0104476Y0115126D01*
X0106042Y0113863D02*
X0106498Y0113863D01*
X0106607Y0113754D02*
X0107185Y0113754D01*
X0107185Y0111983D01*
X0105514Y0110312D01*
X0105514Y0110402D01*
X0105514Y0110688D01*
X0105366Y0111240D01*
X0105080Y0111736D01*
X0104776Y0112039D01*
X0104776Y0113126D01*
X0105305Y0113126D01*
X0106270Y0114091D01*
X0106607Y0113754D01*
X0107185Y0112865D02*
X0104776Y0112865D01*
X0104949Y0111866D02*
X0107068Y0111866D01*
X0106069Y0110868D02*
X0105466Y0110868D01*
X0105514Y0110402D02*
X0100477Y0110402D01*
X0100477Y0110402D01*
X0105514Y0110402D01*
X0104476Y0110402D02*
X0100476Y0110402D01*
X0096476Y0110402D01*
X0096476Y0105677D02*
X0100476Y0105677D01*
X0104476Y0105677D01*
X0108558Y0107725D02*
X0108558Y0108265D01*
X0110785Y0110492D01*
X0110785Y0113283D01*
X0111568Y0114065D01*
X0111568Y0114846D01*
X0112633Y0114846D01*
X0113193Y0115406D01*
X0113753Y0114846D01*
X0117462Y0114846D01*
X0117573Y0114736D01*
X0116715Y0114736D01*
X0115729Y0114328D01*
X0114975Y0113574D01*
X0114567Y0112588D01*
X0114567Y0111719D01*
X0114181Y0112106D01*
X0112938Y0112106D01*
X0110711Y0109878D01*
X0108558Y0107725D01*
X0108558Y0107872D02*
X0108705Y0107872D01*
X0109164Y0108871D02*
X0109703Y0108871D01*
X0110162Y0109869D02*
X0110702Y0109869D01*
X0110785Y0110868D02*
X0111700Y0110868D01*
X0110785Y0111866D02*
X0112699Y0111866D01*
X0114420Y0111866D02*
X0114567Y0111866D01*
X0114681Y0112865D02*
X0110785Y0112865D01*
X0111366Y0113863D02*
X0115265Y0113863D01*
X0113737Y0114862D02*
X0112648Y0114862D01*
X0123291Y0120853D02*
X0139109Y0120853D01*
X0139549Y0121035D02*
X0138564Y0120627D01*
X0137810Y0119873D01*
X0137402Y0118888D01*
X0137402Y0118219D01*
X0134862Y0115679D01*
X0134862Y0116413D01*
X0132091Y0116413D01*
X0132091Y0117382D01*
X0134862Y0117382D01*
X0134862Y0118523D01*
X0134734Y0119000D01*
X0134487Y0119429D01*
X0134137Y0119778D01*
X0133709Y0120026D01*
X0133231Y0120154D01*
X0132091Y0120154D01*
X0132091Y0117382D01*
X0131122Y0117382D01*
X0131122Y0120154D01*
X0129981Y0120154D01*
X0129503Y0120026D01*
X0129075Y0119778D01*
X0128726Y0119429D01*
X0128478Y0119000D01*
X0128350Y0118523D01*
X0128350Y0117382D01*
X0131122Y0117382D01*
X0131122Y0116413D01*
X0132091Y0116413D01*
X0132091Y0113642D01*
X0132825Y0113642D01*
X0132277Y0113094D01*
X0127016Y0113094D01*
X0127016Y0113376D01*
X0126979Y0113464D01*
X0128169Y0114654D01*
X0128169Y0119142D01*
X0126945Y0120366D01*
X0123778Y0120366D01*
X0118535Y0125609D01*
X0123427Y0125609D01*
X0124450Y0126633D01*
X0127165Y0126633D01*
X0127165Y0124426D01*
X0128044Y0123547D01*
X0133617Y0123547D01*
X0134328Y0124258D01*
X0134328Y0124257D01*
X0134568Y0124017D01*
X0134861Y0123848D01*
X0135189Y0123760D01*
X0137039Y0123760D01*
X0137039Y0126531D01*
X0138008Y0126531D01*
X0138008Y0123760D01*
X0139858Y0123760D01*
X0140186Y0123848D01*
X0140479Y0124017D01*
X0140719Y0124257D01*
X0140889Y0124550D01*
X0140976Y0124878D01*
X0140976Y0126531D01*
X0138008Y0126531D01*
X0138008Y0127500D01*
X0140976Y0127500D01*
X0140976Y0129154D01*
X0140889Y0129481D01*
X0140719Y0129775D01*
X0140479Y0130014D01*
X0140186Y0130184D01*
X0139858Y0130272D01*
X0138008Y0130272D01*
X0138008Y0127500D01*
X0137039Y0127500D01*
X0137039Y0130272D01*
X0135189Y0130272D01*
X0134861Y0130184D01*
X0134568Y0130014D01*
X0134328Y0129775D01*
X0134328Y0129774D01*
X0133617Y0130484D01*
X0128044Y0130484D01*
X0127793Y0130233D01*
X0125505Y0130233D01*
X0125505Y0133432D01*
X0126650Y0133907D01*
X0128113Y0135369D01*
X0128844Y0137135D01*
X0129083Y0136400D01*
X0129439Y0135701D01*
X0129901Y0135066D01*
X0130456Y0134511D01*
X0131091Y0134049D01*
X0131790Y0133693D01*
X0132537Y0133450D01*
X0133205Y0133345D01*
X0133205Y0137815D01*
X0134205Y0137815D01*
X0134205Y0138815D01*
X0138675Y0138815D01*
X0138569Y0139483D01*
X0138327Y0140229D01*
X0137970Y0140929D01*
X0137509Y0141564D01*
X0136954Y0142119D01*
X0136319Y0142581D01*
X0135619Y0142937D01*
X0134873Y0143180D01*
X0134205Y0143285D01*
X0134205Y0138815D01*
X0133205Y0138815D01*
X0133205Y0143285D01*
X0132537Y0143180D01*
X0131790Y0142937D01*
X0131091Y0142581D01*
X0130456Y0142119D01*
X0129901Y0141564D01*
X0129439Y0140929D01*
X0129083Y0140229D01*
X0128844Y0139495D01*
X0128113Y0141261D01*
X0126650Y0142723D01*
X0124739Y0143515D01*
X0122670Y0143515D01*
X0120759Y0142723D01*
X0119296Y0141261D01*
X0118705Y0139832D01*
X0118113Y0141261D01*
X0116650Y0142723D01*
X0114739Y0143515D01*
X0112670Y0143515D01*
X0110759Y0142723D01*
X0109296Y0141261D01*
X0108705Y0139832D01*
X0108113Y0141261D01*
X0106650Y0142723D01*
X0104739Y0143515D01*
X0102670Y0143515D01*
X0100759Y0142723D01*
X0099477Y0141441D01*
X0098942Y0141976D01*
X0096311Y0144607D01*
X0091098Y0144607D01*
X0086268Y0139776D01*
X0086268Y0140039D01*
X0085389Y0140917D01*
X0080997Y0140917D01*
X0080118Y0140039D01*
X0080118Y0135253D01*
X0080997Y0134374D01*
X0085389Y0134374D01*
X0086268Y0135253D01*
X0086268Y0135846D01*
X0087428Y0135846D01*
X0088610Y0137027D01*
X0088979Y0136135D01*
X0087559Y0134715D01*
X0086054Y0134715D01*
X0084999Y0133661D01*
X0083359Y0132020D01*
X0082305Y0130966D01*
X0082305Y0125664D01*
X0084999Y0122969D01*
X0085684Y0122285D01*
X0085456Y0122119D01*
X0084901Y0121564D01*
X0084439Y0120929D01*
X0084083Y0120229D01*
X0083840Y0119483D01*
X0083734Y0118815D01*
X0088205Y0118815D01*
X0088205Y0117815D01*
X0083734Y0117815D01*
X0083840Y0117147D01*
X0084083Y0116400D01*
X0084439Y0115701D01*
X0084901Y0115066D01*
X0085456Y0114511D01*
X0086091Y0114049D01*
X0086790Y0113693D01*
X0087524Y0113454D01*
X0085759Y0112723D01*
X0084296Y0111261D01*
X0083505Y0109349D01*
X0083505Y0107281D01*
X0084296Y0105369D01*
X0085759Y0103907D01*
X0087188Y0103315D01*
X0085759Y0102723D01*
X0084296Y0101261D01*
X0083505Y0099349D01*
X0083505Y0097281D01*
X0084296Y0095369D01*
X0084708Y0094957D01*
X0083807Y0094957D01*
X0083334Y0095430D01*
X0082348Y0095839D01*
X0081282Y0095839D01*
X0080296Y0095430D01*
X0079542Y0094676D01*
X0079134Y0093691D01*
X0079134Y0092624D01*
X0079542Y0091639D01*
X0080296Y0090885D01*
X0081282Y0090476D01*
X0082348Y0090476D01*
X0083334Y0090885D01*
X0083807Y0091357D01*
X0084393Y0091357D01*
X0084296Y0091261D01*
X0083505Y0089349D01*
X0083505Y0087281D01*
X0084296Y0085369D01*
X0085759Y0083907D01*
X0087188Y0083315D01*
X0085759Y0082723D01*
X0084512Y0081476D01*
X0084890Y0082388D01*
X0084890Y0083455D01*
X0084482Y0084440D01*
X0083727Y0085194D01*
X0082742Y0085602D01*
X0081675Y0085602D01*
X0080690Y0085194D01*
X0079936Y0084440D01*
X0079528Y0083455D01*
X0079528Y0082388D01*
X0079936Y0081403D01*
X0080409Y0080930D01*
X0080409Y0041269D01*
X0079790Y0041887D01*
X0078805Y0042295D01*
X0077738Y0042295D01*
X0076753Y0041887D01*
X0075999Y0041133D01*
X0075591Y0040147D01*
X0075591Y0039081D01*
X0075999Y0038095D01*
X0076078Y0038016D01*
X0076078Y0036783D01*
X0075288Y0036783D01*
X0074409Y0035905D01*
X0074409Y0030331D01*
X0075120Y0029621D01*
X0075119Y0029621D01*
X0074879Y0029381D01*
X0074710Y0029087D01*
X0074622Y0028760D01*
X0074622Y0026909D01*
X0077394Y0026909D01*
X0077394Y0025941D01*
X0078362Y0025941D01*
X0078362Y0022972D01*
X0080016Y0022972D01*
X0080343Y0023060D01*
X0080409Y0023098D01*
X0080409Y0011703D01*
X0081463Y0010649D01*
X0128448Y0010649D01*
X0129307Y0009789D01*
X0154142Y0009789D01*
X0154514Y0010161D01*
X0155183Y0010161D01*
X0156168Y0010570D01*
X0156880Y0011281D01*
X0157428Y0010733D01*
X0189253Y0010733D01*
X0190308Y0011787D01*
X0190308Y0014098D01*
X0191098Y0014098D01*
X0191976Y0014977D01*
X0191976Y0017004D01*
X0193016Y0015964D01*
X0194094Y0015964D01*
X0194094Y0014977D01*
X0194973Y0014098D01*
X0200153Y0014098D01*
X0201031Y0014977D01*
X0201031Y0020550D01*
X0200472Y0021110D01*
X0201031Y0021670D01*
X0201031Y0027243D01*
X0200153Y0028122D01*
X0194973Y0028122D01*
X0194094Y0027243D01*
X0194094Y0026257D01*
X0191976Y0026257D01*
X0191976Y0027151D01*
X0202546Y0037720D01*
X0203214Y0037720D01*
X0204200Y0038129D01*
X0204954Y0038883D01*
X0205362Y0039868D01*
X0205362Y0040935D01*
X0204954Y0041920D01*
X0204200Y0042674D01*
X0203214Y0043083D01*
X0202148Y0043083D01*
X0201162Y0042674D01*
X0200408Y0041920D01*
X0200000Y0040935D01*
X0200000Y0040266D01*
X0196307Y0036573D01*
X0196307Y0037978D01*
X0204481Y0046152D01*
X0204481Y0063213D01*
X0204954Y0063686D01*
X0205362Y0064671D01*
X0205362Y0065738D01*
X0204954Y0066723D01*
X0204200Y0067478D01*
X0203214Y0067886D01*
X0202148Y0067886D01*
X0201162Y0067478D01*
X0200408Y0066723D01*
X0200000Y0065738D01*
X0200000Y0064671D01*
X0200408Y0063686D01*
X0200881Y0063213D01*
X0200881Y0057017D01*
X0200657Y0057241D01*
X0199671Y0057650D01*
X0198604Y0057650D01*
X0198190Y0057478D01*
X0196307Y0059361D01*
X0196307Y0061485D01*
X0196570Y0061736D01*
X0197309Y0061736D01*
X0198294Y0062144D01*
X0199049Y0062899D01*
X0199457Y0063884D01*
X0199457Y0064951D01*
X0199049Y0065936D01*
X0198294Y0066690D01*
X0197309Y0067098D01*
X0196242Y0067098D01*
X0195257Y0066690D01*
X0194503Y0065936D01*
X0194442Y0065789D01*
X0194442Y0075249D01*
X0194446Y0075241D01*
X0194686Y0075001D01*
X0194979Y0074832D01*
X0195307Y0074744D01*
X0199224Y0074744D01*
X0199224Y0077220D01*
X0199602Y0077220D01*
X0199602Y0074744D01*
X0203520Y0074744D01*
X0203847Y0074832D01*
X0204141Y0075001D01*
X0204381Y0075241D01*
X0204550Y0075535D01*
X0204638Y0075862D01*
X0204638Y0077220D01*
X0199602Y0077220D01*
X0199602Y0077598D01*
X0204638Y0077598D01*
X0204638Y0078957D01*
X0204550Y0079284D01*
X0204493Y0079383D01*
X0204850Y0079741D01*
X0204850Y0083739D01*
X0204493Y0084097D01*
X0204550Y0084196D01*
X0204638Y0084523D01*
X0204638Y0085882D01*
X0199602Y0085882D01*
X0199602Y0086260D01*
X0204638Y0086260D01*
X0204638Y0087618D01*
X0204550Y0087946D01*
X0204493Y0088045D01*
X0204850Y0088402D01*
X0204850Y0092401D01*
X0204684Y0092567D01*
X0204850Y0092733D01*
X0204850Y0096732D01*
X0204684Y0096898D01*
X0204850Y0097064D01*
X0204850Y0101062D01*
X0204684Y0101228D01*
X0204850Y0101394D01*
X0204850Y0105393D01*
X0204493Y0105750D01*
X0204550Y0105850D01*
X0204638Y0106177D01*
X0204638Y0107535D01*
X0199602Y0107535D01*
X0199602Y0107913D01*
X0204638Y0107913D01*
X0204638Y0109272D01*
X0204550Y0109599D01*
X0204382Y0109890D01*
X0204550Y0110180D01*
X0204638Y0110508D01*
X0204638Y0111866D01*
X0199602Y0111866D01*
X0199602Y0109390D01*
X0199602Y0107913D01*
X0199224Y0107913D01*
X0199224Y0107535D01*
X0194189Y0107535D01*
X0194189Y0106177D01*
X0194277Y0105850D01*
X0194334Y0105750D01*
X0193976Y0105393D01*
X0193976Y0101394D01*
X0194142Y0101228D01*
X0193976Y0101062D01*
X0193976Y0097064D01*
X0194142Y0096898D01*
X0193976Y0096732D01*
X0193976Y0092733D01*
X0194142Y0092567D01*
X0193976Y0092401D01*
X0193976Y0088402D01*
X0194334Y0088045D01*
X0194277Y0087946D01*
X0194189Y0087618D01*
X0194189Y0086260D01*
X0199224Y0086260D01*
X0199224Y0085882D01*
X0194189Y0085882D01*
X0194189Y0084523D01*
X0194277Y0084196D01*
X0194334Y0084097D01*
X0193976Y0083739D01*
X0193976Y0083540D01*
X0192093Y0083540D01*
X0191039Y0082486D01*
X0190842Y0082289D01*
X0190842Y0063949D01*
X0190785Y0063949D01*
X0190785Y0085552D01*
X0161268Y0115069D01*
X0161268Y0115738D01*
X0160860Y0116723D01*
X0160105Y0117478D01*
X0159120Y0117886D01*
X0158053Y0117886D01*
X0157068Y0117478D01*
X0156314Y0116723D01*
X0155906Y0115738D01*
X0155906Y0114671D01*
X0156314Y0113686D01*
X0157068Y0112932D01*
X0158053Y0112524D01*
X0158722Y0112524D01*
X0160040Y0111205D01*
X0159120Y0111587D01*
X0158053Y0111587D01*
X0157068Y0111178D01*
X0156314Y0110424D01*
X0155906Y0109439D01*
X0155906Y0108372D01*
X0156314Y0107387D01*
X0156787Y0106914D01*
X0156787Y0082551D01*
X0156314Y0082078D01*
X0155906Y0081092D01*
X0155906Y0080026D01*
X0156314Y0079040D01*
X0157068Y0078286D01*
X0158053Y0077878D01*
X0159120Y0077878D01*
X0160105Y0078286D01*
X0160860Y0079040D01*
X0161268Y0080026D01*
X0161268Y0081092D01*
X0160860Y0082078D01*
X0160387Y0082551D01*
X0160387Y0106914D01*
X0160860Y0107387D01*
X0161268Y0108372D01*
X0161268Y0109439D01*
X0160886Y0110359D01*
X0187185Y0084061D01*
X0187185Y0076941D01*
X0184816Y0076941D01*
X0184650Y0076775D01*
X0184484Y0076941D01*
X0180485Y0076941D01*
X0180319Y0076775D01*
X0180153Y0076941D01*
X0176154Y0076941D01*
X0175988Y0076775D01*
X0175822Y0076941D01*
X0171824Y0076941D01*
X0171657Y0076775D01*
X0171491Y0076941D01*
X0171292Y0076941D01*
X0171292Y0082780D01*
X0171883Y0083371D01*
X0172291Y0084356D01*
X0172291Y0085423D01*
X0171883Y0086408D01*
X0171129Y0087163D01*
X0170144Y0087571D01*
X0169077Y0087571D01*
X0168092Y0087163D01*
X0167337Y0086408D01*
X0166961Y0085501D01*
X0166961Y0096560D01*
X0167552Y0097151D01*
X0167961Y0098136D01*
X0167961Y0099203D01*
X0167552Y0100188D01*
X0166798Y0100942D01*
X0165813Y0101350D01*
X0164746Y0101350D01*
X0163761Y0100942D01*
X0163007Y0100188D01*
X0162598Y0099203D01*
X0162598Y0098136D01*
X0163007Y0097151D01*
X0163361Y0096796D01*
X0163361Y0076941D01*
X0163162Y0076941D01*
X0162996Y0076775D01*
X0162830Y0076941D01*
X0158831Y0076941D01*
X0157953Y0076062D01*
X0157953Y0066946D01*
X0158831Y0066067D01*
X0162830Y0066067D01*
X0162996Y0066233D01*
X0163162Y0066067D01*
X0167161Y0066067D01*
X0167327Y0066233D01*
X0167493Y0066067D01*
X0171491Y0066067D01*
X0171657Y0066233D01*
X0171824Y0066067D01*
X0175822Y0066067D01*
X0175988Y0066233D01*
X0176154Y0066067D01*
X0180153Y0066067D01*
X0180319Y0066233D01*
X0180485Y0066067D01*
X0184149Y0066067D01*
X0184149Y0063949D01*
X0183162Y0063949D01*
X0182283Y0063070D01*
X0182283Y0057890D01*
X0183162Y0057012D01*
X0184149Y0057012D01*
X0184149Y0054983D01*
X0183737Y0055395D01*
X0180559Y0058573D01*
X0180559Y0062283D01*
X0179680Y0063161D01*
X0174501Y0063161D01*
X0173622Y0062283D01*
X0173622Y0056709D01*
X0174182Y0056150D01*
X0173622Y0055590D01*
X0173622Y0050016D01*
X0174501Y0049138D01*
X0175291Y0049138D01*
X0175291Y0044755D01*
X0174818Y0044282D01*
X0174409Y0043297D01*
X0174409Y0042396D01*
X0174314Y0042628D01*
X0172230Y0044711D01*
X0169508Y0045839D01*
X0166562Y0045839D01*
X0163841Y0044711D01*
X0161757Y0042628D01*
X0160630Y0039906D01*
X0160630Y0036960D01*
X0161757Y0034238D01*
X0163841Y0032155D01*
X0166562Y0031028D01*
X0169508Y0031028D01*
X0172230Y0032155D01*
X0174314Y0034238D01*
X0175441Y0036960D01*
X0175441Y0039906D01*
X0174935Y0041128D01*
X0175572Y0040491D01*
X0176557Y0040083D01*
X0177624Y0040083D01*
X0178609Y0040491D01*
X0179363Y0041245D01*
X0179772Y0042230D01*
X0179772Y0043297D01*
X0179621Y0043662D01*
X0179707Y0043626D01*
X0180773Y0043626D01*
X0181759Y0044034D01*
X0182232Y0044507D01*
X0182311Y0044507D01*
X0182710Y0044109D01*
X0189188Y0044109D01*
X0189731Y0044651D01*
X0190493Y0045413D01*
X0192157Y0045413D01*
X0192157Y0048185D01*
X0193126Y0048185D01*
X0193126Y0045413D01*
X0194977Y0045413D01*
X0195304Y0045501D01*
X0195598Y0045671D01*
X0195837Y0045910D01*
X0196007Y0046204D01*
X0196094Y0046531D01*
X0196094Y0048185D01*
X0193126Y0048185D01*
X0193126Y0049154D01*
X0192157Y0049154D01*
X0192157Y0051925D01*
X0190785Y0051925D01*
X0190785Y0057012D01*
X0193565Y0057012D01*
X0196680Y0053897D01*
X0196865Y0053450D01*
X0197619Y0052696D01*
X0198604Y0052287D01*
X0199671Y0052287D01*
X0200657Y0052696D01*
X0200881Y0052920D01*
X0200881Y0047643D01*
X0193565Y0040327D01*
X0189855Y0040327D01*
X0189145Y0039616D01*
X0189144Y0039617D01*
X0188905Y0039857D01*
X0188611Y0040026D01*
X0188284Y0040114D01*
X0186433Y0040114D01*
X0186433Y0037343D01*
X0185465Y0037343D01*
X0185465Y0040114D01*
X0183614Y0040114D01*
X0183287Y0040026D01*
X0182993Y0039857D01*
X0182753Y0039617D01*
X0182584Y0039324D01*
X0182496Y0038996D01*
X0182496Y0037343D01*
X0185464Y0037343D01*
X0185464Y0036374D01*
X0182496Y0036374D01*
X0182496Y0034720D01*
X0182584Y0034393D01*
X0182753Y0034099D01*
X0182993Y0033860D01*
X0183287Y0033690D01*
X0183614Y0033602D01*
X0185465Y0033602D01*
X0185465Y0036374D01*
X0186433Y0036374D01*
X0186433Y0033602D01*
X0188021Y0033602D01*
X0174273Y0019854D01*
X0171154Y0019854D01*
X0170276Y0018976D01*
X0170276Y0015425D01*
X0168945Y0015425D01*
X0168945Y0018976D01*
X0168066Y0019854D01*
X0163674Y0019854D01*
X0162795Y0018976D01*
X0162795Y0018660D01*
X0162552Y0018903D01*
X0162552Y0018903D01*
X0161498Y0019957D01*
X0155662Y0025793D01*
X0155662Y0029453D01*
X0156058Y0029453D01*
X0156603Y0029997D01*
X0159055Y0027545D01*
X0159055Y0026876D01*
X0159463Y0025891D01*
X0160217Y0025137D01*
X0161203Y0024728D01*
X0162270Y0024728D01*
X0163255Y0025137D01*
X0164009Y0025891D01*
X0164417Y0026876D01*
X0164417Y0027943D01*
X0164009Y0028928D01*
X0163255Y0029682D01*
X0162270Y0030091D01*
X0161601Y0030091D01*
X0158137Y0033554D01*
X0158137Y0040522D01*
X0166682Y0049067D01*
X0167736Y0050121D01*
X0167736Y0055092D01*
X0166682Y0056146D01*
X0166682Y0056146D01*
X0149688Y0073140D01*
X0148633Y0074195D01*
X0145051Y0074195D01*
X0145051Y0074531D01*
X0152791Y0074531D01*
X0153669Y0075410D01*
X0153669Y0079409D01*
X0153503Y0079575D01*
X0153669Y0079741D01*
X0153669Y0083739D01*
X0153503Y0083906D01*
X0153669Y0084072D01*
X0153669Y0088070D01*
X0153503Y0088236D01*
X0153669Y0088402D01*
X0153669Y0092401D01*
X0153503Y0092567D01*
X0153669Y0092733D01*
X0153669Y0096732D01*
X0153503Y0096898D01*
X0153669Y0097064D01*
X0153669Y0101062D01*
X0153503Y0101228D01*
X0153669Y0101394D01*
X0153669Y0105393D01*
X0153503Y0105559D01*
X0153669Y0105725D01*
X0153669Y0109724D01*
X0153312Y0110081D01*
X0153369Y0110180D01*
X0153457Y0110508D01*
X0153457Y0111866D01*
X0148421Y0111866D01*
X0148421Y0112244D01*
X0148043Y0112244D01*
X0148043Y0111866D01*
X0143008Y0111866D01*
X0143008Y0110508D01*
X0143096Y0110180D01*
X0143153Y0110081D01*
X0142795Y0109724D01*
X0142795Y0106700D01*
X0142093Y0107402D01*
X0142094Y0107403D01*
X0142333Y0107643D01*
X0142503Y0107936D01*
X0142591Y0108264D01*
X0142591Y0110114D01*
X0139819Y0110114D01*
X0139819Y0111083D01*
X0138850Y0111083D01*
X0138850Y0114051D01*
X0138325Y0114051D01*
X0139947Y0115673D01*
X0140616Y0115673D01*
X0141601Y0116081D01*
X0142356Y0116836D01*
X0142764Y0117821D01*
X0142764Y0118888D01*
X0142356Y0119873D01*
X0141601Y0120627D01*
X0140616Y0121035D01*
X0139549Y0121035D01*
X0141057Y0120853D02*
X0148043Y0120853D01*
X0148043Y0120906D02*
X0148043Y0120528D01*
X0143008Y0120528D01*
X0143008Y0119169D01*
X0143096Y0118842D01*
X0143263Y0118551D01*
X0143096Y0118261D01*
X0143008Y0117933D01*
X0143008Y0116575D01*
X0148043Y0116575D01*
X0148043Y0116197D01*
X0143008Y0116197D01*
X0143008Y0114838D01*
X0143096Y0114511D01*
X0143263Y0114220D01*
X0143096Y0113930D01*
X0143008Y0113603D01*
X0143008Y0112244D01*
X0148043Y0112244D01*
X0148043Y0114720D01*
X0148043Y0116197D01*
X0148421Y0116197D01*
X0148421Y0112244D01*
X0153457Y0112244D01*
X0153457Y0113603D01*
X0153369Y0113930D01*
X0153201Y0114220D01*
X0153369Y0114511D01*
X0153457Y0114838D01*
X0153457Y0116197D01*
X0148421Y0116197D01*
X0148421Y0116575D01*
X0148043Y0116575D01*
X0148043Y0119051D01*
X0148043Y0120527D01*
X0148421Y0120527D01*
X0148421Y0116575D01*
X0153457Y0116575D01*
X0153457Y0117933D01*
X0153369Y0118261D01*
X0153201Y0118551D01*
X0153369Y0118842D01*
X0153457Y0119169D01*
X0153457Y0120528D01*
X0148421Y0120528D01*
X0148421Y0120906D01*
X0148043Y0120906D01*
X0148043Y0123382D01*
X0148043Y0124858D01*
X0143008Y0124858D01*
X0143008Y0123500D01*
X0143096Y0123172D01*
X0143263Y0122882D01*
X0143096Y0122591D01*
X0143008Y0122264D01*
X0143008Y0120906D01*
X0148043Y0120906D01*
X0148421Y0120906D02*
X0148421Y0124858D01*
X0148043Y0124858D01*
X0148043Y0125236D01*
X0143008Y0125236D01*
X0143008Y0126595D01*
X0143096Y0126922D01*
X0143265Y0127216D01*
X0143505Y0127455D01*
X0143798Y0127625D01*
X0144126Y0127713D01*
X0148043Y0127713D01*
X0148043Y0125236D01*
X0148421Y0125236D01*
X0148421Y0127713D01*
X0152339Y0127713D01*
X0152666Y0127625D01*
X0152960Y0127455D01*
X0153199Y0127216D01*
X0153369Y0126922D01*
X0153457Y0126595D01*
X0153457Y0125236D01*
X0148421Y0125236D01*
X0148421Y0124858D01*
X0153457Y0124858D01*
X0153457Y0123500D01*
X0153369Y0123172D01*
X0153201Y0122882D01*
X0153369Y0122591D01*
X0153457Y0122264D01*
X0153457Y0120906D01*
X0148421Y0120906D01*
X0148421Y0120853D02*
X0193976Y0120853D01*
X0193976Y0121851D02*
X0153457Y0121851D01*
X0153220Y0122850D02*
X0194110Y0122850D01*
X0193976Y0122716D02*
X0193976Y0118717D01*
X0194334Y0118360D01*
X0194277Y0118261D01*
X0194189Y0117933D01*
X0194189Y0116575D01*
X0199224Y0116575D01*
X0199224Y0116197D01*
X0194189Y0116197D01*
X0194189Y0114838D01*
X0194277Y0114511D01*
X0194444Y0114220D01*
X0194277Y0113930D01*
X0194189Y0113603D01*
X0194189Y0112244D01*
X0199224Y0112244D01*
X0199224Y0111866D01*
X0194189Y0111866D01*
X0194189Y0110508D01*
X0194277Y0110180D01*
X0194444Y0109890D01*
X0194277Y0109599D01*
X0194189Y0109272D01*
X0194189Y0107913D01*
X0199224Y0107913D01*
X0199224Y0111866D01*
X0199602Y0111866D01*
X0199602Y0112244D01*
X0199224Y0112244D01*
X0199224Y0116197D01*
X0199602Y0116197D01*
X0199602Y0113720D01*
X0199602Y0112244D01*
X0204638Y0112244D01*
X0204638Y0113603D01*
X0204550Y0113930D01*
X0204382Y0114220D01*
X0204550Y0114511D01*
X0204638Y0114838D01*
X0204638Y0116197D01*
X0199602Y0116197D01*
X0199602Y0116575D01*
X0204638Y0116575D01*
X0204638Y0117263D01*
X0214961Y0106940D01*
X0216070Y0105831D01*
X0242323Y0105831D01*
X0242323Y0100784D01*
X0243202Y0099906D01*
X0247987Y0099906D01*
X0248866Y0100784D01*
X0248866Y0103805D01*
X0252985Y0107924D01*
X0252985Y0109965D01*
X0258047Y0109965D01*
X0258925Y0110843D01*
X0258925Y0115629D01*
X0258047Y0116508D01*
X0257631Y0116508D01*
X0257631Y0117228D01*
X0258224Y0117228D01*
X0258858Y0117863D01*
X0258858Y0116158D01*
X0259737Y0115280D01*
X0270822Y0115280D01*
X0271701Y0116158D01*
X0271701Y0123700D01*
X0270822Y0124579D01*
X0259737Y0124579D01*
X0258890Y0123732D01*
X0258890Y0124632D01*
X0256167Y0124632D01*
X0256167Y0125305D01*
X0255494Y0125305D01*
X0255494Y0124632D01*
X0252772Y0124632D01*
X0252772Y0123126D01*
X0252818Y0122955D01*
X0252559Y0122696D01*
X0252559Y0118107D01*
X0253438Y0117228D01*
X0254031Y0117228D01*
X0254031Y0116508D01*
X0250459Y0116508D01*
X0248863Y0118104D01*
X0248866Y0118107D01*
X0248866Y0122696D01*
X0248608Y0122955D01*
X0248654Y0123126D01*
X0248654Y0124632D01*
X0245931Y0124632D01*
X0245931Y0125305D01*
X0245258Y0125305D01*
X0245258Y0124632D01*
X0242535Y0124632D01*
X0242535Y0123126D01*
X0242581Y0122955D01*
X0242323Y0122696D01*
X0242323Y0118107D01*
X0243202Y0117228D01*
X0244647Y0117228D01*
X0248012Y0113864D01*
X0248012Y0110843D01*
X0248890Y0109965D01*
X0249385Y0109965D01*
X0249385Y0109415D01*
X0248866Y0108896D01*
X0248866Y0109940D01*
X0247987Y0110819D01*
X0243202Y0110819D01*
X0242323Y0109940D01*
X0242323Y0109618D01*
X0217639Y0109618D01*
X0204850Y0122406D01*
X0204850Y0122716D01*
X0204493Y0123073D01*
X0204550Y0123172D01*
X0204638Y0123500D01*
X0204638Y0124858D01*
X0199602Y0124858D01*
X0199602Y0125236D01*
X0199224Y0125236D01*
X0199224Y0124858D01*
X0194189Y0124858D01*
X0194189Y0123500D01*
X0194277Y0123172D01*
X0194334Y0123073D01*
X0193976Y0122716D01*
X0194189Y0123848D02*
X0153457Y0123848D01*
X0153457Y0124847D02*
X0194189Y0124847D01*
X0194189Y0125236D02*
X0199224Y0125236D01*
X0199224Y0127713D01*
X0195307Y0127713D01*
X0194979Y0127625D01*
X0194686Y0127455D01*
X0194446Y0127216D01*
X0194277Y0126922D01*
X0194189Y0126595D01*
X0194189Y0125236D01*
X0194189Y0125845D02*
X0153457Y0125845D01*
X0153390Y0126844D02*
X0194256Y0126844D01*
X0199224Y0126844D02*
X0199602Y0126844D01*
X0199602Y0127713D02*
X0199602Y0125236D01*
X0204638Y0125236D01*
X0204638Y0126595D01*
X0204550Y0126922D01*
X0204381Y0127216D01*
X0204141Y0127455D01*
X0203847Y0127625D01*
X0203520Y0127713D01*
X0199602Y0127713D01*
X0199602Y0125845D02*
X0199224Y0125845D01*
X0204638Y0125845D02*
X0216498Y0125845D01*
X0216498Y0124847D02*
X0204638Y0124847D01*
X0204638Y0123848D02*
X0216498Y0123848D01*
X0216498Y0122850D02*
X0204716Y0122850D01*
X0205405Y0121851D02*
X0216498Y0121851D01*
X0216498Y0120853D02*
X0206404Y0120853D01*
X0207402Y0119854D02*
X0216498Y0119854D01*
X0216498Y0118856D02*
X0208401Y0118856D01*
X0209399Y0117857D02*
X0216498Y0117857D01*
X0216498Y0116859D02*
X0210398Y0116859D01*
X0211397Y0115860D02*
X0216498Y0115860D01*
X0216498Y0114862D02*
X0212395Y0114862D01*
X0213394Y0113863D02*
X0216498Y0113863D01*
X0216498Y0112865D02*
X0214392Y0112865D01*
X0215391Y0111866D02*
X0216573Y0111866D01*
X0216498Y0111941D02*
X0216937Y0111502D01*
X0236456Y0111502D01*
X0236896Y0111941D01*
X0236896Y0127917D01*
X0236456Y0128356D01*
X0235835Y0128356D01*
X0216937Y0128356D01*
X0216498Y0127917D01*
X0216498Y0111941D01*
X0216389Y0110868D02*
X0248012Y0110868D01*
X0248012Y0111866D02*
X0236821Y0111866D01*
X0236896Y0112865D02*
X0248012Y0112865D01*
X0248012Y0113863D02*
X0236896Y0113863D01*
X0236896Y0114862D02*
X0247014Y0114862D01*
X0246015Y0115860D02*
X0236896Y0115860D01*
X0236896Y0116859D02*
X0245017Y0116859D01*
X0242573Y0117857D02*
X0236896Y0117857D01*
X0236896Y0118856D02*
X0242323Y0118856D01*
X0242323Y0119854D02*
X0236896Y0119854D01*
X0236896Y0120853D02*
X0242323Y0120853D01*
X0242323Y0121851D02*
X0236896Y0121851D01*
X0236896Y0122850D02*
X0242477Y0122850D01*
X0242535Y0123848D02*
X0236896Y0123848D01*
X0236896Y0124847D02*
X0245258Y0124847D01*
X0245258Y0125305D02*
X0242535Y0125305D01*
X0242535Y0126811D01*
X0242623Y0127139D01*
X0242793Y0127432D01*
X0243032Y0127672D01*
X0243326Y0127841D01*
X0243653Y0127929D01*
X0245258Y0127929D01*
X0245258Y0125305D01*
X0245258Y0125845D02*
X0245931Y0125845D01*
X0245931Y0125305D02*
X0245931Y0127929D01*
X0247536Y0127929D01*
X0247863Y0127841D01*
X0248157Y0127672D01*
X0248396Y0127432D01*
X0248566Y0127139D01*
X0248654Y0126811D01*
X0248654Y0125305D01*
X0245931Y0125305D01*
X0245931Y0124847D02*
X0255494Y0124847D01*
X0255494Y0125305D02*
X0252772Y0125305D01*
X0252772Y0126811D01*
X0252859Y0127139D01*
X0253029Y0127432D01*
X0253269Y0127672D01*
X0253562Y0127841D01*
X0253890Y0127929D01*
X0255494Y0127929D01*
X0255494Y0125305D01*
X0255494Y0125845D02*
X0256167Y0125845D01*
X0256167Y0125305D02*
X0256167Y0127929D01*
X0257772Y0127929D01*
X0258099Y0127841D01*
X0258393Y0127672D01*
X0258633Y0127432D01*
X0258802Y0127139D01*
X0258890Y0126811D01*
X0258890Y0125305D01*
X0256167Y0125305D01*
X0256167Y0124847D02*
X0277259Y0124847D01*
X0277259Y0125845D02*
X0258890Y0125845D01*
X0258881Y0126844D02*
X0277259Y0126844D01*
X0277259Y0127842D02*
X0258095Y0127842D01*
X0256167Y0127842D02*
X0255494Y0127842D01*
X0255494Y0126844D02*
X0256167Y0126844D01*
X0253566Y0127842D02*
X0247859Y0127842D01*
X0248645Y0126844D02*
X0252780Y0126844D01*
X0252772Y0125845D02*
X0248654Y0125845D01*
X0248654Y0123848D02*
X0252772Y0123848D01*
X0252713Y0122850D02*
X0248712Y0122850D01*
X0248866Y0121851D02*
X0252559Y0121851D01*
X0252559Y0120853D02*
X0248866Y0120853D01*
X0248866Y0119854D02*
X0252559Y0119854D01*
X0252559Y0118856D02*
X0248866Y0118856D01*
X0249110Y0117857D02*
X0252809Y0117857D01*
X0254031Y0116859D02*
X0250108Y0116859D01*
X0257631Y0116859D02*
X0258858Y0116859D01*
X0258853Y0117857D02*
X0258858Y0117857D01*
X0258694Y0115860D02*
X0259156Y0115860D01*
X0258925Y0114862D02*
X0277259Y0114862D01*
X0277259Y0115860D02*
X0271403Y0115860D01*
X0271701Y0116859D02*
X0277259Y0116859D01*
X0277259Y0117857D02*
X0271701Y0117857D01*
X0271701Y0118856D02*
X0277259Y0118856D01*
X0277259Y0119854D02*
X0271701Y0119854D01*
X0271701Y0120853D02*
X0277259Y0120853D01*
X0277259Y0121851D02*
X0271701Y0121851D01*
X0271701Y0122850D02*
X0277259Y0122850D01*
X0277259Y0123848D02*
X0271552Y0123848D01*
X0277259Y0128841D02*
X0140976Y0128841D01*
X0140976Y0127842D02*
X0216498Y0127842D01*
X0216498Y0126844D02*
X0204571Y0126844D01*
X0193976Y0119854D02*
X0153457Y0119854D01*
X0153373Y0118856D02*
X0193976Y0118856D01*
X0194189Y0117857D02*
X0159189Y0117857D01*
X0157985Y0117857D02*
X0153457Y0117857D01*
X0153457Y0116859D02*
X0156449Y0116859D01*
X0155956Y0115860D02*
X0153457Y0115860D01*
X0153457Y0114862D02*
X0155906Y0114862D01*
X0156240Y0113863D02*
X0153387Y0113863D01*
X0153457Y0112865D02*
X0157230Y0112865D01*
X0156757Y0110868D02*
X0153457Y0110868D01*
X0153524Y0109869D02*
X0156084Y0109869D01*
X0155906Y0108871D02*
X0153669Y0108871D01*
X0153669Y0107872D02*
X0156113Y0107872D01*
X0156787Y0106874D02*
X0153669Y0106874D01*
X0153669Y0105875D02*
X0156787Y0105875D01*
X0156787Y0104877D02*
X0153669Y0104877D01*
X0153669Y0103878D02*
X0156787Y0103878D01*
X0156787Y0102880D02*
X0153669Y0102880D01*
X0153669Y0101881D02*
X0156787Y0101881D01*
X0156787Y0100883D02*
X0153669Y0100883D01*
X0153669Y0099884D02*
X0156787Y0099884D01*
X0156787Y0098886D02*
X0153669Y0098886D01*
X0153669Y0097887D02*
X0156787Y0097887D01*
X0156787Y0096889D02*
X0153512Y0096889D01*
X0153669Y0095890D02*
X0156787Y0095890D01*
X0156787Y0094892D02*
X0153669Y0094892D01*
X0153669Y0093893D02*
X0156787Y0093893D01*
X0156787Y0092895D02*
X0153669Y0092895D01*
X0153669Y0091896D02*
X0156787Y0091896D01*
X0156787Y0090898D02*
X0153669Y0090898D01*
X0153669Y0089899D02*
X0156787Y0089899D01*
X0156787Y0088900D02*
X0153669Y0088900D01*
X0153669Y0087902D02*
X0156787Y0087902D01*
X0156787Y0086903D02*
X0153669Y0086903D01*
X0153669Y0085905D02*
X0156787Y0085905D01*
X0156787Y0084906D02*
X0153669Y0084906D01*
X0153506Y0083908D02*
X0156787Y0083908D01*
X0156787Y0082909D02*
X0153669Y0082909D01*
X0153669Y0081911D02*
X0156245Y0081911D01*
X0155906Y0080912D02*
X0153669Y0080912D01*
X0153669Y0079914D02*
X0155952Y0079914D01*
X0156439Y0078915D02*
X0153669Y0078915D01*
X0153669Y0077917D02*
X0157959Y0077917D01*
X0159214Y0077917D02*
X0163361Y0077917D01*
X0163361Y0078915D02*
X0160735Y0078915D01*
X0161221Y0079914D02*
X0163361Y0079914D01*
X0163361Y0080912D02*
X0161268Y0080912D01*
X0160929Y0081911D02*
X0163361Y0081911D01*
X0163361Y0082909D02*
X0160387Y0082909D01*
X0160387Y0083908D02*
X0163361Y0083908D01*
X0163361Y0084906D02*
X0160387Y0084906D01*
X0160387Y0085905D02*
X0163361Y0085905D01*
X0163361Y0086903D02*
X0160387Y0086903D01*
X0160387Y0087902D02*
X0163361Y0087902D01*
X0163361Y0088900D02*
X0160387Y0088900D01*
X0160387Y0089899D02*
X0163361Y0089899D01*
X0163361Y0090898D02*
X0160387Y0090898D01*
X0160387Y0091896D02*
X0163361Y0091896D01*
X0163361Y0092895D02*
X0160387Y0092895D01*
X0160387Y0093893D02*
X0163361Y0093893D01*
X0163361Y0094892D02*
X0160387Y0094892D01*
X0160387Y0095890D02*
X0163361Y0095890D01*
X0163269Y0096889D02*
X0160387Y0096889D01*
X0160387Y0097887D02*
X0162702Y0097887D01*
X0162598Y0098886D02*
X0160387Y0098886D01*
X0160387Y0099884D02*
X0162881Y0099884D01*
X0163701Y0100883D02*
X0160387Y0100883D01*
X0160387Y0101881D02*
X0169365Y0101881D01*
X0170363Y0100883D02*
X0166858Y0100883D01*
X0167678Y0099884D02*
X0171362Y0099884D01*
X0172360Y0098886D02*
X0167961Y0098886D01*
X0167858Y0097887D02*
X0173359Y0097887D01*
X0174357Y0096889D02*
X0167290Y0096889D01*
X0166961Y0095890D02*
X0175356Y0095890D01*
X0176354Y0094892D02*
X0166961Y0094892D01*
X0166961Y0093893D02*
X0177353Y0093893D01*
X0178351Y0092895D02*
X0166961Y0092895D01*
X0166961Y0091896D02*
X0179350Y0091896D01*
X0180348Y0090898D02*
X0166961Y0090898D01*
X0166961Y0089899D02*
X0181347Y0089899D01*
X0182345Y0088900D02*
X0166961Y0088900D01*
X0166961Y0087902D02*
X0183344Y0087902D01*
X0184342Y0086903D02*
X0171388Y0086903D01*
X0172092Y0085905D02*
X0185341Y0085905D01*
X0186339Y0084906D02*
X0172291Y0084906D01*
X0172106Y0083908D02*
X0187185Y0083908D01*
X0187185Y0082909D02*
X0171422Y0082909D01*
X0171292Y0081911D02*
X0187185Y0081911D01*
X0187185Y0080912D02*
X0171292Y0080912D01*
X0171292Y0079914D02*
X0187185Y0079914D01*
X0187185Y0078915D02*
X0171292Y0078915D01*
X0171292Y0077917D02*
X0187185Y0077917D01*
X0184793Y0076918D02*
X0184506Y0076918D01*
X0180462Y0076918D02*
X0180175Y0076918D01*
X0176132Y0076918D02*
X0175845Y0076918D01*
X0171801Y0076918D02*
X0171514Y0076918D01*
X0163140Y0076918D02*
X0162853Y0076918D01*
X0158809Y0076918D02*
X0153669Y0076918D01*
X0153669Y0075920D02*
X0157953Y0075920D01*
X0157953Y0074921D02*
X0153180Y0074921D01*
X0149903Y0072924D02*
X0157953Y0072924D01*
X0157953Y0071926D02*
X0150902Y0071926D01*
X0151901Y0070927D02*
X0157953Y0070927D01*
X0157953Y0069929D02*
X0152899Y0069929D01*
X0153898Y0068930D02*
X0157953Y0068930D01*
X0157953Y0067932D02*
X0154896Y0067932D01*
X0155895Y0066933D02*
X0157965Y0066933D01*
X0156893Y0065935D02*
X0184149Y0065935D01*
X0184149Y0064936D02*
X0157892Y0064936D01*
X0158890Y0063938D02*
X0183151Y0063938D01*
X0182283Y0062939D02*
X0179903Y0062939D01*
X0180559Y0061941D02*
X0182283Y0061941D01*
X0182283Y0060942D02*
X0180559Y0060942D01*
X0180559Y0059944D02*
X0182283Y0059944D01*
X0182283Y0058945D02*
X0180559Y0058945D01*
X0181186Y0057947D02*
X0182283Y0057947D01*
X0182184Y0056948D02*
X0184149Y0056948D01*
X0184149Y0055950D02*
X0183183Y0055950D01*
X0190785Y0055950D02*
X0194627Y0055950D01*
X0193628Y0056948D02*
X0190785Y0056948D01*
X0190785Y0054951D02*
X0195625Y0054951D01*
X0196624Y0053953D02*
X0190785Y0053953D01*
X0190785Y0052954D02*
X0197361Y0052954D01*
X0195837Y0051428D02*
X0195598Y0051668D01*
X0195304Y0051837D01*
X0194977Y0051925D01*
X0193126Y0051925D01*
X0193126Y0049154D01*
X0196094Y0049154D01*
X0196094Y0050807D01*
X0196007Y0051135D01*
X0195837Y0051428D01*
X0196054Y0050957D02*
X0200881Y0050957D01*
X0200881Y0049959D02*
X0196094Y0049959D01*
X0196094Y0047962D02*
X0200881Y0047962D01*
X0200881Y0048960D02*
X0193126Y0048960D01*
X0193126Y0047962D02*
X0192157Y0047962D01*
X0192157Y0046963D02*
X0193126Y0046963D01*
X0193126Y0045965D02*
X0192157Y0045965D01*
X0190045Y0044966D02*
X0198204Y0044966D01*
X0199202Y0045965D02*
X0195869Y0045965D01*
X0196094Y0046963D02*
X0200201Y0046963D01*
X0203295Y0044966D02*
X0277259Y0044966D01*
X0277259Y0045965D02*
X0204294Y0045965D01*
X0204481Y0046963D02*
X0277259Y0046963D01*
X0277259Y0047962D02*
X0204481Y0047962D01*
X0204481Y0048960D02*
X0277259Y0048960D01*
X0277259Y0049959D02*
X0204481Y0049959D01*
X0204481Y0050957D02*
X0277259Y0050957D01*
X0277259Y0051956D02*
X0204481Y0051956D01*
X0204481Y0052954D02*
X0277259Y0052954D01*
X0277259Y0053953D02*
X0204481Y0053953D01*
X0204481Y0054951D02*
X0277259Y0054951D01*
X0277259Y0055950D02*
X0204481Y0055950D01*
X0204481Y0056948D02*
X0277259Y0056948D01*
X0277259Y0057947D02*
X0204481Y0057947D01*
X0204481Y0058945D02*
X0277259Y0058945D01*
X0277259Y0059944D02*
X0204481Y0059944D01*
X0204481Y0060942D02*
X0277259Y0060942D01*
X0277259Y0061941D02*
X0204481Y0061941D01*
X0204481Y0062939D02*
X0277259Y0062939D01*
X0277259Y0063938D02*
X0205058Y0063938D01*
X0205362Y0064936D02*
X0277259Y0064936D01*
X0277259Y0065935D02*
X0205281Y0065935D01*
X0204744Y0066933D02*
X0277259Y0066933D01*
X0277259Y0067932D02*
X0194442Y0067932D01*
X0194442Y0068930D02*
X0277259Y0068930D01*
X0277259Y0069929D02*
X0194442Y0069929D01*
X0194442Y0070927D02*
X0277259Y0070927D01*
X0277259Y0071926D02*
X0194442Y0071926D01*
X0194442Y0072924D02*
X0277259Y0072924D01*
X0277259Y0073923D02*
X0194442Y0073923D01*
X0194442Y0074921D02*
X0194824Y0074921D01*
X0190842Y0074921D02*
X0190785Y0074921D01*
X0190785Y0073923D02*
X0190842Y0073923D01*
X0190842Y0072924D02*
X0190785Y0072924D01*
X0190785Y0071926D02*
X0190842Y0071926D01*
X0190842Y0070927D02*
X0190785Y0070927D01*
X0190785Y0069929D02*
X0190842Y0069929D01*
X0190842Y0068930D02*
X0190785Y0068930D01*
X0190785Y0067932D02*
X0190842Y0067932D01*
X0190842Y0066933D02*
X0190785Y0066933D01*
X0190785Y0065935D02*
X0190842Y0065935D01*
X0190842Y0064936D02*
X0190785Y0064936D01*
X0194442Y0065935D02*
X0194502Y0065935D01*
X0194442Y0066933D02*
X0195844Y0066933D01*
X0197708Y0066933D02*
X0200618Y0066933D01*
X0200081Y0065935D02*
X0199049Y0065935D01*
X0199457Y0064936D02*
X0200000Y0064936D01*
X0200304Y0063938D02*
X0199457Y0063938D01*
X0199065Y0062939D02*
X0200881Y0062939D01*
X0200881Y0061941D02*
X0197803Y0061941D01*
X0196307Y0060942D02*
X0200881Y0060942D01*
X0200881Y0059944D02*
X0196307Y0059944D01*
X0196722Y0058945D02*
X0200881Y0058945D01*
X0200881Y0057947D02*
X0197721Y0057947D01*
X0200881Y0051956D02*
X0190785Y0051956D01*
X0192157Y0050957D02*
X0193126Y0050957D01*
X0193126Y0049959D02*
X0192157Y0049959D01*
X0197205Y0043967D02*
X0181598Y0043967D01*
X0179772Y0042969D02*
X0196207Y0042969D01*
X0195208Y0041970D02*
X0179664Y0041970D01*
X0179090Y0040972D02*
X0194210Y0040972D01*
X0197304Y0038975D02*
X0198709Y0038975D01*
X0198302Y0039973D02*
X0199707Y0039973D01*
X0200015Y0040972D02*
X0199301Y0040972D01*
X0200300Y0041970D02*
X0200458Y0041970D01*
X0201298Y0042969D02*
X0201873Y0042969D01*
X0202297Y0043967D02*
X0277259Y0043967D01*
X0277259Y0042969D02*
X0203489Y0042969D01*
X0204904Y0041970D02*
X0277259Y0041970D01*
X0277259Y0040972D02*
X0205347Y0040972D01*
X0205362Y0039973D02*
X0277259Y0039973D01*
X0277259Y0038975D02*
X0204992Y0038975D01*
X0203832Y0037976D02*
X0277259Y0037976D01*
X0277259Y0036978D02*
X0201803Y0036978D01*
X0200804Y0035979D02*
X0217474Y0035979D01*
X0217285Y0035791D02*
X0217285Y0019815D01*
X0217725Y0019376D01*
X0218346Y0019376D01*
X0237244Y0019376D01*
X0237683Y0019815D01*
X0237683Y0035791D01*
X0237244Y0036230D01*
X0217725Y0036230D01*
X0217285Y0035791D01*
X0217285Y0034981D02*
X0199806Y0034981D01*
X0198807Y0033982D02*
X0217285Y0033982D01*
X0217285Y0032984D02*
X0197809Y0032984D01*
X0196810Y0031985D02*
X0217285Y0031985D01*
X0217285Y0030987D02*
X0195812Y0030987D01*
X0194813Y0029988D02*
X0217285Y0029988D01*
X0217285Y0028990D02*
X0193815Y0028990D01*
X0192816Y0027991D02*
X0194842Y0027991D01*
X0194094Y0026993D02*
X0191976Y0026993D01*
X0185406Y0030987D02*
X0160704Y0030987D01*
X0159706Y0031985D02*
X0164250Y0031985D01*
X0163012Y0032984D02*
X0158707Y0032984D01*
X0158137Y0033982D02*
X0162013Y0033982D01*
X0161450Y0034981D02*
X0158137Y0034981D01*
X0158137Y0035979D02*
X0161036Y0035979D01*
X0160630Y0036978D02*
X0158137Y0036978D01*
X0158137Y0037976D02*
X0160630Y0037976D01*
X0160630Y0038975D02*
X0158137Y0038975D01*
X0158137Y0039973D02*
X0160658Y0039973D01*
X0161071Y0040972D02*
X0158587Y0040972D01*
X0159586Y0041970D02*
X0161485Y0041970D01*
X0162098Y0042969D02*
X0160584Y0042969D01*
X0161583Y0043967D02*
X0163097Y0043967D01*
X0162581Y0044966D02*
X0164456Y0044966D01*
X0163580Y0045965D02*
X0175291Y0045965D01*
X0175291Y0046963D02*
X0164578Y0046963D01*
X0165577Y0047962D02*
X0175291Y0047962D01*
X0175291Y0048960D02*
X0166575Y0048960D01*
X0166682Y0049067D02*
X0166682Y0049067D01*
X0167574Y0049959D02*
X0173680Y0049959D01*
X0173622Y0050957D02*
X0167736Y0050957D01*
X0167736Y0051956D02*
X0173622Y0051956D01*
X0173622Y0052954D02*
X0167736Y0052954D01*
X0167736Y0053953D02*
X0173622Y0053953D01*
X0173622Y0054951D02*
X0167736Y0054951D01*
X0166878Y0055950D02*
X0173982Y0055950D01*
X0173622Y0056948D02*
X0165880Y0056948D01*
X0164881Y0057947D02*
X0173622Y0057947D01*
X0173622Y0058945D02*
X0163883Y0058945D01*
X0162884Y0059944D02*
X0173622Y0059944D01*
X0173622Y0060942D02*
X0161886Y0060942D01*
X0160887Y0061941D02*
X0173622Y0061941D01*
X0174279Y0062939D02*
X0159889Y0062939D01*
X0152458Y0058945D02*
X0147788Y0058945D01*
X0147788Y0057947D02*
X0153457Y0057947D01*
X0154455Y0056948D02*
X0148049Y0056948D01*
X0147788Y0057056D02*
X0147788Y0061620D01*
X0139520Y0069887D01*
X0139520Y0074237D01*
X0139993Y0074710D01*
X0140251Y0075332D01*
X0140251Y0071152D01*
X0141306Y0070098D01*
X0157202Y0054202D01*
X0156936Y0053561D01*
X0156936Y0051652D01*
X0157667Y0049887D01*
X0159017Y0048537D01*
X0160462Y0047938D01*
X0154537Y0042013D01*
X0154537Y0040522D01*
X0154537Y0036390D01*
X0150485Y0036390D01*
X0149775Y0035679D01*
X0149774Y0035680D01*
X0149535Y0035920D01*
X0149241Y0036089D01*
X0148914Y0036177D01*
X0147063Y0036177D01*
X0147063Y0033406D01*
X0146094Y0033406D01*
X0146094Y0036177D01*
X0144244Y0036177D01*
X0144156Y0036154D01*
X0144156Y0041653D01*
X0144214Y0041717D01*
X0144214Y0041717D01*
X0144214Y0041717D01*
X0144175Y0042479D01*
X0144156Y0042840D01*
X0144156Y0043962D01*
X0144094Y0044023D01*
X0144090Y0044110D01*
X0143477Y0044663D01*
X0143475Y0044694D01*
X0142956Y0045162D01*
X0142462Y0045656D01*
X0142408Y0045656D01*
X0140554Y0047327D01*
X0141216Y0047327D01*
X0142094Y0048205D01*
X0142094Y0049712D01*
X0143269Y0048537D01*
X0145033Y0047806D01*
X0146943Y0047806D01*
X0148707Y0048537D01*
X0150057Y0049887D01*
X0150788Y0051652D01*
X0150788Y0053561D01*
X0150057Y0055325D01*
X0148707Y0056676D01*
X0147788Y0057056D01*
X0149433Y0055950D02*
X0155454Y0055950D01*
X0156452Y0054951D02*
X0150212Y0054951D01*
X0150626Y0053953D02*
X0157098Y0053953D01*
X0156936Y0052954D02*
X0150788Y0052954D01*
X0150788Y0051956D02*
X0156936Y0051956D01*
X0157224Y0050957D02*
X0150501Y0050957D01*
X0150087Y0049959D02*
X0157637Y0049959D01*
X0158594Y0048960D02*
X0149130Y0048960D01*
X0147318Y0047962D02*
X0160407Y0047962D01*
X0159487Y0046963D02*
X0140958Y0046963D01*
X0141851Y0047962D02*
X0144659Y0047962D01*
X0142846Y0048960D02*
X0142094Y0048960D01*
X0142065Y0045965D02*
X0158489Y0045965D01*
X0157490Y0044966D02*
X0143173Y0044966D01*
X0144150Y0043967D02*
X0156492Y0043967D01*
X0155493Y0042969D02*
X0144156Y0042969D01*
X0144201Y0041970D02*
X0154537Y0041970D01*
X0154537Y0040972D02*
X0144156Y0040972D01*
X0144156Y0039973D02*
X0154537Y0039973D01*
X0154537Y0038975D02*
X0144156Y0038975D01*
X0144156Y0037976D02*
X0154537Y0037976D01*
X0154537Y0036978D02*
X0144156Y0036978D01*
X0146094Y0035979D02*
X0147063Y0035979D01*
X0147063Y0034981D02*
X0146094Y0034981D01*
X0146094Y0033982D02*
X0147063Y0033982D01*
X0147063Y0032437D02*
X0147063Y0029665D01*
X0148914Y0029665D01*
X0149241Y0029753D01*
X0149535Y0029923D01*
X0149774Y0030162D01*
X0149775Y0030163D01*
X0150485Y0029453D01*
X0152062Y0029453D01*
X0152062Y0024302D01*
X0153117Y0023247D01*
X0157780Y0018584D01*
X0157101Y0017905D01*
X0157040Y0017757D01*
X0152386Y0022411D01*
X0151331Y0023465D01*
X0136113Y0023465D01*
X0134546Y0021899D01*
X0133400Y0022373D01*
X0131332Y0022373D01*
X0129421Y0021582D01*
X0127958Y0020119D01*
X0127366Y0018690D01*
X0126774Y0020119D01*
X0125312Y0021582D01*
X0123400Y0022373D01*
X0121332Y0022373D01*
X0120190Y0021900D01*
X0122718Y0024428D01*
X0131822Y0024428D01*
X0132614Y0023636D01*
X0141581Y0023636D01*
X0142635Y0024691D01*
X0144156Y0026211D01*
X0144156Y0029689D01*
X0144244Y0029665D01*
X0146094Y0029665D01*
X0146094Y0032437D01*
X0147063Y0032437D01*
X0147063Y0031985D02*
X0146094Y0031985D01*
X0146094Y0030987D02*
X0147063Y0030987D01*
X0147063Y0029988D02*
X0146094Y0029988D01*
X0144156Y0028990D02*
X0152062Y0028990D01*
X0152062Y0027991D02*
X0144156Y0027991D01*
X0144156Y0026993D02*
X0152062Y0026993D01*
X0152062Y0025994D02*
X0143939Y0025994D01*
X0142940Y0024996D02*
X0152062Y0024996D01*
X0152367Y0023997D02*
X0141942Y0023997D01*
X0135646Y0022999D02*
X0121288Y0022999D01*
X0120431Y0022000D02*
X0120290Y0022000D01*
X0122287Y0023997D02*
X0132253Y0023997D01*
X0130431Y0022000D02*
X0124301Y0022000D01*
X0125892Y0021002D02*
X0128841Y0021002D01*
X0127910Y0020003D02*
X0126822Y0020003D01*
X0127236Y0019005D02*
X0127496Y0019005D01*
X0134301Y0022000D02*
X0134648Y0022000D01*
X0131532Y0028028D02*
X0121227Y0028028D01*
X0120172Y0026974D01*
X0116109Y0022910D01*
X0115957Y0022910D01*
X0115584Y0023810D01*
X0114830Y0024564D01*
X0113844Y0024972D01*
X0113223Y0024972D01*
X0117005Y0028754D01*
X0118597Y0028754D01*
X0119689Y0029846D01*
X0124838Y0029846D01*
X0125717Y0030725D01*
X0125717Y0035905D01*
X0124838Y0036783D01*
X0122146Y0036783D01*
X0122277Y0036914D01*
X0122685Y0037900D01*
X0122685Y0038966D01*
X0122277Y0039952D01*
X0121523Y0040706D01*
X0120537Y0041114D01*
X0119471Y0041114D01*
X0118485Y0040706D01*
X0117845Y0040066D01*
X0117158Y0040753D01*
X0117158Y0046149D01*
X0117698Y0045609D01*
X0118683Y0045201D01*
X0119750Y0045201D01*
X0120735Y0045609D01*
X0121489Y0046363D01*
X0121898Y0047349D01*
X0121898Y0048017D01*
X0122527Y0048646D01*
X0125182Y0048646D01*
X0125528Y0048992D01*
X0125528Y0048864D01*
X0123683Y0047020D01*
X0123014Y0047020D01*
X0122029Y0046612D01*
X0121274Y0045857D01*
X0120866Y0044872D01*
X0120866Y0043805D01*
X0121274Y0042820D01*
X0122029Y0042066D01*
X0122838Y0041730D01*
X0122835Y0041722D01*
X0122835Y0040656D01*
X0123243Y0039670D01*
X0123997Y0038916D01*
X0124982Y0038508D01*
X0126049Y0038508D01*
X0127034Y0038916D01*
X0127287Y0039169D01*
X0127934Y0038522D01*
X0128919Y0038114D01*
X0129588Y0038114D01*
X0131132Y0036571D01*
X0130843Y0036571D01*
X0130843Y0033799D01*
X0129874Y0033799D01*
X0129874Y0032831D01*
X0126906Y0032831D01*
X0126906Y0031177D01*
X0126993Y0030850D01*
X0127163Y0030556D01*
X0127402Y0030316D01*
X0127696Y0030147D01*
X0128023Y0030059D01*
X0129874Y0030059D01*
X0129874Y0032831D01*
X0130843Y0032831D01*
X0130843Y0030059D01*
X0132693Y0030059D01*
X0133021Y0030147D01*
X0133314Y0030316D01*
X0133554Y0030556D01*
X0133554Y0030557D01*
X0134020Y0030091D01*
X0133644Y0030091D01*
X0132658Y0029682D01*
X0131904Y0028928D01*
X0131532Y0028028D01*
X0131966Y0028990D02*
X0118833Y0028990D01*
X0120191Y0026993D02*
X0115243Y0026993D01*
X0116242Y0027991D02*
X0121190Y0027991D01*
X0119193Y0025994D02*
X0114245Y0025994D01*
X0113246Y0024996D02*
X0118194Y0024996D01*
X0117196Y0023997D02*
X0115397Y0023997D01*
X0115920Y0022999D02*
X0116197Y0022999D01*
X0124980Y0029988D02*
X0133397Y0029988D01*
X0130843Y0030987D02*
X0129874Y0030987D01*
X0129874Y0031985D02*
X0130843Y0031985D01*
X0129874Y0032984D02*
X0125717Y0032984D01*
X0125717Y0033982D02*
X0126906Y0033982D01*
X0126906Y0033799D02*
X0129874Y0033799D01*
X0129874Y0036571D01*
X0128023Y0036571D01*
X0127696Y0036483D01*
X0127402Y0036314D01*
X0127163Y0036074D01*
X0126993Y0035780D01*
X0126906Y0035453D01*
X0126906Y0033799D01*
X0126906Y0034981D02*
X0125717Y0034981D01*
X0125642Y0035979D02*
X0127108Y0035979D01*
X0129874Y0035979D02*
X0130843Y0035979D01*
X0130843Y0034981D02*
X0129874Y0034981D01*
X0129874Y0033982D02*
X0130843Y0033982D01*
X0126906Y0031985D02*
X0125717Y0031985D01*
X0125717Y0030987D02*
X0126956Y0030987D01*
X0130725Y0036978D02*
X0122303Y0036978D01*
X0122685Y0037976D02*
X0129726Y0037976D01*
X0127481Y0038975D02*
X0127093Y0038975D01*
X0123938Y0038975D02*
X0122681Y0038975D01*
X0122255Y0039973D02*
X0123117Y0039973D01*
X0122835Y0040972D02*
X0120881Y0040972D01*
X0122258Y0041970D02*
X0117158Y0041970D01*
X0117158Y0040972D02*
X0119127Y0040972D01*
X0117158Y0042969D02*
X0121213Y0042969D01*
X0120866Y0043967D02*
X0117158Y0043967D01*
X0117158Y0044966D02*
X0120905Y0044966D01*
X0121091Y0045965D02*
X0121382Y0045965D01*
X0121738Y0046963D02*
X0122877Y0046963D01*
X0121898Y0047962D02*
X0124625Y0047962D01*
X0125496Y0048960D02*
X0125528Y0048960D01*
X0131071Y0050681D02*
X0131071Y0053897D01*
X0133453Y0051515D01*
X0133790Y0051515D01*
X0133584Y0051309D01*
X0132956Y0050681D01*
X0132532Y0050681D01*
X0131071Y0050681D01*
X0131071Y0050957D02*
X0133232Y0050957D01*
X0133584Y0051309D02*
X0133584Y0051309D01*
X0133012Y0051956D02*
X0131071Y0051956D01*
X0131071Y0052954D02*
X0132014Y0052954D01*
X0141298Y0055283D02*
X0141299Y0055284D01*
X0141882Y0055284D01*
X0141882Y0055867D01*
X0142094Y0056079D01*
X0142094Y0058424D01*
X0141216Y0059303D01*
X0137724Y0059303D01*
X0137724Y0060826D01*
X0137552Y0060998D01*
X0137552Y0062426D01*
X0138025Y0062899D01*
X0138433Y0063884D01*
X0138433Y0064951D01*
X0138025Y0065936D01*
X0137271Y0066690D01*
X0136285Y0067098D01*
X0135219Y0067098D01*
X0134233Y0066690D01*
X0133760Y0066217D01*
X0131796Y0066217D01*
X0132134Y0067034D01*
X0132134Y0068100D01*
X0132020Y0068376D01*
X0133742Y0070098D01*
X0134796Y0071152D01*
X0134796Y0072643D01*
X0133742Y0073698D01*
X0133641Y0073698D01*
X0133587Y0073751D01*
X0133587Y0073941D01*
X0134411Y0074765D01*
X0131768Y0077408D01*
X0131839Y0077478D01*
X0134482Y0074836D01*
X0135128Y0075482D01*
X0135448Y0074710D01*
X0135920Y0074237D01*
X0135920Y0068396D01*
X0136975Y0067342D01*
X0144188Y0060128D01*
X0144188Y0057056D01*
X0143269Y0056676D01*
X0141919Y0055325D01*
X0141882Y0055236D01*
X0141882Y0055283D01*
X0141299Y0055283D01*
X0141298Y0055283D01*
X0141965Y0055950D02*
X0142543Y0055950D01*
X0142094Y0056948D02*
X0143927Y0056948D01*
X0144188Y0057947D02*
X0142094Y0057947D01*
X0141574Y0058945D02*
X0144188Y0058945D01*
X0144188Y0059944D02*
X0137724Y0059944D01*
X0137608Y0060942D02*
X0143374Y0060942D01*
X0142376Y0061941D02*
X0137552Y0061941D01*
X0138042Y0062939D02*
X0141377Y0062939D01*
X0140379Y0063938D02*
X0138433Y0063938D01*
X0138433Y0064936D02*
X0139380Y0064936D01*
X0138382Y0065935D02*
X0138025Y0065935D01*
X0137383Y0066933D02*
X0136684Y0066933D01*
X0136385Y0067932D02*
X0132134Y0067932D01*
X0132092Y0066933D02*
X0134820Y0066933D01*
X0135920Y0068930D02*
X0132574Y0068930D01*
X0133573Y0069929D02*
X0135920Y0069929D01*
X0135920Y0070927D02*
X0134571Y0070927D01*
X0134796Y0071926D02*
X0135920Y0071926D01*
X0135920Y0072924D02*
X0134515Y0072924D01*
X0133587Y0073923D02*
X0135920Y0073923D01*
X0135360Y0074921D02*
X0134567Y0074921D01*
X0134396Y0074921D02*
X0134255Y0074921D01*
X0133398Y0075920D02*
X0133256Y0075920D01*
X0132399Y0076918D02*
X0132258Y0076918D01*
X0139520Y0073923D02*
X0140251Y0073923D01*
X0140251Y0074921D02*
X0140081Y0074921D01*
X0140251Y0072924D02*
X0139520Y0072924D01*
X0139520Y0071926D02*
X0140251Y0071926D01*
X0140476Y0070927D02*
X0139520Y0070927D01*
X0139520Y0069929D02*
X0141474Y0069929D01*
X0140478Y0068930D02*
X0142473Y0068930D01*
X0141476Y0067932D02*
X0143471Y0067932D01*
X0142475Y0066933D02*
X0144470Y0066933D01*
X0143473Y0065935D02*
X0145468Y0065935D01*
X0144472Y0064936D02*
X0146467Y0064936D01*
X0145470Y0063938D02*
X0147466Y0063938D01*
X0146469Y0062939D02*
X0148464Y0062939D01*
X0147467Y0061941D02*
X0149463Y0061941D01*
X0150461Y0060942D02*
X0147788Y0060942D01*
X0147788Y0059944D02*
X0151460Y0059944D01*
X0149688Y0073140D02*
X0149688Y0073140D01*
X0148905Y0073923D02*
X0157953Y0073923D01*
X0166961Y0085905D02*
X0167129Y0085905D01*
X0166961Y0086903D02*
X0167832Y0086903D01*
X0180447Y0095890D02*
X0193976Y0095890D01*
X0193976Y0094892D02*
X0181445Y0094892D01*
X0182444Y0093893D02*
X0193976Y0093893D01*
X0193976Y0092895D02*
X0183442Y0092895D01*
X0184441Y0091896D02*
X0193976Y0091896D01*
X0193976Y0090898D02*
X0185439Y0090898D01*
X0186438Y0089899D02*
X0193976Y0089899D01*
X0193976Y0088900D02*
X0187436Y0088900D01*
X0188435Y0087902D02*
X0194265Y0087902D01*
X0194189Y0086903D02*
X0189433Y0086903D01*
X0190432Y0085905D02*
X0199224Y0085905D01*
X0199602Y0085905D02*
X0255081Y0085905D01*
X0255081Y0085563D02*
X0255520Y0085124D01*
X0256141Y0085124D01*
X0275039Y0085124D01*
X0275478Y0085563D01*
X0275478Y0101539D01*
X0275039Y0101978D01*
X0255520Y0101978D01*
X0255081Y0101539D01*
X0255081Y0085563D01*
X0255081Y0086903D02*
X0204638Y0086903D01*
X0204562Y0087902D02*
X0255081Y0087902D01*
X0255081Y0088900D02*
X0204850Y0088900D01*
X0204850Y0089899D02*
X0255081Y0089899D01*
X0255081Y0090898D02*
X0204850Y0090898D01*
X0204850Y0091896D02*
X0255081Y0091896D01*
X0255081Y0092895D02*
X0204850Y0092895D01*
X0204850Y0093893D02*
X0255081Y0093893D01*
X0255081Y0094892D02*
X0204850Y0094892D01*
X0204850Y0095890D02*
X0255081Y0095890D01*
X0255081Y0096889D02*
X0204693Y0096889D01*
X0204850Y0097887D02*
X0255081Y0097887D01*
X0255081Y0098886D02*
X0204850Y0098886D01*
X0204850Y0099884D02*
X0255081Y0099884D01*
X0255081Y0100883D02*
X0248866Y0100883D01*
X0248866Y0101881D02*
X0255423Y0101881D01*
X0250937Y0105875D02*
X0277259Y0105875D01*
X0277259Y0104877D02*
X0249938Y0104877D01*
X0248939Y0103878D02*
X0277259Y0103878D01*
X0277259Y0102880D02*
X0248866Y0102880D01*
X0251935Y0106874D02*
X0277259Y0106874D01*
X0277259Y0107872D02*
X0252934Y0107872D01*
X0252985Y0108871D02*
X0277259Y0108871D01*
X0277259Y0109869D02*
X0252985Y0109869D01*
X0249385Y0109869D02*
X0248866Y0109869D01*
X0242323Y0109869D02*
X0217388Y0109869D01*
X0214028Y0107872D02*
X0199602Y0107872D01*
X0199224Y0107872D02*
X0168465Y0107872D01*
X0169463Y0106874D02*
X0194189Y0106874D01*
X0194270Y0105875D02*
X0170462Y0105875D01*
X0171460Y0104877D02*
X0193976Y0104877D01*
X0193976Y0103878D02*
X0172459Y0103878D01*
X0173457Y0102880D02*
X0193976Y0102880D01*
X0193976Y0101881D02*
X0174456Y0101881D01*
X0175454Y0100883D02*
X0193976Y0100883D01*
X0193976Y0099884D02*
X0176453Y0099884D01*
X0177451Y0098886D02*
X0193976Y0098886D01*
X0193976Y0097887D02*
X0178450Y0097887D01*
X0179448Y0096889D02*
X0194133Y0096889D01*
X0204850Y0100883D02*
X0242323Y0100883D01*
X0242323Y0101881D02*
X0204850Y0101881D01*
X0204850Y0102880D02*
X0242323Y0102880D01*
X0242323Y0103878D02*
X0204850Y0103878D01*
X0204850Y0104877D02*
X0242323Y0104877D01*
X0258925Y0110868D02*
X0277259Y0110868D01*
X0277259Y0111866D02*
X0258925Y0111866D01*
X0258925Y0112865D02*
X0277259Y0112865D01*
X0277259Y0113863D02*
X0258925Y0113863D01*
X0258890Y0123848D02*
X0259007Y0123848D01*
X0245931Y0126844D02*
X0245258Y0126844D01*
X0245258Y0127842D02*
X0245931Y0127842D01*
X0243330Y0127842D02*
X0236896Y0127842D01*
X0236896Y0126844D02*
X0242544Y0126844D01*
X0242535Y0125845D02*
X0236896Y0125845D01*
X0259159Y0136361D02*
X0259328Y0136068D01*
X0259568Y0135828D01*
X0259861Y0135659D01*
X0260189Y0135571D01*
X0264780Y0135571D01*
X0264780Y0139508D01*
X0265779Y0139508D01*
X0265779Y0135571D01*
X0270370Y0135571D01*
X0270698Y0135659D01*
X0270991Y0135828D01*
X0271231Y0136068D01*
X0271400Y0136361D01*
X0271488Y0136689D01*
X0271488Y0139508D01*
X0265780Y0139508D01*
X0265780Y0140508D01*
X0271488Y0140508D01*
X0271488Y0143327D01*
X0271400Y0143654D01*
X0271231Y0143948D01*
X0270991Y0144188D01*
X0270698Y0144357D01*
X0270370Y0144445D01*
X0265779Y0144445D01*
X0265779Y0140508D01*
X0264780Y0140508D01*
X0264780Y0144445D01*
X0260189Y0144445D01*
X0259861Y0144357D01*
X0259568Y0144188D01*
X0259328Y0143948D01*
X0259159Y0143654D01*
X0259071Y0143327D01*
X0259071Y0140508D01*
X0264779Y0140508D01*
X0264779Y0139508D01*
X0259071Y0139508D01*
X0259071Y0136689D01*
X0259159Y0136361D01*
X0259071Y0136829D02*
X0148466Y0136829D01*
X0148569Y0137147D02*
X0148675Y0137815D01*
X0144205Y0137815D01*
X0144205Y0138815D01*
X0148675Y0138815D01*
X0148569Y0139483D01*
X0148327Y0140229D01*
X0147970Y0140929D01*
X0147509Y0141564D01*
X0146954Y0142119D01*
X0146319Y0142581D01*
X0145619Y0142937D01*
X0144873Y0143180D01*
X0144205Y0143285D01*
X0144205Y0138815D01*
X0143205Y0138815D01*
X0143205Y0143285D01*
X0142537Y0143180D01*
X0141790Y0142937D01*
X0141091Y0142581D01*
X0140456Y0142119D01*
X0139901Y0141564D01*
X0139439Y0140929D01*
X0139083Y0140229D01*
X0138840Y0139483D01*
X0138734Y0138815D01*
X0143205Y0138815D01*
X0143205Y0137815D01*
X0144205Y0137815D01*
X0144205Y0133345D01*
X0144873Y0133450D01*
X0145619Y0133693D01*
X0146319Y0134049D01*
X0146954Y0134511D01*
X0147509Y0135066D01*
X0147970Y0135701D01*
X0148327Y0136400D01*
X0148569Y0137147D01*
X0148036Y0135831D02*
X0259565Y0135831D01*
X0259071Y0137828D02*
X0144205Y0137828D01*
X0144205Y0138826D02*
X0143205Y0138826D01*
X0143205Y0137828D02*
X0134205Y0137828D01*
X0134205Y0137815D02*
X0138675Y0137815D01*
X0138569Y0137147D01*
X0138327Y0136400D01*
X0137970Y0135701D01*
X0137509Y0135066D01*
X0136954Y0134511D01*
X0136319Y0134049D01*
X0135619Y0133693D01*
X0134873Y0133450D01*
X0134205Y0133345D01*
X0134205Y0137815D01*
X0134205Y0136829D02*
X0133205Y0136829D01*
X0133205Y0135831D02*
X0134205Y0135831D01*
X0134205Y0134832D02*
X0133205Y0134832D01*
X0133205Y0133834D02*
X0134205Y0133834D01*
X0135895Y0133834D02*
X0141514Y0133834D01*
X0141790Y0133693D02*
X0142537Y0133450D01*
X0143205Y0133345D01*
X0143205Y0137815D01*
X0138734Y0137815D01*
X0138840Y0137147D01*
X0139083Y0136400D01*
X0139439Y0135701D01*
X0139901Y0135066D01*
X0140456Y0134511D01*
X0141091Y0134049D01*
X0141790Y0133693D01*
X0143205Y0133834D02*
X0144205Y0133834D01*
X0144205Y0134832D02*
X0143205Y0134832D01*
X0143205Y0135831D02*
X0144205Y0135831D01*
X0144205Y0136829D02*
X0143205Y0136829D01*
X0143205Y0139825D02*
X0144205Y0139825D01*
X0144205Y0140823D02*
X0143205Y0140823D01*
X0143205Y0141822D02*
X0144205Y0141822D01*
X0144205Y0142820D02*
X0143205Y0142820D01*
X0141561Y0142820D02*
X0135849Y0142820D01*
X0134205Y0142820D02*
X0133205Y0142820D01*
X0133205Y0141822D02*
X0134205Y0141822D01*
X0134205Y0140823D02*
X0133205Y0140823D01*
X0133205Y0139825D02*
X0134205Y0139825D01*
X0134205Y0138826D02*
X0133205Y0138826D01*
X0129385Y0140823D02*
X0128294Y0140823D01*
X0128708Y0139825D02*
X0128951Y0139825D01*
X0128943Y0136829D02*
X0128718Y0136829D01*
X0128304Y0135831D02*
X0129373Y0135831D01*
X0130134Y0134832D02*
X0127576Y0134832D01*
X0126474Y0133834D02*
X0131514Y0133834D01*
X0134262Y0129839D02*
X0134393Y0129839D01*
X0137039Y0129839D02*
X0138008Y0129839D01*
X0138008Y0128841D02*
X0137039Y0128841D01*
X0137039Y0127842D02*
X0138008Y0127842D01*
X0138008Y0126844D02*
X0143075Y0126844D01*
X0143008Y0125845D02*
X0140976Y0125845D01*
X0140968Y0124847D02*
X0143008Y0124847D01*
X0143008Y0123848D02*
X0140187Y0123848D01*
X0138008Y0123848D02*
X0137039Y0123848D01*
X0137039Y0124847D02*
X0138008Y0124847D01*
X0138008Y0125845D02*
X0137039Y0125845D01*
X0134860Y0123848D02*
X0133919Y0123848D01*
X0134006Y0119854D02*
X0137802Y0119854D01*
X0137402Y0118856D02*
X0134773Y0118856D01*
X0134862Y0117857D02*
X0137040Y0117857D01*
X0136042Y0116859D02*
X0132091Y0116859D01*
X0131122Y0116859D02*
X0128169Y0116859D01*
X0128350Y0116413D02*
X0128350Y0115272D01*
X0128478Y0114795D01*
X0128726Y0114367D01*
X0129075Y0114017D01*
X0129503Y0113770D01*
X0129981Y0113642D01*
X0131122Y0113642D01*
X0131122Y0116413D01*
X0128350Y0116413D01*
X0128350Y0115860D02*
X0128169Y0115860D01*
X0128169Y0114862D02*
X0128460Y0114862D01*
X0129341Y0113863D02*
X0127379Y0113863D01*
X0131122Y0113863D02*
X0132091Y0113863D01*
X0132091Y0114862D02*
X0131122Y0114862D01*
X0131122Y0115860D02*
X0132091Y0115860D01*
X0132091Y0117857D02*
X0131122Y0117857D01*
X0131122Y0118856D02*
X0132091Y0118856D01*
X0132091Y0119854D02*
X0131122Y0119854D01*
X0129207Y0119854D02*
X0127456Y0119854D01*
X0128169Y0118856D02*
X0128440Y0118856D01*
X0128350Y0117857D02*
X0128169Y0117857D01*
X0122293Y0121851D02*
X0143008Y0121851D01*
X0143245Y0122850D02*
X0121294Y0122850D01*
X0120296Y0123848D02*
X0127743Y0123848D01*
X0127165Y0124847D02*
X0119297Y0124847D01*
X0123663Y0125845D02*
X0127165Y0125845D01*
X0125505Y0130838D02*
X0277259Y0130838D01*
X0277259Y0131836D02*
X0125505Y0131836D01*
X0125505Y0132835D02*
X0277259Y0132835D01*
X0277259Y0133834D02*
X0145895Y0133834D01*
X0147275Y0134832D02*
X0277259Y0134832D01*
X0277259Y0135831D02*
X0270994Y0135831D01*
X0271488Y0136829D02*
X0277259Y0136829D01*
X0277259Y0137828D02*
X0271488Y0137828D01*
X0271488Y0138826D02*
X0277259Y0138826D01*
X0277259Y0139825D02*
X0265780Y0139825D01*
X0265779Y0140823D02*
X0264780Y0140823D01*
X0264779Y0139825D02*
X0148458Y0139825D01*
X0148673Y0138826D02*
X0259071Y0138826D01*
X0259071Y0140823D02*
X0148024Y0140823D01*
X0147251Y0141822D02*
X0259071Y0141822D01*
X0259071Y0142820D02*
X0145849Y0142820D01*
X0140158Y0141822D02*
X0137251Y0141822D01*
X0138024Y0140823D02*
X0139385Y0140823D01*
X0138951Y0139825D02*
X0138458Y0139825D01*
X0138673Y0138826D02*
X0138736Y0138826D01*
X0138943Y0136829D02*
X0138466Y0136829D01*
X0138036Y0135831D02*
X0139373Y0135831D01*
X0140134Y0134832D02*
X0137275Y0134832D01*
X0140654Y0129839D02*
X0277259Y0129839D01*
X0265779Y0135831D02*
X0264780Y0135831D01*
X0264780Y0136829D02*
X0265779Y0136829D01*
X0265779Y0137828D02*
X0264780Y0137828D01*
X0264780Y0138826D02*
X0265779Y0138826D01*
X0265779Y0141822D02*
X0264780Y0141822D01*
X0264780Y0142820D02*
X0265779Y0142820D01*
X0265779Y0143819D02*
X0264780Y0143819D01*
X0259253Y0143819D02*
X0097099Y0143819D01*
X0098098Y0142820D02*
X0100993Y0142820D01*
X0099857Y0141822D02*
X0099096Y0141822D01*
X0106417Y0142820D02*
X0110993Y0142820D01*
X0109857Y0141822D02*
X0107552Y0141822D01*
X0108294Y0140823D02*
X0109115Y0140823D01*
X0116417Y0142820D02*
X0120993Y0142820D01*
X0119857Y0141822D02*
X0117552Y0141822D01*
X0118294Y0140823D02*
X0119115Y0140823D01*
X0126417Y0142820D02*
X0131561Y0142820D01*
X0130158Y0141822D02*
X0127552Y0141822D01*
X0148043Y0126844D02*
X0148421Y0126844D01*
X0148421Y0125845D02*
X0148043Y0125845D01*
X0148043Y0124847D02*
X0148421Y0124847D01*
X0148421Y0123848D02*
X0148043Y0123848D01*
X0148043Y0122850D02*
X0148421Y0122850D01*
X0148421Y0121851D02*
X0148043Y0121851D01*
X0148043Y0119854D02*
X0148421Y0119854D01*
X0148421Y0118856D02*
X0148043Y0118856D01*
X0148043Y0117857D02*
X0148421Y0117857D01*
X0148421Y0116859D02*
X0148043Y0116859D01*
X0148043Y0115860D02*
X0148421Y0115860D01*
X0148421Y0114862D02*
X0148043Y0114862D01*
X0148043Y0113863D02*
X0148421Y0113863D01*
X0148421Y0112865D02*
X0148043Y0112865D01*
X0148043Y0111866D02*
X0142591Y0111866D01*
X0142591Y0111083D02*
X0142591Y0112933D01*
X0142503Y0113261D01*
X0142333Y0113554D01*
X0142094Y0113794D01*
X0141800Y0113963D01*
X0141473Y0114051D01*
X0139819Y0114051D01*
X0139819Y0111083D01*
X0142591Y0111083D01*
X0143008Y0110868D02*
X0139819Y0110868D01*
X0138850Y0110868D02*
X0135142Y0110868D01*
X0134823Y0110549D02*
X0136079Y0111805D01*
X0136079Y0111083D01*
X0138850Y0111083D01*
X0138850Y0110114D01*
X0136079Y0110114D01*
X0136079Y0108264D01*
X0136166Y0107936D01*
X0136234Y0107820D01*
X0135283Y0108770D01*
X0135283Y0109439D01*
X0134875Y0110424D01*
X0134787Y0110513D01*
X0134823Y0110549D01*
X0135105Y0109869D02*
X0136079Y0109869D01*
X0136079Y0108871D02*
X0135283Y0108871D01*
X0136181Y0107872D02*
X0136203Y0107872D01*
X0138850Y0111866D02*
X0139819Y0111866D01*
X0139819Y0112865D02*
X0138850Y0112865D01*
X0138850Y0113863D02*
X0139819Y0113863D01*
X0139136Y0114862D02*
X0143008Y0114862D01*
X0143008Y0115860D02*
X0141068Y0115860D01*
X0142365Y0116859D02*
X0143008Y0116859D01*
X0143008Y0117857D02*
X0142764Y0117857D01*
X0142764Y0118856D02*
X0143092Y0118856D01*
X0143008Y0119854D02*
X0142363Y0119854D01*
X0135043Y0115860D02*
X0134862Y0115860D01*
X0141974Y0113863D02*
X0143078Y0113863D01*
X0143008Y0112865D02*
X0142591Y0112865D01*
X0142591Y0109869D02*
X0142941Y0109869D01*
X0142795Y0108871D02*
X0142591Y0108871D01*
X0142466Y0107872D02*
X0142795Y0107872D01*
X0142795Y0106874D02*
X0142622Y0106874D01*
X0148421Y0111866D02*
X0159379Y0111866D01*
X0161089Y0109869D02*
X0161377Y0109869D01*
X0161268Y0108871D02*
X0162375Y0108871D01*
X0163374Y0107872D02*
X0161061Y0107872D01*
X0160387Y0106874D02*
X0164372Y0106874D01*
X0165371Y0105875D02*
X0160387Y0105875D01*
X0160387Y0104877D02*
X0166369Y0104877D01*
X0167368Y0103878D02*
X0160387Y0103878D01*
X0160387Y0102880D02*
X0168366Y0102880D01*
X0167466Y0108871D02*
X0194189Y0108871D01*
X0194433Y0109869D02*
X0166468Y0109869D01*
X0165469Y0110868D02*
X0194189Y0110868D01*
X0194189Y0112865D02*
X0163472Y0112865D01*
X0162474Y0113863D02*
X0194259Y0113863D01*
X0194189Y0114862D02*
X0161475Y0114862D01*
X0161217Y0115860D02*
X0194189Y0115860D01*
X0194189Y0116859D02*
X0160724Y0116859D01*
X0164471Y0111866D02*
X0199224Y0111866D01*
X0199602Y0111866D02*
X0210034Y0111866D01*
X0209036Y0112865D02*
X0204638Y0112865D01*
X0204568Y0113863D02*
X0208037Y0113863D01*
X0207039Y0114862D02*
X0204638Y0114862D01*
X0204638Y0115860D02*
X0206040Y0115860D01*
X0205042Y0116859D02*
X0204638Y0116859D01*
X0199602Y0115860D02*
X0199224Y0115860D01*
X0199224Y0114862D02*
X0199602Y0114862D01*
X0199602Y0113863D02*
X0199224Y0113863D01*
X0199224Y0112865D02*
X0199602Y0112865D01*
X0199602Y0110868D02*
X0199224Y0110868D01*
X0199224Y0109869D02*
X0199602Y0109869D01*
X0199602Y0108871D02*
X0199224Y0108871D01*
X0204394Y0109869D02*
X0212031Y0109869D01*
X0211033Y0110868D02*
X0204638Y0110868D01*
X0204638Y0108871D02*
X0213030Y0108871D01*
X0215027Y0106874D02*
X0204638Y0106874D01*
X0204557Y0105875D02*
X0216025Y0105875D01*
X0204638Y0084906D02*
X0277259Y0084906D01*
X0277259Y0083908D02*
X0204682Y0083908D01*
X0204850Y0082909D02*
X0277259Y0082909D01*
X0277259Y0081911D02*
X0204850Y0081911D01*
X0204850Y0080912D02*
X0277259Y0080912D01*
X0277259Y0079914D02*
X0204850Y0079914D01*
X0204638Y0078915D02*
X0277259Y0078915D01*
X0277259Y0077917D02*
X0204638Y0077917D01*
X0204638Y0076918D02*
X0277259Y0076918D01*
X0277259Y0075920D02*
X0204638Y0075920D01*
X0204002Y0074921D02*
X0277259Y0074921D01*
X0277259Y0085905D02*
X0275478Y0085905D01*
X0275478Y0086903D02*
X0277259Y0086903D01*
X0277259Y0087902D02*
X0275478Y0087902D01*
X0275478Y0088900D02*
X0277259Y0088900D01*
X0277259Y0089899D02*
X0275478Y0089899D01*
X0275478Y0090898D02*
X0277259Y0090898D01*
X0277259Y0091896D02*
X0275478Y0091896D01*
X0275478Y0092895D02*
X0277259Y0092895D01*
X0277259Y0093893D02*
X0275478Y0093893D01*
X0275478Y0094892D02*
X0277259Y0094892D01*
X0277259Y0095890D02*
X0275478Y0095890D01*
X0275478Y0096889D02*
X0277259Y0096889D01*
X0277259Y0097887D02*
X0275478Y0097887D01*
X0275478Y0098886D02*
X0277259Y0098886D01*
X0277259Y0099884D02*
X0275478Y0099884D01*
X0275478Y0100883D02*
X0277259Y0100883D01*
X0277259Y0101881D02*
X0275136Y0101881D01*
X0277259Y0140823D02*
X0271488Y0140823D01*
X0271488Y0141822D02*
X0277259Y0141822D01*
X0277259Y0142820D02*
X0271488Y0142820D01*
X0271306Y0143819D02*
X0277259Y0143819D01*
X0277259Y0144817D02*
X0082528Y0144817D01*
X0082528Y0143819D02*
X0090310Y0143819D01*
X0089311Y0142820D02*
X0081827Y0142820D01*
X0081649Y0142642D02*
X0082528Y0143520D01*
X0082528Y0148306D01*
X0081649Y0149185D01*
X0077257Y0149185D01*
X0076378Y0148306D01*
X0076378Y0147713D01*
X0049967Y0147713D01*
X0048913Y0146659D01*
X0044317Y0142064D01*
X0042465Y0142064D01*
X0041850Y0143549D01*
X0040219Y0145181D01*
X0038087Y0146064D01*
X0035779Y0146064D01*
X0033648Y0145181D01*
X0032016Y0143549D01*
X0031133Y0141417D01*
X0031133Y0139110D01*
X0032016Y0136978D01*
X0033648Y0135347D01*
X0035779Y0134464D01*
X0038087Y0134464D01*
X0040219Y0135347D01*
X0041850Y0136978D01*
X0042465Y0138464D01*
X0045809Y0138464D01*
X0051458Y0144113D01*
X0060390Y0144113D01*
X0059899Y0143622D01*
X0058996Y0141443D01*
X0058996Y0139084D01*
X0059899Y0136905D01*
X0061567Y0135237D01*
X0063746Y0134335D01*
X0066105Y0134335D01*
X0068284Y0135237D01*
X0069952Y0136905D01*
X0070854Y0139084D01*
X0070854Y0141443D01*
X0069952Y0143622D01*
X0069461Y0144113D01*
X0076378Y0144113D01*
X0076378Y0143520D01*
X0077257Y0142642D01*
X0081649Y0142642D01*
X0080903Y0140823D02*
X0070854Y0140823D01*
X0070854Y0139825D02*
X0072914Y0139825D01*
X0072938Y0139914D02*
X0072850Y0139587D01*
X0072850Y0137933D01*
X0075425Y0137933D01*
X0075425Y0137358D01*
X0076000Y0137358D01*
X0076000Y0134587D01*
X0077457Y0134587D01*
X0077784Y0134674D01*
X0078078Y0134844D01*
X0078318Y0135084D01*
X0078487Y0135377D01*
X0078575Y0135705D01*
X0078575Y0137358D01*
X0076000Y0137358D01*
X0076000Y0137933D01*
X0078575Y0137933D01*
X0078575Y0139587D01*
X0078487Y0139914D01*
X0078318Y0140208D01*
X0078078Y0140447D01*
X0077784Y0140617D01*
X0077457Y0140705D01*
X0076000Y0140705D01*
X0076000Y0137933D01*
X0075425Y0137933D01*
X0075425Y0140705D01*
X0073968Y0140705D01*
X0073641Y0140617D01*
X0073347Y0140447D01*
X0073108Y0140208D01*
X0072938Y0139914D01*
X0072850Y0138826D02*
X0070747Y0138826D01*
X0070334Y0137828D02*
X0075425Y0137828D01*
X0075425Y0137358D02*
X0072850Y0137358D01*
X0072850Y0135705D01*
X0072938Y0135377D01*
X0073108Y0135084D01*
X0073347Y0134844D01*
X0073641Y0134674D01*
X0073968Y0134587D01*
X0075425Y0134587D01*
X0075425Y0137358D01*
X0075425Y0136829D02*
X0076000Y0136829D01*
X0076000Y0135831D02*
X0075425Y0135831D01*
X0075425Y0134832D02*
X0076000Y0134832D01*
X0078057Y0134832D02*
X0080539Y0134832D01*
X0080118Y0135831D02*
X0078575Y0135831D01*
X0078575Y0136829D02*
X0080118Y0136829D01*
X0080118Y0137828D02*
X0076000Y0137828D01*
X0076000Y0138826D02*
X0075425Y0138826D01*
X0075425Y0139825D02*
X0076000Y0139825D01*
X0078511Y0139825D02*
X0080118Y0139825D01*
X0080118Y0138826D02*
X0078575Y0138826D01*
X0077078Y0142820D02*
X0070284Y0142820D01*
X0070698Y0141822D02*
X0088313Y0141822D01*
X0087314Y0140823D02*
X0085483Y0140823D01*
X0086268Y0139825D02*
X0086316Y0139825D01*
X0088412Y0136829D02*
X0088692Y0136829D01*
X0088675Y0135831D02*
X0086268Y0135831D01*
X0085847Y0134832D02*
X0087676Y0134832D01*
X0085172Y0133834D02*
X0003300Y0133834D01*
X0003300Y0134832D02*
X0034890Y0134832D01*
X0033164Y0135831D02*
X0003300Y0135831D01*
X0003300Y0136829D02*
X0032165Y0136829D01*
X0031664Y0137828D02*
X0003300Y0137828D01*
X0003300Y0138826D02*
X0031251Y0138826D01*
X0031133Y0139825D02*
X0003300Y0139825D01*
X0003300Y0140823D02*
X0031133Y0140823D01*
X0031300Y0141822D02*
X0003300Y0141822D01*
X0003300Y0142820D02*
X0031714Y0142820D01*
X0032285Y0143819D02*
X0003300Y0143819D01*
X0003300Y0144817D02*
X0033284Y0144817D01*
X0035180Y0145816D02*
X0003300Y0145816D01*
X0003300Y0146814D02*
X0049068Y0146814D01*
X0048069Y0145816D02*
X0038686Y0145816D01*
X0040582Y0144817D02*
X0047071Y0144817D01*
X0046072Y0143819D02*
X0041581Y0143819D01*
X0042152Y0142820D02*
X0045074Y0142820D01*
X0048168Y0140823D02*
X0058996Y0140823D01*
X0058996Y0139825D02*
X0047169Y0139825D01*
X0046171Y0138826D02*
X0059103Y0138826D01*
X0059517Y0137828D02*
X0042202Y0137828D01*
X0041701Y0136829D02*
X0059975Y0136829D01*
X0060973Y0135831D02*
X0040702Y0135831D01*
X0038976Y0134832D02*
X0062545Y0134832D01*
X0067305Y0134832D02*
X0073368Y0134832D01*
X0072850Y0135831D02*
X0068877Y0135831D01*
X0069876Y0136829D02*
X0072850Y0136829D01*
X0069755Y0143819D02*
X0076378Y0143819D01*
X0076378Y0147813D02*
X0003300Y0147813D01*
X0003300Y0148811D02*
X0076883Y0148811D01*
X0082023Y0148811D02*
X0277259Y0148811D01*
X0277259Y0147813D02*
X0082528Y0147813D01*
X0082528Y0146814D02*
X0277259Y0146814D01*
X0277259Y0145816D02*
X0082528Y0145816D01*
X0084174Y0132835D02*
X0003300Y0132835D01*
X0003300Y0131836D02*
X0083175Y0131836D01*
X0082305Y0130838D02*
X0003300Y0130838D01*
X0003300Y0129839D02*
X0082305Y0129839D01*
X0082305Y0128841D02*
X0003300Y0128841D01*
X0003300Y0127842D02*
X0082305Y0127842D01*
X0082305Y0126844D02*
X0003300Y0126844D01*
X0003300Y0125845D02*
X0082305Y0125845D01*
X0083122Y0124847D02*
X0003300Y0124847D01*
X0003300Y0123848D02*
X0084120Y0123848D01*
X0085119Y0122850D02*
X0003300Y0122850D01*
X0003300Y0121851D02*
X0085188Y0121851D01*
X0084400Y0120853D02*
X0003300Y0120853D01*
X0003300Y0119854D02*
X0083961Y0119854D01*
X0083741Y0118856D02*
X0003300Y0118856D01*
X0003300Y0117857D02*
X0033870Y0117857D01*
X0032738Y0117388D02*
X0035460Y0118516D01*
X0038406Y0118516D01*
X0041128Y0117388D01*
X0043211Y0115305D01*
X0044339Y0112583D01*
X0044339Y0109637D01*
X0043211Y0106915D01*
X0041128Y0104832D01*
X0038406Y0103705D01*
X0035460Y0103705D01*
X0032738Y0104832D01*
X0030655Y0106915D01*
X0029528Y0109637D01*
X0029528Y0112583D01*
X0030655Y0115305D01*
X0032738Y0117388D01*
X0032209Y0116859D02*
X0003300Y0116859D01*
X0003300Y0115860D02*
X0031210Y0115860D01*
X0030471Y0114862D02*
X0003300Y0114862D01*
X0003300Y0113863D02*
X0030058Y0113863D01*
X0029644Y0112865D02*
X0003300Y0112865D01*
X0003300Y0111866D02*
X0029528Y0111866D01*
X0029528Y0110868D02*
X0003300Y0110868D01*
X0003300Y0109869D02*
X0029528Y0109869D01*
X0029845Y0108871D02*
X0003300Y0108871D01*
X0003300Y0107872D02*
X0030259Y0107872D01*
X0030697Y0106874D02*
X0003300Y0106874D01*
X0003300Y0105875D02*
X0031695Y0105875D01*
X0032694Y0104877D02*
X0003300Y0104877D01*
X0003300Y0103878D02*
X0035041Y0103878D01*
X0038825Y0103878D02*
X0085828Y0103878D01*
X0086137Y0102880D02*
X0003300Y0102880D01*
X0003300Y0101881D02*
X0084917Y0101881D01*
X0084140Y0100883D02*
X0003300Y0100883D01*
X0003300Y0099884D02*
X0083726Y0099884D01*
X0083505Y0098886D02*
X0003300Y0098886D01*
X0003300Y0097887D02*
X0083505Y0097887D01*
X0083667Y0096889D02*
X0003300Y0096889D01*
X0003300Y0095890D02*
X0084081Y0095890D01*
X0079757Y0094892D02*
X0003300Y0094892D01*
X0003300Y0093893D02*
X0079218Y0093893D01*
X0079134Y0092895D02*
X0003300Y0092895D01*
X0003300Y0091896D02*
X0079435Y0091896D01*
X0080283Y0090898D02*
X0003300Y0090898D01*
X0003300Y0089899D02*
X0083732Y0089899D01*
X0083505Y0088900D02*
X0003300Y0088900D01*
X0003300Y0087902D02*
X0083505Y0087902D01*
X0083661Y0086903D02*
X0003300Y0086903D01*
X0003300Y0085905D02*
X0084075Y0085905D01*
X0084015Y0084906D02*
X0084759Y0084906D01*
X0084702Y0083908D02*
X0085758Y0083908D01*
X0086209Y0082909D02*
X0084890Y0082909D01*
X0084947Y0081911D02*
X0084692Y0081911D01*
X0080409Y0080912D02*
X0003300Y0080912D01*
X0003300Y0079914D02*
X0080409Y0079914D01*
X0080409Y0078915D02*
X0003300Y0078915D01*
X0003300Y0077917D02*
X0080409Y0077917D01*
X0080409Y0076918D02*
X0003300Y0076918D01*
X0003300Y0075920D02*
X0080409Y0075920D01*
X0080409Y0074921D02*
X0003300Y0074921D01*
X0003300Y0073923D02*
X0080409Y0073923D01*
X0080409Y0072924D02*
X0003300Y0072924D01*
X0003300Y0071926D02*
X0080409Y0071926D01*
X0080409Y0070927D02*
X0003300Y0070927D01*
X0003300Y0069929D02*
X0080409Y0069929D01*
X0080409Y0068930D02*
X0003300Y0068930D01*
X0003300Y0067932D02*
X0080409Y0067932D01*
X0080409Y0066933D02*
X0003300Y0066933D01*
X0003300Y0065935D02*
X0080409Y0065935D01*
X0080409Y0064936D02*
X0003300Y0064936D01*
X0003300Y0063938D02*
X0080409Y0063938D01*
X0080409Y0062939D02*
X0003300Y0062939D01*
X0003300Y0061941D02*
X0080409Y0061941D01*
X0080409Y0060942D02*
X0003300Y0060942D01*
X0003300Y0059944D02*
X0080409Y0059944D01*
X0080409Y0058945D02*
X0003300Y0058945D01*
X0003300Y0057947D02*
X0080409Y0057947D01*
X0080409Y0056948D02*
X0003300Y0056948D01*
X0003300Y0055950D02*
X0080409Y0055950D01*
X0080409Y0054951D02*
X0003300Y0054951D01*
X0003300Y0053953D02*
X0080409Y0053953D01*
X0080409Y0052954D02*
X0003300Y0052954D01*
X0003300Y0051956D02*
X0080409Y0051956D01*
X0080409Y0050957D02*
X0003300Y0050957D01*
X0003300Y0049959D02*
X0034571Y0049959D01*
X0035460Y0050327D02*
X0032738Y0049199D01*
X0030655Y0047116D01*
X0029528Y0044394D01*
X0029528Y0041448D01*
X0030655Y0038726D01*
X0032738Y0036643D01*
X0035460Y0035516D01*
X0038406Y0035516D01*
X0041128Y0036643D01*
X0043211Y0038726D01*
X0044339Y0041448D01*
X0044339Y0044394D01*
X0043211Y0047116D01*
X0041128Y0049199D01*
X0038406Y0050327D01*
X0035460Y0050327D01*
X0032499Y0048960D02*
X0003300Y0048960D01*
X0003300Y0047962D02*
X0031500Y0047962D01*
X0030592Y0046963D02*
X0003300Y0046963D01*
X0003300Y0045965D02*
X0030178Y0045965D01*
X0029764Y0044966D02*
X0003300Y0044966D01*
X0003300Y0043967D02*
X0029528Y0043967D01*
X0029528Y0042969D02*
X0003300Y0042969D01*
X0003300Y0041970D02*
X0029528Y0041970D01*
X0029725Y0040972D02*
X0003300Y0040972D01*
X0003300Y0039973D02*
X0030138Y0039973D01*
X0030552Y0038975D02*
X0003300Y0038975D01*
X0003300Y0037976D02*
X0031405Y0037976D01*
X0032403Y0036978D02*
X0003300Y0036978D01*
X0003300Y0035979D02*
X0034341Y0035979D01*
X0039525Y0035979D02*
X0074484Y0035979D01*
X0074409Y0034981D02*
X0003300Y0034981D01*
X0003300Y0033982D02*
X0074409Y0033982D01*
X0074409Y0032984D02*
X0003300Y0032984D01*
X0003300Y0031985D02*
X0074409Y0031985D01*
X0074409Y0030987D02*
X0003300Y0030987D01*
X0003300Y0029988D02*
X0074753Y0029988D01*
X0074684Y0028990D02*
X0003300Y0028990D01*
X0003300Y0027991D02*
X0074622Y0027991D01*
X0074622Y0026993D02*
X0003300Y0026993D01*
X0003300Y0025994D02*
X0077394Y0025994D01*
X0077394Y0025941D02*
X0074622Y0025941D01*
X0074622Y0024090D01*
X0074710Y0023763D01*
X0074879Y0023469D01*
X0075119Y0023230D01*
X0075413Y0023060D01*
X0075740Y0022972D01*
X0077394Y0022972D01*
X0077394Y0025941D01*
X0077394Y0024996D02*
X0078362Y0024996D01*
X0078362Y0023997D02*
X0077394Y0023997D01*
X0077394Y0022999D02*
X0078362Y0022999D01*
X0080114Y0022999D02*
X0080409Y0022999D01*
X0080409Y0022000D02*
X0003300Y0022000D01*
X0003300Y0021002D02*
X0080409Y0021002D01*
X0080409Y0020003D02*
X0003300Y0020003D01*
X0003300Y0019005D02*
X0034970Y0019005D01*
X0034788Y0018946D02*
X0035625Y0019218D01*
X0036433Y0019346D01*
X0036433Y0014268D01*
X0037433Y0014268D01*
X0037433Y0019346D01*
X0038241Y0019218D01*
X0039078Y0018946D01*
X0039862Y0018546D01*
X0040573Y0018030D01*
X0041195Y0017408D01*
X0041712Y0016696D01*
X0042111Y0015913D01*
X0042383Y0015076D01*
X0042511Y0014268D01*
X0037433Y0014268D01*
X0037433Y0013268D01*
X0042511Y0013268D01*
X0042383Y0012459D01*
X0042111Y0011623D01*
X0041712Y0010839D01*
X0041195Y0010128D01*
X0040573Y0009506D01*
X0039862Y0008989D01*
X0039078Y0008590D01*
X0038241Y0008318D01*
X0037433Y0008190D01*
X0037433Y0013268D01*
X0036433Y0013268D01*
X0031355Y0013268D01*
X0031483Y0012459D01*
X0031755Y0011623D01*
X0032154Y0010839D01*
X0032671Y0010128D01*
X0033293Y0009506D01*
X0034005Y0008989D01*
X0034788Y0008590D01*
X0035625Y0008318D01*
X0036433Y0008190D01*
X0036433Y0013268D01*
X0036433Y0014268D01*
X0031355Y0014268D01*
X0031483Y0015076D01*
X0031755Y0015913D01*
X0032154Y0016696D01*
X0032671Y0017408D01*
X0033293Y0018030D01*
X0034005Y0018546D01*
X0034788Y0018946D01*
X0036433Y0019005D02*
X0037433Y0019005D01*
X0037433Y0018006D02*
X0036433Y0018006D01*
X0036433Y0017008D02*
X0037433Y0017008D01*
X0037433Y0016009D02*
X0036433Y0016009D01*
X0036433Y0015011D02*
X0037433Y0015011D01*
X0037433Y0014012D02*
X0080409Y0014012D01*
X0080409Y0013014D02*
X0042471Y0013014D01*
X0042239Y0012015D02*
X0080409Y0012015D01*
X0081095Y0011017D02*
X0041802Y0011017D01*
X0041085Y0010018D02*
X0129078Y0010018D01*
X0151798Y0022999D02*
X0153365Y0022999D01*
X0152386Y0022411D02*
X0152386Y0022411D01*
X0152797Y0022000D02*
X0154364Y0022000D01*
X0153795Y0021002D02*
X0155362Y0021002D01*
X0154794Y0020003D02*
X0156361Y0020003D01*
X0155792Y0019005D02*
X0157359Y0019005D01*
X0157203Y0018006D02*
X0156791Y0018006D01*
X0160453Y0021002D02*
X0175421Y0021002D01*
X0176419Y0022000D02*
X0159455Y0022000D01*
X0158456Y0022999D02*
X0167082Y0022999D01*
X0167005Y0023076D02*
X0167245Y0022836D01*
X0167539Y0022666D01*
X0167866Y0022579D01*
X0169323Y0022579D01*
X0169323Y0025547D01*
X0169898Y0025547D01*
X0169898Y0026122D01*
X0172472Y0026122D01*
X0172472Y0027973D01*
X0172385Y0028300D01*
X0172215Y0028594D01*
X0171976Y0028833D01*
X0171682Y0029003D01*
X0171355Y0029091D01*
X0169898Y0029091D01*
X0169898Y0026122D01*
X0169323Y0026122D01*
X0169323Y0029091D01*
X0167866Y0029091D01*
X0167539Y0029003D01*
X0167245Y0028833D01*
X0167005Y0028594D01*
X0166836Y0028300D01*
X0166748Y0027973D01*
X0166748Y0026122D01*
X0169323Y0026122D01*
X0169323Y0025547D01*
X0166748Y0025547D01*
X0166748Y0023697D01*
X0166836Y0023369D01*
X0167005Y0023076D01*
X0166748Y0023997D02*
X0157458Y0023997D01*
X0156459Y0024996D02*
X0160557Y0024996D01*
X0159420Y0025994D02*
X0155662Y0025994D01*
X0155662Y0026993D02*
X0159055Y0026993D01*
X0158609Y0027991D02*
X0155662Y0027991D01*
X0155662Y0028990D02*
X0157610Y0028990D01*
X0156612Y0029988D02*
X0156594Y0029988D01*
X0162516Y0029988D02*
X0184407Y0029988D01*
X0183409Y0028990D02*
X0171704Y0028990D01*
X0172467Y0027991D02*
X0182410Y0027991D01*
X0181412Y0026993D02*
X0172472Y0026993D01*
X0172472Y0025547D02*
X0169898Y0025547D01*
X0169898Y0022579D01*
X0171355Y0022579D01*
X0171682Y0022666D01*
X0171976Y0022836D01*
X0172215Y0023076D01*
X0172385Y0023369D01*
X0172472Y0023697D01*
X0172472Y0025547D01*
X0172472Y0024996D02*
X0179415Y0024996D01*
X0180413Y0025994D02*
X0169898Y0025994D01*
X0169323Y0025994D02*
X0164052Y0025994D01*
X0164417Y0026993D02*
X0166748Y0026993D01*
X0166753Y0027991D02*
X0164397Y0027991D01*
X0163947Y0028990D02*
X0167516Y0028990D01*
X0169323Y0028990D02*
X0169898Y0028990D01*
X0169898Y0027991D02*
X0169323Y0027991D01*
X0169323Y0026993D02*
X0169898Y0026993D01*
X0169898Y0024996D02*
X0169323Y0024996D01*
X0169323Y0023997D02*
X0169898Y0023997D01*
X0169898Y0022999D02*
X0169323Y0022999D01*
X0172138Y0022999D02*
X0177418Y0022999D01*
X0178416Y0023997D02*
X0172472Y0023997D01*
X0174422Y0020003D02*
X0161452Y0020003D01*
X0162450Y0019005D02*
X0162824Y0019005D01*
X0168916Y0019005D02*
X0170305Y0019005D01*
X0170276Y0018006D02*
X0168945Y0018006D01*
X0168945Y0017008D02*
X0170276Y0017008D01*
X0170276Y0016009D02*
X0168945Y0016009D01*
X0157144Y0011017D02*
X0156615Y0011017D01*
X0154371Y0010018D02*
X0277259Y0010018D01*
X0277259Y0009020D02*
X0039904Y0009020D01*
X0037433Y0009020D02*
X0036433Y0009020D01*
X0036433Y0010018D02*
X0037433Y0010018D01*
X0037433Y0011017D02*
X0036433Y0011017D01*
X0036433Y0012015D02*
X0037433Y0012015D01*
X0037433Y0013014D02*
X0036433Y0013014D01*
X0036433Y0014012D02*
X0003300Y0014012D01*
X0003300Y0013014D02*
X0031395Y0013014D01*
X0031628Y0012015D02*
X0003300Y0012015D01*
X0003300Y0011017D02*
X0032064Y0011017D01*
X0032781Y0010018D02*
X0003300Y0010018D01*
X0003300Y0009020D02*
X0033962Y0009020D01*
X0031473Y0015011D02*
X0003300Y0015011D01*
X0003300Y0016009D02*
X0031804Y0016009D01*
X0032381Y0017008D02*
X0003300Y0017008D01*
X0003300Y0018006D02*
X0033270Y0018006D01*
X0038896Y0019005D02*
X0080409Y0019005D01*
X0080409Y0018006D02*
X0040596Y0018006D01*
X0041486Y0017008D02*
X0080409Y0017008D01*
X0080409Y0016009D02*
X0042062Y0016009D01*
X0042393Y0015011D02*
X0080409Y0015011D01*
X0091992Y0014249D02*
X0093113Y0015369D01*
X0093905Y0017281D01*
X0093905Y0019349D01*
X0093113Y0021261D01*
X0091650Y0022723D01*
X0090222Y0023315D01*
X0091650Y0023907D01*
X0093113Y0025369D01*
X0093905Y0027281D01*
X0093905Y0029349D01*
X0093654Y0029954D01*
X0099606Y0024002D01*
X0099606Y0023299D01*
X0098781Y0023299D01*
X0097698Y0022217D01*
X0097030Y0022217D01*
X0096044Y0021808D01*
X0095290Y0021054D01*
X0094882Y0020069D01*
X0094882Y0019002D01*
X0095290Y0018017D01*
X0096044Y0017263D01*
X0097030Y0016854D01*
X0098096Y0016854D01*
X0099082Y0017263D01*
X0099819Y0018000D01*
X0099819Y0017657D01*
X0102787Y0017657D01*
X0102787Y0016689D01*
X0099819Y0016689D01*
X0099819Y0015035D01*
X0099907Y0014708D01*
X0100076Y0014414D01*
X0100242Y0014249D01*
X0091992Y0014249D01*
X0092754Y0015011D02*
X0099825Y0015011D01*
X0099819Y0016009D02*
X0093378Y0016009D01*
X0093792Y0017008D02*
X0096659Y0017008D01*
X0095301Y0018006D02*
X0093905Y0018006D01*
X0093905Y0019005D02*
X0094882Y0019005D01*
X0094882Y0020003D02*
X0093634Y0020003D01*
X0093220Y0021002D02*
X0095268Y0021002D01*
X0096508Y0022000D02*
X0092373Y0022000D01*
X0090985Y0022999D02*
X0098481Y0022999D01*
X0099606Y0023997D02*
X0091741Y0023997D01*
X0092739Y0024996D02*
X0098612Y0024996D01*
X0097614Y0025994D02*
X0093372Y0025994D01*
X0093785Y0026993D02*
X0096615Y0026993D01*
X0095617Y0027991D02*
X0093905Y0027991D01*
X0093905Y0028990D02*
X0094618Y0028990D01*
X0101657Y0034913D02*
X0101657Y0036343D01*
X0101658Y0036343D01*
X0101658Y0034913D01*
X0101657Y0034913D01*
X0101657Y0034981D02*
X0101658Y0034981D01*
X0101657Y0035979D02*
X0101658Y0035979D01*
X0109993Y0042283D02*
X0109993Y0043134D01*
X0110466Y0043607D01*
X0110874Y0044593D01*
X0110874Y0045659D01*
X0110466Y0046645D01*
X0109712Y0047399D01*
X0109515Y0047480D01*
X0109740Y0047480D01*
X0110068Y0047568D01*
X0110361Y0047738D01*
X0110601Y0047977D01*
X0110771Y0048271D01*
X0110858Y0048598D01*
X0110858Y0049752D01*
X0110858Y0050906D01*
X0110771Y0051233D01*
X0110601Y0051527D01*
X0110534Y0051594D01*
X0111693Y0051594D01*
X0111693Y0050725D01*
X0112572Y0049846D01*
X0113558Y0049846D01*
X0113558Y0039888D01*
X0113451Y0039933D01*
X0113236Y0039933D01*
X0113236Y0040147D01*
X0112828Y0041133D01*
X0112074Y0041887D01*
X0111088Y0042295D01*
X0110022Y0042295D01*
X0109993Y0042283D01*
X0109993Y0042969D02*
X0113558Y0042969D01*
X0113558Y0043967D02*
X0110615Y0043967D01*
X0110874Y0044966D02*
X0113558Y0044966D01*
X0113558Y0045965D02*
X0110748Y0045965D01*
X0110148Y0046963D02*
X0113558Y0046963D01*
X0113558Y0047962D02*
X0110585Y0047962D01*
X0110858Y0048960D02*
X0113558Y0048960D01*
X0112459Y0049959D02*
X0110858Y0049959D01*
X0110858Y0049752D02*
X0108882Y0049752D01*
X0108882Y0049752D01*
X0110858Y0049752D01*
X0110845Y0050957D02*
X0111693Y0050957D01*
X0104523Y0052024D02*
X0103764Y0052024D01*
X0103764Y0049752D01*
X0103764Y0049752D01*
X0103764Y0052024D01*
X0103069Y0052024D01*
X0103769Y0052724D01*
X0104523Y0052293D01*
X0104523Y0052024D01*
X0103764Y0051956D02*
X0103764Y0051956D01*
X0103764Y0050957D02*
X0103764Y0050957D01*
X0103764Y0049959D02*
X0103764Y0049959D01*
X0099927Y0053972D02*
X0099927Y0055692D01*
X0100019Y0055639D01*
X0100346Y0055551D01*
X0101205Y0055551D01*
X0101506Y0055551D01*
X0099927Y0053972D01*
X0099927Y0054951D02*
X0100906Y0054951D01*
X0101205Y0055551D02*
X0101205Y0057823D01*
X0101205Y0057823D01*
X0101205Y0060094D01*
X0102063Y0060094D01*
X0102203Y0060057D01*
X0102453Y0060307D01*
X0104486Y0060307D01*
X0104436Y0063637D01*
X0104425Y0063648D01*
X0104425Y0063686D01*
X0100429Y0063686D01*
X0099927Y0063184D01*
X0099927Y0059954D01*
X0100019Y0060007D01*
X0100346Y0060094D01*
X0101205Y0060094D01*
X0101205Y0057823D01*
X0101205Y0055551D01*
X0101205Y0055950D02*
X0101205Y0055950D01*
X0101205Y0056948D02*
X0101205Y0056948D01*
X0101205Y0057823D02*
X0101205Y0057823D01*
X0101205Y0057947D02*
X0101205Y0057947D01*
X0101205Y0058945D02*
X0101205Y0058945D01*
X0101205Y0059944D02*
X0101205Y0059944D01*
X0099927Y0060942D02*
X0104476Y0060942D01*
X0104461Y0061941D02*
X0099927Y0061941D01*
X0099927Y0062939D02*
X0104446Y0062939D01*
X0120791Y0056571D02*
X0121473Y0057253D01*
X0122535Y0056191D01*
X0122535Y0053799D01*
X0121567Y0053799D01*
X0121567Y0056571D01*
X0120791Y0056571D01*
X0121169Y0056948D02*
X0121778Y0056948D01*
X0121567Y0055950D02*
X0122535Y0055950D01*
X0122535Y0054951D02*
X0121567Y0054951D01*
X0121567Y0053953D02*
X0122535Y0053953D01*
X0117342Y0045965D02*
X0117158Y0045965D01*
X0113558Y0041970D02*
X0111873Y0041970D01*
X0112895Y0040972D02*
X0113558Y0040972D01*
X0113558Y0039973D02*
X0113236Y0039973D01*
X0115598Y0037222D02*
X0116250Y0036571D01*
X0115843Y0036571D01*
X0115843Y0033799D01*
X0114874Y0033799D01*
X0114874Y0035417D01*
X0115190Y0035733D01*
X0115598Y0036719D01*
X0115598Y0037222D01*
X0115598Y0036978D02*
X0115843Y0036978D01*
X0115843Y0035979D02*
X0115292Y0035979D01*
X0114874Y0034981D02*
X0115843Y0034981D01*
X0115843Y0033982D02*
X0114874Y0033982D01*
X0102787Y0017008D02*
X0098466Y0017008D01*
X0075642Y0022999D02*
X0003300Y0022999D01*
X0003300Y0023997D02*
X0074647Y0023997D01*
X0074622Y0024996D02*
X0003300Y0024996D01*
X0003300Y0008021D02*
X0277259Y0008021D01*
X0277259Y0007023D02*
X0003300Y0007023D01*
X0003300Y0006024D02*
X0277259Y0006024D01*
X0277259Y0005026D02*
X0003300Y0005026D01*
X0003300Y0004406D02*
X0003300Y0153169D01*
X0277259Y0153169D01*
X0277259Y0004406D01*
X0003300Y0004406D01*
X0041463Y0036978D02*
X0076078Y0036978D01*
X0076078Y0037976D02*
X0042461Y0037976D01*
X0043314Y0038975D02*
X0075634Y0038975D01*
X0075591Y0039973D02*
X0043728Y0039973D01*
X0044141Y0040972D02*
X0075932Y0040972D01*
X0076954Y0041970D02*
X0044339Y0041970D01*
X0044339Y0042969D02*
X0080409Y0042969D01*
X0080409Y0043967D02*
X0044339Y0043967D01*
X0044102Y0044966D02*
X0080409Y0044966D01*
X0080409Y0045965D02*
X0043688Y0045965D01*
X0043275Y0046963D02*
X0080409Y0046963D01*
X0080409Y0047962D02*
X0042366Y0047962D01*
X0041367Y0048960D02*
X0080409Y0048960D01*
X0080409Y0049959D02*
X0039295Y0049959D01*
X0079589Y0041970D02*
X0080409Y0041970D01*
X0079725Y0081911D02*
X0003300Y0081911D01*
X0003300Y0082909D02*
X0079528Y0082909D01*
X0079715Y0083908D02*
X0003300Y0083908D01*
X0003300Y0084906D02*
X0080402Y0084906D01*
X0083347Y0090898D02*
X0084146Y0090898D01*
X0102213Y0101079D02*
X0102213Y0101171D01*
X0101804Y0102157D01*
X0101759Y0102202D01*
X0103335Y0102202D01*
X0102998Y0101865D01*
X0105641Y0099222D01*
X0105570Y0099152D01*
X0102928Y0101794D01*
X0102213Y0101079D01*
X0101918Y0101881D02*
X0103015Y0101881D01*
X0103839Y0100883D02*
X0103981Y0100883D01*
X0104838Y0099884D02*
X0104979Y0099884D01*
X0084789Y0104877D02*
X0041172Y0104877D01*
X0042171Y0105875D02*
X0084087Y0105875D01*
X0083673Y0106874D02*
X0043170Y0106874D01*
X0043607Y0107872D02*
X0083505Y0107872D01*
X0083505Y0108871D02*
X0044021Y0108871D01*
X0044339Y0109869D02*
X0083720Y0109869D01*
X0084134Y0110868D02*
X0044339Y0110868D01*
X0044339Y0111866D02*
X0084902Y0111866D01*
X0086101Y0112865D02*
X0044222Y0112865D01*
X0043808Y0113863D02*
X0086456Y0113863D01*
X0085105Y0114862D02*
X0043395Y0114862D01*
X0042656Y0115860D02*
X0084358Y0115860D01*
X0083934Y0116859D02*
X0041657Y0116859D01*
X0039996Y0117857D02*
X0088205Y0117857D01*
X0059153Y0141822D02*
X0049166Y0141822D01*
X0050165Y0142820D02*
X0059566Y0142820D01*
X0060095Y0143819D02*
X0051163Y0143819D01*
X0003300Y0149810D02*
X0277259Y0149810D01*
X0277259Y0150808D02*
X0003300Y0150808D01*
X0003300Y0151807D02*
X0277259Y0151807D01*
X0277259Y0152805D02*
X0003300Y0152805D01*
X0171615Y0044966D02*
X0175291Y0044966D01*
X0174687Y0043967D02*
X0172974Y0043967D01*
X0173972Y0042969D02*
X0174409Y0042969D01*
X0174999Y0040972D02*
X0175091Y0040972D01*
X0175413Y0039973D02*
X0183195Y0039973D01*
X0182496Y0038975D02*
X0175441Y0038975D01*
X0175441Y0037976D02*
X0182496Y0037976D01*
X0182496Y0035979D02*
X0175035Y0035979D01*
X0175441Y0036978D02*
X0185464Y0036978D01*
X0185465Y0037976D02*
X0186433Y0037976D01*
X0186433Y0038975D02*
X0185465Y0038975D01*
X0185465Y0039973D02*
X0186433Y0039973D01*
X0188703Y0039973D02*
X0189502Y0039973D01*
X0196307Y0037976D02*
X0197710Y0037976D01*
X0196712Y0036978D02*
X0196307Y0036978D01*
X0187403Y0032984D02*
X0173059Y0032984D01*
X0174058Y0033982D02*
X0182870Y0033982D01*
X0182496Y0034981D02*
X0174621Y0034981D01*
X0171821Y0031985D02*
X0186404Y0031985D01*
X0186433Y0033982D02*
X0185465Y0033982D01*
X0185465Y0034981D02*
X0186433Y0034981D01*
X0186433Y0035979D02*
X0185465Y0035979D01*
X0200284Y0027991D02*
X0217285Y0027991D01*
X0217285Y0026993D02*
X0201031Y0026993D01*
X0201031Y0025994D02*
X0217285Y0025994D01*
X0217285Y0024996D02*
X0201031Y0024996D01*
X0201031Y0023997D02*
X0217285Y0023997D01*
X0217285Y0022999D02*
X0201031Y0022999D01*
X0201031Y0022000D02*
X0217285Y0022000D01*
X0217285Y0021002D02*
X0200580Y0021002D01*
X0201031Y0020003D02*
X0217285Y0020003D01*
X0201031Y0019005D02*
X0277259Y0019005D01*
X0277259Y0020003D02*
X0275478Y0020003D01*
X0275478Y0019815D02*
X0275478Y0035791D01*
X0275039Y0036230D01*
X0255520Y0036230D01*
X0255081Y0035791D01*
X0255081Y0019815D01*
X0255520Y0019376D01*
X0256141Y0019376D01*
X0275039Y0019376D01*
X0275478Y0019815D01*
X0275478Y0021002D02*
X0277259Y0021002D01*
X0277259Y0022000D02*
X0275478Y0022000D01*
X0275478Y0022999D02*
X0277259Y0022999D01*
X0277259Y0023997D02*
X0275478Y0023997D01*
X0275478Y0024996D02*
X0277259Y0024996D01*
X0277259Y0025994D02*
X0275478Y0025994D01*
X0275478Y0026993D02*
X0277259Y0026993D01*
X0277259Y0027991D02*
X0275478Y0027991D01*
X0275478Y0028990D02*
X0277259Y0028990D01*
X0277259Y0029988D02*
X0275478Y0029988D01*
X0275478Y0030987D02*
X0277259Y0030987D01*
X0277259Y0031985D02*
X0275478Y0031985D01*
X0275478Y0032984D02*
X0277259Y0032984D01*
X0277259Y0033982D02*
X0275478Y0033982D01*
X0275478Y0034981D02*
X0277259Y0034981D01*
X0277259Y0035979D02*
X0275290Y0035979D01*
X0255269Y0035979D02*
X0237495Y0035979D01*
X0237683Y0034981D02*
X0255081Y0034981D01*
X0255081Y0033982D02*
X0237683Y0033982D01*
X0237683Y0032984D02*
X0255081Y0032984D01*
X0255081Y0031985D02*
X0237683Y0031985D01*
X0237683Y0030987D02*
X0255081Y0030987D01*
X0255081Y0029988D02*
X0237683Y0029988D01*
X0237683Y0028990D02*
X0255081Y0028990D01*
X0255081Y0027991D02*
X0237683Y0027991D01*
X0237683Y0026993D02*
X0255081Y0026993D01*
X0255081Y0025994D02*
X0237683Y0025994D01*
X0237683Y0024996D02*
X0255081Y0024996D01*
X0255081Y0023997D02*
X0237683Y0023997D01*
X0237683Y0022999D02*
X0255081Y0022999D01*
X0255081Y0022000D02*
X0237683Y0022000D01*
X0237683Y0021002D02*
X0255081Y0021002D01*
X0255081Y0020003D02*
X0237683Y0020003D01*
X0201031Y0018006D02*
X0277259Y0018006D01*
X0277259Y0017008D02*
X0201031Y0017008D01*
X0201031Y0016009D02*
X0277259Y0016009D01*
X0277259Y0015011D02*
X0201031Y0015011D01*
X0194094Y0015011D02*
X0191976Y0015011D01*
X0191976Y0016009D02*
X0192971Y0016009D01*
X0190308Y0014012D02*
X0277259Y0014012D01*
X0277259Y0013014D02*
X0190308Y0013014D01*
X0190308Y0012015D02*
X0277259Y0012015D01*
X0277259Y0011017D02*
X0189537Y0011017D01*
X0166748Y0024996D02*
X0162915Y0024996D01*
X0149949Y0029988D02*
X0149600Y0029988D01*
X0149432Y0035979D02*
X0150075Y0035979D01*
X0190785Y0075920D02*
X0190842Y0075920D01*
X0190842Y0076918D02*
X0190785Y0076918D01*
X0190785Y0077917D02*
X0190842Y0077917D01*
X0190842Y0078915D02*
X0190785Y0078915D01*
X0190785Y0079914D02*
X0190842Y0079914D01*
X0190842Y0080912D02*
X0190785Y0080912D01*
X0190785Y0081911D02*
X0190842Y0081911D01*
X0190785Y0082909D02*
X0191462Y0082909D01*
X0190785Y0083908D02*
X0194145Y0083908D01*
X0194189Y0084906D02*
X0190785Y0084906D01*
X0199224Y0076918D02*
X0199602Y0076918D01*
X0199602Y0075920D02*
X0199224Y0075920D01*
X0199224Y0074921D02*
X0199602Y0074921D01*
D22*
X0199413Y0077409D03*
X0199413Y0081740D03*
X0199413Y0086071D03*
X0199413Y0090402D03*
X0199413Y0094732D03*
X0199413Y0099063D03*
X0199413Y0103394D03*
X0199413Y0107724D03*
X0199413Y0112055D03*
X0199413Y0116386D03*
X0199413Y0120717D03*
X0199413Y0125047D03*
X0148232Y0125047D03*
X0148232Y0120717D03*
X0148232Y0116386D03*
X0148232Y0112055D03*
X0148232Y0107724D03*
X0148232Y0103394D03*
X0148232Y0099063D03*
X0148232Y0094732D03*
X0148232Y0090402D03*
X0148232Y0086071D03*
X0148232Y0081740D03*
X0148232Y0077409D03*
D23*
X0160831Y0071504D03*
X0165161Y0071504D03*
X0169492Y0071504D03*
X0173823Y0071504D03*
X0178154Y0071504D03*
X0182484Y0071504D03*
X0186815Y0071504D03*
D24*
X0251185Y0113236D03*
X0255752Y0113236D03*
D25*
X0255831Y0120402D03*
X0255831Y0124969D03*
X0245594Y0124969D03*
X0245594Y0120402D03*
X0245594Y0107646D03*
X0245594Y0103079D03*
D26*
X0161736Y0052606D03*
X0145988Y0052606D03*
D27*
X0169610Y0025835D03*
X0165870Y0016386D03*
X0173350Y0016386D03*
D28*
X0226697Y0027409D03*
X0265280Y0027409D03*
X0265280Y0093551D03*
X0226697Y0119929D03*
D29*
X0265280Y0119929D03*
X0265280Y0140008D03*
D30*
X0036933Y0140264D03*
X0036933Y0013768D03*
D31*
X0075713Y0137646D03*
X0083193Y0137646D03*
X0079453Y0145913D03*
D32*
X0101205Y0057823D03*
X0103764Y0057823D03*
X0106323Y0057823D03*
X0108882Y0057823D03*
X0108882Y0049752D03*
X0106323Y0049752D03*
X0103764Y0049752D03*
X0101205Y0049752D03*
D33*
X0101657Y0038630D03*
X0101657Y0036661D03*
X0101657Y0034693D03*
X0101657Y0032724D03*
X0107642Y0032724D03*
X0107642Y0034693D03*
X0107642Y0036661D03*
X0107642Y0038630D03*
D34*
X0105634Y0038669D03*
X0103665Y0038669D03*
X0103665Y0032685D03*
X0105634Y0032685D03*
D35*
X0110555Y0034102D03*
X0112917Y0037252D03*
X0110555Y0039614D03*
X0112917Y0043945D03*
X0108193Y0045126D03*
X0102287Y0045520D03*
X0098801Y0035620D03*
X0096062Y0032882D03*
X0107799Y0025047D03*
X0102287Y0023472D03*
X0097563Y0019535D03*
X0097169Y0015598D03*
X0097169Y0008906D03*
X0113311Y0022291D03*
X0134177Y0027409D03*
X0146382Y0026622D03*
X0157012Y0026622D03*
X0161736Y0027409D03*
X0159374Y0016386D03*
X0154650Y0012843D03*
X0152287Y0017173D03*
X0137720Y0038039D03*
X0129453Y0040795D03*
X0125516Y0041189D03*
X0123547Y0044339D03*
X0118823Y0043945D03*
X0119217Y0047882D03*
X0120004Y0038433D03*
X0146382Y0042370D03*
X0127091Y0062055D03*
X0119217Y0062055D03*
X0112917Y0060480D03*
X0108980Y0062420D03*
X0104256Y0070323D03*
X0118035Y0073472D03*
X0122760Y0077016D03*
X0118429Y0078197D03*
X0120004Y0082921D03*
X0124728Y0082921D03*
X0124728Y0088039D03*
X0127878Y0090795D03*
X0133390Y0089614D03*
X0131815Y0084890D03*
X0137720Y0076228D03*
X0129453Y0067567D03*
X0135752Y0064417D03*
X0158587Y0080559D03*
X0169610Y0084890D03*
X0165280Y0098669D03*
X0158587Y0108906D03*
X0158587Y0115205D03*
X0140083Y0118354D03*
X0132602Y0108906D03*
X0132996Y0104969D03*
X0121579Y0100244D03*
X0119217Y0097882D03*
X0117642Y0101031D03*
X0123941Y0095126D03*
X0114492Y0091583D03*
X0111736Y0093945D03*
X0115160Y0087113D03*
X0107799Y0085283D03*
X0095599Y0080953D03*
X0082209Y0082921D03*
X0081815Y0093157D03*
X0099531Y0100638D03*
X0107012Y0112055D03*
X0111343Y0112055D03*
X0117248Y0112055D03*
X0124335Y0112843D03*
X0107799Y0123866D03*
X0105437Y0119929D03*
X0099531Y0120323D03*
X0095201Y0117567D03*
X0095594Y0127803D03*
X0117248Y0131346D03*
X0196776Y0064417D03*
X0202681Y0065205D03*
X0199138Y0054969D03*
X0180240Y0046307D03*
X0177091Y0042764D03*
X0202681Y0040402D03*
X0078272Y0039614D03*
D36*
X0205831Y0114417D03*
X0208193Y0111661D03*
X0210555Y0109299D03*
X0212917Y0106937D03*
X0215673Y0104575D03*
X0219217Y0104575D03*
X0223154Y0104575D03*
X0226697Y0104575D03*
X0230240Y0104575D03*
X0233783Y0104575D03*
X0237327Y0104575D03*
X0240870Y0104575D03*
X0240870Y0110480D03*
X0237327Y0110480D03*
X0233783Y0110480D03*
X0230240Y0110480D03*
X0226697Y0110480D03*
X0223154Y0110480D03*
X0219217Y0110480D03*
X0215280Y0114024D03*
X0212917Y0116386D03*
X0210555Y0118748D03*
X0208193Y0121110D03*
X0205831Y0123472D03*
D37*
X0203862Y0120717D02*
X0216854Y0107724D01*
X0245516Y0107724D01*
M02*
