G04 EAGLE Gerber RS-274X export*
G75*
%MOMM*%
%FSLAX34Y34*%
%LPD*%
%INBottom Copper*%
%IPPOS*%
%AMOC8*
5,1,8,0,0,1.08239X$1,22.5*%
G01*
%ADD10C,1.879600*%
%ADD11C,1.676400*%
%ADD12C,2.184400*%
%ADD13C,0.900000*%
%ADD14C,0.450000*%
%ADD15C,0.152400*%

G36*
X447678Y3320D02*
X447678Y3320D01*
X447816Y3333D01*
X447835Y3340D01*
X447855Y3343D01*
X447984Y3394D01*
X448115Y3441D01*
X448132Y3452D01*
X448151Y3460D01*
X448263Y3541D01*
X448378Y3619D01*
X448392Y3635D01*
X448408Y3646D01*
X448497Y3754D01*
X448589Y3858D01*
X448598Y3876D01*
X448611Y3891D01*
X448670Y4017D01*
X448733Y4141D01*
X448738Y4161D01*
X448747Y4179D01*
X448773Y4316D01*
X448803Y4451D01*
X448802Y4472D01*
X448806Y4491D01*
X448798Y4630D01*
X448793Y4769D01*
X448788Y4789D01*
X448787Y4809D01*
X448744Y4941D01*
X448705Y5075D01*
X448695Y5092D01*
X448689Y5111D01*
X448614Y5229D01*
X448543Y5349D01*
X448525Y5370D01*
X448518Y5380D01*
X448503Y5394D01*
X448437Y5469D01*
X447751Y6156D01*
X447039Y7221D01*
X446549Y8404D01*
X446299Y9660D01*
X446299Y13531D01*
X446490Y13531D01*
X446608Y13546D01*
X446727Y13553D01*
X446765Y13565D01*
X446806Y13570D01*
X446916Y13614D01*
X447029Y13651D01*
X447064Y13673D01*
X447101Y13687D01*
X447197Y13757D01*
X447298Y13821D01*
X447326Y13851D01*
X447359Y13874D01*
X447435Y13966D01*
X447516Y14053D01*
X447536Y14088D01*
X447561Y14119D01*
X447612Y14227D01*
X447670Y14331D01*
X447680Y14370D01*
X447697Y14407D01*
X447719Y14524D01*
X447749Y14639D01*
X447753Y14699D01*
X447757Y14719D01*
X447757Y14720D01*
X447755Y14740D01*
X447759Y14800D01*
X447744Y14918D01*
X447737Y15037D01*
X447724Y15075D01*
X447719Y15116D01*
X447676Y15226D01*
X447639Y15340D01*
X447617Y15374D01*
X447602Y15411D01*
X447533Y15508D01*
X447469Y15608D01*
X447439Y15636D01*
X447416Y15669D01*
X447324Y15745D01*
X447237Y15826D01*
X447202Y15846D01*
X447171Y15872D01*
X447063Y15922D01*
X446959Y15980D01*
X446919Y15990D01*
X446883Y16007D01*
X446766Y16029D01*
X446651Y16059D01*
X446591Y16063D01*
X446571Y16067D01*
X446550Y16066D01*
X446490Y16069D01*
X446299Y16069D01*
X446299Y19940D01*
X446549Y21196D01*
X447039Y22379D01*
X447751Y23444D01*
X448656Y24349D01*
X449721Y25061D01*
X450904Y25551D01*
X451531Y25676D01*
X451531Y21110D01*
X451546Y20992D01*
X451553Y20873D01*
X451565Y20835D01*
X451570Y20794D01*
X451614Y20684D01*
X451651Y20571D01*
X451673Y20536D01*
X451687Y20499D01*
X451757Y20403D01*
X451821Y20302D01*
X451851Y20274D01*
X451874Y20241D01*
X451966Y20165D01*
X452053Y20084D01*
X452088Y20064D01*
X452119Y20039D01*
X452227Y19988D01*
X452331Y19930D01*
X452370Y19920D01*
X452407Y19903D01*
X452524Y19881D01*
X452639Y19851D01*
X452699Y19847D01*
X452719Y19843D01*
X452720Y19843D01*
X452740Y19845D01*
X452800Y19841D01*
X452918Y19856D01*
X453037Y19863D01*
X453075Y19876D01*
X453116Y19881D01*
X453226Y19924D01*
X453340Y19961D01*
X453374Y19983D01*
X453411Y19998D01*
X453508Y20067D01*
X453608Y20131D01*
X453636Y20161D01*
X453669Y20184D01*
X453745Y20276D01*
X453826Y20363D01*
X453846Y20398D01*
X453872Y20429D01*
X453922Y20537D01*
X453980Y20641D01*
X453990Y20681D01*
X454007Y20717D01*
X454029Y20834D01*
X454059Y20949D01*
X454063Y21009D01*
X454067Y21029D01*
X454066Y21050D01*
X454069Y21110D01*
X454069Y25676D01*
X454696Y25551D01*
X455879Y25061D01*
X456944Y24349D01*
X457849Y23444D01*
X458561Y22379D01*
X459051Y21196D01*
X459301Y19940D01*
X459301Y16069D01*
X459110Y16069D01*
X458992Y16054D01*
X458873Y16047D01*
X458835Y16035D01*
X458794Y16030D01*
X458684Y15986D01*
X458571Y15949D01*
X458536Y15927D01*
X458499Y15913D01*
X458403Y15843D01*
X458302Y15779D01*
X458274Y15749D01*
X458241Y15726D01*
X458165Y15634D01*
X458084Y15547D01*
X458064Y15512D01*
X458039Y15481D01*
X457988Y15373D01*
X457930Y15269D01*
X457920Y15230D01*
X457903Y15193D01*
X457881Y15076D01*
X457851Y14961D01*
X457847Y14901D01*
X457843Y14881D01*
X457843Y14880D01*
X457845Y14860D01*
X457841Y14800D01*
X457856Y14682D01*
X457863Y14563D01*
X457876Y14524D01*
X457881Y14484D01*
X457924Y14374D01*
X457961Y14260D01*
X457983Y14226D01*
X457998Y14189D01*
X458067Y14092D01*
X458131Y13992D01*
X458161Y13964D01*
X458184Y13931D01*
X458276Y13855D01*
X458363Y13774D01*
X458398Y13754D01*
X458429Y13728D01*
X458537Y13678D01*
X458641Y13620D01*
X458681Y13610D01*
X458717Y13593D01*
X458834Y13571D01*
X458949Y13541D01*
X459009Y13537D01*
X459029Y13533D01*
X459050Y13534D01*
X459110Y13531D01*
X459301Y13531D01*
X459301Y9660D01*
X459051Y8404D01*
X458561Y7221D01*
X457849Y6156D01*
X457163Y5469D01*
X457078Y5360D01*
X456989Y5253D01*
X456980Y5234D01*
X456968Y5218D01*
X456913Y5090D01*
X456853Y4965D01*
X456850Y4945D01*
X456842Y4926D01*
X456820Y4788D01*
X456794Y4652D01*
X456795Y4632D01*
X456792Y4612D01*
X456805Y4473D01*
X456813Y4335D01*
X456820Y4316D01*
X456822Y4296D01*
X456869Y4165D01*
X456911Y4033D01*
X456922Y4015D01*
X456929Y3996D01*
X457007Y3882D01*
X457082Y3764D01*
X457096Y3750D01*
X457108Y3733D01*
X457212Y3641D01*
X457313Y3546D01*
X457331Y3536D01*
X457346Y3523D01*
X457470Y3460D01*
X457592Y3392D01*
X457611Y3387D01*
X457629Y3378D01*
X457765Y3348D01*
X457900Y3313D01*
X457928Y3311D01*
X457940Y3308D01*
X457960Y3309D01*
X458060Y3303D01*
X513540Y3303D01*
X513678Y3320D01*
X513816Y3333D01*
X513835Y3340D01*
X513855Y3343D01*
X513984Y3394D01*
X514115Y3441D01*
X514132Y3452D01*
X514151Y3460D01*
X514263Y3541D01*
X514378Y3619D01*
X514392Y3635D01*
X514408Y3646D01*
X514497Y3754D01*
X514589Y3858D01*
X514598Y3876D01*
X514611Y3891D01*
X514670Y4017D01*
X514733Y4141D01*
X514738Y4161D01*
X514747Y4179D01*
X514773Y4316D01*
X514803Y4451D01*
X514802Y4472D01*
X514806Y4491D01*
X514798Y4630D01*
X514793Y4769D01*
X514788Y4789D01*
X514787Y4809D01*
X514744Y4941D01*
X514705Y5075D01*
X514695Y5092D01*
X514689Y5111D01*
X514614Y5229D01*
X514543Y5349D01*
X514525Y5370D01*
X514518Y5380D01*
X514503Y5394D01*
X514437Y5469D01*
X513751Y6156D01*
X513039Y7221D01*
X512549Y8404D01*
X512299Y9660D01*
X512299Y13531D01*
X512490Y13531D01*
X512608Y13546D01*
X512727Y13553D01*
X512765Y13565D01*
X512806Y13570D01*
X512916Y13614D01*
X513029Y13651D01*
X513064Y13673D01*
X513101Y13687D01*
X513197Y13757D01*
X513298Y13821D01*
X513326Y13851D01*
X513359Y13874D01*
X513435Y13966D01*
X513516Y14053D01*
X513536Y14088D01*
X513561Y14119D01*
X513612Y14227D01*
X513670Y14331D01*
X513680Y14370D01*
X513697Y14407D01*
X513719Y14524D01*
X513749Y14639D01*
X513753Y14699D01*
X513757Y14719D01*
X513757Y14720D01*
X513755Y14740D01*
X513759Y14800D01*
X513744Y14918D01*
X513737Y15037D01*
X513724Y15075D01*
X513719Y15116D01*
X513676Y15226D01*
X513639Y15340D01*
X513617Y15374D01*
X513602Y15411D01*
X513533Y15508D01*
X513469Y15608D01*
X513439Y15636D01*
X513416Y15669D01*
X513324Y15745D01*
X513237Y15826D01*
X513202Y15846D01*
X513171Y15872D01*
X513063Y15922D01*
X512959Y15980D01*
X512919Y15990D01*
X512883Y16007D01*
X512766Y16029D01*
X512651Y16059D01*
X512591Y16063D01*
X512571Y16067D01*
X512550Y16066D01*
X512490Y16069D01*
X512299Y16069D01*
X512299Y19940D01*
X512549Y21196D01*
X513039Y22379D01*
X513751Y23444D01*
X514656Y24349D01*
X515721Y25061D01*
X516904Y25551D01*
X517531Y25676D01*
X517531Y21110D01*
X517546Y20992D01*
X517553Y20873D01*
X517565Y20835D01*
X517570Y20794D01*
X517614Y20684D01*
X517651Y20571D01*
X517673Y20536D01*
X517687Y20499D01*
X517757Y20403D01*
X517821Y20302D01*
X517851Y20274D01*
X517874Y20241D01*
X517966Y20165D01*
X518053Y20084D01*
X518088Y20064D01*
X518119Y20039D01*
X518227Y19988D01*
X518331Y19930D01*
X518370Y19920D01*
X518407Y19903D01*
X518524Y19881D01*
X518639Y19851D01*
X518699Y19847D01*
X518719Y19843D01*
X518720Y19843D01*
X518740Y19845D01*
X518800Y19841D01*
X518918Y19856D01*
X519037Y19863D01*
X519075Y19876D01*
X519116Y19881D01*
X519226Y19924D01*
X519340Y19961D01*
X519374Y19983D01*
X519411Y19998D01*
X519508Y20067D01*
X519608Y20131D01*
X519636Y20161D01*
X519669Y20184D01*
X519745Y20276D01*
X519826Y20363D01*
X519846Y20398D01*
X519872Y20429D01*
X519922Y20537D01*
X519980Y20641D01*
X519990Y20681D01*
X520007Y20717D01*
X520029Y20834D01*
X520059Y20949D01*
X520063Y21009D01*
X520067Y21029D01*
X520066Y21050D01*
X520069Y21110D01*
X520069Y25676D01*
X520696Y25551D01*
X521879Y25061D01*
X522944Y24349D01*
X523849Y23444D01*
X524561Y22379D01*
X525051Y21196D01*
X525301Y19940D01*
X525301Y16069D01*
X525110Y16069D01*
X524992Y16054D01*
X524873Y16047D01*
X524835Y16035D01*
X524794Y16030D01*
X524684Y15986D01*
X524571Y15949D01*
X524536Y15927D01*
X524499Y15913D01*
X524403Y15843D01*
X524302Y15779D01*
X524274Y15749D01*
X524241Y15726D01*
X524165Y15634D01*
X524084Y15547D01*
X524064Y15512D01*
X524039Y15481D01*
X523988Y15373D01*
X523930Y15269D01*
X523920Y15230D01*
X523903Y15193D01*
X523881Y15076D01*
X523851Y14961D01*
X523847Y14901D01*
X523843Y14881D01*
X523843Y14880D01*
X523845Y14860D01*
X523841Y14800D01*
X523856Y14682D01*
X523863Y14563D01*
X523876Y14524D01*
X523881Y14484D01*
X523924Y14374D01*
X523961Y14260D01*
X523983Y14226D01*
X523998Y14189D01*
X524067Y14092D01*
X524131Y13992D01*
X524161Y13964D01*
X524184Y13931D01*
X524276Y13855D01*
X524363Y13774D01*
X524398Y13754D01*
X524429Y13728D01*
X524537Y13678D01*
X524641Y13620D01*
X524681Y13610D01*
X524717Y13593D01*
X524834Y13571D01*
X524949Y13541D01*
X525009Y13537D01*
X525029Y13533D01*
X525050Y13534D01*
X525110Y13531D01*
X525301Y13531D01*
X525301Y9660D01*
X525051Y8404D01*
X524561Y7221D01*
X523849Y6156D01*
X523163Y5469D01*
X523078Y5360D01*
X522989Y5253D01*
X522980Y5234D01*
X522968Y5218D01*
X522913Y5090D01*
X522853Y4965D01*
X522850Y4945D01*
X522842Y4926D01*
X522820Y4788D01*
X522794Y4652D01*
X522795Y4632D01*
X522792Y4612D01*
X522805Y4473D01*
X522813Y4335D01*
X522820Y4316D01*
X522822Y4296D01*
X522869Y4165D01*
X522911Y4033D01*
X522922Y4015D01*
X522929Y3996D01*
X523007Y3882D01*
X523082Y3764D01*
X523096Y3750D01*
X523108Y3733D01*
X523212Y3641D01*
X523313Y3546D01*
X523331Y3536D01*
X523346Y3523D01*
X523470Y3460D01*
X523592Y3392D01*
X523611Y3387D01*
X523629Y3378D01*
X523765Y3348D01*
X523900Y3313D01*
X523928Y3311D01*
X523940Y3308D01*
X523960Y3309D01*
X524060Y3303D01*
X755428Y3303D01*
X755546Y3318D01*
X755665Y3325D01*
X755703Y3338D01*
X755744Y3343D01*
X755854Y3386D01*
X755967Y3423D01*
X756002Y3445D01*
X756039Y3460D01*
X756135Y3529D01*
X756236Y3593D01*
X756264Y3623D01*
X756297Y3646D01*
X756373Y3738D01*
X756454Y3825D01*
X756474Y3860D01*
X756499Y3891D01*
X756550Y3999D01*
X756608Y4103D01*
X756618Y4143D01*
X756635Y4179D01*
X756657Y4296D01*
X756687Y4411D01*
X756691Y4471D01*
X756695Y4491D01*
X756693Y4512D01*
X756697Y4572D01*
X756697Y380428D01*
X756682Y380546D01*
X756675Y380665D01*
X756662Y380703D01*
X756657Y380744D01*
X756614Y380854D01*
X756577Y380967D01*
X756555Y381002D01*
X756540Y381039D01*
X756471Y381135D01*
X756407Y381236D01*
X756377Y381264D01*
X756354Y381297D01*
X756262Y381373D01*
X756175Y381454D01*
X756140Y381474D01*
X756109Y381499D01*
X756001Y381550D01*
X755897Y381608D01*
X755857Y381618D01*
X755821Y381635D01*
X755704Y381657D01*
X755589Y381687D01*
X755529Y381691D01*
X755509Y381695D01*
X755488Y381693D01*
X755428Y381697D01*
X359060Y381697D01*
X358942Y381682D01*
X358823Y381675D01*
X358785Y381662D01*
X358744Y381657D01*
X358634Y381614D01*
X358521Y381577D01*
X358486Y381555D01*
X358449Y381540D01*
X358353Y381471D01*
X358252Y381407D01*
X358224Y381377D01*
X358191Y381354D01*
X358115Y381262D01*
X358034Y381175D01*
X358014Y381140D01*
X357989Y381109D01*
X357938Y381001D01*
X357880Y380897D01*
X357870Y380857D01*
X357853Y380821D01*
X357831Y380704D01*
X357801Y380589D01*
X357797Y380529D01*
X357793Y380509D01*
X357795Y380488D01*
X357791Y380428D01*
X357791Y377016D01*
X354984Y374209D01*
X351016Y374209D01*
X349899Y375326D01*
X349821Y375386D01*
X349749Y375454D01*
X349696Y375483D01*
X349648Y375520D01*
X349557Y375560D01*
X349470Y375608D01*
X349412Y375623D01*
X349356Y375647D01*
X349258Y375662D01*
X349163Y375687D01*
X349063Y375693D01*
X349042Y375697D01*
X349030Y375695D01*
X349002Y375697D01*
X302060Y375697D01*
X301942Y375682D01*
X301823Y375675D01*
X301785Y375662D01*
X301744Y375657D01*
X301634Y375614D01*
X301521Y375577D01*
X301486Y375555D01*
X301449Y375540D01*
X301353Y375471D01*
X301252Y375407D01*
X301224Y375377D01*
X301191Y375354D01*
X301115Y375262D01*
X301034Y375175D01*
X301014Y375140D01*
X300989Y375109D01*
X300938Y375001D01*
X300880Y374897D01*
X300870Y374857D01*
X300853Y374821D01*
X300831Y374704D01*
X300801Y374589D01*
X300797Y374530D01*
X300796Y374526D01*
X300797Y374525D01*
X300793Y374509D01*
X300795Y374488D01*
X300791Y374428D01*
X300791Y374406D01*
X300803Y374308D01*
X300806Y374209D01*
X300823Y374150D01*
X300831Y374090D01*
X300867Y373998D01*
X300895Y373903D01*
X300925Y373851D01*
X300948Y373795D01*
X301006Y373715D01*
X301056Y373629D01*
X301122Y373554D01*
X301134Y373537D01*
X301144Y373529D01*
X301162Y373508D01*
X335996Y338674D01*
X336075Y338614D01*
X336147Y338546D01*
X336200Y338517D01*
X336248Y338480D01*
X336339Y338440D01*
X336425Y338392D01*
X336484Y338377D01*
X336539Y338353D01*
X336637Y338338D01*
X336733Y338313D01*
X336833Y338307D01*
X336854Y338303D01*
X336866Y338305D01*
X336894Y338303D01*
X379002Y338303D01*
X379100Y338315D01*
X379199Y338318D01*
X379257Y338335D01*
X379317Y338343D01*
X379409Y338379D01*
X379505Y338407D01*
X379557Y338437D01*
X379613Y338460D01*
X379693Y338518D01*
X379779Y338568D01*
X379854Y338634D01*
X379870Y338646D01*
X379878Y338656D01*
X379899Y338674D01*
X381016Y339791D01*
X384984Y339791D01*
X387791Y336984D01*
X387791Y332572D01*
X387806Y332454D01*
X387813Y332335D01*
X387826Y332297D01*
X387831Y332256D01*
X387874Y332146D01*
X387911Y332033D01*
X387933Y331998D01*
X387948Y331961D01*
X388017Y331865D01*
X388081Y331764D01*
X388111Y331736D01*
X388134Y331703D01*
X388226Y331627D01*
X388313Y331546D01*
X388348Y331526D01*
X388379Y331501D01*
X388487Y331450D01*
X388591Y331392D01*
X388631Y331382D01*
X388667Y331365D01*
X388784Y331343D01*
X388899Y331313D01*
X388959Y331309D01*
X388979Y331305D01*
X389000Y331307D01*
X389060Y331303D01*
X408368Y331303D01*
X408508Y331162D01*
X408587Y331102D01*
X408659Y331034D01*
X408712Y331005D01*
X408760Y330968D01*
X408851Y330928D01*
X408937Y330880D01*
X408996Y330865D01*
X409051Y330841D01*
X409149Y330826D01*
X409245Y330801D01*
X409345Y330795D01*
X409366Y330791D01*
X409378Y330793D01*
X409406Y330791D01*
X410984Y330791D01*
X413791Y327984D01*
X413791Y324016D01*
X410984Y321209D01*
X407016Y321209D01*
X403899Y324326D01*
X403821Y324386D01*
X403749Y324454D01*
X403696Y324483D01*
X403648Y324520D01*
X403557Y324560D01*
X403470Y324608D01*
X403412Y324623D01*
X403356Y324647D01*
X403258Y324662D01*
X403163Y324687D01*
X403062Y324693D01*
X403042Y324697D01*
X403030Y324695D01*
X403002Y324697D01*
X313914Y324697D01*
X313776Y324680D01*
X313638Y324667D01*
X313619Y324660D01*
X313598Y324657D01*
X313470Y324606D01*
X313338Y324559D01*
X313321Y324548D01*
X313303Y324540D01*
X313191Y324459D01*
X313075Y324381D01*
X313062Y324365D01*
X313045Y324354D01*
X312957Y324246D01*
X312865Y324142D01*
X312856Y324124D01*
X312843Y324109D01*
X312783Y323983D01*
X312720Y323859D01*
X312716Y323839D01*
X312707Y323821D01*
X312681Y323684D01*
X312651Y323549D01*
X312651Y323528D01*
X312647Y323509D01*
X312656Y323370D01*
X312660Y323231D01*
X312666Y323211D01*
X312667Y323191D01*
X312710Y323059D01*
X312749Y322925D01*
X312759Y322908D01*
X312765Y322889D01*
X312840Y322771D01*
X312910Y322651D01*
X312929Y322630D01*
X312935Y322620D01*
X312950Y322606D01*
X313017Y322530D01*
X313060Y322487D01*
X314723Y318473D01*
X314723Y317060D01*
X314738Y316942D01*
X314745Y316823D01*
X314758Y316785D01*
X314763Y316744D01*
X314806Y316634D01*
X314843Y316521D01*
X314865Y316486D01*
X314880Y316449D01*
X314949Y316353D01*
X315013Y316252D01*
X315043Y316224D01*
X315066Y316191D01*
X315158Y316115D01*
X315245Y316034D01*
X315280Y316014D01*
X315311Y315989D01*
X315419Y315938D01*
X315523Y315880D01*
X315563Y315870D01*
X315599Y315853D01*
X315716Y315831D01*
X315831Y315801D01*
X315891Y315797D01*
X315911Y315793D01*
X315932Y315795D01*
X315992Y315791D01*
X319984Y315791D01*
X320839Y314937D01*
X320917Y314876D01*
X320989Y314808D01*
X321042Y314779D01*
X321090Y314742D01*
X321181Y314702D01*
X321267Y314654D01*
X321326Y314639D01*
X321382Y314615D01*
X321480Y314600D01*
X321575Y314575D01*
X321675Y314569D01*
X321696Y314565D01*
X321708Y314567D01*
X321736Y314565D01*
X353154Y314565D01*
X353174Y314546D01*
X353227Y314517D01*
X353275Y314480D01*
X353366Y314440D01*
X353453Y314392D01*
X353511Y314377D01*
X353567Y314353D01*
X353665Y314338D01*
X353761Y314313D01*
X353861Y314307D01*
X353881Y314303D01*
X353893Y314305D01*
X353921Y314303D01*
X397940Y314303D01*
X398058Y314318D01*
X398177Y314325D01*
X398215Y314338D01*
X398256Y314343D01*
X398366Y314386D01*
X398479Y314423D01*
X398514Y314445D01*
X398551Y314460D01*
X398647Y314529D01*
X398748Y314593D01*
X398776Y314623D01*
X398809Y314646D01*
X398885Y314738D01*
X398966Y314825D01*
X398986Y314860D01*
X399011Y314891D01*
X399062Y314999D01*
X399120Y315103D01*
X399130Y315143D01*
X399147Y315179D01*
X399169Y315296D01*
X399199Y315411D01*
X399203Y315471D01*
X399207Y315491D01*
X399205Y315512D01*
X399209Y315572D01*
X399209Y315984D01*
X402016Y318791D01*
X405984Y318791D01*
X408791Y315984D01*
X408791Y311572D01*
X408806Y311454D01*
X408813Y311335D01*
X408826Y311297D01*
X408831Y311256D01*
X408874Y311146D01*
X408911Y311033D01*
X408933Y310998D01*
X408948Y310961D01*
X409017Y310865D01*
X409081Y310764D01*
X409111Y310736D01*
X409134Y310703D01*
X409226Y310627D01*
X409313Y310546D01*
X409348Y310526D01*
X409379Y310501D01*
X409487Y310450D01*
X409591Y310392D01*
X409631Y310382D01*
X409667Y310365D01*
X409784Y310343D01*
X409899Y310313D01*
X409959Y310309D01*
X409979Y310305D01*
X410000Y310307D01*
X410060Y310303D01*
X459002Y310303D01*
X459100Y310315D01*
X459199Y310318D01*
X459257Y310335D01*
X459317Y310343D01*
X459409Y310379D01*
X459505Y310407D01*
X459557Y310437D01*
X459613Y310460D01*
X459693Y310518D01*
X459779Y310568D01*
X459854Y310634D01*
X459870Y310646D01*
X459878Y310656D01*
X459899Y310674D01*
X461016Y311791D01*
X464984Y311791D01*
X467791Y308984D01*
X467791Y305016D01*
X464984Y302209D01*
X461016Y302209D01*
X459899Y303326D01*
X459821Y303386D01*
X459749Y303454D01*
X459696Y303483D01*
X459648Y303520D01*
X459557Y303560D01*
X459470Y303608D01*
X459412Y303623D01*
X459356Y303647D01*
X459258Y303662D01*
X459163Y303687D01*
X459063Y303693D01*
X459042Y303697D01*
X459030Y303695D01*
X459002Y303697D01*
X353998Y303697D01*
X353900Y303685D01*
X353801Y303682D01*
X353743Y303665D01*
X353683Y303657D01*
X353591Y303621D01*
X353495Y303593D01*
X353443Y303563D01*
X353387Y303540D01*
X353307Y303482D01*
X353221Y303432D01*
X353146Y303366D01*
X353130Y303354D01*
X353122Y303344D01*
X353101Y303326D01*
X351984Y302209D01*
X348016Y302209D01*
X345209Y305016D01*
X345209Y306690D01*
X345194Y306808D01*
X345187Y306927D01*
X345174Y306965D01*
X345169Y307006D01*
X345126Y307116D01*
X345089Y307229D01*
X345067Y307264D01*
X345052Y307301D01*
X344983Y307397D01*
X344919Y307498D01*
X344889Y307526D01*
X344866Y307559D01*
X344774Y307635D01*
X344687Y307716D01*
X344652Y307736D01*
X344621Y307761D01*
X344513Y307812D01*
X344409Y307870D01*
X344369Y307880D01*
X344333Y307897D01*
X344216Y307919D01*
X344101Y307949D01*
X344041Y307953D01*
X344021Y307957D01*
X344000Y307955D01*
X343940Y307959D01*
X322260Y307959D01*
X322162Y307947D01*
X322063Y307944D01*
X322005Y307927D01*
X321945Y307919D01*
X321853Y307883D01*
X321757Y307855D01*
X321705Y307825D01*
X321649Y307802D01*
X321569Y307744D01*
X321483Y307694D01*
X321408Y307628D01*
X321392Y307616D01*
X321384Y307606D01*
X321363Y307588D01*
X319984Y306209D01*
X316016Y306209D01*
X313483Y308741D01*
X313389Y308814D01*
X313300Y308893D01*
X313264Y308912D01*
X313232Y308936D01*
X313123Y308984D01*
X313017Y309038D01*
X312978Y309047D01*
X312940Y309063D01*
X312822Y309081D01*
X312707Y309107D01*
X312666Y309106D01*
X312626Y309113D01*
X312508Y309101D01*
X312389Y309098D01*
X312350Y309087D01*
X312310Y309083D01*
X312197Y309042D01*
X312083Y309009D01*
X312048Y308989D01*
X312010Y308975D01*
X311912Y308908D01*
X311809Y308848D01*
X311764Y308808D01*
X311747Y308797D01*
X311734Y308781D01*
X311688Y308741D01*
X309987Y307040D01*
X305973Y305377D01*
X301627Y305377D01*
X297613Y307040D01*
X294540Y310113D01*
X292877Y314127D01*
X292877Y318473D01*
X294540Y322487D01*
X294583Y322530D01*
X294669Y322640D01*
X294757Y322747D01*
X294766Y322766D01*
X294778Y322782D01*
X294834Y322909D01*
X294893Y323035D01*
X294897Y323055D01*
X294905Y323074D01*
X294927Y323211D01*
X294953Y323348D01*
X294951Y323368D01*
X294955Y323388D01*
X294942Y323526D01*
X294933Y323665D01*
X294927Y323684D01*
X294925Y323704D01*
X294878Y323835D01*
X294835Y323967D01*
X294824Y323985D01*
X294817Y324004D01*
X294739Y324118D01*
X294665Y324236D01*
X294650Y324250D01*
X294639Y324267D01*
X294535Y324358D01*
X294433Y324454D01*
X294415Y324464D01*
X294400Y324477D01*
X294276Y324540D01*
X294155Y324608D01*
X294135Y324613D01*
X294117Y324622D01*
X293981Y324652D01*
X293847Y324687D01*
X293819Y324689D01*
X293807Y324692D01*
X293786Y324691D01*
X293686Y324697D01*
X273914Y324697D01*
X273776Y324680D01*
X273638Y324667D01*
X273619Y324660D01*
X273598Y324657D01*
X273470Y324606D01*
X273338Y324559D01*
X273321Y324548D01*
X273303Y324540D01*
X273191Y324459D01*
X273075Y324381D01*
X273062Y324365D01*
X273045Y324354D01*
X272957Y324246D01*
X272865Y324142D01*
X272856Y324124D01*
X272843Y324109D01*
X272783Y323983D01*
X272720Y323859D01*
X272716Y323839D01*
X272707Y323821D01*
X272681Y323684D01*
X272651Y323549D01*
X272651Y323528D01*
X272647Y323509D01*
X272656Y323370D01*
X272660Y323231D01*
X272666Y323211D01*
X272667Y323191D01*
X272710Y323059D01*
X272749Y322925D01*
X272759Y322908D01*
X272765Y322889D01*
X272840Y322771D01*
X272910Y322651D01*
X272929Y322630D01*
X272935Y322620D01*
X272950Y322606D01*
X273017Y322530D01*
X273060Y322487D01*
X274723Y318473D01*
X274723Y314127D01*
X273060Y310113D01*
X272417Y309469D01*
X272332Y309360D01*
X272243Y309253D01*
X272234Y309234D01*
X272222Y309218D01*
X272166Y309090D01*
X272107Y308965D01*
X272103Y308945D01*
X272095Y308926D01*
X272073Y308788D01*
X272047Y308652D01*
X272049Y308632D01*
X272045Y308612D01*
X272058Y308473D01*
X272067Y308335D01*
X272073Y308316D01*
X272075Y308296D01*
X272122Y308165D01*
X272165Y308033D01*
X272176Y308015D01*
X272183Y307996D01*
X272261Y307882D01*
X272335Y307764D01*
X272350Y307750D01*
X272361Y307733D01*
X272465Y307641D01*
X272567Y307546D01*
X272585Y307536D01*
X272600Y307523D01*
X272724Y307460D01*
X272845Y307392D01*
X272865Y307387D01*
X272883Y307378D01*
X273019Y307348D01*
X273153Y307313D01*
X273181Y307311D01*
X273193Y307308D01*
X273214Y307309D01*
X273314Y307303D01*
X277002Y307303D01*
X277100Y307315D01*
X277199Y307318D01*
X277257Y307335D01*
X277317Y307343D01*
X277409Y307379D01*
X277505Y307407D01*
X277557Y307437D01*
X277613Y307460D01*
X277693Y307518D01*
X277779Y307568D01*
X277854Y307634D01*
X277870Y307646D01*
X277878Y307656D01*
X277899Y307674D01*
X281016Y310791D01*
X284984Y310791D01*
X287791Y307984D01*
X287791Y304016D01*
X284984Y301209D01*
X283406Y301209D01*
X283308Y301197D01*
X283209Y301194D01*
X283150Y301177D01*
X283090Y301169D01*
X282998Y301133D01*
X282903Y301105D01*
X282851Y301075D01*
X282795Y301052D01*
X282715Y300994D01*
X282629Y300944D01*
X282554Y300878D01*
X282537Y300866D01*
X282529Y300856D01*
X282508Y300838D01*
X282368Y300697D01*
X238894Y300697D01*
X238796Y300685D01*
X238697Y300682D01*
X238638Y300665D01*
X238578Y300657D01*
X238486Y300621D01*
X238391Y300593D01*
X238339Y300563D01*
X238283Y300540D01*
X238203Y300482D01*
X238117Y300432D01*
X238042Y300366D01*
X238025Y300354D01*
X238017Y300344D01*
X237996Y300326D01*
X230140Y292469D01*
X230055Y292360D01*
X229966Y292253D01*
X229958Y292234D01*
X229945Y292218D01*
X229890Y292090D01*
X229831Y291965D01*
X229827Y291945D01*
X229819Y291926D01*
X229797Y291788D01*
X229771Y291652D01*
X229772Y291632D01*
X229769Y291612D01*
X229782Y291473D01*
X229791Y291335D01*
X229797Y291316D01*
X229799Y291296D01*
X229846Y291164D01*
X229889Y291033D01*
X229900Y291015D01*
X229907Y290996D01*
X229985Y290881D01*
X230059Y290764D01*
X230074Y290750D01*
X230085Y290733D01*
X230189Y290641D01*
X230291Y290546D01*
X230308Y290536D01*
X230324Y290523D01*
X230448Y290459D01*
X230569Y290392D01*
X230589Y290387D01*
X230607Y290378D01*
X230743Y290348D01*
X230877Y290313D01*
X230905Y290311D01*
X230917Y290308D01*
X230938Y290309D01*
X231038Y290303D01*
X306002Y290303D01*
X306100Y290315D01*
X306199Y290318D01*
X306257Y290335D01*
X306317Y290343D01*
X306409Y290379D01*
X306505Y290407D01*
X306557Y290437D01*
X306613Y290460D01*
X306693Y290518D01*
X306779Y290568D01*
X306854Y290634D01*
X306870Y290646D01*
X306878Y290656D01*
X306899Y290674D01*
X309016Y292791D01*
X312984Y292791D01*
X315791Y289984D01*
X315791Y286016D01*
X312984Y283209D01*
X309016Y283209D01*
X308899Y283326D01*
X308821Y283386D01*
X308749Y283454D01*
X308696Y283483D01*
X308648Y283520D01*
X308557Y283560D01*
X308470Y283608D01*
X308412Y283623D01*
X308356Y283647D01*
X308258Y283662D01*
X308163Y283687D01*
X308063Y283693D01*
X308042Y283697D01*
X308030Y283695D01*
X308002Y283697D01*
X226894Y283697D01*
X226796Y283685D01*
X226697Y283682D01*
X226638Y283665D01*
X226578Y283657D01*
X226486Y283621D01*
X226391Y283593D01*
X226339Y283563D01*
X226283Y283540D01*
X226203Y283482D01*
X226117Y283432D01*
X226042Y283366D01*
X226025Y283354D01*
X226017Y283344D01*
X225996Y283326D01*
X203674Y261004D01*
X203614Y260925D01*
X203546Y260853D01*
X203517Y260800D01*
X203480Y260752D01*
X203440Y260661D01*
X203392Y260575D01*
X203377Y260516D01*
X203353Y260461D01*
X203338Y260363D01*
X203313Y260267D01*
X203307Y260167D01*
X203303Y260146D01*
X203305Y260134D01*
X203303Y260106D01*
X203303Y201894D01*
X203315Y201796D01*
X203318Y201697D01*
X203335Y201638D01*
X203343Y201578D01*
X203379Y201486D01*
X203407Y201391D01*
X203437Y201339D01*
X203460Y201283D01*
X203518Y201203D01*
X203568Y201117D01*
X203634Y201042D01*
X203646Y201025D01*
X203656Y201017D01*
X203674Y200996D01*
X220303Y184368D01*
X220303Y140142D01*
X220320Y140004D01*
X220333Y139866D01*
X220340Y139847D01*
X220343Y139827D01*
X220394Y139697D01*
X220441Y139566D01*
X220452Y139550D01*
X220460Y139531D01*
X220541Y139419D01*
X220619Y139303D01*
X220635Y139290D01*
X220646Y139274D01*
X220754Y139185D01*
X220858Y139093D01*
X220876Y139084D01*
X220891Y139071D01*
X221017Y139011D01*
X221141Y138948D01*
X221161Y138944D01*
X221179Y138935D01*
X221316Y138909D01*
X221451Y138879D01*
X221472Y138879D01*
X221491Y138875D01*
X221630Y138884D01*
X221769Y138888D01*
X221789Y138894D01*
X221809Y138895D01*
X221941Y138938D01*
X222075Y138977D01*
X222092Y138987D01*
X222111Y138993D01*
X222229Y139067D01*
X222349Y139138D01*
X222370Y139157D01*
X222380Y139163D01*
X222394Y139178D01*
X222469Y139245D01*
X223016Y139791D01*
X224594Y139791D01*
X224692Y139803D01*
X224791Y139806D01*
X224850Y139823D01*
X224910Y139831D01*
X225002Y139867D01*
X225097Y139895D01*
X225149Y139925D01*
X225205Y139948D01*
X225285Y140006D01*
X225371Y140056D01*
X225446Y140122D01*
X225463Y140134D01*
X225471Y140144D01*
X225492Y140162D01*
X234372Y149043D01*
X234457Y149152D01*
X234546Y149259D01*
X234554Y149278D01*
X234567Y149294D01*
X234622Y149422D01*
X234681Y149547D01*
X234685Y149567D01*
X234693Y149586D01*
X234715Y149724D01*
X234741Y149860D01*
X234740Y149880D01*
X234743Y149900D01*
X234730Y150039D01*
X234721Y150177D01*
X234715Y150196D01*
X234713Y150216D01*
X234666Y150348D01*
X234623Y150479D01*
X234612Y150497D01*
X234605Y150516D01*
X234527Y150631D01*
X234453Y150748D01*
X234438Y150762D01*
X234427Y150779D01*
X234323Y150871D01*
X234221Y150966D01*
X234204Y150976D01*
X234188Y150989D01*
X234064Y151053D01*
X233943Y151120D01*
X233923Y151125D01*
X233905Y151134D01*
X233769Y151164D01*
X233635Y151199D01*
X233607Y151201D01*
X233595Y151204D01*
X233574Y151203D01*
X233474Y151209D01*
X233016Y151209D01*
X230209Y154016D01*
X230209Y157984D01*
X231326Y159101D01*
X231386Y159179D01*
X231454Y159251D01*
X231483Y159304D01*
X231520Y159352D01*
X231560Y159443D01*
X231608Y159530D01*
X231623Y159588D01*
X231647Y159644D01*
X231662Y159742D01*
X231687Y159837D01*
X231693Y159937D01*
X231697Y159958D01*
X231695Y159970D01*
X231697Y159998D01*
X231697Y191106D01*
X231685Y191204D01*
X231682Y191303D01*
X231665Y191362D01*
X231657Y191422D01*
X231621Y191514D01*
X231593Y191609D01*
X231563Y191661D01*
X231540Y191717D01*
X231482Y191797D01*
X231432Y191883D01*
X231366Y191958D01*
X231354Y191975D01*
X231344Y191983D01*
X231326Y192004D01*
X225492Y197838D01*
X225413Y197898D01*
X225341Y197966D01*
X225288Y197995D01*
X225240Y198032D01*
X225149Y198072D01*
X225063Y198120D01*
X225004Y198135D01*
X224949Y198159D01*
X224851Y198174D01*
X224755Y198199D01*
X224655Y198205D01*
X224634Y198209D01*
X224622Y198207D01*
X224594Y198209D01*
X223016Y198209D01*
X220209Y201016D01*
X220209Y205428D01*
X220194Y205546D01*
X220187Y205665D01*
X220174Y205703D01*
X220169Y205744D01*
X220126Y205854D01*
X220089Y205967D01*
X220067Y206002D01*
X220052Y206039D01*
X219983Y206135D01*
X219919Y206236D01*
X219889Y206264D01*
X219866Y206297D01*
X219774Y206373D01*
X219687Y206454D01*
X219652Y206474D01*
X219621Y206499D01*
X219513Y206550D01*
X219409Y206608D01*
X219369Y206618D01*
X219333Y206635D01*
X219216Y206657D01*
X219101Y206687D01*
X219041Y206691D01*
X219021Y206695D01*
X219000Y206693D01*
X218940Y206697D01*
X215998Y206697D01*
X215900Y206685D01*
X215801Y206682D01*
X215743Y206665D01*
X215683Y206657D01*
X215591Y206621D01*
X215495Y206593D01*
X215443Y206563D01*
X215387Y206540D01*
X215307Y206482D01*
X215221Y206432D01*
X215146Y206366D01*
X215130Y206354D01*
X215122Y206344D01*
X215101Y206326D01*
X213984Y205209D01*
X210016Y205209D01*
X207209Y208016D01*
X207209Y211984D01*
X210016Y214791D01*
X213984Y214791D01*
X215101Y213674D01*
X215179Y213614D01*
X215251Y213546D01*
X215304Y213517D01*
X215352Y213480D01*
X215443Y213440D01*
X215530Y213392D01*
X215588Y213377D01*
X215644Y213353D01*
X215742Y213338D01*
X215837Y213313D01*
X215937Y213307D01*
X215958Y213303D01*
X215970Y213305D01*
X215998Y213303D01*
X269079Y213303D01*
X269177Y213315D01*
X269276Y213318D01*
X269334Y213335D01*
X269394Y213343D01*
X269486Y213379D01*
X269581Y213407D01*
X269634Y213437D01*
X269690Y213460D01*
X269770Y213518D01*
X269855Y213568D01*
X269931Y213634D01*
X269947Y213646D01*
X269955Y213656D01*
X269976Y213674D01*
X276832Y220531D01*
X276918Y220640D01*
X277006Y220747D01*
X277015Y220766D01*
X277027Y220782D01*
X277083Y220910D01*
X277142Y221035D01*
X277146Y221055D01*
X277154Y221074D01*
X277176Y221212D01*
X277202Y221348D01*
X277200Y221368D01*
X277203Y221388D01*
X277190Y221527D01*
X277182Y221665D01*
X277176Y221684D01*
X277174Y221704D01*
X277126Y221836D01*
X277084Y221967D01*
X277073Y221985D01*
X277066Y222004D01*
X276988Y222119D01*
X276914Y222236D01*
X276899Y222250D01*
X276887Y222267D01*
X276783Y222359D01*
X276682Y222454D01*
X276664Y222464D01*
X276649Y222477D01*
X276525Y222541D01*
X276403Y222608D01*
X276384Y222613D01*
X276366Y222622D01*
X276230Y222652D01*
X276096Y222687D01*
X276067Y222689D01*
X276055Y222692D01*
X276035Y222691D01*
X275935Y222697D01*
X217998Y222697D01*
X217900Y222685D01*
X217801Y222682D01*
X217743Y222665D01*
X217683Y222657D01*
X217591Y222621D01*
X217495Y222593D01*
X217443Y222563D01*
X217387Y222540D01*
X217307Y222482D01*
X217221Y222432D01*
X217146Y222366D01*
X217130Y222354D01*
X217122Y222344D01*
X217101Y222326D01*
X215984Y221209D01*
X212016Y221209D01*
X209209Y224016D01*
X209209Y227984D01*
X212016Y230791D01*
X215984Y230791D01*
X217101Y229674D01*
X217179Y229614D01*
X217251Y229546D01*
X217304Y229517D01*
X217352Y229480D01*
X217443Y229440D01*
X217530Y229392D01*
X217588Y229377D01*
X217644Y229353D01*
X217742Y229338D01*
X217837Y229313D01*
X217937Y229307D01*
X217958Y229303D01*
X217970Y229305D01*
X217998Y229303D01*
X225940Y229303D01*
X226058Y229318D01*
X226177Y229325D01*
X226215Y229338D01*
X226256Y229343D01*
X226366Y229386D01*
X226479Y229423D01*
X226514Y229445D01*
X226551Y229460D01*
X226647Y229529D01*
X226748Y229593D01*
X226776Y229623D01*
X226809Y229646D01*
X226885Y229738D01*
X226966Y229825D01*
X226986Y229860D01*
X227011Y229891D01*
X227062Y229999D01*
X227120Y230103D01*
X227130Y230143D01*
X227147Y230179D01*
X227169Y230296D01*
X227199Y230411D01*
X227203Y230471D01*
X227207Y230491D01*
X227205Y230512D01*
X227209Y230572D01*
X227209Y234984D01*
X230016Y237791D01*
X233984Y237791D01*
X235101Y236674D01*
X235179Y236614D01*
X235251Y236546D01*
X235304Y236517D01*
X235352Y236480D01*
X235443Y236440D01*
X235530Y236392D01*
X235588Y236377D01*
X235644Y236353D01*
X235742Y236338D01*
X235837Y236313D01*
X235937Y236307D01*
X235958Y236303D01*
X235970Y236305D01*
X235998Y236303D01*
X317940Y236303D01*
X318058Y236318D01*
X318177Y236325D01*
X318215Y236338D01*
X318256Y236343D01*
X318366Y236386D01*
X318479Y236423D01*
X318514Y236445D01*
X318551Y236460D01*
X318647Y236529D01*
X318748Y236593D01*
X318776Y236623D01*
X318809Y236646D01*
X318885Y236738D01*
X318966Y236825D01*
X318986Y236860D01*
X319011Y236891D01*
X319062Y236999D01*
X319120Y237103D01*
X319130Y237143D01*
X319147Y237179D01*
X319169Y237296D01*
X319199Y237411D01*
X319203Y237471D01*
X319207Y237491D01*
X319205Y237512D01*
X319209Y237572D01*
X319209Y239594D01*
X319197Y239692D01*
X319194Y239791D01*
X319177Y239850D01*
X319169Y239910D01*
X319133Y240002D01*
X319105Y240097D01*
X319075Y240149D01*
X319052Y240205D01*
X318994Y240285D01*
X318944Y240371D01*
X318878Y240446D01*
X318866Y240463D01*
X318856Y240471D01*
X318838Y240492D01*
X314004Y245326D01*
X313925Y245386D01*
X313853Y245454D01*
X313800Y245483D01*
X313752Y245520D01*
X313661Y245560D01*
X313575Y245608D01*
X313516Y245623D01*
X313461Y245647D01*
X313363Y245662D01*
X313267Y245687D01*
X313167Y245693D01*
X313146Y245697D01*
X313134Y245695D01*
X313106Y245697D01*
X291998Y245697D01*
X291900Y245685D01*
X291801Y245682D01*
X291743Y245665D01*
X291683Y245657D01*
X291591Y245621D01*
X291495Y245593D01*
X291443Y245563D01*
X291387Y245540D01*
X291307Y245482D01*
X291221Y245432D01*
X291146Y245366D01*
X291130Y245354D01*
X291122Y245344D01*
X291101Y245326D01*
X289984Y244209D01*
X286016Y244209D01*
X283209Y247016D01*
X283209Y250984D01*
X286016Y253791D01*
X289984Y253791D01*
X291101Y252674D01*
X291179Y252614D01*
X291251Y252546D01*
X291304Y252517D01*
X291352Y252480D01*
X291443Y252440D01*
X291530Y252392D01*
X291588Y252377D01*
X291644Y252353D01*
X291742Y252338D01*
X291837Y252313D01*
X291937Y252307D01*
X291958Y252303D01*
X291970Y252305D01*
X291998Y252303D01*
X316368Y252303D01*
X323508Y245162D01*
X323587Y245102D01*
X323659Y245034D01*
X323712Y245005D01*
X323760Y244968D01*
X323851Y244928D01*
X323937Y244880D01*
X323996Y244865D01*
X324051Y244841D01*
X324149Y244826D01*
X324245Y244801D01*
X324345Y244795D01*
X324366Y244791D01*
X324378Y244793D01*
X324406Y244791D01*
X325984Y244791D01*
X327655Y243120D01*
X327749Y243047D01*
X327838Y242969D01*
X327874Y242950D01*
X327906Y242925D01*
X328015Y242878D01*
X328121Y242824D01*
X328161Y242815D01*
X328198Y242799D01*
X328316Y242780D01*
X328432Y242754D01*
X328472Y242756D01*
X328512Y242749D01*
X328631Y242760D01*
X328749Y242764D01*
X328788Y242775D01*
X328829Y242779D01*
X328941Y242819D01*
X329055Y242852D01*
X329090Y242873D01*
X329128Y242887D01*
X329226Y242954D01*
X329329Y243014D01*
X329374Y243054D01*
X329391Y243065D01*
X329404Y243081D01*
X329450Y243120D01*
X330326Y243996D01*
X330386Y244074D01*
X330454Y244147D01*
X330483Y244200D01*
X330520Y244248D01*
X330560Y244338D01*
X330608Y244425D01*
X330623Y244484D01*
X330647Y244539D01*
X330662Y244637D01*
X330687Y244733D01*
X330693Y244833D01*
X330697Y244854D01*
X330695Y244866D01*
X330697Y244894D01*
X330697Y249002D01*
X330685Y249100D01*
X330682Y249199D01*
X330665Y249257D01*
X330657Y249317D01*
X330621Y249409D01*
X330593Y249505D01*
X330563Y249557D01*
X330540Y249613D01*
X330482Y249693D01*
X330432Y249779D01*
X330366Y249854D01*
X330354Y249870D01*
X330344Y249878D01*
X330326Y249899D01*
X329209Y251016D01*
X329209Y254984D01*
X332016Y257791D01*
X335984Y257791D01*
X338791Y254984D01*
X338791Y251016D01*
X337674Y249899D01*
X337614Y249821D01*
X337546Y249749D01*
X337517Y249696D01*
X337480Y249648D01*
X337440Y249557D01*
X337392Y249470D01*
X337377Y249412D01*
X337353Y249356D01*
X337338Y249258D01*
X337313Y249163D01*
X337307Y249063D01*
X337303Y249042D01*
X337305Y249030D01*
X337303Y249002D01*
X337303Y245060D01*
X337318Y244942D01*
X337325Y244823D01*
X337338Y244785D01*
X337343Y244744D01*
X337386Y244634D01*
X337423Y244521D01*
X337445Y244486D01*
X337460Y244449D01*
X337529Y244353D01*
X337593Y244252D01*
X337623Y244224D01*
X337646Y244191D01*
X337738Y244115D01*
X337825Y244034D01*
X337860Y244014D01*
X337891Y243989D01*
X337999Y243938D01*
X338103Y243880D01*
X338143Y243870D01*
X338179Y243853D01*
X338296Y243831D01*
X338411Y243801D01*
X338471Y243797D01*
X338491Y243793D01*
X338512Y243795D01*
X338572Y243791D01*
X340594Y243791D01*
X340692Y243803D01*
X340791Y243806D01*
X340850Y243823D01*
X340910Y243831D01*
X341002Y243867D01*
X341097Y243895D01*
X341149Y243925D01*
X341205Y243948D01*
X341285Y244006D01*
X341371Y244056D01*
X341446Y244122D01*
X341463Y244134D01*
X341471Y244144D01*
X341492Y244162D01*
X353632Y256303D01*
X358858Y256303D01*
X358995Y256320D01*
X359134Y256333D01*
X359153Y256340D01*
X359173Y256343D01*
X359302Y256394D01*
X359434Y256441D01*
X359450Y256452D01*
X359469Y256460D01*
X359582Y256541D01*
X359697Y256619D01*
X359710Y256635D01*
X359726Y256646D01*
X359815Y256754D01*
X359907Y256858D01*
X359916Y256876D01*
X359929Y256891D01*
X359989Y257017D01*
X360052Y257141D01*
X360056Y257161D01*
X360065Y257179D01*
X360091Y257315D01*
X360121Y257451D01*
X360121Y257472D01*
X360125Y257491D01*
X360116Y257630D01*
X360112Y257769D01*
X360106Y257789D01*
X360105Y257809D01*
X360062Y257941D01*
X360023Y258075D01*
X360013Y258092D01*
X360007Y258111D01*
X359932Y258229D01*
X359862Y258349D01*
X359843Y258370D01*
X359837Y258380D01*
X359822Y258394D01*
X359755Y258469D01*
X357209Y261016D01*
X357209Y265428D01*
X357194Y265546D01*
X357187Y265665D01*
X357174Y265703D01*
X357169Y265744D01*
X357126Y265854D01*
X357089Y265967D01*
X357067Y266002D01*
X357052Y266039D01*
X356983Y266135D01*
X356919Y266236D01*
X356889Y266264D01*
X356866Y266297D01*
X356774Y266373D01*
X356687Y266454D01*
X356652Y266474D01*
X356621Y266499D01*
X356513Y266550D01*
X356409Y266608D01*
X356369Y266618D01*
X356333Y266635D01*
X356216Y266657D01*
X356101Y266687D01*
X356041Y266691D01*
X356021Y266695D01*
X356000Y266693D01*
X355940Y266697D01*
X337998Y266697D01*
X337900Y266685D01*
X337801Y266682D01*
X337743Y266665D01*
X337683Y266657D01*
X337591Y266621D01*
X337495Y266593D01*
X337443Y266563D01*
X337387Y266540D01*
X337307Y266482D01*
X337221Y266432D01*
X337146Y266366D01*
X337130Y266354D01*
X337122Y266344D01*
X337101Y266326D01*
X335984Y265209D01*
X332016Y265209D01*
X329209Y268016D01*
X329209Y271984D01*
X332016Y274791D01*
X335984Y274791D01*
X337101Y273674D01*
X337179Y273614D01*
X337251Y273546D01*
X337304Y273517D01*
X337352Y273480D01*
X337443Y273440D01*
X337530Y273392D01*
X337588Y273377D01*
X337644Y273353D01*
X337742Y273338D01*
X337837Y273313D01*
X337937Y273307D01*
X337958Y273303D01*
X337970Y273305D01*
X337998Y273303D01*
X465002Y273303D01*
X465100Y273315D01*
X465199Y273318D01*
X465257Y273335D01*
X465317Y273343D01*
X465409Y273379D01*
X465505Y273407D01*
X465557Y273437D01*
X465613Y273460D01*
X465693Y273518D01*
X465779Y273568D01*
X465854Y273634D01*
X465870Y273646D01*
X465878Y273656D01*
X465899Y273674D01*
X468016Y275791D01*
X471984Y275791D01*
X474791Y272984D01*
X474791Y269016D01*
X474245Y268469D01*
X474160Y268360D01*
X474071Y268253D01*
X474062Y268234D01*
X474050Y268218D01*
X473994Y268090D01*
X473935Y267965D01*
X473931Y267945D01*
X473923Y267926D01*
X473901Y267788D01*
X473875Y267652D01*
X473877Y267632D01*
X473873Y267612D01*
X473887Y267473D01*
X473895Y267335D01*
X473901Y267316D01*
X473903Y267296D01*
X473950Y267164D01*
X473993Y267033D01*
X474004Y267015D01*
X474011Y266996D01*
X474089Y266881D01*
X474163Y266764D01*
X474178Y266750D01*
X474189Y266733D01*
X474293Y266641D01*
X474395Y266546D01*
X474413Y266536D01*
X474428Y266523D01*
X474552Y266460D01*
X474673Y266392D01*
X474693Y266387D01*
X474711Y266378D01*
X474847Y266348D01*
X474981Y266313D01*
X475009Y266311D01*
X475021Y266308D01*
X475042Y266309D01*
X475142Y266303D01*
X492428Y266303D01*
X492546Y266318D01*
X492665Y266325D01*
X492703Y266338D01*
X492744Y266343D01*
X492854Y266386D01*
X492967Y266423D01*
X493002Y266445D01*
X493039Y266460D01*
X493135Y266529D01*
X493236Y266593D01*
X493264Y266623D01*
X493297Y266646D01*
X493373Y266738D01*
X493454Y266825D01*
X493474Y266860D01*
X493499Y266891D01*
X493550Y266999D01*
X493608Y267103D01*
X493618Y267143D01*
X493635Y267179D01*
X493657Y267296D01*
X493687Y267411D01*
X493691Y267471D01*
X493695Y267491D01*
X493693Y267512D01*
X493697Y267572D01*
X493697Y277428D01*
X493682Y277546D01*
X493675Y277665D01*
X493662Y277703D01*
X493657Y277744D01*
X493614Y277854D01*
X493577Y277967D01*
X493555Y278002D01*
X493540Y278039D01*
X493471Y278135D01*
X493407Y278236D01*
X493377Y278264D01*
X493354Y278297D01*
X493262Y278373D01*
X493175Y278454D01*
X493140Y278474D01*
X493109Y278499D01*
X493001Y278550D01*
X492897Y278608D01*
X492857Y278618D01*
X492821Y278635D01*
X492704Y278657D01*
X492589Y278687D01*
X492529Y278691D01*
X492509Y278695D01*
X492488Y278693D01*
X492428Y278697D01*
X361998Y278697D01*
X361900Y278685D01*
X361801Y278682D01*
X361743Y278665D01*
X361683Y278657D01*
X361591Y278621D01*
X361495Y278593D01*
X361443Y278563D01*
X361387Y278540D01*
X361307Y278482D01*
X361221Y278432D01*
X361146Y278366D01*
X361130Y278354D01*
X361122Y278344D01*
X361101Y278326D01*
X359984Y277209D01*
X356016Y277209D01*
X353209Y280016D01*
X353209Y283984D01*
X356016Y286791D01*
X359984Y286791D01*
X361101Y285674D01*
X361179Y285614D01*
X361251Y285546D01*
X361304Y285517D01*
X361352Y285480D01*
X361443Y285440D01*
X361530Y285392D01*
X361588Y285377D01*
X361644Y285353D01*
X361742Y285338D01*
X361837Y285313D01*
X361937Y285307D01*
X361958Y285303D01*
X361970Y285305D01*
X361998Y285303D01*
X497368Y285303D01*
X500303Y282368D01*
X500303Y91275D01*
X500311Y91206D01*
X500310Y91136D01*
X500331Y91049D01*
X500343Y90959D01*
X500368Y90894D01*
X500385Y90827D01*
X500427Y90747D01*
X500460Y90664D01*
X500501Y90607D01*
X500533Y90545D01*
X500594Y90479D01*
X500646Y90406D01*
X500700Y90362D01*
X500747Y90310D01*
X500822Y90261D01*
X500891Y90204D01*
X500955Y90174D01*
X501013Y90135D01*
X501098Y90106D01*
X501179Y90068D01*
X501248Y90055D01*
X501314Y90032D01*
X501403Y90025D01*
X501491Y90008D01*
X501561Y90013D01*
X501631Y90007D01*
X501719Y90022D01*
X501809Y90028D01*
X501875Y90049D01*
X501944Y90061D01*
X502026Y90098D01*
X502111Y90126D01*
X502170Y90163D01*
X502234Y90192D01*
X502304Y90248D01*
X502380Y90296D01*
X502428Y90347D01*
X502482Y90391D01*
X502537Y90462D01*
X502598Y90528D01*
X502632Y90589D01*
X502674Y90645D01*
X502745Y90789D01*
X502930Y91236D01*
X507864Y96170D01*
X514311Y98841D01*
X521289Y98841D01*
X527736Y96170D01*
X532670Y91236D01*
X535341Y84789D01*
X535341Y77811D01*
X532670Y71364D01*
X527736Y66430D01*
X521289Y63759D01*
X514311Y63759D01*
X507864Y66430D01*
X502930Y71364D01*
X502745Y71811D01*
X502710Y71871D01*
X502684Y71936D01*
X502632Y72009D01*
X502587Y72087D01*
X502539Y72137D01*
X502498Y72194D01*
X502428Y72251D01*
X502366Y72315D01*
X502306Y72352D01*
X502253Y72396D01*
X502171Y72435D01*
X502095Y72482D01*
X502028Y72502D01*
X501965Y72532D01*
X501877Y72549D01*
X501791Y72575D01*
X501721Y72579D01*
X501652Y72592D01*
X501563Y72586D01*
X501473Y72591D01*
X501405Y72576D01*
X501335Y72572D01*
X501250Y72544D01*
X501162Y72526D01*
X501099Y72496D01*
X501033Y72474D01*
X500957Y72426D01*
X500876Y72386D01*
X500823Y72341D01*
X500764Y72304D01*
X500702Y72238D01*
X500634Y72180D01*
X500594Y72123D01*
X500546Y72072D01*
X500503Y71994D01*
X500451Y71920D01*
X500426Y71855D01*
X500392Y71794D01*
X500370Y71707D01*
X500338Y71623D01*
X500330Y71553D01*
X500313Y71486D01*
X500303Y71325D01*
X500303Y67632D01*
X498368Y65697D01*
X412060Y65697D01*
X411942Y65682D01*
X411823Y65675D01*
X411785Y65662D01*
X411744Y65657D01*
X411634Y65614D01*
X411521Y65577D01*
X411486Y65555D01*
X411449Y65540D01*
X411353Y65471D01*
X411252Y65407D01*
X411224Y65377D01*
X411191Y65354D01*
X411115Y65262D01*
X411034Y65175D01*
X411014Y65140D01*
X410989Y65109D01*
X410938Y65001D01*
X410880Y64897D01*
X410870Y64857D01*
X410853Y64821D01*
X410831Y64704D01*
X410801Y64589D01*
X410797Y64529D01*
X410793Y64509D01*
X410795Y64488D01*
X410791Y64428D01*
X410791Y61016D01*
X409674Y59899D01*
X409614Y59821D01*
X409546Y59749D01*
X409517Y59696D01*
X409480Y59648D01*
X409440Y59557D01*
X409392Y59470D01*
X409377Y59412D01*
X409353Y59356D01*
X409338Y59258D01*
X409313Y59163D01*
X409307Y59063D01*
X409303Y59042D01*
X409305Y59030D01*
X409303Y59002D01*
X409303Y48894D01*
X409315Y48796D01*
X409318Y48697D01*
X409335Y48638D01*
X409343Y48578D01*
X409379Y48486D01*
X409407Y48391D01*
X409437Y48339D01*
X409460Y48283D01*
X409518Y48203D01*
X409568Y48117D01*
X409634Y48042D01*
X409646Y48025D01*
X409656Y48017D01*
X409674Y47996D01*
X413508Y44162D01*
X413587Y44102D01*
X413659Y44034D01*
X413712Y44005D01*
X413760Y43968D01*
X413851Y43928D01*
X413937Y43880D01*
X413996Y43865D01*
X414051Y43841D01*
X414149Y43826D01*
X414245Y43801D01*
X414345Y43795D01*
X414366Y43791D01*
X414378Y43793D01*
X414406Y43791D01*
X415984Y43791D01*
X418791Y40984D01*
X418791Y37016D01*
X415984Y34209D01*
X412016Y34209D01*
X409209Y37016D01*
X409209Y38594D01*
X409197Y38692D01*
X409194Y38791D01*
X409177Y38850D01*
X409169Y38910D01*
X409133Y39002D01*
X409105Y39097D01*
X409075Y39149D01*
X409052Y39205D01*
X408994Y39285D01*
X408944Y39371D01*
X408878Y39446D01*
X408866Y39463D01*
X408856Y39471D01*
X408838Y39492D01*
X402697Y45632D01*
X402697Y59002D01*
X402685Y59100D01*
X402682Y59199D01*
X402665Y59257D01*
X402657Y59317D01*
X402621Y59409D01*
X402593Y59505D01*
X402563Y59557D01*
X402540Y59613D01*
X402482Y59693D01*
X402432Y59779D01*
X402366Y59854D01*
X402354Y59870D01*
X402344Y59878D01*
X402326Y59899D01*
X401209Y61016D01*
X401209Y64428D01*
X401194Y64546D01*
X401187Y64665D01*
X401174Y64703D01*
X401169Y64744D01*
X401126Y64854D01*
X401089Y64967D01*
X401067Y65002D01*
X401052Y65039D01*
X400983Y65135D01*
X400919Y65236D01*
X400889Y65264D01*
X400866Y65297D01*
X400774Y65373D01*
X400687Y65454D01*
X400652Y65474D01*
X400621Y65499D01*
X400513Y65550D01*
X400409Y65608D01*
X400369Y65618D01*
X400333Y65635D01*
X400216Y65657D01*
X400101Y65687D01*
X400041Y65691D01*
X400021Y65695D01*
X400000Y65693D01*
X399940Y65697D01*
X370060Y65697D01*
X369942Y65682D01*
X369823Y65675D01*
X369785Y65662D01*
X369744Y65657D01*
X369634Y65614D01*
X369521Y65577D01*
X369486Y65555D01*
X369449Y65540D01*
X369353Y65471D01*
X369252Y65407D01*
X369224Y65377D01*
X369191Y65354D01*
X369115Y65262D01*
X369034Y65175D01*
X369014Y65140D01*
X368989Y65109D01*
X368938Y65001D01*
X368880Y64897D01*
X368870Y64857D01*
X368853Y64821D01*
X368831Y64704D01*
X368801Y64589D01*
X368797Y64529D01*
X368793Y64509D01*
X368795Y64488D01*
X368791Y64428D01*
X368791Y60016D01*
X365984Y57209D01*
X362016Y57209D01*
X358899Y60326D01*
X358821Y60386D01*
X358749Y60454D01*
X358696Y60483D01*
X358648Y60520D01*
X358557Y60560D01*
X358470Y60608D01*
X358412Y60623D01*
X358356Y60647D01*
X358258Y60662D01*
X358163Y60687D01*
X358063Y60693D01*
X358042Y60697D01*
X358030Y60695D01*
X358002Y60697D01*
X340998Y60697D01*
X340900Y60685D01*
X340801Y60682D01*
X340743Y60665D01*
X340683Y60657D01*
X340591Y60621D01*
X340495Y60593D01*
X340443Y60563D01*
X340387Y60540D01*
X340307Y60482D01*
X340221Y60432D01*
X340146Y60366D01*
X340130Y60354D01*
X340122Y60344D01*
X340101Y60326D01*
X338984Y59209D01*
X334572Y59209D01*
X334454Y59194D01*
X334335Y59187D01*
X334297Y59174D01*
X334256Y59169D01*
X334146Y59126D01*
X334033Y59089D01*
X333998Y59067D01*
X333961Y59052D01*
X333865Y58983D01*
X333764Y58919D01*
X333736Y58889D01*
X333703Y58866D01*
X333627Y58774D01*
X333546Y58687D01*
X333526Y58652D01*
X333501Y58621D01*
X333450Y58513D01*
X333392Y58409D01*
X333382Y58369D01*
X333365Y58333D01*
X333343Y58216D01*
X333313Y58101D01*
X333309Y58041D01*
X333305Y58021D01*
X333307Y58000D01*
X333303Y57940D01*
X333303Y42232D01*
X317505Y26434D01*
X317487Y26411D01*
X317465Y26392D01*
X317390Y26286D01*
X317310Y26183D01*
X317299Y26156D01*
X317282Y26132D01*
X317236Y26010D01*
X317184Y25891D01*
X317179Y25862D01*
X317169Y25835D01*
X317154Y25705D01*
X317134Y25577D01*
X317137Y25548D01*
X317134Y25519D01*
X317152Y25390D01*
X317164Y25261D01*
X317174Y25233D01*
X317178Y25204D01*
X317230Y25051D01*
X317927Y23368D01*
X317997Y23247D01*
X318061Y23124D01*
X318075Y23109D01*
X318085Y23092D01*
X318182Y22992D01*
X318275Y22889D01*
X318292Y22878D01*
X318306Y22863D01*
X318424Y22791D01*
X318541Y22714D01*
X318560Y22708D01*
X318577Y22697D01*
X318710Y22656D01*
X318842Y22611D01*
X318862Y22609D01*
X318881Y22603D01*
X319020Y22597D01*
X319159Y22586D01*
X319179Y22589D01*
X319199Y22588D01*
X319335Y22616D01*
X319472Y22640D01*
X319491Y22648D01*
X319510Y22652D01*
X319635Y22714D01*
X319762Y22771D01*
X319778Y22783D01*
X319796Y22792D01*
X319902Y22882D01*
X320010Y22969D01*
X320023Y22985D01*
X320038Y22999D01*
X320118Y23112D01*
X320202Y23223D01*
X320214Y23249D01*
X320221Y23259D01*
X320228Y23278D01*
X320273Y23368D01*
X321679Y26763D01*
X325037Y30121D01*
X329425Y31939D01*
X334175Y31939D01*
X338563Y30121D01*
X341921Y26763D01*
X343327Y23368D01*
X343396Y23247D01*
X343461Y23124D01*
X343475Y23109D01*
X343485Y23092D01*
X343582Y22992D01*
X343675Y22889D01*
X343692Y22878D01*
X343706Y22863D01*
X343824Y22791D01*
X343941Y22714D01*
X343960Y22708D01*
X343977Y22697D01*
X344110Y22656D01*
X344242Y22611D01*
X344262Y22609D01*
X344281Y22603D01*
X344420Y22597D01*
X344559Y22586D01*
X344579Y22589D01*
X344599Y22588D01*
X344735Y22616D01*
X344872Y22640D01*
X344891Y22648D01*
X344910Y22652D01*
X345035Y22714D01*
X345162Y22771D01*
X345178Y22783D01*
X345196Y22792D01*
X345302Y22883D01*
X345410Y22969D01*
X345423Y22985D01*
X345438Y22999D01*
X345518Y23112D01*
X345602Y23223D01*
X345614Y23249D01*
X345621Y23259D01*
X345628Y23278D01*
X345673Y23368D01*
X347079Y26763D01*
X350437Y30121D01*
X354825Y31939D01*
X359575Y31939D01*
X363963Y30121D01*
X367321Y26763D01*
X369082Y22513D01*
X369096Y22487D01*
X369106Y22458D01*
X369175Y22349D01*
X369239Y22236D01*
X369260Y22215D01*
X369276Y22190D01*
X369370Y22101D01*
X369460Y22008D01*
X369486Y21992D01*
X369508Y21972D01*
X369621Y21909D01*
X369732Y21842D01*
X369760Y21833D01*
X369786Y21818D01*
X369912Y21786D01*
X370036Y21748D01*
X370065Y21747D01*
X370094Y21739D01*
X370224Y21739D01*
X370353Y21733D01*
X370382Y21739D01*
X370412Y21739D01*
X370538Y21771D01*
X370665Y21797D01*
X370692Y21810D01*
X370720Y21818D01*
X370834Y21880D01*
X370950Y21937D01*
X370973Y21956D01*
X370999Y21971D01*
X371094Y22059D01*
X371192Y22143D01*
X371210Y22168D01*
X371231Y22188D01*
X371301Y22297D01*
X371375Y22403D01*
X371386Y22431D01*
X371402Y22456D01*
X371461Y22606D01*
X371660Y23218D01*
X372036Y24376D01*
X372851Y25974D01*
X373906Y27426D01*
X375174Y28694D01*
X376626Y29749D01*
X378224Y30564D01*
X379931Y31118D01*
X380061Y31139D01*
X380061Y21270D01*
X380076Y21152D01*
X380083Y21033D01*
X380096Y20995D01*
X380101Y20955D01*
X380144Y20844D01*
X380181Y20731D01*
X380203Y20697D01*
X380218Y20659D01*
X380288Y20563D01*
X380351Y20462D01*
X380381Y20434D01*
X380404Y20402D01*
X380496Y20326D01*
X380583Y20244D01*
X380618Y20225D01*
X380649Y20199D01*
X380757Y20148D01*
X380861Y20091D01*
X380901Y20080D01*
X380937Y20063D01*
X381054Y20041D01*
X381169Y20011D01*
X381230Y20007D01*
X381250Y20003D01*
X381270Y20005D01*
X381330Y20001D01*
X382601Y20001D01*
X382601Y19999D01*
X381330Y19999D01*
X381212Y19984D01*
X381093Y19977D01*
X381055Y19964D01*
X381014Y19959D01*
X380904Y19915D01*
X380791Y19879D01*
X380756Y19857D01*
X380719Y19842D01*
X380623Y19772D01*
X380522Y19709D01*
X380494Y19679D01*
X380461Y19655D01*
X380386Y19564D01*
X380304Y19477D01*
X380284Y19442D01*
X380259Y19410D01*
X380208Y19303D01*
X380150Y19198D01*
X380140Y19159D01*
X380123Y19123D01*
X380101Y19006D01*
X380071Y18891D01*
X380067Y18830D01*
X380063Y18810D01*
X380065Y18790D01*
X380061Y18730D01*
X380061Y8861D01*
X379931Y8882D01*
X378224Y9436D01*
X376626Y10251D01*
X375174Y11306D01*
X373906Y12574D01*
X372851Y14026D01*
X372036Y15624D01*
X371461Y17394D01*
X371449Y17421D01*
X371442Y17450D01*
X371381Y17565D01*
X371326Y17682D01*
X371307Y17705D01*
X371293Y17731D01*
X371206Y17827D01*
X371123Y17927D01*
X371099Y17944D01*
X371079Y17966D01*
X370971Y18038D01*
X370866Y18114D01*
X370838Y18125D01*
X370813Y18141D01*
X370691Y18183D01*
X370570Y18231D01*
X370541Y18235D01*
X370513Y18244D01*
X370383Y18255D01*
X370255Y18271D01*
X370225Y18267D01*
X370196Y18270D01*
X370068Y18248D01*
X369939Y18231D01*
X369912Y18220D01*
X369882Y18215D01*
X369764Y18162D01*
X369644Y18114D01*
X369619Y18097D01*
X369592Y18085D01*
X369491Y18004D01*
X369386Y17928D01*
X369367Y17905D01*
X369344Y17886D01*
X369266Y17782D01*
X369183Y17683D01*
X369171Y17656D01*
X369153Y17632D01*
X369082Y17487D01*
X367321Y13237D01*
X363963Y9879D01*
X359575Y8061D01*
X354825Y8061D01*
X352149Y9170D01*
X352120Y9178D01*
X352094Y9191D01*
X351967Y9220D01*
X351842Y9254D01*
X351813Y9254D01*
X351784Y9261D01*
X351654Y9257D01*
X351524Y9259D01*
X351495Y9252D01*
X351466Y9251D01*
X351341Y9215D01*
X351215Y9185D01*
X351189Y9171D01*
X351160Y9163D01*
X351049Y9097D01*
X350934Y9036D01*
X350912Y9016D01*
X350886Y9001D01*
X350766Y8895D01*
X347340Y5469D01*
X347255Y5360D01*
X347166Y5253D01*
X347158Y5234D01*
X347145Y5218D01*
X347090Y5090D01*
X347031Y4965D01*
X347027Y4945D01*
X347019Y4926D01*
X346997Y4788D01*
X346971Y4652D01*
X346972Y4632D01*
X346969Y4612D01*
X346982Y4473D01*
X346991Y4335D01*
X346997Y4316D01*
X346999Y4296D01*
X347046Y4164D01*
X347089Y4033D01*
X347100Y4015D01*
X347107Y3996D01*
X347185Y3881D01*
X347259Y3764D01*
X347274Y3750D01*
X347285Y3733D01*
X347389Y3641D01*
X347491Y3546D01*
X347508Y3536D01*
X347524Y3523D01*
X347648Y3459D01*
X347769Y3392D01*
X347789Y3387D01*
X347807Y3378D01*
X347943Y3348D01*
X348077Y3313D01*
X348105Y3311D01*
X348117Y3308D01*
X348138Y3309D01*
X348238Y3303D01*
X447540Y3303D01*
X447678Y3320D01*
G37*
G36*
X120058Y137318D02*
X120058Y137318D01*
X120177Y137325D01*
X120215Y137338D01*
X120256Y137343D01*
X120366Y137386D01*
X120479Y137423D01*
X120514Y137445D01*
X120551Y137460D01*
X120647Y137529D01*
X120748Y137593D01*
X120776Y137623D01*
X120809Y137646D01*
X120885Y137738D01*
X120966Y137825D01*
X120986Y137860D01*
X121011Y137891D01*
X121062Y137999D01*
X121120Y138103D01*
X121130Y138143D01*
X121147Y138179D01*
X121169Y138296D01*
X121199Y138411D01*
X121203Y138471D01*
X121207Y138491D01*
X121205Y138512D01*
X121209Y138572D01*
X121209Y142984D01*
X124016Y145791D01*
X125594Y145791D01*
X125692Y145803D01*
X125791Y145806D01*
X125850Y145823D01*
X125910Y145831D01*
X126002Y145867D01*
X126097Y145895D01*
X126149Y145925D01*
X126205Y145948D01*
X126285Y146006D01*
X126371Y146056D01*
X126446Y146122D01*
X126463Y146134D01*
X126471Y146144D01*
X126492Y146162D01*
X160326Y179996D01*
X160386Y180075D01*
X160454Y180147D01*
X160483Y180200D01*
X160520Y180248D01*
X160560Y180339D01*
X160608Y180425D01*
X160623Y180484D01*
X160647Y180539D01*
X160662Y180637D01*
X160687Y180733D01*
X160693Y180833D01*
X160697Y180854D01*
X160695Y180866D01*
X160697Y180894D01*
X160697Y184002D01*
X160685Y184100D01*
X160682Y184199D01*
X160665Y184257D01*
X160657Y184317D01*
X160621Y184409D01*
X160593Y184505D01*
X160563Y184557D01*
X160540Y184613D01*
X160482Y184693D01*
X160432Y184779D01*
X160366Y184854D01*
X160354Y184870D01*
X160344Y184878D01*
X160326Y184899D01*
X159209Y186016D01*
X159209Y189984D01*
X162016Y192791D01*
X165984Y192791D01*
X168791Y189984D01*
X168791Y186016D01*
X167674Y184899D01*
X167614Y184821D01*
X167546Y184749D01*
X167517Y184696D01*
X167480Y184648D01*
X167440Y184557D01*
X167392Y184470D01*
X167377Y184412D01*
X167353Y184356D01*
X167338Y184258D01*
X167313Y184163D01*
X167307Y184063D01*
X167303Y184042D01*
X167305Y184030D01*
X167303Y184002D01*
X167303Y177632D01*
X131162Y141492D01*
X131102Y141413D01*
X131034Y141341D01*
X131005Y141288D01*
X130968Y141240D01*
X130928Y141149D01*
X130880Y141063D01*
X130865Y141004D01*
X130841Y140949D01*
X130826Y140851D01*
X130801Y140755D01*
X130795Y140655D01*
X130791Y140634D01*
X130793Y140622D01*
X130791Y140594D01*
X130791Y138572D01*
X130806Y138454D01*
X130813Y138335D01*
X130826Y138297D01*
X130831Y138256D01*
X130874Y138146D01*
X130911Y138033D01*
X130933Y137998D01*
X130948Y137961D01*
X131017Y137865D01*
X131081Y137764D01*
X131111Y137736D01*
X131134Y137703D01*
X131226Y137627D01*
X131313Y137546D01*
X131348Y137526D01*
X131379Y137501D01*
X131487Y137450D01*
X131591Y137392D01*
X131631Y137382D01*
X131667Y137365D01*
X131784Y137343D01*
X131899Y137313D01*
X131959Y137309D01*
X131979Y137305D01*
X132000Y137307D01*
X132060Y137303D01*
X205002Y137303D01*
X205100Y137315D01*
X205199Y137318D01*
X205257Y137335D01*
X205317Y137343D01*
X205409Y137379D01*
X205505Y137407D01*
X205557Y137437D01*
X205613Y137460D01*
X205693Y137518D01*
X205779Y137568D01*
X205854Y137634D01*
X205870Y137646D01*
X205878Y137656D01*
X205899Y137674D01*
X207016Y138791D01*
X210984Y138791D01*
X211531Y138245D01*
X211640Y138160D01*
X211747Y138071D01*
X211766Y138062D01*
X211782Y138050D01*
X211910Y137994D01*
X212035Y137935D01*
X212055Y137931D01*
X212074Y137923D01*
X212212Y137901D01*
X212348Y137875D01*
X212368Y137877D01*
X212388Y137873D01*
X212527Y137887D01*
X212665Y137895D01*
X212684Y137901D01*
X212704Y137903D01*
X212836Y137950D01*
X212967Y137993D01*
X212985Y138004D01*
X213004Y138011D01*
X213119Y138089D01*
X213236Y138163D01*
X213250Y138178D01*
X213267Y138189D01*
X213359Y138293D01*
X213454Y138395D01*
X213464Y138413D01*
X213477Y138428D01*
X213540Y138552D01*
X213608Y138673D01*
X213613Y138693D01*
X213622Y138711D01*
X213652Y138847D01*
X213687Y138981D01*
X213689Y139009D01*
X213692Y139021D01*
X213691Y139042D01*
X213697Y139142D01*
X213697Y181106D01*
X213685Y181204D01*
X213682Y181303D01*
X213665Y181362D01*
X213657Y181422D01*
X213621Y181514D01*
X213593Y181609D01*
X213563Y181661D01*
X213540Y181717D01*
X213482Y181797D01*
X213432Y181883D01*
X213366Y181958D01*
X213354Y181975D01*
X213344Y181983D01*
X213326Y182004D01*
X196697Y198632D01*
X196697Y255962D01*
X196680Y256100D01*
X196667Y256239D01*
X196660Y256258D01*
X196657Y256278D01*
X196606Y256407D01*
X196559Y256538D01*
X196548Y256555D01*
X196540Y256573D01*
X196459Y256686D01*
X196381Y256801D01*
X196365Y256814D01*
X196354Y256831D01*
X196246Y256920D01*
X196142Y257012D01*
X196124Y257021D01*
X196109Y257034D01*
X195983Y257093D01*
X195859Y257156D01*
X195839Y257161D01*
X195821Y257169D01*
X195685Y257195D01*
X195549Y257226D01*
X195528Y257225D01*
X195509Y257229D01*
X195370Y257220D01*
X195231Y257216D01*
X195211Y257210D01*
X195191Y257209D01*
X195059Y257166D01*
X194925Y257128D01*
X194908Y257117D01*
X194889Y257111D01*
X194771Y257037D01*
X194651Y256966D01*
X194630Y256948D01*
X194620Y256941D01*
X194606Y256926D01*
X194531Y256860D01*
X187628Y249957D01*
X187543Y249848D01*
X187454Y249741D01*
X187446Y249722D01*
X187433Y249706D01*
X187378Y249578D01*
X187319Y249453D01*
X187315Y249433D01*
X187307Y249414D01*
X187285Y249276D01*
X187259Y249140D01*
X187260Y249120D01*
X187257Y249100D01*
X187270Y248961D01*
X187279Y248823D01*
X187285Y248804D01*
X187287Y248784D01*
X187334Y248652D01*
X187377Y248521D01*
X187388Y248503D01*
X187395Y248484D01*
X187473Y248369D01*
X187547Y248252D01*
X187562Y248238D01*
X187573Y248221D01*
X187677Y248129D01*
X187779Y248034D01*
X187796Y248024D01*
X187812Y248011D01*
X187935Y247947D01*
X188057Y247880D01*
X188077Y247875D01*
X188095Y247866D01*
X188231Y247836D01*
X188365Y247801D01*
X188393Y247799D01*
X188405Y247796D01*
X188426Y247797D01*
X188526Y247791D01*
X190984Y247791D01*
X193791Y244984D01*
X193791Y241016D01*
X192674Y239899D01*
X192614Y239821D01*
X192546Y239749D01*
X192517Y239696D01*
X192480Y239648D01*
X192440Y239557D01*
X192392Y239470D01*
X192377Y239412D01*
X192353Y239356D01*
X192338Y239258D01*
X192313Y239163D01*
X192307Y239063D01*
X192303Y239042D01*
X192305Y239030D01*
X192303Y239002D01*
X192303Y196894D01*
X192315Y196796D01*
X192318Y196697D01*
X192335Y196638D01*
X192343Y196578D01*
X192379Y196486D01*
X192407Y196391D01*
X192437Y196339D01*
X192460Y196283D01*
X192518Y196202D01*
X192568Y196117D01*
X192634Y196042D01*
X192646Y196025D01*
X192656Y196017D01*
X192674Y195996D01*
X193508Y195163D01*
X193586Y195102D01*
X193659Y195034D01*
X193712Y195005D01*
X193760Y194968D01*
X193850Y194928D01*
X193937Y194880D01*
X193996Y194865D01*
X194051Y194841D01*
X194149Y194826D01*
X194245Y194801D01*
X194345Y194795D01*
X194365Y194791D01*
X194378Y194793D01*
X194406Y194791D01*
X195984Y194791D01*
X198791Y191984D01*
X198791Y188016D01*
X195984Y185209D01*
X191526Y185209D01*
X191388Y185192D01*
X191249Y185179D01*
X191230Y185172D01*
X191210Y185169D01*
X191081Y185118D01*
X190950Y185071D01*
X190933Y185060D01*
X190915Y185052D01*
X190802Y184971D01*
X190687Y184893D01*
X190674Y184877D01*
X190657Y184866D01*
X190569Y184758D01*
X190476Y184654D01*
X190467Y184636D01*
X190454Y184621D01*
X190395Y184495D01*
X190332Y184371D01*
X190327Y184351D01*
X190319Y184333D01*
X190293Y184197D01*
X190262Y184061D01*
X190263Y184040D01*
X190259Y184021D01*
X190268Y183882D01*
X190272Y183743D01*
X190278Y183723D01*
X190279Y183703D01*
X190322Y183571D01*
X190360Y183437D01*
X190371Y183420D01*
X190377Y183401D01*
X190451Y183283D01*
X190522Y183163D01*
X190540Y183142D01*
X190547Y183132D01*
X190562Y183118D01*
X190628Y183043D01*
X199508Y174162D01*
X199587Y174102D01*
X199659Y174034D01*
X199712Y174005D01*
X199760Y173968D01*
X199851Y173928D01*
X199937Y173880D01*
X199996Y173865D01*
X200051Y173841D01*
X200149Y173826D01*
X200245Y173801D01*
X200345Y173795D01*
X200366Y173791D01*
X200378Y173793D01*
X200406Y173791D01*
X201984Y173791D01*
X204791Y170984D01*
X204791Y167016D01*
X201984Y164209D01*
X198016Y164209D01*
X195209Y167016D01*
X195209Y168594D01*
X195197Y168692D01*
X195194Y168791D01*
X195177Y168850D01*
X195169Y168910D01*
X195133Y169002D01*
X195105Y169097D01*
X195075Y169149D01*
X195052Y169205D01*
X194994Y169285D01*
X194944Y169371D01*
X194878Y169446D01*
X194866Y169463D01*
X194856Y169471D01*
X194838Y169492D01*
X95504Y268826D01*
X95425Y268886D01*
X95353Y268954D01*
X95300Y268983D01*
X95252Y269020D01*
X95161Y269060D01*
X95075Y269108D01*
X95016Y269123D01*
X94961Y269147D01*
X94863Y269162D01*
X94767Y269187D01*
X94667Y269193D01*
X94646Y269197D01*
X94634Y269195D01*
X94606Y269197D01*
X33408Y269197D01*
X33290Y269182D01*
X33171Y269175D01*
X33133Y269162D01*
X33092Y269157D01*
X32982Y269114D01*
X32869Y269077D01*
X32834Y269055D01*
X32797Y269040D01*
X32701Y268971D01*
X32600Y268907D01*
X32572Y268877D01*
X32539Y268854D01*
X32463Y268762D01*
X32382Y268675D01*
X32362Y268640D01*
X32337Y268609D01*
X32286Y268501D01*
X32228Y268397D01*
X32218Y268357D01*
X32201Y268321D01*
X32179Y268204D01*
X32149Y268089D01*
X32145Y268029D01*
X32141Y268009D01*
X32143Y267988D01*
X32139Y267928D01*
X32139Y266925D01*
X30321Y262537D01*
X26963Y259179D01*
X23568Y257773D01*
X23447Y257704D01*
X23324Y257639D01*
X23309Y257625D01*
X23292Y257615D01*
X23192Y257518D01*
X23089Y257425D01*
X23078Y257408D01*
X23063Y257394D01*
X22990Y257275D01*
X22914Y257159D01*
X22908Y257140D01*
X22897Y257123D01*
X22856Y256990D01*
X22811Y256858D01*
X22809Y256838D01*
X22803Y256819D01*
X22797Y256680D01*
X22786Y256541D01*
X22789Y256521D01*
X22788Y256501D01*
X22816Y256365D01*
X22840Y256228D01*
X22848Y256209D01*
X22853Y256190D01*
X22914Y256064D01*
X22971Y255938D01*
X22983Y255922D01*
X22992Y255904D01*
X23083Y255798D01*
X23169Y255690D01*
X23185Y255677D01*
X23199Y255662D01*
X23312Y255582D01*
X23423Y255498D01*
X23449Y255486D01*
X23459Y255479D01*
X23478Y255472D01*
X23568Y255427D01*
X26963Y254021D01*
X30321Y250663D01*
X32139Y246275D01*
X32139Y241525D01*
X30321Y237137D01*
X26963Y233779D01*
X23568Y232373D01*
X23447Y232304D01*
X23324Y232239D01*
X23309Y232225D01*
X23292Y232215D01*
X23192Y232118D01*
X23089Y232025D01*
X23078Y232008D01*
X23063Y231994D01*
X22990Y231875D01*
X22914Y231759D01*
X22908Y231740D01*
X22897Y231723D01*
X22856Y231590D01*
X22811Y231458D01*
X22809Y231438D01*
X22803Y231419D01*
X22797Y231280D01*
X22786Y231141D01*
X22789Y231121D01*
X22788Y231101D01*
X22816Y230965D01*
X22840Y230828D01*
X22848Y230809D01*
X22853Y230790D01*
X22914Y230664D01*
X22971Y230538D01*
X22983Y230522D01*
X22992Y230504D01*
X23083Y230398D01*
X23169Y230290D01*
X23185Y230277D01*
X23199Y230262D01*
X23312Y230182D01*
X23423Y230098D01*
X23449Y230086D01*
X23459Y230079D01*
X23478Y230072D01*
X23568Y230027D01*
X25251Y229330D01*
X25280Y229322D01*
X25306Y229309D01*
X25433Y229280D01*
X25558Y229246D01*
X25587Y229246D01*
X25616Y229239D01*
X25746Y229243D01*
X25876Y229241D01*
X25905Y229248D01*
X25934Y229249D01*
X26059Y229285D01*
X26185Y229315D01*
X26211Y229329D01*
X26240Y229337D01*
X26351Y229403D01*
X26466Y229464D01*
X26488Y229484D01*
X26514Y229499D01*
X26634Y229605D01*
X27032Y230003D01*
X127668Y230003D01*
X135508Y222162D01*
X135587Y222102D01*
X135659Y222034D01*
X135712Y222005D01*
X135760Y221968D01*
X135851Y221928D01*
X135937Y221880D01*
X135996Y221865D01*
X136051Y221841D01*
X136149Y221826D01*
X136245Y221801D01*
X136345Y221795D01*
X136366Y221791D01*
X136378Y221793D01*
X136406Y221791D01*
X137984Y221791D01*
X140791Y218984D01*
X140791Y215016D01*
X137984Y212209D01*
X134016Y212209D01*
X131209Y215016D01*
X131209Y216594D01*
X131197Y216692D01*
X131194Y216791D01*
X131177Y216850D01*
X131169Y216910D01*
X131133Y217002D01*
X131105Y217097D01*
X131075Y217149D01*
X131052Y217205D01*
X130994Y217285D01*
X130944Y217371D01*
X130878Y217446D01*
X130866Y217463D01*
X130856Y217471D01*
X130838Y217492D01*
X125304Y223026D01*
X125225Y223086D01*
X125153Y223154D01*
X125100Y223183D01*
X125052Y223220D01*
X124961Y223260D01*
X124875Y223308D01*
X124816Y223323D01*
X124761Y223347D01*
X124663Y223362D01*
X124567Y223387D01*
X124467Y223393D01*
X124446Y223397D01*
X124434Y223395D01*
X124406Y223397D01*
X32993Y223397D01*
X32944Y223391D01*
X32894Y223393D01*
X32787Y223371D01*
X32678Y223357D01*
X32632Y223339D01*
X32583Y223329D01*
X32484Y223281D01*
X32382Y223240D01*
X32342Y223211D01*
X32297Y223189D01*
X32214Y223118D01*
X32125Y223054D01*
X32093Y223015D01*
X32055Y222983D01*
X31992Y222893D01*
X31922Y222809D01*
X31901Y222764D01*
X31872Y222723D01*
X31833Y222620D01*
X31787Y222521D01*
X31777Y222472D01*
X31760Y222426D01*
X31747Y222316D01*
X31727Y222209D01*
X31730Y222159D01*
X31724Y222110D01*
X31740Y222001D01*
X31746Y221891D01*
X31762Y221844D01*
X31769Y221795D01*
X31821Y221642D01*
X32139Y220875D01*
X32139Y216125D01*
X30321Y211737D01*
X26963Y208379D01*
X23568Y206973D01*
X23447Y206904D01*
X23324Y206839D01*
X23309Y206825D01*
X23292Y206815D01*
X23192Y206718D01*
X23089Y206625D01*
X23078Y206608D01*
X23063Y206594D01*
X22990Y206475D01*
X22914Y206359D01*
X22908Y206340D01*
X22897Y206323D01*
X22856Y206190D01*
X22811Y206058D01*
X22809Y206038D01*
X22803Y206019D01*
X22797Y205880D01*
X22786Y205741D01*
X22789Y205721D01*
X22788Y205701D01*
X22816Y205565D01*
X22840Y205428D01*
X22848Y205409D01*
X22853Y205390D01*
X22914Y205264D01*
X22971Y205138D01*
X22983Y205122D01*
X22992Y205104D01*
X23083Y204998D01*
X23169Y204890D01*
X23185Y204877D01*
X23199Y204862D01*
X23312Y204782D01*
X23423Y204698D01*
X23449Y204686D01*
X23459Y204679D01*
X23478Y204672D01*
X23568Y204627D01*
X26963Y203221D01*
X30321Y199863D01*
X32139Y195475D01*
X32139Y190725D01*
X30321Y186337D01*
X26963Y182979D01*
X23568Y181573D01*
X23447Y181504D01*
X23324Y181439D01*
X23309Y181425D01*
X23292Y181415D01*
X23192Y181318D01*
X23089Y181225D01*
X23078Y181208D01*
X23063Y181194D01*
X22990Y181075D01*
X22914Y180959D01*
X22908Y180940D01*
X22897Y180923D01*
X22856Y180790D01*
X22811Y180658D01*
X22809Y180638D01*
X22803Y180619D01*
X22797Y180480D01*
X22786Y180341D01*
X22789Y180321D01*
X22788Y180301D01*
X22816Y180165D01*
X22840Y180028D01*
X22848Y180009D01*
X22853Y179990D01*
X22914Y179864D01*
X22971Y179738D01*
X22983Y179722D01*
X22992Y179704D01*
X23083Y179598D01*
X23169Y179490D01*
X23185Y179477D01*
X23199Y179462D01*
X23312Y179382D01*
X23423Y179298D01*
X23449Y179286D01*
X23459Y179279D01*
X23478Y179272D01*
X23568Y179227D01*
X26963Y177821D01*
X30321Y174463D01*
X32139Y170075D01*
X32139Y165325D01*
X31030Y162649D01*
X31022Y162620D01*
X31009Y162594D01*
X30980Y162467D01*
X30946Y162342D01*
X30946Y162312D01*
X30939Y162284D01*
X30943Y162154D01*
X30941Y162024D01*
X30948Y161995D01*
X30949Y161966D01*
X30985Y161841D01*
X31015Y161715D01*
X31029Y161689D01*
X31037Y161660D01*
X31103Y161549D01*
X31164Y161434D01*
X31184Y161412D01*
X31199Y161386D01*
X31305Y161266D01*
X54896Y137674D01*
X54975Y137614D01*
X55047Y137546D01*
X55100Y137517D01*
X55148Y137480D01*
X55239Y137440D01*
X55325Y137392D01*
X55384Y137377D01*
X55439Y137353D01*
X55537Y137338D01*
X55633Y137313D01*
X55733Y137307D01*
X55754Y137303D01*
X55766Y137305D01*
X55794Y137303D01*
X119940Y137303D01*
X120058Y137318D01*
G37*
G36*
X488546Y109318D02*
X488546Y109318D01*
X488665Y109325D01*
X488703Y109338D01*
X488744Y109343D01*
X488854Y109386D01*
X488967Y109423D01*
X489002Y109445D01*
X489039Y109460D01*
X489135Y109529D01*
X489236Y109593D01*
X489264Y109623D01*
X489297Y109646D01*
X489373Y109738D01*
X489454Y109825D01*
X489474Y109860D01*
X489499Y109891D01*
X489550Y109999D01*
X489608Y110103D01*
X489618Y110143D01*
X489635Y110179D01*
X489657Y110296D01*
X489687Y110411D01*
X489691Y110471D01*
X489695Y110491D01*
X489693Y110512D01*
X489697Y110572D01*
X489697Y258428D01*
X489682Y258546D01*
X489675Y258665D01*
X489662Y258703D01*
X489657Y258744D01*
X489614Y258854D01*
X489577Y258967D01*
X489555Y259002D01*
X489540Y259039D01*
X489471Y259135D01*
X489407Y259236D01*
X489377Y259264D01*
X489354Y259297D01*
X489262Y259373D01*
X489175Y259454D01*
X489140Y259474D01*
X489109Y259499D01*
X489001Y259550D01*
X488897Y259608D01*
X488857Y259618D01*
X488821Y259635D01*
X488704Y259657D01*
X488589Y259687D01*
X488529Y259691D01*
X488509Y259695D01*
X488488Y259693D01*
X488428Y259697D01*
X383142Y259697D01*
X383004Y259680D01*
X382866Y259667D01*
X382847Y259660D01*
X382827Y259657D01*
X382697Y259606D01*
X382566Y259559D01*
X382550Y259548D01*
X382531Y259540D01*
X382419Y259459D01*
X382303Y259381D01*
X382290Y259365D01*
X382274Y259354D01*
X382185Y259246D01*
X382093Y259142D01*
X382084Y259124D01*
X382071Y259109D01*
X382011Y258983D01*
X381948Y258859D01*
X381944Y258839D01*
X381935Y258821D01*
X381909Y258684D01*
X381879Y258549D01*
X381879Y258528D01*
X381875Y258509D01*
X381884Y258370D01*
X381888Y258231D01*
X381894Y258211D01*
X381895Y258191D01*
X381938Y258059D01*
X381977Y257925D01*
X381987Y257908D01*
X381993Y257889D01*
X382067Y257771D01*
X382138Y257651D01*
X382157Y257630D01*
X382163Y257620D01*
X382169Y257615D01*
X382169Y257614D01*
X382180Y257604D01*
X382245Y257531D01*
X383101Y256674D01*
X383179Y256614D01*
X383251Y256546D01*
X383304Y256517D01*
X383352Y256480D01*
X383443Y256440D01*
X383530Y256392D01*
X383588Y256377D01*
X383644Y256353D01*
X383742Y256338D01*
X383837Y256313D01*
X383938Y256307D01*
X383958Y256303D01*
X383970Y256305D01*
X383998Y256303D01*
X461368Y256303D01*
X477508Y240162D01*
X477587Y240102D01*
X477659Y240034D01*
X477712Y240005D01*
X477760Y239968D01*
X477851Y239928D01*
X477937Y239880D01*
X477996Y239865D01*
X478051Y239841D01*
X478149Y239826D01*
X478245Y239801D01*
X478345Y239795D01*
X478366Y239791D01*
X478378Y239793D01*
X478406Y239791D01*
X479984Y239791D01*
X482791Y236984D01*
X482791Y233016D01*
X479984Y230209D01*
X476016Y230209D01*
X473209Y233016D01*
X473209Y234594D01*
X473197Y234692D01*
X473194Y234791D01*
X473177Y234850D01*
X473169Y234910D01*
X473133Y235002D01*
X473105Y235097D01*
X473075Y235149D01*
X473052Y235205D01*
X472994Y235285D01*
X472944Y235371D01*
X472878Y235446D01*
X472866Y235463D01*
X472856Y235471D01*
X472838Y235492D01*
X459004Y249326D01*
X458925Y249386D01*
X458853Y249454D01*
X458800Y249483D01*
X458752Y249520D01*
X458661Y249560D01*
X458575Y249608D01*
X458516Y249623D01*
X458461Y249647D01*
X458363Y249662D01*
X458267Y249687D01*
X458167Y249693D01*
X458146Y249697D01*
X458134Y249695D01*
X458106Y249697D01*
X383998Y249697D01*
X383900Y249685D01*
X383801Y249682D01*
X383743Y249665D01*
X383683Y249657D01*
X383591Y249621D01*
X383495Y249593D01*
X383443Y249563D01*
X383387Y249540D01*
X383307Y249482D01*
X383221Y249432D01*
X383146Y249366D01*
X383130Y249354D01*
X383122Y249344D01*
X383101Y249326D01*
X381984Y248209D01*
X378016Y248209D01*
X376899Y249326D01*
X376821Y249386D01*
X376749Y249454D01*
X376696Y249483D01*
X376648Y249520D01*
X376557Y249560D01*
X376471Y249608D01*
X376412Y249623D01*
X376356Y249647D01*
X376258Y249662D01*
X376163Y249687D01*
X376063Y249693D01*
X376042Y249697D01*
X376030Y249695D01*
X376002Y249697D01*
X356894Y249697D01*
X356796Y249685D01*
X356697Y249682D01*
X356638Y249665D01*
X356578Y249657D01*
X356486Y249621D01*
X356391Y249593D01*
X356339Y249563D01*
X356283Y249540D01*
X356203Y249482D01*
X356117Y249432D01*
X356042Y249366D01*
X356025Y249354D01*
X356017Y249344D01*
X355996Y249326D01*
X346162Y239492D01*
X346102Y239413D01*
X346034Y239341D01*
X346005Y239288D01*
X345968Y239240D01*
X345928Y239149D01*
X345880Y239063D01*
X345865Y239004D01*
X345841Y238949D01*
X345826Y238851D01*
X345801Y238755D01*
X345795Y238655D01*
X345791Y238634D01*
X345793Y238622D01*
X345791Y238594D01*
X345791Y237016D01*
X342984Y234209D01*
X339016Y234209D01*
X336209Y237016D01*
X336209Y237474D01*
X336192Y237612D01*
X336179Y237751D01*
X336172Y237770D01*
X336169Y237790D01*
X336118Y237919D01*
X336071Y238050D01*
X336060Y238067D01*
X336052Y238085D01*
X335971Y238198D01*
X335893Y238313D01*
X335877Y238326D01*
X335866Y238343D01*
X335758Y238432D01*
X335654Y238524D01*
X335636Y238533D01*
X335621Y238546D01*
X335495Y238605D01*
X335371Y238668D01*
X335351Y238673D01*
X335333Y238681D01*
X335197Y238707D01*
X335061Y238738D01*
X335040Y238737D01*
X335021Y238741D01*
X334882Y238732D01*
X334743Y238728D01*
X334723Y238722D01*
X334703Y238721D01*
X334571Y238678D01*
X334437Y238640D01*
X334420Y238629D01*
X334401Y238623D01*
X334283Y238549D01*
X334163Y238478D01*
X334142Y238460D01*
X334132Y238453D01*
X334118Y238438D01*
X334043Y238372D01*
X327140Y231469D01*
X327055Y231360D01*
X326966Y231253D01*
X326958Y231234D01*
X326945Y231218D01*
X326890Y231090D01*
X326831Y230965D01*
X326827Y230945D01*
X326819Y230926D01*
X326797Y230788D01*
X326771Y230652D01*
X326772Y230632D01*
X326769Y230612D01*
X326782Y230473D01*
X326791Y230335D01*
X326797Y230316D01*
X326799Y230296D01*
X326846Y230164D01*
X326889Y230033D01*
X326900Y230015D01*
X326907Y229996D01*
X326985Y229881D01*
X327059Y229764D01*
X327074Y229750D01*
X327085Y229733D01*
X327189Y229641D01*
X327291Y229546D01*
X327308Y229536D01*
X327324Y229523D01*
X327447Y229459D01*
X327569Y229392D01*
X327589Y229387D01*
X327607Y229378D01*
X327743Y229348D01*
X327877Y229313D01*
X327905Y229311D01*
X327917Y229308D01*
X327938Y229309D01*
X328038Y229303D01*
X336002Y229303D01*
X336100Y229315D01*
X336199Y229318D01*
X336257Y229335D01*
X336317Y229343D01*
X336409Y229379D01*
X336505Y229407D01*
X336557Y229437D01*
X336613Y229460D01*
X336693Y229518D01*
X336779Y229568D01*
X336854Y229634D01*
X336870Y229646D01*
X336878Y229656D01*
X336899Y229674D01*
X338016Y230791D01*
X341984Y230791D01*
X344791Y227984D01*
X344791Y226526D01*
X344808Y226388D01*
X344821Y226249D01*
X344828Y226230D01*
X344831Y226210D01*
X344882Y226081D01*
X344929Y225950D01*
X344940Y225933D01*
X344948Y225915D01*
X345029Y225802D01*
X345107Y225687D01*
X345123Y225674D01*
X345134Y225657D01*
X345242Y225568D01*
X345346Y225476D01*
X345364Y225467D01*
X345379Y225454D01*
X345505Y225395D01*
X345629Y225332D01*
X345649Y225327D01*
X345667Y225319D01*
X345803Y225293D01*
X345939Y225262D01*
X345960Y225263D01*
X345979Y225259D01*
X346118Y225268D01*
X346257Y225272D01*
X346277Y225278D01*
X346297Y225279D01*
X346429Y225322D01*
X346563Y225360D01*
X346580Y225371D01*
X346599Y225377D01*
X346717Y225451D01*
X346837Y225522D01*
X346858Y225540D01*
X346868Y225547D01*
X346882Y225562D01*
X346957Y225628D01*
X351838Y230508D01*
X351898Y230587D01*
X351966Y230659D01*
X351995Y230712D01*
X352032Y230760D01*
X352072Y230851D01*
X352120Y230937D01*
X352135Y230996D01*
X352159Y231051D01*
X352174Y231149D01*
X352199Y231245D01*
X352205Y231345D01*
X352209Y231366D01*
X352207Y231378D01*
X352209Y231406D01*
X352209Y232984D01*
X355016Y235791D01*
X358984Y235791D01*
X361791Y232984D01*
X361791Y229016D01*
X361173Y228397D01*
X361100Y228303D01*
X361021Y228214D01*
X361002Y228178D01*
X360978Y228146D01*
X360930Y228037D01*
X360876Y227931D01*
X360867Y227892D01*
X360851Y227854D01*
X360833Y227737D01*
X360807Y227621D01*
X360808Y227580D01*
X360801Y227540D01*
X360813Y227422D01*
X360816Y227303D01*
X360828Y227264D01*
X360831Y227224D01*
X360872Y227111D01*
X360905Y226997D01*
X360925Y226962D01*
X360939Y226924D01*
X361006Y226826D01*
X361066Y226723D01*
X361106Y226678D01*
X361117Y226661D01*
X361133Y226648D01*
X361173Y226602D01*
X363613Y224162D01*
X363691Y224102D01*
X363763Y224034D01*
X363816Y224005D01*
X363864Y223968D01*
X363955Y223928D01*
X364041Y223880D01*
X364100Y223865D01*
X364156Y223841D01*
X364254Y223826D01*
X364349Y223801D01*
X364449Y223795D01*
X364470Y223791D01*
X364482Y223793D01*
X364510Y223791D01*
X367984Y223791D01*
X370791Y220984D01*
X370791Y219406D01*
X370803Y219308D01*
X370806Y219209D01*
X370823Y219150D01*
X370831Y219090D01*
X370867Y218998D01*
X370895Y218903D01*
X370925Y218851D01*
X370948Y218795D01*
X371006Y218715D01*
X371056Y218629D01*
X371122Y218554D01*
X371134Y218537D01*
X371144Y218529D01*
X371162Y218508D01*
X371303Y218368D01*
X371303Y211660D01*
X371315Y211561D01*
X371318Y211462D01*
X371335Y211404D01*
X371343Y211344D01*
X371379Y211252D01*
X371407Y211157D01*
X371437Y211105D01*
X371460Y211048D01*
X371518Y210968D01*
X371568Y210883D01*
X371634Y210808D01*
X371646Y210791D01*
X371656Y210783D01*
X371674Y210762D01*
X372791Y209646D01*
X372791Y205677D01*
X369984Y202871D01*
X369060Y202871D01*
X368942Y202856D01*
X368823Y202848D01*
X368785Y202836D01*
X368744Y202831D01*
X368634Y202787D01*
X368521Y202750D01*
X368486Y202729D01*
X368449Y202714D01*
X368353Y202644D01*
X368252Y202580D01*
X368224Y202551D01*
X368191Y202527D01*
X368115Y202435D01*
X368034Y202349D01*
X368014Y202313D01*
X367989Y202282D01*
X367938Y202174D01*
X367880Y202070D01*
X367870Y202031D01*
X367853Y201994D01*
X367831Y201878D01*
X367801Y201762D01*
X367797Y201702D01*
X367793Y201682D01*
X367795Y201662D01*
X367791Y201601D01*
X367791Y200016D01*
X364984Y197209D01*
X361016Y197209D01*
X359899Y198326D01*
X359821Y198386D01*
X359749Y198454D01*
X359696Y198483D01*
X359648Y198520D01*
X359557Y198560D01*
X359470Y198608D01*
X359412Y198623D01*
X359356Y198647D01*
X359258Y198662D01*
X359163Y198687D01*
X359063Y198693D01*
X359042Y198697D01*
X359030Y198695D01*
X359002Y198697D01*
X353632Y198697D01*
X347492Y204838D01*
X347413Y204898D01*
X347341Y204966D01*
X347288Y204995D01*
X347240Y205032D01*
X347149Y205072D01*
X347063Y205120D01*
X347004Y205135D01*
X346949Y205159D01*
X346851Y205174D01*
X346755Y205199D01*
X346655Y205205D01*
X346634Y205209D01*
X346622Y205207D01*
X346594Y205209D01*
X345016Y205209D01*
X343345Y206880D01*
X343251Y206953D01*
X343162Y207031D01*
X343126Y207050D01*
X343094Y207075D01*
X342985Y207122D01*
X342879Y207176D01*
X342839Y207185D01*
X342802Y207201D01*
X342684Y207220D01*
X342568Y207246D01*
X342528Y207244D01*
X342488Y207251D01*
X342369Y207240D01*
X342251Y207236D01*
X342212Y207225D01*
X342171Y207221D01*
X342059Y207181D01*
X341945Y207148D01*
X341910Y207127D01*
X341872Y207113D01*
X341774Y207046D01*
X341671Y206986D01*
X341626Y206946D01*
X341609Y206935D01*
X341596Y206919D01*
X341550Y206880D01*
X302448Y167778D01*
X302388Y167699D01*
X302320Y167627D01*
X302291Y167574D01*
X302254Y167526D01*
X302214Y167435D01*
X302166Y167349D01*
X302151Y167290D01*
X302127Y167235D01*
X302112Y167137D01*
X302087Y167041D01*
X302081Y166941D01*
X302077Y166920D01*
X302079Y166908D01*
X302077Y166880D01*
X302077Y158812D01*
X302094Y158674D01*
X302107Y158535D01*
X302114Y158516D01*
X302117Y158496D01*
X302168Y158367D01*
X302215Y158236D01*
X302226Y158219D01*
X302234Y158201D01*
X302315Y158088D01*
X302393Y157973D01*
X302409Y157960D01*
X302420Y157943D01*
X302528Y157854D01*
X302632Y157762D01*
X302650Y157753D01*
X302665Y157740D01*
X302791Y157681D01*
X302915Y157618D01*
X302935Y157613D01*
X302953Y157605D01*
X303090Y157579D01*
X303225Y157548D01*
X303246Y157549D01*
X303265Y157545D01*
X303404Y157554D01*
X303543Y157558D01*
X303563Y157564D01*
X303583Y157565D01*
X303715Y157608D01*
X303849Y157646D01*
X303866Y157657D01*
X303885Y157663D01*
X304003Y157737D01*
X304123Y157808D01*
X304144Y157826D01*
X304154Y157833D01*
X304168Y157848D01*
X304243Y157914D01*
X305003Y158674D01*
X305004Y158674D01*
X335838Y189508D01*
X335898Y189587D01*
X335966Y189659D01*
X335995Y189712D01*
X336032Y189760D01*
X336072Y189851D01*
X336120Y189937D01*
X336135Y189996D01*
X336159Y190051D01*
X336174Y190149D01*
X336199Y190245D01*
X336205Y190345D01*
X336209Y190366D01*
X336207Y190378D01*
X336209Y190406D01*
X336209Y191984D01*
X339016Y194791D01*
X342984Y194791D01*
X345791Y191984D01*
X345791Y188016D01*
X342984Y185209D01*
X341406Y185209D01*
X341308Y185197D01*
X341209Y185194D01*
X341150Y185177D01*
X341090Y185169D01*
X340998Y185133D01*
X340903Y185105D01*
X340851Y185075D01*
X340795Y185052D01*
X340715Y184994D01*
X340629Y184944D01*
X340554Y184878D01*
X340537Y184866D01*
X340529Y184856D01*
X340508Y184838D01*
X335628Y179957D01*
X335543Y179848D01*
X335454Y179741D01*
X335446Y179722D01*
X335433Y179706D01*
X335378Y179578D01*
X335319Y179453D01*
X335315Y179433D01*
X335307Y179414D01*
X335285Y179276D01*
X335259Y179140D01*
X335260Y179120D01*
X335257Y179100D01*
X335270Y178961D01*
X335279Y178823D01*
X335285Y178804D01*
X335287Y178784D01*
X335334Y178652D01*
X335377Y178521D01*
X335388Y178503D01*
X335395Y178484D01*
X335473Y178369D01*
X335547Y178252D01*
X335562Y178238D01*
X335573Y178221D01*
X335677Y178129D01*
X335779Y178034D01*
X335796Y178024D01*
X335812Y178011D01*
X335936Y177947D01*
X336057Y177880D01*
X336077Y177875D01*
X336095Y177866D01*
X336231Y177836D01*
X336365Y177801D01*
X336393Y177799D01*
X336405Y177796D01*
X336426Y177797D01*
X336526Y177791D01*
X336984Y177791D01*
X338101Y176674D01*
X338179Y176614D01*
X338251Y176546D01*
X338304Y176517D01*
X338352Y176480D01*
X338443Y176440D01*
X338530Y176392D01*
X338588Y176377D01*
X338644Y176353D01*
X338742Y176338D01*
X338837Y176313D01*
X338937Y176307D01*
X338958Y176303D01*
X338970Y176305D01*
X338998Y176303D01*
X368368Y176303D01*
X397508Y147162D01*
X397587Y147102D01*
X397659Y147034D01*
X397712Y147005D01*
X397760Y146968D01*
X397851Y146928D01*
X397937Y146880D01*
X397996Y146865D01*
X398051Y146841D01*
X398149Y146826D01*
X398245Y146801D01*
X398345Y146795D01*
X398366Y146791D01*
X398378Y146793D01*
X398406Y146791D01*
X399984Y146791D01*
X402791Y143984D01*
X402791Y141572D01*
X402806Y141454D01*
X402813Y141335D01*
X402826Y141297D01*
X402831Y141256D01*
X402874Y141146D01*
X402911Y141033D01*
X402933Y140998D01*
X402948Y140961D01*
X403017Y140865D01*
X403081Y140764D01*
X403111Y140736D01*
X403134Y140703D01*
X403226Y140627D01*
X403313Y140546D01*
X403348Y140526D01*
X403379Y140501D01*
X403487Y140450D01*
X403591Y140392D01*
X403631Y140382D01*
X403667Y140365D01*
X403784Y140343D01*
X403899Y140313D01*
X403959Y140309D01*
X403979Y140305D01*
X404000Y140307D01*
X404060Y140303D01*
X407002Y140303D01*
X407100Y140315D01*
X407199Y140318D01*
X407257Y140335D01*
X407317Y140343D01*
X407409Y140379D01*
X407505Y140407D01*
X407557Y140437D01*
X407613Y140460D01*
X407693Y140518D01*
X407779Y140568D01*
X407854Y140634D01*
X407870Y140646D01*
X407878Y140656D01*
X407899Y140674D01*
X409016Y141791D01*
X410594Y141791D01*
X410692Y141803D01*
X410791Y141806D01*
X410850Y141823D01*
X410910Y141831D01*
X411002Y141867D01*
X411097Y141895D01*
X411149Y141925D01*
X411205Y141948D01*
X411285Y142006D01*
X411371Y142056D01*
X411446Y142122D01*
X411463Y142134D01*
X411471Y142144D01*
X411492Y142162D01*
X454326Y184996D01*
X454386Y185075D01*
X454454Y185147D01*
X454483Y185200D01*
X454520Y185248D01*
X454560Y185339D01*
X454608Y185425D01*
X454623Y185484D01*
X454647Y185539D01*
X454662Y185637D01*
X454687Y185733D01*
X454693Y185833D01*
X454697Y185854D01*
X454695Y185866D01*
X454697Y185894D01*
X454697Y210002D01*
X454685Y210100D01*
X454682Y210199D01*
X454665Y210257D01*
X454657Y210317D01*
X454621Y210409D01*
X454593Y210505D01*
X454563Y210557D01*
X454540Y210613D01*
X454482Y210693D01*
X454432Y210779D01*
X454366Y210854D01*
X454354Y210870D01*
X454344Y210878D01*
X454326Y210899D01*
X453345Y211880D01*
X453252Y211952D01*
X453162Y212031D01*
X453126Y212050D01*
X453094Y212074D01*
X452985Y212122D01*
X452879Y212176D01*
X452839Y212185D01*
X452802Y212201D01*
X452684Y212220D01*
X452568Y212246D01*
X452528Y212244D01*
X452488Y212251D01*
X452369Y212240D01*
X452251Y212236D01*
X452212Y212225D01*
X452171Y212221D01*
X452059Y212181D01*
X451945Y212148D01*
X451910Y212127D01*
X451872Y212113D01*
X451774Y212046D01*
X451671Y211986D01*
X451626Y211946D01*
X451609Y211935D01*
X451596Y211919D01*
X451550Y211880D01*
X419674Y180004D01*
X417368Y177697D01*
X400998Y177697D01*
X400900Y177685D01*
X400801Y177682D01*
X400743Y177665D01*
X400683Y177657D01*
X400591Y177621D01*
X400495Y177593D01*
X400443Y177563D01*
X400387Y177540D01*
X400307Y177482D01*
X400221Y177432D01*
X400146Y177366D01*
X400130Y177354D01*
X400122Y177344D01*
X400101Y177326D01*
X398984Y176209D01*
X395016Y176209D01*
X392209Y179016D01*
X392209Y182984D01*
X395016Y185791D01*
X398984Y185791D01*
X400101Y184674D01*
X400179Y184614D01*
X400251Y184546D01*
X400304Y184517D01*
X400352Y184480D01*
X400443Y184440D01*
X400530Y184392D01*
X400588Y184377D01*
X400644Y184353D01*
X400742Y184338D01*
X400837Y184313D01*
X400937Y184307D01*
X400958Y184303D01*
X400970Y184305D01*
X400998Y184303D01*
X414106Y184303D01*
X414204Y184315D01*
X414303Y184318D01*
X414362Y184335D01*
X414422Y184343D01*
X414514Y184379D01*
X414609Y184407D01*
X414661Y184437D01*
X414717Y184460D01*
X414797Y184518D01*
X414883Y184568D01*
X414958Y184634D01*
X414975Y184646D01*
X414983Y184656D01*
X415004Y184674D01*
X457838Y227508D01*
X457898Y227587D01*
X457966Y227659D01*
X457995Y227712D01*
X458032Y227760D01*
X458072Y227851D01*
X458120Y227937D01*
X458135Y227996D01*
X458159Y228051D01*
X458174Y228149D01*
X458199Y228245D01*
X458205Y228345D01*
X458209Y228366D01*
X458207Y228378D01*
X458209Y228406D01*
X458209Y229984D01*
X461016Y232791D01*
X464984Y232791D01*
X467791Y229984D01*
X467791Y226016D01*
X464984Y223209D01*
X463406Y223209D01*
X463308Y223197D01*
X463209Y223194D01*
X463150Y223177D01*
X463090Y223169D01*
X462998Y223133D01*
X462903Y223105D01*
X462851Y223075D01*
X462795Y223052D01*
X462715Y222994D01*
X462629Y222944D01*
X462554Y222878D01*
X462537Y222866D01*
X462529Y222856D01*
X462508Y222838D01*
X460120Y220450D01*
X460047Y220355D01*
X459969Y220266D01*
X459950Y220230D01*
X459925Y220198D01*
X459878Y220089D01*
X459824Y219983D01*
X459815Y219944D01*
X459799Y219907D01*
X459780Y219789D01*
X459754Y219673D01*
X459756Y219632D01*
X459749Y219592D01*
X459760Y219474D01*
X459764Y219355D01*
X459775Y219316D01*
X459779Y219276D01*
X459819Y219164D01*
X459852Y219049D01*
X459873Y219015D01*
X459887Y218977D01*
X459954Y218878D01*
X460014Y218776D01*
X460054Y218730D01*
X460065Y218713D01*
X460081Y218700D01*
X460120Y218655D01*
X462791Y215984D01*
X462791Y212016D01*
X461674Y210899D01*
X461614Y210821D01*
X461546Y210749D01*
X461517Y210696D01*
X461480Y210648D01*
X461440Y210557D01*
X461392Y210470D01*
X461377Y210412D01*
X461353Y210356D01*
X461338Y210258D01*
X461313Y210163D01*
X461307Y210063D01*
X461303Y210042D01*
X461305Y210030D01*
X461303Y210002D01*
X461303Y182632D01*
X458996Y180326D01*
X416162Y137492D01*
X416102Y137413D01*
X416034Y137341D01*
X416005Y137288D01*
X415968Y137240D01*
X415928Y137149D01*
X415880Y137063D01*
X415865Y137004D01*
X415841Y136949D01*
X415826Y136851D01*
X415801Y136755D01*
X415795Y136664D01*
X415793Y136654D01*
X415794Y136649D01*
X415791Y136635D01*
X415793Y136622D01*
X415791Y136594D01*
X415791Y135016D01*
X412984Y132209D01*
X409016Y132209D01*
X407899Y133326D01*
X407821Y133386D01*
X407749Y133454D01*
X407696Y133483D01*
X407648Y133520D01*
X407557Y133560D01*
X407470Y133608D01*
X407412Y133623D01*
X407356Y133647D01*
X407258Y133662D01*
X407163Y133687D01*
X407063Y133693D01*
X407042Y133697D01*
X407030Y133695D01*
X407002Y133697D01*
X401038Y133697D01*
X400900Y133680D01*
X400761Y133667D01*
X400742Y133660D01*
X400722Y133657D01*
X400593Y133606D01*
X400462Y133559D01*
X400445Y133548D01*
X400427Y133540D01*
X400314Y133459D01*
X400199Y133381D01*
X400186Y133365D01*
X400169Y133354D01*
X400081Y133246D01*
X399988Y133142D01*
X399979Y133124D01*
X399966Y133109D01*
X399907Y132983D01*
X399844Y132859D01*
X399839Y132839D01*
X399831Y132821D01*
X399805Y132685D01*
X399774Y132549D01*
X399775Y132528D01*
X399771Y132509D01*
X399780Y132370D01*
X399784Y132231D01*
X399790Y132211D01*
X399791Y132191D01*
X399834Y132059D01*
X399872Y131925D01*
X399883Y131908D01*
X399889Y131889D01*
X399963Y131771D01*
X400034Y131651D01*
X400052Y131630D01*
X400059Y131620D01*
X400074Y131606D01*
X400140Y131531D01*
X410508Y121162D01*
X410587Y121102D01*
X410659Y121034D01*
X410712Y121005D01*
X410760Y120968D01*
X410851Y120928D01*
X410937Y120880D01*
X410996Y120865D01*
X411051Y120841D01*
X411149Y120826D01*
X411245Y120801D01*
X411345Y120795D01*
X411366Y120791D01*
X411378Y120793D01*
X411406Y120791D01*
X412984Y120791D01*
X414168Y119607D01*
X414263Y119534D01*
X414352Y119455D01*
X414388Y119437D01*
X414420Y119412D01*
X414529Y119364D01*
X414635Y119310D01*
X414674Y119302D01*
X414712Y119285D01*
X414829Y119267D01*
X414945Y119241D01*
X414986Y119242D01*
X415026Y119236D01*
X415144Y119247D01*
X415263Y119250D01*
X415302Y119262D01*
X415342Y119265D01*
X415454Y119306D01*
X415569Y119339D01*
X415603Y119359D01*
X415642Y119373D01*
X415740Y119440D01*
X415843Y119500D01*
X415888Y119540D01*
X415905Y119552D01*
X415918Y119567D01*
X415963Y119607D01*
X418659Y122303D01*
X441106Y122303D01*
X446508Y116900D01*
X446587Y116840D01*
X446659Y116772D01*
X446712Y116743D01*
X446760Y116706D01*
X446851Y116666D01*
X446937Y116618D01*
X446996Y116603D01*
X447051Y116579D01*
X447149Y116564D01*
X447245Y116539D01*
X447345Y116533D01*
X447366Y116529D01*
X447378Y116531D01*
X447406Y116529D01*
X448984Y116529D01*
X451791Y113722D01*
X451791Y110572D01*
X451806Y110454D01*
X451813Y110335D01*
X451826Y110297D01*
X451831Y110256D01*
X451874Y110146D01*
X451911Y110033D01*
X451933Y109998D01*
X451948Y109961D01*
X452017Y109865D01*
X452081Y109764D01*
X452111Y109736D01*
X452134Y109703D01*
X452226Y109627D01*
X452313Y109546D01*
X452348Y109526D01*
X452379Y109501D01*
X452487Y109450D01*
X452591Y109392D01*
X452631Y109382D01*
X452667Y109365D01*
X452784Y109343D01*
X452899Y109313D01*
X452959Y109309D01*
X452979Y109305D01*
X453000Y109307D01*
X453060Y109303D01*
X488428Y109303D01*
X488546Y109318D01*
G37*
G36*
X188039Y186270D02*
X188039Y186270D01*
X188177Y186279D01*
X188196Y186285D01*
X188216Y186287D01*
X188348Y186334D01*
X188479Y186377D01*
X188497Y186388D01*
X188516Y186395D01*
X188631Y186473D01*
X188748Y186547D01*
X188762Y186562D01*
X188779Y186573D01*
X188871Y186677D01*
X188966Y186779D01*
X188976Y186796D01*
X188989Y186812D01*
X189053Y186935D01*
X189120Y187057D01*
X189125Y187077D01*
X189134Y187095D01*
X189164Y187231D01*
X189199Y187365D01*
X189201Y187393D01*
X189204Y187405D01*
X189203Y187426D01*
X189209Y187526D01*
X189209Y189594D01*
X189197Y189692D01*
X189194Y189791D01*
X189177Y189850D01*
X189169Y189910D01*
X189133Y190002D01*
X189105Y190097D01*
X189075Y190149D01*
X189052Y190205D01*
X188994Y190286D01*
X188944Y190371D01*
X188878Y190446D01*
X188866Y190463D01*
X188856Y190471D01*
X188838Y190492D01*
X185697Y193632D01*
X185697Y239002D01*
X185685Y239100D01*
X185682Y239199D01*
X185665Y239257D01*
X185657Y239317D01*
X185621Y239409D01*
X185593Y239505D01*
X185563Y239557D01*
X185540Y239613D01*
X185482Y239693D01*
X185432Y239779D01*
X185366Y239854D01*
X185354Y239870D01*
X185344Y239878D01*
X185326Y239899D01*
X184209Y241016D01*
X184209Y243474D01*
X184192Y243612D01*
X184179Y243751D01*
X184172Y243770D01*
X184169Y243790D01*
X184118Y243919D01*
X184071Y244050D01*
X184060Y244067D01*
X184052Y244085D01*
X183971Y244198D01*
X183893Y244313D01*
X183877Y244326D01*
X183866Y244343D01*
X183758Y244432D01*
X183654Y244524D01*
X183636Y244533D01*
X183621Y244546D01*
X183495Y244605D01*
X183371Y244668D01*
X183351Y244673D01*
X183333Y244681D01*
X183197Y244707D01*
X183061Y244738D01*
X183040Y244737D01*
X183021Y244741D01*
X182882Y244732D01*
X182743Y244728D01*
X182723Y244722D01*
X182703Y244721D01*
X182571Y244678D01*
X182437Y244640D01*
X182420Y244629D01*
X182401Y244623D01*
X182283Y244549D01*
X182163Y244478D01*
X182142Y244460D01*
X182132Y244453D01*
X182118Y244438D01*
X182043Y244372D01*
X179674Y242004D01*
X179614Y241925D01*
X179546Y241853D01*
X179517Y241800D01*
X179480Y241752D01*
X179440Y241661D01*
X179392Y241575D01*
X179377Y241516D01*
X179353Y241461D01*
X179338Y241363D01*
X179313Y241267D01*
X179307Y241167D01*
X179303Y241146D01*
X179305Y241134D01*
X179303Y241106D01*
X179303Y220998D01*
X179315Y220900D01*
X179318Y220801D01*
X179335Y220743D01*
X179343Y220683D01*
X179379Y220591D01*
X179407Y220495D01*
X179437Y220443D01*
X179460Y220387D01*
X179518Y220307D01*
X179568Y220221D01*
X179634Y220146D01*
X179646Y220130D01*
X179656Y220122D01*
X179674Y220101D01*
X180791Y218984D01*
X180791Y215016D01*
X177984Y212209D01*
X174016Y212209D01*
X171209Y215016D01*
X171209Y218984D01*
X172326Y220101D01*
X172386Y220179D01*
X172454Y220251D01*
X172483Y220304D01*
X172520Y220352D01*
X172560Y220443D01*
X172608Y220530D01*
X172623Y220588D01*
X172647Y220644D01*
X172662Y220742D01*
X172687Y220837D01*
X172693Y220937D01*
X172697Y220958D01*
X172695Y220970D01*
X172697Y220998D01*
X172697Y244368D01*
X235632Y307303D01*
X254286Y307303D01*
X254424Y307320D01*
X254562Y307333D01*
X254581Y307340D01*
X254602Y307343D01*
X254731Y307394D01*
X254862Y307441D01*
X254878Y307452D01*
X254897Y307460D01*
X255009Y307541D01*
X255125Y307619D01*
X255138Y307635D01*
X255155Y307646D01*
X255243Y307754D01*
X255335Y307858D01*
X255344Y307876D01*
X255357Y307891D01*
X255417Y308017D01*
X255480Y308141D01*
X255484Y308161D01*
X255493Y308179D01*
X255519Y308316D01*
X255549Y308451D01*
X255549Y308472D01*
X255553Y308491D01*
X255544Y308630D01*
X255540Y308769D01*
X255534Y308789D01*
X255533Y308809D01*
X255490Y308941D01*
X255451Y309075D01*
X255441Y309092D01*
X255435Y309111D01*
X255361Y309229D01*
X255290Y309349D01*
X255271Y309370D01*
X255265Y309380D01*
X255250Y309394D01*
X255183Y309469D01*
X254540Y310113D01*
X252877Y314127D01*
X252877Y318473D01*
X254540Y322487D01*
X254583Y322530D01*
X254669Y322640D01*
X254757Y322747D01*
X254766Y322766D01*
X254778Y322782D01*
X254834Y322909D01*
X254893Y323035D01*
X254897Y323055D01*
X254905Y323074D01*
X254927Y323211D01*
X254953Y323348D01*
X254951Y323368D01*
X254955Y323388D01*
X254942Y323526D01*
X254933Y323665D01*
X254927Y323684D01*
X254925Y323704D01*
X254878Y323835D01*
X254835Y323967D01*
X254824Y323985D01*
X254817Y324004D01*
X254739Y324118D01*
X254665Y324236D01*
X254650Y324250D01*
X254639Y324267D01*
X254535Y324358D01*
X254433Y324454D01*
X254415Y324464D01*
X254400Y324477D01*
X254276Y324540D01*
X254155Y324608D01*
X254135Y324613D01*
X254117Y324622D01*
X253981Y324652D01*
X253847Y324687D01*
X253819Y324689D01*
X253807Y324692D01*
X253786Y324691D01*
X253686Y324697D01*
X101394Y324697D01*
X101296Y324685D01*
X101197Y324682D01*
X101138Y324665D01*
X101078Y324657D01*
X100986Y324621D01*
X100891Y324593D01*
X100839Y324563D01*
X100783Y324540D01*
X100703Y324482D01*
X100617Y324432D01*
X100542Y324366D01*
X100525Y324354D01*
X100517Y324344D01*
X100496Y324326D01*
X67568Y291397D01*
X32602Y291397D01*
X32573Y291394D01*
X32544Y291396D01*
X32416Y291374D01*
X32287Y291357D01*
X32260Y291347D01*
X32230Y291342D01*
X32112Y291288D01*
X31991Y291240D01*
X31967Y291223D01*
X31940Y291211D01*
X31839Y291130D01*
X31734Y291054D01*
X31715Y291031D01*
X31692Y291012D01*
X31614Y290909D01*
X31531Y290809D01*
X31518Y290782D01*
X31501Y290758D01*
X31430Y290614D01*
X30321Y287937D01*
X26963Y284579D01*
X23568Y283173D01*
X23447Y283104D01*
X23324Y283039D01*
X23309Y283025D01*
X23292Y283015D01*
X23192Y282918D01*
X23089Y282825D01*
X23078Y282808D01*
X23063Y282794D01*
X22990Y282675D01*
X22914Y282559D01*
X22908Y282540D01*
X22897Y282523D01*
X22856Y282390D01*
X22811Y282258D01*
X22809Y282238D01*
X22803Y282219D01*
X22797Y282080D01*
X22786Y281941D01*
X22789Y281921D01*
X22788Y281901D01*
X22816Y281765D01*
X22840Y281628D01*
X22848Y281609D01*
X22853Y281590D01*
X22914Y281464D01*
X22971Y281338D01*
X22983Y281322D01*
X22992Y281304D01*
X23083Y281198D01*
X23169Y281090D01*
X23185Y281077D01*
X23199Y281062D01*
X23312Y280982D01*
X23423Y280898D01*
X23449Y280886D01*
X23459Y280879D01*
X23478Y280872D01*
X23568Y280827D01*
X26963Y279421D01*
X30209Y276174D01*
X30288Y276114D01*
X30360Y276046D01*
X30413Y276017D01*
X30461Y275980D01*
X30552Y275940D01*
X30638Y275892D01*
X30697Y275877D01*
X30753Y275853D01*
X30851Y275838D01*
X30946Y275813D01*
X31046Y275807D01*
X31067Y275803D01*
X31079Y275805D01*
X31107Y275803D01*
X97868Y275803D01*
X100174Y273496D01*
X187043Y186628D01*
X187152Y186543D01*
X187259Y186454D01*
X187278Y186446D01*
X187294Y186433D01*
X187422Y186378D01*
X187547Y186319D01*
X187567Y186315D01*
X187586Y186307D01*
X187724Y186285D01*
X187860Y186259D01*
X187880Y186260D01*
X187900Y186257D01*
X188039Y186270D01*
G37*
G36*
X105204Y16315D02*
X105204Y16315D01*
X105303Y16318D01*
X105362Y16335D01*
X105422Y16343D01*
X105514Y16379D01*
X105609Y16407D01*
X105661Y16437D01*
X105717Y16460D01*
X105797Y16518D01*
X105883Y16568D01*
X105958Y16634D01*
X105975Y16646D01*
X105983Y16656D01*
X106004Y16674D01*
X119372Y30043D01*
X119457Y30152D01*
X119546Y30259D01*
X119554Y30278D01*
X119567Y30294D01*
X119622Y30422D01*
X119681Y30547D01*
X119685Y30567D01*
X119693Y30586D01*
X119715Y30724D01*
X119741Y30860D01*
X119740Y30880D01*
X119743Y30900D01*
X119730Y31039D01*
X119721Y31177D01*
X119715Y31196D01*
X119713Y31216D01*
X119666Y31348D01*
X119623Y31479D01*
X119612Y31497D01*
X119605Y31516D01*
X119527Y31631D01*
X119453Y31748D01*
X119438Y31762D01*
X119427Y31779D01*
X119323Y31871D01*
X119221Y31966D01*
X119204Y31976D01*
X119188Y31989D01*
X119065Y32052D01*
X118943Y32120D01*
X118923Y32125D01*
X118905Y32134D01*
X118769Y32164D01*
X118635Y32199D01*
X118607Y32201D01*
X118595Y32204D01*
X118574Y32203D01*
X118474Y32209D01*
X117016Y32209D01*
X114209Y35016D01*
X114209Y38984D01*
X117016Y41791D01*
X118594Y41791D01*
X118692Y41803D01*
X118791Y41806D01*
X118850Y41823D01*
X118910Y41831D01*
X119002Y41867D01*
X119097Y41895D01*
X119149Y41925D01*
X119205Y41948D01*
X119285Y42006D01*
X119371Y42056D01*
X119446Y42122D01*
X119463Y42134D01*
X119471Y42144D01*
X119492Y42162D01*
X124326Y46996D01*
X124386Y47075D01*
X124454Y47147D01*
X124483Y47200D01*
X124520Y47248D01*
X124560Y47339D01*
X124608Y47425D01*
X124623Y47484D01*
X124647Y47539D01*
X124662Y47637D01*
X124687Y47733D01*
X124693Y47833D01*
X124697Y47854D01*
X124695Y47866D01*
X124697Y47894D01*
X124697Y125364D01*
X124685Y125462D01*
X124682Y125561D01*
X124665Y125619D01*
X124657Y125679D01*
X124621Y125771D01*
X124593Y125867D01*
X124563Y125919D01*
X124540Y125975D01*
X124482Y126055D01*
X124432Y126141D01*
X124366Y126216D01*
X124354Y126232D01*
X124344Y126240D01*
X124326Y126261D01*
X123209Y127378D01*
X123209Y129428D01*
X123194Y129546D01*
X123187Y129665D01*
X123174Y129703D01*
X123169Y129744D01*
X123126Y129854D01*
X123089Y129967D01*
X123067Y130002D01*
X123052Y130039D01*
X122983Y130135D01*
X122919Y130236D01*
X122889Y130264D01*
X122866Y130297D01*
X122774Y130373D01*
X122687Y130454D01*
X122652Y130474D01*
X122621Y130499D01*
X122513Y130550D01*
X122409Y130608D01*
X122369Y130618D01*
X122333Y130635D01*
X122216Y130657D01*
X122101Y130687D01*
X122041Y130691D01*
X122021Y130695D01*
X122000Y130693D01*
X121940Y130697D01*
X52532Y130697D01*
X26634Y156595D01*
X26611Y156613D01*
X26592Y156635D01*
X26486Y156710D01*
X26383Y156790D01*
X26356Y156801D01*
X26332Y156818D01*
X26211Y156864D01*
X26091Y156916D01*
X26062Y156921D01*
X26035Y156931D01*
X25906Y156946D01*
X25777Y156966D01*
X25748Y156963D01*
X25719Y156966D01*
X25590Y156948D01*
X25461Y156936D01*
X25433Y156926D01*
X25404Y156922D01*
X25251Y156870D01*
X23568Y156173D01*
X23447Y156104D01*
X23324Y156039D01*
X23309Y156025D01*
X23292Y156015D01*
X23192Y155918D01*
X23089Y155825D01*
X23078Y155808D01*
X23063Y155794D01*
X22990Y155675D01*
X22914Y155559D01*
X22908Y155540D01*
X22897Y155523D01*
X22856Y155390D01*
X22811Y155258D01*
X22809Y155238D01*
X22803Y155219D01*
X22797Y155080D01*
X22786Y154941D01*
X22789Y154921D01*
X22788Y154901D01*
X22816Y154765D01*
X22840Y154628D01*
X22848Y154609D01*
X22853Y154590D01*
X22914Y154464D01*
X22971Y154338D01*
X22983Y154322D01*
X22992Y154304D01*
X23083Y154198D01*
X23169Y154090D01*
X23185Y154077D01*
X23199Y154062D01*
X23312Y153982D01*
X23423Y153898D01*
X23449Y153886D01*
X23459Y153879D01*
X23478Y153872D01*
X23568Y153827D01*
X26963Y152421D01*
X30321Y149063D01*
X32139Y144675D01*
X32139Y139925D01*
X30321Y135537D01*
X26963Y132179D01*
X23568Y130773D01*
X23447Y130704D01*
X23324Y130639D01*
X23309Y130625D01*
X23292Y130615D01*
X23192Y130518D01*
X23089Y130425D01*
X23078Y130408D01*
X23063Y130394D01*
X22990Y130275D01*
X22914Y130159D01*
X22908Y130140D01*
X22897Y130123D01*
X22856Y129990D01*
X22811Y129858D01*
X22809Y129838D01*
X22803Y129819D01*
X22797Y129680D01*
X22786Y129541D01*
X22789Y129521D01*
X22788Y129501D01*
X22816Y129365D01*
X22840Y129228D01*
X22848Y129209D01*
X22853Y129190D01*
X22914Y129064D01*
X22971Y128938D01*
X22983Y128922D01*
X22992Y128904D01*
X23083Y128798D01*
X23169Y128690D01*
X23185Y128677D01*
X23199Y128662D01*
X23312Y128582D01*
X23423Y128498D01*
X23449Y128486D01*
X23459Y128479D01*
X23478Y128472D01*
X23568Y128427D01*
X26963Y127021D01*
X30321Y123663D01*
X32139Y119275D01*
X32139Y114525D01*
X30321Y110137D01*
X26963Y106779D01*
X23568Y105373D01*
X23447Y105304D01*
X23324Y105239D01*
X23309Y105225D01*
X23292Y105215D01*
X23192Y105118D01*
X23089Y105025D01*
X23078Y105008D01*
X23063Y104994D01*
X22991Y104875D01*
X22914Y104759D01*
X22908Y104740D01*
X22897Y104723D01*
X22856Y104590D01*
X22811Y104458D01*
X22809Y104438D01*
X22803Y104419D01*
X22797Y104280D01*
X22786Y104141D01*
X22789Y104121D01*
X22788Y104101D01*
X22816Y103965D01*
X22840Y103828D01*
X22848Y103809D01*
X22852Y103790D01*
X22914Y103664D01*
X22971Y103538D01*
X22983Y103522D01*
X22992Y103504D01*
X23083Y103398D01*
X23169Y103290D01*
X23185Y103277D01*
X23199Y103262D01*
X23312Y103182D01*
X23423Y103098D01*
X23449Y103086D01*
X23459Y103079D01*
X23478Y103072D01*
X23568Y103027D01*
X26963Y101621D01*
X30321Y98263D01*
X32139Y93875D01*
X32139Y89125D01*
X30321Y84737D01*
X26963Y81379D01*
X23106Y79781D01*
X22985Y79712D01*
X22862Y79647D01*
X22847Y79634D01*
X22829Y79624D01*
X22730Y79527D01*
X22627Y79433D01*
X22616Y79416D01*
X22601Y79402D01*
X22528Y79284D01*
X22452Y79168D01*
X22445Y79149D01*
X22435Y79131D01*
X22394Y78999D01*
X22349Y78867D01*
X22347Y78847D01*
X22341Y78827D01*
X22335Y78689D01*
X22324Y78550D01*
X22327Y78530D01*
X22326Y78510D01*
X22354Y78374D01*
X22378Y78237D01*
X22386Y78218D01*
X22390Y78198D01*
X22452Y78073D01*
X22509Y77947D01*
X22521Y77931D01*
X22530Y77913D01*
X22621Y77806D01*
X22707Y77698D01*
X22723Y77686D01*
X22736Y77671D01*
X22850Y77590D01*
X22961Y77507D01*
X22986Y77494D01*
X22996Y77487D01*
X23016Y77480D01*
X23106Y77436D01*
X26763Y75921D01*
X30121Y72563D01*
X31939Y68175D01*
X31939Y63425D01*
X30121Y59037D01*
X26763Y55679D01*
X23368Y54273D01*
X23247Y54204D01*
X23124Y54139D01*
X23109Y54125D01*
X23092Y54115D01*
X22992Y54018D01*
X22889Y53925D01*
X22878Y53908D01*
X22863Y53894D01*
X22791Y53775D01*
X22714Y53659D01*
X22708Y53640D01*
X22697Y53623D01*
X22656Y53490D01*
X22611Y53358D01*
X22609Y53338D01*
X22603Y53319D01*
X22597Y53180D01*
X22586Y53041D01*
X22589Y53021D01*
X22588Y53001D01*
X22616Y52865D01*
X22640Y52728D01*
X22648Y52709D01*
X22652Y52690D01*
X22714Y52564D01*
X22771Y52438D01*
X22783Y52422D01*
X22792Y52404D01*
X22883Y52298D01*
X22969Y52190D01*
X22985Y52177D01*
X22999Y52162D01*
X23112Y52082D01*
X23223Y51998D01*
X23249Y51986D01*
X23259Y51979D01*
X23278Y51972D01*
X23368Y51927D01*
X26763Y50521D01*
X30121Y47163D01*
X31939Y42775D01*
X31939Y38025D01*
X30121Y33637D01*
X26763Y30279D01*
X23368Y28873D01*
X23247Y28804D01*
X23124Y28739D01*
X23109Y28725D01*
X23092Y28715D01*
X22992Y28618D01*
X22889Y28525D01*
X22878Y28508D01*
X22863Y28494D01*
X22791Y28376D01*
X22714Y28259D01*
X22708Y28240D01*
X22697Y28223D01*
X22656Y28090D01*
X22611Y27958D01*
X22609Y27938D01*
X22603Y27919D01*
X22597Y27780D01*
X22586Y27641D01*
X22589Y27621D01*
X22588Y27601D01*
X22616Y27465D01*
X22640Y27328D01*
X22648Y27309D01*
X22652Y27290D01*
X22714Y27165D01*
X22771Y27038D01*
X22783Y27022D01*
X22792Y27004D01*
X22883Y26898D01*
X22969Y26790D01*
X22985Y26777D01*
X22999Y26762D01*
X23112Y26682D01*
X23223Y26598D01*
X23249Y26586D01*
X23259Y26579D01*
X23278Y26572D01*
X23368Y26527D01*
X26763Y25121D01*
X30121Y21763D01*
X31975Y17288D01*
X31979Y17256D01*
X32022Y17146D01*
X32059Y17033D01*
X32081Y16998D01*
X32096Y16961D01*
X32165Y16865D01*
X32229Y16764D01*
X32259Y16736D01*
X32282Y16703D01*
X32374Y16627D01*
X32461Y16546D01*
X32496Y16526D01*
X32527Y16501D01*
X32635Y16450D01*
X32739Y16392D01*
X32779Y16382D01*
X32815Y16365D01*
X32932Y16343D01*
X33047Y16313D01*
X33107Y16309D01*
X33127Y16305D01*
X33148Y16307D01*
X33208Y16303D01*
X105106Y16303D01*
X105204Y16315D01*
G37*
G36*
X274145Y7311D02*
X274145Y7311D01*
X274215Y7310D01*
X274302Y7331D01*
X274391Y7343D01*
X274456Y7368D01*
X274524Y7385D01*
X274603Y7427D01*
X274687Y7460D01*
X274743Y7501D01*
X274805Y7533D01*
X274872Y7594D01*
X274944Y7646D01*
X274989Y7700D01*
X275040Y7747D01*
X275090Y7822D01*
X275147Y7891D01*
X275177Y7955D01*
X275215Y8013D01*
X275244Y8098D01*
X275282Y8179D01*
X275296Y8248D01*
X275318Y8314D01*
X275325Y8403D01*
X275342Y8491D01*
X275338Y8561D01*
X275343Y8631D01*
X275328Y8719D01*
X275323Y8809D01*
X275301Y8875D01*
X275289Y8944D01*
X275252Y9026D01*
X275224Y9111D01*
X275187Y9170D01*
X275158Y9234D01*
X275102Y9304D01*
X275054Y9380D01*
X275003Y9428D01*
X274960Y9482D01*
X274888Y9537D01*
X274823Y9598D01*
X274762Y9632D01*
X274706Y9674D01*
X274561Y9745D01*
X274237Y9879D01*
X270879Y13237D01*
X269061Y17625D01*
X269061Y22375D01*
X270879Y26763D01*
X274237Y30121D01*
X278625Y31939D01*
X283375Y31939D01*
X287763Y30121D01*
X289521Y28363D01*
X289630Y28278D01*
X289737Y28190D01*
X289756Y28181D01*
X289772Y28168D01*
X289900Y28113D01*
X290025Y28054D01*
X290045Y28050D01*
X290064Y28042D01*
X290202Y28020D01*
X290338Y27994D01*
X290358Y27995D01*
X290378Y27992D01*
X290517Y28005D01*
X290655Y28014D01*
X290674Y28020D01*
X290694Y28022D01*
X290826Y28069D01*
X290957Y28112D01*
X290975Y28123D01*
X290994Y28130D01*
X291109Y28208D01*
X291226Y28282D01*
X291240Y28297D01*
X291257Y28308D01*
X291349Y28413D01*
X291444Y28514D01*
X291454Y28531D01*
X291467Y28547D01*
X291531Y28671D01*
X291598Y28792D01*
X291603Y28812D01*
X291612Y28830D01*
X291642Y28966D01*
X291677Y29100D01*
X291679Y29128D01*
X291682Y29140D01*
X291681Y29161D01*
X291687Y29261D01*
X291687Y41358D01*
X326838Y76508D01*
X326898Y76587D01*
X326966Y76659D01*
X326995Y76712D01*
X327032Y76760D01*
X327072Y76851D01*
X327120Y76937D01*
X327135Y76996D01*
X327159Y77051D01*
X327174Y77149D01*
X327199Y77245D01*
X327205Y77345D01*
X327209Y77366D01*
X327207Y77378D01*
X327209Y77406D01*
X327209Y78984D01*
X328326Y80101D01*
X328386Y80179D01*
X328454Y80251D01*
X328483Y80304D01*
X328520Y80352D01*
X328560Y80443D01*
X328608Y80530D01*
X328623Y80588D01*
X328647Y80644D01*
X328662Y80742D01*
X328687Y80837D01*
X328693Y80937D01*
X328697Y80958D01*
X328695Y80970D01*
X328697Y80998D01*
X328697Y107368D01*
X330632Y109303D01*
X373935Y109303D01*
X374072Y109320D01*
X374211Y109333D01*
X374230Y109340D01*
X374250Y109343D01*
X374379Y109394D01*
X374510Y109441D01*
X374527Y109452D01*
X374546Y109460D01*
X374658Y109541D01*
X374774Y109619D01*
X374787Y109635D01*
X374803Y109646D01*
X374892Y109754D01*
X374984Y109858D01*
X374993Y109876D01*
X375006Y109891D01*
X375065Y110017D01*
X375129Y110141D01*
X375133Y110161D01*
X375142Y110179D01*
X375168Y110315D01*
X375198Y110451D01*
X375198Y110472D01*
X375202Y110491D01*
X375193Y110630D01*
X375189Y110769D01*
X375183Y110789D01*
X375182Y110809D01*
X375139Y110941D01*
X375100Y111075D01*
X375090Y111092D01*
X375084Y111111D01*
X375009Y111229D01*
X374939Y111349D01*
X374920Y111370D01*
X374914Y111380D01*
X374899Y111394D01*
X374832Y111469D01*
X359742Y126560D01*
X359663Y126621D01*
X359591Y126689D01*
X359538Y126718D01*
X359490Y126755D01*
X359399Y126794D01*
X359313Y126842D01*
X359254Y126857D01*
X359199Y126881D01*
X359101Y126897D01*
X359005Y126922D01*
X358905Y126928D01*
X358885Y126931D01*
X358872Y126930D01*
X358844Y126932D01*
X318128Y126932D01*
X318030Y126919D01*
X317931Y126916D01*
X317873Y126900D01*
X317813Y126892D01*
X317721Y126856D01*
X317626Y126828D01*
X317573Y126797D01*
X317517Y126775D01*
X317437Y126717D01*
X317352Y126666D01*
X317276Y126600D01*
X317260Y126588D01*
X317252Y126579D01*
X317231Y126560D01*
X292162Y101492D01*
X292102Y101413D01*
X292034Y101341D01*
X292005Y101288D01*
X291968Y101240D01*
X291928Y101149D01*
X291880Y101063D01*
X291865Y101004D01*
X291841Y100949D01*
X291826Y100851D01*
X291801Y100755D01*
X291795Y100655D01*
X291791Y100634D01*
X291793Y100622D01*
X291791Y100594D01*
X291791Y99016D01*
X288984Y96209D01*
X285016Y96209D01*
X282209Y99016D01*
X282209Y103392D01*
X282194Y103510D01*
X282187Y103629D01*
X282174Y103667D01*
X282169Y103708D01*
X282126Y103818D01*
X282089Y103931D01*
X282067Y103966D01*
X282052Y104003D01*
X281983Y104099D01*
X281919Y104200D01*
X281889Y104228D01*
X281866Y104261D01*
X281774Y104337D01*
X281687Y104418D01*
X281652Y104438D01*
X281621Y104463D01*
X281513Y104514D01*
X281409Y104572D01*
X281369Y104582D01*
X281333Y104599D01*
X281216Y104621D01*
X281101Y104651D01*
X281041Y104655D01*
X281021Y104659D01*
X281000Y104657D01*
X280940Y104661D01*
X278858Y104661D01*
X278760Y104649D01*
X278661Y104646D01*
X278602Y104629D01*
X278542Y104621D01*
X278450Y104585D01*
X278355Y104557D01*
X278303Y104527D01*
X278247Y104504D01*
X278167Y104446D01*
X278081Y104396D01*
X278006Y104330D01*
X277989Y104318D01*
X277981Y104308D01*
X277960Y104290D01*
X274162Y100492D01*
X274102Y100413D01*
X274034Y100341D01*
X274005Y100288D01*
X273968Y100240D01*
X273928Y100149D01*
X273880Y100063D01*
X273865Y100004D01*
X273841Y99949D01*
X273826Y99851D01*
X273801Y99755D01*
X273795Y99655D01*
X273791Y99634D01*
X273793Y99622D01*
X273791Y99594D01*
X273791Y98016D01*
X270984Y95209D01*
X267016Y95209D01*
X264209Y98016D01*
X264209Y101474D01*
X264192Y101612D01*
X264179Y101751D01*
X264172Y101770D01*
X264169Y101790D01*
X264118Y101919D01*
X264071Y102050D01*
X264060Y102067D01*
X264052Y102085D01*
X263971Y102198D01*
X263893Y102313D01*
X263877Y102326D01*
X263866Y102343D01*
X263758Y102431D01*
X263654Y102524D01*
X263636Y102533D01*
X263621Y102546D01*
X263495Y102605D01*
X263371Y102668D01*
X263351Y102673D01*
X263333Y102681D01*
X263197Y102707D01*
X263061Y102738D01*
X263040Y102737D01*
X263021Y102741D01*
X262882Y102732D01*
X262743Y102728D01*
X262723Y102722D01*
X262703Y102721D01*
X262571Y102678D01*
X262437Y102640D01*
X262420Y102629D01*
X262401Y102623D01*
X262283Y102549D01*
X262163Y102478D01*
X262142Y102460D01*
X262132Y102453D01*
X262118Y102438D01*
X262043Y102372D01*
X254162Y94492D01*
X254102Y94413D01*
X254034Y94341D01*
X254005Y94288D01*
X253968Y94240D01*
X253928Y94149D01*
X253880Y94063D01*
X253865Y94004D01*
X253841Y93949D01*
X253826Y93851D01*
X253801Y93755D01*
X253795Y93655D01*
X253791Y93634D01*
X253793Y93622D01*
X253791Y93594D01*
X253791Y89816D01*
X250984Y87009D01*
X247016Y87009D01*
X244209Y89816D01*
X244209Y93784D01*
X245326Y94901D01*
X245386Y94979D01*
X245454Y95051D01*
X245483Y95104D01*
X245520Y95152D01*
X245550Y95221D01*
X264370Y114041D01*
X274940Y114041D01*
X275058Y114056D01*
X275177Y114063D01*
X275215Y114076D01*
X275256Y114081D01*
X275366Y114124D01*
X275479Y114161D01*
X275514Y114183D01*
X275551Y114198D01*
X275647Y114267D01*
X275748Y114331D01*
X275776Y114361D01*
X275809Y114384D01*
X275885Y114476D01*
X275966Y114563D01*
X275986Y114598D01*
X276011Y114629D01*
X276062Y114737D01*
X276120Y114841D01*
X276130Y114881D01*
X276147Y114917D01*
X276169Y115034D01*
X276199Y115149D01*
X276203Y115209D01*
X276207Y115229D01*
X276205Y115250D01*
X276209Y115310D01*
X276209Y116984D01*
X277326Y118101D01*
X277386Y118179D01*
X277454Y118251D01*
X277483Y118304D01*
X277520Y118352D01*
X277560Y118443D01*
X277608Y118530D01*
X277623Y118588D01*
X277647Y118644D01*
X277662Y118742D01*
X277687Y118837D01*
X277693Y118937D01*
X277697Y118958D01*
X277695Y118970D01*
X277697Y118998D01*
X277697Y164341D01*
X277887Y164530D01*
X277972Y164640D01*
X278061Y164747D01*
X278070Y164766D01*
X278082Y164782D01*
X278138Y164910D01*
X278197Y165035D01*
X278200Y165055D01*
X278208Y165074D01*
X278230Y165212D01*
X278256Y165348D01*
X278255Y165368D01*
X278258Y165388D01*
X278245Y165527D01*
X278237Y165665D01*
X278230Y165684D01*
X278229Y165704D01*
X278181Y165835D01*
X278139Y165967D01*
X278128Y165985D01*
X278121Y166004D01*
X278043Y166118D01*
X277968Y166236D01*
X277954Y166250D01*
X277942Y166267D01*
X277838Y166359D01*
X277737Y166454D01*
X277719Y166464D01*
X277704Y166477D01*
X277580Y166540D01*
X277458Y166608D01*
X277439Y166613D01*
X277421Y166622D01*
X277285Y166652D01*
X277150Y166687D01*
X277122Y166689D01*
X277110Y166692D01*
X277090Y166691D01*
X276990Y166697D01*
X261894Y166697D01*
X261796Y166685D01*
X261697Y166682D01*
X261638Y166665D01*
X261578Y166657D01*
X261486Y166621D01*
X261391Y166593D01*
X261339Y166563D01*
X261283Y166540D01*
X261203Y166482D01*
X261117Y166432D01*
X261042Y166366D01*
X261025Y166354D01*
X261017Y166344D01*
X260996Y166326D01*
X242628Y147957D01*
X242543Y147848D01*
X242454Y147741D01*
X242446Y147722D01*
X242433Y147706D01*
X242378Y147578D01*
X242319Y147453D01*
X242315Y147433D01*
X242307Y147414D01*
X242285Y147276D01*
X242259Y147140D01*
X242260Y147120D01*
X242257Y147100D01*
X242270Y146961D01*
X242279Y146823D01*
X242285Y146804D01*
X242287Y146784D01*
X242334Y146652D01*
X242377Y146521D01*
X242388Y146503D01*
X242395Y146484D01*
X242473Y146369D01*
X242547Y146252D01*
X242562Y146238D01*
X242573Y146221D01*
X242677Y146129D01*
X242779Y146034D01*
X242796Y146024D01*
X242812Y146011D01*
X242935Y145947D01*
X243057Y145880D01*
X243077Y145875D01*
X243095Y145866D01*
X243231Y145836D01*
X243365Y145801D01*
X243393Y145799D01*
X243405Y145796D01*
X243426Y145797D01*
X243526Y145791D01*
X245984Y145791D01*
X248791Y142984D01*
X248791Y139016D01*
X245984Y136209D01*
X244406Y136209D01*
X244308Y136197D01*
X244209Y136194D01*
X244150Y136177D01*
X244090Y136169D01*
X243998Y136133D01*
X243903Y136105D01*
X243851Y136075D01*
X243795Y136052D01*
X243715Y135994D01*
X243629Y135944D01*
X243554Y135878D01*
X243537Y135866D01*
X243529Y135856D01*
X243508Y135838D01*
X237674Y130004D01*
X237614Y129925D01*
X237546Y129853D01*
X237517Y129800D01*
X237480Y129752D01*
X237440Y129661D01*
X237392Y129575D01*
X237377Y129516D01*
X237353Y129461D01*
X237338Y129363D01*
X237313Y129267D01*
X237307Y129167D01*
X237303Y129146D01*
X237305Y129134D01*
X237303Y129106D01*
X237303Y8572D01*
X237318Y8454D01*
X237325Y8335D01*
X237338Y8297D01*
X237343Y8256D01*
X237386Y8146D01*
X237423Y8033D01*
X237445Y7998D01*
X237460Y7961D01*
X237529Y7865D01*
X237593Y7764D01*
X237623Y7736D01*
X237646Y7703D01*
X237738Y7627D01*
X237825Y7546D01*
X237860Y7526D01*
X237891Y7501D01*
X237999Y7450D01*
X238103Y7392D01*
X238143Y7382D01*
X238179Y7365D01*
X238296Y7343D01*
X238411Y7313D01*
X238471Y7309D01*
X238491Y7305D01*
X238512Y7307D01*
X238572Y7303D01*
X274076Y7303D01*
X274145Y7311D01*
G37*
G36*
X64404Y298015D02*
X64404Y298015D01*
X64503Y298018D01*
X64562Y298035D01*
X64622Y298043D01*
X64714Y298079D01*
X64809Y298107D01*
X64861Y298137D01*
X64917Y298160D01*
X64997Y298218D01*
X65083Y298268D01*
X65158Y298334D01*
X65175Y298346D01*
X65183Y298356D01*
X65204Y298374D01*
X98132Y331303D01*
X179712Y331303D01*
X179850Y331320D01*
X179989Y331333D01*
X180008Y331340D01*
X180028Y331343D01*
X180157Y331394D01*
X180288Y331441D01*
X180305Y331452D01*
X180323Y331460D01*
X180436Y331541D01*
X180551Y331619D01*
X180564Y331635D01*
X180581Y331646D01*
X180670Y331754D01*
X180762Y331858D01*
X180771Y331876D01*
X180784Y331891D01*
X180843Y332017D01*
X180906Y332141D01*
X180911Y332161D01*
X180919Y332179D01*
X180945Y332315D01*
X180976Y332451D01*
X180975Y332472D01*
X180979Y332491D01*
X180970Y332630D01*
X180966Y332769D01*
X180960Y332789D01*
X180959Y332809D01*
X180916Y332941D01*
X180878Y333075D01*
X180867Y333092D01*
X180861Y333111D01*
X180787Y333229D01*
X180716Y333349D01*
X180698Y333370D01*
X180691Y333380D01*
X180676Y333394D01*
X180610Y333469D01*
X173401Y340678D01*
X173378Y340696D01*
X173358Y340719D01*
X173252Y340794D01*
X173150Y340873D01*
X173122Y340885D01*
X173098Y340902D01*
X172977Y340948D01*
X172858Y341000D01*
X172829Y341004D01*
X172801Y341015D01*
X172672Y341029D01*
X172544Y341049D01*
X172514Y341047D01*
X172485Y341050D01*
X172356Y341032D01*
X172227Y341020D01*
X172199Y341010D01*
X172170Y341006D01*
X172018Y340953D01*
X168478Y339487D01*
X163122Y339487D01*
X158174Y341537D01*
X154387Y345324D01*
X152337Y350272D01*
X152337Y355628D01*
X154124Y359942D01*
X154137Y359990D01*
X154159Y360035D01*
X154179Y360143D01*
X154208Y360249D01*
X154209Y360299D01*
X154218Y360348D01*
X154212Y360457D01*
X154213Y360567D01*
X154202Y360615D01*
X154199Y360665D01*
X154165Y360769D01*
X154139Y360876D01*
X154116Y360920D01*
X154101Y360967D01*
X154042Y361060D01*
X153990Y361157D01*
X153957Y361194D01*
X153930Y361236D01*
X153850Y361311D01*
X153777Y361393D01*
X153735Y361420D01*
X153699Y361454D01*
X153603Y361507D01*
X153511Y361567D01*
X153464Y361584D01*
X153420Y361608D01*
X153314Y361635D01*
X153210Y361671D01*
X153160Y361675D01*
X153112Y361687D01*
X152952Y361697D01*
X137998Y361697D01*
X137900Y361685D01*
X137801Y361682D01*
X137743Y361665D01*
X137683Y361657D01*
X137591Y361621D01*
X137495Y361593D01*
X137443Y361563D01*
X137387Y361540D01*
X137307Y361482D01*
X137221Y361432D01*
X137146Y361366D01*
X137130Y361354D01*
X137122Y361344D01*
X137101Y361326D01*
X135984Y360209D01*
X132016Y360209D01*
X129209Y363016D01*
X129209Y366984D01*
X132016Y369791D01*
X135984Y369791D01*
X137101Y368674D01*
X137179Y368614D01*
X137251Y368546D01*
X137304Y368517D01*
X137352Y368480D01*
X137443Y368440D01*
X137530Y368392D01*
X137588Y368377D01*
X137644Y368353D01*
X137742Y368338D01*
X137837Y368313D01*
X137937Y368307D01*
X137958Y368303D01*
X137970Y368305D01*
X137998Y368303D01*
X157665Y368303D01*
X157763Y368315D01*
X157862Y368318D01*
X157920Y368335D01*
X157980Y368343D01*
X158072Y368379D01*
X158167Y368407D01*
X158220Y368437D01*
X158276Y368460D01*
X158356Y368518D01*
X158441Y368568D01*
X158517Y368634D01*
X158533Y368646D01*
X158541Y368656D01*
X158562Y368674D01*
X160152Y370265D01*
X237068Y370265D01*
X237166Y370277D01*
X237265Y370280D01*
X237324Y370297D01*
X237384Y370305D01*
X237476Y370341D01*
X237571Y370369D01*
X237623Y370399D01*
X237679Y370422D01*
X237759Y370480D01*
X237845Y370530D01*
X237920Y370596D01*
X237937Y370608D01*
X237945Y370618D01*
X237966Y370636D01*
X246860Y379531D01*
X246945Y379640D01*
X247034Y379747D01*
X247042Y379766D01*
X247055Y379782D01*
X247110Y379910D01*
X247169Y380035D01*
X247173Y380055D01*
X247181Y380074D01*
X247203Y380212D01*
X247229Y380348D01*
X247228Y380368D01*
X247231Y380388D01*
X247218Y380527D01*
X247209Y380665D01*
X247203Y380684D01*
X247201Y380704D01*
X247154Y380836D01*
X247111Y380967D01*
X247100Y380985D01*
X247093Y381004D01*
X247015Y381119D01*
X246941Y381236D01*
X246926Y381250D01*
X246915Y381267D01*
X246811Y381359D01*
X246709Y381454D01*
X246692Y381464D01*
X246676Y381477D01*
X246553Y381540D01*
X246431Y381608D01*
X246411Y381613D01*
X246393Y381622D01*
X246257Y381652D01*
X246123Y381687D01*
X246095Y381689D01*
X246083Y381692D01*
X246062Y381691D01*
X245962Y381697D01*
X29351Y381697D01*
X29213Y381680D01*
X29075Y381667D01*
X29055Y381660D01*
X29035Y381657D01*
X28906Y381606D01*
X28775Y381559D01*
X28758Y381548D01*
X28740Y381540D01*
X28627Y381459D01*
X28512Y381381D01*
X28499Y381365D01*
X28482Y381354D01*
X28394Y381246D01*
X28302Y381142D01*
X28292Y381124D01*
X28280Y381109D01*
X28220Y380983D01*
X28157Y380859D01*
X28153Y380839D01*
X28144Y380821D01*
X28118Y380685D01*
X28087Y380549D01*
X28088Y380528D01*
X28084Y380509D01*
X28093Y380370D01*
X28097Y380231D01*
X28103Y380211D01*
X28104Y380191D01*
X28147Y380059D01*
X28185Y379925D01*
X28196Y379908D01*
X28202Y379889D01*
X28277Y379771D01*
X28347Y379651D01*
X28366Y379630D01*
X28372Y379620D01*
X28387Y379606D01*
X28453Y379531D01*
X30321Y377663D01*
X32139Y373275D01*
X32139Y368525D01*
X30321Y364137D01*
X26963Y360779D01*
X22713Y359018D01*
X22687Y359004D01*
X22658Y358994D01*
X22549Y358925D01*
X22436Y358861D01*
X22415Y358840D01*
X22390Y358824D01*
X22301Y358729D01*
X22208Y358640D01*
X22192Y358614D01*
X22172Y358592D01*
X22109Y358479D01*
X22042Y358368D01*
X22033Y358340D01*
X22018Y358314D01*
X21986Y358188D01*
X21948Y358064D01*
X21947Y358035D01*
X21939Y358006D01*
X21939Y357876D01*
X21933Y357747D01*
X21939Y357718D01*
X21939Y357688D01*
X21971Y357562D01*
X21997Y357435D01*
X22010Y357408D01*
X22018Y357380D01*
X22080Y357266D01*
X22137Y357150D01*
X22156Y357127D01*
X22171Y357101D01*
X22259Y357006D01*
X22343Y356908D01*
X22368Y356890D01*
X22388Y356869D01*
X22497Y356799D01*
X22603Y356725D01*
X22631Y356714D01*
X22656Y356698D01*
X22806Y356639D01*
X24576Y356064D01*
X26174Y355249D01*
X27626Y354194D01*
X28894Y352926D01*
X29949Y351474D01*
X30764Y349876D01*
X31318Y348169D01*
X31339Y348039D01*
X21470Y348039D01*
X21352Y348024D01*
X21233Y348017D01*
X21195Y348004D01*
X21155Y347999D01*
X21044Y347956D01*
X20931Y347919D01*
X20897Y347897D01*
X20859Y347882D01*
X20763Y347812D01*
X20662Y347749D01*
X20634Y347719D01*
X20602Y347695D01*
X20526Y347604D01*
X20444Y347517D01*
X20425Y347482D01*
X20399Y347451D01*
X20348Y347343D01*
X20291Y347239D01*
X20280Y347199D01*
X20263Y347163D01*
X20241Y347046D01*
X20211Y346931D01*
X20207Y346870D01*
X20203Y346850D01*
X20205Y346830D01*
X20201Y346770D01*
X20201Y344230D01*
X20216Y344112D01*
X20223Y343993D01*
X20236Y343955D01*
X20241Y343914D01*
X20285Y343804D01*
X20321Y343691D01*
X20343Y343656D01*
X20358Y343619D01*
X20428Y343523D01*
X20491Y343422D01*
X20521Y343394D01*
X20545Y343361D01*
X20636Y343286D01*
X20723Y343204D01*
X20758Y343184D01*
X20790Y343159D01*
X20897Y343108D01*
X21002Y343050D01*
X21041Y343040D01*
X21077Y343023D01*
X21194Y343001D01*
X21309Y342971D01*
X21370Y342967D01*
X21390Y342963D01*
X21410Y342965D01*
X21470Y342961D01*
X31339Y342961D01*
X31318Y342831D01*
X30764Y341124D01*
X29949Y339526D01*
X28894Y338074D01*
X27626Y336806D01*
X26174Y335751D01*
X24576Y334936D01*
X22806Y334361D01*
X22779Y334349D01*
X22750Y334342D01*
X22636Y334281D01*
X22518Y334226D01*
X22495Y334207D01*
X22469Y334193D01*
X22373Y334106D01*
X22273Y334023D01*
X22256Y333999D01*
X22234Y333979D01*
X22162Y333871D01*
X22086Y333766D01*
X22075Y333738D01*
X22059Y333713D01*
X22017Y333591D01*
X21969Y333470D01*
X21965Y333441D01*
X21956Y333413D01*
X21945Y333283D01*
X21929Y333155D01*
X21933Y333125D01*
X21930Y333096D01*
X21953Y332968D01*
X21969Y332839D01*
X21980Y332812D01*
X21985Y332782D01*
X22038Y332664D01*
X22086Y332544D01*
X22103Y332519D01*
X22115Y332492D01*
X22196Y332391D01*
X22272Y332286D01*
X22295Y332267D01*
X22314Y332244D01*
X22418Y332166D01*
X22517Y332083D01*
X22544Y332071D01*
X22568Y332053D01*
X22713Y331982D01*
X26963Y330221D01*
X30321Y326863D01*
X32139Y322475D01*
X32139Y317725D01*
X30321Y313337D01*
X26963Y309979D01*
X23568Y308573D01*
X23447Y308504D01*
X23324Y308439D01*
X23309Y308425D01*
X23292Y308415D01*
X23192Y308318D01*
X23089Y308225D01*
X23078Y308208D01*
X23063Y308194D01*
X22990Y308075D01*
X22914Y307959D01*
X22908Y307940D01*
X22897Y307923D01*
X22856Y307790D01*
X22811Y307658D01*
X22809Y307638D01*
X22803Y307619D01*
X22797Y307480D01*
X22786Y307341D01*
X22789Y307321D01*
X22788Y307301D01*
X22816Y307165D01*
X22840Y307028D01*
X22848Y307009D01*
X22853Y306990D01*
X22914Y306864D01*
X22971Y306738D01*
X22983Y306722D01*
X22992Y306704D01*
X23083Y306598D01*
X23169Y306490D01*
X23185Y306477D01*
X23199Y306462D01*
X23312Y306382D01*
X23423Y306298D01*
X23449Y306286D01*
X23459Y306279D01*
X23478Y306272D01*
X23568Y306227D01*
X26963Y304821D01*
X30321Y301463D01*
X31430Y298786D01*
X31444Y298761D01*
X31454Y298733D01*
X31523Y298623D01*
X31587Y298510D01*
X31608Y298489D01*
X31624Y298464D01*
X31718Y298375D01*
X31809Y298282D01*
X31834Y298266D01*
X31855Y298246D01*
X31969Y298183D01*
X32080Y298115D01*
X32108Y298107D01*
X32134Y298092D01*
X32260Y298060D01*
X32384Y298022D01*
X32413Y298020D01*
X32442Y298013D01*
X32602Y298003D01*
X64306Y298003D01*
X64404Y298015D01*
G37*
G36*
X229546Y3318D02*
X229546Y3318D01*
X229665Y3325D01*
X229703Y3338D01*
X229744Y3343D01*
X229854Y3386D01*
X229967Y3423D01*
X230002Y3445D01*
X230039Y3460D01*
X230135Y3529D01*
X230236Y3593D01*
X230264Y3623D01*
X230297Y3646D01*
X230373Y3738D01*
X230454Y3825D01*
X230474Y3860D01*
X230499Y3891D01*
X230550Y3999D01*
X230608Y4103D01*
X230618Y4143D01*
X230635Y4179D01*
X230657Y4296D01*
X230687Y4411D01*
X230691Y4471D01*
X230695Y4491D01*
X230693Y4512D01*
X230697Y4572D01*
X230697Y130858D01*
X230680Y130995D01*
X230667Y131134D01*
X230660Y131153D01*
X230657Y131173D01*
X230606Y131302D01*
X230559Y131434D01*
X230548Y131450D01*
X230540Y131469D01*
X230459Y131582D01*
X230381Y131697D01*
X230365Y131710D01*
X230354Y131726D01*
X230246Y131815D01*
X230142Y131907D01*
X230124Y131916D01*
X230109Y131929D01*
X229983Y131989D01*
X229859Y132052D01*
X229839Y132056D01*
X229821Y132065D01*
X229684Y132091D01*
X229549Y132121D01*
X229528Y132121D01*
X229509Y132125D01*
X229370Y132116D01*
X229231Y132112D01*
X229211Y132106D01*
X229191Y132105D01*
X229059Y132062D01*
X228925Y132023D01*
X228908Y132013D01*
X228889Y132007D01*
X228771Y131932D01*
X228651Y131862D01*
X228630Y131843D01*
X228620Y131837D01*
X228606Y131822D01*
X228531Y131755D01*
X226984Y130209D01*
X223016Y130209D01*
X222469Y130755D01*
X222360Y130840D01*
X222253Y130929D01*
X222234Y130938D01*
X222218Y130950D01*
X222090Y131006D01*
X221965Y131065D01*
X221945Y131069D01*
X221926Y131077D01*
X221788Y131099D01*
X221652Y131125D01*
X221632Y131123D01*
X221612Y131127D01*
X221473Y131113D01*
X221335Y131105D01*
X221316Y131099D01*
X221296Y131097D01*
X221164Y131050D01*
X221033Y131007D01*
X221015Y130996D01*
X220996Y130989D01*
X220881Y130911D01*
X220764Y130837D01*
X220750Y130822D01*
X220733Y130811D01*
X220641Y130707D01*
X220546Y130605D01*
X220536Y130587D01*
X220523Y130572D01*
X220460Y130448D01*
X220392Y130327D01*
X220387Y130307D01*
X220378Y130289D01*
X220348Y130153D01*
X220313Y130019D01*
X220311Y129991D01*
X220308Y129979D01*
X220309Y129958D01*
X220303Y129858D01*
X220303Y121632D01*
X217996Y119326D01*
X110674Y12004D01*
X108368Y9697D01*
X31574Y9697D01*
X31545Y9694D01*
X31515Y9696D01*
X31387Y9674D01*
X31258Y9657D01*
X31231Y9647D01*
X31202Y9642D01*
X31083Y9588D01*
X30963Y9540D01*
X30939Y9523D01*
X30912Y9511D01*
X30810Y9430D01*
X30705Y9354D01*
X30687Y9331D01*
X30664Y9312D01*
X30585Y9209D01*
X30503Y9109D01*
X30490Y9082D01*
X30472Y9058D01*
X30401Y8914D01*
X30121Y8237D01*
X27353Y5469D01*
X27268Y5360D01*
X27180Y5253D01*
X27171Y5234D01*
X27158Y5218D01*
X27103Y5090D01*
X27044Y4965D01*
X27040Y4945D01*
X27032Y4926D01*
X27010Y4788D01*
X26984Y4652D01*
X26985Y4632D01*
X26982Y4612D01*
X26995Y4473D01*
X27004Y4335D01*
X27010Y4316D01*
X27012Y4296D01*
X27059Y4164D01*
X27102Y4033D01*
X27113Y4015D01*
X27120Y3996D01*
X27198Y3881D01*
X27272Y3764D01*
X27287Y3750D01*
X27298Y3733D01*
X27403Y3641D01*
X27504Y3546D01*
X27521Y3536D01*
X27537Y3523D01*
X27661Y3459D01*
X27782Y3392D01*
X27802Y3387D01*
X27820Y3378D01*
X27956Y3348D01*
X28090Y3313D01*
X28118Y3311D01*
X28130Y3308D01*
X28151Y3309D01*
X28251Y3303D01*
X229428Y3303D01*
X229546Y3318D01*
G37*
G36*
X339100Y72315D02*
X339100Y72315D01*
X339199Y72318D01*
X339257Y72335D01*
X339317Y72343D01*
X339409Y72379D01*
X339505Y72407D01*
X339557Y72437D01*
X339613Y72460D01*
X339693Y72518D01*
X339779Y72568D01*
X339854Y72634D01*
X339870Y72646D01*
X339878Y72656D01*
X339899Y72674D01*
X341016Y73791D01*
X344984Y73791D01*
X346101Y72674D01*
X346179Y72614D01*
X346251Y72546D01*
X346304Y72517D01*
X346352Y72480D01*
X346443Y72440D01*
X346530Y72392D01*
X346588Y72377D01*
X346644Y72353D01*
X346742Y72338D01*
X346837Y72313D01*
X346937Y72307D01*
X346958Y72303D01*
X346970Y72305D01*
X346998Y72303D01*
X492428Y72303D01*
X492546Y72318D01*
X492665Y72325D01*
X492703Y72338D01*
X492744Y72343D01*
X492854Y72386D01*
X492967Y72423D01*
X493002Y72445D01*
X493039Y72460D01*
X493135Y72529D01*
X493236Y72593D01*
X493264Y72623D01*
X493297Y72646D01*
X493373Y72738D01*
X493454Y72825D01*
X493474Y72860D01*
X493499Y72891D01*
X493550Y72999D01*
X493608Y73103D01*
X493618Y73143D01*
X493635Y73179D01*
X493657Y73296D01*
X493687Y73411D01*
X493691Y73471D01*
X493695Y73491D01*
X493693Y73512D01*
X493697Y73572D01*
X493697Y101428D01*
X493682Y101546D01*
X493675Y101665D01*
X493662Y101703D01*
X493657Y101744D01*
X493614Y101854D01*
X493577Y101967D01*
X493555Y102002D01*
X493540Y102039D01*
X493471Y102135D01*
X493407Y102236D01*
X493377Y102264D01*
X493354Y102297D01*
X493262Y102373D01*
X493175Y102454D01*
X493140Y102474D01*
X493109Y102499D01*
X493001Y102550D01*
X492897Y102608D01*
X492857Y102618D01*
X492821Y102635D01*
X492704Y102657D01*
X492589Y102687D01*
X492529Y102691D01*
X492509Y102695D01*
X492488Y102693D01*
X492428Y102697D01*
X450060Y102697D01*
X449942Y102682D01*
X449823Y102675D01*
X449785Y102662D01*
X449744Y102657D01*
X449634Y102614D01*
X449521Y102577D01*
X449486Y102555D01*
X449449Y102540D01*
X449353Y102471D01*
X449252Y102407D01*
X449224Y102377D01*
X449191Y102354D01*
X449115Y102262D01*
X449034Y102175D01*
X449014Y102140D01*
X448989Y102109D01*
X448938Y102001D01*
X448880Y101897D01*
X448870Y101857D01*
X448853Y101821D01*
X448831Y101704D01*
X448801Y101589D01*
X448797Y101529D01*
X448793Y101509D01*
X448795Y101488D01*
X448791Y101428D01*
X448791Y97016D01*
X445984Y94209D01*
X442016Y94209D01*
X440899Y95326D01*
X440821Y95386D01*
X440749Y95454D01*
X440696Y95483D01*
X440648Y95520D01*
X440557Y95560D01*
X440470Y95608D01*
X440412Y95623D01*
X440356Y95647D01*
X440258Y95662D01*
X440163Y95687D01*
X440063Y95693D01*
X440042Y95697D01*
X440030Y95695D01*
X440002Y95697D01*
X433060Y95697D01*
X432942Y95682D01*
X432823Y95675D01*
X432785Y95662D01*
X432744Y95657D01*
X432634Y95614D01*
X432521Y95577D01*
X432486Y95555D01*
X432449Y95540D01*
X432353Y95471D01*
X432252Y95407D01*
X432224Y95377D01*
X432191Y95354D01*
X432115Y95262D01*
X432034Y95175D01*
X432014Y95140D01*
X431989Y95109D01*
X431938Y95001D01*
X431880Y94897D01*
X431870Y94857D01*
X431853Y94821D01*
X431831Y94704D01*
X431801Y94589D01*
X431797Y94529D01*
X431793Y94509D01*
X431795Y94488D01*
X431791Y94428D01*
X431791Y92754D01*
X428984Y89947D01*
X425016Y89947D01*
X423899Y91064D01*
X423821Y91124D01*
X423749Y91192D01*
X423696Y91221D01*
X423648Y91258D01*
X423557Y91298D01*
X423470Y91346D01*
X423412Y91361D01*
X423356Y91385D01*
X423258Y91400D01*
X423163Y91425D01*
X423063Y91431D01*
X423042Y91435D01*
X423030Y91433D01*
X423002Y91435D01*
X356632Y91435D01*
X356534Y91423D01*
X356435Y91420D01*
X356376Y91403D01*
X356316Y91395D01*
X356224Y91359D01*
X356129Y91331D01*
X356077Y91301D01*
X356021Y91278D01*
X355941Y91220D01*
X355855Y91170D01*
X355780Y91104D01*
X355763Y91092D01*
X355755Y91082D01*
X355734Y91064D01*
X355162Y90492D01*
X355102Y90413D01*
X355034Y90341D01*
X355008Y90295D01*
X355006Y90292D01*
X355004Y90287D01*
X354968Y90240D01*
X354928Y90149D01*
X354880Y90063D01*
X354865Y90004D01*
X354841Y89949D01*
X354826Y89851D01*
X354801Y89755D01*
X354795Y89655D01*
X354791Y89634D01*
X354793Y89622D01*
X354791Y89594D01*
X354791Y88016D01*
X351984Y85209D01*
X348016Y85209D01*
X345209Y88016D01*
X345209Y91984D01*
X348016Y94791D01*
X349594Y94791D01*
X349692Y94803D01*
X349791Y94806D01*
X349850Y94823D01*
X349910Y94831D01*
X350002Y94867D01*
X350097Y94895D01*
X350149Y94925D01*
X350205Y94948D01*
X350285Y95006D01*
X350371Y95056D01*
X350446Y95122D01*
X350463Y95134D01*
X350471Y95144D01*
X350492Y95162D01*
X351064Y95734D01*
X351380Y96050D01*
X351453Y96145D01*
X351531Y96234D01*
X351550Y96270D01*
X351574Y96302D01*
X351622Y96411D01*
X351676Y96517D01*
X351685Y96556D01*
X351701Y96593D01*
X351719Y96711D01*
X351746Y96827D01*
X351744Y96868D01*
X351751Y96907D01*
X351740Y97026D01*
X351736Y97145D01*
X351725Y97184D01*
X351721Y97224D01*
X351681Y97336D01*
X351648Y97451D01*
X351627Y97485D01*
X351613Y97523D01*
X351546Y97622D01*
X351486Y97725D01*
X351446Y97770D01*
X351435Y97787D01*
X351419Y97800D01*
X351380Y97845D01*
X351209Y98016D01*
X351209Y101428D01*
X351194Y101546D01*
X351187Y101665D01*
X351174Y101703D01*
X351169Y101744D01*
X351126Y101854D01*
X351089Y101967D01*
X351067Y102002D01*
X351052Y102039D01*
X350983Y102135D01*
X350919Y102236D01*
X350889Y102264D01*
X350866Y102297D01*
X350774Y102373D01*
X350687Y102454D01*
X350652Y102474D01*
X350621Y102499D01*
X350513Y102550D01*
X350409Y102608D01*
X350369Y102618D01*
X350333Y102635D01*
X350216Y102657D01*
X350101Y102687D01*
X350041Y102691D01*
X350021Y102695D01*
X350000Y102693D01*
X349940Y102697D01*
X336572Y102697D01*
X336454Y102682D01*
X336335Y102675D01*
X336297Y102662D01*
X336256Y102657D01*
X336146Y102614D01*
X336033Y102577D01*
X335998Y102555D01*
X335961Y102540D01*
X335865Y102471D01*
X335764Y102407D01*
X335736Y102377D01*
X335703Y102354D01*
X335627Y102262D01*
X335546Y102175D01*
X335526Y102140D01*
X335501Y102109D01*
X335450Y102001D01*
X335392Y101897D01*
X335382Y101857D01*
X335365Y101821D01*
X335343Y101704D01*
X335313Y101589D01*
X335309Y101529D01*
X335305Y101509D01*
X335307Y101488D01*
X335303Y101428D01*
X335303Y80998D01*
X335315Y80900D01*
X335318Y80801D01*
X335335Y80743D01*
X335343Y80683D01*
X335379Y80591D01*
X335407Y80495D01*
X335437Y80443D01*
X335460Y80387D01*
X335518Y80307D01*
X335568Y80221D01*
X335634Y80146D01*
X335646Y80130D01*
X335656Y80122D01*
X335674Y80101D01*
X336791Y78984D01*
X336791Y75016D01*
X336245Y74469D01*
X336160Y74360D01*
X336071Y74253D01*
X336062Y74234D01*
X336050Y74218D01*
X335994Y74090D01*
X335935Y73965D01*
X335931Y73945D01*
X335923Y73926D01*
X335901Y73788D01*
X335875Y73652D01*
X335877Y73632D01*
X335873Y73612D01*
X335887Y73473D01*
X335895Y73335D01*
X335901Y73316D01*
X335903Y73296D01*
X335950Y73164D01*
X335993Y73033D01*
X336004Y73015D01*
X336011Y72996D01*
X336089Y72881D01*
X336163Y72764D01*
X336178Y72750D01*
X336189Y72733D01*
X336293Y72641D01*
X336395Y72546D01*
X336413Y72536D01*
X336428Y72523D01*
X336552Y72460D01*
X336673Y72392D01*
X336693Y72387D01*
X336711Y72378D01*
X336847Y72348D01*
X336981Y72313D01*
X337009Y72311D01*
X337021Y72308D01*
X337042Y72309D01*
X337142Y72303D01*
X339002Y72303D01*
X339100Y72315D01*
G37*
G36*
X11887Y3320D02*
X11887Y3320D01*
X12025Y3333D01*
X12045Y3340D01*
X12065Y3343D01*
X12194Y3394D01*
X12325Y3441D01*
X12342Y3452D01*
X12360Y3460D01*
X12473Y3541D01*
X12588Y3619D01*
X12601Y3635D01*
X12618Y3646D01*
X12706Y3754D01*
X12798Y3858D01*
X12808Y3876D01*
X12820Y3891D01*
X12880Y4017D01*
X12943Y4141D01*
X12947Y4161D01*
X12956Y4179D01*
X12982Y4315D01*
X13013Y4451D01*
X13012Y4472D01*
X13016Y4491D01*
X13007Y4630D01*
X13003Y4769D01*
X12997Y4789D01*
X12996Y4809D01*
X12953Y4941D01*
X12915Y5075D01*
X12904Y5092D01*
X12898Y5111D01*
X12823Y5229D01*
X12753Y5349D01*
X12734Y5370D01*
X12728Y5380D01*
X12713Y5394D01*
X12647Y5469D01*
X9879Y8237D01*
X8061Y12625D01*
X8061Y17375D01*
X9879Y21763D01*
X13237Y25121D01*
X16632Y26527D01*
X16753Y26596D01*
X16876Y26661D01*
X16891Y26675D01*
X16908Y26685D01*
X17008Y26782D01*
X17111Y26875D01*
X17122Y26892D01*
X17137Y26906D01*
X17209Y27025D01*
X17286Y27141D01*
X17292Y27160D01*
X17303Y27177D01*
X17344Y27310D01*
X17389Y27442D01*
X17391Y27462D01*
X17397Y27481D01*
X17403Y27620D01*
X17414Y27759D01*
X17411Y27779D01*
X17412Y27799D01*
X17384Y27935D01*
X17360Y28072D01*
X17352Y28090D01*
X17348Y28110D01*
X17286Y28236D01*
X17229Y28362D01*
X17217Y28378D01*
X17208Y28396D01*
X17117Y28502D01*
X17031Y28610D01*
X17015Y28623D01*
X17001Y28638D01*
X16888Y28718D01*
X16777Y28802D01*
X16751Y28814D01*
X16741Y28821D01*
X16722Y28828D01*
X16632Y28873D01*
X13237Y30279D01*
X9879Y33637D01*
X8061Y38025D01*
X8061Y42775D01*
X9879Y47163D01*
X13237Y50521D01*
X16632Y51927D01*
X16753Y51996D01*
X16876Y52061D01*
X16891Y52075D01*
X16908Y52085D01*
X17008Y52182D01*
X17111Y52275D01*
X17122Y52292D01*
X17137Y52306D01*
X17209Y52424D01*
X17286Y52541D01*
X17292Y52560D01*
X17303Y52577D01*
X17344Y52710D01*
X17389Y52842D01*
X17391Y52862D01*
X17397Y52881D01*
X17403Y53020D01*
X17414Y53159D01*
X17411Y53179D01*
X17412Y53199D01*
X17384Y53335D01*
X17360Y53472D01*
X17352Y53491D01*
X17348Y53510D01*
X17286Y53635D01*
X17229Y53762D01*
X17217Y53778D01*
X17208Y53796D01*
X17117Y53902D01*
X17031Y54010D01*
X17015Y54023D01*
X17001Y54038D01*
X16888Y54118D01*
X16777Y54202D01*
X16751Y54214D01*
X16741Y54221D01*
X16722Y54228D01*
X16632Y54273D01*
X13237Y55679D01*
X9879Y59037D01*
X8061Y63425D01*
X8061Y68175D01*
X9879Y72563D01*
X13237Y75921D01*
X17094Y77519D01*
X17215Y77588D01*
X17338Y77653D01*
X17353Y77666D01*
X17371Y77676D01*
X17470Y77773D01*
X17573Y77867D01*
X17584Y77884D01*
X17599Y77898D01*
X17672Y78016D01*
X17748Y78132D01*
X17755Y78151D01*
X17765Y78169D01*
X17806Y78301D01*
X17851Y78433D01*
X17853Y78453D01*
X17859Y78473D01*
X17865Y78611D01*
X17876Y78750D01*
X17873Y78770D01*
X17874Y78790D01*
X17846Y78926D01*
X17822Y79063D01*
X17814Y79082D01*
X17810Y79102D01*
X17748Y79227D01*
X17691Y79353D01*
X17679Y79369D01*
X17670Y79387D01*
X17579Y79494D01*
X17493Y79602D01*
X17477Y79614D01*
X17464Y79629D01*
X17350Y79710D01*
X17239Y79793D01*
X17214Y79806D01*
X17204Y79813D01*
X17184Y79820D01*
X17094Y79864D01*
X13437Y81379D01*
X10079Y84737D01*
X8261Y89125D01*
X8261Y93875D01*
X10079Y98263D01*
X13437Y101621D01*
X16832Y103027D01*
X16953Y103096D01*
X17076Y103161D01*
X17091Y103175D01*
X17108Y103185D01*
X17208Y103282D01*
X17311Y103375D01*
X17322Y103392D01*
X17337Y103406D01*
X17409Y103524D01*
X17486Y103641D01*
X17492Y103660D01*
X17503Y103677D01*
X17544Y103810D01*
X17589Y103942D01*
X17591Y103962D01*
X17597Y103981D01*
X17603Y104120D01*
X17614Y104259D01*
X17611Y104279D01*
X17612Y104299D01*
X17584Y104435D01*
X17560Y104572D01*
X17552Y104591D01*
X17548Y104610D01*
X17486Y104735D01*
X17429Y104862D01*
X17417Y104878D01*
X17408Y104896D01*
X17317Y105002D01*
X17231Y105110D01*
X17215Y105123D01*
X17201Y105138D01*
X17088Y105218D01*
X16977Y105302D01*
X16951Y105314D01*
X16941Y105321D01*
X16922Y105328D01*
X16832Y105373D01*
X13437Y106779D01*
X10079Y110137D01*
X8261Y114525D01*
X8261Y119275D01*
X10079Y123663D01*
X13437Y127021D01*
X16832Y128427D01*
X16953Y128496D01*
X17076Y128561D01*
X17091Y128575D01*
X17108Y128585D01*
X17208Y128682D01*
X17311Y128775D01*
X17322Y128792D01*
X17337Y128806D01*
X17409Y128924D01*
X17486Y129041D01*
X17492Y129060D01*
X17503Y129077D01*
X17544Y129210D01*
X17589Y129342D01*
X17591Y129362D01*
X17597Y129381D01*
X17603Y129520D01*
X17614Y129659D01*
X17611Y129679D01*
X17612Y129699D01*
X17584Y129835D01*
X17560Y129972D01*
X17552Y129991D01*
X17547Y130010D01*
X17486Y130135D01*
X17429Y130262D01*
X17417Y130278D01*
X17408Y130296D01*
X17317Y130402D01*
X17231Y130510D01*
X17215Y130523D01*
X17201Y130538D01*
X17088Y130618D01*
X16977Y130702D01*
X16951Y130714D01*
X16941Y130721D01*
X16922Y130728D01*
X16832Y130773D01*
X13437Y132179D01*
X10079Y135537D01*
X8261Y139925D01*
X8261Y144675D01*
X10079Y149063D01*
X13437Y152421D01*
X16832Y153827D01*
X16953Y153896D01*
X17076Y153961D01*
X17091Y153975D01*
X17108Y153985D01*
X17208Y154082D01*
X17311Y154175D01*
X17322Y154192D01*
X17337Y154206D01*
X17409Y154324D01*
X17486Y154441D01*
X17492Y154460D01*
X17503Y154477D01*
X17544Y154610D01*
X17589Y154742D01*
X17591Y154762D01*
X17597Y154781D01*
X17603Y154920D01*
X17614Y155059D01*
X17611Y155079D01*
X17612Y155099D01*
X17584Y155235D01*
X17560Y155372D01*
X17552Y155391D01*
X17547Y155410D01*
X17486Y155535D01*
X17429Y155662D01*
X17417Y155678D01*
X17408Y155696D01*
X17317Y155802D01*
X17231Y155910D01*
X17215Y155923D01*
X17201Y155938D01*
X17088Y156018D01*
X16977Y156102D01*
X16951Y156114D01*
X16941Y156121D01*
X16922Y156128D01*
X16832Y156173D01*
X13437Y157579D01*
X10079Y160937D01*
X8261Y165325D01*
X8261Y170075D01*
X10079Y174463D01*
X13437Y177821D01*
X16832Y179227D01*
X16953Y179296D01*
X17076Y179361D01*
X17091Y179375D01*
X17108Y179385D01*
X17208Y179482D01*
X17311Y179575D01*
X17322Y179592D01*
X17337Y179606D01*
X17409Y179724D01*
X17486Y179841D01*
X17492Y179860D01*
X17503Y179877D01*
X17544Y180010D01*
X17589Y180142D01*
X17591Y180162D01*
X17597Y180181D01*
X17603Y180320D01*
X17614Y180459D01*
X17611Y180479D01*
X17612Y180499D01*
X17584Y180635D01*
X17560Y180772D01*
X17552Y180791D01*
X17547Y180810D01*
X17486Y180935D01*
X17429Y181062D01*
X17417Y181078D01*
X17408Y181096D01*
X17317Y181202D01*
X17231Y181310D01*
X17215Y181323D01*
X17201Y181338D01*
X17088Y181418D01*
X16977Y181502D01*
X16951Y181514D01*
X16941Y181521D01*
X16922Y181528D01*
X16832Y181573D01*
X13437Y182979D01*
X10079Y186337D01*
X8261Y190725D01*
X8261Y195475D01*
X10079Y199863D01*
X13437Y203221D01*
X16832Y204627D01*
X16953Y204696D01*
X17076Y204761D01*
X17091Y204775D01*
X17108Y204785D01*
X17208Y204882D01*
X17311Y204975D01*
X17322Y204992D01*
X17337Y205006D01*
X17409Y205124D01*
X17486Y205241D01*
X17492Y205260D01*
X17503Y205277D01*
X17544Y205410D01*
X17589Y205542D01*
X17591Y205562D01*
X17597Y205581D01*
X17603Y205720D01*
X17614Y205859D01*
X17611Y205879D01*
X17612Y205899D01*
X17584Y206035D01*
X17560Y206172D01*
X17552Y206191D01*
X17547Y206210D01*
X17486Y206335D01*
X17429Y206462D01*
X17417Y206478D01*
X17408Y206496D01*
X17317Y206602D01*
X17231Y206710D01*
X17215Y206723D01*
X17201Y206738D01*
X17088Y206818D01*
X16977Y206902D01*
X16951Y206914D01*
X16941Y206921D01*
X16922Y206928D01*
X16832Y206973D01*
X13437Y208379D01*
X10079Y211737D01*
X8261Y216125D01*
X8261Y220875D01*
X10079Y225263D01*
X13437Y228621D01*
X16832Y230027D01*
X16953Y230096D01*
X17076Y230161D01*
X17091Y230175D01*
X17108Y230185D01*
X17208Y230282D01*
X17311Y230375D01*
X17322Y230392D01*
X17337Y230406D01*
X17409Y230524D01*
X17486Y230641D01*
X17492Y230660D01*
X17503Y230677D01*
X17544Y230810D01*
X17589Y230942D01*
X17591Y230962D01*
X17597Y230981D01*
X17603Y231120D01*
X17614Y231259D01*
X17611Y231279D01*
X17612Y231299D01*
X17584Y231435D01*
X17560Y231572D01*
X17552Y231591D01*
X17547Y231610D01*
X17486Y231735D01*
X17429Y231862D01*
X17417Y231878D01*
X17408Y231896D01*
X17317Y232002D01*
X17231Y232110D01*
X17215Y232123D01*
X17201Y232138D01*
X17088Y232218D01*
X16977Y232302D01*
X16951Y232314D01*
X16941Y232321D01*
X16922Y232328D01*
X16832Y232373D01*
X13437Y233779D01*
X10079Y237137D01*
X8261Y241525D01*
X8261Y246275D01*
X10079Y250663D01*
X13437Y254021D01*
X16832Y255427D01*
X16953Y255496D01*
X17076Y255561D01*
X17091Y255575D01*
X17108Y255585D01*
X17208Y255682D01*
X17311Y255775D01*
X17322Y255792D01*
X17337Y255806D01*
X17409Y255924D01*
X17486Y256041D01*
X17492Y256060D01*
X17503Y256077D01*
X17544Y256210D01*
X17589Y256342D01*
X17591Y256362D01*
X17597Y256381D01*
X17603Y256520D01*
X17614Y256659D01*
X17611Y256679D01*
X17612Y256699D01*
X17584Y256835D01*
X17560Y256972D01*
X17552Y256991D01*
X17547Y257010D01*
X17486Y257135D01*
X17429Y257262D01*
X17417Y257278D01*
X17408Y257296D01*
X17317Y257402D01*
X17231Y257510D01*
X17215Y257523D01*
X17201Y257538D01*
X17088Y257618D01*
X16977Y257702D01*
X16951Y257714D01*
X16941Y257721D01*
X16922Y257728D01*
X16832Y257773D01*
X13437Y259179D01*
X10079Y262537D01*
X8261Y266925D01*
X8261Y271675D01*
X10079Y276063D01*
X13437Y279421D01*
X16832Y280827D01*
X16953Y280896D01*
X17076Y280961D01*
X17091Y280975D01*
X17108Y280985D01*
X17208Y281082D01*
X17311Y281175D01*
X17322Y281192D01*
X17337Y281206D01*
X17409Y281324D01*
X17486Y281441D01*
X17492Y281460D01*
X17503Y281477D01*
X17544Y281610D01*
X17589Y281742D01*
X17591Y281762D01*
X17597Y281781D01*
X17603Y281920D01*
X17614Y282059D01*
X17611Y282079D01*
X17612Y282099D01*
X17584Y282235D01*
X17560Y282372D01*
X17552Y282391D01*
X17547Y282410D01*
X17486Y282535D01*
X17429Y282662D01*
X17417Y282678D01*
X17408Y282696D01*
X17317Y282802D01*
X17231Y282910D01*
X17215Y282923D01*
X17201Y282938D01*
X17088Y283018D01*
X16977Y283102D01*
X16951Y283114D01*
X16941Y283121D01*
X16922Y283128D01*
X16832Y283173D01*
X13437Y284579D01*
X10079Y287937D01*
X8261Y292325D01*
X8261Y297075D01*
X10079Y301463D01*
X13437Y304821D01*
X16832Y306227D01*
X16953Y306296D01*
X17076Y306361D01*
X17091Y306375D01*
X17108Y306385D01*
X17208Y306482D01*
X17311Y306575D01*
X17322Y306592D01*
X17337Y306606D01*
X17409Y306724D01*
X17486Y306841D01*
X17492Y306860D01*
X17503Y306877D01*
X17544Y307010D01*
X17589Y307142D01*
X17591Y307162D01*
X17597Y307181D01*
X17603Y307320D01*
X17614Y307459D01*
X17611Y307479D01*
X17612Y307499D01*
X17584Y307635D01*
X17560Y307772D01*
X17552Y307791D01*
X17547Y307810D01*
X17486Y307935D01*
X17429Y308062D01*
X17417Y308078D01*
X17408Y308096D01*
X17317Y308202D01*
X17231Y308310D01*
X17215Y308323D01*
X17201Y308338D01*
X17088Y308418D01*
X16977Y308502D01*
X16951Y308514D01*
X16941Y308521D01*
X16922Y308528D01*
X16832Y308573D01*
X13437Y309979D01*
X10079Y313337D01*
X8261Y317725D01*
X8261Y322475D01*
X10079Y326863D01*
X13437Y330221D01*
X17687Y331982D01*
X17713Y331996D01*
X17742Y332006D01*
X17851Y332075D01*
X17964Y332139D01*
X17985Y332160D01*
X18010Y332176D01*
X18099Y332271D01*
X18192Y332360D01*
X18208Y332386D01*
X18228Y332408D01*
X18291Y332521D01*
X18358Y332632D01*
X18367Y332660D01*
X18382Y332686D01*
X18414Y332812D01*
X18452Y332936D01*
X18453Y332965D01*
X18461Y332994D01*
X18461Y333124D01*
X18467Y333253D01*
X18461Y333282D01*
X18461Y333312D01*
X18429Y333438D01*
X18403Y333565D01*
X18390Y333592D01*
X18382Y333620D01*
X18320Y333734D01*
X18263Y333850D01*
X18244Y333873D01*
X18229Y333899D01*
X18141Y333994D01*
X18057Y334092D01*
X18032Y334110D01*
X18012Y334131D01*
X17903Y334201D01*
X17797Y334275D01*
X17769Y334286D01*
X17744Y334302D01*
X17594Y334361D01*
X15824Y334936D01*
X14226Y335751D01*
X12774Y336806D01*
X11506Y338074D01*
X10451Y339526D01*
X9636Y341124D01*
X9082Y342831D01*
X9061Y342961D01*
X18930Y342961D01*
X19048Y342976D01*
X19167Y342983D01*
X19205Y342996D01*
X19245Y343001D01*
X19356Y343044D01*
X19469Y343081D01*
X19503Y343103D01*
X19541Y343118D01*
X19637Y343188D01*
X19738Y343251D01*
X19766Y343281D01*
X19798Y343304D01*
X19874Y343396D01*
X19956Y343483D01*
X19975Y343518D01*
X20001Y343549D01*
X20052Y343657D01*
X20109Y343761D01*
X20120Y343801D01*
X20137Y343837D01*
X20159Y343954D01*
X20189Y344069D01*
X20193Y344130D01*
X20197Y344150D01*
X20195Y344170D01*
X20199Y344230D01*
X20199Y346770D01*
X20184Y346888D01*
X20177Y347007D01*
X20164Y347045D01*
X20159Y347085D01*
X20115Y347196D01*
X20079Y347309D01*
X20057Y347344D01*
X20042Y347381D01*
X19972Y347477D01*
X19909Y347578D01*
X19879Y347606D01*
X19855Y347639D01*
X19764Y347714D01*
X19677Y347796D01*
X19642Y347816D01*
X19610Y347841D01*
X19503Y347892D01*
X19398Y347950D01*
X19359Y347960D01*
X19323Y347977D01*
X19206Y347999D01*
X19091Y348029D01*
X19030Y348033D01*
X19010Y348037D01*
X18990Y348035D01*
X18930Y348039D01*
X9061Y348039D01*
X9082Y348169D01*
X9636Y349876D01*
X10451Y351474D01*
X11506Y352926D01*
X12774Y354194D01*
X14226Y355249D01*
X15824Y356064D01*
X17594Y356639D01*
X17621Y356651D01*
X17650Y356658D01*
X17764Y356719D01*
X17882Y356774D01*
X17905Y356793D01*
X17931Y356807D01*
X18027Y356894D01*
X18127Y356977D01*
X18144Y357001D01*
X18166Y357021D01*
X18238Y357129D01*
X18314Y357234D01*
X18325Y357262D01*
X18341Y357287D01*
X18383Y357409D01*
X18431Y357530D01*
X18435Y357559D01*
X18444Y357587D01*
X18455Y357717D01*
X18471Y357845D01*
X18467Y357875D01*
X18470Y357904D01*
X18447Y358032D01*
X18431Y358161D01*
X18420Y358188D01*
X18415Y358218D01*
X18362Y358336D01*
X18314Y358456D01*
X18297Y358481D01*
X18285Y358508D01*
X18204Y358609D01*
X18128Y358714D01*
X18105Y358733D01*
X18086Y358756D01*
X17982Y358834D01*
X17883Y358917D01*
X17856Y358929D01*
X17832Y358947D01*
X17687Y359018D01*
X13437Y360779D01*
X10079Y364137D01*
X8261Y368525D01*
X8261Y373275D01*
X10079Y377663D01*
X11947Y379531D01*
X12032Y379640D01*
X12120Y379747D01*
X12129Y379766D01*
X12142Y379782D01*
X12197Y379910D01*
X12256Y380035D01*
X12260Y380055D01*
X12268Y380074D01*
X12290Y380212D01*
X12316Y380348D01*
X12315Y380368D01*
X12318Y380388D01*
X12305Y380527D01*
X12296Y380665D01*
X12290Y380684D01*
X12288Y380704D01*
X12241Y380836D01*
X12198Y380967D01*
X12187Y380985D01*
X12180Y381004D01*
X12102Y381119D01*
X12028Y381236D01*
X12013Y381250D01*
X12002Y381267D01*
X11897Y381359D01*
X11796Y381454D01*
X11779Y381464D01*
X11763Y381477D01*
X11639Y381541D01*
X11518Y381608D01*
X11498Y381613D01*
X11480Y381622D01*
X11344Y381652D01*
X11210Y381687D01*
X11182Y381689D01*
X11170Y381692D01*
X11149Y381691D01*
X11049Y381697D01*
X4572Y381697D01*
X4454Y381682D01*
X4335Y381675D01*
X4297Y381662D01*
X4256Y381657D01*
X4146Y381614D01*
X4033Y381577D01*
X3998Y381555D01*
X3961Y381540D01*
X3865Y381471D01*
X3764Y381407D01*
X3736Y381377D01*
X3703Y381354D01*
X3627Y381262D01*
X3546Y381175D01*
X3526Y381140D01*
X3501Y381109D01*
X3450Y381001D01*
X3392Y380897D01*
X3382Y380857D01*
X3365Y380821D01*
X3343Y380704D01*
X3313Y380589D01*
X3309Y380529D01*
X3305Y380509D01*
X3307Y380488D01*
X3303Y380428D01*
X3303Y4572D01*
X3318Y4454D01*
X3325Y4335D01*
X3338Y4297D01*
X3343Y4256D01*
X3386Y4146D01*
X3423Y4033D01*
X3445Y3998D01*
X3460Y3961D01*
X3529Y3865D01*
X3593Y3764D01*
X3623Y3736D01*
X3646Y3703D01*
X3738Y3627D01*
X3825Y3546D01*
X3860Y3526D01*
X3891Y3501D01*
X3999Y3450D01*
X4103Y3392D01*
X4143Y3382D01*
X4179Y3365D01*
X4296Y3343D01*
X4411Y3313D01*
X4471Y3309D01*
X4491Y3305D01*
X4512Y3307D01*
X4572Y3303D01*
X11749Y3303D01*
X11887Y3320D01*
G37*
%LPC*%
G36*
X698537Y219664D02*
X698537Y219664D01*
X698164Y220037D01*
X698164Y259563D01*
X698537Y259936D01*
X747063Y259936D01*
X747436Y259563D01*
X747436Y220037D01*
X747063Y219664D01*
X698537Y219664D01*
G37*
%LPD*%
%LPC*%
G36*
X602537Y52664D02*
X602537Y52664D01*
X602164Y53037D01*
X602164Y92563D01*
X602537Y92936D01*
X651063Y92936D01*
X651436Y92563D01*
X651436Y53037D01*
X651063Y52664D01*
X602537Y52664D01*
G37*
%LPD*%
%LPC*%
G36*
X698537Y52664D02*
X698537Y52664D01*
X698164Y53037D01*
X698164Y92563D01*
X698537Y92936D01*
X747063Y92936D01*
X747436Y92563D01*
X747436Y53037D01*
X747063Y52664D01*
X698537Y52664D01*
G37*
%LPD*%
%LPC*%
G36*
X600537Y287664D02*
X600537Y287664D01*
X600164Y288037D01*
X600164Y326563D01*
X600537Y326936D01*
X649063Y326936D01*
X649436Y326563D01*
X649436Y288037D01*
X649063Y287664D01*
X600537Y287664D01*
G37*
%LPD*%
G36*
X312131Y131260D02*
X312131Y131260D01*
X312249Y131264D01*
X312288Y131275D01*
X312329Y131279D01*
X312441Y131319D01*
X312555Y131352D01*
X312590Y131373D01*
X312628Y131387D01*
X312726Y131454D01*
X312829Y131514D01*
X312874Y131554D01*
X312891Y131565D01*
X312904Y131581D01*
X312950Y131620D01*
X314867Y133537D01*
X327940Y133537D01*
X328058Y133552D01*
X328177Y133560D01*
X328215Y133572D01*
X328256Y133577D01*
X328366Y133621D01*
X328479Y133658D01*
X328514Y133679D01*
X328551Y133694D01*
X328647Y133764D01*
X328748Y133828D01*
X328776Y133857D01*
X328809Y133881D01*
X328885Y133973D01*
X328966Y134059D01*
X328986Y134095D01*
X329011Y134126D01*
X329062Y134234D01*
X329120Y134338D01*
X329130Y134377D01*
X329147Y134414D01*
X329169Y134530D01*
X329199Y134646D01*
X329203Y134706D01*
X329207Y134726D01*
X329205Y134746D01*
X329209Y134807D01*
X329209Y136984D01*
X330326Y138101D01*
X330386Y138179D01*
X330454Y138251D01*
X330483Y138304D01*
X330520Y138352D01*
X330560Y138443D01*
X330608Y138530D01*
X330623Y138588D01*
X330647Y138644D01*
X330662Y138742D01*
X330687Y138837D01*
X330693Y138937D01*
X330697Y138958D01*
X330695Y138970D01*
X330697Y138998D01*
X330697Y154002D01*
X330685Y154100D01*
X330682Y154199D01*
X330665Y154257D01*
X330657Y154317D01*
X330621Y154409D01*
X330593Y154505D01*
X330563Y154557D01*
X330540Y154613D01*
X330482Y154693D01*
X330432Y154779D01*
X330366Y154854D01*
X330354Y154870D01*
X330344Y154878D01*
X330326Y154899D01*
X329209Y156016D01*
X329209Y159984D01*
X332016Y162791D01*
X335984Y162791D01*
X338791Y159984D01*
X338791Y156016D01*
X337674Y154899D01*
X337614Y154821D01*
X337546Y154749D01*
X337517Y154696D01*
X337480Y154648D01*
X337440Y154557D01*
X337392Y154470D01*
X337377Y154412D01*
X337353Y154356D01*
X337338Y154258D01*
X337313Y154163D01*
X337307Y154063D01*
X337303Y154042D01*
X337305Y154030D01*
X337303Y154002D01*
X337303Y138998D01*
X337315Y138900D01*
X337318Y138801D01*
X337335Y138743D01*
X337343Y138683D01*
X337379Y138591D01*
X337407Y138495D01*
X337437Y138443D01*
X337460Y138387D01*
X337518Y138307D01*
X337568Y138221D01*
X337634Y138146D01*
X337646Y138130D01*
X337656Y138122D01*
X337674Y138101D01*
X338791Y136984D01*
X338791Y134807D01*
X338806Y134688D01*
X338813Y134570D01*
X338826Y134531D01*
X338831Y134491D01*
X338874Y134380D01*
X338911Y134267D01*
X338933Y134233D01*
X338948Y134195D01*
X339017Y134099D01*
X339081Y133998D01*
X339111Y133971D01*
X339134Y133938D01*
X339226Y133862D01*
X339313Y133780D01*
X339348Y133761D01*
X339379Y133735D01*
X339487Y133684D01*
X339591Y133627D01*
X339631Y133617D01*
X339667Y133600D01*
X339784Y133577D01*
X339899Y133548D01*
X339959Y133544D01*
X339979Y133540D01*
X340000Y133541D01*
X340060Y133537D01*
X356166Y133537D01*
X356284Y133552D01*
X356403Y133560D01*
X356441Y133572D01*
X356482Y133577D01*
X356592Y133621D01*
X356705Y133658D01*
X356740Y133679D01*
X356777Y133694D01*
X356873Y133764D01*
X356974Y133828D01*
X357002Y133857D01*
X357035Y133881D01*
X357111Y133973D01*
X357192Y134059D01*
X357212Y134095D01*
X357237Y134126D01*
X357288Y134234D01*
X357346Y134338D01*
X357356Y134377D01*
X357373Y134414D01*
X357395Y134530D01*
X357425Y134646D01*
X357429Y134706D01*
X357433Y134726D01*
X357431Y134746D01*
X357435Y134807D01*
X357435Y135133D01*
X359741Y137440D01*
X359742Y137440D01*
X360838Y138536D01*
X360898Y138614D01*
X360966Y138686D01*
X360995Y138739D01*
X361006Y138753D01*
X361011Y138759D01*
X361012Y138760D01*
X361032Y138787D01*
X361072Y138878D01*
X361120Y138965D01*
X361134Y139019D01*
X361147Y139047D01*
X361148Y139055D01*
X361159Y139079D01*
X361174Y139177D01*
X361199Y139273D01*
X361204Y139343D01*
X361207Y139360D01*
X361206Y139375D01*
X361209Y139393D01*
X361207Y139405D01*
X361209Y139433D01*
X361209Y139440D01*
X361194Y139558D01*
X361187Y139677D01*
X361180Y139699D01*
X361179Y139710D01*
X361173Y139725D01*
X361169Y139756D01*
X361126Y139866D01*
X361089Y139979D01*
X361072Y140005D01*
X361071Y140009D01*
X361066Y140016D01*
X361052Y140051D01*
X360983Y140147D01*
X360919Y140248D01*
X360889Y140276D01*
X360866Y140309D01*
X360774Y140385D01*
X360687Y140466D01*
X360652Y140486D01*
X360621Y140511D01*
X360513Y140562D01*
X360409Y140620D01*
X360369Y140630D01*
X360333Y140647D01*
X360216Y140669D01*
X360101Y140699D01*
X360041Y140703D01*
X360021Y140707D01*
X360000Y140705D01*
X359940Y140709D01*
X356516Y140709D01*
X353709Y143516D01*
X353709Y147484D01*
X354826Y148601D01*
X354886Y148679D01*
X354954Y148751D01*
X354983Y148804D01*
X355020Y148852D01*
X355060Y148943D01*
X355108Y149030D01*
X355123Y149088D01*
X355147Y149144D01*
X355162Y149242D01*
X355187Y149337D01*
X355193Y149437D01*
X355197Y149458D01*
X355195Y149470D01*
X355197Y149498D01*
X355197Y150586D01*
X355185Y150684D01*
X355182Y150783D01*
X355165Y150841D01*
X355157Y150901D01*
X355121Y150993D01*
X355093Y151088D01*
X355063Y151141D01*
X355040Y151197D01*
X354982Y151277D01*
X354932Y151362D01*
X354866Y151438D01*
X354854Y151454D01*
X354844Y151462D01*
X354826Y151483D01*
X354209Y152099D01*
X354209Y156068D01*
X357016Y158875D01*
X361428Y158875D01*
X361546Y158890D01*
X361665Y158897D01*
X361703Y158909D01*
X361744Y158914D01*
X361854Y158958D01*
X361967Y158995D01*
X362002Y159017D01*
X362039Y159031D01*
X362135Y159101D01*
X362236Y159165D01*
X362264Y159195D01*
X362297Y159218D01*
X362373Y159310D01*
X362454Y159397D01*
X362474Y159432D01*
X362499Y159463D01*
X362550Y159571D01*
X362608Y159675D01*
X362618Y159714D01*
X362635Y159751D01*
X362657Y159868D01*
X362687Y159983D01*
X362691Y160043D01*
X362695Y160063D01*
X362693Y160084D01*
X362697Y160144D01*
X362697Y162952D01*
X362685Y163050D01*
X362682Y163149D01*
X362665Y163207D01*
X362657Y163267D01*
X362621Y163359D01*
X362593Y163455D01*
X362563Y163507D01*
X362540Y163563D01*
X362482Y163643D01*
X362432Y163729D01*
X362366Y163804D01*
X362354Y163820D01*
X362344Y163828D01*
X362326Y163849D01*
X361209Y164966D01*
X361209Y168428D01*
X361194Y168546D01*
X361187Y168665D01*
X361174Y168703D01*
X361169Y168744D01*
X361126Y168854D01*
X361089Y168967D01*
X361067Y169002D01*
X361052Y169039D01*
X360983Y169135D01*
X360919Y169236D01*
X360889Y169264D01*
X360866Y169297D01*
X360774Y169373D01*
X360687Y169454D01*
X360652Y169474D01*
X360621Y169499D01*
X360513Y169550D01*
X360409Y169608D01*
X360369Y169618D01*
X360333Y169635D01*
X360216Y169657D01*
X360101Y169687D01*
X360041Y169691D01*
X360021Y169695D01*
X360000Y169693D01*
X359940Y169697D01*
X338998Y169697D01*
X338900Y169685D01*
X338801Y169682D01*
X338743Y169665D01*
X338683Y169657D01*
X338591Y169621D01*
X338495Y169593D01*
X338443Y169563D01*
X338387Y169540D01*
X338307Y169482D01*
X338221Y169432D01*
X338146Y169366D01*
X338130Y169354D01*
X338122Y169344D01*
X338101Y169326D01*
X336984Y168209D01*
X333406Y168209D01*
X333308Y168197D01*
X333209Y168194D01*
X333150Y168177D01*
X333090Y168169D01*
X332998Y168133D01*
X332903Y168105D01*
X332851Y168075D01*
X332795Y168052D01*
X332714Y167994D01*
X332629Y167944D01*
X332554Y167878D01*
X332537Y167866D01*
X332529Y167856D01*
X332508Y167838D01*
X316162Y151492D01*
X316102Y151413D01*
X316034Y151341D01*
X316005Y151288D01*
X315968Y151240D01*
X315928Y151149D01*
X315880Y151063D01*
X315865Y151004D01*
X315841Y150949D01*
X315826Y150851D01*
X315801Y150755D01*
X315795Y150655D01*
X315791Y150634D01*
X315793Y150622D01*
X315791Y150594D01*
X315791Y149016D01*
X312984Y146209D01*
X310572Y146209D01*
X310454Y146194D01*
X310335Y146187D01*
X310297Y146174D01*
X310256Y146169D01*
X310146Y146126D01*
X310033Y146089D01*
X309998Y146067D01*
X309961Y146052D01*
X309865Y145983D01*
X309764Y145919D01*
X309736Y145889D01*
X309703Y145866D01*
X309627Y145774D01*
X309546Y145687D01*
X309526Y145652D01*
X309501Y145621D01*
X309450Y145513D01*
X309392Y145409D01*
X309382Y145369D01*
X309365Y145333D01*
X309343Y145216D01*
X309313Y145101D01*
X309309Y145041D01*
X309305Y145021D01*
X309307Y145000D01*
X309303Y144940D01*
X309303Y133998D01*
X309315Y133900D01*
X309318Y133801D01*
X309335Y133743D01*
X309343Y133683D01*
X309379Y133591D01*
X309407Y133495D01*
X309437Y133443D01*
X309460Y133387D01*
X309518Y133307D01*
X309568Y133221D01*
X309634Y133146D01*
X309646Y133130D01*
X309656Y133122D01*
X309674Y133101D01*
X311155Y131620D01*
X311249Y131547D01*
X311338Y131469D01*
X311374Y131450D01*
X311406Y131426D01*
X311515Y131378D01*
X311621Y131324D01*
X311661Y131315D01*
X311698Y131299D01*
X311816Y131280D01*
X311932Y131254D01*
X311972Y131256D01*
X312012Y131249D01*
X312131Y131260D01*
G37*
%LPC*%
G36*
X162311Y261359D02*
X162311Y261359D01*
X155864Y264030D01*
X150930Y268964D01*
X148259Y275411D01*
X148259Y282389D01*
X150930Y288836D01*
X155864Y293770D01*
X162311Y296441D01*
X169289Y296441D01*
X175736Y293770D01*
X180670Y288836D01*
X183341Y282389D01*
X183341Y275411D01*
X180670Y268964D01*
X175736Y264030D01*
X169289Y261359D01*
X162311Y261359D01*
G37*
%LPD*%
%LPC*%
G36*
X56511Y174959D02*
X56511Y174959D01*
X50064Y177630D01*
X45130Y182564D01*
X42459Y189011D01*
X42459Y195989D01*
X45130Y202436D01*
X50064Y207370D01*
X56511Y210041D01*
X63489Y210041D01*
X69936Y207370D01*
X74870Y202436D01*
X77541Y195989D01*
X77541Y189011D01*
X74870Y182564D01*
X69936Y177630D01*
X63489Y174959D01*
X56511Y174959D01*
G37*
%LPD*%
%LPC*%
G36*
X456016Y320209D02*
X456016Y320209D01*
X453209Y323016D01*
X453209Y324594D01*
X453197Y324692D01*
X453194Y324791D01*
X453177Y324850D01*
X453169Y324910D01*
X453133Y325002D01*
X453105Y325097D01*
X453075Y325149D01*
X453052Y325205D01*
X452994Y325285D01*
X452944Y325371D01*
X452878Y325446D01*
X452866Y325463D01*
X452856Y325471D01*
X452838Y325492D01*
X418266Y360064D01*
X418187Y360124D01*
X418115Y360192D01*
X418062Y360221D01*
X418014Y360258D01*
X417923Y360298D01*
X417837Y360346D01*
X417778Y360361D01*
X417723Y360385D01*
X417625Y360400D01*
X417529Y360425D01*
X417429Y360431D01*
X417408Y360435D01*
X417396Y360433D01*
X417368Y360435D01*
X384866Y360435D01*
X384436Y360866D01*
X384355Y360928D01*
X384292Y360988D01*
X384276Y360997D01*
X384253Y361018D01*
X384217Y361036D01*
X384185Y361061D01*
X384075Y361108D01*
X384058Y361117D01*
X384013Y361142D01*
X384006Y361143D01*
X383969Y361162D01*
X383930Y361171D01*
X383893Y361187D01*
X383775Y361206D01*
X383659Y361232D01*
X383619Y361231D01*
X383579Y361237D01*
X383460Y361226D01*
X383341Y361222D01*
X383302Y361211D01*
X383262Y361207D01*
X383219Y361192D01*
X383217Y361191D01*
X383200Y361185D01*
X383150Y361167D01*
X383036Y361134D01*
X383001Y361113D01*
X382963Y361100D01*
X382932Y361079D01*
X382921Y361074D01*
X382860Y361030D01*
X382762Y360972D01*
X382717Y360932D01*
X382700Y360921D01*
X382686Y360906D01*
X382675Y360896D01*
X382664Y360888D01*
X382658Y360881D01*
X382641Y360866D01*
X381984Y360209D01*
X378016Y360209D01*
X375209Y363016D01*
X375209Y366984D01*
X378016Y369791D01*
X380940Y369791D01*
X381058Y369806D01*
X381177Y369813D01*
X381215Y369826D01*
X381256Y369831D01*
X381366Y369874D01*
X381479Y369911D01*
X381514Y369933D01*
X381551Y369948D01*
X381647Y370017D01*
X381748Y370081D01*
X381776Y370111D01*
X381809Y370134D01*
X381885Y370226D01*
X381966Y370313D01*
X381986Y370348D01*
X382011Y370379D01*
X382062Y370487D01*
X382120Y370591D01*
X382130Y370631D01*
X382147Y370667D01*
X382169Y370784D01*
X382199Y370899D01*
X382203Y370959D01*
X382207Y370979D01*
X382207Y370982D01*
X385016Y373791D01*
X388984Y373791D01*
X391101Y371674D01*
X391179Y371614D01*
X391251Y371546D01*
X391304Y371517D01*
X391352Y371480D01*
X391443Y371440D01*
X391530Y371392D01*
X391588Y371377D01*
X391644Y371353D01*
X391742Y371338D01*
X391837Y371313D01*
X391937Y371307D01*
X391958Y371303D01*
X391970Y371305D01*
X391998Y371303D01*
X415002Y371303D01*
X415100Y371315D01*
X415199Y371318D01*
X415257Y371335D01*
X415317Y371343D01*
X415409Y371379D01*
X415505Y371407D01*
X415557Y371437D01*
X415613Y371460D01*
X415693Y371518D01*
X415779Y371568D01*
X415854Y371634D01*
X415870Y371646D01*
X415878Y371656D01*
X415899Y371674D01*
X417016Y372791D01*
X420984Y372791D01*
X423791Y369984D01*
X423791Y366016D01*
X423620Y365845D01*
X423547Y365751D01*
X423469Y365662D01*
X423450Y365626D01*
X423426Y365594D01*
X423378Y365485D01*
X423324Y365379D01*
X423315Y365339D01*
X423299Y365302D01*
X423280Y365184D01*
X423254Y365068D01*
X423256Y365028D01*
X423249Y364988D01*
X423260Y364870D01*
X423264Y364751D01*
X423275Y364712D01*
X423279Y364672D01*
X423319Y364559D01*
X423352Y364445D01*
X423373Y364410D01*
X423387Y364372D01*
X423453Y364274D01*
X423514Y364171D01*
X423554Y364126D01*
X423565Y364109D01*
X423581Y364096D01*
X423620Y364050D01*
X457508Y330162D01*
X457587Y330102D01*
X457659Y330034D01*
X457712Y330005D01*
X457760Y329968D01*
X457851Y329928D01*
X457937Y329880D01*
X457996Y329865D01*
X458051Y329841D01*
X458149Y329826D01*
X458245Y329801D01*
X458345Y329795D01*
X458366Y329791D01*
X458378Y329793D01*
X458406Y329791D01*
X459984Y329791D01*
X462791Y326984D01*
X462791Y323016D01*
X459984Y320209D01*
X456016Y320209D01*
G37*
%LPD*%
%LPC*%
G36*
X242016Y241209D02*
X242016Y241209D01*
X239209Y244016D01*
X239209Y247984D01*
X241755Y250531D01*
X241841Y250640D01*
X241929Y250747D01*
X241938Y250766D01*
X241950Y250782D01*
X242006Y250910D01*
X242065Y251035D01*
X242069Y251055D01*
X242077Y251074D01*
X242099Y251212D01*
X242125Y251348D01*
X242123Y251368D01*
X242127Y251388D01*
X242113Y251527D01*
X242105Y251665D01*
X242099Y251684D01*
X242097Y251704D01*
X242050Y251836D01*
X242007Y251967D01*
X241996Y251985D01*
X241989Y252004D01*
X241911Y252119D01*
X241837Y252236D01*
X241822Y252250D01*
X241811Y252267D01*
X241706Y252359D01*
X241605Y252454D01*
X241587Y252464D01*
X241572Y252477D01*
X241448Y252541D01*
X241327Y252608D01*
X241307Y252613D01*
X241289Y252622D01*
X241153Y252652D01*
X241019Y252687D01*
X240991Y252689D01*
X240979Y252692D01*
X240958Y252691D01*
X240858Y252697D01*
X224894Y252697D01*
X224796Y252685D01*
X224697Y252682D01*
X224638Y252665D01*
X224578Y252657D01*
X224486Y252621D01*
X224391Y252593D01*
X224339Y252563D01*
X224283Y252540D01*
X224203Y252482D01*
X224117Y252432D01*
X224042Y252366D01*
X224025Y252354D01*
X224017Y252344D01*
X223996Y252326D01*
X220162Y248492D01*
X220102Y248413D01*
X220034Y248341D01*
X220005Y248288D01*
X219968Y248240D01*
X219928Y248149D01*
X219880Y248063D01*
X219865Y248004D01*
X219841Y247949D01*
X219826Y247851D01*
X219801Y247755D01*
X219795Y247655D01*
X219791Y247634D01*
X219793Y247622D01*
X219791Y247594D01*
X219791Y246016D01*
X216984Y243209D01*
X213016Y243209D01*
X210209Y246016D01*
X210209Y249984D01*
X213016Y252791D01*
X214594Y252791D01*
X214692Y252803D01*
X214791Y252806D01*
X214850Y252823D01*
X214910Y252831D01*
X215002Y252867D01*
X215097Y252895D01*
X215149Y252925D01*
X215205Y252948D01*
X215285Y253006D01*
X215371Y253056D01*
X215446Y253122D01*
X215463Y253134D01*
X215471Y253144D01*
X215492Y253162D01*
X221632Y259303D01*
X267002Y259303D01*
X267100Y259315D01*
X267199Y259318D01*
X267257Y259335D01*
X267317Y259343D01*
X267409Y259379D01*
X267505Y259407D01*
X267557Y259437D01*
X267613Y259460D01*
X267693Y259518D01*
X267779Y259568D01*
X267854Y259634D01*
X267870Y259646D01*
X267878Y259656D01*
X267899Y259674D01*
X269016Y260791D01*
X272984Y260791D01*
X275791Y257984D01*
X275791Y254016D01*
X272984Y251209D01*
X269016Y251209D01*
X267899Y252326D01*
X267821Y252386D01*
X267749Y252454D01*
X267696Y252483D01*
X267648Y252520D01*
X267557Y252560D01*
X267470Y252608D01*
X267412Y252623D01*
X267356Y252647D01*
X267258Y252662D01*
X267163Y252687D01*
X267063Y252693D01*
X267042Y252697D01*
X267030Y252695D01*
X267002Y252697D01*
X260142Y252697D01*
X260005Y252680D01*
X259866Y252667D01*
X259847Y252660D01*
X259827Y252657D01*
X259698Y252606D01*
X259566Y252559D01*
X259550Y252548D01*
X259531Y252540D01*
X259418Y252459D01*
X259303Y252381D01*
X259290Y252365D01*
X259274Y252354D01*
X259185Y252246D01*
X259093Y252142D01*
X259084Y252124D01*
X259071Y252109D01*
X259011Y251983D01*
X258948Y251859D01*
X258944Y251839D01*
X258935Y251821D01*
X258909Y251685D01*
X258879Y251549D01*
X258879Y251528D01*
X258875Y251509D01*
X258884Y251370D01*
X258888Y251231D01*
X258894Y251211D01*
X258895Y251191D01*
X258938Y251059D01*
X258977Y250925D01*
X258987Y250908D01*
X258993Y250889D01*
X259068Y250771D01*
X259138Y250651D01*
X259157Y250630D01*
X259163Y250620D01*
X259178Y250606D01*
X259245Y250531D01*
X261791Y247984D01*
X261791Y244016D01*
X258984Y241209D01*
X255016Y241209D01*
X253899Y242326D01*
X253821Y242386D01*
X253749Y242454D01*
X253696Y242483D01*
X253648Y242520D01*
X253557Y242560D01*
X253470Y242608D01*
X253412Y242623D01*
X253356Y242647D01*
X253258Y242662D01*
X253163Y242687D01*
X253063Y242693D01*
X253042Y242697D01*
X253030Y242695D01*
X253002Y242697D01*
X247998Y242697D01*
X247900Y242685D01*
X247801Y242682D01*
X247743Y242665D01*
X247683Y242657D01*
X247591Y242621D01*
X247495Y242593D01*
X247443Y242563D01*
X247387Y242540D01*
X247307Y242482D01*
X247221Y242432D01*
X247146Y242366D01*
X247130Y242354D01*
X247122Y242344D01*
X247101Y242326D01*
X245984Y241209D01*
X242016Y241209D01*
G37*
%LPD*%
G36*
X383058Y135318D02*
X383058Y135318D01*
X383177Y135325D01*
X383215Y135338D01*
X383256Y135343D01*
X383366Y135386D01*
X383479Y135423D01*
X383514Y135445D01*
X383551Y135460D01*
X383647Y135529D01*
X383748Y135593D01*
X383776Y135623D01*
X383809Y135646D01*
X383885Y135738D01*
X383966Y135825D01*
X383986Y135860D01*
X384011Y135891D01*
X384062Y135999D01*
X384120Y136103D01*
X384130Y136143D01*
X384147Y136179D01*
X384169Y136296D01*
X384199Y136411D01*
X384203Y136471D01*
X384207Y136491D01*
X384207Y136493D01*
X384206Y136513D01*
X384209Y136572D01*
X384209Y140984D01*
X387016Y143791D01*
X388474Y143791D01*
X388612Y143808D01*
X388751Y143821D01*
X388770Y143828D01*
X388790Y143831D01*
X388919Y143882D01*
X389050Y143929D01*
X389067Y143940D01*
X389085Y143948D01*
X389198Y144029D01*
X389313Y144107D01*
X389326Y144123D01*
X389343Y144134D01*
X389432Y144242D01*
X389524Y144346D01*
X389533Y144364D01*
X389546Y144379D01*
X389605Y144505D01*
X389668Y144629D01*
X389673Y144649D01*
X389681Y144667D01*
X389707Y144803D01*
X389738Y144939D01*
X389737Y144960D01*
X389741Y144979D01*
X389732Y145118D01*
X389728Y145257D01*
X389722Y145277D01*
X389721Y145297D01*
X389678Y145429D01*
X389640Y145563D01*
X389629Y145580D01*
X389623Y145599D01*
X389549Y145717D01*
X389478Y145837D01*
X389460Y145858D01*
X389453Y145868D01*
X389438Y145882D01*
X389372Y145957D01*
X371475Y163855D01*
X371379Y163929D01*
X371288Y164008D01*
X371254Y164026D01*
X371223Y164050D01*
X371112Y164098D01*
X371005Y164152D01*
X370967Y164161D01*
X370932Y164176D01*
X370812Y164195D01*
X370694Y164221D01*
X370656Y164220D01*
X370617Y164226D01*
X370497Y164214D01*
X370376Y164210D01*
X370339Y164200D01*
X370301Y164196D01*
X370187Y164155D01*
X370071Y164121D01*
X370042Y164104D01*
X370033Y164101D01*
X370028Y164098D01*
X370002Y164088D01*
X369901Y164020D01*
X369798Y163959D01*
X369771Y163935D01*
X369764Y163931D01*
X369754Y163921D01*
X369738Y163910D01*
X369725Y163894D01*
X369677Y163852D01*
X369672Y163847D01*
X369613Y163770D01*
X369546Y163699D01*
X369535Y163679D01*
X369528Y163671D01*
X369511Y163638D01*
X369478Y163595D01*
X369439Y163505D01*
X369392Y163420D01*
X369385Y163391D01*
X369383Y163388D01*
X369378Y163367D01*
X369377Y163360D01*
X369352Y163303D01*
X369337Y163206D01*
X369313Y163113D01*
X369306Y163008D01*
X369303Y162988D01*
X369304Y162977D01*
X369303Y162952D01*
X369303Y143998D01*
X369315Y143900D01*
X369318Y143801D01*
X369335Y143743D01*
X369343Y143683D01*
X369379Y143591D01*
X369407Y143495D01*
X369437Y143443D01*
X369460Y143387D01*
X369518Y143307D01*
X369568Y143221D01*
X369634Y143146D01*
X369646Y143130D01*
X369656Y143122D01*
X369674Y143101D01*
X370791Y141984D01*
X370791Y138016D01*
X370245Y137469D01*
X370160Y137360D01*
X370071Y137253D01*
X370062Y137234D01*
X370050Y137218D01*
X369994Y137090D01*
X369935Y136965D01*
X369931Y136945D01*
X369923Y136926D01*
X369901Y136788D01*
X369875Y136652D01*
X369877Y136632D01*
X369873Y136612D01*
X369887Y136473D01*
X369895Y136335D01*
X369901Y136316D01*
X369903Y136296D01*
X369950Y136164D01*
X369993Y136033D01*
X370004Y136015D01*
X370011Y135996D01*
X370089Y135881D01*
X370163Y135764D01*
X370178Y135750D01*
X370189Y135733D01*
X370293Y135641D01*
X370395Y135546D01*
X370413Y135536D01*
X370428Y135523D01*
X370552Y135460D01*
X370673Y135392D01*
X370693Y135387D01*
X370711Y135378D01*
X370847Y135348D01*
X370981Y135313D01*
X371009Y135311D01*
X371021Y135308D01*
X371042Y135309D01*
X371142Y135303D01*
X382940Y135303D01*
X383058Y135318D01*
G37*
%LPC*%
G36*
X506016Y204209D02*
X506016Y204209D01*
X503209Y207016D01*
X503209Y210984D01*
X506016Y213791D01*
X509984Y213791D01*
X511101Y212674D01*
X511179Y212614D01*
X511251Y212546D01*
X511304Y212517D01*
X511352Y212480D01*
X511443Y212440D01*
X511530Y212392D01*
X511588Y212377D01*
X511644Y212353D01*
X511742Y212338D01*
X511837Y212313D01*
X511937Y212307D01*
X511958Y212303D01*
X511970Y212305D01*
X511998Y212303D01*
X521106Y212303D01*
X521204Y212315D01*
X521303Y212318D01*
X521362Y212335D01*
X521422Y212343D01*
X521514Y212379D01*
X521609Y212407D01*
X521661Y212437D01*
X521717Y212460D01*
X521797Y212518D01*
X521883Y212568D01*
X521958Y212634D01*
X521975Y212646D01*
X521983Y212656D01*
X522004Y212674D01*
X522838Y213508D01*
X522898Y213587D01*
X522966Y213659D01*
X522995Y213712D01*
X523032Y213760D01*
X523072Y213851D01*
X523120Y213937D01*
X523135Y213996D01*
X523159Y214051D01*
X523174Y214149D01*
X523199Y214245D01*
X523205Y214345D01*
X523209Y214366D01*
X523207Y214378D01*
X523209Y214406D01*
X523209Y215984D01*
X526016Y218791D01*
X529984Y218791D01*
X532791Y215984D01*
X532791Y212016D01*
X529984Y209209D01*
X528406Y209209D01*
X528308Y209197D01*
X528209Y209194D01*
X528150Y209177D01*
X528090Y209169D01*
X527998Y209133D01*
X527903Y209105D01*
X527851Y209075D01*
X527795Y209052D01*
X527715Y208994D01*
X527629Y208944D01*
X527554Y208878D01*
X527537Y208866D01*
X527529Y208856D01*
X527508Y208838D01*
X524368Y205697D01*
X511998Y205697D01*
X511900Y205685D01*
X511801Y205682D01*
X511743Y205665D01*
X511683Y205657D01*
X511591Y205621D01*
X511495Y205593D01*
X511443Y205563D01*
X511387Y205540D01*
X511307Y205482D01*
X511221Y205432D01*
X511146Y205366D01*
X511130Y205354D01*
X511122Y205344D01*
X511101Y205326D01*
X509984Y204209D01*
X506016Y204209D01*
G37*
%LPD*%
%LPC*%
G36*
X461016Y145209D02*
X461016Y145209D01*
X458209Y148016D01*
X458209Y151984D01*
X461016Y154791D01*
X464984Y154791D01*
X466101Y153674D01*
X466179Y153614D01*
X466251Y153546D01*
X466304Y153517D01*
X466352Y153480D01*
X466443Y153440D01*
X466530Y153392D01*
X466588Y153377D01*
X466644Y153353D01*
X466742Y153338D01*
X466837Y153313D01*
X466937Y153307D01*
X466958Y153303D01*
X466970Y153305D01*
X466998Y153303D01*
X469106Y153303D01*
X469204Y153315D01*
X469303Y153318D01*
X469362Y153335D01*
X469422Y153343D01*
X469514Y153379D01*
X469609Y153407D01*
X469661Y153437D01*
X469717Y153460D01*
X469797Y153518D01*
X469883Y153568D01*
X469958Y153634D01*
X469975Y153646D01*
X469983Y153656D01*
X470004Y153674D01*
X472838Y156508D01*
X472898Y156587D01*
X472966Y156659D01*
X472995Y156712D01*
X473032Y156760D01*
X473072Y156851D01*
X473120Y156937D01*
X473135Y156996D01*
X473159Y157051D01*
X473174Y157149D01*
X473199Y157245D01*
X473205Y157345D01*
X473209Y157366D01*
X473207Y157378D01*
X473209Y157406D01*
X473209Y158984D01*
X476016Y161791D01*
X479984Y161791D01*
X482791Y158984D01*
X482791Y155016D01*
X479984Y152209D01*
X478406Y152209D01*
X478308Y152197D01*
X478209Y152194D01*
X478150Y152177D01*
X478090Y152169D01*
X477998Y152133D01*
X477903Y152105D01*
X477851Y152075D01*
X477795Y152052D01*
X477715Y151994D01*
X477629Y151944D01*
X477554Y151878D01*
X477537Y151866D01*
X477529Y151856D01*
X477508Y151838D01*
X472368Y146697D01*
X466998Y146697D01*
X466900Y146685D01*
X466801Y146682D01*
X466743Y146665D01*
X466683Y146657D01*
X466591Y146621D01*
X466495Y146593D01*
X466443Y146563D01*
X466387Y146540D01*
X466307Y146482D01*
X466221Y146432D01*
X466146Y146366D01*
X466130Y146354D01*
X466122Y146344D01*
X466101Y146326D01*
X464984Y145209D01*
X461016Y145209D01*
G37*
%LPD*%
%LPC*%
G36*
X214016Y79209D02*
X214016Y79209D01*
X211209Y82016D01*
X211209Y85984D01*
X212326Y87101D01*
X212386Y87179D01*
X212454Y87251D01*
X212483Y87304D01*
X212520Y87352D01*
X212560Y87443D01*
X212608Y87530D01*
X212623Y87588D01*
X212647Y87644D01*
X212662Y87742D01*
X212687Y87837D01*
X212693Y87937D01*
X212697Y87958D01*
X212695Y87970D01*
X212697Y87998D01*
X212697Y96002D01*
X212685Y96100D01*
X212682Y96199D01*
X212665Y96257D01*
X212657Y96317D01*
X212621Y96409D01*
X212593Y96505D01*
X212563Y96557D01*
X212540Y96613D01*
X212482Y96693D01*
X212432Y96779D01*
X212366Y96854D01*
X212354Y96870D01*
X212344Y96878D01*
X212326Y96899D01*
X211209Y98016D01*
X211209Y101984D01*
X214016Y104791D01*
X217984Y104791D01*
X220791Y101984D01*
X220791Y98016D01*
X219674Y96899D01*
X219614Y96821D01*
X219546Y96749D01*
X219517Y96696D01*
X219480Y96648D01*
X219440Y96557D01*
X219392Y96471D01*
X219377Y96412D01*
X219353Y96356D01*
X219338Y96258D01*
X219313Y96163D01*
X219307Y96063D01*
X219303Y96042D01*
X219305Y96030D01*
X219303Y96002D01*
X219303Y87998D01*
X219315Y87900D01*
X219318Y87801D01*
X219335Y87743D01*
X219343Y87683D01*
X219379Y87591D01*
X219407Y87495D01*
X219437Y87443D01*
X219460Y87387D01*
X219518Y87307D01*
X219568Y87221D01*
X219634Y87146D01*
X219646Y87130D01*
X219656Y87122D01*
X219674Y87101D01*
X220791Y85984D01*
X220791Y82016D01*
X217984Y79209D01*
X214016Y79209D01*
G37*
%LPD*%
%LPC*%
G36*
X168339Y34189D02*
X168339Y34189D01*
X168339Y44332D01*
X168826Y44255D01*
X170761Y43626D01*
X172573Y42703D01*
X174219Y41507D01*
X175657Y40069D01*
X176853Y38423D01*
X177776Y36611D01*
X178405Y34676D01*
X178482Y34189D01*
X168339Y34189D01*
G37*
%LPD*%
%LPC*%
G36*
X153118Y34189D02*
X153118Y34189D01*
X153195Y34676D01*
X153824Y36611D01*
X154747Y38423D01*
X155943Y40069D01*
X157381Y41507D01*
X159027Y42703D01*
X160839Y43626D01*
X162774Y44255D01*
X163261Y44332D01*
X163261Y34189D01*
X153118Y34189D01*
G37*
%LPD*%
%LPC*%
G36*
X168339Y29111D02*
X168339Y29111D01*
X178482Y29111D01*
X178405Y28624D01*
X177776Y26689D01*
X176853Y24877D01*
X175657Y23231D01*
X174219Y21793D01*
X172573Y20597D01*
X170761Y19674D01*
X168826Y19045D01*
X168339Y18968D01*
X168339Y29111D01*
G37*
%LPD*%
%LPC*%
G36*
X162774Y19045D02*
X162774Y19045D01*
X160839Y19674D01*
X159027Y20597D01*
X157381Y21793D01*
X155943Y23231D01*
X154747Y24877D01*
X153824Y26689D01*
X153195Y28624D01*
X153118Y29111D01*
X163261Y29111D01*
X163261Y18968D01*
X162774Y19045D01*
G37*
%LPD*%
%LPC*%
G36*
X410539Y22539D02*
X410539Y22539D01*
X410539Y31139D01*
X410669Y31118D01*
X412376Y30564D01*
X413974Y29749D01*
X415426Y28694D01*
X416694Y27426D01*
X417749Y25974D01*
X418564Y24376D01*
X419118Y22669D01*
X419139Y22539D01*
X410539Y22539D01*
G37*
%LPD*%
%LPC*%
G36*
X385139Y22539D02*
X385139Y22539D01*
X385139Y31139D01*
X385269Y31118D01*
X386976Y30564D01*
X388574Y29749D01*
X390026Y28694D01*
X391294Y27426D01*
X392349Y25974D01*
X393164Y24376D01*
X393718Y22669D01*
X393739Y22539D01*
X385139Y22539D01*
G37*
%LPD*%
%LPC*%
G36*
X396861Y22539D02*
X396861Y22539D01*
X396882Y22669D01*
X397436Y24376D01*
X398251Y25974D01*
X399306Y27426D01*
X400574Y28694D01*
X402026Y29749D01*
X403624Y30564D01*
X405331Y31118D01*
X405461Y31139D01*
X405461Y22539D01*
X396861Y22539D01*
G37*
%LPD*%
%LPC*%
G36*
X410539Y17461D02*
X410539Y17461D01*
X419139Y17461D01*
X419118Y17331D01*
X418564Y15624D01*
X417749Y14026D01*
X416694Y12574D01*
X415426Y11306D01*
X413974Y10251D01*
X412376Y9436D01*
X410669Y8882D01*
X410539Y8861D01*
X410539Y17461D01*
G37*
%LPD*%
%LPC*%
G36*
X385139Y17461D02*
X385139Y17461D01*
X393739Y17461D01*
X393718Y17331D01*
X393164Y15624D01*
X392349Y14026D01*
X391294Y12574D01*
X390026Y11306D01*
X388574Y10251D01*
X386976Y9436D01*
X385269Y8882D01*
X385139Y8861D01*
X385139Y17461D01*
G37*
%LPD*%
%LPC*%
G36*
X405331Y8882D02*
X405331Y8882D01*
X403624Y9436D01*
X402026Y10251D01*
X400574Y11306D01*
X399306Y12574D01*
X398251Y14026D01*
X397436Y15624D01*
X396882Y17331D01*
X396861Y17461D01*
X405461Y17461D01*
X405461Y8861D01*
X405331Y8882D01*
G37*
%LPD*%
%LPC*%
G36*
X165799Y31649D02*
X165799Y31649D01*
X165799Y31651D01*
X165801Y31651D01*
X165801Y31649D01*
X165799Y31649D01*
G37*
%LPD*%
%LPC*%
G36*
X407999Y19999D02*
X407999Y19999D01*
X407999Y20001D01*
X408001Y20001D01*
X408001Y19999D01*
X407999Y19999D01*
G37*
%LPD*%
D10*
X281000Y20000D03*
X306400Y20000D03*
X331800Y20000D03*
X357200Y20000D03*
X382600Y20000D03*
X408000Y20000D03*
X20200Y91500D03*
X20200Y116900D03*
X20200Y142300D03*
X20200Y167700D03*
X20200Y193100D03*
X20200Y218500D03*
X20200Y243900D03*
X20200Y269300D03*
X20200Y294700D03*
X20200Y320100D03*
X20200Y345500D03*
X20200Y370900D03*
X20000Y15000D03*
X20000Y40400D03*
X20000Y65800D03*
D11*
X303800Y316300D03*
X263800Y316300D03*
D12*
X165800Y31650D03*
X165800Y352950D03*
D13*
X452800Y19300D02*
X452800Y10300D01*
X518800Y10300D02*
X518800Y19300D01*
D14*
X388000Y287000D03*
D15*
X397000Y287000D01*
D14*
X411000Y287000D03*
D15*
X397000Y287000D01*
X122000Y378000D02*
X92700Y348700D01*
X122000Y378000D02*
X191000Y378000D01*
D14*
X191000Y378000D03*
X509000Y163000D03*
D15*
X509000Y108000D01*
X510000Y107000D01*
X539000Y107000D01*
X545000Y113000D01*
D14*
X545000Y113000D03*
X664000Y262300D03*
X655000Y262300D03*
X646000Y262300D03*
X637000Y262300D03*
X628000Y262300D03*
X619000Y262300D03*
X609000Y262300D03*
X600000Y262300D03*
X590000Y265300D03*
X584000Y271300D03*
X577000Y281300D03*
X664000Y280300D03*
X655000Y280300D03*
X646000Y280300D03*
X635000Y280300D03*
X624000Y280300D03*
X613000Y280300D03*
X604000Y280300D03*
X594000Y290300D03*
X593000Y299300D03*
X590000Y307300D03*
X582000Y314300D03*
X574000Y318300D03*
X573000Y294300D03*
X297000Y73000D03*
X255000Y80000D03*
X378000Y177000D03*
X316000Y140000D03*
X571000Y47000D03*
X402000Y218000D03*
X379000Y151000D03*
X347000Y135000D03*
X478000Y216000D03*
X461000Y84000D03*
X555000Y82000D03*
X216000Y33000D03*
X96000Y41000D03*
X97000Y106000D03*
X98000Y163000D03*
X98000Y194000D03*
X98000Y244000D03*
X101000Y309000D03*
X130000Y309000D03*
X225000Y312000D03*
X283000Y315000D03*
X240000Y274000D03*
X520000Y250000D03*
X498000Y352000D03*
X581000Y14000D03*
X431000Y10000D03*
X240000Y35000D03*
X325000Y97000D03*
X379000Y83000D03*
X433000Y175000D03*
X488000Y164000D03*
X486000Y87000D03*
X381000Y60000D03*
X436000Y39000D03*
X397000Y321000D03*
X100000Y351000D03*
X85000Y286000D03*
D15*
X23400Y348700D02*
X23288Y348698D01*
X23177Y348692D01*
X23066Y348682D01*
X22955Y348669D01*
X22844Y348651D01*
X22735Y348630D01*
X22626Y348605D01*
X22518Y348576D01*
X22411Y348543D01*
X22306Y348507D01*
X22201Y348467D01*
X22098Y348423D01*
X21997Y348376D01*
X21898Y348325D01*
X21800Y348271D01*
X21704Y348214D01*
X21611Y348153D01*
X21519Y348089D01*
X21430Y348022D01*
X21343Y347951D01*
X21259Y347878D01*
X21177Y347802D01*
X21098Y347723D01*
X21022Y347641D01*
X20949Y347557D01*
X20878Y347470D01*
X20811Y347381D01*
X20747Y347289D01*
X20686Y347196D01*
X20629Y347100D01*
X20575Y347002D01*
X20524Y346903D01*
X20477Y346802D01*
X20433Y346699D01*
X20393Y346594D01*
X20357Y346489D01*
X20324Y346382D01*
X20295Y346274D01*
X20270Y346165D01*
X20249Y346056D01*
X20231Y345945D01*
X20218Y345834D01*
X20208Y345723D01*
X20202Y345612D01*
X20200Y345500D01*
X23400Y348700D02*
X92700Y348700D01*
D14*
X398000Y301000D03*
D15*
X398000Y288000D01*
X397000Y287000D01*
D14*
X366000Y166950D03*
D15*
X366000Y140000D01*
D14*
X366000Y140000D03*
X257000Y246000D03*
D15*
X244000Y246000D01*
D14*
X244000Y246000D03*
X380000Y253000D03*
D15*
X460000Y253000D01*
X478000Y235000D01*
D14*
X478000Y235000D03*
X508000Y209000D03*
D15*
X523000Y209000D01*
X528000Y214000D01*
D14*
X528000Y214000D03*
X447000Y111738D03*
D15*
X380000Y253000D02*
X355000Y253000D01*
X341000Y239000D01*
D14*
X341000Y239000D03*
X324000Y240000D03*
D15*
X315000Y249000D01*
X288000Y249000D01*
D14*
X288000Y249000D03*
X296000Y374000D03*
D15*
X335000Y335000D01*
X383000Y335000D01*
D14*
X383000Y335000D03*
D15*
X439738Y119000D02*
X447000Y111738D01*
X360738Y130235D02*
X360738Y133765D01*
X412765Y111738D02*
X420027Y119000D01*
X412765Y111738D02*
X379235Y111738D01*
X360738Y130235D01*
X366000Y139027D02*
X366000Y140000D01*
X366000Y139027D02*
X360738Y133765D01*
X420027Y119000D02*
X439738Y119000D01*
D14*
X287000Y101000D03*
D15*
X316235Y130235D01*
X360738Y130235D01*
D14*
X362000Y263000D03*
D15*
X492000Y263000D01*
X493000Y262000D01*
X493000Y106000D01*
X332000Y106000D01*
X332000Y77000D01*
D14*
X332000Y77000D03*
D15*
X311126Y8590D02*
X301674Y8590D01*
X294990Y15274D01*
X294990Y39990D01*
X322536Y20000D02*
X331800Y20000D01*
X322536Y20000D02*
X311126Y8590D01*
X294990Y39990D02*
X332000Y77000D01*
D14*
X358000Y282000D03*
D15*
X496000Y282000D01*
X497000Y281000D01*
X497000Y69000D01*
D14*
X343000Y69000D03*
D15*
X497000Y69000D01*
X330000Y43600D02*
X306400Y20000D01*
X330000Y63027D02*
X335973Y69000D01*
X330000Y63027D02*
X330000Y43600D01*
X335973Y69000D02*
X343000Y69000D01*
D14*
X271000Y256000D03*
D15*
X223000Y256000D01*
X215000Y248000D01*
D14*
X215000Y248000D03*
X189000Y243000D03*
D15*
X189000Y195000D01*
X194000Y190000D01*
D14*
X194000Y190000D03*
X164000Y188000D03*
D15*
X164000Y179000D01*
X126000Y141000D01*
D14*
X126000Y141000D03*
X128000Y129362D03*
D15*
X128000Y46000D01*
X119000Y37000D01*
D14*
X119000Y37000D03*
D15*
X107000Y13000D02*
X217000Y123000D01*
X217000Y183000D01*
X200000Y200000D01*
X200000Y262000D01*
X225000Y287000D01*
X310000Y287000D01*
X311000Y288000D01*
D14*
X311000Y288000D03*
D15*
X22000Y13000D02*
X20000Y15000D01*
X22000Y13000D02*
X107000Y13000D01*
D14*
X334000Y270000D03*
D15*
X469000Y270000D01*
X470000Y271000D01*
D14*
X470000Y271000D03*
D15*
X136000Y217000D02*
X126300Y226700D01*
D14*
X136000Y217000D03*
X232000Y233000D03*
D15*
X324000Y233000D01*
X334000Y243000D02*
X334000Y253000D01*
X334000Y243000D02*
X324000Y233000D01*
D14*
X334000Y253000D03*
D15*
X28400Y226700D02*
X20200Y218500D01*
X28400Y226700D02*
X126300Y226700D01*
D14*
X478000Y157000D03*
D15*
X471000Y150000D01*
X463000Y150000D01*
D14*
X463000Y150000D03*
X291000Y167000D03*
D15*
X291000Y125000D01*
X287000Y121000D01*
D14*
X287000Y121000D03*
X318000Y311000D03*
D15*
X401000Y311000D02*
X404000Y314000D01*
D14*
X404000Y314000D03*
D15*
X352027Y311000D02*
X351765Y311262D01*
X352027Y311000D02*
X401000Y311000D01*
X318262Y311262D02*
X318000Y311000D01*
X318262Y311262D02*
X351765Y311262D01*
D14*
X409000Y326000D03*
D15*
X407000Y328000D01*
X99500Y328000D01*
X66200Y294700D01*
X20200Y294700D01*
D14*
X214000Y226000D03*
D15*
X340000Y226000D01*
D14*
X340000Y226000D03*
X366000Y219000D03*
D15*
X368000Y217000D01*
X368000Y207661D01*
D14*
X368000Y207661D03*
X350000Y307000D03*
D15*
X463000Y307000D01*
D14*
X463000Y307000D03*
X463000Y228000D03*
D15*
X416000Y181000D01*
X397000Y181000D01*
D14*
X397000Y181000D03*
X398000Y142000D03*
D15*
X367000Y173000D01*
X335000Y173000D01*
D14*
X335000Y173000D03*
D15*
X209000Y134000D02*
X53900Y134000D01*
D14*
X209000Y134000D03*
X225000Y135000D03*
D15*
X260000Y170000D01*
D14*
X282000Y170000D03*
X311000Y151000D03*
D15*
X333000Y173000D01*
X335000Y173000D01*
X282000Y170000D02*
X260000Y170000D01*
X53900Y134000D02*
X20200Y167700D01*
D14*
X334000Y135000D03*
X334000Y158000D03*
D15*
X334000Y135000D01*
D14*
X358500Y145500D03*
D15*
X358500Y153584D01*
X359000Y154084D01*
D14*
X359000Y154084D03*
X341000Y190000D03*
D15*
X306000Y155000D01*
X306000Y130000D01*
D14*
X306000Y130000D03*
X200000Y169000D03*
D15*
X96500Y272500D01*
X23400Y272500D02*
X20200Y269300D01*
X23400Y272500D02*
X96500Y272500D01*
D14*
X363000Y202000D03*
D15*
X355000Y202000D01*
X347000Y210000D01*
D14*
X347000Y210000D03*
X324000Y210000D03*
X212000Y210000D03*
D15*
X279235Y218262D02*
X282765Y218262D01*
X291027Y210000D02*
X324000Y210000D01*
X270973Y210000D02*
X212000Y210000D01*
X282765Y218262D02*
X291027Y210000D01*
X279235Y218262D02*
X270973Y210000D01*
D14*
X216000Y100000D03*
D15*
X216000Y84000D01*
D14*
X216000Y84000D03*
X359000Y222000D03*
X269000Y100000D03*
D15*
X352000Y222000D02*
X359000Y222000D01*
X352000Y222000D02*
X298774Y168774D01*
X298774Y122824D01*
X283915Y107964D01*
X276964Y107964D01*
X269000Y100000D01*
D14*
X357000Y231000D03*
D15*
X296000Y170000D01*
X249000Y94000D02*
X249000Y91800D01*
D14*
X249000Y91800D03*
D15*
X249000Y94000D02*
X265738Y110738D01*
X282765Y110738D02*
X296000Y123973D01*
X282765Y110738D02*
X265738Y110738D01*
X296000Y123973D02*
X296000Y170000D01*
D14*
X387000Y369000D03*
D15*
X388000Y368000D01*
X419000Y368000D01*
D14*
X419000Y368000D03*
X257000Y337000D03*
D15*
X181750Y337000D01*
X165800Y352950D01*
D14*
X281000Y214000D03*
X281000Y115000D03*
D15*
X286262Y168235D02*
X286262Y171765D01*
X281000Y177027D02*
X281000Y214000D01*
X281000Y162973D02*
X281000Y115000D01*
X286262Y171765D02*
X281000Y177027D01*
X286262Y168235D02*
X281000Y162973D01*
X251000Y379000D02*
X353000Y379000D01*
D14*
X353000Y379000D03*
X134000Y365000D03*
D15*
X159559Y365000D01*
X238962Y366962D02*
X251000Y379000D01*
X161521Y366962D02*
X159559Y365000D01*
X161521Y366962D02*
X238962Y366962D01*
D14*
X411000Y116000D03*
D15*
X395000Y132000D01*
X365000Y132000D01*
D14*
X365000Y132000D03*
X350000Y90000D03*
D15*
X354738Y94738D01*
X427000Y94738D01*
D14*
X427000Y94738D03*
X356000Y100000D03*
D15*
X357000Y99000D01*
X444000Y99000D01*
D14*
X444000Y99000D03*
X414000Y39000D03*
D15*
X406000Y47000D01*
X406000Y63000D01*
D14*
X406000Y63000D03*
D15*
X357200Y20000D02*
X341200Y4000D01*
X234000Y4000D01*
X234000Y131000D01*
X244000Y141000D01*
D14*
X244000Y141000D03*
X235000Y156000D03*
D15*
X235000Y193000D01*
X225000Y203000D01*
D14*
X225000Y203000D03*
X176000Y217000D03*
D15*
X176000Y243000D01*
X237000Y304000D01*
X281000Y304000D01*
X283000Y306000D01*
D14*
X283000Y306000D03*
X411000Y137000D03*
D15*
X391000Y137000D01*
X389000Y139000D01*
D14*
X389000Y139000D03*
D15*
X411000Y137000D02*
X458000Y184000D01*
X458000Y214000D01*
D14*
X458000Y214000D03*
X458000Y325000D03*
X380000Y365000D03*
D15*
X384973Y365000D01*
X386235Y363738D01*
X419262Y363738D02*
X458000Y325000D01*
X419262Y363738D02*
X386235Y363738D01*
D14*
X364000Y62000D03*
D15*
X362000Y64000D01*
X337000Y64000D01*
D14*
X337000Y64000D03*
M02*
