G04 EAGLE Gerber RS-274X export*
G75*
%MOMM*%
%FSLAX34Y34*%
%LPD*%
%IN*%
%IPPOS*%
%AMOC8*
5,1,8,0,0,1.08239X$1,22.5*%
G01*
%ADD10C,0.254000*%


D10*
X0Y0D02*
X760000Y0D01*
X760000Y385000D01*
X0Y385000D01*
X0Y0D01*
X516300Y11300D02*
X516310Y11082D01*
X516338Y10866D01*
X516385Y10653D01*
X516451Y10445D01*
X516534Y10243D01*
X516635Y10050D01*
X516752Y9866D01*
X516885Y9693D01*
X517032Y9532D01*
X517193Y9385D01*
X517366Y9252D01*
X517550Y9135D01*
X517743Y9034D01*
X517945Y8951D01*
X518153Y8885D01*
X518366Y8838D01*
X518582Y8810D01*
X518800Y8800D01*
X519018Y8810D01*
X519234Y8838D01*
X519447Y8885D01*
X519655Y8951D01*
X519857Y9034D01*
X520050Y9135D01*
X520234Y9252D01*
X520407Y9385D01*
X520568Y9532D01*
X520715Y9693D01*
X520848Y9866D01*
X520965Y10050D01*
X521066Y10243D01*
X521149Y10445D01*
X521215Y10653D01*
X521262Y10866D01*
X521291Y11082D01*
X521300Y11300D01*
X521300Y18300D01*
X521291Y18518D01*
X521262Y18734D01*
X521215Y18947D01*
X521149Y19155D01*
X521066Y19357D01*
X520965Y19550D01*
X520848Y19734D01*
X520715Y19907D01*
X520568Y20068D01*
X520407Y20215D01*
X520234Y20348D01*
X520050Y20465D01*
X519857Y20566D01*
X519655Y20649D01*
X519447Y20715D01*
X519234Y20762D01*
X519018Y20791D01*
X518800Y20800D01*
X518582Y20791D01*
X518366Y20762D01*
X518153Y20715D01*
X517945Y20649D01*
X517743Y20566D01*
X517550Y20465D01*
X517366Y20348D01*
X517193Y20215D01*
X517032Y20068D01*
X516885Y19907D01*
X516752Y19734D01*
X516635Y19550D01*
X516534Y19357D01*
X516451Y19155D01*
X516385Y18947D01*
X516338Y18734D01*
X516310Y18518D01*
X516300Y18300D01*
X516300Y11300D01*
X450300Y11300D02*
X450310Y11082D01*
X450338Y10866D01*
X450385Y10653D01*
X450451Y10445D01*
X450534Y10243D01*
X450635Y10050D01*
X450752Y9866D01*
X450885Y9693D01*
X451032Y9532D01*
X451193Y9385D01*
X451366Y9252D01*
X451550Y9135D01*
X451743Y9034D01*
X451945Y8951D01*
X452153Y8885D01*
X452366Y8838D01*
X452582Y8810D01*
X452800Y8800D01*
X453018Y8810D01*
X453234Y8838D01*
X453447Y8885D01*
X453655Y8951D01*
X453857Y9034D01*
X454050Y9135D01*
X454234Y9252D01*
X454407Y9385D01*
X454568Y9532D01*
X454715Y9693D01*
X454848Y9866D01*
X454965Y10050D01*
X455066Y10243D01*
X455149Y10445D01*
X455215Y10653D01*
X455262Y10866D01*
X455291Y11082D01*
X455300Y11300D01*
X455300Y18300D01*
X455291Y18518D01*
X455262Y18734D01*
X455215Y18947D01*
X455149Y19155D01*
X455066Y19357D01*
X454965Y19550D01*
X454848Y19734D01*
X454715Y19907D01*
X454568Y20068D01*
X454407Y20215D01*
X454234Y20348D01*
X454050Y20465D01*
X453857Y20566D01*
X453655Y20649D01*
X453447Y20715D01*
X453234Y20762D01*
X453018Y20791D01*
X452800Y20800D01*
X452582Y20791D01*
X452366Y20762D01*
X452153Y20715D01*
X451945Y20649D01*
X451743Y20566D01*
X451550Y20465D01*
X451366Y20348D01*
X451193Y20215D01*
X451032Y20068D01*
X450885Y19907D01*
X450752Y19734D01*
X450635Y19550D01*
X450534Y19357D01*
X450451Y19155D01*
X450385Y18947D01*
X450338Y18734D01*
X450310Y18518D01*
X450300Y18300D01*
X450300Y11300D01*
X532800Y80764D02*
X532724Y79696D01*
X532571Y78635D01*
X532343Y77588D01*
X532041Y76560D01*
X531667Y75556D01*
X531222Y74581D01*
X530708Y73641D01*
X530129Y72740D01*
X529487Y71882D01*
X528785Y71072D01*
X528028Y70315D01*
X527218Y69613D01*
X526360Y68971D01*
X525459Y68392D01*
X524519Y67878D01*
X523544Y67433D01*
X522540Y67059D01*
X521512Y66757D01*
X520465Y66529D01*
X519404Y66376D01*
X518336Y66300D01*
X517264Y66300D01*
X516196Y66376D01*
X515135Y66529D01*
X514088Y66757D01*
X513060Y67059D01*
X512056Y67433D01*
X511081Y67878D01*
X510141Y68392D01*
X509240Y68971D01*
X508382Y69613D01*
X507572Y70315D01*
X506815Y71072D01*
X506113Y71882D01*
X505471Y72740D01*
X504892Y73641D01*
X504378Y74581D01*
X503933Y75556D01*
X503559Y76560D01*
X503257Y77588D01*
X503029Y78635D01*
X502876Y79696D01*
X502800Y80764D01*
X502800Y81836D01*
X502876Y82904D01*
X503029Y83965D01*
X503257Y85012D01*
X503559Y86040D01*
X503933Y87044D01*
X504378Y88019D01*
X504892Y88959D01*
X505471Y89860D01*
X506113Y90718D01*
X506815Y91528D01*
X507572Y92285D01*
X508382Y92987D01*
X509240Y93629D01*
X510141Y94208D01*
X511081Y94722D01*
X512056Y95167D01*
X513060Y95541D01*
X514088Y95843D01*
X515135Y96071D01*
X516196Y96224D01*
X517264Y96300D01*
X518336Y96300D01*
X519404Y96224D01*
X520465Y96071D01*
X521512Y95843D01*
X522540Y95541D01*
X523544Y95167D01*
X524519Y94722D01*
X525459Y94208D01*
X526360Y93629D01*
X527218Y92987D01*
X528028Y92285D01*
X528785Y91528D01*
X529487Y90718D01*
X530129Y89860D01*
X530708Y88959D01*
X531222Y88019D01*
X531667Y87044D01*
X532041Y86040D01*
X532343Y85012D01*
X532571Y83965D01*
X532724Y82904D01*
X532800Y81836D01*
X532800Y80764D01*
X75000Y191964D02*
X74924Y190896D01*
X74771Y189835D01*
X74543Y188788D01*
X74241Y187760D01*
X73867Y186756D01*
X73422Y185781D01*
X72908Y184841D01*
X72329Y183940D01*
X71687Y183082D01*
X70985Y182272D01*
X70228Y181515D01*
X69418Y180813D01*
X68560Y180171D01*
X67659Y179592D01*
X66719Y179078D01*
X65744Y178633D01*
X64740Y178259D01*
X63712Y177957D01*
X62665Y177729D01*
X61604Y177576D01*
X60536Y177500D01*
X59464Y177500D01*
X58396Y177576D01*
X57335Y177729D01*
X56288Y177957D01*
X55260Y178259D01*
X54256Y178633D01*
X53281Y179078D01*
X52341Y179592D01*
X51440Y180171D01*
X50582Y180813D01*
X49772Y181515D01*
X49015Y182272D01*
X48313Y183082D01*
X47671Y183940D01*
X47092Y184841D01*
X46578Y185781D01*
X46133Y186756D01*
X45759Y187760D01*
X45457Y188788D01*
X45229Y189835D01*
X45076Y190896D01*
X45000Y191964D01*
X45000Y193036D01*
X45076Y194104D01*
X45229Y195165D01*
X45457Y196212D01*
X45759Y197240D01*
X46133Y198244D01*
X46578Y199219D01*
X47092Y200159D01*
X47671Y201060D01*
X48313Y201918D01*
X49015Y202728D01*
X49772Y203485D01*
X50582Y204187D01*
X51440Y204829D01*
X52341Y205408D01*
X53281Y205922D01*
X54256Y206367D01*
X55260Y206741D01*
X56288Y207043D01*
X57335Y207271D01*
X58396Y207424D01*
X59464Y207500D01*
X60536Y207500D01*
X61604Y207424D01*
X62665Y207271D01*
X63712Y207043D01*
X64740Y206741D01*
X65744Y206367D01*
X66719Y205922D01*
X67659Y205408D01*
X68560Y204829D01*
X69418Y204187D01*
X70228Y203485D01*
X70985Y202728D01*
X71687Y201918D01*
X72329Y201060D01*
X72908Y200159D01*
X73422Y199219D01*
X73867Y198244D01*
X74241Y197240D01*
X74543Y196212D01*
X74771Y195165D01*
X74924Y194104D01*
X75000Y193036D01*
X75000Y191964D01*
X166336Y120700D02*
X167404Y120624D01*
X168465Y120471D01*
X169512Y120243D01*
X170540Y119941D01*
X171544Y119567D01*
X172519Y119122D01*
X173459Y118608D01*
X174360Y118029D01*
X175218Y117387D01*
X176028Y116685D01*
X176785Y115928D01*
X177487Y115118D01*
X178129Y114260D01*
X178708Y113359D01*
X179222Y112419D01*
X179667Y111444D01*
X180041Y110440D01*
X180343Y109412D01*
X180571Y108365D01*
X180724Y107304D01*
X180800Y106236D01*
X180800Y105164D01*
X180724Y104096D01*
X180571Y103035D01*
X180343Y101988D01*
X180041Y100960D01*
X179667Y99956D01*
X179222Y98981D01*
X178708Y98041D01*
X178129Y97140D01*
X177487Y96282D01*
X176785Y95472D01*
X176028Y94715D01*
X175218Y94013D01*
X174360Y93371D01*
X173459Y92792D01*
X172519Y92278D01*
X171544Y91833D01*
X170540Y91459D01*
X169512Y91157D01*
X168465Y90929D01*
X167404Y90776D01*
X166336Y90700D01*
X165264Y90700D01*
X164196Y90776D01*
X163135Y90929D01*
X162088Y91157D01*
X161060Y91459D01*
X160056Y91833D01*
X159081Y92278D01*
X158141Y92792D01*
X157240Y93371D01*
X156382Y94013D01*
X155572Y94715D01*
X154815Y95472D01*
X154113Y96282D01*
X153471Y97140D01*
X152892Y98041D01*
X152378Y98981D01*
X151933Y99956D01*
X151559Y100960D01*
X151257Y101988D01*
X151029Y103035D01*
X150876Y104096D01*
X150800Y105164D01*
X150800Y106236D01*
X150876Y107304D01*
X151029Y108365D01*
X151257Y109412D01*
X151559Y110440D01*
X151933Y111444D01*
X152378Y112419D01*
X152892Y113359D01*
X153471Y114260D01*
X154113Y115118D01*
X154815Y115928D01*
X155572Y116685D01*
X156382Y117387D01*
X157240Y118029D01*
X158141Y118608D01*
X159081Y119122D01*
X160056Y119567D01*
X161060Y119941D01*
X162088Y120243D01*
X163135Y120471D01*
X164196Y120624D01*
X165264Y120700D01*
X166336Y120700D01*
X166336Y293900D02*
X167404Y293824D01*
X168465Y293671D01*
X169512Y293443D01*
X170540Y293141D01*
X171544Y292767D01*
X172519Y292322D01*
X173459Y291808D01*
X174360Y291229D01*
X175218Y290587D01*
X176028Y289885D01*
X176785Y289128D01*
X177487Y288318D01*
X178129Y287460D01*
X178708Y286559D01*
X179222Y285619D01*
X179667Y284644D01*
X180041Y283640D01*
X180343Y282612D01*
X180571Y281565D01*
X180724Y280504D01*
X180800Y279436D01*
X180800Y278364D01*
X180724Y277296D01*
X180571Y276235D01*
X180343Y275188D01*
X180041Y274160D01*
X179667Y273156D01*
X179222Y272181D01*
X178708Y271241D01*
X178129Y270340D01*
X177487Y269482D01*
X176785Y268672D01*
X176028Y267915D01*
X175218Y267213D01*
X174360Y266571D01*
X173459Y265992D01*
X172519Y265478D01*
X171544Y265033D01*
X170540Y264659D01*
X169512Y264357D01*
X168465Y264129D01*
X167404Y263976D01*
X166336Y263900D01*
X165264Y263900D01*
X164196Y263976D01*
X163135Y264129D01*
X162088Y264357D01*
X161060Y264659D01*
X160056Y265033D01*
X159081Y265478D01*
X158141Y265992D01*
X157240Y266571D01*
X156382Y267213D01*
X155572Y267915D01*
X154815Y268672D01*
X154113Y269482D01*
X153471Y270340D01*
X152892Y271241D01*
X152378Y272181D01*
X151933Y273156D01*
X151559Y274160D01*
X151257Y275188D01*
X151029Y276235D01*
X150876Y277296D01*
X150800Y278364D01*
X150800Y279436D01*
X150876Y280504D01*
X151029Y281565D01*
X151257Y282612D01*
X151559Y283640D01*
X151933Y284644D01*
X152378Y285619D01*
X152892Y286559D01*
X153471Y287460D01*
X154113Y288318D01*
X154815Y289128D01*
X155572Y289885D01*
X156382Y290587D01*
X157240Y291229D01*
X158141Y291808D01*
X159081Y292322D01*
X160056Y292767D01*
X161060Y293141D01*
X162088Y293443D01*
X163135Y293671D01*
X164196Y293824D01*
X165264Y293900D01*
X166336Y293900D01*
X237342Y364200D02*
X238223Y364131D01*
X239096Y363992D01*
X239956Y363786D01*
X240797Y363513D01*
X241614Y363175D01*
X242401Y362773D01*
X243155Y362311D01*
X243870Y361792D01*
X244542Y361218D01*
X245168Y360592D01*
X245742Y359920D01*
X246261Y359205D01*
X246723Y358451D01*
X247125Y357664D01*
X247463Y356847D01*
X247736Y356006D01*
X247942Y355146D01*
X248081Y354273D01*
X248150Y353392D01*
X248150Y352508D01*
X248081Y351627D01*
X247942Y350754D01*
X247736Y349894D01*
X247463Y349053D01*
X247125Y348236D01*
X246723Y347449D01*
X246261Y346695D01*
X245742Y345980D01*
X245168Y345308D01*
X244542Y344683D01*
X243870Y344108D01*
X243155Y343589D01*
X242401Y343127D01*
X241614Y342726D01*
X240797Y342387D01*
X239956Y342114D01*
X239096Y341908D01*
X238223Y341769D01*
X237342Y341700D01*
X236458Y341700D01*
X235577Y341769D01*
X234704Y341908D01*
X233844Y342114D01*
X233003Y342387D01*
X232186Y342726D01*
X231399Y343127D01*
X230645Y343589D01*
X229930Y344108D01*
X229258Y344683D01*
X228633Y345308D01*
X228058Y345980D01*
X227539Y346695D01*
X227077Y347449D01*
X226676Y348236D01*
X226337Y349053D01*
X226064Y349894D01*
X225858Y350754D01*
X225719Y351627D01*
X225650Y352508D01*
X225650Y353392D01*
X225719Y354273D01*
X225858Y355146D01*
X226064Y356006D01*
X226337Y356847D01*
X226676Y357664D01*
X227077Y358451D01*
X227539Y359205D01*
X228058Y359920D01*
X228633Y360592D01*
X229258Y361218D01*
X229930Y361792D01*
X230645Y362311D01*
X231399Y362773D01*
X232186Y363175D01*
X233003Y363513D01*
X233844Y363786D01*
X234704Y363992D01*
X235577Y364131D01*
X236458Y364200D01*
X237342Y364200D01*
X455300Y14603D02*
X455238Y14215D01*
X455117Y13840D01*
X454938Y13490D01*
X454707Y13171D01*
X454429Y12893D01*
X454110Y12662D01*
X453760Y12483D01*
X453385Y12362D01*
X452997Y12300D01*
X452603Y12300D01*
X452215Y12362D01*
X451840Y12483D01*
X451490Y12662D01*
X451171Y12893D01*
X450893Y13171D01*
X450662Y13490D01*
X450483Y13840D01*
X450362Y14215D01*
X450300Y14603D01*
X450300Y14997D01*
X450362Y15385D01*
X450483Y15760D01*
X450662Y16110D01*
X450893Y16429D01*
X451171Y16707D01*
X451490Y16938D01*
X451840Y17117D01*
X452215Y17238D01*
X452603Y17300D01*
X452997Y17300D01*
X453385Y17238D01*
X453760Y17117D01*
X454110Y16938D01*
X454429Y16707D01*
X454707Y16429D01*
X454938Y16110D01*
X455117Y15760D01*
X455238Y15385D01*
X455300Y14997D01*
X455300Y14603D01*
X521300Y14603D02*
X521238Y14215D01*
X521117Y13840D01*
X520938Y13490D01*
X520707Y13171D01*
X520429Y12893D01*
X520110Y12662D01*
X519760Y12483D01*
X519385Y12362D01*
X518997Y12300D01*
X518603Y12300D01*
X518215Y12362D01*
X517840Y12483D01*
X517490Y12662D01*
X517171Y12893D01*
X516893Y13171D01*
X516662Y13490D01*
X516483Y13840D01*
X516362Y14215D01*
X516300Y14603D01*
X516300Y14997D01*
X516362Y15385D01*
X516483Y15760D01*
X516662Y16110D01*
X516893Y16429D01*
X517171Y16707D01*
X517490Y16938D01*
X517840Y17117D01*
X518215Y17238D01*
X518603Y17300D01*
X518997Y17300D01*
X519385Y17238D01*
X519760Y17117D01*
X520110Y16938D01*
X520429Y16707D01*
X520707Y16429D01*
X520938Y16110D01*
X521117Y15760D01*
X521238Y15385D01*
X521300Y14997D01*
X521300Y14603D01*
M02*
