G04 EAGLE Gerber RS-274X export*
G75*
%MOMM*%
%FSLAX34Y34*%
%LPD*%
%INSilkscreen Top*%
%IPPOS*%
%AMOC8*
5,1,8,0,0,1.08239X$1,22.5*%
G01*
%ADD10C,0.101600*%
%ADD11C,0.050800*%
%ADD12C,0.025400*%
%ADD13C,0.127000*%
%ADD14C,0.203200*%
%ADD15C,0.508000*%
%ADD16C,0.100000*%
%ADD17R,0.400000X0.500000*%
%ADD18C,0.000000*%
%ADD19C,0.152400*%
%ADD20C,0.254000*%
%ADD21C,0.076200*%
%ADD22C,0.250000*%
%ADD23C,0.718400*%
%ADD24C,0.200000*%


D10*
X452104Y361553D02*
X450155Y363502D01*
X446257Y363502D01*
X444308Y361553D01*
X444308Y359604D01*
X446257Y357655D01*
X450155Y357655D01*
X452104Y355706D01*
X452104Y353757D01*
X450155Y351808D01*
X446257Y351808D01*
X444308Y353757D01*
X456002Y359604D02*
X457951Y359604D01*
X457951Y351808D01*
X456002Y351808D02*
X459900Y351808D01*
X457951Y363502D02*
X457951Y365451D01*
X467696Y347910D02*
X469645Y347910D01*
X471594Y349859D01*
X471594Y359604D01*
X465747Y359604D01*
X463798Y357655D01*
X463798Y353757D01*
X465747Y351808D01*
X471594Y351808D01*
X475492Y353757D02*
X475492Y359604D01*
X475492Y353757D02*
X477441Y351808D01*
X483288Y351808D01*
X483288Y359604D01*
X487186Y359604D02*
X489135Y359604D01*
X489135Y351808D01*
X487186Y351808D02*
X491084Y351808D01*
X489135Y363502D02*
X489135Y365451D01*
X494982Y359604D02*
X494982Y351808D01*
X494982Y359604D02*
X500829Y359604D01*
X502778Y357655D01*
X502778Y351808D01*
X508625Y351808D02*
X512523Y351808D01*
X514472Y353757D01*
X514472Y357655D01*
X512523Y359604D01*
X508625Y359604D01*
X506676Y357655D01*
X506676Y353757D01*
X508625Y351808D01*
X518370Y347910D02*
X522268Y351808D01*
X522268Y353757D01*
X520319Y353757D01*
X520319Y351808D01*
X522268Y351808D01*
X537860Y351808D02*
X537860Y363502D01*
X543707Y363502D01*
X545656Y361553D01*
X545656Y357655D01*
X543707Y355706D01*
X537860Y355706D01*
X541758Y355706D02*
X545656Y351808D01*
X551503Y351808D02*
X555401Y351808D01*
X551503Y351808D02*
X549554Y353757D01*
X549554Y357655D01*
X551503Y359604D01*
X555401Y359604D01*
X557350Y357655D01*
X557350Y355706D01*
X549554Y355706D01*
X561248Y359604D02*
X565146Y351808D01*
X569044Y359604D01*
X572942Y359604D02*
X574891Y359604D01*
X574891Y357655D01*
X572942Y357655D01*
X572942Y359604D01*
X572942Y353757D02*
X574891Y353757D01*
X574891Y351808D01*
X572942Y351808D01*
X572942Y353757D01*
X590483Y351808D02*
X598279Y351808D01*
X590483Y351808D02*
X598279Y359604D01*
X598279Y361553D01*
X596330Y363502D01*
X592432Y363502D01*
X590483Y361553D01*
X602177Y353757D02*
X602177Y351808D01*
X602177Y353757D02*
X604126Y353757D01*
X604126Y351808D01*
X602177Y351808D01*
X608024Y359604D02*
X611921Y363502D01*
X611921Y351808D01*
X608024Y351808D02*
X615819Y351808D01*
D11*
X378502Y5750D02*
X379251Y5001D01*
X378502Y5750D02*
X377003Y5750D01*
X376254Y5001D01*
X376254Y2003D01*
X377003Y1254D01*
X378502Y1254D01*
X379251Y2003D01*
X382357Y1254D02*
X382357Y5750D01*
X383855Y5750D02*
X380858Y5750D01*
X387710Y5750D02*
X388459Y5001D01*
X387710Y5750D02*
X386211Y5750D01*
X385462Y5001D01*
X385462Y4251D01*
X386211Y3502D01*
X387710Y3502D01*
X388459Y2753D01*
X388459Y2003D01*
X387710Y1254D01*
X386211Y1254D01*
X385462Y2003D01*
X403502Y5750D02*
X404251Y5001D01*
X403502Y5750D02*
X402003Y5750D01*
X401254Y5001D01*
X401254Y2003D01*
X402003Y1254D01*
X403502Y1254D01*
X404251Y2003D01*
X404251Y3502D01*
X402753Y3502D01*
X405858Y1254D02*
X405858Y5750D01*
X408855Y1254D01*
X408855Y5750D01*
X410462Y5750D02*
X410462Y1254D01*
X412710Y1254D01*
X413459Y2003D01*
X413459Y5001D01*
X412710Y5750D01*
X410462Y5750D01*
X350254Y5750D02*
X350254Y2753D01*
X351753Y1254D01*
X353251Y2753D01*
X353251Y5750D01*
X354858Y5001D02*
X355607Y5750D01*
X357106Y5750D01*
X357855Y5001D01*
X357855Y4251D01*
X357106Y3502D01*
X356357Y3502D01*
X357106Y3502D02*
X357855Y2753D01*
X357855Y2003D01*
X357106Y1254D01*
X355607Y1254D01*
X354858Y2003D01*
X359462Y5001D02*
X360211Y5750D01*
X361710Y5750D01*
X362459Y5001D01*
X362459Y4251D01*
X361710Y3502D01*
X360960Y3502D01*
X361710Y3502D02*
X362459Y2753D01*
X362459Y2003D01*
X361710Y1254D01*
X360211Y1254D01*
X359462Y2003D01*
X326254Y1254D02*
X326254Y5750D01*
X328502Y5750D01*
X329251Y5001D01*
X329251Y3502D01*
X328502Y2753D01*
X326254Y2753D01*
X327753Y2753D02*
X329251Y1254D01*
X333855Y1254D02*
X330858Y5750D01*
X333855Y5750D02*
X330858Y1254D01*
X335462Y1254D02*
X336960Y1254D01*
X336211Y1254D02*
X336211Y5750D01*
X335462Y5750D02*
X336960Y5750D01*
X301753Y5750D02*
X301753Y1254D01*
X303251Y5750D02*
X300254Y5750D01*
X304858Y5750D02*
X307855Y1254D01*
X304858Y1254D02*
X307855Y5750D01*
X310211Y5750D02*
X311710Y5750D01*
X310211Y5750D02*
X309462Y5001D01*
X309462Y2003D01*
X310211Y1254D01*
X311710Y1254D01*
X312459Y2003D01*
X312459Y5001D01*
X311710Y5750D01*
X273254Y5750D02*
X273254Y1254D01*
X275502Y1254D01*
X276251Y2003D01*
X276251Y5001D01*
X275502Y5750D01*
X273254Y5750D01*
X279357Y5750D02*
X279357Y1254D01*
X280855Y5750D02*
X277858Y5750D01*
X282462Y5750D02*
X282462Y1254D01*
X282462Y5750D02*
X284710Y5750D01*
X285459Y5001D01*
X285459Y3502D01*
X284710Y2753D01*
X282462Y2753D01*
X283960Y2753D02*
X285459Y1254D01*
X4247Y369254D02*
X1250Y369254D01*
X4247Y369254D02*
X5746Y370753D01*
X4247Y372251D01*
X1250Y372251D01*
X1250Y376106D02*
X1999Y376855D01*
X1250Y376106D02*
X1250Y374607D01*
X1999Y373858D01*
X4997Y373858D01*
X5746Y374607D01*
X5746Y376106D01*
X4997Y376855D01*
X1250Y380710D02*
X1999Y381459D01*
X1250Y380710D02*
X1250Y379211D01*
X1999Y378462D01*
X4997Y378462D01*
X5746Y379211D01*
X5746Y380710D01*
X4997Y381459D01*
X1999Y345251D02*
X1250Y344502D01*
X1250Y343003D01*
X1999Y342254D01*
X4997Y342254D01*
X5746Y343003D01*
X5746Y344502D01*
X4997Y345251D01*
X3498Y345251D01*
X3498Y343753D01*
X5746Y346858D02*
X1250Y346858D01*
X5746Y349855D01*
X1250Y349855D01*
X1250Y351462D02*
X5746Y351462D01*
X5746Y353710D01*
X4997Y354459D01*
X1999Y354459D01*
X1250Y353710D01*
X1250Y351462D01*
X2749Y320254D02*
X5746Y320254D01*
X2749Y320254D02*
X1250Y321753D01*
X2749Y323251D01*
X5746Y323251D01*
X3498Y323251D02*
X3498Y320254D01*
X2749Y324858D02*
X1250Y326357D01*
X5746Y326357D01*
X5746Y327855D02*
X5746Y324858D01*
X5746Y295254D02*
X2749Y295254D01*
X1250Y296753D01*
X2749Y298251D01*
X5746Y298251D01*
X3498Y298251D02*
X3498Y295254D01*
X5746Y299858D02*
X5746Y302855D01*
X5746Y299858D02*
X2749Y302855D01*
X1999Y302855D01*
X1250Y302106D01*
X1250Y300607D01*
X1999Y299858D01*
X2749Y269254D02*
X5746Y269254D01*
X2749Y269254D02*
X1250Y270753D01*
X2749Y272251D01*
X5746Y272251D01*
X3498Y272251D02*
X3498Y269254D01*
X1999Y275357D02*
X1250Y276855D01*
X1999Y275357D02*
X3498Y273858D01*
X4997Y273858D01*
X5746Y274607D01*
X5746Y276106D01*
X4997Y276855D01*
X4247Y276855D01*
X3498Y276106D01*
X3498Y273858D01*
X2749Y244254D02*
X5746Y244254D01*
X2749Y244254D02*
X1250Y245753D01*
X2749Y247251D01*
X5746Y247251D01*
X3498Y247251D02*
X3498Y244254D01*
X1250Y248858D02*
X1250Y251855D01*
X1999Y251855D01*
X4997Y248858D01*
X5746Y248858D01*
X5746Y218254D02*
X1250Y218254D01*
X5746Y218254D02*
X5746Y220502D01*
X4997Y221251D01*
X1999Y221251D01*
X1250Y220502D01*
X1250Y218254D01*
X1999Y222858D02*
X1250Y223607D01*
X1250Y225106D01*
X1999Y225855D01*
X2749Y225855D01*
X3498Y225106D01*
X3498Y224357D01*
X3498Y225106D02*
X4247Y225855D01*
X4997Y225855D01*
X5746Y225106D01*
X5746Y223607D01*
X4997Y222858D01*
X5746Y194254D02*
X1250Y194254D01*
X5746Y194254D02*
X5746Y196502D01*
X4997Y197251D01*
X1999Y197251D01*
X1250Y196502D01*
X1250Y194254D01*
X1999Y200357D02*
X1250Y201855D01*
X1999Y200357D02*
X3498Y198858D01*
X4997Y198858D01*
X5746Y199607D01*
X5746Y201106D01*
X4997Y201855D01*
X4247Y201855D01*
X3498Y201106D01*
X3498Y198858D01*
X1999Y169251D02*
X1250Y168502D01*
X1250Y167003D01*
X1999Y166254D01*
X2749Y166254D01*
X3498Y167003D01*
X3498Y168502D01*
X4247Y169251D01*
X4997Y169251D01*
X5746Y168502D01*
X5746Y167003D01*
X4997Y166254D01*
X1250Y173106D02*
X1999Y173855D01*
X1250Y173106D02*
X1250Y171607D01*
X1999Y170858D01*
X4997Y170858D01*
X5746Y171607D01*
X5746Y173106D01*
X4997Y173855D01*
X5746Y175462D02*
X1250Y175462D01*
X4247Y175462D02*
X1250Y178459D01*
X3498Y176211D02*
X5746Y178459D01*
X5746Y137254D02*
X1250Y137254D01*
X2749Y138753D01*
X1250Y140251D01*
X5746Y140251D01*
X1250Y142607D02*
X1250Y144106D01*
X1250Y142607D02*
X1999Y141858D01*
X4997Y141858D01*
X5746Y142607D01*
X5746Y144106D01*
X4997Y144855D01*
X1999Y144855D01*
X1250Y144106D01*
X1250Y148710D02*
X1999Y149459D01*
X1250Y148710D02*
X1250Y147211D01*
X1999Y146462D01*
X2749Y146462D01*
X3498Y147211D01*
X3498Y148710D01*
X4247Y149459D01*
X4997Y149459D01*
X5746Y148710D01*
X5746Y147211D01*
X4997Y146462D01*
X5746Y151066D02*
X5746Y152564D01*
X5746Y151815D02*
X1250Y151815D01*
X1250Y151066D02*
X1250Y152564D01*
X1250Y113254D02*
X5746Y113254D01*
X2749Y114753D02*
X1250Y113254D01*
X2749Y114753D02*
X1250Y116251D01*
X5746Y116251D01*
X5746Y117858D02*
X5746Y119357D01*
X5746Y118607D02*
X1250Y118607D01*
X1250Y117858D02*
X1250Y119357D01*
X1250Y123175D02*
X1999Y123924D01*
X1250Y123175D02*
X1250Y121676D01*
X1999Y120927D01*
X2749Y120927D01*
X3498Y121676D01*
X3498Y123175D01*
X4247Y123924D01*
X4997Y123924D01*
X5746Y123175D01*
X5746Y121676D01*
X4997Y120927D01*
X1250Y126280D02*
X1250Y127779D01*
X1250Y126280D02*
X1999Y125531D01*
X4997Y125531D01*
X5746Y126280D01*
X5746Y127779D01*
X4997Y128528D01*
X1999Y128528D01*
X1250Y127779D01*
X1999Y95251D02*
X1250Y94502D01*
X1250Y93003D01*
X1999Y92254D01*
X2749Y92254D01*
X3498Y93003D01*
X3498Y94502D01*
X4247Y95251D01*
X4997Y95251D01*
X5746Y94502D01*
X5746Y93003D01*
X4997Y92254D01*
X1250Y99106D02*
X1999Y99855D01*
X1250Y99106D02*
X1250Y97607D01*
X1999Y96858D01*
X2749Y96858D01*
X3498Y97607D01*
X3498Y99106D01*
X4247Y99855D01*
X4997Y99855D01*
X5746Y99106D01*
X5746Y97607D01*
X4997Y96858D01*
X5746Y8254D02*
X1250Y8254D01*
X1250Y10502D01*
X1999Y11251D01*
X3498Y11251D01*
X4247Y10502D01*
X4247Y8254D01*
X4247Y9753D02*
X5746Y11251D01*
X1250Y15106D02*
X1999Y15855D01*
X1250Y15106D02*
X1250Y13607D01*
X1999Y12858D01*
X2749Y12858D01*
X3498Y13607D01*
X3498Y15106D01*
X4247Y15855D01*
X4997Y15855D01*
X5746Y15106D01*
X5746Y13607D01*
X4997Y12858D01*
X5746Y18960D02*
X1250Y18960D01*
X1250Y17462D02*
X1250Y20459D01*
X1250Y34502D02*
X1999Y35251D01*
X1250Y34502D02*
X1250Y33003D01*
X1999Y32254D01*
X2749Y32254D01*
X3498Y33003D01*
X3498Y34502D01*
X4247Y35251D01*
X4997Y35251D01*
X5746Y34502D01*
X5746Y33003D01*
X4997Y32254D01*
X5746Y36858D02*
X1250Y36858D01*
X5746Y36858D02*
X5746Y39106D01*
X4997Y39855D01*
X1999Y39855D01*
X1250Y39106D01*
X1250Y36858D01*
X2749Y41462D02*
X5746Y41462D01*
X2749Y41462D02*
X1250Y42960D01*
X2749Y44459D01*
X5746Y44459D01*
X3498Y44459D02*
X3498Y41462D01*
X1250Y61502D02*
X1999Y62251D01*
X1250Y61502D02*
X1250Y60003D01*
X1999Y59254D01*
X2749Y59254D01*
X3498Y60003D01*
X3498Y61502D01*
X4247Y62251D01*
X4997Y62251D01*
X5746Y61502D01*
X5746Y60003D01*
X4997Y59254D01*
X1250Y66106D02*
X1999Y66855D01*
X1250Y66106D02*
X1250Y64607D01*
X1999Y63858D01*
X4997Y63858D01*
X5746Y64607D01*
X5746Y66106D01*
X4997Y66855D01*
X5746Y68462D02*
X1250Y68462D01*
X5746Y68462D02*
X5746Y71459D01*
D12*
X460927Y122427D02*
X460927Y126240D01*
X460927Y122427D02*
X463469Y122427D01*
X464669Y122427D02*
X465940Y122427D01*
X465305Y122427D02*
X465305Y126240D01*
X465940Y126240D02*
X464669Y126240D01*
X469070Y126240D02*
X469706Y125605D01*
X469070Y126240D02*
X467799Y126240D01*
X467164Y125605D01*
X467164Y124969D01*
X467799Y124334D01*
X469070Y124334D01*
X469706Y123698D01*
X469706Y123063D01*
X469070Y122427D01*
X467799Y122427D01*
X467164Y123063D01*
X470906Y125605D02*
X471541Y126240D01*
X472812Y126240D01*
X473448Y125605D01*
X473448Y124969D01*
X472812Y124334D01*
X472177Y124334D01*
X472812Y124334D02*
X473448Y123698D01*
X473448Y123063D01*
X472812Y122427D01*
X471541Y122427D01*
X470906Y123063D01*
X474648Y122427D02*
X474648Y126240D01*
X474648Y122427D02*
X476555Y122427D01*
X477190Y123063D01*
X477190Y125605D01*
X476555Y126240D01*
X474648Y126240D01*
X478390Y126240D02*
X478390Y122427D01*
X478390Y124334D02*
X480932Y124334D01*
X480932Y126240D02*
X480932Y122427D01*
X363927Y306427D02*
X363927Y310240D01*
X365834Y310240D01*
X366469Y309605D01*
X366469Y308969D01*
X365834Y308334D01*
X366469Y307698D01*
X366469Y307063D01*
X365834Y306427D01*
X363927Y306427D01*
X363927Y308334D02*
X365834Y308334D01*
X367669Y310240D02*
X367669Y306427D01*
X368940Y308969D02*
X367669Y310240D01*
X368940Y308969D02*
X370211Y310240D01*
X370211Y306427D01*
X371411Y310240D02*
X373953Y310240D01*
X371411Y310240D02*
X371411Y306427D01*
X373953Y306427D01*
X372682Y308334D02*
X371411Y308334D01*
X375153Y306427D02*
X377695Y306427D01*
X375153Y306427D02*
X377695Y308969D01*
X377695Y309605D01*
X377060Y310240D01*
X375789Y310240D01*
X375153Y309605D01*
X378895Y309605D02*
X379531Y310240D01*
X380802Y310240D01*
X381437Y309605D01*
X381437Y308969D01*
X380802Y308334D01*
X381437Y307698D01*
X381437Y307063D01*
X380802Y306427D01*
X379531Y306427D01*
X378895Y307063D01*
X378895Y307698D01*
X379531Y308334D01*
X378895Y308969D01*
X378895Y309605D01*
X379531Y308334D02*
X380802Y308334D01*
X382637Y307063D02*
X382637Y309605D01*
X383273Y310240D01*
X384544Y310240D01*
X385179Y309605D01*
X385179Y307063D01*
X384544Y306427D01*
X383273Y306427D01*
X382637Y307063D01*
X385179Y309605D01*
X202673Y60427D02*
X200385Y60427D01*
X202673Y60427D02*
X202673Y61952D01*
X202673Y62766D02*
X202673Y63528D01*
X202673Y63147D02*
X200385Y63147D01*
X200385Y62766D02*
X200385Y63528D01*
X200385Y65469D02*
X200766Y65850D01*
X200385Y65469D02*
X200385Y64706D01*
X200766Y64325D01*
X201148Y64325D01*
X201529Y64706D01*
X201529Y65469D01*
X201910Y65850D01*
X202292Y65850D01*
X202673Y65469D01*
X202673Y64706D01*
X202292Y64325D01*
X200766Y66664D02*
X200385Y67045D01*
X200385Y67808D01*
X200766Y68189D01*
X201148Y68189D01*
X201529Y67808D01*
X201529Y67426D01*
X201529Y67808D02*
X201910Y68189D01*
X202292Y68189D01*
X202673Y67808D01*
X202673Y67045D01*
X202292Y66664D01*
X202673Y69003D02*
X200385Y69003D01*
X201148Y69765D01*
X200385Y70528D01*
X202673Y70528D01*
X202673Y71341D02*
X200385Y71341D01*
X202673Y71341D02*
X202673Y72485D01*
X202292Y72867D01*
X200766Y72867D01*
X200385Y72485D01*
X200385Y71341D01*
X200385Y73680D02*
X202673Y73680D01*
X202673Y75205D01*
X314506Y214363D02*
X314506Y216905D01*
X315777Y218176D01*
X317048Y216905D01*
X317048Y214363D01*
X317048Y216270D02*
X314506Y216270D01*
X319519Y214363D02*
X319519Y218176D01*
X318248Y218176D02*
X320790Y218176D01*
X321990Y218176D02*
X321990Y214363D01*
X323261Y216905D02*
X321990Y218176D01*
X323261Y216905D02*
X324533Y218176D01*
X324533Y214363D01*
X325732Y218176D02*
X328275Y218176D01*
X325732Y218176D02*
X325732Y214363D01*
X328275Y214363D01*
X327003Y216270D02*
X325732Y216270D01*
X331381Y218176D02*
X332017Y217541D01*
X331381Y218176D02*
X330110Y218176D01*
X329474Y217541D01*
X329474Y214999D01*
X330110Y214363D01*
X331381Y214363D01*
X332017Y214999D01*
X332017Y216270D01*
X330746Y216270D01*
X333217Y216905D02*
X333217Y214363D01*
X333217Y216905D02*
X334488Y218176D01*
X335759Y216905D01*
X335759Y214363D01*
X335759Y216270D02*
X333217Y216270D01*
X336959Y217541D02*
X337594Y218176D01*
X338865Y218176D01*
X339501Y217541D01*
X339501Y216905D01*
X338865Y216270D01*
X338230Y216270D01*
X338865Y216270D02*
X339501Y215634D01*
X339501Y214999D01*
X338865Y214363D01*
X337594Y214363D01*
X336959Y214999D01*
X340701Y214363D02*
X343243Y214363D01*
X340701Y214363D02*
X343243Y216905D01*
X343243Y217541D01*
X342607Y218176D01*
X341336Y218176D01*
X340701Y217541D01*
X344443Y217541D02*
X345078Y218176D01*
X346349Y218176D01*
X346985Y217541D01*
X346985Y216905D01*
X346349Y216270D01*
X346985Y215634D01*
X346985Y214999D01*
X346349Y214363D01*
X345078Y214363D01*
X344443Y214999D01*
X344443Y215634D01*
X345078Y216270D01*
X344443Y216905D01*
X344443Y217541D01*
X345078Y216270D02*
X346349Y216270D01*
X348185Y218176D02*
X348185Y214363D01*
X348185Y218176D02*
X350091Y218176D01*
X350727Y217541D01*
X350727Y216270D01*
X350091Y215634D01*
X348185Y215634D01*
X535668Y148243D02*
X535668Y146379D01*
X535668Y148243D02*
X536600Y149175D01*
X537532Y148243D01*
X537532Y146379D01*
X537532Y147777D02*
X535668Y147777D01*
X538475Y146379D02*
X538475Y149175D01*
X538475Y147777D02*
X540339Y147777D01*
X540339Y149175D02*
X540339Y146379D01*
X541281Y146845D02*
X541747Y146379D01*
X542679Y146379D01*
X543145Y146845D01*
X543145Y148709D01*
X542679Y149175D01*
X541747Y149175D01*
X541281Y148709D01*
X541281Y148243D01*
X541747Y147777D01*
X543145Y147777D01*
X544088Y146379D02*
X545952Y146379D01*
X544088Y146379D02*
X545952Y148243D01*
X545952Y148709D01*
X545486Y149175D01*
X544554Y149175D01*
X544088Y148709D01*
X548292Y149175D02*
X548292Y146379D01*
X546894Y147777D02*
X548292Y149175D01*
X548758Y147777D02*
X546894Y147777D01*
X550633Y148709D02*
X551565Y149175D01*
X550633Y148709D02*
X549701Y147777D01*
X549701Y146845D01*
X550167Y146379D01*
X551099Y146379D01*
X551565Y146845D01*
X551565Y147311D01*
X551099Y147777D01*
X549701Y147777D01*
X552507Y147777D02*
X554371Y147777D01*
X555314Y149175D02*
X555314Y146379D01*
X556246Y147311D01*
X557178Y146379D01*
X557178Y149175D01*
X558120Y149175D02*
X559985Y149175D01*
X559985Y148709D01*
X558120Y146845D01*
X558120Y146379D01*
D11*
X597565Y209458D02*
X597565Y215051D01*
X600362Y215051D01*
X601294Y214119D01*
X601294Y212254D01*
X600362Y211322D01*
X597565Y211322D01*
X603179Y209458D02*
X603179Y215051D01*
X605975Y215051D01*
X606907Y214119D01*
X606907Y212254D01*
X605975Y211322D01*
X603179Y211322D01*
X605043Y211322D02*
X606907Y209458D01*
X609724Y215051D02*
X611588Y215051D01*
X609724Y215051D02*
X608792Y214119D01*
X608792Y210390D01*
X609724Y209458D01*
X611588Y209458D01*
X612520Y210390D01*
X612520Y214119D01*
X611588Y215051D01*
X614405Y213187D02*
X614405Y209458D01*
X614405Y213187D02*
X616269Y215051D01*
X618133Y213187D01*
X618133Y209458D01*
X618133Y212254D02*
X614405Y212254D01*
X620018Y209458D02*
X620018Y215051D01*
X623746Y209458D01*
X623746Y215051D01*
X627495Y215051D02*
X627495Y209458D01*
X625631Y215051D02*
X629359Y215051D01*
X637789Y215051D02*
X639653Y215051D01*
X637789Y215051D02*
X636857Y214119D01*
X636857Y210390D01*
X637789Y209458D01*
X639653Y209458D01*
X640586Y210390D01*
X640586Y214119D01*
X639653Y215051D01*
X642470Y215051D02*
X642470Y209458D01*
X646199Y209458D02*
X642470Y215051D01*
X646199Y215051D02*
X646199Y209458D01*
X648083Y209458D02*
X648083Y215051D01*
X650880Y215051D01*
X651812Y214119D01*
X651812Y213187D01*
X650880Y212254D01*
X651812Y211322D01*
X651812Y210390D01*
X650880Y209458D01*
X648083Y209458D01*
X648083Y212254D02*
X650880Y212254D01*
X654629Y215051D02*
X656493Y215051D01*
X654629Y215051D02*
X653696Y214119D01*
X653696Y210390D01*
X654629Y209458D01*
X656493Y209458D01*
X657425Y210390D01*
X657425Y214119D01*
X656493Y215051D01*
X659309Y213187D02*
X659309Y209458D01*
X659309Y213187D02*
X661174Y215051D01*
X663038Y213187D01*
X663038Y209458D01*
X663038Y212254D02*
X659309Y212254D01*
X664923Y209458D02*
X664923Y215051D01*
X667719Y215051D01*
X668651Y214119D01*
X668651Y212254D01*
X667719Y211322D01*
X664923Y211322D01*
X666787Y211322D02*
X668651Y209458D01*
X670536Y209458D02*
X670536Y215051D01*
X670536Y209458D02*
X673332Y209458D01*
X674264Y210390D01*
X674264Y214119D01*
X673332Y215051D01*
X670536Y215051D01*
X681762Y214119D02*
X682694Y215051D01*
X684558Y215051D01*
X685490Y214119D01*
X685490Y213187D01*
X684558Y212254D01*
X685490Y211322D01*
X685490Y210390D01*
X684558Y209458D01*
X682694Y209458D01*
X681762Y210390D01*
X681762Y211322D01*
X682694Y212254D01*
X681762Y213187D01*
X681762Y214119D01*
X682694Y212254D02*
X684558Y212254D01*
X689239Y214119D02*
X691103Y215051D01*
X689239Y214119D02*
X687375Y212254D01*
X687375Y210390D01*
X688307Y209458D01*
X690171Y209458D01*
X691103Y210390D01*
X691103Y211322D01*
X690171Y212254D01*
X687375Y212254D01*
X692988Y214119D02*
X693920Y215051D01*
X695784Y215051D01*
X696717Y214119D01*
X696717Y213187D01*
X695784Y212254D01*
X696717Y211322D01*
X696717Y210390D01*
X695784Y209458D01*
X693920Y209458D01*
X692988Y210390D01*
X692988Y211322D01*
X693920Y212254D01*
X692988Y213187D01*
X692988Y214119D01*
X693920Y212254D02*
X695784Y212254D01*
X698601Y209458D02*
X702330Y215051D01*
X704214Y210390D02*
X705146Y209458D01*
X707011Y209458D01*
X707943Y210390D01*
X707943Y214119D01*
X707011Y215051D01*
X705146Y215051D01*
X704214Y214119D01*
X704214Y213187D01*
X705146Y212254D01*
X707943Y212254D01*
X709827Y213187D02*
X711692Y215051D01*
X711692Y209458D01*
X713556Y209458D02*
X709827Y209458D01*
X715440Y215051D02*
X719169Y215051D01*
X715440Y215051D02*
X715440Y212254D01*
X717305Y213187D01*
X718237Y213187D01*
X719169Y212254D01*
X719169Y210390D01*
X718237Y209458D01*
X716373Y209458D01*
X715440Y210390D01*
X307736Y381158D02*
X307736Y386751D01*
X309600Y384887D01*
X311464Y386751D01*
X311464Y381158D01*
X313349Y381158D02*
X313349Y384887D01*
X315213Y386751D01*
X317078Y384887D01*
X317078Y381158D01*
X317078Y383954D02*
X313349Y383954D01*
X321759Y386751D02*
X322691Y385819D01*
X321759Y386751D02*
X319894Y386751D01*
X318962Y385819D01*
X318962Y382090D01*
X319894Y381158D01*
X321759Y381158D01*
X322691Y382090D01*
X322691Y383954D01*
X320826Y383954D01*
X332985Y386751D02*
X333917Y385819D01*
X332985Y386751D02*
X331120Y386751D01*
X330188Y385819D01*
X330188Y384887D01*
X331120Y383954D01*
X332985Y383954D01*
X333917Y383022D01*
X333917Y382090D01*
X332985Y381158D01*
X331120Y381158D01*
X330188Y382090D01*
X335801Y386751D02*
X339530Y386751D01*
X335801Y386751D02*
X335801Y381158D01*
X339530Y381158D01*
X337666Y383954D02*
X335801Y383954D01*
X341415Y381158D02*
X341415Y386751D01*
X345143Y381158D01*
X345143Y386751D01*
X349824Y386751D02*
X350756Y385819D01*
X349824Y386751D02*
X347960Y386751D01*
X347028Y385819D01*
X347028Y384887D01*
X347960Y383954D01*
X349824Y383954D01*
X350756Y383022D01*
X350756Y382090D01*
X349824Y381158D01*
X347960Y381158D01*
X347028Y382090D01*
X352641Y386751D02*
X356369Y386751D01*
X352641Y386751D02*
X352641Y381158D01*
X356369Y381158D01*
X354505Y383954D02*
X352641Y383954D01*
D13*
X271574Y262640D02*
X270435Y262640D01*
X269297Y261502D01*
X269297Y260363D01*
X271574Y258086D01*
X272712Y258086D01*
X273850Y259225D01*
X273850Y260363D01*
X273835Y263763D02*
X273835Y266040D01*
X277250Y262625D01*
X276112Y261486D02*
X278389Y263763D01*
X404837Y161449D02*
X405642Y160644D01*
X404837Y161449D02*
X403227Y161449D01*
X402422Y160644D01*
X402422Y157424D01*
X403227Y156619D01*
X404837Y156619D01*
X405642Y157424D01*
X408035Y156619D02*
X411255Y156619D01*
X408035Y156619D02*
X411255Y159839D01*
X411255Y160644D01*
X410450Y161449D01*
X408840Y161449D01*
X408035Y160644D01*
X270742Y388580D02*
X269937Y389385D01*
X268327Y389385D01*
X267522Y388580D01*
X267522Y385360D01*
X268327Y384555D01*
X269937Y384555D01*
X270742Y385360D01*
X273135Y388580D02*
X273940Y389385D01*
X275550Y389385D01*
X276355Y388580D01*
X276355Y387775D01*
X275550Y386970D01*
X274745Y386970D01*
X275550Y386970D02*
X276355Y386165D01*
X276355Y385360D01*
X275550Y384555D01*
X273940Y384555D01*
X273135Y385360D01*
X287675Y144263D02*
X287675Y134738D01*
X266822Y146485D02*
X266822Y151315D01*
X266822Y146485D02*
X269237Y146485D01*
X270042Y147290D01*
X270042Y150510D01*
X269237Y151315D01*
X266822Y151315D01*
X272435Y149705D02*
X274045Y151315D01*
X274045Y146485D01*
X272435Y146485D02*
X275655Y146485D01*
D14*
X395300Y26350D02*
X401650Y32700D01*
X414350Y32700D01*
X420700Y26350D01*
X420700Y13650D02*
X414350Y7300D01*
X401650Y7300D01*
X395300Y13650D01*
X363550Y32700D02*
X350850Y32700D01*
X363550Y32700D02*
X369900Y26350D01*
X369900Y13650D02*
X363550Y7300D01*
X369900Y26350D02*
X376250Y32700D01*
X388950Y32700D01*
X395300Y26350D01*
X395300Y13650D02*
X388950Y7300D01*
X376250Y7300D01*
X369900Y13650D01*
X325450Y32700D02*
X319100Y26350D01*
X325450Y32700D02*
X338150Y32700D01*
X344500Y26350D01*
X344500Y13650D02*
X338150Y7300D01*
X325450Y7300D01*
X319100Y13650D01*
X344500Y26350D02*
X350850Y32700D01*
X344500Y13650D02*
X350850Y7300D01*
X363550Y7300D01*
X287350Y32700D02*
X274650Y32700D01*
X287350Y32700D02*
X293700Y26350D01*
X293700Y13650D02*
X287350Y7300D01*
X293700Y26350D02*
X300050Y32700D01*
X312750Y32700D01*
X319100Y26350D01*
X319100Y13650D02*
X312750Y7300D01*
X300050Y7300D01*
X293700Y13650D01*
X268300Y13650D02*
X268300Y26350D01*
X274650Y32700D01*
X268300Y13650D02*
X274650Y7300D01*
X287350Y7300D01*
X420700Y13650D02*
X420700Y26350D01*
D13*
X423935Y18410D02*
X424740Y17605D01*
X425545Y17605D01*
X426350Y18410D01*
X426350Y22435D01*
X425545Y22435D02*
X427155Y22435D01*
X429548Y20825D02*
X431158Y22435D01*
X431158Y17605D01*
X429548Y17605D02*
X432768Y17605D01*
D14*
X7500Y237550D02*
X7500Y250250D01*
X13850Y256600D01*
X26550Y256600D02*
X32900Y250250D01*
X7500Y212150D02*
X13850Y205800D01*
X7500Y212150D02*
X7500Y224850D01*
X13850Y231200D01*
X26550Y231200D02*
X32900Y224850D01*
X32900Y212150D01*
X26550Y205800D01*
X13850Y231200D02*
X7500Y237550D01*
X26550Y231200D02*
X32900Y237550D01*
X32900Y250250D01*
X7500Y174050D02*
X7500Y161350D01*
X7500Y174050D02*
X13850Y180400D01*
X26550Y180400D02*
X32900Y174050D01*
X13850Y180400D02*
X7500Y186750D01*
X7500Y199450D01*
X13850Y205800D01*
X26550Y205800D02*
X32900Y199450D01*
X32900Y186750D01*
X26550Y180400D01*
X7500Y135950D02*
X13850Y129600D01*
X7500Y135950D02*
X7500Y148650D01*
X13850Y155000D01*
X26550Y155000D02*
X32900Y148650D01*
X32900Y135950D01*
X26550Y129600D01*
X13850Y155000D02*
X7500Y161350D01*
X26550Y155000D02*
X32900Y161350D01*
X32900Y174050D01*
X7500Y97850D02*
X7500Y85150D01*
X7500Y97850D02*
X13850Y104200D01*
X26550Y104200D02*
X32900Y97850D01*
X13850Y104200D02*
X7500Y110550D01*
X7500Y123250D01*
X13850Y129600D01*
X26550Y129600D02*
X32900Y123250D01*
X32900Y110550D01*
X26550Y104200D01*
X26550Y78800D02*
X13850Y78800D01*
X7500Y85150D01*
X26550Y78800D02*
X32900Y85150D01*
X32900Y97850D01*
X7500Y262950D02*
X7500Y275650D01*
X13850Y282000D01*
X26550Y282000D02*
X32900Y275650D01*
X13850Y256600D02*
X7500Y262950D01*
X26550Y256600D02*
X32900Y262950D01*
X32900Y275650D01*
X7500Y288350D02*
X7500Y301050D01*
X13850Y307400D01*
X26550Y307400D02*
X32900Y301050D01*
X13850Y282000D02*
X7500Y288350D01*
X26550Y282000D02*
X32900Y288350D01*
X32900Y301050D01*
X7500Y313750D02*
X7500Y326450D01*
X13850Y332800D01*
X26550Y332800D02*
X32900Y326450D01*
X13850Y307400D02*
X7500Y313750D01*
X26550Y307400D02*
X32900Y313750D01*
X32900Y326450D01*
X7500Y339150D02*
X7500Y351850D01*
X13850Y358200D01*
X26550Y358200D02*
X32900Y351850D01*
X13850Y332800D02*
X7500Y339150D01*
X26550Y332800D02*
X32900Y339150D01*
X32900Y351850D01*
X7500Y364550D02*
X7500Y377250D01*
X13850Y383600D01*
X26550Y383600D01*
X32900Y377250D01*
X13850Y358200D02*
X7500Y364550D01*
X26550Y358200D02*
X32900Y364550D01*
X32900Y377250D01*
D13*
X79595Y99240D02*
X78790Y98435D01*
X79595Y99240D02*
X79595Y100045D01*
X78790Y100850D01*
X74765Y100850D01*
X74765Y100045D02*
X74765Y101655D01*
X79595Y104048D02*
X79595Y107268D01*
X79595Y104048D02*
X76375Y107268D01*
X75570Y107268D01*
X74765Y106463D01*
X74765Y104853D01*
X75570Y104048D01*
X266622Y162655D02*
X266622Y167485D01*
X269037Y167485D01*
X269842Y166680D01*
X269842Y165070D01*
X269037Y164265D01*
X266622Y164265D01*
X268232Y164265D02*
X269842Y162655D01*
X272235Y165875D02*
X273845Y167485D01*
X273845Y162655D01*
X272235Y162655D02*
X275455Y162655D01*
X276181Y273922D02*
X271351Y273922D01*
X271351Y276337D01*
X272156Y277142D01*
X273766Y277142D01*
X274571Y276337D01*
X274571Y273922D01*
X274571Y275532D02*
X276181Y277142D01*
X272156Y279535D02*
X271351Y280340D01*
X271351Y281950D01*
X272156Y282755D01*
X272961Y282755D01*
X273766Y281950D01*
X273766Y281145D01*
X273766Y281950D02*
X274571Y282755D01*
X275376Y282755D01*
X276181Y281950D01*
X276181Y280340D01*
X275376Y279535D01*
D14*
X384068Y214000D02*
X334500Y164432D01*
X284932Y214000D01*
X331990Y261058D01*
X337010Y261058D02*
X384068Y214000D01*
X337010Y261058D02*
X331990Y261058D01*
X333156Y265906D02*
X333158Y265984D01*
X333164Y266061D01*
X333174Y266139D01*
X333188Y266215D01*
X333205Y266291D01*
X333227Y266366D01*
X333252Y266439D01*
X333281Y266512D01*
X333314Y266582D01*
X333351Y266651D01*
X333390Y266718D01*
X333433Y266783D01*
X333480Y266845D01*
X333529Y266905D01*
X333582Y266963D01*
X333637Y267017D01*
X333695Y267069D01*
X333756Y267118D01*
X333819Y267164D01*
X333885Y267206D01*
X333952Y267245D01*
X334021Y267280D01*
X334092Y267312D01*
X334165Y267340D01*
X334239Y267365D01*
X334314Y267385D01*
X334390Y267402D01*
X334467Y267415D01*
X334544Y267424D01*
X334622Y267429D01*
X334699Y267430D01*
X334777Y267427D01*
X334855Y267420D01*
X334932Y267409D01*
X335008Y267394D01*
X335084Y267376D01*
X335158Y267353D01*
X335232Y267327D01*
X335303Y267297D01*
X335374Y267263D01*
X335442Y267226D01*
X335508Y267185D01*
X335573Y267141D01*
X335635Y267094D01*
X335694Y267044D01*
X335751Y266990D01*
X335805Y266934D01*
X335856Y266876D01*
X335904Y266814D01*
X335949Y266751D01*
X335990Y266685D01*
X336028Y266617D01*
X336063Y266547D01*
X336094Y266476D01*
X336121Y266403D01*
X336144Y266329D01*
X336164Y266253D01*
X336180Y266177D01*
X336192Y266100D01*
X336200Y266023D01*
X336204Y265945D01*
X336204Y265867D01*
X336200Y265789D01*
X336192Y265712D01*
X336180Y265635D01*
X336164Y265559D01*
X336144Y265483D01*
X336121Y265409D01*
X336094Y265336D01*
X336063Y265265D01*
X336028Y265195D01*
X335990Y265127D01*
X335949Y265061D01*
X335904Y264998D01*
X335856Y264936D01*
X335805Y264878D01*
X335751Y264822D01*
X335694Y264768D01*
X335635Y264718D01*
X335573Y264671D01*
X335508Y264627D01*
X335442Y264586D01*
X335374Y264549D01*
X335303Y264515D01*
X335232Y264485D01*
X335158Y264459D01*
X335084Y264436D01*
X335008Y264418D01*
X334932Y264403D01*
X334855Y264392D01*
X334777Y264385D01*
X334699Y264382D01*
X334622Y264383D01*
X334544Y264388D01*
X334467Y264397D01*
X334390Y264410D01*
X334314Y264427D01*
X334239Y264447D01*
X334165Y264472D01*
X334092Y264500D01*
X334021Y264532D01*
X333952Y264567D01*
X333885Y264606D01*
X333819Y264648D01*
X333756Y264694D01*
X333695Y264743D01*
X333637Y264795D01*
X333582Y264849D01*
X333529Y264907D01*
X333480Y264967D01*
X333433Y265029D01*
X333390Y265094D01*
X333351Y265161D01*
X333314Y265230D01*
X333281Y265300D01*
X333252Y265373D01*
X333227Y265446D01*
X333205Y265521D01*
X333188Y265597D01*
X333174Y265673D01*
X333164Y265751D01*
X333158Y265828D01*
X333156Y265906D01*
D13*
X386409Y209949D02*
X389255Y212796D01*
X386409Y209949D02*
X386409Y208811D01*
X387548Y207672D01*
X388686Y207672D01*
X391532Y210519D01*
X392086Y207688D02*
X394363Y207688D01*
X390948Y204273D01*
X389809Y205411D02*
X392086Y203134D01*
D15*
X452120Y106820D03*
D14*
X452650Y110878D02*
X456206Y107322D01*
X453404Y135762D02*
X453404Y140842D01*
X456206Y140842D01*
X483622Y140842D02*
X486424Y140842D01*
X486424Y135762D01*
X486424Y113410D02*
X486424Y108330D01*
X483622Y108330D01*
D13*
X474422Y105219D02*
X474422Y101194D01*
X475227Y100389D01*
X476837Y100389D01*
X477642Y101194D01*
X477642Y105219D01*
X480035Y104414D02*
X480840Y105219D01*
X482450Y105219D01*
X483255Y104414D01*
X483255Y103609D01*
X482450Y102804D01*
X481645Y102804D01*
X482450Y102804D02*
X483255Y101999D01*
X483255Y101194D01*
X482450Y100389D01*
X480840Y100389D01*
X480035Y101194D01*
D14*
X272402Y204189D02*
X259402Y204189D01*
X259402Y241687D02*
X272402Y241687D01*
D13*
X279131Y217922D02*
X279936Y217922D01*
X281546Y219532D01*
X279936Y221142D01*
X279131Y221142D01*
X281546Y219532D02*
X283961Y219532D01*
X280741Y223535D02*
X279131Y225145D01*
X283961Y225145D01*
X283961Y223535D02*
X283961Y226755D01*
X446264Y320300D02*
X446266Y320394D01*
X446272Y320488D01*
X446282Y320582D01*
X446296Y320675D01*
X446314Y320768D01*
X446335Y320860D01*
X446361Y320950D01*
X446390Y321040D01*
X446423Y321128D01*
X446460Y321215D01*
X446500Y321300D01*
X446544Y321384D01*
X446592Y321465D01*
X446642Y321545D01*
X446697Y321622D01*
X446754Y321697D01*
X446814Y321769D01*
X446878Y321839D01*
X446944Y321906D01*
X447013Y321970D01*
X447085Y322031D01*
X447159Y322089D01*
X447236Y322144D01*
X447315Y322196D01*
X447396Y322244D01*
X447479Y322289D01*
X447563Y322330D01*
X447650Y322368D01*
X447738Y322402D01*
X447827Y322432D01*
X447917Y322459D01*
X448009Y322481D01*
X448101Y322500D01*
X448195Y322515D01*
X448288Y322526D01*
X448382Y322533D01*
X448476Y322536D01*
X448571Y322535D01*
X448665Y322530D01*
X448759Y322521D01*
X448852Y322508D01*
X448945Y322491D01*
X449037Y322471D01*
X449128Y322446D01*
X449218Y322418D01*
X449306Y322386D01*
X449394Y322350D01*
X449479Y322310D01*
X449563Y322267D01*
X449645Y322221D01*
X449725Y322171D01*
X449803Y322117D01*
X449878Y322061D01*
X449951Y322001D01*
X450022Y321938D01*
X450089Y321873D01*
X450154Y321804D01*
X450216Y321733D01*
X450275Y321660D01*
X450331Y321584D01*
X450383Y321505D01*
X450432Y321425D01*
X450478Y321342D01*
X450520Y321258D01*
X450559Y321172D01*
X450594Y321084D01*
X450625Y320995D01*
X450653Y320905D01*
X450676Y320814D01*
X450696Y320722D01*
X450712Y320629D01*
X450724Y320535D01*
X450732Y320441D01*
X450736Y320347D01*
X450736Y320253D01*
X450732Y320159D01*
X450724Y320065D01*
X450712Y319971D01*
X450696Y319878D01*
X450676Y319786D01*
X450653Y319695D01*
X450625Y319605D01*
X450594Y319516D01*
X450559Y319428D01*
X450520Y319342D01*
X450478Y319258D01*
X450432Y319175D01*
X450383Y319095D01*
X450331Y319016D01*
X450275Y318940D01*
X450216Y318867D01*
X450154Y318796D01*
X450089Y318727D01*
X450022Y318662D01*
X449951Y318599D01*
X449878Y318539D01*
X449803Y318483D01*
X449725Y318429D01*
X449645Y318379D01*
X449563Y318333D01*
X449479Y318290D01*
X449394Y318250D01*
X449306Y318214D01*
X449218Y318182D01*
X449128Y318154D01*
X449037Y318129D01*
X448945Y318109D01*
X448852Y318092D01*
X448759Y318079D01*
X448665Y318070D01*
X448571Y318065D01*
X448476Y318064D01*
X448382Y318067D01*
X448288Y318074D01*
X448195Y318085D01*
X448101Y318100D01*
X448009Y318119D01*
X447917Y318141D01*
X447827Y318168D01*
X447738Y318198D01*
X447650Y318232D01*
X447563Y318270D01*
X447479Y318311D01*
X447396Y318356D01*
X447315Y318404D01*
X447236Y318456D01*
X447159Y318511D01*
X447085Y318569D01*
X447013Y318630D01*
X446944Y318694D01*
X446878Y318761D01*
X446814Y318831D01*
X446754Y318903D01*
X446697Y318978D01*
X446642Y319055D01*
X446592Y319135D01*
X446544Y319216D01*
X446500Y319300D01*
X446460Y319385D01*
X446423Y319472D01*
X446390Y319560D01*
X446361Y319650D01*
X446335Y319740D01*
X446314Y319832D01*
X446296Y319925D01*
X446282Y320018D01*
X446272Y320112D01*
X446266Y320206D01*
X446264Y320300D01*
X425500Y335300D02*
X555500Y335300D01*
X555500Y184300D01*
X425500Y184300D01*
X425500Y335300D01*
X460036Y291836D02*
X461450Y290421D01*
X460036Y291836D02*
X459511Y292350D01*
X458974Y292851D01*
X458426Y293341D01*
X457866Y293818D01*
X457297Y294282D01*
X456717Y294733D01*
X456127Y295171D01*
X455527Y295595D01*
X454918Y296006D01*
X454299Y296403D01*
X453672Y296786D01*
X453215Y297050D01*
X452753Y297303D01*
X452284Y297545D01*
X451809Y297775D01*
X451329Y297993D01*
X450844Y298200D01*
X450843Y298200D02*
X450497Y298338D01*
X450147Y298468D01*
X449795Y298590D01*
X449440Y298704D01*
X449082Y298810D01*
X448722Y298907D01*
X448722Y298906D02*
X448623Y298930D01*
X448523Y298950D01*
X448422Y298967D01*
X448321Y298979D01*
X448219Y298989D01*
X448117Y298994D01*
X448015Y298996D01*
X447913Y298994D01*
X447811Y298989D01*
X447709Y298979D01*
X447608Y298967D01*
X447507Y298950D01*
X447407Y298930D01*
X447308Y298906D01*
X447307Y298907D02*
X447223Y298884D01*
X447140Y298856D01*
X447058Y298825D01*
X446978Y298790D01*
X446899Y298752D01*
X446823Y298710D01*
X446748Y298665D01*
X446675Y298617D01*
X446604Y298566D01*
X446536Y298511D01*
X446470Y298453D01*
X446407Y298393D01*
X446347Y298330D01*
X446289Y298264D01*
X446234Y298196D01*
X446183Y298125D01*
X446135Y298052D01*
X446090Y297977D01*
X446048Y297901D01*
X446010Y297822D01*
X445975Y297742D01*
X445944Y297660D01*
X445916Y297577D01*
X445893Y297493D01*
X445894Y297492D02*
X445870Y297393D01*
X445850Y297293D01*
X445833Y297192D01*
X445821Y297091D01*
X445811Y296989D01*
X445806Y296887D01*
X445804Y296785D01*
X445806Y296683D01*
X445811Y296581D01*
X445821Y296479D01*
X445833Y296378D01*
X445850Y296277D01*
X445870Y296177D01*
X445894Y296078D01*
X445893Y296078D02*
X445990Y295718D01*
X446096Y295360D01*
X446210Y295005D01*
X446332Y294652D01*
X446462Y294303D01*
X446600Y293956D01*
X446600Y293957D02*
X446807Y293472D01*
X447025Y292991D01*
X447255Y292517D01*
X447497Y292048D01*
X447750Y291585D01*
X448014Y291128D01*
X448397Y290501D01*
X448794Y289883D01*
X449205Y289274D01*
X449629Y288674D01*
X450067Y288084D01*
X450518Y287504D01*
X450983Y286934D01*
X451459Y286375D01*
X451949Y285827D01*
X452451Y285290D01*
X452964Y284764D01*
X459743Y279400D02*
X460355Y278959D01*
X460979Y278533D01*
X461613Y278123D01*
X462256Y277728D01*
X462909Y277349D01*
X463571Y276986D01*
X463917Y276848D01*
X464267Y276718D01*
X464619Y276596D01*
X464974Y276482D01*
X465332Y276376D01*
X465692Y276279D01*
X465791Y276255D01*
X465891Y276235D01*
X465992Y276218D01*
X466093Y276206D01*
X466195Y276196D01*
X466297Y276191D01*
X466399Y276189D01*
X466501Y276191D01*
X466603Y276196D01*
X466705Y276206D01*
X466806Y276218D01*
X466907Y276235D01*
X467007Y276255D01*
X467106Y276279D01*
X467107Y276279D02*
X467191Y276302D01*
X467274Y276330D01*
X467356Y276361D01*
X467436Y276396D01*
X467515Y276434D01*
X467591Y276476D01*
X467666Y276521D01*
X467739Y276569D01*
X467810Y276620D01*
X467878Y276675D01*
X467944Y276733D01*
X468007Y276793D01*
X468067Y276856D01*
X468125Y276922D01*
X468180Y276990D01*
X468231Y277061D01*
X468279Y277134D01*
X468324Y277209D01*
X468366Y277285D01*
X468404Y277364D01*
X468439Y277444D01*
X468470Y277526D01*
X468498Y277609D01*
X468521Y277693D01*
X468545Y277792D01*
X468565Y277892D01*
X468582Y277993D01*
X468594Y278094D01*
X468604Y278196D01*
X468609Y278298D01*
X468611Y278400D01*
X468609Y278502D01*
X468604Y278604D01*
X468594Y278706D01*
X468582Y278807D01*
X468565Y278908D01*
X468545Y279008D01*
X468521Y279107D01*
X468424Y279467D01*
X468318Y279825D01*
X468204Y280180D01*
X468082Y280533D01*
X467952Y280882D01*
X467814Y281229D01*
X467607Y281715D01*
X467389Y282195D01*
X467159Y282669D01*
X466917Y283138D01*
X466664Y283601D01*
X466400Y284058D01*
X466017Y284685D01*
X465620Y285303D01*
X465209Y285912D01*
X464785Y286512D01*
X464347Y287102D01*
X463896Y287682D01*
X463431Y288252D01*
X462955Y288811D01*
X462465Y289359D01*
X461963Y289896D01*
X461450Y290422D01*
X466036Y284764D02*
X466550Y285289D01*
X467051Y285826D01*
X467541Y286374D01*
X468018Y286934D01*
X468482Y287503D01*
X468933Y288083D01*
X469371Y288673D01*
X469795Y289273D01*
X470206Y289882D01*
X470603Y290501D01*
X470986Y291128D01*
X471250Y291585D01*
X471503Y292047D01*
X471745Y292516D01*
X471975Y292991D01*
X472193Y293471D01*
X472400Y293956D01*
X472400Y293957D02*
X472538Y294303D01*
X472668Y294653D01*
X472790Y295005D01*
X472904Y295360D01*
X473010Y295718D01*
X473107Y296078D01*
X473106Y296078D02*
X473130Y296177D01*
X473150Y296277D01*
X473167Y296378D01*
X473179Y296479D01*
X473189Y296581D01*
X473194Y296683D01*
X473196Y296785D01*
X473194Y296887D01*
X473189Y296989D01*
X473179Y297091D01*
X473167Y297192D01*
X473150Y297293D01*
X473130Y297393D01*
X473106Y297492D01*
X473107Y297493D02*
X473084Y297577D01*
X473056Y297660D01*
X473025Y297742D01*
X472990Y297822D01*
X472952Y297901D01*
X472910Y297977D01*
X472865Y298052D01*
X472817Y298125D01*
X472766Y298196D01*
X472711Y298264D01*
X472653Y298330D01*
X472593Y298393D01*
X472530Y298453D01*
X472464Y298511D01*
X472396Y298566D01*
X472325Y298617D01*
X472252Y298665D01*
X472177Y298710D01*
X472101Y298752D01*
X472022Y298790D01*
X471942Y298825D01*
X471860Y298856D01*
X471777Y298884D01*
X471693Y298907D01*
X471692Y298906D02*
X471593Y298930D01*
X471493Y298950D01*
X471392Y298967D01*
X471291Y298979D01*
X471189Y298989D01*
X471087Y298994D01*
X470985Y298996D01*
X470883Y298994D01*
X470781Y298989D01*
X470679Y298979D01*
X470578Y298967D01*
X470477Y298950D01*
X470377Y298930D01*
X470278Y298906D01*
X470278Y298907D02*
X469918Y298810D01*
X469560Y298704D01*
X469205Y298590D01*
X468852Y298468D01*
X468503Y298338D01*
X468156Y298200D01*
X468157Y298200D02*
X467672Y297993D01*
X467191Y297775D01*
X466717Y297545D01*
X466248Y297303D01*
X465785Y297050D01*
X465328Y296786D01*
X464701Y296403D01*
X464083Y296006D01*
X463474Y295595D01*
X462874Y295171D01*
X462284Y294733D01*
X461704Y294282D01*
X461134Y293817D01*
X460575Y293341D01*
X460027Y292851D01*
X459490Y292349D01*
X458964Y291836D01*
X457550Y290421D01*
X457036Y289896D01*
X456535Y289359D01*
X456045Y288811D01*
X455568Y288251D01*
X455104Y287682D01*
X454653Y287102D01*
X454215Y286512D01*
X453791Y285912D01*
X453380Y285303D01*
X452983Y284684D01*
X452600Y284057D01*
X452336Y283601D01*
X452083Y283138D01*
X451841Y282669D01*
X451611Y282194D01*
X451393Y281714D01*
X451186Y281229D01*
X451048Y280883D01*
X450918Y280533D01*
X450796Y280181D01*
X450682Y279826D01*
X450576Y279468D01*
X450479Y279108D01*
X450455Y279009D01*
X450435Y278909D01*
X450418Y278808D01*
X450406Y278707D01*
X450396Y278605D01*
X450391Y278503D01*
X450389Y278401D01*
X450391Y278299D01*
X450396Y278197D01*
X450406Y278095D01*
X450418Y277994D01*
X450435Y277893D01*
X450455Y277793D01*
X450479Y277694D01*
X450479Y277693D02*
X450502Y277609D01*
X450530Y277526D01*
X450561Y277444D01*
X450596Y277364D01*
X450634Y277285D01*
X450676Y277209D01*
X450721Y277134D01*
X450769Y277061D01*
X450820Y276990D01*
X450875Y276922D01*
X450933Y276856D01*
X450993Y276793D01*
X451056Y276733D01*
X451122Y276675D01*
X451190Y276620D01*
X451261Y276569D01*
X451334Y276521D01*
X451409Y276476D01*
X451485Y276434D01*
X451564Y276396D01*
X451644Y276361D01*
X451726Y276330D01*
X451809Y276302D01*
X451893Y276279D01*
X451992Y276255D01*
X452092Y276235D01*
X452193Y276218D01*
X452294Y276206D01*
X452396Y276196D01*
X452498Y276191D01*
X452600Y276189D01*
X452702Y276191D01*
X452804Y276196D01*
X452906Y276206D01*
X453007Y276218D01*
X453108Y276235D01*
X453208Y276255D01*
X453307Y276279D01*
X453667Y276376D01*
X454025Y276482D01*
X454380Y276596D01*
X454733Y276718D01*
X455082Y276848D01*
X455429Y276986D01*
X456091Y277349D01*
X456744Y277728D01*
X457388Y278123D01*
X458021Y278533D01*
X458645Y278959D01*
X459258Y279400D01*
X459500Y279300D02*
X459500Y292300D01*
X425500Y335300D02*
X425500Y385300D01*
X555500Y385300D01*
X555500Y335300D01*
D10*
X479008Y301502D02*
X479008Y289808D01*
X482906Y293706D01*
X486804Y289808D01*
X486804Y301502D01*
X490702Y297604D02*
X492651Y297604D01*
X492651Y289808D01*
X490702Y289808D02*
X494600Y289808D01*
X492651Y301502D02*
X492651Y303451D01*
X504345Y301502D02*
X506294Y299553D01*
X504345Y301502D02*
X500447Y301502D01*
X498498Y299553D01*
X498498Y297604D01*
X500447Y295655D01*
X504345Y295655D01*
X506294Y293706D01*
X506294Y291757D01*
X504345Y289808D01*
X500447Y289808D01*
X498498Y291757D01*
X512141Y301502D02*
X516039Y301502D01*
X512141Y301502D02*
X510192Y299553D01*
X510192Y291757D01*
X512141Y289808D01*
X516039Y289808D01*
X517988Y291757D01*
X517988Y299553D01*
X516039Y301502D01*
X521886Y301502D02*
X521886Y289808D01*
X529682Y289808D01*
X486804Y282553D02*
X484855Y284502D01*
X480957Y284502D01*
X479008Y282553D01*
X479008Y280604D01*
X480957Y278655D01*
X484855Y278655D01*
X486804Y276706D01*
X486804Y274757D01*
X484855Y272808D01*
X480957Y272808D01*
X479008Y274757D01*
X490702Y272808D02*
X490702Y284502D01*
X498498Y284502D01*
X494600Y278655D02*
X490702Y278655D01*
X502396Y272808D02*
X502396Y284502D01*
X506294Y280604D01*
X510192Y284502D01*
X510192Y272808D01*
X514090Y280604D02*
X517988Y284502D01*
X517988Y272808D01*
X514090Y272808D02*
X521886Y272808D01*
X525784Y274757D02*
X525784Y282553D01*
X527733Y284502D01*
X531631Y284502D01*
X533580Y282553D01*
X533580Y274757D01*
X531631Y272808D01*
X527733Y272808D01*
X525784Y274757D01*
X533580Y282553D01*
D11*
X509618Y327554D02*
X507754Y331283D01*
X511483Y331283D02*
X509618Y327554D01*
X514299Y327554D02*
X516163Y327554D01*
X514299Y327554D02*
X513367Y328486D01*
X513367Y330350D01*
X514299Y331283D01*
X516163Y331283D01*
X517096Y330350D01*
X517096Y329418D01*
X513367Y329418D01*
X518980Y327554D02*
X518980Y331283D01*
X520844Y331283D02*
X518980Y329418D01*
X520844Y331283D02*
X521777Y331283D01*
X529271Y333147D02*
X529271Y327554D01*
X529271Y333147D02*
X532067Y333147D01*
X532999Y332215D01*
X532999Y330350D01*
X532067Y329418D01*
X529271Y329418D01*
X531135Y329418D02*
X532999Y327554D01*
X534884Y331283D02*
X536748Y333147D01*
X536748Y327554D01*
X534884Y327554D02*
X538612Y327554D01*
X547974Y327554D02*
X549839Y329418D01*
X547974Y327554D02*
X547042Y327554D01*
X546110Y328486D01*
X546110Y329418D01*
X547974Y331283D01*
X547974Y332215D01*
X547042Y333147D01*
X546110Y332215D01*
X546110Y331283D01*
X549839Y327554D01*
X557336Y327554D02*
X557336Y333147D01*
X560133Y333147D01*
X561065Y332215D01*
X561065Y330350D01*
X560133Y329418D01*
X557336Y329418D01*
X559201Y329418D02*
X561065Y327554D01*
X562949Y332215D02*
X563882Y333147D01*
X565746Y333147D01*
X566678Y332215D01*
X566678Y331283D01*
X565746Y330350D01*
X564814Y330350D01*
X565746Y330350D02*
X566678Y329418D01*
X566678Y328486D01*
X565746Y327554D01*
X563882Y327554D01*
X562949Y328486D01*
X509618Y377554D02*
X507754Y381283D01*
X511483Y381283D02*
X509618Y377554D01*
X514299Y377554D02*
X516163Y377554D01*
X514299Y377554D02*
X513367Y378486D01*
X513367Y380350D01*
X514299Y381283D01*
X516163Y381283D01*
X517096Y380350D01*
X517096Y379418D01*
X513367Y379418D01*
X518980Y377554D02*
X518980Y381283D01*
X520844Y381283D02*
X518980Y379418D01*
X520844Y381283D02*
X521777Y381283D01*
X529271Y383147D02*
X529271Y377554D01*
X529271Y383147D02*
X532067Y383147D01*
X532999Y382215D01*
X532999Y380350D01*
X532067Y379418D01*
X529271Y379418D01*
X531135Y379418D02*
X532999Y377554D01*
X534884Y377554D02*
X538612Y377554D01*
X534884Y377554D02*
X538612Y381283D01*
X538612Y382215D01*
X537680Y383147D01*
X535816Y383147D01*
X534884Y382215D01*
X547974Y377554D02*
X549839Y379418D01*
X547974Y377554D02*
X547042Y377554D01*
X546110Y378486D01*
X546110Y379418D01*
X547974Y381283D01*
X547974Y382215D01*
X547042Y383147D01*
X546110Y382215D01*
X546110Y381283D01*
X549839Y377554D01*
X557336Y377554D02*
X557336Y383147D01*
X560133Y383147D01*
X561065Y382215D01*
X561065Y380350D01*
X560133Y379418D01*
X557336Y379418D01*
X559201Y379418D02*
X561065Y377554D01*
X565746Y377554D02*
X565746Y383147D01*
X562949Y380350D01*
X566678Y380350D01*
X478983Y342215D02*
X478050Y343147D01*
X476186Y343147D01*
X475254Y342215D01*
X475254Y341283D01*
X476186Y340350D01*
X478050Y340350D01*
X478983Y339418D01*
X478983Y338486D01*
X478050Y337554D01*
X476186Y337554D01*
X475254Y338486D01*
X480867Y337554D02*
X480867Y343147D01*
X484596Y343147D01*
X482731Y340350D02*
X480867Y340350D01*
X486480Y337554D02*
X486480Y343147D01*
X488344Y341283D01*
X490209Y343147D01*
X490209Y337554D01*
X492093Y341283D02*
X493958Y343147D01*
X493958Y337554D01*
X495822Y337554D02*
X492093Y337554D01*
D13*
X429620Y133535D02*
X428815Y132730D01*
X428815Y131120D01*
X429620Y130315D01*
X432840Y130315D01*
X433645Y131120D01*
X433645Y132730D01*
X432840Y133535D01*
X430425Y135928D02*
X428815Y137538D01*
X433645Y137538D01*
X433645Y135928D02*
X433645Y139149D01*
X432840Y141542D02*
X429620Y141542D01*
X428815Y142347D01*
X428815Y143957D01*
X429620Y144762D01*
X432840Y144762D01*
X433645Y143957D01*
X433645Y142347D01*
X432840Y141542D01*
X429620Y144762D01*
X306356Y48635D02*
X305551Y47830D01*
X305551Y46220D01*
X306356Y45415D01*
X309576Y45415D01*
X310381Y46220D01*
X310381Y47830D01*
X309576Y48635D01*
X307161Y51028D02*
X305551Y52638D01*
X310381Y52638D01*
X310381Y51028D02*
X310381Y54248D01*
X307161Y56642D02*
X305551Y58252D01*
X310381Y58252D01*
X310381Y56642D02*
X310381Y59862D01*
X694237Y282049D02*
X695042Y281244D01*
X694237Y282049D02*
X692627Y282049D01*
X691822Y281244D01*
X691822Y278024D01*
X692627Y277219D01*
X694237Y277219D01*
X695042Y278024D01*
X697435Y282049D02*
X700655Y282049D01*
X697435Y282049D02*
X697435Y279634D01*
X699045Y280439D01*
X699850Y280439D01*
X700655Y279634D01*
X700655Y278024D01*
X699850Y277219D01*
X698240Y277219D01*
X697435Y278024D01*
X683237Y263049D02*
X684042Y262244D01*
X683237Y263049D02*
X681627Y263049D01*
X680822Y262244D01*
X680822Y259024D01*
X681627Y258219D01*
X683237Y258219D01*
X684042Y259024D01*
X686435Y263049D02*
X689655Y263049D01*
X689655Y262244D01*
X686435Y259024D01*
X686435Y258219D01*
D14*
X13650Y53100D02*
X7300Y59450D01*
X7300Y72150D01*
X13650Y78500D01*
X26350Y78500D02*
X32700Y72150D01*
X32700Y59450D01*
X26350Y53100D01*
X7300Y21350D02*
X7300Y8650D01*
X7300Y21350D02*
X13650Y27700D01*
X26350Y27700D02*
X32700Y21350D01*
X13650Y27700D02*
X7300Y34050D01*
X7300Y46750D01*
X13650Y53100D01*
X26350Y53100D02*
X32700Y46750D01*
X32700Y34050D01*
X26350Y27700D01*
X26350Y2300D02*
X13650Y2300D01*
X7300Y8650D01*
X26350Y2300D02*
X32700Y8650D01*
X32700Y21350D01*
X26350Y78500D02*
X13650Y78500D01*
D13*
X77590Y21935D02*
X78395Y22740D01*
X78395Y23545D01*
X77590Y24350D01*
X73565Y24350D01*
X73565Y23545D02*
X73565Y25155D01*
X74370Y27548D02*
X73565Y28353D01*
X73565Y29963D01*
X74370Y30768D01*
X75175Y30768D01*
X75980Y29963D01*
X75980Y29158D01*
X75980Y29963D02*
X76785Y30768D01*
X77590Y30768D01*
X78395Y29963D01*
X78395Y28353D01*
X77590Y27548D01*
D14*
X273800Y296300D02*
X293800Y296300D01*
X293800Y336300D02*
X273800Y336300D01*
X306800Y307300D02*
X306715Y306960D01*
X306621Y306623D01*
X306518Y306287D01*
X306408Y305955D01*
X306290Y305625D01*
X306163Y305298D01*
X306029Y304974D01*
X305887Y304654D01*
X305737Y304337D01*
X305579Y304024D01*
X305414Y303715D01*
X305241Y303410D01*
X305061Y303110D01*
X304874Y302813D01*
X304679Y302522D01*
X304478Y302235D01*
X304269Y301954D01*
X304054Y301677D01*
X303832Y301406D01*
X303604Y301140D01*
X303369Y300880D01*
X303128Y300626D01*
X302880Y300377D01*
X302627Y300135D01*
X302368Y299899D01*
X302103Y299669D01*
X301833Y299446D01*
X301557Y299230D01*
X301277Y299020D01*
X300991Y298817D01*
X300700Y298622D01*
X300405Y298433D01*
X300105Y298252D01*
X299801Y298078D01*
X299492Y297911D01*
X299180Y297752D01*
X298864Y297601D01*
X298544Y297457D01*
X298221Y297322D01*
X297895Y297194D01*
X297565Y297074D01*
X297233Y296962D01*
X296898Y296859D01*
X296561Y296763D01*
X296222Y296676D01*
X295880Y296597D01*
X295537Y296526D01*
X295192Y296464D01*
X294846Y296411D01*
X294498Y296365D01*
X294150Y296328D01*
X293800Y296300D01*
X260800Y325300D02*
X260885Y325640D01*
X260979Y325977D01*
X261082Y326313D01*
X261192Y326645D01*
X261310Y326975D01*
X261437Y327302D01*
X261571Y327626D01*
X261713Y327946D01*
X261863Y328263D01*
X262021Y328576D01*
X262186Y328885D01*
X262359Y329190D01*
X262539Y329490D01*
X262726Y329787D01*
X262921Y330078D01*
X263122Y330365D01*
X263331Y330646D01*
X263546Y330923D01*
X263768Y331194D01*
X263996Y331460D01*
X264231Y331720D01*
X264472Y331974D01*
X264720Y332223D01*
X264973Y332465D01*
X265232Y332701D01*
X265497Y332931D01*
X265767Y333154D01*
X266043Y333370D01*
X266323Y333580D01*
X266609Y333783D01*
X266900Y333978D01*
X267195Y334167D01*
X267495Y334348D01*
X267799Y334522D01*
X268108Y334689D01*
X268420Y334848D01*
X268736Y334999D01*
X269056Y335143D01*
X269379Y335278D01*
X269705Y335406D01*
X270035Y335526D01*
X270367Y335638D01*
X270702Y335741D01*
X271039Y335837D01*
X271378Y335924D01*
X271720Y336003D01*
X272063Y336074D01*
X272408Y336136D01*
X272754Y336189D01*
X273102Y336235D01*
X273450Y336272D01*
X273800Y336300D01*
X260800Y307300D02*
X260886Y306960D01*
X260980Y306623D01*
X261082Y306287D01*
X261193Y305955D01*
X261311Y305625D01*
X261437Y305298D01*
X261572Y304974D01*
X261714Y304654D01*
X261864Y304337D01*
X262022Y304024D01*
X262187Y303715D01*
X262359Y303410D01*
X262539Y303109D01*
X262727Y302813D01*
X262921Y302522D01*
X263123Y302235D01*
X263331Y301953D01*
X263547Y301677D01*
X263769Y301406D01*
X263997Y301140D01*
X264232Y300880D01*
X264473Y300625D01*
X264720Y300377D01*
X264974Y300135D01*
X265233Y299899D01*
X265497Y299669D01*
X265768Y299446D01*
X266043Y299230D01*
X266324Y299020D01*
X266610Y298817D01*
X266901Y298621D01*
X267196Y298433D01*
X267496Y298252D01*
X267800Y298078D01*
X268109Y297911D01*
X268421Y297752D01*
X268737Y297601D01*
X269057Y297457D01*
X269380Y297321D01*
X269706Y297194D01*
X270035Y297074D01*
X270368Y296962D01*
X270702Y296858D01*
X271040Y296763D01*
X271379Y296676D01*
X271721Y296597D01*
X272064Y296526D01*
X272409Y296464D01*
X272755Y296410D01*
X273103Y296365D01*
X273451Y296328D01*
X273800Y296300D01*
X306800Y325300D02*
X306714Y325640D01*
X306620Y325977D01*
X306518Y326313D01*
X306407Y326645D01*
X306289Y326975D01*
X306163Y327302D01*
X306028Y327626D01*
X305886Y327946D01*
X305736Y328263D01*
X305578Y328576D01*
X305413Y328885D01*
X305241Y329190D01*
X305061Y329491D01*
X304873Y329787D01*
X304679Y330078D01*
X304477Y330365D01*
X304269Y330647D01*
X304053Y330923D01*
X303831Y331194D01*
X303603Y331460D01*
X303368Y331720D01*
X303127Y331975D01*
X302880Y332223D01*
X302626Y332465D01*
X302367Y332701D01*
X302103Y332931D01*
X301832Y333154D01*
X301557Y333370D01*
X301276Y333580D01*
X300990Y333783D01*
X300699Y333979D01*
X300404Y334167D01*
X300104Y334348D01*
X299800Y334522D01*
X299491Y334689D01*
X299179Y334848D01*
X298863Y334999D01*
X298543Y335143D01*
X298220Y335279D01*
X297894Y335406D01*
X297565Y335526D01*
X297232Y335638D01*
X296898Y335742D01*
X296560Y335837D01*
X296221Y335924D01*
X295879Y336003D01*
X295536Y336074D01*
X295191Y336136D01*
X294845Y336190D01*
X294497Y336235D01*
X294149Y336272D01*
X293800Y336300D01*
D13*
X278822Y294079D02*
X278822Y289249D01*
X278822Y294079D02*
X281237Y294079D01*
X282042Y293274D01*
X282042Y291664D01*
X281237Y290859D01*
X278822Y290859D01*
X280432Y290859D02*
X282042Y289249D01*
X284435Y289249D02*
X287655Y289249D01*
X284435Y289249D02*
X287655Y292469D01*
X287655Y293274D01*
X286850Y294079D01*
X285240Y294079D01*
X284435Y293274D01*
D16*
X394100Y357700D02*
X394100Y372700D01*
X423100Y372700D02*
X423100Y357700D01*
X423100Y372700D02*
X394100Y372700D01*
X394100Y357700D02*
X423100Y357700D01*
D17*
X408600Y375200D03*
X399100Y355200D03*
X418100Y355200D03*
D18*
X427533Y358200D02*
X431600Y358200D01*
X429566Y358200D02*
X429566Y360912D01*
X427533Y360912D02*
X431600Y360912D01*
X431600Y361942D02*
X428888Y361942D01*
X427533Y363298D01*
X428888Y364654D01*
X431600Y364654D01*
X429566Y364654D02*
X429566Y361942D01*
X427533Y365684D02*
X431600Y365684D01*
X431600Y368396D01*
X431600Y369426D02*
X427533Y369426D01*
X431600Y369426D02*
X431600Y372138D01*
X428888Y373168D02*
X427533Y374524D01*
X431600Y374524D01*
X431600Y373168D02*
X431600Y375880D01*
D13*
X405437Y330349D02*
X406242Y329544D01*
X405437Y330349D02*
X403827Y330349D01*
X403022Y329544D01*
X403022Y326324D01*
X403827Y325519D01*
X405437Y325519D01*
X406242Y326324D01*
X408635Y326324D02*
X409440Y325519D01*
X411050Y325519D01*
X411855Y326324D01*
X411855Y329544D01*
X411050Y330349D01*
X409440Y330349D01*
X408635Y329544D01*
X408635Y328739D01*
X409440Y327934D01*
X411855Y327934D01*
X332235Y294580D02*
X331430Y295385D01*
X329820Y295385D01*
X329015Y294580D01*
X329015Y291360D01*
X329820Y290555D01*
X331430Y290555D01*
X332235Y291360D01*
X334628Y293775D02*
X336238Y295385D01*
X336238Y290555D01*
X334628Y290555D02*
X337849Y290555D01*
X340242Y290555D02*
X343462Y290555D01*
X340242Y290555D02*
X343462Y293775D01*
X343462Y294580D01*
X342657Y295385D01*
X341047Y295385D01*
X340242Y294580D01*
X527430Y146385D02*
X528235Y145580D01*
X527430Y146385D02*
X525820Y146385D01*
X525015Y145580D01*
X525015Y142360D01*
X525820Y141555D01*
X527430Y141555D01*
X528235Y142360D01*
X530628Y144775D02*
X532238Y146385D01*
X532238Y141555D01*
X530628Y141555D02*
X533849Y141555D01*
X536242Y145580D02*
X537047Y146385D01*
X538657Y146385D01*
X539462Y145580D01*
X539462Y144775D01*
X538657Y143970D01*
X537852Y143970D01*
X538657Y143970D02*
X539462Y143165D01*
X539462Y142360D01*
X538657Y141555D01*
X537047Y141555D01*
X536242Y142360D01*
X527022Y168555D02*
X527022Y173385D01*
X529437Y173385D01*
X530242Y172580D01*
X530242Y170970D01*
X529437Y170165D01*
X527022Y170165D01*
X528632Y170165D02*
X530242Y168555D01*
X532635Y173385D02*
X535855Y173385D01*
X532635Y173385D02*
X532635Y170970D01*
X534245Y171775D01*
X535050Y171775D01*
X535855Y170970D01*
X535855Y169360D01*
X535050Y168555D01*
X533440Y168555D01*
X532635Y169360D01*
X736800Y24300D02*
X736800Y368300D01*
X736800Y24300D02*
X612800Y24300D01*
X612800Y368300D01*
X736800Y368300D01*
D10*
X644308Y158604D02*
X644308Y150808D01*
X644308Y158604D02*
X648206Y162502D01*
X652104Y158604D01*
X652104Y150808D01*
X652104Y156655D02*
X644308Y156655D01*
X656002Y150808D02*
X656002Y162502D01*
X663798Y150808D01*
X663798Y162502D01*
X671594Y162502D02*
X671594Y150808D01*
X667696Y162502D02*
X675492Y162502D01*
X679390Y158604D02*
X683288Y162502D01*
X683288Y150808D01*
X679390Y150808D02*
X687186Y150808D01*
D13*
X315844Y277030D02*
X312428Y280446D01*
X314136Y282153D01*
X315275Y282153D01*
X316413Y281015D01*
X316413Y279876D01*
X314705Y278169D01*
X315844Y279307D02*
X318121Y279307D01*
X318105Y284984D02*
X318674Y286692D01*
X318105Y284984D02*
X318105Y282707D01*
X319244Y281568D01*
X320382Y281568D01*
X321520Y282707D01*
X321520Y283845D01*
X320951Y284415D01*
X319813Y284415D01*
X318105Y282707D01*
X352951Y321430D02*
X353756Y322235D01*
X352951Y321430D02*
X352951Y319820D01*
X353756Y319015D01*
X356976Y319015D01*
X357781Y319820D01*
X357781Y321430D01*
X356976Y322235D01*
X354561Y324628D02*
X352951Y326238D01*
X357781Y326238D01*
X357781Y324628D02*
X357781Y327848D01*
X352951Y330242D02*
X352951Y333462D01*
X352951Y330242D02*
X355366Y330242D01*
X354561Y331852D01*
X354561Y332657D01*
X355366Y333462D01*
X356976Y333462D01*
X357781Y332657D01*
X357781Y331047D01*
X356976Y330242D01*
X677715Y311737D02*
X678520Y312542D01*
X677715Y311737D02*
X677715Y310127D01*
X678520Y309322D01*
X681740Y309322D01*
X682545Y310127D01*
X682545Y311737D01*
X681740Y312542D01*
X678520Y316545D02*
X677715Y318155D01*
X678520Y316545D02*
X680130Y314935D01*
X681740Y314935D01*
X682545Y315740D01*
X682545Y317350D01*
X681740Y318155D01*
X680935Y318155D01*
X680130Y317350D01*
X680130Y314935D01*
X689715Y311737D02*
X690520Y312542D01*
X689715Y311737D02*
X689715Y310127D01*
X690520Y309322D01*
X693740Y309322D01*
X694545Y310127D01*
X694545Y311737D01*
X693740Y312542D01*
X694545Y317350D02*
X689715Y317350D01*
X692130Y314935D01*
X692130Y318155D01*
X145800Y252300D02*
X145800Y132300D01*
X145800Y252300D02*
X155800Y252300D01*
X175800Y252300D01*
X185800Y252300D01*
X185800Y132300D01*
X145800Y132300D01*
X155800Y252300D02*
X155800Y262300D01*
X175800Y262300D01*
X175800Y252300D01*
D14*
X163090Y158908D02*
X163090Y143316D01*
X163090Y330420D02*
X163090Y346012D01*
X155294Y338216D02*
X170886Y338216D01*
D19*
X218768Y63062D02*
X235038Y63062D01*
X218768Y63062D02*
X218768Y71197D01*
X221480Y73909D01*
X224191Y73909D01*
X226903Y71197D01*
X229615Y73909D01*
X232326Y73909D01*
X235038Y71197D01*
X235038Y63062D01*
X226903Y63062D02*
X226903Y71197D01*
X224191Y79434D02*
X235038Y79434D01*
X224191Y79434D02*
X218768Y84857D01*
X224191Y90280D01*
X235038Y90280D01*
X226903Y90280D02*
X226903Y79434D01*
X235038Y101228D02*
X218768Y101228D01*
X218768Y95805D02*
X218768Y106652D01*
X218768Y117600D02*
X235038Y117600D01*
X218768Y112177D02*
X218768Y123023D01*
X224191Y128548D02*
X218768Y133972D01*
X235038Y133972D01*
X235038Y139395D02*
X235038Y128548D01*
D14*
X263700Y341800D02*
X263700Y347800D01*
X263700Y341800D02*
X271700Y341800D01*
X263700Y363800D02*
X263700Y369800D01*
X271700Y369800D01*
D13*
X265722Y337854D02*
X265722Y334634D01*
X265722Y337854D02*
X266527Y338659D01*
X268137Y338659D01*
X268942Y337854D01*
X268942Y334634D01*
X268137Y333829D01*
X266527Y333829D01*
X265722Y334634D01*
X267332Y335439D02*
X268942Y333829D01*
X271335Y337049D02*
X272945Y338659D01*
X272945Y333829D01*
X271335Y333829D02*
X274555Y333829D01*
X380715Y256322D02*
X385545Y256322D01*
X380715Y256322D02*
X380715Y258737D01*
X381520Y259542D01*
X383130Y259542D01*
X383935Y258737D01*
X383935Y256322D01*
X383935Y257932D02*
X385545Y259542D01*
X385545Y264350D02*
X380715Y264350D01*
X383130Y261935D01*
X383130Y265155D01*
X364545Y268322D02*
X359715Y268322D01*
X359715Y270737D01*
X360520Y271542D01*
X362130Y271542D01*
X362935Y270737D01*
X362935Y268322D01*
X362935Y269932D02*
X364545Y271542D01*
X359715Y273935D02*
X359715Y277155D01*
X360520Y277155D01*
X363740Y273935D01*
X364545Y273935D01*
X390075Y291238D02*
X390077Y291317D01*
X390083Y291396D01*
X390093Y291475D01*
X390106Y291553D01*
X390124Y291630D01*
X390146Y291706D01*
X390171Y291781D01*
X390200Y291855D01*
X390232Y291927D01*
X390268Y291997D01*
X390308Y292066D01*
X390351Y292133D01*
X390397Y292197D01*
X390447Y292259D01*
X390499Y292318D01*
X390554Y292375D01*
X390612Y292429D01*
X390673Y292480D01*
X390736Y292527D01*
X390801Y292572D01*
X390869Y292613D01*
X390939Y292651D01*
X391010Y292685D01*
X391083Y292716D01*
X391157Y292743D01*
X391233Y292767D01*
X391310Y292786D01*
X391387Y292802D01*
X391466Y292814D01*
X391544Y292822D01*
X391623Y292826D01*
X391703Y292826D01*
X391782Y292822D01*
X391860Y292814D01*
X391939Y292802D01*
X392016Y292786D01*
X392093Y292767D01*
X392169Y292743D01*
X392243Y292716D01*
X392316Y292685D01*
X392387Y292651D01*
X392457Y292613D01*
X392525Y292572D01*
X392590Y292527D01*
X392653Y292480D01*
X392714Y292429D01*
X392772Y292375D01*
X392827Y292318D01*
X392879Y292259D01*
X392929Y292197D01*
X392975Y292133D01*
X393018Y292066D01*
X393058Y291997D01*
X393094Y291927D01*
X393126Y291855D01*
X393155Y291781D01*
X393180Y291706D01*
X393202Y291630D01*
X393220Y291553D01*
X393233Y291475D01*
X393243Y291396D01*
X393249Y291317D01*
X393251Y291238D01*
X393249Y291159D01*
X393243Y291080D01*
X393233Y291001D01*
X393220Y290923D01*
X393202Y290846D01*
X393180Y290770D01*
X393155Y290695D01*
X393126Y290621D01*
X393094Y290549D01*
X393058Y290479D01*
X393018Y290410D01*
X392975Y290343D01*
X392929Y290279D01*
X392879Y290217D01*
X392827Y290158D01*
X392772Y290101D01*
X392714Y290047D01*
X392653Y289996D01*
X392590Y289949D01*
X392525Y289904D01*
X392457Y289863D01*
X392387Y289825D01*
X392316Y289791D01*
X392243Y289760D01*
X392169Y289733D01*
X392093Y289709D01*
X392016Y289690D01*
X391939Y289674D01*
X391860Y289662D01*
X391782Y289654D01*
X391703Y289650D01*
X391623Y289650D01*
X391544Y289654D01*
X391466Y289662D01*
X391387Y289674D01*
X391310Y289690D01*
X391233Y289709D01*
X391157Y289733D01*
X391083Y289760D01*
X391010Y289791D01*
X390939Y289825D01*
X390869Y289863D01*
X390801Y289904D01*
X390736Y289949D01*
X390673Y289996D01*
X390612Y290047D01*
X390554Y290101D01*
X390499Y290158D01*
X390447Y290217D01*
X390397Y290279D01*
X390351Y290343D01*
X390308Y290410D01*
X390268Y290479D01*
X390232Y290549D01*
X390200Y290621D01*
X390171Y290695D01*
X390146Y290770D01*
X390124Y290846D01*
X390106Y290923D01*
X390093Y291001D01*
X390083Y291080D01*
X390077Y291159D01*
X390075Y291238D01*
X390869Y291238D02*
X390871Y291294D01*
X390877Y291350D01*
X390887Y291405D01*
X390900Y291459D01*
X390918Y291512D01*
X390939Y291564D01*
X390964Y291615D01*
X390992Y291663D01*
X391024Y291709D01*
X391059Y291753D01*
X391097Y291794D01*
X391137Y291833D01*
X391181Y291869D01*
X391226Y291901D01*
X391274Y291930D01*
X391324Y291956D01*
X391375Y291978D01*
X391428Y291997D01*
X391482Y292011D01*
X391537Y292022D01*
X391593Y292029D01*
X391649Y292032D01*
X391705Y292031D01*
X391761Y292026D01*
X391816Y292017D01*
X391871Y292004D01*
X391924Y291988D01*
X391977Y291967D01*
X392027Y291944D01*
X392076Y291916D01*
X392123Y291885D01*
X392167Y291851D01*
X392209Y291814D01*
X392249Y291774D01*
X392285Y291731D01*
X392318Y291686D01*
X392348Y291639D01*
X392375Y291590D01*
X392398Y291539D01*
X392417Y291486D01*
X392433Y291432D01*
X392445Y291377D01*
X392453Y291322D01*
X392457Y291266D01*
X392457Y291210D01*
X392453Y291154D01*
X392445Y291099D01*
X392433Y291044D01*
X392417Y290990D01*
X392398Y290937D01*
X392375Y290886D01*
X392348Y290837D01*
X392318Y290790D01*
X392285Y290745D01*
X392249Y290702D01*
X392209Y290662D01*
X392167Y290625D01*
X392123Y290591D01*
X392076Y290560D01*
X392027Y290532D01*
X391977Y290509D01*
X391924Y290488D01*
X391871Y290472D01*
X391816Y290459D01*
X391761Y290450D01*
X391705Y290445D01*
X391649Y290444D01*
X391593Y290447D01*
X391537Y290454D01*
X391482Y290465D01*
X391428Y290479D01*
X391375Y290498D01*
X391324Y290520D01*
X391274Y290546D01*
X391226Y290575D01*
X391181Y290607D01*
X391137Y290643D01*
X391097Y290682D01*
X391059Y290723D01*
X391024Y290767D01*
X390992Y290813D01*
X390964Y290861D01*
X390939Y290912D01*
X390918Y290964D01*
X390900Y291017D01*
X390887Y291071D01*
X390877Y291126D01*
X390871Y291182D01*
X390869Y291238D01*
X391282Y291238D02*
X391284Y291277D01*
X391290Y291315D01*
X391299Y291352D01*
X391313Y291388D01*
X391330Y291423D01*
X391350Y291456D01*
X391374Y291486D01*
X391401Y291514D01*
X391430Y291539D01*
X391461Y291561D01*
X391495Y291580D01*
X391531Y291595D01*
X391568Y291607D01*
X391605Y291615D01*
X391644Y291619D01*
X391682Y291619D01*
X391721Y291615D01*
X391758Y291607D01*
X391795Y291595D01*
X391831Y291580D01*
X391865Y291561D01*
X391896Y291539D01*
X391925Y291514D01*
X391952Y291486D01*
X391976Y291456D01*
X391996Y291423D01*
X392013Y291388D01*
X392027Y291352D01*
X392036Y291315D01*
X392042Y291277D01*
X392044Y291238D01*
X392042Y291199D01*
X392036Y291161D01*
X392027Y291124D01*
X392013Y291088D01*
X391996Y291053D01*
X391976Y291020D01*
X391952Y290990D01*
X391925Y290962D01*
X391896Y290937D01*
X391865Y290915D01*
X391831Y290896D01*
X391795Y290881D01*
X391758Y290869D01*
X391721Y290861D01*
X391682Y290857D01*
X391644Y290857D01*
X391605Y290861D01*
X391568Y290869D01*
X391531Y290881D01*
X391495Y290896D01*
X391461Y290915D01*
X391430Y290937D01*
X391401Y290962D01*
X391374Y290990D01*
X391350Y291020D01*
X391330Y291053D01*
X391313Y291088D01*
X391299Y291124D01*
X391290Y291161D01*
X391284Y291199D01*
X391282Y291238D01*
D20*
X388488Y294413D02*
X388488Y322988D01*
X388488Y294413D02*
X359913Y294413D01*
X359913Y322988D01*
X388488Y322988D01*
D21*
X399975Y313163D02*
X406118Y313163D01*
X407347Y314391D01*
X407347Y316849D01*
X406118Y318078D01*
X399975Y318078D01*
X399975Y324333D02*
X407347Y324333D01*
X403661Y320647D02*
X399975Y324333D01*
X403661Y325562D02*
X403661Y320647D01*
D22*
X261300Y91800D03*
D12*
X260420Y97901D02*
X260420Y100232D01*
X260420Y97901D02*
X260886Y97434D01*
X261819Y97434D01*
X262285Y97901D01*
X262285Y100232D01*
X263228Y97434D02*
X265093Y97434D01*
X263228Y97434D02*
X265093Y99300D01*
X265093Y99766D01*
X264627Y100232D01*
X263694Y100232D01*
X263228Y99766D01*
D13*
X256520Y50542D02*
X255715Y49737D01*
X255715Y48127D01*
X256520Y47322D01*
X259740Y47322D01*
X260545Y48127D01*
X260545Y49737D01*
X259740Y50542D01*
X256520Y52935D02*
X255715Y53740D01*
X255715Y55350D01*
X256520Y56155D01*
X257325Y56155D01*
X258130Y55350D01*
X258935Y56155D01*
X259740Y56155D01*
X260545Y55350D01*
X260545Y53740D01*
X259740Y52935D01*
X258935Y52935D01*
X258130Y53740D01*
X257325Y52935D01*
X256520Y52935D01*
X258130Y53740D02*
X258130Y55350D01*
D19*
X411000Y52750D02*
X411000Y111250D01*
X307000Y111250D02*
X307000Y52750D01*
X307000Y111250D02*
X313000Y111250D01*
X405000Y111250D02*
X411000Y111250D01*
X313000Y52750D02*
X307000Y52750D01*
X405000Y52750D02*
X411000Y52750D01*
D23*
X309000Y46000D03*
D13*
X301998Y77022D02*
X297972Y77022D01*
X301998Y77022D02*
X302803Y77827D01*
X302803Y79437D01*
X301998Y80242D01*
X297972Y80242D01*
X297972Y82635D02*
X297972Y85855D01*
X297972Y82635D02*
X300387Y82635D01*
X299582Y84245D01*
X299582Y85050D01*
X300387Y85855D01*
X301998Y85855D01*
X302803Y85050D01*
X302803Y83440D01*
X301998Y82635D01*
D24*
X464800Y49800D02*
X464802Y49863D01*
X464808Y49925D01*
X464818Y49987D01*
X464831Y50049D01*
X464849Y50109D01*
X464870Y50168D01*
X464895Y50226D01*
X464924Y50282D01*
X464956Y50336D01*
X464991Y50388D01*
X465029Y50437D01*
X465071Y50485D01*
X465115Y50529D01*
X465163Y50571D01*
X465212Y50609D01*
X465264Y50644D01*
X465318Y50676D01*
X465374Y50705D01*
X465432Y50730D01*
X465491Y50751D01*
X465551Y50769D01*
X465613Y50782D01*
X465675Y50792D01*
X465737Y50798D01*
X465800Y50800D01*
X465863Y50798D01*
X465925Y50792D01*
X465987Y50782D01*
X466049Y50769D01*
X466109Y50751D01*
X466168Y50730D01*
X466226Y50705D01*
X466282Y50676D01*
X466336Y50644D01*
X466388Y50609D01*
X466437Y50571D01*
X466485Y50529D01*
X466529Y50485D01*
X466571Y50437D01*
X466609Y50388D01*
X466644Y50336D01*
X466676Y50282D01*
X466705Y50226D01*
X466730Y50168D01*
X466751Y50109D01*
X466769Y50049D01*
X466782Y49987D01*
X466792Y49925D01*
X466798Y49863D01*
X466800Y49800D01*
X466798Y49737D01*
X466792Y49675D01*
X466782Y49613D01*
X466769Y49551D01*
X466751Y49491D01*
X466730Y49432D01*
X466705Y49374D01*
X466676Y49318D01*
X466644Y49264D01*
X466609Y49212D01*
X466571Y49163D01*
X466529Y49115D01*
X466485Y49071D01*
X466437Y49029D01*
X466388Y48991D01*
X466336Y48956D01*
X466282Y48924D01*
X466226Y48895D01*
X466168Y48870D01*
X466109Y48849D01*
X466049Y48831D01*
X465987Y48818D01*
X465925Y48808D01*
X465863Y48802D01*
X465800Y48800D01*
X465737Y48802D01*
X465675Y48808D01*
X465613Y48818D01*
X465551Y48831D01*
X465491Y48849D01*
X465432Y48870D01*
X465374Y48895D01*
X465318Y48924D01*
X465264Y48956D01*
X465212Y48991D01*
X465163Y49029D01*
X465115Y49071D01*
X465071Y49115D01*
X465029Y49163D01*
X464991Y49212D01*
X464956Y49264D01*
X464924Y49318D01*
X464895Y49374D01*
X464870Y49432D01*
X464849Y49491D01*
X464831Y49551D01*
X464818Y49613D01*
X464808Y49675D01*
X464802Y49737D01*
X464800Y49800D01*
D13*
X447800Y300D02*
X523800Y300D01*
X447800Y25800D02*
X447800Y29800D01*
X523800Y29800D02*
X523800Y25800D01*
X447800Y3800D02*
X447800Y800D01*
X523800Y800D02*
X523800Y3800D01*
D10*
X449713Y53847D02*
X447764Y55796D01*
X449713Y53847D02*
X451662Y53847D01*
X453611Y55796D01*
X453611Y65541D01*
X451662Y65541D02*
X455560Y65541D01*
X465305Y65541D02*
X465305Y53847D01*
X459458Y59694D02*
X465305Y65541D01*
X467254Y59694D02*
X459458Y59694D01*
D13*
X423763Y112875D02*
X414238Y112875D01*
X412015Y92022D02*
X407185Y92022D01*
X412015Y92022D02*
X412015Y94437D01*
X411210Y95242D01*
X407990Y95242D01*
X407185Y94437D01*
X407185Y92022D01*
X412015Y97635D02*
X412015Y100855D01*
X412015Y97635D02*
X408795Y100855D01*
X407990Y100855D01*
X407185Y100050D01*
X407185Y98440D01*
X407990Y97635D01*
X430238Y112875D02*
X439763Y112875D01*
X428015Y92022D02*
X423185Y92022D01*
X428015Y92022D02*
X428015Y94437D01*
X427210Y95242D01*
X423990Y95242D01*
X423185Y94437D01*
X423185Y92022D01*
X423990Y97635D02*
X423185Y98440D01*
X423185Y100050D01*
X423990Y100855D01*
X424795Y100855D01*
X425600Y100050D01*
X425600Y99245D01*
X425600Y100050D02*
X426405Y100855D01*
X427210Y100855D01*
X428015Y100050D01*
X428015Y98440D01*
X427210Y97635D01*
X427251Y60022D02*
X432081Y60022D01*
X427251Y60022D02*
X427251Y62437D01*
X428056Y63242D01*
X429666Y63242D01*
X430471Y62437D01*
X430471Y60022D01*
X430471Y61632D02*
X432081Y63242D01*
X428056Y65635D02*
X427251Y66440D01*
X427251Y68050D01*
X428056Y68855D01*
X428861Y68855D01*
X429666Y68050D01*
X430471Y68855D01*
X431276Y68855D01*
X432081Y68050D01*
X432081Y66440D01*
X431276Y65635D01*
X430471Y65635D01*
X429666Y66440D01*
X428861Y65635D01*
X428056Y65635D01*
X429666Y66440D02*
X429666Y68050D01*
X443251Y60022D02*
X448081Y60022D01*
X443251Y60022D02*
X443251Y62437D01*
X444056Y63242D01*
X445666Y63242D01*
X446471Y62437D01*
X446471Y60022D01*
X446471Y61632D02*
X448081Y63242D01*
X447276Y65635D02*
X448081Y66440D01*
X448081Y68050D01*
X447276Y68855D01*
X444056Y68855D01*
X443251Y68050D01*
X443251Y66440D01*
X444056Y65635D01*
X444861Y65635D01*
X445666Y66440D01*
X445666Y68855D01*
X541630Y38749D02*
X542435Y37944D01*
X541630Y38749D02*
X540020Y38749D01*
X539215Y37944D01*
X539215Y34724D01*
X540020Y33919D01*
X541630Y33919D01*
X542435Y34724D01*
X544828Y37139D02*
X546438Y38749D01*
X546438Y33919D01*
X544828Y33919D02*
X548048Y33919D01*
X552857Y33919D02*
X552857Y38749D01*
X550442Y36334D01*
X553662Y36334D01*
X541630Y16749D02*
X542435Y15944D01*
X541630Y16749D02*
X540020Y16749D01*
X539215Y15944D01*
X539215Y12724D01*
X540020Y11919D01*
X541630Y11919D01*
X542435Y12724D01*
X544828Y15139D02*
X546438Y16749D01*
X546438Y11919D01*
X544828Y11919D02*
X548048Y11919D01*
X552052Y15944D02*
X553662Y16749D01*
X552052Y15944D02*
X550442Y14334D01*
X550442Y12724D01*
X551247Y11919D01*
X552857Y11919D01*
X553662Y12724D01*
X553662Y13529D01*
X552857Y14334D01*
X550442Y14334D01*
X433251Y132530D02*
X434056Y133335D01*
X433251Y132530D02*
X433251Y130920D01*
X434056Y130115D01*
X437276Y130115D01*
X438081Y130920D01*
X438081Y132530D01*
X437276Y133335D01*
X434861Y135728D02*
X433251Y137338D01*
X438081Y137338D01*
X438081Y135728D02*
X438081Y138948D01*
X433251Y141342D02*
X433251Y144562D01*
X434056Y144562D01*
X437276Y141342D01*
X438081Y141342D01*
D19*
X316398Y370256D02*
X297602Y370256D01*
X297602Y357556D02*
X297602Y350444D01*
X297602Y337744D02*
X316398Y337744D01*
D21*
X318212Y338420D02*
X326177Y330454D01*
X318212Y330454D02*
X326177Y338420D01*
X326177Y334437D02*
X318212Y334437D01*
X322194Y338420D02*
X322194Y330454D01*
X339385Y348021D02*
X339385Y357978D01*
X337394Y359969D01*
X333411Y359969D01*
X331420Y357978D01*
X331420Y348021D01*
X323708Y350012D02*
X319726Y348021D01*
X323708Y350012D02*
X327691Y353995D01*
X327691Y357978D01*
X325700Y359969D01*
X321717Y359969D01*
X319726Y357978D01*
X319726Y355986D01*
X321717Y353995D01*
X327691Y353995D01*
D13*
X326745Y347022D02*
X321915Y347022D01*
X326745Y347022D02*
X326745Y350242D01*
X323525Y352635D02*
X321915Y354245D01*
X326745Y354245D01*
X326745Y352635D02*
X326745Y355855D01*
X319435Y366944D02*
X318630Y367749D01*
X317020Y367749D01*
X316215Y366944D01*
X316215Y363724D01*
X317020Y362919D01*
X318630Y362919D01*
X319435Y363724D01*
X321828Y366139D02*
X323438Y367749D01*
X323438Y362919D01*
X321828Y362919D02*
X325048Y362919D01*
X327442Y366944D02*
X328247Y367749D01*
X329857Y367749D01*
X330662Y366944D01*
X330662Y366139D01*
X329857Y365334D01*
X330662Y364529D01*
X330662Y363724D01*
X329857Y362919D01*
X328247Y362919D01*
X327442Y363724D01*
X327442Y364529D01*
X328247Y365334D01*
X327442Y366139D01*
X327442Y366944D01*
X328247Y365334D02*
X329857Y365334D01*
D14*
X373000Y367000D02*
X373000Y361000D01*
X373000Y367000D02*
X365000Y367000D01*
X373000Y345000D02*
X373000Y339000D01*
X365000Y339000D01*
D13*
X361022Y370950D02*
X361022Y374170D01*
X361827Y374975D01*
X363437Y374975D01*
X364242Y374170D01*
X364242Y370950D01*
X363437Y370145D01*
X361827Y370145D01*
X361022Y370950D01*
X362632Y371755D02*
X364242Y370145D01*
X366635Y370145D02*
X369855Y370145D01*
X366635Y370145D02*
X369855Y373365D01*
X369855Y374170D01*
X369050Y374975D01*
X367440Y374975D01*
X366635Y374170D01*
X533000Y329000D02*
X533000Y316000D01*
X533000Y329000D02*
X507000Y329000D01*
X507000Y289000D02*
X533000Y289000D01*
X533000Y302000D01*
X507000Y316000D02*
X507000Y329000D01*
X507000Y302000D02*
X507000Y289000D01*
X534000Y316000D02*
X534000Y329000D01*
X534000Y302000D02*
X534000Y289000D01*
X535000Y316000D02*
X535000Y329000D01*
X535000Y302000D02*
X535000Y289000D01*
X535000Y329000D02*
X533000Y329000D01*
X533000Y316000D02*
X535000Y316000D01*
X535000Y302000D02*
X533000Y302000D01*
X533000Y289000D02*
X535000Y289000D01*
X508740Y335035D02*
X507935Y335840D01*
X508740Y335035D02*
X509545Y335035D01*
X510350Y335840D01*
X510350Y339865D01*
X509545Y339865D02*
X511155Y339865D01*
X513548Y339865D02*
X516768Y339865D01*
X513548Y339865D02*
X513548Y337450D01*
X515158Y338255D01*
X515963Y338255D01*
X516768Y337450D01*
X516768Y335840D01*
X515963Y335035D01*
X514353Y335035D01*
X513548Y335840D01*
M02*
