%
M48
M72
T01C0.00787
T02C0.01378
T03C0.03150
T04C0.04000
T05C0.04724
T06C0.08858
T07C0.11811
%
T01
X205831Y114417
X208193Y111661
X210555Y109299
X212917Y106937
X215673Y104575
X219217Y104575
X223154Y104575
X226697Y104575
X230240Y104575
X233783Y104575
X237327Y104575
X240870Y104575
X240870Y110480
X237327Y110480
X233783Y110480
X230240Y110480
X226697Y110480
X223154Y110480
X219217Y110480
X215280Y114024
X212917Y116386
X210555Y118748
X208193Y121110
X205831Y123472
T02
X165280Y98669
X158587Y108906
X158587Y115205
X140083Y118354
X132602Y108906
X132996Y104969
X121579Y100244
X119217Y97882
X117642Y101031
X123941Y95126
X127878Y90795
X124728Y88039
X131815Y84890
X124728Y82921
X120004Y82921
X115160Y87113
X114492Y91583
X111736Y93945
X99531Y100638
X81815Y93157
X82209Y82921
X95599Y80953
X107799Y85283
X118429Y78197
X122760Y77016
X118035Y73472
X129453Y67567
X135752Y64417
X127091Y62055
X119217Y62055
X112917Y60480
X108980Y62420
X104256Y70323
X137720Y76228
X158587Y80559
X169610Y84890
X196776Y64417
X202681Y65205
X199138Y54969
X180240Y46307
X177091Y42764
X161736Y27409
X157012Y26622
X146382Y26622
X134177Y27409
X137720Y38039
X129453Y40795
X125516Y41189
X123547Y44339
X118823Y43945
X119217Y47882
X112917Y43945
X108193Y45126
X102287Y45520
X110555Y39614
X112917Y37252
X110555Y34102
X120004Y38433
X98801Y35620
X96062Y32882
X107799Y25047
X102287Y23472
X97563Y19535
X97169Y15598
X97169Y8906
X113311Y22291
X146382Y42370
X152287Y17173
X154650Y12843
X159374Y16386
X202681Y40402
X133390Y89614
X124335Y112843
X117248Y112055
X111343Y112055
X107012Y112055
X105437Y119929
X107799Y123866
X99531Y120323
X95201Y117567
X95594Y127803
X117248Y131346
X78272Y39614
T03
X145988Y52606
X161736Y52606
T04
X142366Y17173
X132366Y17173
X122366Y17173
X88705Y18315
X88705Y28315
X88705Y38315
X88705Y48315
X88705Y58315
X88705Y68315
X88705Y78315
X88705Y88315
X88705Y98315
X88705Y108315
X88705Y118315
X88705Y128315
X90949Y142646
X100949Y142646
X110949Y142646
X120949Y142646
X130949Y142646
X140949Y142646
T05
X36933Y13768
X36933Y140264
T06
X64925Y140264
T07
X36933Y111110
X36933Y42921
X168035Y38433
M30
