G75*
%MOIN*%
%OFA0B0*%
%FSLAX25Y25*%
%IPPOS*%
%LPD*%
%AMOC8*
5,1,8,0,0,1.08239X$1,22.5*
%
%ADD10R,0.04331X0.03937*%
%ADD11C,0.01181*%
%ADD12R,0.03937X0.04331*%
%ADD13R,0.05000X0.02200*%
%ADD14R,0.02200X0.05000*%
%ADD15R,0.02756X0.01102*%
%ADD16R,0.01102X0.02756*%
%ADD17C,0.01772*%
%ADD18R,0.07874X0.02756*%
%ADD19R,0.02756X0.07874*%
%ADD20R,0.03346X0.03543*%
%ADD21R,0.03543X0.03346*%
%ADD22R,0.03150X0.03937*%
%ADD23R,0.07677X0.03937*%
%ADD24R,0.09843X0.06299*%
%ADD25R,0.01600X0.05400*%
%ADD26R,0.03150X0.03543*%
D10*
X0100358Y0032209D03*
X0107051Y0032209D03*
X0115358Y0032209D03*
X0122051Y0032209D03*
X0130358Y0032209D03*
X0137051Y0032209D03*
X0146579Y0031815D03*
X0153272Y0031815D03*
X0185949Y0035752D03*
X0192642Y0035752D03*
X0192642Y0047563D03*
X0185949Y0047563D03*
X0185949Y0059374D03*
X0192642Y0059374D03*
X0122051Y0052209D03*
X0115358Y0052209D03*
X0109965Y0016067D03*
X0103272Y0016067D03*
X0109846Y0117209D03*
X0116539Y0117209D03*
X0130831Y0125909D03*
X0137524Y0125909D03*
X0107051Y0127209D03*
X0100358Y0127209D03*
D11*
X0123323Y0117169D02*
X0123323Y0114413D01*
X0123323Y0117169D02*
X0126079Y0117169D01*
X0126079Y0114413D01*
X0123323Y0114413D01*
X0123323Y0115593D02*
X0126079Y0115593D01*
X0126079Y0116773D02*
X0123323Y0116773D01*
X0130228Y0117169D02*
X0130228Y0114413D01*
X0130228Y0117169D02*
X0132984Y0117169D01*
X0132984Y0114413D01*
X0130228Y0114413D01*
X0130228Y0115593D02*
X0132984Y0115593D01*
X0132984Y0116773D02*
X0130228Y0116773D01*
D12*
X0139335Y0109492D03*
X0139335Y0102799D03*
X0177091Y0058390D03*
X0177091Y0051697D03*
D13*
G36*
X0134984Y0076054D02*
X0131450Y0079588D01*
X0133006Y0081144D01*
X0136540Y0077610D01*
X0134984Y0076054D01*
G37*
G36*
X0132757Y0073827D02*
X0129223Y0077361D01*
X0130779Y0078917D01*
X0134313Y0075383D01*
X0132757Y0073827D01*
G37*
G36*
X0130530Y0071600D02*
X0126996Y0075134D01*
X0128552Y0076690D01*
X0132086Y0073156D01*
X0130530Y0071600D01*
G37*
G36*
X0128303Y0069373D02*
X0124769Y0072907D01*
X0126325Y0074463D01*
X0129859Y0070929D01*
X0128303Y0069373D01*
G37*
G36*
X0126076Y0067146D02*
X0122542Y0070680D01*
X0124098Y0072236D01*
X0127632Y0068702D01*
X0126076Y0067146D01*
G37*
G36*
X0123849Y0064919D02*
X0120315Y0068453D01*
X0121871Y0070009D01*
X0125405Y0066475D01*
X0123849Y0064919D01*
G37*
G36*
X0137212Y0078281D02*
X0133678Y0081815D01*
X0135234Y0083371D01*
X0138768Y0079837D01*
X0137212Y0078281D01*
G37*
G36*
X0139439Y0080508D02*
X0135905Y0084042D01*
X0137461Y0085598D01*
X0140995Y0082064D01*
X0139439Y0080508D01*
G37*
G36*
X0108857Y0097727D02*
X0105323Y0101261D01*
X0106879Y0102817D01*
X0110413Y0099283D01*
X0108857Y0097727D01*
G37*
G36*
X0106630Y0095500D02*
X0103096Y0099034D01*
X0104652Y0100590D01*
X0108186Y0097056D01*
X0106630Y0095500D01*
G37*
G36*
X0104403Y0093273D02*
X0100869Y0096807D01*
X0102425Y0098363D01*
X0105959Y0094829D01*
X0104403Y0093273D01*
G37*
G36*
X0102176Y0091046D02*
X0098642Y0094580D01*
X0100198Y0096136D01*
X0103732Y0092602D01*
X0102176Y0091046D01*
G37*
G36*
X0099949Y0088819D02*
X0096415Y0092353D01*
X0097971Y0093909D01*
X0101505Y0090375D01*
X0099949Y0088819D01*
G37*
G36*
X0111084Y0099954D02*
X0107550Y0103488D01*
X0109106Y0105044D01*
X0112640Y0101510D01*
X0111084Y0099954D01*
G37*
G36*
X0113311Y0102182D02*
X0109777Y0105716D01*
X0111333Y0107272D01*
X0114867Y0103738D01*
X0113311Y0102182D01*
G37*
G36*
X0115538Y0104409D02*
X0112004Y0107943D01*
X0113560Y0109499D01*
X0117094Y0105965D01*
X0115538Y0104409D01*
G37*
D14*
G36*
X0121871Y0104409D02*
X0120315Y0105965D01*
X0123849Y0109499D01*
X0125405Y0107943D01*
X0121871Y0104409D01*
G37*
G36*
X0124098Y0102182D02*
X0122542Y0103738D01*
X0126076Y0107272D01*
X0127632Y0105716D01*
X0124098Y0102182D01*
G37*
G36*
X0126325Y0099954D02*
X0124769Y0101510D01*
X0128303Y0105044D01*
X0129859Y0103488D01*
X0126325Y0099954D01*
G37*
G36*
X0128552Y0097727D02*
X0126996Y0099283D01*
X0130530Y0102817D01*
X0132086Y0101261D01*
X0128552Y0097727D01*
G37*
G36*
X0130779Y0095500D02*
X0129223Y0097056D01*
X0132757Y0100590D01*
X0134313Y0099034D01*
X0130779Y0095500D01*
G37*
G36*
X0133006Y0093273D02*
X0131450Y0094829D01*
X0134984Y0098363D01*
X0136540Y0096807D01*
X0133006Y0093273D01*
G37*
G36*
X0135234Y0091046D02*
X0133678Y0092602D01*
X0137212Y0096136D01*
X0138768Y0094580D01*
X0135234Y0091046D01*
G37*
G36*
X0137461Y0088819D02*
X0135905Y0090375D01*
X0139439Y0093909D01*
X0140995Y0092353D01*
X0137461Y0088819D01*
G37*
G36*
X0109106Y0069373D02*
X0107550Y0070929D01*
X0111084Y0074463D01*
X0112640Y0072907D01*
X0109106Y0069373D01*
G37*
G36*
X0111333Y0067146D02*
X0109777Y0068702D01*
X0113311Y0072236D01*
X0114867Y0070680D01*
X0111333Y0067146D01*
G37*
G36*
X0113560Y0064919D02*
X0112004Y0066475D01*
X0115538Y0070009D01*
X0117094Y0068453D01*
X0113560Y0064919D01*
G37*
G36*
X0106879Y0071600D02*
X0105323Y0073156D01*
X0108857Y0076690D01*
X0110413Y0075134D01*
X0106879Y0071600D01*
G37*
G36*
X0104652Y0073827D02*
X0103096Y0075383D01*
X0106630Y0078917D01*
X0108186Y0077361D01*
X0104652Y0073827D01*
G37*
G36*
X0102425Y0076054D02*
X0100869Y0077610D01*
X0104403Y0081144D01*
X0105959Y0079588D01*
X0102425Y0076054D01*
G37*
G36*
X0100198Y0078281D02*
X0098642Y0079837D01*
X0102176Y0083371D01*
X0103732Y0081815D01*
X0100198Y0078281D01*
G37*
G36*
X0097971Y0080508D02*
X0096415Y0082064D01*
X0099949Y0085598D01*
X0101505Y0084042D01*
X0097971Y0080508D01*
G37*
D15*
X0128193Y0056146D03*
X0128193Y0054177D03*
X0128193Y0052209D03*
X0128193Y0050240D03*
X0128193Y0048272D03*
X0139217Y0048272D03*
X0139217Y0050240D03*
X0139217Y0052209D03*
X0139217Y0054177D03*
X0139217Y0056146D03*
D16*
X0135673Y0057720D03*
X0133705Y0057720D03*
X0131736Y0057720D03*
X0131736Y0046697D03*
X0133705Y0046697D03*
X0135673Y0046697D03*
D17*
X0103340Y0104571D02*
X0097612Y0104571D01*
X0097612Y0109295D02*
X0103340Y0109295D01*
X0103340Y0114020D02*
X0097612Y0114020D01*
D18*
X0148232Y0115280D03*
X0148232Y0119610D03*
X0148232Y0123941D03*
X0148232Y0110949D03*
X0148232Y0106618D03*
X0148232Y0102287D03*
X0148232Y0097957D03*
X0148232Y0093626D03*
X0148232Y0089295D03*
X0148232Y0084965D03*
X0148232Y0080634D03*
X0148232Y0076303D03*
X0199413Y0076303D03*
X0199413Y0080634D03*
X0199413Y0084965D03*
X0199413Y0089295D03*
X0199413Y0093626D03*
X0199413Y0097957D03*
X0199413Y0102287D03*
X0199413Y0106618D03*
X0199413Y0110949D03*
X0199413Y0115280D03*
X0199413Y0119610D03*
X0199413Y0123941D03*
D19*
X0186815Y0070398D03*
X0182484Y0070398D03*
X0178154Y0070398D03*
X0173823Y0070398D03*
X0169492Y0070398D03*
X0165161Y0070398D03*
X0160831Y0070398D03*
D20*
X0251185Y0112130D03*
X0255752Y0112130D03*
D21*
X0255831Y0119295D03*
X0255831Y0123862D03*
X0245594Y0123862D03*
X0245594Y0119295D03*
X0245594Y0106539D03*
X0245594Y0101972D03*
D22*
X0169610Y0024728D03*
X0165870Y0015280D03*
X0173350Y0015280D03*
D23*
X0226697Y0026303D03*
X0265280Y0026303D03*
X0265280Y0092445D03*
X0226697Y0118823D03*
D24*
X0265280Y0118823D03*
X0265280Y0138902D03*
D25*
X0108094Y0060887D03*
X0105535Y0060887D03*
X0102976Y0060887D03*
X0100417Y0060887D03*
X0100417Y0043687D03*
X0102976Y0043687D03*
X0105535Y0043687D03*
X0108094Y0043687D03*
D26*
X0083193Y0136539D03*
X0075713Y0136539D03*
X0079453Y0144807D03*
M02*
