G75*
%MOIN*%
%OFA0B0*%
%FSLAX25Y25*%
%IPPOS*%
%LPD*%
%AMOC8*
5,1,8,0,0,1.08239X$1,22.5*
%
%ADD10C,0.00400*%
%ADD11C,0.00500*%
%ADD12C,0.00800*%
%ADD13C,0.02000*%
%ADD14C,0.00200*%
%ADD15C,0.00394*%
%ADD16R,0.01575X0.01969*%
%ADD17C,0.00600*%
%ADD18C,0.00300*%
D10*
X0169298Y0106011D02*
X0170066Y0105243D01*
X0171600Y0105243D01*
X0172368Y0106011D01*
X0172368Y0106778D01*
X0171600Y0107545D01*
X0170066Y0107545D01*
X0169298Y0108313D01*
X0169298Y0109080D01*
X0170066Y0109847D01*
X0171600Y0109847D01*
X0172368Y0109080D01*
X0173902Y0109847D02*
X0176972Y0109847D01*
X0178506Y0109847D02*
X0180041Y0108313D01*
X0181576Y0109847D01*
X0181576Y0105243D01*
X0183110Y0105243D02*
X0186179Y0105243D01*
X0184645Y0105243D02*
X0184645Y0109847D01*
X0183110Y0108313D01*
X0187714Y0109080D02*
X0188481Y0109847D01*
X0190016Y0109847D01*
X0190783Y0109080D01*
X0187714Y0106011D01*
X0188481Y0105243D01*
X0190016Y0105243D01*
X0190783Y0106011D01*
X0190783Y0109080D01*
X0187714Y0109080D02*
X0187714Y0106011D01*
X0178506Y0105243D02*
X0178506Y0109847D01*
X0177739Y0111936D02*
X0176972Y0112704D01*
X0177739Y0111936D02*
X0179274Y0111936D01*
X0180041Y0112704D01*
X0180041Y0113471D01*
X0179274Y0114238D01*
X0177739Y0114238D01*
X0176972Y0115005D01*
X0176972Y0115773D01*
X0177739Y0116540D01*
X0179274Y0116540D01*
X0180041Y0115773D01*
X0181576Y0115773D02*
X0181576Y0112704D01*
X0182343Y0111936D01*
X0183878Y0111936D01*
X0184645Y0112704D01*
X0184645Y0115773D01*
X0183878Y0116540D01*
X0182343Y0116540D01*
X0181576Y0115773D01*
X0186179Y0116540D02*
X0186179Y0111936D01*
X0189249Y0111936D01*
X0175437Y0111936D02*
X0173902Y0111936D01*
X0174670Y0111936D02*
X0174670Y0115005D01*
X0173902Y0115005D01*
X0174670Y0116540D02*
X0174670Y0117307D01*
X0172368Y0116540D02*
X0172368Y0111936D01*
X0170833Y0113471D01*
X0169298Y0111936D01*
X0169298Y0116540D01*
X0173902Y0109847D02*
X0173902Y0105243D01*
X0173902Y0107545D02*
X0175437Y0107545D01*
X0182827Y0134417D02*
X0184361Y0135952D01*
X0183594Y0135952D01*
X0183594Y0136719D01*
X0184361Y0136719D01*
X0184361Y0135952D01*
X0181292Y0136719D02*
X0181292Y0138254D01*
X0180525Y0139021D01*
X0178990Y0139021D01*
X0178223Y0138254D01*
X0178223Y0136719D01*
X0178990Y0135952D01*
X0180525Y0135952D01*
X0181292Y0136719D01*
X0176688Y0135952D02*
X0176688Y0138254D01*
X0175921Y0139021D01*
X0173619Y0139021D01*
X0173619Y0135952D01*
X0172084Y0135952D02*
X0170550Y0135952D01*
X0171317Y0135952D02*
X0171317Y0139021D01*
X0170550Y0139021D01*
X0169015Y0139021D02*
X0169015Y0135952D01*
X0166713Y0135952D01*
X0165946Y0136719D01*
X0165946Y0139021D01*
X0164411Y0139021D02*
X0162109Y0139021D01*
X0161342Y0138254D01*
X0161342Y0136719D01*
X0162109Y0135952D01*
X0164411Y0135952D01*
X0164411Y0135185D02*
X0164411Y0139021D01*
X0159040Y0139021D02*
X0159040Y0135952D01*
X0159807Y0135952D02*
X0158272Y0135952D01*
X0156738Y0136719D02*
X0156738Y0137487D01*
X0155970Y0138254D01*
X0154436Y0138254D01*
X0153669Y0139021D01*
X0153669Y0139789D01*
X0154436Y0140556D01*
X0155970Y0140556D01*
X0156738Y0139789D01*
X0158272Y0139021D02*
X0159040Y0139021D01*
X0159040Y0140556D02*
X0159040Y0141323D01*
X0156738Y0136719D02*
X0155970Y0135952D01*
X0154436Y0135952D01*
X0153669Y0136719D01*
X0162876Y0134417D02*
X0163644Y0134417D01*
X0164411Y0135185D01*
X0171317Y0140556D02*
X0171317Y0141323D01*
X0190500Y0140556D02*
X0190500Y0135952D01*
X0190500Y0137487D02*
X0192802Y0137487D01*
X0193569Y0138254D01*
X0193569Y0139789D01*
X0192802Y0140556D01*
X0190500Y0140556D01*
X0192035Y0137487D02*
X0193569Y0135952D01*
X0195104Y0136719D02*
X0195104Y0138254D01*
X0195871Y0139021D01*
X0197406Y0139021D01*
X0198173Y0138254D01*
X0198173Y0137487D01*
X0195104Y0137487D01*
X0195104Y0136719D02*
X0195871Y0135952D01*
X0197406Y0135952D01*
X0201242Y0135952D02*
X0202777Y0139021D01*
X0204312Y0139021D02*
X0204312Y0138254D01*
X0205079Y0138254D01*
X0205079Y0139021D01*
X0204312Y0139021D01*
X0201242Y0135952D02*
X0199708Y0139021D01*
X0204312Y0136719D02*
X0204312Y0135952D01*
X0205079Y0135952D01*
X0205079Y0136719D01*
X0204312Y0136719D01*
X0211218Y0136719D02*
X0214287Y0139789D01*
X0214287Y0136719D01*
X0213520Y0135952D01*
X0211985Y0135952D01*
X0211218Y0136719D01*
X0211218Y0139789D01*
X0211985Y0140556D01*
X0213520Y0140556D01*
X0214287Y0139789D01*
X0218123Y0139789D02*
X0218891Y0140556D01*
X0220425Y0140556D01*
X0221193Y0139789D01*
X0221193Y0139021D01*
X0220425Y0138254D01*
X0221193Y0137487D01*
X0221193Y0136719D01*
X0220425Y0135952D01*
X0218891Y0135952D01*
X0218123Y0136719D01*
X0216589Y0136719D02*
X0216589Y0135952D01*
X0215821Y0135952D01*
X0215821Y0136719D01*
X0216589Y0136719D01*
X0219658Y0138254D02*
X0220425Y0138254D01*
D11*
X0222366Y0147563D02*
X0268823Y0147563D01*
X0268823Y0013705D01*
X0222366Y0013705D01*
X0222366Y0147563D01*
X0199413Y0149531D02*
X0199413Y0129846D01*
X0199413Y0070398D01*
X0148232Y0070398D01*
X0148232Y0129846D01*
X0148232Y0149531D01*
X0199413Y0149531D01*
X0199413Y0129846D02*
X0148232Y0129846D01*
X0156407Y0123941D02*
X0156409Y0124000D01*
X0156415Y0124058D01*
X0156425Y0124116D01*
X0156438Y0124173D01*
X0156456Y0124230D01*
X0156477Y0124285D01*
X0156502Y0124338D01*
X0156530Y0124389D01*
X0156561Y0124439D01*
X0156596Y0124486D01*
X0156634Y0124531D01*
X0156675Y0124574D01*
X0156719Y0124613D01*
X0156765Y0124649D01*
X0156813Y0124683D01*
X0156864Y0124713D01*
X0156917Y0124739D01*
X0156971Y0124762D01*
X0157026Y0124781D01*
X0157083Y0124797D01*
X0157141Y0124809D01*
X0157199Y0124817D01*
X0157258Y0124821D01*
X0157316Y0124821D01*
X0157375Y0124817D01*
X0157433Y0124809D01*
X0157491Y0124797D01*
X0157548Y0124781D01*
X0157603Y0124762D01*
X0157657Y0124739D01*
X0157710Y0124713D01*
X0157761Y0124683D01*
X0157809Y0124649D01*
X0157855Y0124613D01*
X0157899Y0124574D01*
X0157940Y0124531D01*
X0157978Y0124486D01*
X0158013Y0124439D01*
X0158044Y0124389D01*
X0158072Y0124338D01*
X0158097Y0124285D01*
X0158118Y0124230D01*
X0158136Y0124173D01*
X0158149Y0124116D01*
X0158159Y0124058D01*
X0158165Y0124000D01*
X0158167Y0123941D01*
X0158165Y0123882D01*
X0158159Y0123824D01*
X0158149Y0123766D01*
X0158136Y0123709D01*
X0158118Y0123652D01*
X0158097Y0123597D01*
X0158072Y0123544D01*
X0158044Y0123493D01*
X0158013Y0123443D01*
X0157978Y0123396D01*
X0157940Y0123351D01*
X0157899Y0123308D01*
X0157855Y0123269D01*
X0157809Y0123233D01*
X0157761Y0123199D01*
X0157710Y0123169D01*
X0157657Y0123143D01*
X0157603Y0123120D01*
X0157548Y0123101D01*
X0157491Y0123085D01*
X0157433Y0123073D01*
X0157375Y0123065D01*
X0157316Y0123061D01*
X0157258Y0123061D01*
X0157199Y0123065D01*
X0157141Y0123073D01*
X0157083Y0123085D01*
X0157026Y0123101D01*
X0156971Y0123120D01*
X0156917Y0123143D01*
X0156864Y0123169D01*
X0156813Y0123199D01*
X0156765Y0123233D01*
X0156719Y0123269D01*
X0156675Y0123308D01*
X0156634Y0123351D01*
X0156596Y0123396D01*
X0156561Y0123443D01*
X0156530Y0123493D01*
X0156502Y0123544D01*
X0156477Y0123597D01*
X0156456Y0123652D01*
X0156438Y0123709D01*
X0156425Y0123766D01*
X0156415Y0123824D01*
X0156409Y0123882D01*
X0156407Y0123941D01*
X0166140Y0112456D02*
X0165989Y0112209D01*
X0165833Y0111966D01*
X0165671Y0111726D01*
X0165504Y0111490D01*
X0165332Y0111257D01*
X0165154Y0111029D01*
X0164972Y0110805D01*
X0164784Y0110585D01*
X0164591Y0110369D01*
X0164394Y0110157D01*
X0164191Y0109951D01*
X0162386Y0112178D02*
X0161829Y0112734D01*
X0161618Y0112917D02*
X0161618Y0107799D01*
X0158066Y0107723D02*
X0158052Y0107663D01*
X0158042Y0107601D01*
X0158035Y0107539D01*
X0158031Y0107476D01*
X0158031Y0107414D01*
X0158035Y0107351D01*
X0158042Y0107289D01*
X0158052Y0107227D01*
X0158066Y0107167D01*
X0158067Y0107167D02*
X0158082Y0107114D01*
X0158102Y0107063D01*
X0158125Y0107013D01*
X0158151Y0106965D01*
X0158181Y0106918D01*
X0158214Y0106874D01*
X0158250Y0106833D01*
X0158289Y0106794D01*
X0158330Y0106758D01*
X0158374Y0106725D01*
X0158421Y0106695D01*
X0158469Y0106669D01*
X0158519Y0106646D01*
X0158570Y0106626D01*
X0158623Y0106611D01*
X0164891Y0108559D02*
X0164945Y0108423D01*
X0164997Y0108285D01*
X0165045Y0108146D01*
X0165089Y0108006D01*
X0165131Y0107866D01*
X0165169Y0107724D01*
X0165169Y0107167D02*
X0165154Y0107114D01*
X0165134Y0107063D01*
X0165111Y0107013D01*
X0165085Y0106965D01*
X0165055Y0106918D01*
X0165022Y0106874D01*
X0164986Y0106833D01*
X0164947Y0106794D01*
X0164906Y0106758D01*
X0164862Y0106725D01*
X0164815Y0106695D01*
X0164767Y0106669D01*
X0164717Y0106646D01*
X0164666Y0106626D01*
X0164613Y0106611D01*
X0158345Y0108559D02*
X0158291Y0108423D01*
X0158239Y0108285D01*
X0158191Y0108146D01*
X0158147Y0108006D01*
X0158105Y0107866D01*
X0158067Y0107724D01*
X0158624Y0106609D02*
X0158684Y0106595D01*
X0158746Y0106585D01*
X0158808Y0106578D01*
X0158871Y0106574D01*
X0158933Y0106574D01*
X0158996Y0106578D01*
X0159058Y0106585D01*
X0159120Y0106595D01*
X0159180Y0106609D01*
X0164335Y0109672D02*
X0164439Y0109493D01*
X0164538Y0109310D01*
X0164633Y0109126D01*
X0164724Y0108939D01*
X0164810Y0108750D01*
X0164892Y0108559D01*
X0164612Y0106609D02*
X0164552Y0106595D01*
X0164490Y0106585D01*
X0164428Y0106578D01*
X0164365Y0106574D01*
X0164303Y0106574D01*
X0164240Y0106578D01*
X0164178Y0106585D01*
X0164116Y0106595D01*
X0164056Y0106609D01*
X0165170Y0107167D02*
X0165184Y0107227D01*
X0165194Y0107289D01*
X0165201Y0107351D01*
X0165205Y0107414D01*
X0165205Y0107476D01*
X0165201Y0107539D01*
X0165194Y0107601D01*
X0165184Y0107663D01*
X0165170Y0107723D01*
X0158902Y0109672D02*
X0158798Y0109493D01*
X0158699Y0109310D01*
X0158604Y0109126D01*
X0158513Y0108939D01*
X0158427Y0108750D01*
X0158345Y0108559D01*
X0158210Y0115240D02*
X0158074Y0115294D01*
X0157936Y0115346D01*
X0157797Y0115394D01*
X0157657Y0115438D01*
X0157517Y0115480D01*
X0157375Y0115518D01*
X0156818Y0115518D02*
X0156765Y0115503D01*
X0156714Y0115483D01*
X0156664Y0115460D01*
X0156616Y0115434D01*
X0156569Y0115404D01*
X0156525Y0115371D01*
X0156484Y0115335D01*
X0156445Y0115296D01*
X0156409Y0115255D01*
X0156376Y0115211D01*
X0156346Y0115164D01*
X0156320Y0115116D01*
X0156297Y0115066D01*
X0156277Y0115015D01*
X0156262Y0114962D01*
X0156818Y0115519D02*
X0156878Y0115533D01*
X0156940Y0115543D01*
X0157002Y0115550D01*
X0157065Y0115554D01*
X0157127Y0115554D01*
X0157190Y0115550D01*
X0157252Y0115543D01*
X0157314Y0115533D01*
X0157374Y0115519D01*
X0156260Y0114961D02*
X0156246Y0114901D01*
X0156236Y0114839D01*
X0156229Y0114777D01*
X0156225Y0114714D01*
X0156225Y0114652D01*
X0156229Y0114589D01*
X0156236Y0114527D01*
X0156246Y0114465D01*
X0156260Y0114405D01*
X0159180Y0106610D02*
X0159322Y0106648D01*
X0159462Y0106690D01*
X0159602Y0106734D01*
X0159741Y0106782D01*
X0159879Y0106834D01*
X0160015Y0106888D01*
X0159323Y0114683D02*
X0159144Y0114787D01*
X0158961Y0114886D01*
X0158777Y0114981D01*
X0158590Y0115072D01*
X0158401Y0115158D01*
X0158210Y0115240D01*
X0166140Y0112456D02*
X0166244Y0112635D01*
X0166343Y0112818D01*
X0166438Y0113002D01*
X0166529Y0113189D01*
X0166615Y0113378D01*
X0166697Y0113569D01*
X0166418Y0115519D02*
X0166358Y0115533D01*
X0166296Y0115543D01*
X0166234Y0115550D01*
X0166171Y0115554D01*
X0166109Y0115554D01*
X0166046Y0115550D01*
X0165984Y0115543D01*
X0165922Y0115533D01*
X0165862Y0115519D01*
X0166418Y0115518D02*
X0166471Y0115503D01*
X0166522Y0115483D01*
X0166572Y0115460D01*
X0166620Y0115434D01*
X0166667Y0115404D01*
X0166711Y0115371D01*
X0166752Y0115335D01*
X0166791Y0115296D01*
X0166827Y0115255D01*
X0166860Y0115211D01*
X0166890Y0115164D01*
X0166916Y0115116D01*
X0166939Y0115066D01*
X0166959Y0115015D01*
X0166974Y0114962D01*
X0166976Y0114961D02*
X0166990Y0114901D01*
X0167000Y0114839D01*
X0167007Y0114777D01*
X0167011Y0114714D01*
X0167011Y0114652D01*
X0167007Y0114589D01*
X0167000Y0114527D01*
X0166990Y0114465D01*
X0166976Y0114405D01*
X0164056Y0106610D02*
X0163914Y0106648D01*
X0163774Y0106690D01*
X0163634Y0106734D01*
X0163495Y0106782D01*
X0163357Y0106834D01*
X0163221Y0106888D01*
X0165026Y0115240D02*
X0165162Y0115294D01*
X0165300Y0115346D01*
X0165439Y0115394D01*
X0165579Y0115438D01*
X0165719Y0115480D01*
X0165861Y0115518D01*
X0157096Y0112456D02*
X0156992Y0112635D01*
X0156893Y0112818D01*
X0156798Y0113002D01*
X0156707Y0113189D01*
X0156621Y0113378D01*
X0156539Y0113569D01*
X0160850Y0112178D02*
X0161407Y0112734D01*
X0166697Y0113570D02*
X0166751Y0113706D01*
X0166803Y0113844D01*
X0166851Y0113983D01*
X0166895Y0114123D01*
X0166937Y0114263D01*
X0166975Y0114405D01*
X0163221Y0106888D02*
X0162960Y0107031D01*
X0162703Y0107180D01*
X0162450Y0107336D01*
X0162200Y0107497D01*
X0161955Y0107665D01*
X0161713Y0107839D01*
X0163913Y0114684D02*
X0164092Y0114788D01*
X0164275Y0114887D01*
X0164459Y0114982D01*
X0164646Y0115073D01*
X0164835Y0115159D01*
X0165026Y0115241D01*
X0156540Y0113570D02*
X0156486Y0113706D01*
X0156434Y0113844D01*
X0156386Y0113983D01*
X0156342Y0114123D01*
X0156300Y0114263D01*
X0156262Y0114405D01*
X0160015Y0106889D02*
X0160275Y0107032D01*
X0160532Y0107181D01*
X0160786Y0107337D01*
X0161035Y0107498D01*
X0161281Y0107666D01*
X0161522Y0107839D01*
X0164335Y0109673D02*
X0164184Y0109919D01*
X0164028Y0110163D01*
X0163866Y0110403D01*
X0163699Y0110639D01*
X0163527Y0110871D01*
X0163349Y0111100D01*
X0163166Y0111324D01*
X0162979Y0111544D01*
X0162786Y0111760D01*
X0162588Y0111971D01*
X0162386Y0112178D01*
X0159045Y0109950D02*
X0158843Y0110157D01*
X0158645Y0110368D01*
X0158452Y0110584D01*
X0158265Y0110804D01*
X0158082Y0111028D01*
X0157904Y0111257D01*
X0157732Y0111489D01*
X0157565Y0111725D01*
X0157403Y0111965D01*
X0157247Y0112209D01*
X0157096Y0112455D01*
X0159323Y0114683D02*
X0159570Y0114532D01*
X0159813Y0114376D01*
X0160053Y0114214D01*
X0160289Y0114047D01*
X0160522Y0113875D01*
X0160750Y0113697D01*
X0160974Y0113515D01*
X0161194Y0113327D01*
X0161410Y0113134D01*
X0161622Y0112937D01*
X0161828Y0112734D01*
X0161407Y0112734D02*
X0161614Y0112936D01*
X0161825Y0113134D01*
X0162041Y0113327D01*
X0162261Y0113514D01*
X0162485Y0113697D01*
X0162714Y0113875D01*
X0162946Y0114047D01*
X0163182Y0114214D01*
X0163422Y0114376D01*
X0163666Y0114532D01*
X0163912Y0114683D01*
X0160851Y0112177D02*
X0160648Y0111971D01*
X0160451Y0111759D01*
X0160258Y0111543D01*
X0160070Y0111323D01*
X0159888Y0111099D01*
X0159710Y0110871D01*
X0159538Y0110638D01*
X0159371Y0110402D01*
X0159209Y0110162D01*
X0159053Y0109919D01*
X0158902Y0109672D01*
X0134404Y0113916D02*
X0134404Y0117666D01*
X0044807Y0099531D02*
X0044807Y0052287D01*
X0029059Y0052287D01*
X0029059Y0099531D01*
X0032996Y0099531D01*
X0032996Y0103469D01*
X0040870Y0103469D01*
X0040870Y0099531D01*
X0044807Y0099531D01*
X0040870Y0099531D02*
X0032996Y0099531D01*
D12*
X0083705Y0014709D02*
X0086205Y0012209D01*
X0091205Y0012209D01*
X0093705Y0014709D01*
X0093705Y0019709D01*
X0091205Y0022209D01*
X0093705Y0024709D01*
X0093705Y0029709D01*
X0091205Y0032209D01*
X0093705Y0034709D01*
X0093705Y0039709D01*
X0091205Y0042209D01*
X0093705Y0044709D01*
X0093705Y0049709D01*
X0091205Y0052209D01*
X0093705Y0054709D01*
X0093705Y0059709D01*
X0091205Y0062209D01*
X0093705Y0064709D01*
X0093705Y0069709D01*
X0091205Y0072209D01*
X0093705Y0074709D01*
X0093705Y0079709D01*
X0091205Y0082209D01*
X0093705Y0084709D01*
X0093705Y0089709D01*
X0091205Y0092209D01*
X0093705Y0094709D01*
X0093705Y0099709D01*
X0091205Y0102209D01*
X0093705Y0104709D01*
X0093705Y0109709D01*
X0091205Y0112209D01*
X0093705Y0114709D01*
X0093705Y0119709D01*
X0091205Y0122209D01*
X0093705Y0124709D01*
X0093705Y0129709D01*
X0091205Y0132209D01*
X0086205Y0132209D01*
X0083705Y0129709D01*
X0083705Y0124709D01*
X0086205Y0122209D01*
X0083705Y0119709D01*
X0083705Y0114709D01*
X0086205Y0112209D01*
X0083705Y0109709D01*
X0083705Y0104709D01*
X0086205Y0102209D01*
X0083705Y0099709D01*
X0083705Y0094709D01*
X0086205Y0092209D01*
X0083705Y0089709D01*
X0083705Y0084709D01*
X0086205Y0082209D01*
X0083705Y0079709D01*
X0083705Y0074709D01*
X0086205Y0072209D01*
X0083705Y0069709D01*
X0083705Y0064709D01*
X0086205Y0062209D01*
X0083705Y0059709D01*
X0083705Y0054709D01*
X0086205Y0052209D01*
X0083705Y0049709D01*
X0083705Y0044709D01*
X0086205Y0042209D01*
X0083705Y0039709D01*
X0083705Y0034709D01*
X0086205Y0032209D01*
X0083705Y0029709D01*
X0083705Y0024709D01*
X0086205Y0022209D01*
X0083705Y0019709D01*
X0083705Y0014709D01*
X0117366Y0013567D02*
X0119866Y0011067D01*
X0124866Y0011067D01*
X0127366Y0013567D01*
X0129866Y0011067D01*
X0134866Y0011067D01*
X0137366Y0013567D01*
X0139866Y0011067D01*
X0144866Y0011067D01*
X0147366Y0013567D01*
X0147366Y0018567D01*
X0144866Y0021067D01*
X0139866Y0021067D01*
X0137366Y0018567D01*
X0134866Y0021067D01*
X0129866Y0021067D01*
X0127366Y0018567D01*
X0124866Y0021067D01*
X0119866Y0021067D01*
X0117366Y0018567D01*
X0117366Y0013567D01*
X0149925Y0043626D02*
X0157799Y0043626D01*
X0157948Y0043639D01*
X0158097Y0043655D01*
X0158245Y0043675D01*
X0158392Y0043699D01*
X0158539Y0043727D01*
X0158685Y0043758D01*
X0158830Y0043794D01*
X0158975Y0043833D01*
X0159118Y0043877D01*
X0159260Y0043924D01*
X0159400Y0043974D01*
X0159539Y0044029D01*
X0159677Y0044087D01*
X0159813Y0044148D01*
X0159948Y0044214D01*
X0160081Y0044282D01*
X0160211Y0044354D01*
X0160340Y0044430D01*
X0160467Y0044509D01*
X0160592Y0044592D01*
X0160715Y0044677D01*
X0160835Y0044766D01*
X0160953Y0044858D01*
X0161068Y0044953D01*
X0161181Y0045051D01*
X0161291Y0045152D01*
X0161398Y0045256D01*
X0161503Y0045363D01*
X0161605Y0045472D01*
X0161704Y0045584D01*
X0161800Y0045699D01*
X0161893Y0045816D01*
X0161983Y0045935D01*
X0162069Y0046057D01*
X0162152Y0046181D01*
X0162233Y0046307D01*
X0162309Y0046436D01*
X0162382Y0046566D01*
X0162452Y0046698D01*
X0162519Y0046832D01*
X0162581Y0046968D01*
X0162640Y0047105D01*
X0162696Y0047244D01*
X0162748Y0047384D01*
X0162796Y0047526D01*
X0162840Y0047668D01*
X0162881Y0047812D01*
X0162917Y0047957D01*
X0162917Y0055044D02*
X0162881Y0055189D01*
X0162840Y0055332D01*
X0162796Y0055475D01*
X0162748Y0055617D01*
X0162696Y0055757D01*
X0162640Y0055896D01*
X0162581Y0056033D01*
X0162519Y0056169D01*
X0162452Y0056303D01*
X0162383Y0056435D01*
X0162309Y0056565D01*
X0162233Y0056694D01*
X0162153Y0056820D01*
X0162069Y0056944D01*
X0161983Y0057066D01*
X0161893Y0057185D01*
X0161800Y0057302D01*
X0161704Y0057417D01*
X0161605Y0057529D01*
X0161503Y0057638D01*
X0161399Y0057745D01*
X0161291Y0057849D01*
X0161181Y0057950D01*
X0161068Y0058048D01*
X0160953Y0058143D01*
X0160835Y0058235D01*
X0160715Y0058324D01*
X0160592Y0058410D01*
X0160467Y0058492D01*
X0160340Y0058571D01*
X0160211Y0058647D01*
X0160081Y0058719D01*
X0159948Y0058788D01*
X0159813Y0058853D01*
X0159677Y0058914D01*
X0159539Y0058972D01*
X0159400Y0059027D01*
X0159259Y0059077D01*
X0159118Y0059124D01*
X0158974Y0059168D01*
X0158830Y0059207D01*
X0158685Y0059243D01*
X0158539Y0059274D01*
X0158392Y0059302D01*
X0158245Y0059326D01*
X0158096Y0059346D01*
X0157948Y0059362D01*
X0157799Y0059375D01*
X0157799Y0059374D02*
X0149925Y0059374D01*
X0149776Y0059361D01*
X0149627Y0059345D01*
X0149479Y0059325D01*
X0149332Y0059301D01*
X0149185Y0059273D01*
X0149039Y0059242D01*
X0148894Y0059206D01*
X0148749Y0059167D01*
X0148606Y0059123D01*
X0148464Y0059076D01*
X0148324Y0059026D01*
X0148185Y0058971D01*
X0148047Y0058913D01*
X0147911Y0058852D01*
X0147776Y0058786D01*
X0147643Y0058718D01*
X0147513Y0058646D01*
X0147384Y0058570D01*
X0147257Y0058491D01*
X0147132Y0058408D01*
X0147009Y0058323D01*
X0146889Y0058234D01*
X0146771Y0058142D01*
X0146656Y0058047D01*
X0146543Y0057949D01*
X0146433Y0057848D01*
X0146326Y0057744D01*
X0146221Y0057637D01*
X0146119Y0057528D01*
X0146020Y0057416D01*
X0145924Y0057301D01*
X0145831Y0057184D01*
X0145741Y0057065D01*
X0145655Y0056943D01*
X0145572Y0056819D01*
X0145491Y0056693D01*
X0145415Y0056564D01*
X0145342Y0056434D01*
X0145272Y0056302D01*
X0145205Y0056168D01*
X0145143Y0056032D01*
X0145084Y0055895D01*
X0145028Y0055756D01*
X0144976Y0055616D01*
X0144928Y0055474D01*
X0144884Y0055332D01*
X0144843Y0055188D01*
X0144807Y0055043D01*
X0140099Y0057600D02*
X0140099Y0058703D01*
X0138099Y0058703D01*
X0128302Y0059000D02*
X0126902Y0057600D01*
X0127299Y0046806D02*
X0127299Y0045703D01*
X0129299Y0045703D01*
X0138099Y0045703D02*
X0140099Y0045703D01*
X0140099Y0046806D01*
X0144807Y0047956D02*
X0144843Y0047811D01*
X0144884Y0047668D01*
X0144928Y0047525D01*
X0144976Y0047383D01*
X0145028Y0047243D01*
X0145084Y0047104D01*
X0145143Y0046967D01*
X0145205Y0046831D01*
X0145272Y0046697D01*
X0145341Y0046565D01*
X0145415Y0046435D01*
X0145491Y0046306D01*
X0145571Y0046180D01*
X0145655Y0046056D01*
X0145741Y0045934D01*
X0145831Y0045815D01*
X0145924Y0045698D01*
X0146020Y0045583D01*
X0146119Y0045471D01*
X0146221Y0045362D01*
X0146325Y0045255D01*
X0146433Y0045151D01*
X0146543Y0045050D01*
X0146656Y0044952D01*
X0146771Y0044857D01*
X0146889Y0044765D01*
X0147009Y0044676D01*
X0147132Y0044590D01*
X0147257Y0044508D01*
X0147384Y0044429D01*
X0147513Y0044353D01*
X0147643Y0044281D01*
X0147776Y0044212D01*
X0147911Y0044147D01*
X0148047Y0044086D01*
X0148185Y0044028D01*
X0148324Y0043973D01*
X0148465Y0043923D01*
X0148606Y0043876D01*
X0148750Y0043832D01*
X0148894Y0043793D01*
X0149039Y0043757D01*
X0149185Y0043726D01*
X0149332Y0043698D01*
X0149479Y0043674D01*
X0149628Y0043654D01*
X0149776Y0043638D01*
X0149925Y0043625D01*
X0118705Y0067694D02*
X0099190Y0087209D01*
X0117716Y0105735D01*
X0119693Y0105735D01*
X0138220Y0087209D01*
X0118705Y0067694D01*
X0102995Y0101899D02*
X0097877Y0101899D01*
X0118175Y0107644D02*
X0118177Y0107693D01*
X0118183Y0107741D01*
X0118193Y0107789D01*
X0118207Y0107836D01*
X0118224Y0107882D01*
X0118245Y0107926D01*
X0118270Y0107968D01*
X0118298Y0108008D01*
X0118330Y0108046D01*
X0118364Y0108081D01*
X0118401Y0108113D01*
X0118440Y0108142D01*
X0118482Y0108168D01*
X0118526Y0108190D01*
X0118571Y0108208D01*
X0118618Y0108223D01*
X0118665Y0108234D01*
X0118714Y0108241D01*
X0118763Y0108244D01*
X0118812Y0108243D01*
X0118860Y0108238D01*
X0118909Y0108229D01*
X0118956Y0108216D01*
X0119002Y0108199D01*
X0119046Y0108179D01*
X0119089Y0108155D01*
X0119130Y0108128D01*
X0119168Y0108097D01*
X0119204Y0108064D01*
X0119236Y0108028D01*
X0119266Y0107989D01*
X0119293Y0107948D01*
X0119316Y0107904D01*
X0119335Y0107859D01*
X0119351Y0107813D01*
X0119363Y0107766D01*
X0119371Y0107717D01*
X0119375Y0107668D01*
X0119375Y0107620D01*
X0119371Y0107571D01*
X0119363Y0107522D01*
X0119351Y0107475D01*
X0119335Y0107429D01*
X0119316Y0107384D01*
X0119293Y0107340D01*
X0119266Y0107299D01*
X0119236Y0107260D01*
X0119204Y0107224D01*
X0119168Y0107191D01*
X0119130Y0107160D01*
X0119089Y0107133D01*
X0119046Y0107109D01*
X0119002Y0107089D01*
X0118956Y0107072D01*
X0118909Y0107059D01*
X0118860Y0107050D01*
X0118812Y0107045D01*
X0118763Y0107044D01*
X0118714Y0107047D01*
X0118665Y0107054D01*
X0118618Y0107065D01*
X0118571Y0107080D01*
X0118526Y0107098D01*
X0118482Y0107120D01*
X0118440Y0107146D01*
X0118401Y0107175D01*
X0118364Y0107207D01*
X0118330Y0107242D01*
X0118298Y0107280D01*
X0118270Y0107320D01*
X0118245Y0107362D01*
X0118224Y0107406D01*
X0118207Y0107452D01*
X0118193Y0107499D01*
X0118183Y0107547D01*
X0118177Y0107595D01*
X0118175Y0107644D01*
X0102995Y0116662D02*
X0097877Y0116662D01*
X0096205Y0132209D02*
X0091205Y0132209D01*
X0088705Y0134709D01*
X0088705Y0139709D01*
X0091205Y0142209D01*
X0096205Y0142209D01*
X0098705Y0139709D01*
X0101205Y0142209D01*
X0106205Y0142209D01*
X0108705Y0139709D01*
X0111205Y0142209D01*
X0116205Y0142209D01*
X0118705Y0139709D01*
X0121205Y0142209D01*
X0126205Y0142209D01*
X0128705Y0139709D01*
X0131205Y0142209D01*
X0136205Y0142209D01*
X0138705Y0139709D01*
X0141205Y0142209D01*
X0146205Y0142209D01*
X0148705Y0139709D01*
X0148705Y0134709D01*
X0146205Y0132209D01*
X0141205Y0132209D01*
X0138705Y0134709D01*
X0136205Y0132209D01*
X0131205Y0132209D01*
X0128705Y0134709D01*
X0126205Y0132209D01*
X0121205Y0132209D01*
X0118705Y0134709D01*
X0116205Y0132209D01*
X0111205Y0132209D01*
X0108705Y0134709D01*
X0106205Y0132209D01*
X0101205Y0132209D01*
X0098705Y0134709D01*
X0096205Y0132209D01*
X0084965Y0140083D02*
X0084965Y0143232D01*
X0082602Y0143232D01*
X0076303Y0143232D02*
X0073941Y0143232D01*
X0073941Y0140083D01*
X0038935Y0133357D02*
X0032797Y0133357D01*
X0035866Y0130287D02*
X0035866Y0136426D01*
X0035866Y0062763D02*
X0035866Y0056624D01*
D13*
X0126705Y0059209D03*
D14*
X0181350Y0126797D02*
X0182084Y0128265D01*
X0182826Y0127898D02*
X0183193Y0128265D01*
X0183927Y0128265D01*
X0184294Y0127898D01*
X0184294Y0127531D01*
X0182826Y0127531D01*
X0182826Y0127164D02*
X0182826Y0127898D01*
X0182826Y0127164D02*
X0183193Y0126797D01*
X0183927Y0126797D01*
X0185036Y0126797D02*
X0185036Y0128265D01*
X0185769Y0128265D02*
X0185036Y0127531D01*
X0185769Y0128265D02*
X0186136Y0128265D01*
X0189087Y0128999D02*
X0189087Y0126797D01*
X0189087Y0127531D02*
X0190188Y0127531D01*
X0190555Y0127898D01*
X0190555Y0128632D01*
X0190188Y0128999D01*
X0189087Y0128999D01*
X0189821Y0127531D02*
X0190555Y0126797D01*
X0191297Y0126797D02*
X0192765Y0126797D01*
X0192031Y0126797D02*
X0192031Y0128999D01*
X0191297Y0128265D01*
X0195717Y0128265D02*
X0197185Y0126797D01*
X0197185Y0127531D02*
X0196451Y0126797D01*
X0196084Y0126797D01*
X0195717Y0127164D01*
X0195717Y0127531D01*
X0196451Y0128265D01*
X0196451Y0128632D01*
X0196084Y0128999D01*
X0195717Y0128632D01*
X0195717Y0128265D01*
X0200136Y0128999D02*
X0200136Y0126797D01*
X0200136Y0127531D02*
X0201237Y0127531D01*
X0201604Y0127898D01*
X0201604Y0128632D01*
X0201237Y0128999D01*
X0200136Y0128999D01*
X0200870Y0127531D02*
X0201604Y0126797D01*
X0202346Y0127164D02*
X0202713Y0126797D01*
X0203447Y0126797D01*
X0203814Y0127164D01*
X0203814Y0127531D01*
X0203447Y0127898D01*
X0203080Y0127898D01*
X0203447Y0127898D02*
X0203814Y0128265D01*
X0203814Y0128632D01*
X0203447Y0128999D01*
X0202713Y0128999D01*
X0202346Y0128632D01*
X0181350Y0126797D02*
X0180616Y0128265D01*
X0181350Y0146482D02*
X0182084Y0147950D01*
X0182826Y0147583D02*
X0182826Y0146849D01*
X0183193Y0146482D01*
X0183927Y0146482D01*
X0184294Y0147216D02*
X0182826Y0147216D01*
X0182826Y0147583D02*
X0183193Y0147950D01*
X0183927Y0147950D01*
X0184294Y0147583D01*
X0184294Y0147216D01*
X0185036Y0147216D02*
X0185769Y0147950D01*
X0186136Y0147950D01*
X0185036Y0147950D02*
X0185036Y0146482D01*
X0181350Y0146482D02*
X0180616Y0147950D01*
X0189087Y0148684D02*
X0189087Y0146482D01*
X0189087Y0147216D02*
X0190188Y0147216D01*
X0190555Y0147583D01*
X0190555Y0148317D01*
X0190188Y0148684D01*
X0189087Y0148684D01*
X0189821Y0147216D02*
X0190555Y0146482D01*
X0191297Y0146482D02*
X0192765Y0147950D01*
X0192765Y0148317D01*
X0192398Y0148684D01*
X0191664Y0148684D01*
X0191297Y0148317D01*
X0191297Y0146482D02*
X0192765Y0146482D01*
X0195717Y0146849D02*
X0195717Y0147216D01*
X0196451Y0147950D01*
X0196451Y0148317D01*
X0196084Y0148684D01*
X0195717Y0148317D01*
X0195717Y0147950D01*
X0197185Y0146482D01*
X0197185Y0147216D02*
X0196451Y0146482D01*
X0196084Y0146482D01*
X0195717Y0146849D01*
X0200136Y0147216D02*
X0201237Y0147216D01*
X0201604Y0147583D01*
X0201604Y0148317D01*
X0201237Y0148684D01*
X0200136Y0148684D01*
X0200136Y0146482D01*
X0200870Y0147216D02*
X0201604Y0146482D01*
X0202346Y0147583D02*
X0203814Y0147583D01*
X0203447Y0148684D02*
X0202346Y0147583D01*
X0203447Y0146482D02*
X0203447Y0148684D01*
D15*
X0175319Y0022957D02*
X0163902Y0022957D01*
X0163902Y0017051D01*
X0175319Y0017051D01*
X0175319Y0022957D01*
D16*
X0169610Y0023941D03*
X0165870Y0016067D03*
X0173350Y0016067D03*
D17*
X0110856Y0045687D02*
X0110156Y0045687D01*
X0110856Y0045687D02*
X0110856Y0058887D01*
X0110156Y0058887D01*
X0098356Y0058887D02*
X0097656Y0058887D01*
X0097656Y0045687D01*
X0098356Y0045687D01*
D18*
X0098422Y0043673D02*
X0095286Y0040537D01*
X0096854Y0040537D02*
X0096854Y0043673D01*
X0095286Y0043673D02*
X0098422Y0040537D01*
X0098422Y0042105D02*
X0095286Y0042105D01*
M02*
