G75*
%MOIN*%
%OFA0B0*%
%FSLAX25Y25*%
%IPPOS*%
%LPD*%
%AMOC8*
5,1,8,0,0,1.08239X$1,22.5*
%
%ADD10C,0.07400*%
%ADD11C,0.06600*%
%ADD12C,0.08600*%
%ADD13C,0.02362*%
%ADD14C,0.00600*%
%ADD15C,0.01000*%
D10*
X0088705Y0017209D03*
X0088705Y0027209D03*
X0088705Y0037209D03*
X0088705Y0047209D03*
X0088705Y0057209D03*
X0088705Y0067209D03*
X0088705Y0077209D03*
X0088705Y0087209D03*
X0088705Y0097209D03*
X0088705Y0107209D03*
X0088705Y0117209D03*
X0088705Y0127209D03*
X0093705Y0137209D03*
X0103705Y0137209D03*
X0113705Y0137209D03*
X0123705Y0137209D03*
X0133705Y0137209D03*
X0143705Y0137209D03*
X0142366Y0016067D03*
X0132366Y0016067D03*
X0122366Y0016067D03*
D11*
X0145988Y0051500D03*
X0161736Y0051500D03*
D12*
X0036933Y0012661D03*
X0036933Y0139157D03*
D13*
X0095201Y0116461D03*
X0099531Y0119217D03*
X0105437Y0118823D03*
X0107799Y0122760D03*
X0117248Y0130240D03*
X0095594Y0126697D03*
X0107012Y0110949D03*
X0111343Y0110949D03*
X0117248Y0110949D03*
X0124335Y0111736D03*
X0132602Y0107799D03*
X0132996Y0103862D03*
X0121579Y0099138D03*
X0119217Y0096776D03*
X0117642Y0099925D03*
X0123941Y0094020D03*
X0128665Y0091657D03*
X0133390Y0088508D03*
X0131815Y0083783D03*
X0124728Y0081815D03*
X0120004Y0081815D03*
X0118429Y0077091D03*
X0122760Y0075909D03*
X0107799Y0084177D03*
X0115160Y0086007D03*
X0114492Y0090476D03*
X0111736Y0092839D03*
X0099531Y0099531D03*
X0124728Y0086933D03*
X0137720Y0075122D03*
X0129453Y0066461D03*
X0135752Y0063311D03*
X0127091Y0060949D03*
X0117248Y0061736D03*
X0112917Y0060555D03*
X0105437Y0051894D03*
X0112917Y0046776D03*
X0112917Y0042839D03*
X0110949Y0039689D03*
X0118823Y0042839D03*
X0124728Y0043626D03*
X0125516Y0040083D03*
X0129453Y0039689D03*
X0134177Y0041657D03*
X0137720Y0036933D03*
X0146382Y0041264D03*
X0134177Y0026303D03*
X0146382Y0025516D03*
X0157012Y0025516D03*
X0161736Y0026303D03*
X0152287Y0016067D03*
X0114886Y0021972D03*
X0100319Y0021972D03*
X0095594Y0026697D03*
X0098350Y0039689D03*
X0095594Y0043626D03*
X0121579Y0047169D03*
X0095988Y0066854D03*
X0098744Y0071579D03*
X0104256Y0069217D03*
X0158587Y0079453D03*
X0169610Y0094413D03*
X0165280Y0097563D03*
X0158587Y0107799D03*
X0158587Y0114098D03*
X0140083Y0117248D03*
X0193232Y0118429D03*
X0238114Y0102681D03*
X0202681Y0064098D03*
X0196776Y0063311D03*
X0199138Y0053862D03*
X0180240Y0045201D03*
X0177091Y0041657D03*
D14*
X0186933Y0041657D01*
X0199138Y0053862D01*
X0196776Y0063311D02*
X0135752Y0063311D01*
X0132996Y0060555D02*
X0141657Y0060555D01*
X0141657Y0024335D01*
X0132366Y0016067D01*
X0130505Y0011575D02*
X0150945Y0011575D01*
X0166854Y0027484D01*
X0166854Y0045201D01*
X0180240Y0045201D01*
X0161736Y0026303D02*
X0152287Y0016854D01*
X0152287Y0016067D01*
X0157012Y0025516D02*
X0146382Y0025516D01*
X0146382Y0041264D01*
X0140083Y0038508D02*
X0139694Y0038119D01*
X0139694Y0036116D01*
X0138538Y0034960D01*
X0129094Y0034960D01*
X0128302Y0035752D01*
X0097169Y0035752D01*
X0095594Y0037327D01*
X0095594Y0043626D01*
X0095594Y0066461D01*
X0095988Y0066854D01*
X0093599Y0067844D02*
X0093599Y0045009D01*
X0093206Y0044616D01*
X0093206Y0042636D01*
X0094394Y0041447D01*
X0094394Y0036830D01*
X0095594Y0035630D01*
X0095594Y0026697D01*
X0099925Y0026303D02*
X0134177Y0026303D01*
X0130895Y0036796D02*
X0128803Y0036796D01*
X0125516Y0040083D01*
X0125516Y0041623D01*
X0126702Y0042809D01*
X0126702Y0044443D01*
X0125516Y0045629D01*
X0125516Y0058587D01*
X0122760Y0061343D01*
X0122760Y0062917D01*
X0121968Y0063709D01*
X0116431Y0063709D01*
X0116032Y0063311D01*
X0111736Y0063311D01*
X0105831Y0069217D01*
X0104256Y0069217D01*
X0105039Y0071190D02*
X0101106Y0075122D01*
X0096618Y0075122D01*
X0088705Y0067209D01*
X0093599Y0067844D02*
X0094999Y0069243D01*
X0096409Y0069243D01*
X0098744Y0071579D01*
X0105039Y0071190D02*
X0116032Y0071190D01*
X0125879Y0061343D01*
X0127091Y0060949D01*
X0132996Y0060555D02*
X0132996Y0066461D01*
X0135752Y0069217D01*
X0126697Y0078272D01*
X0129059Y0086933D01*
X0128665Y0091657D01*
X0124335Y0094413D02*
X0123941Y0094020D01*
X0124335Y0094413D02*
X0169610Y0094413D01*
X0165280Y0097563D02*
X0119217Y0096776D01*
X0121579Y0099138D02*
X0113705Y0107406D01*
X0113705Y0137209D01*
X0117248Y0130240D02*
X0117248Y0110949D01*
X0111343Y0110949D02*
X0107012Y0110949D01*
X0105437Y0112165D02*
X0105437Y0118823D01*
X0105437Y0120398D01*
X0107799Y0122760D01*
X0099531Y0122760D02*
X0099531Y0119217D01*
X0099531Y0122760D02*
X0095594Y0126697D01*
X0095201Y0116461D02*
X0090549Y0111809D01*
X0086799Y0111809D01*
X0084105Y0109114D01*
X0084105Y0105303D01*
X0086799Y0102609D01*
X0101966Y0102609D01*
X0111736Y0092839D01*
X0114886Y0094807D02*
X0124728Y0086933D01*
X0131815Y0083783D02*
X0133390Y0088508D01*
X0124728Y0081815D02*
X0114492Y0090476D01*
X0115160Y0086007D02*
X0120004Y0081815D01*
X0116873Y0081796D02*
X0097612Y0081796D01*
X0092199Y0087209D01*
X0088705Y0087209D01*
X0088705Y0077209D02*
X0118429Y0077091D01*
X0122760Y0075909D02*
X0116873Y0081796D01*
X0115160Y0086007D02*
X0099531Y0099531D01*
X0088744Y0097169D02*
X0088705Y0097209D01*
X0107799Y0084177D01*
X0114886Y0094807D02*
X0108193Y0106618D01*
X0088705Y0107209D01*
X0105039Y0110131D02*
X0106194Y0108976D01*
X0108985Y0108976D01*
X0117642Y0099925D01*
X0130629Y0106982D02*
X0130629Y0108617D01*
X0136111Y0114098D01*
X0158587Y0114098D01*
X0158587Y0107799D02*
X0132602Y0107799D01*
X0130629Y0106982D02*
X0132996Y0104615D01*
X0132996Y0103862D01*
X0132209Y0103862D01*
X0124335Y0111736D01*
X0140083Y0117248D02*
X0176697Y0117248D01*
X0176697Y0090083D01*
X0202681Y0064098D01*
X0158587Y0079453D02*
X0142051Y0079453D01*
X0137720Y0075122D01*
X0129453Y0066461D02*
X0129453Y0039689D01*
X0134177Y0041657D02*
X0136933Y0041657D01*
X0140083Y0038508D01*
X0137720Y0036933D02*
X0131032Y0036933D01*
X0130895Y0036796D01*
X0124728Y0043626D02*
X0122401Y0043626D01*
X0120831Y0045196D01*
X0120761Y0045196D01*
X0119182Y0046776D01*
X0112917Y0046776D01*
X0112917Y0042839D02*
X0118823Y0042839D01*
X0119640Y0040865D02*
X0112125Y0040865D01*
X0110949Y0039689D01*
X0119640Y0040865D02*
X0122401Y0043626D01*
X0121579Y0047169D02*
X0121579Y0057406D01*
X0117248Y0061736D01*
X0117248Y0058587D01*
X0098350Y0039689D01*
X0105437Y0051894D02*
X0112917Y0059374D01*
X0112917Y0060555D01*
X0099925Y0026303D02*
X0088705Y0017209D01*
X0100319Y0021972D02*
X0114886Y0021972D01*
X0122366Y0016067D02*
X0126013Y0016067D01*
X0130505Y0011575D01*
X0193232Y0102681D02*
X0193232Y0118429D01*
X0193232Y0102681D02*
X0238114Y0102681D01*
X0105437Y0112165D02*
X0105039Y0111766D01*
X0105039Y0110131D01*
D15*
X0003300Y0152062D02*
X0003300Y0003300D01*
X0277259Y0003300D01*
X0277259Y0152062D01*
X0003300Y0152062D01*
X0003300Y0151699D02*
X0277259Y0151699D01*
X0277259Y0150700D02*
X0003300Y0150700D01*
X0003300Y0149702D02*
X0277259Y0149702D01*
X0277259Y0148703D02*
X0003300Y0148703D01*
X0003300Y0147705D02*
X0277259Y0147705D01*
X0277259Y0146706D02*
X0003300Y0146706D01*
X0003300Y0145708D02*
X0277259Y0145708D01*
X0277259Y0144709D02*
X0038686Y0144709D01*
X0038087Y0144957D02*
X0035779Y0144957D01*
X0033648Y0144074D01*
X0032016Y0142443D01*
X0031133Y0140311D01*
X0031133Y0138004D01*
X0032016Y0135872D01*
X0033648Y0134240D01*
X0035779Y0133357D01*
X0038087Y0133357D01*
X0040219Y0134240D01*
X0041850Y0135872D01*
X0042733Y0138004D01*
X0042733Y0140311D01*
X0041850Y0142443D01*
X0040219Y0144074D01*
X0038087Y0144957D01*
X0040582Y0143711D02*
X0277259Y0143711D01*
X0277259Y0142712D02*
X0041581Y0142712D01*
X0042152Y0141714D02*
X0090993Y0141714D01*
X0090759Y0141617D02*
X0089296Y0140154D01*
X0088505Y0138243D01*
X0088505Y0136174D01*
X0089296Y0134263D01*
X0090759Y0132800D01*
X0092670Y0132009D01*
X0094739Y0132009D01*
X0096650Y0132800D01*
X0098113Y0134263D01*
X0098705Y0135691D01*
X0099296Y0134263D01*
X0100759Y0132800D01*
X0102670Y0132009D01*
X0104739Y0132009D01*
X0106650Y0132800D01*
X0108113Y0134263D01*
X0108705Y0135691D01*
X0109296Y0134263D01*
X0110759Y0132800D01*
X0111905Y0132326D01*
X0111905Y0113354D01*
X0111586Y0113417D01*
X0111343Y0113417D01*
X0111343Y0110949D01*
X0111342Y0110949D01*
X0111342Y0110949D01*
X0107012Y0110949D01*
X0107012Y0110949D01*
X0108874Y0110949D01*
X0111342Y0110949D01*
X0111342Y0113417D01*
X0111099Y0113417D01*
X0110622Y0113322D01*
X0110173Y0113136D01*
X0109769Y0112866D01*
X0109425Y0112522D01*
X0109177Y0112151D01*
X0108929Y0112522D01*
X0108585Y0112866D01*
X0108181Y0113136D01*
X0107732Y0113322D01*
X0107255Y0113417D01*
X0107237Y0113417D01*
X0107237Y0116831D01*
X0107710Y0117304D01*
X0108118Y0118290D01*
X0108118Y0119356D01*
X0107819Y0120079D01*
X0108333Y0120079D01*
X0109318Y0120487D01*
X0110072Y0121241D01*
X0110480Y0122227D01*
X0110480Y0123293D01*
X0110072Y0124279D01*
X0109318Y0125033D01*
X0108333Y0125441D01*
X0107266Y0125441D01*
X0106280Y0125033D01*
X0105526Y0124279D01*
X0105118Y0123293D01*
X0105118Y0122624D01*
X0103637Y0121143D01*
X0103637Y0120814D01*
X0103164Y0120342D01*
X0102756Y0119356D01*
X0102756Y0118290D01*
X0103164Y0117304D01*
X0103637Y0116831D01*
X0103637Y0112910D01*
X0103239Y0112512D01*
X0103239Y0109386D01*
X0104081Y0108544D01*
X0093649Y0108860D01*
X0093113Y0110154D01*
X0092277Y0110991D01*
X0095065Y0113780D01*
X0095734Y0113780D01*
X0096720Y0114188D01*
X0097474Y0114942D01*
X0097882Y0115927D01*
X0097882Y0116994D01*
X0097825Y0117131D01*
X0098013Y0116944D01*
X0098998Y0116535D01*
X0100065Y0116535D01*
X0101050Y0116944D01*
X0101804Y0117698D01*
X0102213Y0118683D01*
X0102213Y0119750D01*
X0101804Y0120735D01*
X0101331Y0121208D01*
X0101331Y0123505D01*
X0098276Y0126561D01*
X0098276Y0127230D01*
X0097867Y0128216D01*
X0097113Y0128970D01*
X0096128Y0129378D01*
X0095061Y0129378D01*
X0094076Y0128970D01*
X0093742Y0128636D01*
X0093113Y0130154D01*
X0091650Y0131617D01*
X0089739Y0132409D01*
X0087670Y0132409D01*
X0085759Y0131617D01*
X0084296Y0130154D01*
X0083505Y0128243D01*
X0083505Y0126174D01*
X0084296Y0124263D01*
X0085759Y0122800D01*
X0087524Y0122069D01*
X0086790Y0121831D01*
X0086091Y0121474D01*
X0085456Y0121013D01*
X0084901Y0120458D01*
X0084439Y0119823D01*
X0084083Y0119123D01*
X0083840Y0118377D01*
X0083734Y0117709D01*
X0088205Y0117709D01*
X0088205Y0116709D01*
X0083734Y0116709D01*
X0083840Y0116041D01*
X0084083Y0115294D01*
X0084439Y0114595D01*
X0084901Y0113960D01*
X0085456Y0113404D01*
X0085684Y0113239D01*
X0084999Y0112554D01*
X0082305Y0109860D01*
X0082305Y0104558D01*
X0083359Y0103503D01*
X0084999Y0101863D01*
X0085502Y0101360D01*
X0084296Y0100154D01*
X0083505Y0098243D01*
X0083505Y0096174D01*
X0084296Y0094263D01*
X0085759Y0092800D01*
X0087188Y0092209D01*
X0085759Y0091617D01*
X0084296Y0090154D01*
X0083505Y0088243D01*
X0083505Y0086174D01*
X0084296Y0084263D01*
X0085759Y0082800D01*
X0087188Y0082209D01*
X0085759Y0081617D01*
X0084296Y0080154D01*
X0083505Y0078243D01*
X0083505Y0076174D01*
X0084296Y0074263D01*
X0085759Y0072800D01*
X0087188Y0072209D01*
X0085759Y0071617D01*
X0084296Y0070154D01*
X0083505Y0068243D01*
X0083505Y0066174D01*
X0084296Y0064263D01*
X0085759Y0062800D01*
X0087188Y0062209D01*
X0085759Y0061617D01*
X0084296Y0060154D01*
X0083505Y0058243D01*
X0083505Y0056174D01*
X0084296Y0054263D01*
X0085759Y0052800D01*
X0087188Y0052209D01*
X0085759Y0051617D01*
X0084296Y0050154D01*
X0083505Y0048243D01*
X0083505Y0046174D01*
X0084296Y0044263D01*
X0085759Y0042800D01*
X0087188Y0042209D01*
X0085759Y0041617D01*
X0084296Y0040154D01*
X0083505Y0038243D01*
X0083505Y0036174D01*
X0084296Y0034263D01*
X0085759Y0032800D01*
X0087188Y0032209D01*
X0085759Y0031617D01*
X0084296Y0030154D01*
X0083505Y0028243D01*
X0083505Y0026174D01*
X0084296Y0024263D01*
X0085759Y0022800D01*
X0087188Y0022209D01*
X0085759Y0021617D01*
X0084296Y0020154D01*
X0083505Y0018243D01*
X0083505Y0016174D01*
X0084296Y0014263D01*
X0085759Y0012800D01*
X0087670Y0012009D01*
X0089739Y0012009D01*
X0091650Y0012800D01*
X0093113Y0014263D01*
X0093905Y0016174D01*
X0093905Y0018243D01*
X0093637Y0018889D01*
X0097638Y0022132D01*
X0097638Y0021439D01*
X0098046Y0020454D01*
X0098800Y0019700D01*
X0099786Y0019291D01*
X0100852Y0019291D01*
X0101838Y0019700D01*
X0102311Y0020172D01*
X0112894Y0020172D01*
X0113367Y0019700D01*
X0114353Y0019291D01*
X0115419Y0019291D01*
X0116405Y0019700D01*
X0117159Y0020454D01*
X0117567Y0021439D01*
X0117567Y0022506D01*
X0117159Y0023491D01*
X0116405Y0024245D01*
X0115782Y0024503D01*
X0132186Y0024503D01*
X0132658Y0024030D01*
X0133644Y0023622D01*
X0134710Y0023622D01*
X0135696Y0024030D01*
X0136450Y0024784D01*
X0136858Y0025770D01*
X0136858Y0026836D01*
X0136450Y0027822D01*
X0135696Y0028576D01*
X0134710Y0028984D01*
X0133644Y0028984D01*
X0132658Y0028576D01*
X0132186Y0028103D01*
X0100019Y0028103D01*
X0099371Y0028171D01*
X0099287Y0028103D01*
X0099180Y0028103D01*
X0098719Y0027642D01*
X0098259Y0027270D01*
X0097867Y0028216D01*
X0097394Y0028688D01*
X0097394Y0033952D01*
X0127556Y0033952D01*
X0128348Y0033160D01*
X0139283Y0033160D01*
X0139857Y0033734D01*
X0139857Y0025142D01*
X0134835Y0020673D01*
X0133400Y0021267D01*
X0131332Y0021267D01*
X0129421Y0020475D01*
X0127958Y0019012D01*
X0127366Y0017584D01*
X0126774Y0019012D01*
X0125312Y0020475D01*
X0123400Y0021267D01*
X0121332Y0021267D01*
X0119421Y0020475D01*
X0117958Y0019012D01*
X0117166Y0017101D01*
X0117166Y0015033D01*
X0117958Y0013121D01*
X0119421Y0011659D01*
X0121332Y0010867D01*
X0123400Y0010867D01*
X0125312Y0011659D01*
X0126594Y0012941D01*
X0128705Y0010829D01*
X0129760Y0009775D01*
X0151690Y0009775D01*
X0152745Y0010829D01*
X0152745Y0010829D01*
X0167600Y0025684D01*
X0168654Y0026739D01*
X0168654Y0028597D01*
X0169746Y0027505D01*
X0172468Y0026378D01*
X0175414Y0026378D01*
X0178136Y0027505D01*
X0180219Y0029589D01*
X0181346Y0032310D01*
X0181346Y0035257D01*
X0180219Y0037978D01*
X0178711Y0039486D01*
X0179082Y0039857D01*
X0187679Y0039857D01*
X0199002Y0051181D01*
X0199671Y0051181D01*
X0200657Y0051589D01*
X0201411Y0052343D01*
X0201819Y0053329D01*
X0201819Y0054396D01*
X0201411Y0055381D01*
X0200657Y0056135D01*
X0199671Y0056543D01*
X0198604Y0056543D01*
X0197619Y0056135D01*
X0196865Y0055381D01*
X0196457Y0054396D01*
X0196457Y0053727D01*
X0186187Y0043457D01*
X0182288Y0043457D01*
X0182513Y0043682D01*
X0182921Y0044667D01*
X0182921Y0045734D01*
X0182513Y0046720D01*
X0181759Y0047474D01*
X0180773Y0047882D01*
X0179707Y0047882D01*
X0178721Y0047474D01*
X0178248Y0047001D01*
X0166109Y0047001D01*
X0165054Y0045946D01*
X0165054Y0028230D01*
X0164196Y0027371D01*
X0164009Y0027822D01*
X0163255Y0028576D01*
X0162270Y0028984D01*
X0161203Y0028984D01*
X0160217Y0028576D01*
X0159463Y0027822D01*
X0159072Y0026876D01*
X0158929Y0027089D01*
X0158585Y0027433D01*
X0158181Y0027703D01*
X0157732Y0027889D01*
X0157255Y0027984D01*
X0157012Y0027984D01*
X0157012Y0025516D01*
X0157012Y0025516D01*
X0157012Y0027984D01*
X0156769Y0027984D01*
X0156292Y0027889D01*
X0155843Y0027703D01*
X0155438Y0027433D01*
X0155094Y0027089D01*
X0154824Y0026685D01*
X0154638Y0026236D01*
X0154543Y0025759D01*
X0154543Y0025516D01*
X0157012Y0025516D01*
X0157012Y0025516D01*
X0154543Y0025516D01*
X0154543Y0025273D01*
X0154638Y0024796D01*
X0154824Y0024346D01*
X0155094Y0023942D01*
X0155438Y0023598D01*
X0155843Y0023328D01*
X0156106Y0023219D01*
X0151552Y0018664D01*
X0150769Y0018340D01*
X0150014Y0017586D01*
X0149606Y0016600D01*
X0149606Y0015534D01*
X0150014Y0014548D01*
X0150694Y0013869D01*
X0150199Y0013375D01*
X0146879Y0013375D01*
X0147566Y0015033D01*
X0147566Y0017101D01*
X0146774Y0019012D01*
X0145312Y0020475D01*
X0143400Y0021267D01*
X0141332Y0021267D01*
X0140557Y0020946D01*
X0142342Y0022535D01*
X0142403Y0022535D01*
X0142893Y0023025D01*
X0143411Y0023486D01*
X0143415Y0023546D01*
X0143457Y0023589D01*
X0143457Y0024282D01*
X0143498Y0024974D01*
X0143457Y0025020D01*
X0143457Y0047353D01*
X0145033Y0046700D01*
X0146943Y0046700D01*
X0148707Y0047431D01*
X0150057Y0048781D01*
X0150788Y0050545D01*
X0150788Y0052455D01*
X0150057Y0054219D01*
X0148707Y0055569D01*
X0146943Y0056300D01*
X0145033Y0056300D01*
X0143457Y0055647D01*
X0143457Y0061301D01*
X0143247Y0061511D01*
X0194784Y0061511D01*
X0195257Y0061038D01*
X0196242Y0060630D01*
X0197309Y0060630D01*
X0198294Y0061038D01*
X0199049Y0061792D01*
X0199457Y0062778D01*
X0199457Y0063844D01*
X0199049Y0064830D01*
X0198294Y0065584D01*
X0197309Y0065992D01*
X0196242Y0065992D01*
X0195257Y0065584D01*
X0194784Y0065111D01*
X0137744Y0065111D01*
X0137271Y0065584D01*
X0136285Y0065992D01*
X0135219Y0065992D01*
X0134970Y0065889D01*
X0137552Y0068471D01*
X0137552Y0069962D01*
X0136498Y0071017D01*
X0128708Y0078806D01*
X0129628Y0082179D01*
X0130296Y0081511D01*
X0131282Y0081102D01*
X0132348Y0081102D01*
X0133334Y0081511D01*
X0134088Y0082265D01*
X0134496Y0083250D01*
X0134496Y0084317D01*
X0134160Y0085127D01*
X0134469Y0086053D01*
X0134908Y0086235D01*
X0135663Y0086989D01*
X0136071Y0087975D01*
X0136071Y0089041D01*
X0135663Y0090027D01*
X0134908Y0090781D01*
X0133923Y0091189D01*
X0132856Y0091189D01*
X0131871Y0090781D01*
X0131117Y0090027D01*
X0130709Y0089041D01*
X0130709Y0088812D01*
X0130624Y0089825D01*
X0130938Y0090139D01*
X0131346Y0091124D01*
X0131346Y0092191D01*
X0131171Y0092613D01*
X0167619Y0092613D01*
X0168092Y0092140D01*
X0169077Y0091732D01*
X0170144Y0091732D01*
X0171129Y0092140D01*
X0171883Y0092895D01*
X0172291Y0093880D01*
X0172291Y0094947D01*
X0171883Y0095932D01*
X0171129Y0096686D01*
X0170144Y0097094D01*
X0169077Y0097094D01*
X0168092Y0096686D01*
X0167625Y0096220D01*
X0167961Y0097030D01*
X0167961Y0098096D01*
X0167552Y0099082D01*
X0166798Y0099836D01*
X0165813Y0100244D01*
X0164746Y0100244D01*
X0163761Y0099836D01*
X0163254Y0099329D01*
X0124260Y0098662D01*
X0124260Y0099671D01*
X0123852Y0100657D01*
X0123097Y0101411D01*
X0122112Y0101819D01*
X0121511Y0101819D01*
X0115505Y0108126D01*
X0115505Y0108900D01*
X0115729Y0108676D01*
X0116715Y0108268D01*
X0117781Y0108268D01*
X0118767Y0108676D01*
X0119521Y0109430D01*
X0119929Y0110416D01*
X0119929Y0111482D01*
X0119521Y0112468D01*
X0119048Y0112940D01*
X0119048Y0128248D01*
X0119521Y0128721D01*
X0119929Y0129707D01*
X0119929Y0130773D01*
X0119521Y0131759D01*
X0118767Y0132513D01*
X0117781Y0132921D01*
X0116771Y0132921D01*
X0118113Y0134263D01*
X0118705Y0135691D01*
X0119296Y0134263D01*
X0120759Y0132800D01*
X0122670Y0132009D01*
X0124739Y0132009D01*
X0126650Y0132800D01*
X0128113Y0134263D01*
X0128844Y0136028D01*
X0129083Y0135294D01*
X0129439Y0134595D01*
X0129901Y0133960D01*
X0130456Y0133404D01*
X0131091Y0132943D01*
X0131790Y0132587D01*
X0132537Y0132344D01*
X0133205Y0132238D01*
X0133205Y0136709D01*
X0134205Y0136709D01*
X0134205Y0137709D01*
X0133205Y0137709D01*
X0133205Y0142179D01*
X0132537Y0142073D01*
X0131790Y0141831D01*
X0131091Y0141474D01*
X0130456Y0141013D01*
X0129901Y0140458D01*
X0129439Y0139823D01*
X0129083Y0139123D01*
X0128844Y0138389D01*
X0128113Y0140154D01*
X0126650Y0141617D01*
X0124739Y0142409D01*
X0122670Y0142409D01*
X0120759Y0141617D01*
X0119296Y0140154D01*
X0118705Y0138726D01*
X0118113Y0140154D01*
X0116650Y0141617D01*
X0114739Y0142409D01*
X0112670Y0142409D01*
X0110759Y0141617D01*
X0109296Y0140154D01*
X0108705Y0138726D01*
X0108113Y0140154D01*
X0106650Y0141617D01*
X0104739Y0142409D01*
X0102670Y0142409D01*
X0100759Y0141617D01*
X0099296Y0140154D01*
X0098705Y0138726D01*
X0098113Y0140154D01*
X0096650Y0141617D01*
X0094739Y0142409D01*
X0092670Y0142409D01*
X0090759Y0141617D01*
X0089857Y0140715D02*
X0042566Y0140715D01*
X0042733Y0139717D02*
X0089115Y0139717D01*
X0088702Y0138718D02*
X0042733Y0138718D01*
X0042615Y0137720D02*
X0088505Y0137720D01*
X0088505Y0136721D02*
X0042202Y0136721D01*
X0041701Y0135723D02*
X0088692Y0135723D01*
X0089105Y0134724D02*
X0040702Y0134724D01*
X0038976Y0133726D02*
X0089834Y0133726D01*
X0090936Y0132727D02*
X0003300Y0132727D01*
X0003300Y0131729D02*
X0086029Y0131729D01*
X0084872Y0130730D02*
X0003300Y0130730D01*
X0003300Y0129732D02*
X0084121Y0129732D01*
X0083708Y0128733D02*
X0003300Y0128733D01*
X0003300Y0127735D02*
X0083505Y0127735D01*
X0083505Y0126736D02*
X0003300Y0126736D01*
X0003300Y0125738D02*
X0083686Y0125738D01*
X0084099Y0124739D02*
X0003300Y0124739D01*
X0003300Y0123741D02*
X0084819Y0123741D01*
X0085900Y0122742D02*
X0003300Y0122742D01*
X0003300Y0121744D02*
X0086619Y0121744D01*
X0085188Y0120745D02*
X0003300Y0120745D01*
X0003300Y0119747D02*
X0084400Y0119747D01*
X0083961Y0118748D02*
X0003300Y0118748D01*
X0003300Y0117750D02*
X0083741Y0117750D01*
X0083934Y0115753D02*
X0041657Y0115753D01*
X0041128Y0116282D02*
X0038406Y0117409D01*
X0035460Y0117409D01*
X0032738Y0116282D01*
X0030655Y0114199D01*
X0029528Y0111477D01*
X0029528Y0108531D01*
X0030655Y0105809D01*
X0032738Y0103726D01*
X0035460Y0102598D01*
X0038406Y0102598D01*
X0041128Y0103726D01*
X0043211Y0105809D01*
X0044339Y0108531D01*
X0044339Y0111477D01*
X0043211Y0114199D01*
X0041128Y0116282D01*
X0039996Y0116751D02*
X0088205Y0116751D01*
X0085105Y0113755D02*
X0043395Y0113755D01*
X0043808Y0112757D02*
X0085202Y0112757D01*
X0084204Y0111758D02*
X0044222Y0111758D01*
X0044339Y0110760D02*
X0083205Y0110760D01*
X0082305Y0109761D02*
X0044339Y0109761D01*
X0044339Y0108763D02*
X0082305Y0108763D01*
X0082305Y0107764D02*
X0044021Y0107764D01*
X0043607Y0106766D02*
X0082305Y0106766D01*
X0082305Y0105767D02*
X0043170Y0105767D01*
X0042171Y0104769D02*
X0082305Y0104769D01*
X0083092Y0103770D02*
X0041172Y0103770D01*
X0038825Y0102772D02*
X0084091Y0102772D01*
X0085089Y0101773D02*
X0003300Y0101773D01*
X0003300Y0100775D02*
X0084917Y0100775D01*
X0084140Y0099776D02*
X0003300Y0099776D01*
X0003300Y0098778D02*
X0083726Y0098778D01*
X0083505Y0097779D02*
X0003300Y0097779D01*
X0003300Y0096781D02*
X0083505Y0096781D01*
X0083667Y0095782D02*
X0003300Y0095782D01*
X0003300Y0094784D02*
X0084081Y0094784D01*
X0084774Y0093785D02*
X0003300Y0093785D01*
X0003300Y0092787D02*
X0085792Y0092787D01*
X0086173Y0091788D02*
X0003300Y0091788D01*
X0003300Y0090790D02*
X0084932Y0090790D01*
X0084146Y0089791D02*
X0003300Y0089791D01*
X0003300Y0088793D02*
X0083732Y0088793D01*
X0083505Y0087794D02*
X0003300Y0087794D01*
X0003300Y0086796D02*
X0083505Y0086796D01*
X0083661Y0085797D02*
X0003300Y0085797D01*
X0003300Y0084799D02*
X0084075Y0084799D01*
X0084759Y0083800D02*
X0003300Y0083800D01*
X0003300Y0082802D02*
X0085758Y0082802D01*
X0086209Y0081803D02*
X0003300Y0081803D01*
X0003300Y0080805D02*
X0084947Y0080805D01*
X0084152Y0079806D02*
X0003300Y0079806D01*
X0003300Y0078808D02*
X0083739Y0078808D01*
X0083505Y0077809D02*
X0003300Y0077809D01*
X0003300Y0076811D02*
X0083505Y0076811D01*
X0083655Y0075812D02*
X0003300Y0075812D01*
X0003300Y0074814D02*
X0084068Y0074814D01*
X0084744Y0073815D02*
X0003300Y0073815D01*
X0003300Y0072817D02*
X0085743Y0072817D01*
X0086244Y0071818D02*
X0003300Y0071818D01*
X0003300Y0070820D02*
X0084962Y0070820D01*
X0084158Y0069821D02*
X0003300Y0069821D01*
X0003300Y0068822D02*
X0083745Y0068822D01*
X0083505Y0067824D02*
X0003300Y0067824D01*
X0003300Y0066825D02*
X0083505Y0066825D01*
X0083649Y0065827D02*
X0003300Y0065827D01*
X0003300Y0064828D02*
X0084062Y0064828D01*
X0084730Y0063830D02*
X0003300Y0063830D01*
X0003300Y0062831D02*
X0085728Y0062831D01*
X0086280Y0061833D02*
X0003300Y0061833D01*
X0003300Y0060834D02*
X0084977Y0060834D01*
X0084165Y0059836D02*
X0003300Y0059836D01*
X0003300Y0058837D02*
X0083751Y0058837D01*
X0083505Y0057839D02*
X0003300Y0057839D01*
X0003300Y0056840D02*
X0083505Y0056840D01*
X0083642Y0055842D02*
X0003300Y0055842D01*
X0003300Y0054843D02*
X0084056Y0054843D01*
X0084715Y0053845D02*
X0003300Y0053845D01*
X0003300Y0052846D02*
X0085713Y0052846D01*
X0086316Y0051848D02*
X0003300Y0051848D01*
X0003300Y0050849D02*
X0084991Y0050849D01*
X0084171Y0049851D02*
X0003300Y0049851D01*
X0003300Y0048852D02*
X0034571Y0048852D01*
X0035460Y0049220D02*
X0032738Y0048093D01*
X0030655Y0046010D01*
X0029528Y0043288D01*
X0029528Y0040342D01*
X0030655Y0037620D01*
X0032738Y0035537D01*
X0035460Y0034409D01*
X0038406Y0034409D01*
X0041128Y0035537D01*
X0043211Y0037620D01*
X0044339Y0040342D01*
X0044339Y0043288D01*
X0043211Y0046010D01*
X0041128Y0048093D01*
X0038406Y0049220D01*
X0035460Y0049220D01*
X0032499Y0047854D02*
X0003300Y0047854D01*
X0003300Y0046855D02*
X0031500Y0046855D01*
X0030592Y0045857D02*
X0003300Y0045857D01*
X0003300Y0044858D02*
X0030178Y0044858D01*
X0029764Y0043860D02*
X0003300Y0043860D01*
X0003300Y0042861D02*
X0029528Y0042861D01*
X0029528Y0041863D02*
X0003300Y0041863D01*
X0003300Y0040864D02*
X0029528Y0040864D01*
X0029725Y0039866D02*
X0003300Y0039866D01*
X0003300Y0038867D02*
X0030138Y0038867D01*
X0030552Y0037869D02*
X0003300Y0037869D01*
X0003300Y0036870D02*
X0031405Y0036870D01*
X0032403Y0035872D02*
X0003300Y0035872D01*
X0003300Y0034873D02*
X0034341Y0034873D01*
X0039525Y0034873D02*
X0084044Y0034873D01*
X0083630Y0035872D02*
X0041463Y0035872D01*
X0042461Y0036870D02*
X0083505Y0036870D01*
X0083505Y0037869D02*
X0043314Y0037869D01*
X0043728Y0038867D02*
X0083763Y0038867D01*
X0084177Y0039866D02*
X0044141Y0039866D01*
X0044339Y0040864D02*
X0085006Y0040864D01*
X0086352Y0041863D02*
X0044339Y0041863D01*
X0044339Y0042861D02*
X0085698Y0042861D01*
X0084700Y0043860D02*
X0044102Y0043860D01*
X0043688Y0044858D02*
X0084050Y0044858D01*
X0083636Y0045857D02*
X0043275Y0045857D01*
X0042366Y0046855D02*
X0083505Y0046855D01*
X0083505Y0047854D02*
X0041367Y0047854D01*
X0039295Y0048852D02*
X0083757Y0048852D01*
X0100005Y0037552D02*
X0100623Y0038170D01*
X0101031Y0039156D01*
X0101031Y0039824D01*
X0118823Y0057616D01*
X0119779Y0056660D01*
X0119779Y0049161D01*
X0119306Y0048688D01*
X0119259Y0048576D01*
X0114909Y0048576D01*
X0114436Y0049049D01*
X0113451Y0049457D01*
X0112384Y0049457D01*
X0111399Y0049049D01*
X0110644Y0048294D01*
X0110236Y0047309D01*
X0110236Y0046242D01*
X0110644Y0045257D01*
X0111245Y0044657D01*
X0111000Y0044412D01*
X0110730Y0044008D01*
X0110544Y0043559D01*
X0110449Y0043082D01*
X0110449Y0042839D01*
X0112917Y0042839D01*
X0112917Y0042839D01*
X0110449Y0042839D01*
X0110449Y0042595D01*
X0110494Y0042370D01*
X0110416Y0042370D01*
X0109430Y0041962D01*
X0108676Y0041208D01*
X0108268Y0040222D01*
X0108268Y0039156D01*
X0108676Y0038170D01*
X0109294Y0037552D01*
X0100005Y0037552D01*
X0100322Y0037869D02*
X0108978Y0037869D01*
X0108387Y0038867D02*
X0100912Y0038867D01*
X0101073Y0039866D02*
X0108268Y0039866D01*
X0108534Y0040864D02*
X0102071Y0040864D01*
X0103070Y0041863D02*
X0109331Y0041863D01*
X0110449Y0042861D02*
X0104068Y0042861D01*
X0105067Y0043860D02*
X0110668Y0043860D01*
X0111043Y0044858D02*
X0106065Y0044858D01*
X0107064Y0045857D02*
X0110396Y0045857D01*
X0110236Y0046855D02*
X0108062Y0046855D01*
X0109061Y0047854D02*
X0110462Y0047854D01*
X0110059Y0048852D02*
X0111202Y0048852D01*
X0111058Y0049851D02*
X0119779Y0049851D01*
X0119779Y0050849D02*
X0112056Y0050849D01*
X0113055Y0051848D02*
X0119779Y0051848D01*
X0119779Y0052846D02*
X0114053Y0052846D01*
X0115052Y0053845D02*
X0119779Y0053845D01*
X0119779Y0054843D02*
X0116050Y0054843D01*
X0117049Y0055842D02*
X0119779Y0055842D01*
X0119598Y0056840D02*
X0118047Y0056840D01*
X0119470Y0048852D02*
X0114632Y0048852D01*
X0114909Y0044976D02*
X0117578Y0044976D01*
X0117249Y0044756D01*
X0116905Y0044412D01*
X0116635Y0044008D01*
X0116449Y0043559D01*
X0116354Y0043082D01*
X0116354Y0042839D01*
X0118823Y0042839D01*
X0118823Y0042839D01*
X0116354Y0042839D01*
X0116354Y0042665D01*
X0115386Y0042665D01*
X0115386Y0042839D01*
X0115386Y0043082D01*
X0115291Y0043559D01*
X0115105Y0044008D01*
X0114835Y0044412D01*
X0114590Y0044657D01*
X0114909Y0044976D01*
X0114792Y0044858D02*
X0117402Y0044858D01*
X0116574Y0043860D02*
X0115166Y0043860D01*
X0115386Y0042861D02*
X0116354Y0042861D01*
X0115386Y0042839D02*
X0112917Y0042839D01*
X0112917Y0042839D01*
X0115386Y0042839D01*
X0127634Y0033875D02*
X0097394Y0033875D01*
X0097394Y0032876D02*
X0139857Y0032876D01*
X0139857Y0031878D02*
X0097394Y0031878D01*
X0097394Y0030879D02*
X0139857Y0030879D01*
X0139857Y0029881D02*
X0097394Y0029881D01*
X0097394Y0028882D02*
X0133397Y0028882D01*
X0134957Y0028882D02*
X0139857Y0028882D01*
X0139857Y0027884D02*
X0136388Y0027884D01*
X0136838Y0026885D02*
X0139857Y0026885D01*
X0139857Y0025886D02*
X0136858Y0025886D01*
X0136493Y0024888D02*
X0139572Y0024888D01*
X0138449Y0023889D02*
X0135356Y0023889D01*
X0136205Y0021892D02*
X0117567Y0021892D01*
X0117407Y0022891D02*
X0137327Y0022891D01*
X0135083Y0020894D02*
X0134301Y0020894D01*
X0132998Y0023889D02*
X0116760Y0023889D01*
X0117341Y0020894D02*
X0120431Y0020894D01*
X0118841Y0019895D02*
X0116600Y0019895D01*
X0117910Y0018897D02*
X0093646Y0018897D01*
X0093905Y0017898D02*
X0117496Y0017898D01*
X0117166Y0016900D02*
X0093905Y0016900D01*
X0093792Y0015901D02*
X0117166Y0015901D01*
X0117220Y0014903D02*
X0093378Y0014903D01*
X0092754Y0013904D02*
X0117633Y0013904D01*
X0118173Y0012906D02*
X0091756Y0012906D01*
X0085654Y0012906D02*
X0037433Y0012906D01*
X0037433Y0013161D02*
X0042511Y0013161D01*
X0042383Y0013970D01*
X0042111Y0014806D01*
X0041712Y0015590D01*
X0041195Y0016301D01*
X0040573Y0016923D01*
X0039862Y0017440D01*
X0039078Y0017839D01*
X0038241Y0018111D01*
X0037433Y0018239D01*
X0037433Y0013161D01*
X0037433Y0012161D01*
X0037433Y0007084D01*
X0038241Y0007212D01*
X0039078Y0007483D01*
X0039862Y0007883D01*
X0040573Y0008400D01*
X0041195Y0009021D01*
X0041712Y0009733D01*
X0042111Y0010517D01*
X0042383Y0011353D01*
X0042511Y0012161D01*
X0037433Y0012161D01*
X0036433Y0012161D01*
X0036433Y0007084D01*
X0035625Y0007212D01*
X0034788Y0007483D01*
X0034005Y0007883D01*
X0033293Y0008400D01*
X0032671Y0009021D01*
X0032154Y0009733D01*
X0031755Y0010517D01*
X0031483Y0011353D01*
X0031355Y0012161D01*
X0036433Y0012161D01*
X0036433Y0013161D01*
X0031355Y0013161D01*
X0031483Y0013970D01*
X0031755Y0014806D01*
X0032154Y0015590D01*
X0032671Y0016301D01*
X0033293Y0016923D01*
X0034005Y0017440D01*
X0034788Y0017839D01*
X0035625Y0018111D01*
X0036433Y0018239D01*
X0036433Y0013161D01*
X0037433Y0013161D01*
X0037433Y0013904D02*
X0036433Y0013904D01*
X0036433Y0012906D02*
X0003300Y0012906D01*
X0003300Y0013904D02*
X0031473Y0013904D01*
X0031804Y0014903D02*
X0003300Y0014903D01*
X0003300Y0015901D02*
X0032381Y0015901D01*
X0033270Y0016900D02*
X0003300Y0016900D01*
X0003300Y0017898D02*
X0034970Y0017898D01*
X0036433Y0017898D02*
X0037433Y0017898D01*
X0037433Y0016900D02*
X0036433Y0016900D01*
X0036433Y0015901D02*
X0037433Y0015901D01*
X0037433Y0014903D02*
X0036433Y0014903D01*
X0036433Y0011907D02*
X0037433Y0011907D01*
X0037433Y0010909D02*
X0036433Y0010909D01*
X0036433Y0009910D02*
X0037433Y0009910D01*
X0037433Y0008912D02*
X0036433Y0008912D01*
X0036433Y0007913D02*
X0037433Y0007913D01*
X0039904Y0007913D02*
X0277259Y0007913D01*
X0277259Y0006915D02*
X0003300Y0006915D01*
X0003300Y0007913D02*
X0033962Y0007913D01*
X0032781Y0008912D02*
X0003300Y0008912D01*
X0003300Y0009910D02*
X0032064Y0009910D01*
X0031628Y0010909D02*
X0003300Y0010909D01*
X0003300Y0011907D02*
X0031395Y0011907D01*
X0041085Y0008912D02*
X0277259Y0008912D01*
X0277259Y0009910D02*
X0151826Y0009910D01*
X0152824Y0010909D02*
X0277259Y0010909D01*
X0277259Y0011907D02*
X0153823Y0011907D01*
X0154821Y0012906D02*
X0277259Y0012906D01*
X0277259Y0013904D02*
X0155820Y0013904D01*
X0156819Y0014903D02*
X0277259Y0014903D01*
X0277259Y0015901D02*
X0157817Y0015901D01*
X0158816Y0016900D02*
X0277259Y0016900D01*
X0277259Y0017898D02*
X0159814Y0017898D01*
X0160813Y0018897D02*
X0217285Y0018897D01*
X0217285Y0018906D02*
X0217285Y0018512D01*
X0217725Y0018073D01*
X0237244Y0018073D01*
X0237683Y0018512D01*
X0237683Y0034488D01*
X0237244Y0034927D01*
X0217725Y0034927D01*
X0217285Y0034488D01*
X0217285Y0018906D01*
X0217285Y0019895D02*
X0161811Y0019895D01*
X0162810Y0020894D02*
X0217285Y0020894D01*
X0217285Y0021892D02*
X0163808Y0021892D01*
X0164807Y0022891D02*
X0217285Y0022891D01*
X0217285Y0023889D02*
X0165805Y0023889D01*
X0166804Y0024888D02*
X0217285Y0024888D01*
X0217285Y0025886D02*
X0167802Y0025886D01*
X0167600Y0025684D02*
X0167600Y0025684D01*
X0168654Y0026885D02*
X0171244Y0026885D01*
X0169368Y0027884D02*
X0168654Y0027884D01*
X0165054Y0028882D02*
X0162516Y0028882D01*
X0160956Y0028882D02*
X0143457Y0028882D01*
X0143457Y0027884D02*
X0145648Y0027884D01*
X0145662Y0027889D02*
X0145213Y0027703D01*
X0144808Y0027433D01*
X0144464Y0027089D01*
X0144194Y0026685D01*
X0144008Y0026236D01*
X0143913Y0025759D01*
X0143913Y0025516D01*
X0146382Y0025516D01*
X0146382Y0025516D01*
X0146382Y0027984D01*
X0146625Y0027984D01*
X0147102Y0027889D01*
X0147551Y0027703D01*
X0147955Y0027433D01*
X0148299Y0027089D01*
X0148569Y0026685D01*
X0148756Y0026236D01*
X0148850Y0025759D01*
X0148850Y0025516D01*
X0146382Y0025516D01*
X0146382Y0025516D01*
X0146382Y0027984D01*
X0146139Y0027984D01*
X0145662Y0027889D01*
X0146382Y0027884D02*
X0146382Y0027884D01*
X0147116Y0027884D02*
X0156278Y0027884D01*
X0157012Y0027884D02*
X0157012Y0027884D01*
X0157746Y0027884D02*
X0159525Y0027884D01*
X0159075Y0026885D02*
X0159066Y0026885D01*
X0157012Y0026885D02*
X0157012Y0026885D01*
X0157012Y0025886D02*
X0157012Y0025886D01*
X0154958Y0026885D02*
X0148436Y0026885D01*
X0148825Y0025886D02*
X0154569Y0025886D01*
X0154620Y0024888D02*
X0148774Y0024888D01*
X0148756Y0024796D02*
X0148850Y0025273D01*
X0148850Y0025516D01*
X0146382Y0025516D01*
X0146382Y0025516D01*
X0146382Y0023047D01*
X0146625Y0023047D01*
X0147102Y0023142D01*
X0147551Y0023328D01*
X0147955Y0023598D01*
X0148299Y0023942D01*
X0148569Y0024346D01*
X0148756Y0024796D01*
X0148247Y0023889D02*
X0155147Y0023889D01*
X0155778Y0022891D02*
X0142759Y0022891D01*
X0143457Y0023889D02*
X0144517Y0023889D01*
X0144464Y0023942D02*
X0144808Y0023598D01*
X0145213Y0023328D01*
X0145662Y0023142D01*
X0146139Y0023047D01*
X0146382Y0023047D01*
X0146382Y0025516D01*
X0146382Y0025516D01*
X0143913Y0025516D01*
X0143913Y0025273D01*
X0144008Y0024796D01*
X0144194Y0024346D01*
X0144464Y0023942D01*
X0143990Y0024888D02*
X0143493Y0024888D01*
X0143457Y0025886D02*
X0143939Y0025886D01*
X0144328Y0026885D02*
X0143457Y0026885D01*
X0146382Y0026885D02*
X0146382Y0026885D01*
X0146382Y0025886D02*
X0146382Y0025886D01*
X0146382Y0024888D02*
X0146382Y0024888D01*
X0146382Y0023889D02*
X0146382Y0023889D01*
X0144301Y0020894D02*
X0153781Y0020894D01*
X0152783Y0019895D02*
X0145892Y0019895D01*
X0146822Y0018897D02*
X0151784Y0018897D01*
X0150327Y0017898D02*
X0147236Y0017898D01*
X0147566Y0016900D02*
X0149730Y0016900D01*
X0149606Y0015901D02*
X0147566Y0015901D01*
X0147512Y0014903D02*
X0149868Y0014903D01*
X0150658Y0013904D02*
X0147099Y0013904D01*
X0141621Y0021892D02*
X0154780Y0021892D01*
X0163947Y0027884D02*
X0164708Y0027884D01*
X0165054Y0029881D02*
X0143457Y0029881D01*
X0143457Y0030879D02*
X0165054Y0030879D01*
X0165054Y0031878D02*
X0143457Y0031878D01*
X0143457Y0032876D02*
X0165054Y0032876D01*
X0165054Y0033875D02*
X0143457Y0033875D01*
X0143457Y0034873D02*
X0165054Y0034873D01*
X0165054Y0035872D02*
X0143457Y0035872D01*
X0143457Y0036870D02*
X0165054Y0036870D01*
X0165054Y0037869D02*
X0143457Y0037869D01*
X0143457Y0038867D02*
X0145777Y0038867D01*
X0145662Y0038890D02*
X0146139Y0038795D01*
X0146382Y0038795D01*
X0146625Y0038795D01*
X0147102Y0038890D01*
X0147551Y0039076D01*
X0147955Y0039346D01*
X0148299Y0039690D01*
X0148569Y0040095D01*
X0148756Y0040544D01*
X0148850Y0041021D01*
X0148850Y0041264D01*
X0148850Y0041507D01*
X0148756Y0041984D01*
X0148569Y0042433D01*
X0148299Y0042837D01*
X0147955Y0043181D01*
X0147551Y0043451D01*
X0147102Y0043637D01*
X0146625Y0043732D01*
X0146382Y0043732D01*
X0146382Y0041264D01*
X0146382Y0041264D01*
X0148850Y0041264D01*
X0146382Y0041264D01*
X0146382Y0041264D01*
X0146382Y0043732D01*
X0146139Y0043732D01*
X0145662Y0043637D01*
X0145213Y0043451D01*
X0144808Y0043181D01*
X0144464Y0042837D01*
X0144194Y0042433D01*
X0144008Y0041984D01*
X0143913Y0041507D01*
X0143913Y0041264D01*
X0146382Y0041264D01*
X0146382Y0041264D01*
X0146382Y0038795D01*
X0146382Y0041264D01*
X0146382Y0041264D01*
X0143913Y0041264D01*
X0143913Y0041021D01*
X0144008Y0040544D01*
X0144194Y0040095D01*
X0144464Y0039690D01*
X0144808Y0039346D01*
X0145213Y0039076D01*
X0145662Y0038890D01*
X0146382Y0038867D02*
X0146382Y0038867D01*
X0146986Y0038867D02*
X0165054Y0038867D01*
X0165054Y0039866D02*
X0148417Y0039866D01*
X0148819Y0040864D02*
X0165054Y0040864D01*
X0165054Y0041863D02*
X0148780Y0041863D01*
X0148275Y0042861D02*
X0165054Y0042861D01*
X0165054Y0043860D02*
X0143457Y0043860D01*
X0143457Y0044858D02*
X0165054Y0044858D01*
X0165054Y0045857D02*
X0143457Y0045857D01*
X0143457Y0046855D02*
X0144659Y0046855D01*
X0147318Y0046855D02*
X0160407Y0046855D01*
X0160781Y0046700D02*
X0162691Y0046700D01*
X0164455Y0047431D01*
X0165805Y0048781D01*
X0166536Y0050545D01*
X0166536Y0052455D01*
X0165805Y0054219D01*
X0164455Y0055569D01*
X0162691Y0056300D01*
X0160781Y0056300D01*
X0159017Y0055569D01*
X0157667Y0054219D01*
X0156936Y0052455D01*
X0156936Y0050545D01*
X0157667Y0048781D01*
X0159017Y0047431D01*
X0160781Y0046700D01*
X0163066Y0046855D02*
X0165963Y0046855D01*
X0164878Y0047854D02*
X0179639Y0047854D01*
X0180841Y0047854D02*
X0190584Y0047854D01*
X0191582Y0048852D02*
X0165835Y0048852D01*
X0166249Y0049851D02*
X0192581Y0049851D01*
X0193579Y0050849D02*
X0166536Y0050849D01*
X0166536Y0051848D02*
X0194578Y0051848D01*
X0195576Y0052846D02*
X0166374Y0052846D01*
X0165960Y0053845D02*
X0196457Y0053845D01*
X0196642Y0054843D02*
X0165181Y0054843D01*
X0163797Y0055842D02*
X0197326Y0055842D01*
X0200950Y0055842D02*
X0277259Y0055842D01*
X0277259Y0056840D02*
X0143457Y0056840D01*
X0143457Y0055842D02*
X0143927Y0055842D01*
X0143457Y0057839D02*
X0277259Y0057839D01*
X0277259Y0058837D02*
X0143457Y0058837D01*
X0143457Y0059836D02*
X0277259Y0059836D01*
X0277259Y0060834D02*
X0197803Y0060834D01*
X0199065Y0061833D02*
X0201155Y0061833D01*
X0201162Y0061825D02*
X0202148Y0061417D01*
X0203214Y0061417D01*
X0204200Y0061825D01*
X0204954Y0062580D01*
X0205362Y0063565D01*
X0205362Y0064632D01*
X0204954Y0065617D01*
X0204200Y0066371D01*
X0203214Y0066780D01*
X0202546Y0066780D01*
X0178497Y0090828D01*
X0178497Y0117994D01*
X0177442Y0119048D01*
X0142074Y0119048D01*
X0141601Y0119521D01*
X0140616Y0119929D01*
X0139549Y0119929D01*
X0138564Y0119521D01*
X0137810Y0118767D01*
X0137402Y0117781D01*
X0137402Y0116715D01*
X0137740Y0115898D01*
X0135365Y0115898D01*
X0129042Y0109575D01*
X0127016Y0111601D01*
X0127016Y0112270D01*
X0126608Y0113255D01*
X0125853Y0114009D01*
X0124868Y0114417D01*
X0123801Y0114417D01*
X0122816Y0114009D01*
X0122062Y0113255D01*
X0121654Y0112270D01*
X0121654Y0111203D01*
X0122062Y0110217D01*
X0122816Y0109463D01*
X0123801Y0109055D01*
X0124470Y0109055D01*
X0130399Y0103126D01*
X0130723Y0102343D01*
X0131477Y0101589D01*
X0132463Y0101181D01*
X0133529Y0101181D01*
X0134515Y0101589D01*
X0135269Y0102343D01*
X0135677Y0103329D01*
X0135677Y0104396D01*
X0135269Y0105381D01*
X0134651Y0105999D01*
X0156595Y0105999D01*
X0157068Y0105526D01*
X0158053Y0105118D01*
X0159120Y0105118D01*
X0160105Y0105526D01*
X0160860Y0106280D01*
X0161268Y0107266D01*
X0161268Y0108333D01*
X0160860Y0109318D01*
X0160105Y0110072D01*
X0159120Y0110480D01*
X0158053Y0110480D01*
X0157068Y0110072D01*
X0156595Y0109599D01*
X0134594Y0109599D01*
X0134376Y0109818D01*
X0136857Y0112298D01*
X0156595Y0112298D01*
X0157068Y0111825D01*
X0158053Y0111417D01*
X0159120Y0111417D01*
X0160105Y0111825D01*
X0160860Y0112580D01*
X0161268Y0113565D01*
X0161268Y0114632D01*
X0160930Y0115448D01*
X0174897Y0115448D01*
X0174897Y0089337D01*
X0200000Y0064234D01*
X0200000Y0063565D01*
X0200408Y0062580D01*
X0201162Y0061825D01*
X0200304Y0062831D02*
X0199457Y0062831D01*
X0199457Y0063830D02*
X0200000Y0063830D01*
X0199405Y0064828D02*
X0199049Y0064828D01*
X0198407Y0065827D02*
X0197708Y0065827D01*
X0197408Y0066825D02*
X0135906Y0066825D01*
X0136684Y0065827D02*
X0195844Y0065827D01*
X0196410Y0067824D02*
X0136905Y0067824D01*
X0137552Y0068822D02*
X0195411Y0068822D01*
X0194413Y0069821D02*
X0137552Y0069821D01*
X0136695Y0070820D02*
X0193414Y0070820D01*
X0192416Y0071818D02*
X0135696Y0071818D01*
X0136202Y0072849D02*
X0137187Y0072441D01*
X0138254Y0072441D01*
X0139239Y0072849D01*
X0139993Y0073603D01*
X0140402Y0074589D01*
X0140402Y0075258D01*
X0142797Y0077653D01*
X0156595Y0077653D01*
X0157068Y0077180D01*
X0158053Y0076772D01*
X0159120Y0076772D01*
X0160105Y0077180D01*
X0160860Y0077934D01*
X0161268Y0078919D01*
X0161268Y0079986D01*
X0160860Y0080971D01*
X0160105Y0081726D01*
X0159120Y0082134D01*
X0158053Y0082134D01*
X0157068Y0081726D01*
X0156595Y0081253D01*
X0141306Y0081253D01*
X0137856Y0077803D01*
X0137187Y0077803D01*
X0136202Y0077395D01*
X0135448Y0076641D01*
X0135039Y0075655D01*
X0135039Y0074589D01*
X0135448Y0073603D01*
X0136202Y0072849D01*
X0136280Y0072817D02*
X0134698Y0072817D01*
X0135360Y0073815D02*
X0133699Y0073815D01*
X0132701Y0074814D02*
X0135039Y0074814D01*
X0135104Y0075812D02*
X0131702Y0075812D01*
X0130704Y0076811D02*
X0135617Y0076811D01*
X0137862Y0077809D02*
X0129705Y0077809D01*
X0128709Y0078808D02*
X0138860Y0078808D01*
X0139859Y0079806D02*
X0128981Y0079806D01*
X0129253Y0080805D02*
X0140857Y0080805D01*
X0141955Y0076811D02*
X0157959Y0076811D01*
X0159214Y0076811D02*
X0187423Y0076811D01*
X0186425Y0077809D02*
X0160735Y0077809D01*
X0161221Y0078808D02*
X0185426Y0078808D01*
X0184428Y0079806D02*
X0161268Y0079806D01*
X0160929Y0080805D02*
X0183429Y0080805D01*
X0182431Y0081803D02*
X0159918Y0081803D01*
X0157255Y0081803D02*
X0133626Y0081803D01*
X0134310Y0082802D02*
X0181432Y0082802D01*
X0180434Y0083800D02*
X0134496Y0083800D01*
X0134296Y0084799D02*
X0179435Y0084799D01*
X0178437Y0085797D02*
X0134384Y0085797D01*
X0135469Y0086796D02*
X0177438Y0086796D01*
X0176440Y0087794D02*
X0135996Y0087794D01*
X0136071Y0088793D02*
X0175441Y0088793D01*
X0174897Y0089791D02*
X0135760Y0089791D01*
X0134887Y0090790D02*
X0174897Y0090790D01*
X0174897Y0091788D02*
X0170279Y0091788D01*
X0168942Y0091788D02*
X0131346Y0091788D01*
X0131208Y0090790D02*
X0131893Y0090790D01*
X0131019Y0089791D02*
X0130627Y0089791D01*
X0130004Y0081803D02*
X0129526Y0081803D01*
X0140956Y0075812D02*
X0188422Y0075812D01*
X0189420Y0074814D02*
X0140402Y0074814D01*
X0140081Y0073815D02*
X0190419Y0073815D01*
X0191417Y0072817D02*
X0139160Y0072817D01*
X0143457Y0060834D02*
X0195749Y0060834D01*
X0204207Y0061833D02*
X0277259Y0061833D01*
X0277259Y0062831D02*
X0205058Y0062831D01*
X0205362Y0063830D02*
X0277259Y0063830D01*
X0277259Y0064828D02*
X0205281Y0064828D01*
X0204744Y0065827D02*
X0277259Y0065827D01*
X0277259Y0066825D02*
X0202500Y0066825D01*
X0201501Y0067824D02*
X0277259Y0067824D01*
X0277259Y0068822D02*
X0200503Y0068822D01*
X0199504Y0069821D02*
X0277259Y0069821D01*
X0277259Y0070820D02*
X0198506Y0070820D01*
X0197507Y0071818D02*
X0277259Y0071818D01*
X0277259Y0072817D02*
X0196509Y0072817D01*
X0195510Y0073815D02*
X0277259Y0073815D01*
X0277259Y0074814D02*
X0194512Y0074814D01*
X0193513Y0075812D02*
X0277259Y0075812D01*
X0277259Y0076811D02*
X0192515Y0076811D01*
X0191516Y0077809D02*
X0277259Y0077809D01*
X0277259Y0078808D02*
X0190518Y0078808D01*
X0189519Y0079806D02*
X0277259Y0079806D01*
X0277259Y0080805D02*
X0188520Y0080805D01*
X0187522Y0081803D02*
X0277259Y0081803D01*
X0277259Y0082802D02*
X0186523Y0082802D01*
X0185525Y0083800D02*
X0277259Y0083800D01*
X0277259Y0084799D02*
X0275478Y0084799D01*
X0275478Y0084260D02*
X0275478Y0100236D01*
X0275039Y0100675D01*
X0255520Y0100675D01*
X0255081Y0100236D01*
X0255081Y0084654D01*
X0255081Y0084260D01*
X0255520Y0083821D01*
X0275039Y0083821D01*
X0275478Y0084260D01*
X0275478Y0085797D02*
X0277259Y0085797D01*
X0277259Y0086796D02*
X0275478Y0086796D01*
X0275478Y0087794D02*
X0277259Y0087794D01*
X0277259Y0088793D02*
X0275478Y0088793D01*
X0275478Y0089791D02*
X0277259Y0089791D01*
X0277259Y0090790D02*
X0275478Y0090790D01*
X0275478Y0091788D02*
X0277259Y0091788D01*
X0277259Y0092787D02*
X0275478Y0092787D01*
X0275478Y0093785D02*
X0277259Y0093785D01*
X0277259Y0094784D02*
X0275478Y0094784D01*
X0275478Y0095782D02*
X0277259Y0095782D01*
X0277259Y0096781D02*
X0275478Y0096781D01*
X0275478Y0097779D02*
X0277259Y0097779D01*
X0277259Y0098778D02*
X0275478Y0098778D01*
X0275478Y0099776D02*
X0277259Y0099776D01*
X0277259Y0100775D02*
X0240000Y0100775D01*
X0239633Y0100408D02*
X0240387Y0101162D01*
X0240795Y0102148D01*
X0240795Y0103214D01*
X0240387Y0104200D01*
X0239633Y0104954D01*
X0238647Y0105362D01*
X0237581Y0105362D01*
X0236595Y0104954D01*
X0236123Y0104481D01*
X0195032Y0104481D01*
X0195032Y0116437D01*
X0195505Y0116910D01*
X0195913Y0117896D01*
X0195913Y0118962D01*
X0195505Y0119948D01*
X0194751Y0120702D01*
X0193766Y0121110D01*
X0192699Y0121110D01*
X0191714Y0120702D01*
X0190959Y0119948D01*
X0190551Y0118962D01*
X0190551Y0117896D01*
X0190959Y0116910D01*
X0191432Y0116437D01*
X0191432Y0101936D01*
X0192487Y0100881D01*
X0236123Y0100881D01*
X0236595Y0100408D01*
X0237581Y0100000D01*
X0238647Y0100000D01*
X0239633Y0100408D01*
X0240640Y0101773D02*
X0277259Y0101773D01*
X0277259Y0102772D02*
X0240795Y0102772D01*
X0240565Y0103770D02*
X0277259Y0103770D01*
X0277259Y0104769D02*
X0239818Y0104769D01*
X0236410Y0104769D02*
X0195032Y0104769D01*
X0195032Y0105767D02*
X0277259Y0105767D01*
X0277259Y0106766D02*
X0195032Y0106766D01*
X0195032Y0107764D02*
X0277259Y0107764D01*
X0277259Y0108763D02*
X0195032Y0108763D01*
X0195032Y0109761D02*
X0277259Y0109761D01*
X0277259Y0110760D02*
X0236624Y0110760D01*
X0236456Y0110593D02*
X0217559Y0110593D01*
X0216937Y0110593D01*
X0216498Y0111032D01*
X0216498Y0126614D01*
X0216937Y0127053D01*
X0236456Y0127053D01*
X0236896Y0126614D01*
X0236896Y0111032D01*
X0236456Y0110593D01*
X0236896Y0111758D02*
X0277259Y0111758D01*
X0277259Y0112757D02*
X0236896Y0112757D01*
X0236896Y0113755D02*
X0277259Y0113755D01*
X0277259Y0114754D02*
X0236896Y0114754D01*
X0236896Y0115753D02*
X0277259Y0115753D01*
X0277259Y0116751D02*
X0236896Y0116751D01*
X0236896Y0117750D02*
X0277259Y0117750D01*
X0277259Y0118748D02*
X0236896Y0118748D01*
X0236896Y0119747D02*
X0277259Y0119747D01*
X0277259Y0120745D02*
X0236896Y0120745D01*
X0236896Y0121744D02*
X0277259Y0121744D01*
X0277259Y0122742D02*
X0236896Y0122742D01*
X0236896Y0123741D02*
X0277259Y0123741D01*
X0277259Y0124739D02*
X0236896Y0124739D01*
X0236896Y0125738D02*
X0277259Y0125738D01*
X0277259Y0126736D02*
X0236773Y0126736D01*
X0216620Y0126736D02*
X0119048Y0126736D01*
X0119048Y0125738D02*
X0216498Y0125738D01*
X0216498Y0124739D02*
X0119048Y0124739D01*
X0119048Y0123741D02*
X0216498Y0123741D01*
X0216498Y0122742D02*
X0119048Y0122742D01*
X0119048Y0121744D02*
X0216498Y0121744D01*
X0216498Y0120745D02*
X0194647Y0120745D01*
X0195589Y0119747D02*
X0216498Y0119747D01*
X0216498Y0118748D02*
X0195913Y0118748D01*
X0195853Y0117750D02*
X0216498Y0117750D01*
X0216498Y0116751D02*
X0195346Y0116751D01*
X0195032Y0115753D02*
X0216498Y0115753D01*
X0216498Y0114754D02*
X0195032Y0114754D01*
X0195032Y0113755D02*
X0216498Y0113755D01*
X0216498Y0112757D02*
X0195032Y0112757D01*
X0195032Y0111758D02*
X0216498Y0111758D01*
X0216770Y0110760D02*
X0195032Y0110760D01*
X0191432Y0110760D02*
X0178497Y0110760D01*
X0178497Y0111758D02*
X0191432Y0111758D01*
X0191432Y0112757D02*
X0178497Y0112757D01*
X0178497Y0113755D02*
X0191432Y0113755D01*
X0191432Y0114754D02*
X0178497Y0114754D01*
X0178497Y0115753D02*
X0191432Y0115753D01*
X0191119Y0116751D02*
X0178497Y0116751D01*
X0178497Y0117750D02*
X0190612Y0117750D01*
X0190551Y0118748D02*
X0177742Y0118748D01*
X0174897Y0114754D02*
X0161217Y0114754D01*
X0161268Y0113755D02*
X0174897Y0113755D01*
X0174897Y0112757D02*
X0160933Y0112757D01*
X0159944Y0111758D02*
X0174897Y0111758D01*
X0174897Y0110760D02*
X0135318Y0110760D01*
X0134432Y0109761D02*
X0156757Y0109761D01*
X0157230Y0111758D02*
X0136317Y0111758D01*
X0134221Y0114754D02*
X0119048Y0114754D01*
X0119048Y0113755D02*
X0122562Y0113755D01*
X0121855Y0112757D02*
X0119232Y0112757D01*
X0119815Y0111758D02*
X0121654Y0111758D01*
X0121837Y0110760D02*
X0119929Y0110760D01*
X0119658Y0109761D02*
X0122518Y0109761D01*
X0124762Y0108763D02*
X0118854Y0108763D01*
X0116800Y0106766D02*
X0126759Y0106766D01*
X0125761Y0107764D02*
X0115849Y0107764D01*
X0115642Y0108763D02*
X0115505Y0108763D01*
X0117751Y0105767D02*
X0127758Y0105767D01*
X0128756Y0104769D02*
X0118702Y0104769D01*
X0119652Y0103770D02*
X0129755Y0103770D01*
X0130546Y0102772D02*
X0120603Y0102772D01*
X0122222Y0101773D02*
X0131293Y0101773D01*
X0131033Y0098778D02*
X0124260Y0098778D01*
X0124216Y0099776D02*
X0163701Y0099776D01*
X0166858Y0099776D02*
X0174897Y0099776D01*
X0174897Y0098778D02*
X0167678Y0098778D01*
X0167961Y0097779D02*
X0174897Y0097779D01*
X0174897Y0096781D02*
X0170901Y0096781D01*
X0171945Y0095782D02*
X0174897Y0095782D01*
X0174897Y0094784D02*
X0172291Y0094784D01*
X0172252Y0093785D02*
X0174897Y0093785D01*
X0174897Y0092787D02*
X0171775Y0092787D01*
X0168320Y0096781D02*
X0167858Y0096781D01*
X0174897Y0100775D02*
X0123733Y0100775D01*
X0134699Y0101773D02*
X0174897Y0101773D01*
X0174897Y0102772D02*
X0135446Y0102772D01*
X0135677Y0103770D02*
X0174897Y0103770D01*
X0174897Y0104769D02*
X0135523Y0104769D01*
X0134883Y0105767D02*
X0156827Y0105767D01*
X0160346Y0105767D02*
X0174897Y0105767D01*
X0174897Y0106766D02*
X0161061Y0106766D01*
X0161268Y0107764D02*
X0174897Y0107764D01*
X0174897Y0108763D02*
X0161089Y0108763D01*
X0160416Y0109761D02*
X0174897Y0109761D01*
X0178497Y0109761D02*
X0191432Y0109761D01*
X0191432Y0108763D02*
X0178497Y0108763D01*
X0178497Y0107764D02*
X0191432Y0107764D01*
X0191432Y0106766D02*
X0178497Y0106766D01*
X0178497Y0105767D02*
X0191432Y0105767D01*
X0191432Y0104769D02*
X0178497Y0104769D01*
X0178497Y0103770D02*
X0191432Y0103770D01*
X0191432Y0102772D02*
X0178497Y0102772D01*
X0178497Y0101773D02*
X0191594Y0101773D01*
X0178497Y0100775D02*
X0236229Y0100775D01*
X0255081Y0099776D02*
X0178497Y0099776D01*
X0178497Y0098778D02*
X0255081Y0098778D01*
X0255081Y0097779D02*
X0178497Y0097779D01*
X0178497Y0096781D02*
X0255081Y0096781D01*
X0255081Y0095782D02*
X0178497Y0095782D01*
X0178497Y0094784D02*
X0255081Y0094784D01*
X0255081Y0093785D02*
X0178497Y0093785D01*
X0178497Y0092787D02*
X0255081Y0092787D01*
X0255081Y0091788D02*
X0178497Y0091788D01*
X0178535Y0090790D02*
X0255081Y0090790D01*
X0255081Y0089791D02*
X0179534Y0089791D01*
X0180532Y0088793D02*
X0255081Y0088793D01*
X0255081Y0087794D02*
X0181531Y0087794D01*
X0182529Y0086796D02*
X0255081Y0086796D01*
X0255081Y0085797D02*
X0183528Y0085797D01*
X0184526Y0084799D02*
X0255081Y0084799D01*
X0277259Y0054843D02*
X0201633Y0054843D01*
X0201819Y0053845D02*
X0277259Y0053845D01*
X0277259Y0052846D02*
X0201619Y0052846D01*
X0200915Y0051848D02*
X0277259Y0051848D01*
X0277259Y0050849D02*
X0198670Y0050849D01*
X0197672Y0049851D02*
X0277259Y0049851D01*
X0277259Y0048852D02*
X0196673Y0048852D01*
X0195675Y0047854D02*
X0277259Y0047854D01*
X0277259Y0046855D02*
X0194676Y0046855D01*
X0193678Y0045857D02*
X0277259Y0045857D01*
X0277259Y0044858D02*
X0192679Y0044858D01*
X0191681Y0043860D02*
X0277259Y0043860D01*
X0277259Y0042861D02*
X0190682Y0042861D01*
X0189684Y0041863D02*
X0277259Y0041863D01*
X0277259Y0040864D02*
X0188685Y0040864D01*
X0187687Y0039866D02*
X0277259Y0039866D01*
X0277259Y0038867D02*
X0179330Y0038867D01*
X0180264Y0037869D02*
X0277259Y0037869D01*
X0277259Y0036870D02*
X0180678Y0036870D01*
X0181092Y0035872D02*
X0277259Y0035872D01*
X0277259Y0034873D02*
X0275093Y0034873D01*
X0275039Y0034927D02*
X0255520Y0034927D01*
X0255081Y0034488D01*
X0255081Y0018512D01*
X0255520Y0018073D01*
X0256141Y0018073D01*
X0275039Y0018073D01*
X0275478Y0018512D01*
X0275478Y0034488D01*
X0275039Y0034927D01*
X0275478Y0033875D02*
X0277259Y0033875D01*
X0277259Y0032876D02*
X0275478Y0032876D01*
X0275478Y0031878D02*
X0277259Y0031878D01*
X0277259Y0030879D02*
X0275478Y0030879D01*
X0275478Y0029881D02*
X0277259Y0029881D01*
X0277259Y0028882D02*
X0275478Y0028882D01*
X0275478Y0027884D02*
X0277259Y0027884D01*
X0277259Y0026885D02*
X0275478Y0026885D01*
X0275478Y0025886D02*
X0277259Y0025886D01*
X0277259Y0024888D02*
X0275478Y0024888D01*
X0275478Y0023889D02*
X0277259Y0023889D01*
X0277259Y0022891D02*
X0275478Y0022891D01*
X0275478Y0021892D02*
X0277259Y0021892D01*
X0277259Y0020894D02*
X0275478Y0020894D01*
X0275478Y0019895D02*
X0277259Y0019895D01*
X0277259Y0018897D02*
X0275478Y0018897D01*
X0277259Y0005916D02*
X0003300Y0005916D01*
X0003300Y0004918D02*
X0277259Y0004918D01*
X0277259Y0003919D02*
X0003300Y0003919D01*
X0003300Y0018897D02*
X0083776Y0018897D01*
X0083505Y0017898D02*
X0038896Y0017898D01*
X0040596Y0016900D02*
X0083505Y0016900D01*
X0083618Y0015901D02*
X0041486Y0015901D01*
X0042062Y0014903D02*
X0084031Y0014903D01*
X0084655Y0013904D02*
X0042393Y0013904D01*
X0042471Y0011907D02*
X0119172Y0011907D01*
X0121231Y0010909D02*
X0042239Y0010909D01*
X0041802Y0009910D02*
X0129624Y0009910D01*
X0128705Y0010829D02*
X0128705Y0010829D01*
X0128626Y0010909D02*
X0123502Y0010909D01*
X0125560Y0011907D02*
X0127627Y0011907D01*
X0126629Y0012906D02*
X0126559Y0012906D01*
X0127236Y0017898D02*
X0127496Y0017898D01*
X0127910Y0018897D02*
X0126822Y0018897D01*
X0125892Y0019895D02*
X0128841Y0019895D01*
X0130431Y0020894D02*
X0124301Y0020894D01*
X0113171Y0019895D02*
X0102034Y0019895D01*
X0098604Y0019895D02*
X0094878Y0019895D01*
X0096110Y0020894D02*
X0097864Y0020894D01*
X0097638Y0021892D02*
X0097342Y0021892D01*
X0098005Y0027884D02*
X0098960Y0027884D01*
X0086388Y0031878D02*
X0003300Y0031878D01*
X0003300Y0032876D02*
X0085683Y0032876D01*
X0084685Y0033875D02*
X0003300Y0033875D01*
X0003300Y0030879D02*
X0085021Y0030879D01*
X0084183Y0029881D02*
X0003300Y0029881D01*
X0003300Y0028882D02*
X0083769Y0028882D01*
X0083505Y0027884D02*
X0003300Y0027884D01*
X0003300Y0026885D02*
X0083505Y0026885D01*
X0083624Y0025886D02*
X0003300Y0025886D01*
X0003300Y0024888D02*
X0084038Y0024888D01*
X0084670Y0023889D02*
X0003300Y0023889D01*
X0003300Y0022891D02*
X0085669Y0022891D01*
X0086424Y0021892D02*
X0003300Y0021892D01*
X0003300Y0020894D02*
X0085036Y0020894D01*
X0084189Y0019895D02*
X0003300Y0019895D01*
X0003300Y0102772D02*
X0035041Y0102772D01*
X0032694Y0103770D02*
X0003300Y0103770D01*
X0003300Y0104769D02*
X0031695Y0104769D01*
X0030697Y0105767D02*
X0003300Y0105767D01*
X0003300Y0106766D02*
X0030259Y0106766D01*
X0029845Y0107764D02*
X0003300Y0107764D01*
X0003300Y0108763D02*
X0029528Y0108763D01*
X0029528Y0109761D02*
X0003300Y0109761D01*
X0003300Y0110760D02*
X0029528Y0110760D01*
X0029644Y0111758D02*
X0003300Y0111758D01*
X0003300Y0112757D02*
X0030058Y0112757D01*
X0030471Y0113755D02*
X0003300Y0113755D01*
X0003300Y0114754D02*
X0031210Y0114754D01*
X0032209Y0115753D02*
X0003300Y0115753D01*
X0003300Y0116751D02*
X0033870Y0116751D01*
X0042656Y0114754D02*
X0084358Y0114754D01*
X0092507Y0110760D02*
X0103239Y0110760D01*
X0103239Y0111758D02*
X0093044Y0111758D01*
X0094043Y0112757D02*
X0103484Y0112757D01*
X0103637Y0113755D02*
X0095041Y0113755D01*
X0097286Y0114754D02*
X0103637Y0114754D01*
X0103637Y0115753D02*
X0097809Y0115753D01*
X0097882Y0116751D02*
X0098478Y0116751D01*
X0100585Y0116751D02*
X0103637Y0116751D01*
X0102980Y0117750D02*
X0101826Y0117750D01*
X0102213Y0118748D02*
X0102756Y0118748D01*
X0102918Y0119747D02*
X0102213Y0119747D01*
X0101795Y0120745D02*
X0103568Y0120745D01*
X0104237Y0121744D02*
X0101331Y0121744D01*
X0101331Y0122742D02*
X0105118Y0122742D01*
X0105303Y0123741D02*
X0101096Y0123741D01*
X0100098Y0124739D02*
X0105987Y0124739D01*
X0109612Y0124739D02*
X0111905Y0124739D01*
X0111905Y0123741D02*
X0110295Y0123741D01*
X0110480Y0122742D02*
X0111905Y0122742D01*
X0111905Y0121744D02*
X0110280Y0121744D01*
X0109576Y0120745D02*
X0111905Y0120745D01*
X0111905Y0119747D02*
X0107956Y0119747D01*
X0108118Y0118748D02*
X0111905Y0118748D01*
X0111905Y0117750D02*
X0107894Y0117750D01*
X0107237Y0116751D02*
X0111905Y0116751D01*
X0111905Y0115753D02*
X0107237Y0115753D01*
X0107237Y0114754D02*
X0111905Y0114754D01*
X0111905Y0113755D02*
X0107237Y0113755D01*
X0108695Y0112757D02*
X0109660Y0112757D01*
X0111342Y0112757D02*
X0111343Y0112757D01*
X0111342Y0111758D02*
X0111343Y0111758D01*
X0103862Y0108763D02*
X0096840Y0108763D01*
X0093276Y0109761D02*
X0103239Y0109761D01*
X0119048Y0115753D02*
X0135220Y0115753D01*
X0137402Y0116751D02*
X0119048Y0116751D01*
X0119048Y0117750D02*
X0137402Y0117750D01*
X0137802Y0118748D02*
X0119048Y0118748D01*
X0119048Y0119747D02*
X0139109Y0119747D01*
X0141057Y0119747D02*
X0190876Y0119747D01*
X0191817Y0120745D02*
X0119048Y0120745D01*
X0111905Y0125738D02*
X0099099Y0125738D01*
X0098276Y0126736D02*
X0111905Y0126736D01*
X0111905Y0127735D02*
X0098067Y0127735D01*
X0097350Y0128733D02*
X0111905Y0128733D01*
X0111905Y0129732D02*
X0093288Y0129732D01*
X0093702Y0128733D02*
X0093839Y0128733D01*
X0092537Y0130730D02*
X0111905Y0130730D01*
X0111905Y0131729D02*
X0091381Y0131729D01*
X0096474Y0132727D02*
X0100936Y0132727D01*
X0099834Y0133726D02*
X0097576Y0133726D01*
X0098304Y0134724D02*
X0099105Y0134724D01*
X0106474Y0132727D02*
X0110936Y0132727D01*
X0109834Y0133726D02*
X0107576Y0133726D01*
X0108304Y0134724D02*
X0109105Y0134724D01*
X0109115Y0139717D02*
X0108294Y0139717D01*
X0107552Y0140715D02*
X0109857Y0140715D01*
X0110993Y0141714D02*
X0106417Y0141714D01*
X0100993Y0141714D02*
X0096417Y0141714D01*
X0097552Y0140715D02*
X0099857Y0140715D01*
X0099115Y0139717D02*
X0098294Y0139717D01*
X0116417Y0141714D02*
X0120993Y0141714D01*
X0119857Y0140715D02*
X0117552Y0140715D01*
X0118294Y0139717D02*
X0119115Y0139717D01*
X0119105Y0134724D02*
X0118304Y0134724D01*
X0117576Y0133726D02*
X0119834Y0133726D01*
X0120936Y0132727D02*
X0118250Y0132727D01*
X0119533Y0131729D02*
X0277259Y0131729D01*
X0277259Y0132727D02*
X0145895Y0132727D01*
X0145619Y0132587D02*
X0146319Y0132943D01*
X0146954Y0133404D01*
X0147509Y0133960D01*
X0147970Y0134595D01*
X0148327Y0135294D01*
X0148569Y0136041D01*
X0148675Y0136709D01*
X0144205Y0136709D01*
X0144205Y0137709D01*
X0143205Y0137709D01*
X0143205Y0142179D01*
X0142537Y0142073D01*
X0141790Y0141831D01*
X0141091Y0141474D01*
X0140456Y0141013D01*
X0139901Y0140458D01*
X0139439Y0139823D01*
X0139083Y0139123D01*
X0138840Y0138377D01*
X0138734Y0137709D01*
X0143205Y0137709D01*
X0143205Y0136709D01*
X0138734Y0136709D01*
X0138840Y0136041D01*
X0139083Y0135294D01*
X0139439Y0134595D01*
X0139901Y0133960D01*
X0140456Y0133404D01*
X0141091Y0132943D01*
X0141790Y0132587D01*
X0142537Y0132344D01*
X0143205Y0132238D01*
X0143205Y0136709D01*
X0144205Y0136709D01*
X0144205Y0132238D01*
X0144873Y0132344D01*
X0145619Y0132587D01*
X0144205Y0132727D02*
X0143205Y0132727D01*
X0143205Y0133726D02*
X0144205Y0133726D01*
X0144205Y0134724D02*
X0143205Y0134724D01*
X0143205Y0135723D02*
X0144205Y0135723D01*
X0144205Y0136721D02*
X0277259Y0136721D01*
X0277259Y0135723D02*
X0148466Y0135723D01*
X0148036Y0134724D02*
X0277259Y0134724D01*
X0277259Y0133726D02*
X0147275Y0133726D01*
X0143205Y0136721D02*
X0134205Y0136721D01*
X0134205Y0136709D02*
X0138675Y0136709D01*
X0138569Y0136041D01*
X0138327Y0135294D01*
X0137970Y0134595D01*
X0137509Y0133960D01*
X0136954Y0133404D01*
X0136319Y0132943D01*
X0135619Y0132587D01*
X0134873Y0132344D01*
X0134205Y0132238D01*
X0134205Y0136709D01*
X0134205Y0135723D02*
X0133205Y0135723D01*
X0133205Y0134724D02*
X0134205Y0134724D01*
X0134205Y0133726D02*
X0133205Y0133726D01*
X0133205Y0132727D02*
X0134205Y0132727D01*
X0135895Y0132727D02*
X0141514Y0132727D01*
X0140134Y0133726D02*
X0137275Y0133726D01*
X0138036Y0134724D02*
X0139373Y0134724D01*
X0138943Y0135723D02*
X0138466Y0135723D01*
X0138675Y0137709D02*
X0138569Y0138377D01*
X0138327Y0139123D01*
X0137970Y0139823D01*
X0137509Y0140458D01*
X0136954Y0141013D01*
X0136319Y0141474D01*
X0135619Y0141831D01*
X0134873Y0142073D01*
X0134205Y0142179D01*
X0134205Y0137709D01*
X0138675Y0137709D01*
X0138673Y0137720D02*
X0138736Y0137720D01*
X0138951Y0138718D02*
X0138458Y0138718D01*
X0138024Y0139717D02*
X0139385Y0139717D01*
X0140158Y0140715D02*
X0137251Y0140715D01*
X0135849Y0141714D02*
X0141561Y0141714D01*
X0143205Y0141714D02*
X0144205Y0141714D01*
X0144205Y0142179D02*
X0144205Y0137709D01*
X0148675Y0137709D01*
X0148569Y0138377D01*
X0148327Y0139123D01*
X0147970Y0139823D01*
X0147509Y0140458D01*
X0146954Y0141013D01*
X0146319Y0141474D01*
X0145619Y0141831D01*
X0144873Y0142073D01*
X0144205Y0142179D01*
X0144205Y0140715D02*
X0143205Y0140715D01*
X0143205Y0139717D02*
X0144205Y0139717D01*
X0144205Y0138718D02*
X0143205Y0138718D01*
X0143205Y0137720D02*
X0144205Y0137720D01*
X0148024Y0139717D02*
X0277259Y0139717D01*
X0277259Y0140715D02*
X0147251Y0140715D01*
X0145849Y0141714D02*
X0277259Y0141714D01*
X0277259Y0138718D02*
X0148458Y0138718D01*
X0148673Y0137720D02*
X0277259Y0137720D01*
X0277259Y0130730D02*
X0119929Y0130730D01*
X0119929Y0129732D02*
X0277259Y0129732D01*
X0277259Y0128733D02*
X0119526Y0128733D01*
X0119048Y0127735D02*
X0277259Y0127735D01*
X0159675Y0055842D02*
X0148049Y0055842D01*
X0149433Y0054843D02*
X0158291Y0054843D01*
X0157512Y0053845D02*
X0150212Y0053845D01*
X0150626Y0052846D02*
X0157098Y0052846D01*
X0156936Y0051848D02*
X0150788Y0051848D01*
X0150788Y0050849D02*
X0156936Y0050849D01*
X0157224Y0049851D02*
X0150501Y0049851D01*
X0150087Y0048852D02*
X0157637Y0048852D01*
X0158594Y0047854D02*
X0149130Y0047854D01*
X0146382Y0042861D02*
X0146382Y0042861D01*
X0146382Y0041863D02*
X0146382Y0041863D01*
X0146382Y0040864D02*
X0146382Y0040864D01*
X0146382Y0039866D02*
X0146382Y0039866D01*
X0144347Y0039866D02*
X0143457Y0039866D01*
X0143457Y0040864D02*
X0143945Y0040864D01*
X0143984Y0041863D02*
X0143457Y0041863D01*
X0143457Y0042861D02*
X0144488Y0042861D01*
X0176638Y0026885D02*
X0217285Y0026885D01*
X0217285Y0027884D02*
X0178514Y0027884D01*
X0179512Y0028882D02*
X0217285Y0028882D01*
X0217285Y0029881D02*
X0180340Y0029881D01*
X0180754Y0030879D02*
X0217285Y0030879D01*
X0217285Y0031878D02*
X0181167Y0031878D01*
X0181346Y0032876D02*
X0217285Y0032876D01*
X0217285Y0033875D02*
X0181346Y0033875D01*
X0181346Y0034873D02*
X0217671Y0034873D01*
X0237298Y0034873D02*
X0255466Y0034873D01*
X0255081Y0033875D02*
X0237683Y0033875D01*
X0237683Y0032876D02*
X0255081Y0032876D01*
X0255081Y0031878D02*
X0237683Y0031878D01*
X0237683Y0030879D02*
X0255081Y0030879D01*
X0255081Y0029881D02*
X0237683Y0029881D01*
X0237683Y0028882D02*
X0255081Y0028882D01*
X0255081Y0027884D02*
X0237683Y0027884D01*
X0237683Y0026885D02*
X0255081Y0026885D01*
X0255081Y0025886D02*
X0237683Y0025886D01*
X0237683Y0024888D02*
X0255081Y0024888D01*
X0255081Y0023889D02*
X0237683Y0023889D01*
X0237683Y0022891D02*
X0255081Y0022891D01*
X0255081Y0021892D02*
X0237683Y0021892D01*
X0237683Y0020894D02*
X0255081Y0020894D01*
X0255081Y0019895D02*
X0237683Y0019895D01*
X0237683Y0018897D02*
X0255081Y0018897D01*
X0189585Y0046855D02*
X0182377Y0046855D01*
X0182870Y0045857D02*
X0188587Y0045857D01*
X0187588Y0044858D02*
X0182921Y0044858D01*
X0182587Y0043860D02*
X0186590Y0043860D01*
X0129228Y0109761D02*
X0128855Y0109761D01*
X0127856Y0110760D02*
X0130227Y0110760D01*
X0131225Y0111758D02*
X0127016Y0111758D01*
X0126814Y0112757D02*
X0132224Y0112757D01*
X0133222Y0113755D02*
X0126107Y0113755D01*
X0126474Y0132727D02*
X0131514Y0132727D01*
X0130134Y0133726D02*
X0127576Y0133726D01*
X0128304Y0134724D02*
X0129373Y0134724D01*
X0128943Y0135723D02*
X0128718Y0135723D01*
X0128708Y0138718D02*
X0128951Y0138718D01*
X0129385Y0139717D02*
X0128294Y0139717D01*
X0127552Y0140715D02*
X0130158Y0140715D01*
X0131561Y0141714D02*
X0126417Y0141714D01*
X0133205Y0141714D02*
X0134205Y0141714D01*
X0134205Y0140715D02*
X0133205Y0140715D01*
X0133205Y0139717D02*
X0134205Y0139717D01*
X0134205Y0138718D02*
X0133205Y0138718D01*
X0133205Y0137720D02*
X0134205Y0137720D01*
X0035180Y0144709D02*
X0003300Y0144709D01*
X0003300Y0143711D02*
X0033284Y0143711D01*
X0032285Y0142712D02*
X0003300Y0142712D01*
X0003300Y0141714D02*
X0031714Y0141714D01*
X0031300Y0140715D02*
X0003300Y0140715D01*
X0003300Y0139717D02*
X0031133Y0139717D01*
X0031133Y0138718D02*
X0003300Y0138718D01*
X0003300Y0137720D02*
X0031251Y0137720D01*
X0031664Y0136721D02*
X0003300Y0136721D01*
X0003300Y0135723D02*
X0032165Y0135723D01*
X0033164Y0134724D02*
X0003300Y0134724D01*
X0003300Y0133726D02*
X0034890Y0133726D01*
M02*
