%
M48
M72
T01C0.01378
T02C0.03150
T03C0.04000
T04C0.04724
T05C0.11811
%
T01
X95594Y26697
X100319Y21972
X114886Y21972
X134177Y26303
X146382Y25516
X157012Y25516
X161736Y26303
X152287Y16067
X137720Y36933
X134177Y41657
X129453Y39689
X125516Y40083
X124728Y43626
X121579Y47169
X118823Y42839
X112917Y42839
X110949Y39689
X112917Y46776
X105437Y51894
X112917Y60555
X117248Y61736
X127091Y60949
X129453Y66461
X135752Y63311
X137720Y75122
X131815Y83783
X124728Y81815
X120004Y81815
X118429Y77091
X122760Y75909
X107799Y84177
X115160Y86007
X114492Y90476
X111736Y92839
X119217Y96776
X121579Y99138
X117642Y99925
X123941Y94020
X128665Y91657
X133390Y88508
X124728Y86933
X99531Y99531
X107012Y110949
X111343Y110949
X117248Y110949
X124335Y111736
X132602Y107799
X132996Y103862
X140083Y117248
X158587Y114098
X158587Y107799
X165280Y97563
X169610Y94413
X158587Y79453
X196776Y63311
X202681Y64098
X199138Y53862
X180240Y45201
X177091Y41657
X146382Y41264
X104256Y69217
X98744Y71579
X95988Y66854
X95594Y43626
X98350Y39689
X95201Y116461
X99531Y119217
X105437Y118823
X107799Y122760
X117248Y130240
X95594Y126697
X193232Y118429
X238114Y102681
T02
X161736Y51500
X145988Y51500
T03
X142366Y16067
X132366Y16067
X122366Y16067
X88705Y17209
X88705Y27209
X88705Y37209
X88705Y47209
X88705Y57209
X88705Y67209
X88705Y77209
X88705Y87209
X88705Y97209
X88705Y107209
X88705Y117209
X88705Y127209
X93705Y137209
X103705Y137209
X113705Y137209
X123705Y137209
X133705Y137209
X143705Y137209
T04
X36933Y12661
X36933Y139157
T05
X36933Y110004
X36933Y41815
X173941Y33783
M30
